<svg width="48" height="48" viewBox="0 0 48 48" fill="none" xmlns="http://www.w3.org/2000/svg">
<g clip-path="url(#clip0_47_6239)">
<path d="M33.668 34.8867C33.7618 35.5312 33.5625 35.789 32.9063 35.9062C32.2969 36.0117 31.6875 35.9765 31.0899 35.9765C30.8204 35.9765 30.6914 36.0117 30.7149 36.3281C30.7383 36.8906 30.7266 37.4531 30.7266 38.0156C30.7149 38.5078 30.8907 38.9179 31.2422 39.2695C32.6836 40.7109 34.1368 42.1523 35.5782 43.6054C35.7188 43.746 35.836 43.8046 36.0586 43.7343C37.3243 43.3476 38.5313 43.9687 38.8829 45.164C39.2461 46.3593 38.6016 47.496 37.3243 47.9296C37.2891 47.9414 37.2539 47.9882 37.2188 48.0117C36.9375 48.0117 36.6563 48.0117 36.375 48.0117C34.9805 47.7421 34.2422 46.6874 34.5235 45.2929C34.5938 44.9179 34.4883 44.6718 34.2422 44.4257C32.8946 43.0898 31.5704 41.7421 30.2227 40.4179C29.5196 39.7265 29.168 38.9296 29.2032 37.9453C29.2149 37.5585 29.2032 37.1601 29.2032 36.7734C29.2032 36.1874 29.168 36.1523 28.6055 36.1523C27.8907 36.1406 27.8789 36.1523 27.8789 36.8789C27.8789 37.4531 27.8789 38.039 27.8789 38.6132C27.8789 38.8476 27.8555 39.082 27.7618 39.3046C27.586 39.6914 27.211 39.914 26.8711 39.8554C26.5079 39.7851 26.2383 39.4687 26.2149 39.0468C26.1797 38.2968 26.2149 37.5468 26.2032 36.7968C26.2032 36.5859 26.2969 36.3046 26.0391 36.2109C25.711 36.0937 25.3594 36.0937 25.0313 36.2226C24.8438 36.2929 24.8907 36.5156 24.8907 36.6796C24.8789 37.5117 24.8907 38.332 24.8907 39.164C24.8907 41.6132 24.8907 44.0742 24.8907 46.5234C24.8907 46.7695 24.8907 47.0273 24.8438 47.2734C24.7852 47.6601 24.6094 47.9531 24.1875 48.0234C24.0586 48.0234 23.9414 48.0234 23.8125 48.0234C23.3672 47.8124 23.2852 47.4257 23.2969 46.9687C23.3086 43.4648 23.2969 39.9726 23.3086 36.4687C23.3086 36.0703 23.2032 35.9531 22.8164 35.9999C22.4649 36.0351 21.9844 35.8945 21.7735 36.0703C21.5274 36.2812 21.7032 36.7734 21.6914 37.1484C21.6797 37.7109 21.6914 38.2734 21.6914 38.8359C21.6797 39.4218 21.4219 39.7617 20.9883 39.7499C20.5547 39.7382 20.2969 39.4101 20.2969 38.8242C20.2852 37.9921 20.2852 37.1718 20.2969 36.3398C20.2969 36.0703 20.2149 35.9882 19.9571 35.9999C19.5586 36.0234 19.0313 35.871 18.7735 36.0703C18.5039 36.2812 18.6914 36.832 18.6914 37.2304C18.6797 38.7656 18.6914 40.289 18.6797 41.8242C18.6797 42.082 18.75 42.2343 18.9961 42.3632C19.9336 42.8437 20.3789 43.8749 20.1211 44.8476C19.8633 45.8203 18.9844 46.5117 18 46.5117C17.0157 46.5117 16.1016 45.8085 15.8555 44.8593C15.5977 43.8632 16.0313 42.8554 16.9571 42.3632C17.2032 42.2343 17.2735 42.0937 17.2735 41.8242C17.2618 40.0078 17.2618 38.2031 17.2735 36.3867C17.2735 36.0468 17.1797 35.9648 16.8633 35.9765C16.1954 36.0117 15.5157 36.0351 14.8594 35.8593C13.1016 35.4023 12.0352 33.996 12.0118 32.1093C12 31.7343 12 31.3593 12.0118 30.9843C12.0235 30.7734 11.9532 30.7148 11.7422 30.7148C11.0977 30.7265 10.4649 30.7265 9.82035 30.7265C9.4102 30.7265 9.05863 30.9023 8.77738 31.1835C7.30082 32.6484 5.83598 34.1249 4.37113 35.5898C4.20707 35.7539 4.21879 35.871 4.27738 36.082C4.6641 37.289 4.00785 38.5312 2.83598 38.8828C1.65238 39.2343 0.410195 38.5546 0.0820703 37.3593C-0.257773 36.164 0.445352 34.9687 1.6641 34.6406C2.05082 34.5351 2.44926 34.5234 2.81254 34.6757C3.11723 34.8046 3.28129 34.7109 3.49223 34.4999C4.8516 33.1171 6.23441 31.7695 7.59379 30.3867C8.30863 29.6484 9.15238 29.2734 10.1836 29.3203C10.6875 29.3437 11.1797 29.3085 11.6836 29.332C11.918 29.3437 12 29.2851 12.0118 29.0273C12.0704 27.7265 12.0704 27.7265 10.7696 27.7265C10.2188 27.7265 9.67973 27.7382 9.12895 27.7265C8.57816 27.7148 8.26176 27.4335 8.26176 27.0117C8.27348 26.5898 8.58988 26.332 9.14066 26.3203C9.9727 26.3085 10.793 26.3085 11.625 26.3203C11.8946 26.3203 12.0352 26.2851 12.0118 25.9687C11.9766 25.5703 12.1289 25.0429 11.9297 24.7968C11.7188 24.539 11.168 24.7148 10.7696 24.7148C7.54691 24.7031 4.33598 24.7148 1.11332 24.7148C0.339883 24.7148 3.90344e-05 24.5039 -0.0116797 24.0234C-0.0233985 23.5312 0.328164 23.3085 1.12504 23.3085C4.58207 23.3085 8.02738 23.2968 11.4844 23.3203C11.8711 23.3203 12.0235 23.2734 12.0118 22.8281C11.9766 21.7148 12 21.7148 10.8985 21.7148C10.336 21.7148 9.77348 21.7148 9.21098 21.7148C8.58988 21.7148 8.25004 21.457 8.25004 20.9999C8.26176 20.5546 8.6016 20.3085 9.23441 20.3085C10.0313 20.3085 10.8282 20.2968 11.625 20.3085C11.8829 20.3085 12.0352 20.2851 12 19.9687C11.9649 19.5703 12.1172 19.0429 11.918 18.7968C11.7071 18.539 11.1563 18.7148 10.7579 18.7148C9.2227 18.7031 7.69926 18.7148 6.1641 18.7031C5.89457 18.7031 5.75395 18.7734 5.62504 19.0195C5.14457 19.957 4.11332 20.4023 3.14066 20.1445C2.16801 19.8867 1.48832 19.0078 1.4766 18.0117C1.4766 17.0273 2.17973 16.1132 3.12895 15.8789C4.12504 15.6328 5.13285 16.0546 5.62504 16.9921C5.75395 17.2382 5.89457 17.3085 6.1641 17.3085C7.98051 17.2968 9.7852 17.2968 11.6016 17.3085C11.9414 17.3085 12.0118 17.2148 12 16.8867C11.9766 16.2773 11.9532 15.6679 12.0704 15.0585C12.1875 14.4492 12.4571 14.2499 13.0899 14.3437C13.5586 14.3906 13.5821 14.7539 13.6172 15.0937C13.6407 15.5039 13.5352 15.9023 13.5352 16.3007C13.5352 21.4687 13.5352 26.6367 13.5352 31.8046C13.5352 32.1328 13.5586 32.4609 13.6407 32.7773C13.8633 33.5976 14.3907 34.1249 15.211 34.3476C15.5743 34.4531 15.9493 34.4531 16.3243 34.4531C21.3985 34.4531 26.4727 34.4531 31.5469 34.4531C31.9805 34.4531 32.4141 34.3593 32.8477 34.371C33.2227 34.371 33.6094 34.3945 33.668 34.8867Z" fill="black"/>
<path d="M48 24.1875C47.7891 24.6328 47.4023 24.7148 46.9453 24.7031C43.4648 24.6914 39.9726 24.7031 36.4922 24.6914C36.0469 24.6914 35.9648 24.8203 35.9766 25.2304C36 26.3086 35.9883 26.3086 37.043 26.3086C37.6172 26.3086 38.2031 26.3086 38.7773 26.3086C39.3984 26.3086 39.75 26.5664 39.7383 27.0234C39.7266 27.4687 39.3867 27.7148 38.7539 27.7148C37.957 27.7148 37.1601 27.7265 36.3633 27.7148C36.1055 27.7148 35.9531 27.7382 35.9883 28.0546C36.0234 28.4531 35.8711 28.9804 36.0703 29.2382C36.2812 29.4961 36.832 29.3203 37.2305 29.3203C38.7656 29.332 40.2891 29.3203 41.8242 29.332C42.0937 29.332 42.2226 29.2617 42.3633 29.0156C42.8555 28.0781 43.875 27.6328 44.8477 27.8906C45.8203 28.1484 46.5 29.0273 46.5117 30.0234C46.5117 31.0078 45.8086 31.9218 44.8594 32.1562C43.8633 32.4023 42.8555 31.9804 42.3633 31.0429C42.2344 30.7851 42.082 30.7265 41.8242 30.7265C40.0078 30.7382 38.2031 30.7382 36.3867 30.7265C36.0469 30.7265 35.9766 30.832 35.9883 31.1484C36.0117 31.7578 36.0351 32.3671 35.918 32.9765C35.8008 33.5976 35.5195 33.7968 34.8984 33.6914C34.4297 33.6445 34.4062 33.2812 34.3711 32.9414C34.3476 32.5312 34.4531 32.1328 34.4531 31.7343C34.4531 26.5664 34.4531 21.3984 34.4531 16.2421C34.4531 15.914 34.4297 15.5859 34.3477 15.2695C34.125 14.4492 33.5977 13.9218 32.7773 13.6992C32.4141 13.5937 32.0391 13.5937 31.6641 13.5937C26.5898 13.5937 21.5156 13.5937 16.4414 13.5937C16.0078 13.5937 15.5742 13.6875 15.1406 13.6757C14.7891 13.664 14.4023 13.6406 14.3437 13.1484C14.25 12.5156 14.4492 12.246 15.0586 12.1289C15.6914 12.0117 16.3359 12.0586 16.9805 12.0586C17.2148 12.0586 17.3086 12.0117 17.2969 11.7539C17.2734 11.1562 17.2852 10.5703 17.2852 9.97261C17.2852 9.51558 17.1094 9.12886 16.793 8.80074C15.3398 7.34761 13.875 5.89449 12.4219 4.41792C12.2461 4.23042 12.0937 4.26558 11.8828 4.33589C10.7109 4.71089 9.48046 4.05464 9.1289 2.89449C8.77734 1.73433 9.43359 0.480424 10.5937 0.140581C11.7891 -0.210982 12.9961 0.445268 13.3477 1.6523C13.4648 2.07417 13.4766 2.49605 13.3242 2.89449C13.2187 3.16402 13.2773 3.30464 13.4766 3.49214C14.8477 4.8398 16.1836 6.22261 17.5664 7.55855C18.3516 8.32027 18.7734 9.19917 18.7148 10.3125C18.6914 10.7929 18.7266 11.2851 18.7031 11.7656C18.6914 12 18.7734 12.0468 18.9961 12.0586C20.3086 12.1289 20.3086 12.1289 20.3086 10.8281C20.3086 10.2773 20.2969 9.73824 20.3086 9.18746C20.3203 8.63667 20.5898 8.30855 21.0117 8.30855C21.4336 8.30855 21.7031 8.63667 21.7148 9.18746C21.7266 10.0312 21.7266 10.875 21.7148 11.7187C21.7148 11.9765 21.7852 12.082 22.0547 12.0586C22.4531 12.0351 22.9805 12.1875 23.2383 11.9882C23.5078 11.7773 23.3203 11.2265 23.3203 10.8398C23.332 7.60542 23.3203 4.37105 23.3203 1.13667C23.3203 0.410112 23.5312 0.070268 24 0.0585493C24.4805 0.0351118 24.7266 0.398393 24.7266 1.14839C24.7266 4.62886 24.7383 8.12105 24.7148 11.6015C24.7148 11.9882 24.8086 12.0937 25.1953 12.082C26.3203 12.0585 26.3203 12.0703 26.3203 10.9336C26.3203 10.3359 26.3086 9.74996 26.3203 9.1523C26.332 8.63667 26.6133 8.32027 27.0234 8.32027C27.4336 8.32027 27.7148 8.63667 27.7266 9.1523C27.7383 10.0078 27.7383 10.875 27.7266 11.7304C27.7266 11.9882 27.7851 12.0703 28.0547 12.0703C29.332 12.0937 29.332 12.1054 29.332 10.8398C29.332 9.30464 29.332 7.78121 29.332 6.24605C29.332 5.98824 29.2734 5.83589 29.0273 5.70699C28.0898 5.22652 27.6445 4.20699 27.8906 3.22261C28.1367 2.24996 29.0156 1.55855 30.0117 1.54683C30.9961 1.53511 31.9101 2.23824 32.1562 3.18746C32.4141 4.19527 31.9805 5.20308 31.0195 5.70699C30.8086 5.82417 30.7383 5.92964 30.7383 6.16402C30.75 8.00386 30.75 9.85543 30.7383 11.6953C30.7383 11.9765 30.7969 12.0703 31.1016 12.0586C31.8047 12.0351 32.5078 12 33.1992 12.1875C34.957 12.6796 35.9766 14.0507 36.0117 15.914C36.0234 16.2773 36.0234 16.6289 36.0117 16.9921C36 17.2265 36.0586 17.3203 36.3164 17.3086C36.9141 17.2851 37.5 17.2968 38.0977 17.2968C38.5547 17.2968 38.9414 17.1211 39.2695 16.8046C40.7226 15.3398 42.1875 13.8867 43.6406 12.4335C43.7812 12.3046 43.8281 12.1875 43.7578 11.9882C43.3711 10.6992 43.9805 9.50386 45.1641 9.1523C46.3711 8.78902 47.4961 9.42183 47.9414 10.7109C47.9531 10.746 47.9883 10.7812 48.0234 10.8164C48.0234 11.1328 48.0234 11.4375 48.0234 11.7539C47.6953 13.1015 46.6641 13.7929 45.3047 13.5117C44.9297 13.4414 44.6836 13.5351 44.4375 13.7929C43.1016 15.1406 41.7422 16.4882 40.4062 17.8359C39.7383 18.5039 38.9648 18.8554 38.0156 18.8203C37.5586 18.8086 37.1133 18.832 36.6562 18.8203C36.293 18.8086 36.1406 18.9726 36.1641 19.3242C36.1641 19.3828 36.1641 19.3125 36.1641 19.3711C36.1406 20.1445 36.1406 20.1445 36.9375 20.1445C37.5 20.1445 38.0625 20.1445 38.625 20.1445C38.8594 20.1445 39.0937 20.1679 39.3164 20.2617C39.6914 20.4257 39.9141 20.7656 39.8672 21.1054C39.8086 21.5156 39.5156 21.7968 39.0586 21.8086C38.3086 21.8437 37.5586 21.8086 36.8086 21.8203C36.5977 21.8203 36.3164 21.7265 36.2227 21.9843C36.1172 22.3125 36.1055 22.664 36.2344 22.9921C36.3047 23.1796 36.5273 23.1328 36.7031 23.1328C37.6523 23.1328 38.6133 23.1328 39.5625 23.1328C41.8945 23.1328 44.2148 23.1328 46.5469 23.1328C46.793 23.1328 47.0508 23.1328 47.2969 23.1796C47.6836 23.2382 47.9648 23.414 48.0469 23.8359C48 23.9296 48 24.0586 48 24.1875Z" fill="black"/>
<path d="M14.3203 13.1016C14.5078 13.3828 14.7539 13.5352 15.1055 13.4883C16.4766 13.3242 17.8477 13.418 19.2187 13.4062C23.4375 13.3945 27.6562 13.4062 31.875 13.4062C33.6445 13.4062 34.5586 14.332 34.5586 16.0898C34.5586 21.3398 34.5586 26.5898 34.5586 31.8398C34.5586 32.1563 34.5234 32.4609 34.4883 32.7656C34.4414 33.1406 34.5469 33.4453 34.875 33.6445C34.6172 34.1953 34.207 34.6055 33.6563 34.8633C33.4688 34.582 33.2227 34.4297 32.8711 34.4648C31.4648 34.6289 30.0586 34.5352 28.6641 34.5469C24.4805 34.5586 20.2852 34.5469 16.1016 34.5469C14.332 34.5469 13.418 33.6211 13.418 31.8633C13.418 26.6133 13.418 21.3633 13.418 16.1133C13.418 15.7969 13.4531 15.4922 13.4883 15.1875C13.5352 14.8125 13.4297 14.5078 13.1016 14.3086C13.3594 13.7695 13.7695 13.3711 14.3203 13.1016Z" fill="#4BD6C7"/>
<path d="M2.20315 35.9883C2.62502 35.9883 2.97659 36.3398 2.9883 36.75C3.00002 37.1836 2.6133 37.5703 2.19143 37.5703C1.79299 37.5703 1.40627 37.1953 1.40627 36.7852C1.39455 36.3633 1.76955 35.9883 2.20315 35.9883Z" fill="#97E7DD"/>
<path d="M18.7617 44.2969C18.7617 44.7187 18.4102 45.0703 17.9883 45.082C17.5664 45.0938 17.1797 44.707 17.1797 44.2734C17.1797 43.8516 17.543 43.5 17.9531 43.4883C18.4102 43.4883 18.7734 43.8516 18.7617 44.2969Z" fill="#4AD5C6"/>
<path d="M36.75 44.9999C37.1836 44.9882 37.5703 45.3749 37.5703 45.7968C37.5703 46.1952 37.1836 46.5819 36.7852 46.5819C36.375 46.5936 36 46.2421 35.9883 45.8202C35.9649 45.3866 36.3164 45.0116 36.75 44.9999Z" fill="#97E7DD"/>
<path d="M4.48833 18C4.47661 18.4453 4.10161 18.7852 3.6563 18.7617C3.23443 18.7383 2.89458 18.375 2.9063 17.9648C2.91802 17.5547 3.29302 17.1914 3.70318 17.1914C4.13677 17.1914 4.50005 17.5664 4.48833 18Z" fill="#4AD5C6"/>
<path d="M11.2266 2.9882C10.793 2.99992 10.4063 2.6132 10.418 2.17961C10.4297 1.78117 10.8047 1.40617 11.2031 1.39445C11.6133 1.38273 11.9766 1.73429 12 2.15617C12.0235 2.60148 11.6719 2.9882 11.2266 2.9882Z" fill="#97E7DD"/>
<path d="M45.7734 12C45.3516 11.9883 45 11.6367 45 11.2266C45 10.793 45.3867 10.4063 45.8086 10.418C46.2187 10.4297 46.582 10.8047 46.582 11.2149C46.582 11.6485 46.207 12.0117 45.7734 12Z" fill="#97E7DD"/>
<path d="M29.9883 4.48828C29.543 4.47656 29.2032 4.11328 29.2266 3.65625C29.25 3.23438 29.6016 2.89453 30.0235 2.89453C30.4336 2.90625 30.7969 3.26953 30.7969 3.67969C30.8086 4.125 30.4219 4.5 29.9883 4.48828Z" fill="#4AD5C6"/>
<path d="M45.082 29.9999C45.082 30.4218 44.707 30.8085 44.2734 30.7968C43.8516 30.7851 43.5 30.4335 43.5 30.0116C43.5 29.5898 43.8281 29.2382 44.2617 29.2265C44.6953 29.2148 45.0703 29.5546 45.082 29.9999Z" fill="#4AD5C6"/>
<path d="M23.9648 33C21.3047 33 18.6562 33 15.9961 33C15.2109 33 14.9883 32.7773 14.9883 32.0039C14.9883 26.6602 14.9883 21.3164 14.9883 15.9727C14.9883 15.2227 15.2227 14.9883 15.9609 14.9883C21.3164 14.9883 26.6719 14.9883 32.0391 14.9883C32.7539 14.9883 33 15.2227 33 15.9375C33 21.3164 33 26.6836 33 32.0625C33 32.7656 32.7539 33 32.0273 33C29.3437 33 26.6484 33 23.9648 33Z" fill="#98E8DE"/>
<path d="M28.9102 18.5156C28.7813 18.8554 28.9571 18.9609 29.2501 19.0781C31.4415 19.9335 32.1563 22.4531 30.668 24.1406C30.504 24.3281 30.5391 24.4335 30.6797 24.621C31.9102 26.2031 31.6407 28.0781 30.0118 29.2734C29.8594 29.3906 29.7422 29.496 29.7071 29.707C29.4258 31.2656 27.8907 32.3554 26.3087 32.2031C25.5001 32.121 24.7852 31.875 24.211 31.3007C23.9883 31.0781 23.8829 31.207 23.7305 31.3476C22.3008 32.6367 20.0626 32.4726 18.8555 30.996C18.5626 30.6445 18.3282 30.2343 18.3047 29.7773C18.2813 29.3906 18.1055 29.1679 17.8243 28.9335C16.4297 27.7382 16.1602 25.9335 17.1094 24.3867C17.2149 24.2109 17.2618 24.0937 17.1212 23.8945C15.9493 22.2773 16.5938 20.0039 18.6094 19.1367C18.9962 18.9726 19.1251 18.832 19.0899 18.3867C18.9962 17.2031 20.0157 16.0664 21.2813 15.8554C22.1837 15.7031 23.0274 15.8437 23.7305 16.4648C24.0001 16.6992 24.129 16.5468 24.3165 16.4062C25.6876 15.3281 27.7735 15.7382 28.6172 17.2265C28.8399 17.6132 28.9219 18.0585 28.9102 18.5156Z" fill="black"/>
<path d="M24.7031 22.207C24.7031 21.9961 24.7148 21.7852 24.7031 21.5625C24.6797 21.0234 24.4101 20.6953 23.9766 20.707C23.5664 20.7188 23.2969 21.0234 23.2969 21.5508C23.2851 22.6172 23.2969 23.6719 23.2969 24.7383C23.2969 24.8906 23.2969 25.043 23.2969 25.2656C23.0273 25.1602 22.8164 25.0547 22.5937 24.9844C22.207 24.8555 21.832 25.0078 21.6797 25.3359C21.5273 25.6758 21.668 26.0391 22.0195 26.25C22.1367 26.3203 22.2656 26.3789 22.3945 26.4375C22.9219 26.707 23.25 27.1172 23.2734 27.7148C23.2969 28.2422 23.3086 28.7813 23.2734 29.3086C23.2148 30.1406 22.5937 30.6914 21.6211 30.7969C20.7891 30.8906 19.9219 30.3867 19.6992 29.6836C19.5234 29.1445 19.6875 28.6758 20.0508 28.2539C20.2969 27.9844 20.3437 27.668 20.1211 27.3516C19.9336 27.0703 19.6406 27.0117 19.3359 27.0938C19.1367 27.1523 18.9844 27.3047 18.8906 27.4805C18.7031 27.8086 18.5508 27.7383 18.3633 27.4688C17.5195 26.3203 18.0117 24.7734 19.4414 24.1758C19.6406 24.0938 19.8633 24.0469 20.0508 23.9531C20.4023 23.7891 20.5195 23.4961 20.4258 23.1328C20.332 22.793 20.0859 22.6172 19.7226 22.6406C19.3476 22.6641 18.9844 22.7813 18.668 22.9922C18.3398 23.2031 18.2109 23.0625 18.0937 22.7813C17.7305 21.9609 18.082 21.0117 18.9375 20.5078C19.3242 20.2852 19.7578 20.2266 20.1914 20.168C20.8359 20.0742 21.0586 19.6172 20.7539 19.0547C20.4141 18.4336 20.4141 18.0234 20.7656 17.6484C21.1641 17.2031 21.9375 17.0508 22.4883 17.2969C22.9219 17.4961 23.2383 17.7891 23.2969 18.3047C23.3437 18.7148 23.5312 19.0313 23.9883 19.0313C24.4805 19.043 24.6445 18.7031 24.7148 18.2813C24.832 17.6719 25.1719 17.332 25.793 17.2148C26.3906 17.0977 27.0351 17.332 27.3281 17.7773C27.6914 18.3164 27.5273 18.7266 26.918 18.8789C26.707 18.9258 26.4961 18.9844 26.2969 19.0781C25.9101 19.2422 25.7578 19.5938 25.875 19.957C25.9922 20.2969 26.3555 20.5078 26.7422 20.3789C27.3633 20.1797 27.9961 20.0977 28.6172 20.3203C29.3555 20.5898 29.8945 21.0586 30 21.8672C30.1055 22.6523 29.7305 23.2031 29.1094 23.625C28.3945 24.1055 28.4062 24.5859 29.1094 25.0781C30.1055 25.7695 30.3281 26.8594 29.6484 27.6914C29.4961 27.8789 29.4023 27.9258 29.25 27.6914C28.8867 27.1172 28.3594 26.7539 27.7266 26.5078C27.2812 26.3438 26.8945 26.4727 26.7422 26.8359C26.5781 27.2109 26.7305 27.5859 27.1758 27.7852C27.7031 28.0313 28.1719 28.3242 28.3008 28.9336C28.5234 29.9414 27.6094 30.8555 26.4492 30.7852C25.5351 30.7266 24.6562 30.1758 24.6914 28.957C24.7266 27.6328 24.6914 26.2969 24.7031 24.9727C24.7031 23.9531 25.2539 23.3438 26.2617 23.2148C26.3906 23.2031 26.5078 23.1797 26.6367 23.1563C27.0469 23.0859 27.2226 22.8281 27.2226 22.4297C27.2109 22.0547 26.918 21.7852 26.4961 21.7852C26.0273 21.7852 25.5703 21.8789 25.1367 22.0664C25.0078 22.1367 24.9023 22.2539 24.7031 22.207Z" fill="#CBF3EE"/>
</g>
<defs>
<clipPath id="clip0_47_6239">
<rect width="48" height="48" fill="white"/>
</clipPath>
</defs>
</svg>
