<svg width="28" height="28" viewBox="0 0 28 28" fill="none" xmlns="http://www.w3.org/2000/svg">
<mask id="mask0_825_28734" style="mask-type:alpha" maskUnits="userSpaceOnUse" x="0" y="0" width="28" height="28">
<rect width="28" height="28" fill="#D9D9D9"/>
</mask>
<g mask="url(#mask0_825_28734)">
</g>
<path d="M15.6989 0.435974C16.048 0.435974 16.3166 0.720819 16.3166 1.05992V5.42754C16.3166 7.90976 18.3445 9.94436 20.8022 9.95793C21.8228 9.95793 22.6286 9.97149 23.2464 9.97149L23.4752 9.97048C23.888 9.96735 24.4439 9.95793 24.9251 9.95793C25.2608 9.95793 25.5294 10.2292 25.5294 10.5683V21.4738C25.5294 24.8377 22.8301 27.564 19.4995 27.564H8.80942C5.31769 27.564 2.47058 24.702 2.47058 21.1754V6.55335C2.47058 3.18947 5.18339 0.435974 8.52739 0.435974H15.6989ZM17.1359 17.9336H9.83008C9.27946 17.9336 8.82285 18.3812 8.82285 18.9373C8.82285 19.4934 9.27946 19.9546 9.83008 19.9546H17.1359C17.6865 19.9546 18.1431 19.4934 18.1431 18.9373C18.1431 18.3812 17.6865 17.9336 17.1359 17.9336ZM14.3693 11.1516H9.83008C9.27946 11.1516 8.82285 11.6127 8.82285 12.1689C8.82285 12.725 9.27946 13.1726 9.83008 13.1726H14.3693C14.9199 13.1726 15.3766 12.725 15.3766 12.1689C15.3766 11.6127 14.9199 11.1516 14.3693 11.1516ZM18.2736 1.66488C18.2736 1.08027 18.976 0.789995 19.3775 1.21184C20.8293 2.73643 23.3662 5.40177 24.7844 6.8911C25.1765 7.30209 24.8891 7.98436 24.3237 7.98572C23.2198 7.98978 21.9185 7.98572 20.9824 7.97622C19.4971 7.97622 18.2736 6.74054 18.2736 5.24036V1.66488Z" fill="#049304"/>
</svg>
