<svg width="35" height="44" viewBox="0 0 35 44" fill="none" xmlns="http://www.w3.org/2000/svg">
<g clip-path="url(#clip0_47_6353)">
<path d="M4.97622 30.3302C4.79807 29.7917 4.86933 29.5969 5.38002 29.3104C6.75769 28.5198 8.27788 28.176 9.8337 27.9469C10.5938 27.8323 11.3658 27.7635 12.1259 27.649C12.304 27.626 12.6009 27.7177 12.6365 27.4542C12.6722 27.1677 12.7434 26.8583 12.3634 26.6292C11.2945 25.9646 10.38 25.1396 9.56054 24.2C8.93109 23.4781 8.37289 22.699 7.94534 21.8396C7.83845 21.6219 7.71968 21.5302 7.4584 21.4958C6.61517 21.4042 6.02135 20.9573 5.74819 20.1896C5.62942 19.8687 5.46315 19.8229 5.17812 19.8458C4.69118 19.8802 4.23987 19.7885 3.8242 19.525C3.20662 19.124 2.92158 18.5625 2.90971 17.8521C2.90971 16.6948 2.89783 15.5375 2.90971 14.3687C2.92158 13.2 3.77669 12.3865 4.99997 12.375C5.62942 12.375 5.62942 12.375 5.59379 11.7562C5.49878 10.324 4.84557 9.68229 3.37289 9.61354C3.08786 9.60208 2.8147 9.625 2.52966 9.625C1.84082 9.63646 1.53204 9.14375 1.86458 8.57083C2.89783 6.76042 4.48928 5.74062 6.61517 5.5C6.98334 5.45417 7.35151 5.41979 7.71968 5.38542C7.57717 4.77812 6.92396 4.29687 6.06885 4.21667C5.76006 4.19375 5.45128 4.19375 5.13061 4.20521C4.77432 4.22812 4.46553 4.14792 4.32301 3.80417C4.18049 3.46042 4.33489 3.20833 4.60805 2.97917C5.81945 1.99375 7.24462 1.40937 8.74106 0.9625C10.3325 0.48125 11.9596 0.20625 13.6223 0.0802083C13.7054 0.06875 13.8004 0.114583 13.8479 0C14.0023 0 14.1449 0 14.2993 0C14.3586 0.0572917 14.418 0.0572917 14.4774 0C14.6556 0 14.8337 0 15.0118 0C15.2256 0.06875 15.4275 0.06875 15.6413 0C15.9738 0 16.2945 0 16.627 0C16.7102 0.06875 16.8052 0.034375 16.8883 0.0458333C16.9833 0.034375 17.0784 0.0802083 17.1615 0C17.2565 0 17.3396 0 17.4346 0C18.0285 0.183333 18.646 0.160417 19.2517 0.252083C21.5439 0.607292 23.7292 1.2375 25.6532 2.54375C28.0166 4.14792 29.2636 6.34792 29.3705 9.14375C29.4061 10.1177 29.4418 11.0917 29.4418 12.0656C29.4418 12.3292 29.513 12.3979 29.7862 12.3979C31.3776 12.4094 32.1259 13.1427 32.1259 14.6667C32.1259 15.6979 32.1259 16.7292 32.1259 17.7604C32.1259 19.0437 31.2826 19.8687 29.9643 19.8458C29.5843 19.8458 29.3943 19.9146 29.2399 20.3042C28.9667 21.0031 28.3729 21.4156 27.589 21.4958C27.3396 21.5187 27.209 21.6104 27.0902 21.8281C26.057 23.7875 24.5962 25.3802 22.7197 26.5948C22.3515 26.8354 22.3871 27.1219 22.3871 27.4427C22.3871 27.649 22.5772 27.5917 22.6841 27.6031C23.9905 27.775 25.2969 27.9125 26.5914 28.1875C28.8004 28.6687 30.7244 29.5969 32.019 31.4646C32.7672 32.5302 33.2541 33.7104 33.5392 34.9594C34.1211 37.4458 34.5368 39.9552 34.9881 42.4646C35.1544 43.4042 34.6555 43.9427 33.6698 43.9885C33.5035 44 33.3491 44 33.1829 44C22.7434 44 12.3159 44 1.87645 44C1.6508 44 1.42515 44.0115 1.21137 43.9885C0.356264 43.8854 -0.095042 43.3583 0.0474758 42.5333C0.320635 40.9521 0.629423 39.3823 0.926336 37.801C1.17574 36.4604 1.38952 35.1198 1.84082 33.8365C2.07835 33.1719 2.36339 32.5302 2.73156 31.9229C3.02847 31.4417 3.23037 31.3729 3.80044 31.5448C4.19237 31.774 4.28738 32.049 4.08548 32.4844C3.93109 32.8281 3.71731 33.1375 3.56291 33.4812C2.98097 34.7646 2.73156 36.1396 2.48215 37.5031C2.209 38.9927 1.92396 40.4937 1.63892 41.9833C1.53204 42.5448 1.56767 42.5792 2.13774 42.5906C3.8242 42.5906 5.52253 42.5906 7.209 42.5906C7.71968 42.5906 7.75531 42.5448 7.76719 42.0521C7.76719 41.2385 7.76719 40.425 7.76719 39.6C7.76719 39.4396 7.76719 39.2792 7.79094 39.1302C7.85033 38.775 8.05223 38.5573 8.4204 38.5C8.77669 38.4427 9.09736 38.626 9.26363 38.9354C9.37052 39.1646 9.38239 39.4052 9.38239 39.6458C9.38239 40.4594 9.38239 41.2729 9.38239 42.0979C9.38239 42.5448 9.44177 42.5906 9.90496 42.5906C11.0451 42.6021 12.1852 42.5906 13.3373 42.5906C17.1259 42.5906 20.9026 42.5906 24.6912 42.5906C24.8099 42.5906 24.9287 42.5906 25.0475 42.5906C25.6532 42.5906 25.6769 42.5677 25.6888 41.9948C25.6888 41.25 25.6888 40.5052 25.6888 39.7604C25.6888 39.5427 25.7007 39.3365 25.7601 39.1187C25.8788 38.6948 26.1757 38.4656 26.5914 38.4885C27.0071 38.5115 27.2684 38.775 27.2921 39.2333C27.3278 40.0927 27.304 40.9521 27.304 41.8115C27.304 42.5906 27.304 42.5906 28.1116 42.5906C29.2517 42.5906 30.3919 42.5792 31.532 42.6021C32.0665 42.6135 32.6009 42.6021 33.1354 42.6135C33.4085 42.6135 33.5629 42.5333 33.5035 42.2354C32.9572 39.6687 32.6722 37.0562 31.924 34.5354C31.4726 33 30.665 31.6708 29.2636 30.7313C28.3491 30.124 27.304 29.7917 26.2232 29.5625C25.1544 29.3333 24.0617 29.2073 22.9691 29.0698C22.6247 29.0354 22.4584 29.1042 22.4703 29.4594C22.4822 29.6427 22.4346 29.826 22.3871 30.0094C21.9596 32.0146 20.1425 33.5156 17.9928 33.7448C15.2969 34.0198 13.0285 32.049 12.6603 29.8719C12.6484 29.826 12.6484 29.7917 12.6365 29.7458C12.5297 29.0125 12.5297 29.001 11.7577 29.1042C10.3206 29.2875 8.88358 29.4708 7.49403 29.9292C6.97147 30.101 6.49641 30.3531 5.99759 30.5937C5.52253 30.8 5.20187 30.7198 4.97622 30.3302Z" fill="black"/>
<path d="M15.6295 0C15.4157 0.1375 15.2138 0.1375 15 0C15.2138 0 15.4276 0 15.6295 0Z" fill="#121212"/>
<path d="M16.8883 0.06875C16.7814 0.0802083 16.6864 0.114583 16.6152 0C16.7102 0 16.7933 0 16.8883 0C16.9121 0.0114583 16.924 0.0229167 16.9121 0.0458333C16.9002 0.0572917 16.9002 0.06875 16.8883 0.06875Z" fill="#464646"/>
<path d="M16.8883 0.06875C16.8883 0.0458333 16.8883 0.0229167 16.8765 0C16.9715 0 17.0546 0 17.1496 0C17.0902 0.1375 16.9834 0.06875 16.8883 0.06875Z" fill="#6C6C6C"/>
<path d="M14.4774 0C14.418 0.103125 14.3586 0.114583 14.2993 0C14.3586 0 14.418 0 14.4774 0Z" fill="#6C6C6C"/>
<path d="M4.97621 30.3302C5.26124 30.6052 5.57003 30.6969 5.9382 30.4906C7.33963 29.6656 8.90732 29.3792 10.4988 29.15C11.057 29.0698 11.627 29.0469 12.1734 28.9438C12.5772 28.8636 12.6722 28.9667 12.6959 29.3448C12.8147 31.4761 14.608 33.3323 16.7696 33.6073C19.2874 33.9281 21.4608 32.5646 22.1971 30.2156C22.2209 30.1469 22.2446 30.0781 22.2565 30.0094C22.3753 29.8948 22.5296 29.8833 22.6722 29.9063C24.3586 30.1927 26.0213 30.5479 27.4346 31.5677C28.5867 32.3927 29.3705 33.4813 29.9168 34.7417C30.4631 35.9792 30.7125 37.2854 30.962 38.5917C31.1876 39.7719 31.4133 40.9521 31.627 42.1323C31.6627 42.3271 31.7458 42.5219 31.5795 42.7052C30.2137 42.7052 28.8479 42.7052 27.4821 42.7281C27.1734 42.7281 27.1496 42.6021 27.1496 42.3729C27.1615 41.3761 27.1496 40.3677 27.1496 39.3708C27.1496 39.0729 27.0902 38.7979 26.7814 38.649C26.3301 38.4427 25.8432 38.7292 25.8313 39.2563C25.8076 40.0469 25.8313 40.8261 25.8194 41.6167C25.8194 41.9719 25.9738 42.4302 25.7482 42.6479C25.5225 42.8771 25.0475 42.7167 24.6793 42.7167C19.6793 42.7167 14.6793 42.7167 9.66742 42.7281C9.27549 42.7281 9.16861 42.6479 9.18048 42.2583C9.21611 41.2958 9.19236 40.3448 9.19236 39.3823C9.19236 38.8896 8.99046 38.6375 8.62229 38.5802C8.18286 38.5229 7.86219 38.7865 7.86219 39.2563C7.85032 40.2531 7.83844 41.2615 7.86219 42.2583C7.87407 42.6136 7.77906 42.7167 7.39901 42.7167C5.51065 42.6938 3.63416 42.7052 1.7458 42.7052C1.4964 42.7052 1.31825 42.7052 1.37763 42.3729C1.87644 39.9781 2.23274 37.549 2.80281 35.1656C3.01659 34.2604 3.34913 33.3781 3.85982 32.5875C4.09735 32.2094 4.10922 31.8656 3.77668 31.5448C4.10922 31.075 4.53678 30.6969 4.97621 30.3302Z" fill="#8CCFEF"/>
<path d="M18.361 11.3438C18.3967 11.6417 18.5511 11.8479 18.8361 11.9625C19.3112 12.0198 19.7862 11.9854 20.2613 11.9854C22.209 11.9854 24.1449 11.9854 26.0926 11.9854C26.5677 11.9854 26.6865 12.0771 26.7815 12.524C26.8171 12.6959 26.8171 12.8677 26.8171 13.0396C26.8171 15.1136 26.8171 17.1875 26.8171 19.2615C26.8171 19.6052 26.8171 19.9604 26.4964 20.2011C26.3302 20.2125 26.1758 20.224 26.0095 20.224C20.0356 20.224 14.0499 20.224 8.076 20.224C7.13776 20.224 6.91211 20.0063 6.91211 19.0781C6.91211 17.05 6.91211 15.0104 6.91211 12.9823C6.91211 12.249 7.19714 11.974 7.96912 11.974C10.5701 11.974 13.1591 11.974 15.7601 11.974C16.3539 11.974 16.4964 11.8709 16.639 11.3438C17.209 11.1375 17.791 11.1375 18.361 11.3438Z" fill="#F8F6F7"/>
<path d="M25.7957 10.6677C25.6888 10.6677 25.5819 10.6677 25.4869 10.6792C25.1662 10.725 25.0594 10.6104 25.0475 10.2782C25.0237 9.0292 24.2517 8.31878 22.981 8.31878C19.0736 8.31878 15.1781 8.31878 11.2708 8.31878C9.97621 8.31878 9.22799 9.0292 9.21612 10.2782C9.21612 10.5646 9.14486 10.6792 8.82419 10.6792C8.20662 10.6677 7.57716 10.6219 6.97146 10.8282C6.8527 10.874 6.80519 10.8167 6.78144 10.725C6.35389 9.23545 5.26125 8.51357 3.6698 8.31878C4.13298 7.73441 4.69118 7.3792 5.32063 7.13857C6.28263 6.77191 7.304 6.6917 8.33726 6.68024C9.34676 6.68024 9.57241 6.37087 9.25175 5.46566C8.80044 4.18232 8.37289 3.73545 6.88833 3.02503C10.8313 1.37503 14.8575 0.951075 19.0142 1.55837C21.3064 2.03962 23.1829 3.13962 24.4893 5.06462C25.3088 6.2792 25.6413 7.6542 25.8076 9.07503C25.8551 9.45316 25.9382 9.84274 25.9026 10.2209C25.8907 10.3698 25.9145 10.5302 25.7957 10.6677Z" fill="#547883"/>
<path d="M16.6746 26.9958C15.5701 26.8698 14.5724 26.4344 13.6342 25.8844C11.8527 24.8302 10.4038 23.4438 9.39429 21.6677C9.45367 21.4271 9.65557 21.5417 9.78621 21.5417C12.0071 21.5302 14.2399 21.5302 16.4608 21.5302C18.3848 21.5302 20.3207 21.5302 22.2446 21.5302C22.7672 21.5302 22.8503 21.6448 22.5891 22.0573C21.2708 24.1656 19.5012 25.8156 17.1853 26.8813C17.0309 26.9615 16.8646 27.0188 16.6746 26.9958Z" fill="#FCD0A1"/>
<path d="M31.5795 42.6938C31.437 41.8573 31.2945 41.0094 31.1282 40.173C30.8788 38.8667 30.6888 37.5605 30.3206 36.2771C29.8931 34.7532 29.2636 33.3438 28.0641 32.2094C27.0071 31.2125 25.7363 30.6625 24.3349 30.3303C23.6461 30.1698 22.9691 29.9636 22.2446 29.975C22.2684 29.8605 22.2803 29.7459 22.304 29.6428C22.399 28.8865 22.4109 28.875 23.171 28.9553C24.418 29.0928 25.6651 29.2646 26.8883 29.574C29.5012 30.2271 31.1401 31.8427 31.9477 34.2948C32.4703 35.8646 32.6722 37.5032 33.0047 39.1073C33.2185 40.15 33.3848 41.1928 33.6104 42.224C33.6936 42.6021 33.5985 42.7282 33.1947 42.7053C32.6484 42.6823 32.114 42.7053 31.5795 42.6938Z" fill="#65B4DA"/>
<path d="M25.7957 10.6677C25.7719 8.88024 25.5225 7.15003 24.6437 5.54587C23.8004 4.01045 22.494 2.95628 20.867 2.25732C20.2613 1.99378 19.6318 1.79899 19.0142 1.56982C22.209 2.03962 25.1069 3.01357 27.0071 5.77503C27.6841 6.76045 27.9097 7.87191 28.0047 9.01774C28.0522 9.53337 28.0641 10.0375 28.0879 10.5532C28.0879 10.6907 28.1354 10.8511 27.8622 10.7823C27.1852 10.6104 26.4845 10.6907 25.7957 10.6677Z" fill="#3D595A"/>
<path d="M16.6745 26.9958C18.1472 26.3542 19.4655 25.4948 20.5938 24.3833C21.3301 23.65 21.9596 22.8479 22.5059 21.9771C22.684 21.6906 22.684 21.5646 22.2684 21.5761C18.1116 21.5875 13.9667 21.5875 9.80994 21.5875C9.66742 21.5875 9.51303 21.5417 9.39426 21.6677C9.33488 21.6333 9.31113 21.5646 9.38239 21.5417C9.4774 21.5188 9.58429 21.5188 9.69117 21.5188C14.9168 21.5188 20.1306 21.5188 25.3563 21.5188C25.4513 21.5188 25.5582 21.4844 25.6769 21.5761C25.2256 22.4011 24.6555 23.1344 23.9905 23.8104C22.4228 25.4146 20.5938 26.6177 18.3016 27.0188C17.7672 27.1219 17.2209 27.1448 16.6745 26.9958Z" fill="#FEBB84"/>
<path d="M18.848 32.0719C16.6746 33.0687 14.0023 31.4073 14.0142 29.0698C13.9905 29.0125 13.9905 28.9552 13.9786 28.8979C13.9667 28.451 14.0023 28.4167 14.4537 28.6C15.5344 29.0354 16.627 29.3448 17.8147 29.276C18.3729 29.2417 18.8955 29.15 19.4299 29.001C20.0237 28.8292 20.1662 28.9094 20.1069 29.5167C20.0237 30.5135 19.6674 31.4073 18.848 32.0719Z" fill="#FEBB84"/>
<path d="M18.361 11.3437C17.7791 11.3437 17.209 11.3437 16.627 11.3437C16.4964 10.8167 16.3183 10.6906 15.7126 10.6906C14.1567 10.6906 12.6009 10.6906 11.0451 10.6791C10.8788 10.6791 10.5819 10.8625 10.5463 10.4729C10.4988 9.98019 10.6532 9.69373 11.0095 9.62498C11.1164 9.61353 11.2114 9.61353 11.3183 9.61353C15.19 9.61353 19.0617 9.61353 22.9335 9.61353C23.5154 9.61353 23.6936 9.7854 23.7173 10.301C23.7292 10.5989 23.646 10.7021 23.3254 10.6906C21.9596 10.6792 20.5938 10.6792 19.228 10.6906C18.6698 10.6906 18.4917 10.8281 18.361 11.3437Z" fill="#60B5FE"/>
<path d="M26.4964 20.2011C26.6864 19.8 26.6745 19.3761 26.6745 18.9406C26.6745 16.9354 26.6745 14.9302 26.6745 12.9365C26.6745 12.799 26.6745 12.65 26.6508 12.5125C26.5914 12.1688 26.4251 12.0198 26.0213 12.0313C23.8004 12.0542 21.5676 12.0427 19.3467 12.0427C19.1805 12.0427 18.9905 12.1 18.8361 11.9625C21.5201 11.9625 24.2042 11.974 26.8883 11.974C27.8622 11.974 28.0878 12.1917 28.0878 13.1427C28.0878 15.1021 28.0878 17.0615 28.0878 19.0209C28.0878 20.0292 27.8859 20.2354 26.8408 20.224C26.7339 20.2354 26.6152 20.2125 26.4964 20.2011Z" fill="#E4E0E4"/>
<path d="M18.848 32.0718C19.3468 31.4072 19.81 30.7312 19.9525 29.9062C19.9525 29.8833 19.9762 29.8489 19.9762 29.826C20.1306 29.0697 20.0237 28.9781 19.2755 29.1729C17.5653 29.6312 15.9382 29.3791 14.3587 28.6802C14.2636 28.6343 14.1805 28.5656 14.0617 28.5999C14.0499 28.7489 14.038 28.9093 14.0261 29.0583C13.9311 28.6458 14.0261 28.2333 13.9905 27.8208C13.9667 27.5458 14.0736 27.5458 14.2993 27.6489C14.9525 27.9354 15.6294 28.1416 16.3302 28.2562C17.8266 28.5197 19.2518 28.2677 20.6176 27.6833C20.9976 27.5229 21.057 27.6145 21.0451 27.9697C21.0214 28.6114 21.0926 29.2645 20.8907 29.8833C20.5463 30.926 19.905 31.6822 18.848 32.0718Z" fill="#F4A86C"/>
<path d="M4.25177 17.1875C4.25177 16.248 4.22802 15.3084 4.2399 14.3688C4.25177 13.8073 4.98812 13.4178 5.48693 13.6698C5.60569 13.7386 5.57006 13.8417 5.57006 13.9334C5.57006 15.0678 5.55819 16.2136 5.55819 17.348C5.05937 17.5771 4.57244 17.5198 4.25177 17.1875Z" fill="#FEC143"/>
<path d="M29.4536 17.3594C29.4536 16.225 29.4536 15.0792 29.4299 13.9448C29.4299 13.7042 29.5249 13.6698 29.7387 13.6698C30.5463 13.6583 30.7719 13.8531 30.7719 14.6323C30.7719 15.4917 30.76 16.3396 30.76 17.1989C30.4394 17.5198 29.9524 17.5771 29.4536 17.3594Z" fill="#FEC143"/>
<path d="M4.25177 17.1875C4.65557 17.4281 5.11876 17.3479 5.55819 17.3594C5.55819 17.5542 5.61757 17.7719 5.55819 17.9552C5.4988 18.1615 5.81947 18.5396 5.28503 18.5625C4.60807 18.5854 4.27553 18.4021 4.2399 17.9208C4.22802 17.6802 4.25177 17.4281 4.25177 17.1875Z" fill="#FCA410"/>
<path d="M29.4536 17.3594C29.8931 17.3479 30.3444 17.4281 30.76 17.1875C30.76 17.3135 30.7719 17.4396 30.7719 17.5771C30.7719 18.3792 30.5344 18.5969 29.7149 18.5625C29.513 18.551 29.418 18.5167 29.4299 18.299C29.4536 17.9896 29.4418 17.6687 29.4536 17.3594Z" fill="#FCA410"/>
<path d="M17.5059 14.9416C15.4038 14.9416 13.2898 14.9416 11.1876 14.9416C11.0451 14.9416 10.8907 14.9531 10.7482 14.9187C10.4038 14.8385 10.2019 14.5979 10.2256 14.2656C10.2494 13.9104 10.4632 13.6927 10.8551 13.6698C10.962 13.6583 11.057 13.6698 11.1639 13.6698C15.3919 13.6698 19.6199 13.6698 23.848 13.6698C23.9667 13.6698 24.0855 13.6698 24.2043 13.6812C24.5487 13.7156 24.7387 13.9218 24.7862 14.2427C24.8218 14.5635 24.6674 14.7927 24.3587 14.9187C24.1924 14.9875 24.0142 14.976 23.8361 14.976C21.7102 14.9416 19.6081 14.9416 17.5059 14.9416Z" fill="black"/>
<path d="M17.494 24.6813C16.7933 24.6813 16.1876 24.4521 15.6769 23.9938C15.3325 23.6844 15.285 23.3521 15.5463 23.0542C15.7957 22.7677 16.1758 22.7448 16.5321 23.0084C17.2328 23.524 17.7672 23.5354 18.456 23.0198C18.8242 22.7448 19.1924 22.7563 19.4418 23.0313C19.7149 23.3292 19.6674 23.6844 19.3111 24.0052C18.8005 24.4636 18.1948 24.6813 17.494 24.6813Z" fill="black"/>
</g>
<defs>
<clipPath id="clip0_47_6353">
<rect width="35" height="44" fill="white"/>
</clipPath>
</defs>
</svg>
