<svg width="104" height="98" viewBox="0 0 104 98" fill="none" xmlns="http://www.w3.org/2000/svg">
<path d="M99.5461 96.3621H84.4634V44.4104H99.5461" fill="#FFE9CF"/>
<path d="M99.5461 97.2001H83.6254V43.5725H99.5461V45.2484H85.3013V95.5242H99.5461V97.2001Z" fill="black"/>
<path opacity="0.5" d="M84.4634 44.4104H87.8151V96.3621H84.4634V44.4104Z" fill="white"/>
<path d="M81.1118 44.4105H97.8704V37.707H81.1118V41.8967V44.4105Z" fill="#FFE9CF"/>
<path d="M81.1118 37.707H84.4635V44.4105H81.1118V37.707Z" fill="#CAB5A8"/>
<path d="M22.4565 44.4105H5.69788V37.707H22.4565V42.7346V44.4105Z" fill="#FFE9CF"/>
<path opacity="0.5" d="M19.105 37.707H22.4567V44.4105H19.105V37.707Z" fill="white"/>
<path d="M19.1048 96.3621H4.02209V44.4104H19.1048" fill="#FFE9CF"/>
<path d="M19.105 97.2001H3.18433V43.5725H19.105V45.2484H4.86019V95.5242H19.105V97.2001Z" fill="black"/>
<path d="M98.0379 37.7069L98.2055 37.3718C99.8814 35.1931 99.5462 32.009 97.3676 30.3332L89.6586 24.3L81.9497 30.3332C79.7711 32.009 79.4359 35.1931 81.1117 37.3718L81.2793 37.7069H98.0379Z" fill="#FFE9CF"/>
<path d="M98.5407 38.5449H80.9442L80.4414 38.0421C79.4359 36.869 79.1007 35.1932 79.2683 33.6849C79.4359 32.1766 80.2738 30.6684 81.4469 29.8304L89.6587 23.4622L97.8704 29.8304C99.0435 30.8359 99.8814 32.1766 100.049 33.6849C100.217 35.1932 99.8814 36.7015 98.8759 38.0421L98.5407 38.5449ZM81.7821 36.869H97.7028C98.3731 36.0311 98.7083 34.858 98.5407 33.8525C98.3731 32.6794 97.8704 31.6739 97.0324 31.0035L89.8263 25.3056L82.62 31.0035C81.7821 31.6739 81.1118 32.6794 81.1118 33.8525C80.7766 35.0256 81.1118 36.0311 81.7821 36.869Z" fill="black"/>
<path d="M19.105 42.7344H24.3001V49.4378H19.105V42.7344ZM19.105 59.493H24.3001V96.3619H19.105V59.493Z" fill="#FFE9CF"/>
<path d="M86.1393 30.5006L91.8373 26.1434L89.6586 24.4675L81.9497 30.5006C79.7711 32.1765 79.4359 35.3606 81.1117 37.5392L81.2793 37.8744H85.469L85.3014 37.5392C83.6255 35.3606 83.9607 32.1765 86.1393 30.5006Z" fill="#CAB5A8"/>
<path opacity="0.5" d="M93.1779 30.5006L87.48 26.1434L89.6586 24.4675L97.3676 30.5006C99.5462 32.1765 99.8814 35.3606 98.2055 37.5392L98.0379 37.8744H93.8483L94.0158 37.5392C95.8593 35.3606 95.3565 32.1765 93.1779 30.5006Z" fill="white"/>
<path d="M45.9187 44.4104H36.0311L39.2153 39.3828H64.3532L67.8725 44.4104H57.6497" fill="#FFE9CF"/>
<path d="M69.5483 45.2484H57.6497V43.5725H66.3642L64.018 40.2208H39.718L37.5394 43.5725H45.9187V45.2484H34.5228L38.8801 38.5449H64.8559L69.5483 45.2484Z" fill="black"/>
<path d="M64.5208 32.6794H39.3828L36.0311 27.6519H67.8725L64.5208 32.6794Z" fill="#FFE9CF"/>
<path d="M65.0235 33.5172H38.8801L34.3552 26.8137H69.3807L65.0235 33.5172ZM39.8856 31.8413H64.1855L66.3642 28.4896H37.5394L39.8856 31.8413Z" fill="black"/>
<path d="M39.2152 24.3H64.3531V27.6518H39.2152V24.3Z" fill="#FFE9CF"/>
<path d="M55.1359 9.21729L62.1745 12.9042C66.029 15.0828 67.5373 19.9428 64.6883 24.1324L64.5207 24.3H39.3828L39.2152 24.1324C36.0311 19.9428 38.0421 15.0828 41.729 12.9042L48.4325 9.38488L48.7676 9.21729" fill="#FFE9CF"/>
<path d="M52.1194 9.21729H48.7676L48.4325 9.55246L41.729 13.0718C38.0421 15.2504 36.0311 20.1104 39.2152 24.3H42.5669C39.8856 15.9207 46.4214 14.0773 52.1194 9.21729Z" fill="#CAB5A8"/>
<path opacity="0.5" d="M51.9518 9.21729H55.3035L55.6387 9.38488L62.3421 12.9042C66.029 15.0828 68.04 19.9428 64.8559 24.1324H61.5042C64.1856 15.9207 57.6497 14.0773 51.9518 9.21729Z" fill="white"/>
<path d="M48.4324 39.3826H39.2152V32.6792H64.3531V39.3826H55.1359" fill="#FFE9CF"/>
<path d="M41.0587 44.4105H36.0311L39.2153 39.3829H44.2428L41.0587 44.4105ZM44.4104 32.6794H39.3828L36.0311 27.6519H41.0587L44.4104 32.6794ZM41.2263 39.3829H39.2153V32.6794H44.4104V39.3829H42.567H41.2263Z" fill="#CAB5A8"/>
<path opacity="0.5" d="M62.8448 27.6519H67.8723L64.6882 32.6794H59.6606L62.8448 27.6519ZM59.493 39.3829H64.5206L67.8723 44.4105H62.8448L59.493 39.3829ZM62.8448 32.6794H64.6882V39.3829H59.493V32.6794H61.3365H62.8448Z" fill="white"/>
<path d="M47.5944 5.8656H55.9737V9.21732H47.5944V5.8656ZM49.2703 5.02767V3.3518C49.2703 2.01112 50.4434 0.838013 51.784 0.838013C53.1247 0.838013 54.2978 2.01112 54.2978 3.3518V5.02767M58.9902 44.4104H79.4357V49.438H24.2999V44.4104H44.7454M79.4357 42.7345H84.4633V49.438H79.4357V42.7345Z" fill="#FFE9CF"/>
<path d="M57.6496 49.4381H45.9186V41.0588L51.7841 37.707L57.6496 41.0588V49.4381Z" fill="#FFD79E"/>
<path d="M5.86563 37.7069L5.69805 37.3718C4.02219 35.1931 4.35736 32.009 6.53598 30.3332L14.2449 24.3L21.9539 30.3332C24.1325 32.009 24.4677 35.1931 22.7918 37.3718L22.6242 37.7069H5.86563Z" fill="#FFE9CF"/>
<path d="M10.7256 30.5006L16.4236 26.1434L14.2449 24.4675L6.53598 30.5006C4.35736 32.1765 4.02219 35.3606 5.69805 37.5392L5.86563 37.8744H10.0553L9.8877 37.5392C8.21184 35.3606 8.54701 32.1765 10.7256 30.5006Z" fill="#CAB5A8"/>
<path opacity="0.5" d="M17.7642 30.5006L12.0663 26.1434L14.2449 24.4675L21.9539 30.5006C24.1325 32.1765 24.4677 35.3606 22.7918 37.5392L22.6242 37.8744H18.4346L18.6021 37.5392C20.4456 35.3606 19.9428 32.1765 17.7642 30.5006Z" fill="white"/>
<path d="M4.02209 44.4104H7.37382V96.3621H4.02209V44.4104ZM15.7531 44.4104H19.1048V96.3621H15.7531V44.4104Z" fill="#CAB5A8"/>
<path opacity="0.5" d="M94.5187 37.707H97.8704V44.4105H94.5187V37.707ZM96.1945 44.4105H99.5463V96.3622H96.1945V44.4105Z" fill="white"/>
<path d="M5.69788 37.707H9.0496V44.4105H5.69788V37.707Z" fill="#CAB5A8"/>
<path d="M11.731 67.8723C13.1193 67.8723 14.2447 66.7468 14.2447 65.3585C14.2447 63.9702 13.1193 62.8447 11.731 62.8447C10.3426 62.8447 9.21716 63.9702 9.21716 65.3585C9.21716 66.7468 10.3426 67.8723 11.731 67.8723Z" fill="#7A6A77"/>
<path d="M92.1724 67.8723C93.5607 67.8723 94.6862 66.7468 94.6862 65.3585C94.6862 63.9702 93.5607 62.8447 92.1724 62.8447C90.784 62.8447 89.6586 63.9702 89.6586 65.3585C89.6586 66.7468 90.784 67.8723 92.1724 67.8723Z" fill="#7A6A77"/>
<path d="M89.491 72.8999H94.5186V82.9551H89.491V72.8999ZM89.491 87.9827H94.5186V91.3344H89.491V87.9827ZM9.04968 72.8999H14.0773V82.9551H9.04968V72.8999ZM9.04968 87.9827H14.0773V91.3344H9.04968V87.9827Z" fill="#7A6A77"/>
<path d="M22.4565 74.5759H81.1117V81.2794H22.4565V74.5759ZM22.4565 59.4932H84.4634V66.1966H22.4565V59.4932Z" fill="#FFE9CF"/>
<path d="M24.2999 66.1965H79.4357V74.5758H24.2999V66.1965ZM24.2999 81.2793H79.4357V96.362H24.2999V81.2793Z" fill="#7A6A77"/>
<path d="M79.4359 67.0343H24.3001C23.7973 67.0343 23.4622 66.6992 23.4622 66.1964V59.493C23.4622 58.9902 23.7973 58.655 24.3001 58.655H79.4359C79.9387 58.655 80.2738 58.9902 80.2738 59.493V66.1964C80.2738 66.6992 79.9387 67.0343 79.4359 67.0343ZM25.138 65.3585H78.598V60.3309H25.138V65.3585ZM79.4359 82.1171H24.3001C23.7973 82.1171 23.4622 81.7819 23.4622 81.2792V74.5757C23.4622 74.073 23.7973 73.7378 24.3001 73.7378H79.4359C79.9387 73.7378 80.2738 74.073 80.2738 74.5757V81.2792C80.2738 81.7819 79.9387 82.1171 79.4359 82.1171ZM25.138 80.4412H78.598V75.4136H25.138V80.4412Z" fill="black"/>
<path d="M15.7531 54.4656H87.8151V59.4932H15.7531V54.4656ZM91.3344 54.4656H12.569L17.5966 49.438H86.3068L91.3344 54.4656Z" fill="#FFE9CF"/>
<path d="M15.7531 54.4656H20.7807V59.4932H15.7531V54.4656ZM17.5966 49.438L12.569 54.4656H17.5966L22.6241 49.438H17.5966Z" fill="#CAB5A8"/>
<path opacity="0.5" d="M82.6199 54.4656H87.6475V59.4932H82.6199V54.4656ZM85.8041 49.438L90.8317 54.4656H85.8041L80.7765 49.438H85.8041Z" fill="white"/>
<path d="M19.9429 97.2001H4.02226C3.5195 97.2001 3.18433 96.8649 3.18433 96.3621V44.4104C3.18433 43.9077 3.5195 43.5725 4.02226 43.5725H19.105C19.6078 43.5725 19.9429 43.9077 19.9429 44.4104C19.9429 44.9132 19.6078 45.2484 19.105 45.2484H4.86019V95.5242H19.9429C20.4457 95.5242 20.7809 95.8594 20.7809 96.3621C20.7809 96.8649 20.4457 97.2001 19.9429 97.2001ZM99.5463 97.2001H81.9498C81.447 97.2001 81.1118 96.8649 81.1118 96.3621C81.1118 95.8594 81.447 95.5242 81.9498 95.5242H98.7084V45.2484H85.3015C84.7987 45.2484 84.4636 44.9132 84.4636 44.4104C84.4636 43.9077 84.7987 43.5725 85.3015 43.5725H99.5463C100.049 43.5725 100.384 43.9077 100.384 44.4104V96.3621C100.384 96.8649 100.049 97.2001 99.5463 97.2001Z" fill="black"/>
<path d="M24.1325 50.2758H19.1049C18.6021 50.2758 18.267 49.9406 18.267 49.4379V42.7344C18.267 42.2317 18.6021 41.8965 19.1049 41.8965H24.1325C24.6352 41.8965 24.9704 42.2317 24.9704 42.7344V49.4379C24.9704 49.9406 24.6352 50.2758 24.1325 50.2758ZM19.9428 48.5999H23.2946V43.5723H19.9428V48.5999ZM84.4635 50.2758H79.4359C78.9331 50.2758 78.598 49.9406 78.598 49.4379V42.7344C78.598 42.2317 78.9331 41.8965 79.4359 41.8965H84.4635C84.9662 41.8965 85.3014 42.2317 85.3014 42.7344V49.4379C85.3014 49.9406 84.9662 50.2758 84.4635 50.2758ZM80.2738 48.5999H83.6255V43.5723H80.2738V48.5999Z" fill="black"/>
<path d="M79.4359 50.276H24.3001C23.7973 50.276 23.4622 49.9408 23.4622 49.438V44.4104C23.4622 43.9077 23.7973 43.5725 24.3001 43.5725H44.7456C45.2484 43.5725 45.5835 43.9077 45.5835 44.4104C45.5835 44.9132 45.2484 45.2484 44.7456 45.2484H25.138V48.6001H78.598V45.2484H58.9904C58.4877 45.2484 58.1525 44.9132 58.1525 44.4104C58.1525 43.9077 58.4877 43.5725 58.9904 43.5725H79.4359C79.9387 43.5725 80.2738 43.9077 80.2738 44.4104V49.438C80.2738 49.9408 79.9387 50.276 79.4359 50.276Z" fill="black"/>
<path d="M45.9186 45.2482H36.031C35.6958 45.2482 35.3607 45.0806 35.3607 44.7454C35.3607 44.4103 35.1931 44.0751 35.3607 43.9075L38.5448 38.8799C38.88 38.5447 39.3827 38.3772 39.7179 38.5447C40.0531 38.7123 40.2207 39.3827 40.0531 39.7179L37.7069 43.4047H46.0862C46.5889 43.4047 46.9241 43.7399 46.9241 44.2427C46.9241 44.7454 46.4214 45.2482 45.9186 45.2482ZM67.8724 45.2482H57.6496C57.1469 45.2482 56.8117 44.913 56.8117 44.4103C56.8117 43.9075 57.1469 43.5723 57.6496 43.5723H66.1965L63.6827 39.8854C63.3475 39.5503 63.5151 39.0475 63.8503 38.7123C64.1855 38.3772 64.6882 38.5447 65.0234 38.8799L68.5427 43.9075C68.7103 44.2427 68.7103 44.5778 68.5427 44.7454C68.3751 44.913 68.2075 45.2482 67.8724 45.2482ZM64.5207 33.5172H39.3827C39.0476 33.5172 38.88 33.3496 38.7124 33.182L35.3607 28.1544C35.1931 27.8192 35.1931 27.4841 35.3607 27.3165C35.5283 26.9813 35.8634 26.8137 36.031 26.8137H67.8724C68.2075 26.8137 68.5427 26.9813 68.5427 27.3165C68.7103 27.6516 68.7103 27.9868 68.5427 28.1544L65.191 33.182C65.0234 33.5172 64.8558 33.5172 64.5207 33.5172ZM39.8855 31.8413H64.1855L66.3641 28.4896H37.5393L39.8855 31.8413Z" fill="black"/>
<path d="M64.353 28.4897H39.2151C38.7124 28.4897 38.3772 28.1546 38.3772 27.6518V24.3001C38.3772 23.7973 38.7124 23.4622 39.2151 23.4622H64.353C64.8558 23.4622 65.191 23.7973 65.191 24.3001V27.6518C65.191 28.1546 64.8558 28.4897 64.353 28.4897ZM40.0531 26.8139H63.5151V25.138H40.0531V26.8139Z" fill="black"/>
<path d="M64.5208 25.138H39.3828C39.0477 25.138 38.8801 24.9704 38.7125 24.8028L38.5449 24.6352C37.0366 22.7918 36.5339 20.4456 36.869 18.2669C37.3718 15.9207 38.8801 13.5745 41.2263 12.2338L48.2649 8.54695C48.6001 8.37936 49.1028 8.54694 49.438 8.88211C49.6056 9.21729 49.438 9.72005 49.1028 10.0552L42.0642 13.7421C40.2208 14.9152 38.8801 16.7587 38.5449 18.6021C38.2097 20.278 38.7125 21.9538 39.718 23.4621H64.018C65.1911 21.7862 65.5263 19.9428 65.1911 18.0993C64.6883 16.2559 63.5152 14.58 61.8394 13.7421L54.8008 10.0552C54.4656 9.88763 54.298 9.38487 54.4656 8.88211C54.6332 8.54694 55.1359 8.37936 55.6387 8.54695L62.6773 12.2338C64.8559 13.4069 66.3642 15.418 66.867 17.7642C67.3697 20.1104 66.867 22.6242 65.3587 24.6352L65.1911 24.8028C65.0235 25.138 64.8559 25.138 64.5208 25.138ZM64.3532 40.2207H55.1359C54.6332 40.2207 54.298 39.8855 54.298 39.3828C54.298 38.88 54.6332 38.5448 55.1359 38.5448H63.5152V33.5173H40.0532V38.5448H48.4325C48.9352 38.5448 49.2704 38.88 49.2704 39.3828C49.2704 39.8855 48.9352 40.2207 48.4325 40.2207H39.2153C38.7125 40.2207 38.3773 39.8855 38.3773 39.3828V32.6793C38.3773 32.1766 38.7125 31.8414 39.2153 31.8414H64.3532C64.8559 31.8414 65.1911 32.1766 65.1911 32.6793V39.3828C65.1911 39.8855 64.8559 40.2207 64.3532 40.2207ZM13.2394 45.2483H5.69804C5.19528 45.2483 4.86011 44.9131 4.86011 44.4104V37.7069C4.86011 37.2042 5.19528 36.869 5.69804 36.869H22.4566C22.9594 36.869 23.2946 37.2042 23.2946 37.7069V42.7345C23.2946 43.2373 22.9594 43.5724 22.4566 43.5724C21.9539 43.5724 21.6187 43.2373 21.6187 42.7345V38.5448H6.53597V43.5724H13.2394C13.7422 43.5724 14.0773 43.9076 14.0773 44.4104C14.0773 44.9131 13.7422 45.2483 13.2394 45.2483ZM87.8152 60.331H15.7532C15.2504 60.331 14.9153 59.9959 14.9153 59.4931V54.4655C14.9153 53.9628 15.2504 53.6276 15.7532 53.6276H87.8152C88.318 53.6276 88.6531 53.9628 88.6531 54.4655V59.4931C88.6531 59.9959 88.318 60.331 87.8152 60.331ZM16.5911 58.6552H86.9773V55.3035H16.5911V58.6552Z" fill="black"/>
<path d="M91.3344 55.3034H12.569C12.2338 55.3034 11.8986 55.1358 11.731 54.8007C11.5635 54.4655 11.731 54.1303 11.8986 53.9627L16.9262 48.9352C17.0938 48.7676 17.2614 48.7676 17.5966 48.7676H86.3069C86.4744 48.7676 86.8096 48.9352 86.9772 48.9352L92.0048 53.9627C92.1724 54.1303 92.34 54.6331 92.1724 54.8007C92.0048 54.9683 91.6696 55.3034 91.3344 55.3034ZM14.58 53.6276H89.3234L85.9717 50.2758H17.9317L14.58 53.6276Z" fill="black"/>
<path d="M57.6498 50.2759H45.9187C45.416 50.2759 45.0808 49.9407 45.0808 49.438V41.0587C45.0808 40.7235 45.2484 40.5559 45.5836 40.3883L51.4491 37.0366C51.7842 36.869 51.9518 36.869 52.287 37.0366L58.1525 40.3883C58.4877 40.5559 58.6553 40.8911 58.6553 41.0587V49.438C58.4877 49.9407 58.1525 50.2759 57.6498 50.2759ZM46.7567 48.6001H56.8118V41.5614L51.7842 38.7125L46.7567 41.5614V48.6001ZM22.6243 38.5449H5.86566C5.53049 38.5449 5.3629 38.3773 5.19532 38.2097L5.02773 38.0421C4.02221 36.869 3.68704 35.1932 3.85463 33.6849C4.02221 32.1766 4.86014 30.6683 6.03325 29.8304L13.7422 23.7973C14.0774 23.6297 14.4126 23.6297 14.7477 23.7973L22.4567 29.8304C23.6298 30.8359 24.4677 32.1766 24.6353 33.6849C24.8029 35.1932 24.4677 36.7014 23.4622 38.0421L23.2946 38.3773C23.127 38.5449 22.9594 38.5449 22.6243 38.5449ZM6.36842 36.869H22.2891C22.9594 36.0311 23.2946 34.858 23.127 33.8525C22.9594 32.6794 22.4567 31.6739 21.6188 31.0035L14.4125 25.3056L7.20635 31.0035C6.36842 31.6739 5.69808 32.6794 5.69808 33.8525C5.3629 35.0256 5.69808 36.0311 6.36842 36.869ZM97.8704 45.2483H90.329C89.8263 45.2483 89.4911 44.9132 89.4911 44.4104C89.4911 43.9076 89.8263 43.5725 90.329 43.5725H97.0325V38.5449H81.9497V41.8966C81.9497 42.3994 81.6146 42.7345 81.1118 42.7345C80.6091 42.7345 80.2739 42.3994 80.2739 41.8966V37.707C80.2739 37.2042 80.6091 36.869 81.1118 36.869H97.8704C98.3732 36.869 98.7084 37.2042 98.7084 37.707V44.4104C98.7084 44.9132 98.3732 45.2483 97.8704 45.2483Z" fill="black"/>
<path d="M98.0378 38.5449H81.2792C80.944 38.5449 80.7765 38.3773 80.6089 38.2097L80.4413 38.0421C79.4358 36.869 79.1006 35.1932 79.2682 33.6849C79.4358 32.1766 80.2737 30.6683 81.4468 29.8304L89.1557 23.7973C89.4909 23.6297 89.8261 23.6297 90.1613 23.7973L97.8702 29.8304C99.0433 30.8359 99.8813 32.1766 100.049 33.6849C100.216 35.1932 99.8813 36.7014 98.8757 38.0421L98.7082 38.3773C98.5406 38.5449 98.373 38.5449 98.0378 38.5449ZM81.782 36.869H97.7026C98.373 36.0311 98.7082 34.858 98.5406 33.8525C98.373 32.6794 97.8702 31.6739 97.0323 31.0035L89.8261 25.3056L82.6199 31.0035C81.782 31.6739 81.1116 32.6794 81.1116 33.8525C80.7764 35.0256 81.1116 36.0311 81.782 36.869ZM11.731 68.7104C9.88753 68.7104 8.37925 67.2021 8.37925 65.3587C8.37925 63.5152 9.88753 62.007 11.731 62.007C13.5744 62.007 15.0827 63.5152 15.0827 65.3587C15.0827 67.2021 13.5744 68.7104 11.731 68.7104ZM11.731 63.6828C10.7255 63.6828 10.0551 64.3532 10.0551 65.3587C10.0551 66.3642 10.7255 67.0345 11.731 67.0345C12.7365 67.0345 13.4068 66.3642 13.4068 65.3587C13.4068 64.3532 12.7365 63.6828 11.731 63.6828ZM14.0772 83.7931H9.0496C8.54684 83.7931 8.21167 83.458 8.21167 82.9552V72.9C8.21167 72.3973 8.54684 72.0621 9.0496 72.0621H14.0772C14.5799 72.0621 14.9151 72.3973 14.9151 72.9V82.9552C14.9151 83.458 14.5799 83.7931 14.0772 83.7931ZM9.88753 82.1173H13.2393V73.738H9.88753V82.1173ZM14.0772 92.1724H9.0496C8.54684 92.1724 8.21167 91.8373 8.21167 91.3345V87.9828C8.21167 87.48 8.54684 87.1449 9.0496 87.1449H14.0772C14.5799 87.1449 14.9151 87.48 14.9151 87.9828V91.3345C14.9151 91.8373 14.5799 92.1724 14.0772 92.1724ZM9.88753 90.4966H13.2393V88.8207H9.88753V90.4966Z" fill="black"/>
<path d="M15.7531 73.7381H7.37382C6.87106 73.7381 6.53589 73.4029 6.53589 72.9002C6.53589 72.3974 6.87106 72.0622 7.37382 72.0622H15.7531C16.2559 72.0622 16.5911 72.3974 16.5911 72.9002C16.5911 73.4029 16.2559 73.7381 15.7531 73.7381ZM92.1724 68.7105C90.3289 68.7105 88.8207 67.2022 88.8207 65.3588C88.8207 63.5154 90.3289 62.0071 92.1724 62.0071C94.0158 62.0071 95.5241 63.5154 95.5241 65.3588C95.5241 67.2022 94.0158 68.7105 92.1724 68.7105ZM92.1724 63.6829C91.1669 63.6829 90.4965 64.3533 90.4965 65.3588C90.4965 66.3643 91.1669 67.0347 92.1724 67.0347C93.1779 67.0347 93.8483 66.3643 93.8483 65.3588C93.8483 64.3533 93.1779 63.6829 92.1724 63.6829ZM94.5186 83.7933H89.491C88.9882 83.7933 88.6531 83.4581 88.6531 82.9553V72.9002C88.6531 72.3974 88.9882 72.0622 89.491 72.0622H94.5186C95.0213 72.0622 95.3565 72.3974 95.3565 72.9002V82.9553C95.3565 83.4581 95.0213 83.7933 94.5186 83.7933ZM90.3289 82.1174H93.6807V73.7381H90.3289V82.1174ZM94.5186 92.1726H89.491C88.9882 92.1726 88.6531 91.8374 88.6531 91.3346V87.9829C88.6531 87.4802 88.9882 87.145 89.491 87.145H94.5186C95.0213 87.145 95.3565 87.4802 95.3565 87.9829V91.3346C95.3565 91.8374 95.0213 92.1726 94.5186 92.1726ZM90.3289 90.4967H93.6807V88.8209H90.3289V90.4967Z" fill="black"/>
<path d="M96.1945 73.738H87.8152C87.3124 73.738 86.9772 73.4028 86.9772 72.9001C86.9772 72.3973 87.3124 72.0621 87.8152 72.0621H96.1945C96.6972 72.0621 97.0324 72.3973 97.0324 72.9001C97.0324 73.4028 96.6972 73.738 96.1945 73.738ZM55.9738 10.0553H47.5945C47.0918 10.0553 46.7566 9.72012 46.7566 9.21736V5.86564C46.7566 5.36288 47.0918 5.02771 47.5945 5.02771H55.9738C56.4766 5.02771 56.8118 5.36288 56.8118 5.86564V9.21736C56.8118 9.72012 56.4766 10.0553 55.9738 10.0553ZM48.4325 8.37943H55.1359V6.70357H48.4325V8.37943Z" fill="black"/>
<path d="M54.298 5.86551C53.7952 5.86551 53.4601 5.53034 53.4601 5.02758V3.35172C53.4601 2.51379 52.7897 1.67586 51.7842 1.67586C50.7787 1.67586 50.1084 2.34621 50.1084 3.35172V5.02758C50.1084 5.53034 49.7732 5.86551 49.2704 5.86551C48.7677 5.86551 48.4325 5.53034 48.4325 5.02758V3.35172C48.4325 1.50827 49.9408 0 51.7842 0C53.6277 0 55.1359 1.50827 55.1359 3.35172V5.02758C55.1359 5.53034 54.8008 5.86551 54.298 5.86551Z" fill="black"/>
<path d="M14.2448 25.1378C13.742 25.1378 13.4069 24.8026 13.4069 24.2998V21.6184C13.4069 21.1157 13.742 20.7805 14.2448 20.7805C14.7475 20.7805 15.0827 21.1157 15.0827 21.6184V24.2998C15.0827 24.8026 14.7475 25.1378 14.2448 25.1378Z" fill="black"/>
<path d="M89.6587 25.1378C89.1559 25.1378 88.8208 24.8026 88.8208 24.2998V21.6184C88.8208 21.1157 89.1559 20.7805 89.6587 20.7805C90.1614 20.7805 90.4966 21.1157 90.4966 21.6184V24.2998C90.4966 24.8026 90.1614 25.1378 89.6587 25.1378ZM41.0587 45.2481C40.8911 45.2481 40.7235 45.2481 40.556 45.0805C40.2208 44.9129 40.0532 44.2426 40.2208 43.9074L43.2373 39.0474L43.4049 32.8467L40.2208 27.9867C39.8856 27.6515 40.0532 27.1488 40.3884 26.8136C40.7235 26.4784 41.2263 26.646 41.5615 26.9812L44.9132 32.0088C45.0808 32.1764 45.0808 32.344 45.0808 32.5115L44.9132 39.215C44.9132 39.3826 44.9132 39.5502 44.7456 39.7177L41.5615 44.7453C41.5615 45.2481 41.3939 45.2481 41.0587 45.2481ZM62.8449 45.2481C62.5097 45.2481 62.3421 45.0805 62.1746 44.9129L58.8228 39.8853C58.6553 39.7177 58.6553 39.5502 58.6553 39.3826L58.8228 32.6791C58.8228 32.5115 58.8228 32.344 58.9904 32.1764L62.1746 27.1488C62.3421 26.8136 63.0125 26.646 63.3477 26.8136C63.6828 26.9812 63.8504 27.6515 63.6828 27.9867L60.4987 33.0143L60.3311 39.215L63.5152 44.075C63.8504 44.4102 63.6828 44.9129 63.3477 45.2481H62.8449Z" fill="black"/>
<path d="M19.105 59.4932H24.3001V96.3621H19.105V59.4932Z" fill="#FFE9CF"/>
<path d="M25.138 97.1998H18.267V58.655H25.138V97.1998ZM19.9428 95.524H23.4621V60.3309H19.9428V95.524Z" fill="black"/>
<path d="M40.7235 59.4932H45.9187V96.3621H40.7235V59.4932Z" fill="#FFE9CF"/>
<path d="M46.7565 97.1998H39.8855V58.655H46.7565V97.1998ZM41.5614 95.524H45.0807V60.3309H41.5614V95.524Z" fill="black"/>
<path d="M29.9979 59.4932H35.1931V96.3621H29.9979V59.4932Z" fill="#FFE9CF"/>
<path d="M36.0311 97.1998H29.16V58.655H36.0311V97.1998ZM30.8359 95.524H34.3552V60.3309H30.8359V95.524Z" fill="black"/>
<path d="M79.4359 59.4932H84.631V96.3621H79.4359V59.4932Z" fill="#FFE9CF"/>
<path d="M85.4691 97.1998H78.598V58.655H85.4691V97.1998ZM80.2739 95.524H83.7932V60.3309H80.2739V95.524Z" fill="black"/>
<path d="M68.5427 59.4932H73.7379V96.3621H68.5427V59.4932Z" fill="#FFE9CF"/>
<path d="M74.5757 97.1998H67.7047V58.655H74.5757V97.1998ZM69.3806 95.524H72.8999V60.3309H69.3806V95.524Z" fill="black"/>
<path d="M57.6497 59.4932H62.8448V96.3621H57.6497V59.4932Z" fill="#FFE9CF"/>
<path d="M63.6828 97.1999H56.8118V58.6551H63.6828V97.1999ZM58.4877 95.524H62.007V60.331H58.4877V95.524ZM54.298 24.6351C53.7952 24.6351 53.4601 24.2999 53.4601 23.7972V21.6186C53.4601 20.7806 52.9573 19.9427 52.287 19.4399L51.7842 19.1048L51.2815 19.4399C50.6111 19.9427 50.1084 20.613 50.1084 21.6186V23.7972C50.1084 24.2999 49.7732 24.6351 49.2704 24.6351C48.7677 24.6351 48.4325 24.2999 48.4325 23.7972V21.6186C48.4325 20.1103 49.1028 18.9372 50.2759 18.0993L51.2815 17.4289C51.6166 17.2613 51.9518 17.2613 52.1194 17.4289L53.1249 18.0993C54.298 18.9372 55.1359 20.2779 55.1359 21.6186V23.7972C55.1359 24.2999 54.8008 24.6351 54.298 24.6351Z" fill="black"/>
<path d="M103.065 97.2H0.83793C0.335172 97.2 0 96.8649 0 96.3621C0 95.8593 0.335172 95.5242 0.83793 95.5242H103.065C103.568 95.5242 103.903 95.8593 103.903 96.3621C103.903 96.8649 103.401 97.2 103.065 97.2Z" fill="black"/>
</svg>
