<svg width="150" height="110" viewBox="0 0 150 110" fill="none" xmlns="http://www.w3.org/2000/svg">
<path d="M40.166 36.3738L42.0127 40.5289L109.417 40.0672L111.726 36.3738H107.109L108.956 32.6804H100.184L99.2605 27.6019L101.107 23.4468H93.7204L92.3353 22.5235V17.4451L96.0287 15.1367L92.3353 14.2133L87.2569 8.67322H63.2498L57.7096 14.2133L58.1713 15.1367H54.9396V17.4451H58.1713V23.4468H50.7845L53.0929 27.6019H50.3228V32.6804H42.936L43.8594 36.3738H40.166Z" fill="#F2B894"/>
<rect x="23.0836" y="62.2277" width="104.339" height="46.1676" fill="#F2B894"/>
<rect x="71.0982" y="84.3881" width="9.23352" height="15.697" fill="#76BBB4"/>
<rect width="71.0981" height="8.31017" transform="matrix(1 0 0 -1 40.6274 48.3773)" fill="#F2B894"/>
<path d="M33.2405 48.3773L35.5488 52.0707L29.5471 52.5324L32.3171 57.1492H25.392L27.7003 61.3042H122.806L124.652 57.1492H119.574L121.421 52.0707H116.804L118.189 48.3773H33.2405Z" fill="#F2B894"/>
<rect width="30.4706" height="7.38682" rx="3.69341" transform="matrix(1 0 0 -1 60.9411 7.74988)" fill="#F2B894"/>
<path fill-rule="evenodd" clip-rule="evenodd" d="M0.00012207 108.581C0.00012207 108.173 0.330468 107.843 0.73797 107.843H149.045C149.453 107.843 149.783 108.173 149.783 108.581C149.783 108.988 149.453 109.319 149.045 109.319H0.73797C0.330468 109.319 0.00012207 108.988 0.00012207 108.581Z" fill="black"/>
<path fill-rule="evenodd" clip-rule="evenodd" d="M21.3973 78.5749C21.3973 78.1674 21.7277 77.837 22.1352 77.837L129.123 77.837C129.531 77.837 129.861 78.1674 129.861 78.5749C129.861 78.9824 129.531 79.3127 129.123 79.3127L22.1352 79.3127C21.7277 79.3127 21.3973 78.9824 21.3973 78.5749Z" fill="black"/>
<path fill-rule="evenodd" clip-rule="evenodd" d="M20.7826 96.2831C20.7826 95.8756 21.1129 95.5453 21.5204 95.5453L51.8952 95.5453C52.3027 95.5453 52.633 95.8756 52.633 96.2831C52.633 96.6906 52.3027 97.021 51.8952 97.021L21.5204 97.021C21.1129 97.021 20.7826 96.6906 20.7826 96.2831Z" fill="black"/>
<path fill-rule="evenodd" clip-rule="evenodd" d="M20.7826 100.71C20.7826 100.303 21.1129 99.9725 21.5204 99.9725L46.3613 99.9725C46.7688 99.9725 47.0992 100.303 47.0992 100.71C47.0992 101.118 46.7688 101.448 46.3613 101.448L21.5204 101.448C21.1129 101.448 20.7826 101.118 20.7826 100.71Z" fill="black"/>
<path fill-rule="evenodd" clip-rule="evenodd" d="M65.5455 103.17C65.5455 102.762 65.8758 102.432 66.2833 102.432L86.2052 102.432C86.6127 102.432 86.9431 102.762 86.9431 103.17C86.9431 103.577 86.6127 103.908 86.2052 103.908L66.2833 103.908C65.8758 103.908 65.5455 103.577 65.5455 103.17Z" fill="black"/>
<path fill-rule="evenodd" clip-rule="evenodd" d="M70.9565 69.1059C70.9565 68.6984 71.2869 68.368 71.6944 68.368L80.0567 68.368C80.4642 68.368 80.7945 68.6984 80.7945 69.1059C80.7945 69.5134 80.4642 69.8437 80.0567 69.8437L71.6944 69.8437C71.2869 69.8437 70.9565 69.5134 70.9565 69.1059Z" fill="black"/>
<path fill-rule="evenodd" clip-rule="evenodd" d="M71.6114 68.5841C71.9733 68.7715 72.1148 69.2167 71.9275 69.5786L67.195 78.7209C67.0076 79.0828 66.5624 79.2243 66.2005 79.037C65.8386 78.8497 65.6971 78.4044 65.8845 78.0425L70.6169 68.9002C70.8043 68.5383 71.2495 68.3968 71.6114 68.5841Z" fill="black"/>
<path fill-rule="evenodd" clip-rule="evenodd" d="M80.1385 68.5841C79.7766 68.7715 79.6351 69.2167 79.8225 69.5786L84.555 78.7209C84.7423 79.0828 85.1875 79.2243 85.5494 79.037C85.9113 78.8497 86.0528 78.4044 85.8655 78.0425L81.133 68.9002C80.9457 68.5383 80.5004 68.3968 80.1385 68.5841Z" fill="black"/>
<path fill-rule="evenodd" clip-rule="evenodd" d="M21.5301 61.2104C21.8746 60.9928 22.3303 61.0957 22.5479 61.4402L24.7113 64.8656C24.9289 65.2101 24.826 65.6658 24.4815 65.8834C24.1369 66.1011 23.6812 65.9982 23.4636 65.6536L21.3003 62.2283C21.0826 61.8837 21.1855 61.428 21.5301 61.2104Z" fill="black"/>
<path fill-rule="evenodd" clip-rule="evenodd" d="M24.4805 56.6602C24.825 56.4426 25.2807 56.5455 25.4983 56.8901L27.6617 60.3154C27.8793 60.66 27.7764 61.1157 27.4319 61.3333C27.0873 61.5509 26.6316 61.448 26.414 61.1034L24.2506 57.6781C24.033 57.3336 24.1359 56.8778 24.4805 56.6602Z" fill="black"/>
<path fill-rule="evenodd" clip-rule="evenodd" d="M28.9334 52.0304C29.2919 51.8367 29.7396 51.9702 29.9334 52.3287L32.1831 56.4906C32.3768 56.849 32.2433 57.2967 31.8848 57.4905C31.5263 57.6843 31.0786 57.5508 30.8849 57.1923L28.6352 53.0304C28.4414 52.6719 28.5749 52.2242 28.9334 52.0304Z" fill="black"/>
<path fill-rule="evenodd" clip-rule="evenodd" d="M31.8593 47.0683C32.2039 46.8507 32.6596 46.9536 32.8772 47.2982L35.0405 50.7235C35.2581 51.068 35.1552 51.5238 34.8107 51.7414C34.4662 51.959 34.0105 51.8561 33.7929 51.5115L31.6295 48.0862C31.4119 47.7416 31.5148 47.2859 31.8593 47.0683Z" fill="black"/>
<path fill-rule="evenodd" clip-rule="evenodd" d="M39.1327 35.907C39.487 35.7056 39.9639 35.8128 40.198 36.1463L42.3017 39.1441C42.5358 39.4777 42.4384 39.9113 42.0841 40.1127C41.7298 40.3141 41.2529 40.2069 41.0188 39.8734L38.9151 36.8756C38.681 36.542 38.7784 36.1084 39.1327 35.907Z" fill="black"/>
<path fill-rule="evenodd" clip-rule="evenodd" d="M41.8202 31.8194C42.1648 31.6018 42.6205 31.7047 42.8381 32.0493L45.0015 35.4746C45.2191 35.8191 45.1162 36.2749 44.7716 36.4925C44.4271 36.7101 43.9714 36.6072 43.7538 36.2626L41.5904 32.8373C41.3728 32.4927 41.4757 32.037 41.8202 31.8194Z" fill="black"/>
<path fill-rule="evenodd" clip-rule="evenodd" d="M49.9198 22.6936C50.255 22.4618 50.6836 22.5646 50.8773 22.9231L52.8815 26.6343C53.0751 26.9929 52.9604 27.4714 52.6252 27.7032C52.2901 27.935 51.8614 27.8322 51.6677 27.4736L49.6635 23.7625C49.4699 23.4039 49.5846 22.9254 49.9198 22.6936Z" fill="black"/>
<path fill-rule="evenodd" clip-rule="evenodd" d="M63.7303 7.77135C64.0185 8.0595 64.0185 8.52668 63.7303 8.81483L58.0102 14.535C57.7221 14.8231 57.2549 14.8231 56.9667 14.535C56.6786 14.2468 56.6786 13.7796 56.9667 13.4915L62.6869 7.77135C62.975 7.48321 63.4422 7.48321 63.7303 7.77135Z" fill="black"/>
<path fill-rule="evenodd" clip-rule="evenodd" d="M87.0694 8.06079C86.7998 8.36633 86.8181 8.8442 87.1104 9.12814L92.6926 14.551C92.9849 14.835 93.4404 14.8175 93.71 14.5119C93.9797 14.2064 93.9613 13.7285 93.669 13.4446L88.0869 8.02171C87.7946 7.73776 87.339 7.75526 87.0694 8.06079Z" fill="black"/>
<path fill-rule="evenodd" clip-rule="evenodd" d="M82.8136 7.44896C83.1817 7.27409 83.611 7.43563 83.7725 7.80977L86.1391 13.2931C86.3006 13.6672 86.1331 14.1123 85.765 14.2872C85.397 14.462 84.9677 14.3005 84.8062 13.9263L82.4396 8.44303C82.2781 8.06889 82.4456 7.62383 82.8136 7.44896Z" fill="black"/>
<path fill-rule="evenodd" clip-rule="evenodd" d="M71.0119 7.55801C71.3821 7.72836 71.5548 8.17124 71.3976 8.54721L68.8924 14.54C68.7352 14.916 68.3077 15.0826 67.9375 14.9123C67.5674 14.742 67.3947 14.2991 67.5518 13.9231L70.057 7.93033C70.2142 7.55436 70.6417 7.38766 71.0119 7.55801Z" fill="black"/>
<path fill-rule="evenodd" clip-rule="evenodd" d="M76.2445 7.98743C76.652 7.98743 76.9824 8.31777 76.9824 8.72527L76.9824 14.3821C76.9824 14.7896 76.652 15.12 76.2445 15.12C75.837 15.12 75.5067 14.7896 75.5067 14.3821L75.5067 8.72527C75.5067 8.31777 75.837 7.98743 76.2445 7.98743Z" fill="black"/>
<path fill-rule="evenodd" clip-rule="evenodd" d="M129.238 60.9644C128.893 60.7468 128.438 60.8497 128.22 61.1943L126.057 64.6196C125.839 64.9642 125.942 65.4199 126.286 65.6375C126.631 65.8551 127.087 65.7522 127.304 65.4076L129.468 61.9823C129.685 61.6377 129.582 61.182 129.238 60.9644Z" fill="black"/>
<path fill-rule="evenodd" clip-rule="evenodd" d="M126.286 56.2913C125.941 56.0737 125.486 56.1766 125.268 56.5212L123.105 59.9465C122.887 60.2911 122.99 60.7468 123.334 60.9644C123.679 61.182 124.135 61.0791 124.352 60.7345L126.516 57.3092C126.733 56.9647 126.63 56.5089 126.286 56.2913Z" fill="black"/>
<path fill-rule="evenodd" clip-rule="evenodd" d="M122.404 51.6179C122.089 51.3593 121.69 51.4468 121.512 51.8133L119.205 56.5609C119.027 56.9275 119.138 57.4342 119.453 57.6928C119.768 57.9514 120.168 57.8639 120.346 57.4974L122.652 52.7498C122.83 52.3832 122.719 51.8765 122.404 51.6179Z" fill="black"/>
<path fill-rule="evenodd" clip-rule="evenodd" d="M119.399 47.3143C119.055 47.0967 118.599 47.1996 118.381 47.5441L116.218 50.9695C116 51.314 116.103 51.7697 116.448 51.9873C116.792 52.2049 117.248 52.102 117.466 51.7575L119.629 48.3321C119.847 47.9876 119.744 47.5319 119.399 47.3143Z" fill="black"/>
<path fill-rule="evenodd" clip-rule="evenodd" d="M112.115 35.767C112.502 35.8959 112.711 36.3138 112.582 36.7004L111.327 40.4653C111.198 40.8519 110.78 41.0608 110.393 40.932C110.007 40.8031 109.798 40.3853 109.927 39.9987L111.182 36.2337C111.311 35.8471 111.728 35.6382 112.115 35.767Z" fill="black"/>
<path fill-rule="evenodd" clip-rule="evenodd" d="M110.054 32.0654C109.709 31.8478 109.253 31.9507 109.036 32.2952L106.872 35.7206C106.655 36.0651 106.758 36.5208 107.102 36.7384C107.447 36.956 107.903 36.8531 108.12 36.5086L110.284 33.0832C110.501 32.7387 110.398 32.283 110.054 32.0654Z" fill="black"/>
<path fill-rule="evenodd" clip-rule="evenodd" d="M101.837 22.6844C101.506 22.4475 101.076 22.5438 100.877 22.8997L98.6451 26.899C98.4465 27.2548 98.5542 27.7354 98.8858 27.9723C99.2173 28.2092 99.6471 28.1129 99.8457 27.757L102.078 23.7577C102.276 23.4019 102.169 22.9213 101.837 22.6844Z" fill="black"/>
<path fill-rule="evenodd" clip-rule="evenodd" d="M23.3652 74.0247C23.3652 73.6172 23.6955 73.2869 24.103 73.2869L28.2842 73.2869C28.6917 73.2869 29.022 73.6172 29.022 74.0247C29.022 74.4322 28.6917 74.7626 28.2842 74.7626L24.103 74.7626C23.6955 74.7626 23.3652 74.4322 23.3652 74.0247Z" fill="black"/>
<path fill-rule="evenodd" clip-rule="evenodd" d="M121.991 74.0247C121.991 73.6172 122.321 73.2869 122.729 73.2869L126.91 73.2869C127.318 73.2869 127.648 73.6172 127.648 74.0247C127.648 74.4322 127.318 74.7626 126.91 74.7626L122.729 74.7626C122.321 74.7626 121.991 74.4322 121.991 74.0247Z" fill="black"/>
<path fill-rule="evenodd" clip-rule="evenodd" d="M53.7402 74.0247C53.7402 73.6172 54.0706 73.2869 54.4781 73.2869L66.0377 73.2869C66.4452 73.2869 66.7755 73.6172 66.7755 74.0247C66.7755 74.4322 66.4452 74.7626 66.0377 74.7626L54.4781 74.7626C54.0706 74.7626 53.7402 74.4322 53.7402 74.0247Z" fill="black"/>
<path fill-rule="evenodd" clip-rule="evenodd" d="M84.6066 74.0247C84.6066 73.6172 84.9369 73.2869 85.3444 73.2869L95.7973 73.2869C96.2048 73.2869 96.5351 73.6172 96.5351 74.0247C96.5351 74.4322 96.2048 74.7626 95.7973 74.7626L85.3444 74.7626C84.9369 74.7626 84.6066 74.4322 84.6066 74.0247Z" fill="black"/>
<path fill-rule="evenodd" clip-rule="evenodd" d="M37.0153 74.0247C37.0153 73.6172 37.3456 73.2869 37.7531 73.2869L46.3613 73.2869C46.7688 73.2869 47.0992 73.6172 47.0992 74.0247C47.0992 74.4322 46.7688 74.7626 46.3613 74.7626L37.7531 74.7626C37.3456 74.7626 37.0153 74.4322 37.0153 74.0247Z" fill="black"/>
<path fill-rule="evenodd" clip-rule="evenodd" d="M104.651 74.0247C104.651 73.6172 104.982 73.2869 105.389 73.2869L113.997 73.2869C114.405 73.2869 114.735 73.6172 114.735 74.0247C114.735 74.4322 114.405 74.7626 113.997 74.7626L105.389 74.7626C104.982 74.7626 104.651 74.4322 104.651 74.0247Z" fill="black"/>
<path fill-rule="evenodd" clip-rule="evenodd" d="M23.3652 70.0897C23.3652 69.6822 23.6955 69.3518 24.103 69.3518L28.2842 69.3518C28.6917 69.3518 29.022 69.6822 29.022 70.0897C29.022 70.4972 28.6917 70.8275 28.2842 70.8275L24.103 70.8275C23.6955 70.8275 23.3652 70.4972 23.3652 70.0897Z" fill="black"/>
<path fill-rule="evenodd" clip-rule="evenodd" d="M121.991 70.0897C121.991 69.6822 122.321 69.3518 122.729 69.3518L126.91 69.3518C127.318 69.3518 127.648 69.6822 127.648 70.0897C127.648 70.4972 127.318 70.8275 126.91 70.8275L122.729 70.8275C122.321 70.8275 121.991 70.4972 121.991 70.0897Z" fill="black"/>
<path fill-rule="evenodd" clip-rule="evenodd" d="M53.7402 70.0897C53.7402 69.6822 54.0706 69.3518 54.4781 69.3518L58.6592 69.3518C59.0667 69.3518 59.3971 69.6822 59.3971 70.0897C59.3971 70.4972 59.0667 70.8275 58.6592 70.8275L54.4781 70.8275C54.0706 70.8275 53.7402 70.4972 53.7402 70.0897Z" fill="black"/>
<path fill-rule="evenodd" clip-rule="evenodd" d="M91.4931 70.0897C91.4931 69.6822 91.8234 69.3518 92.231 69.3518L95.7972 69.3518C96.2047 69.3518 96.5351 69.6822 96.5351 70.0897C96.5351 70.4972 96.2047 70.8275 95.7972 70.8275L92.231 70.8275C91.8234 70.8275 91.4931 70.4972 91.4931 70.0897Z" fill="black"/>
<path fill-rule="evenodd" clip-rule="evenodd" d="M37.0153 70.0897C37.0153 69.6822 37.3456 69.3518 37.7531 69.3518L46.3613 69.3518C46.7688 69.3518 47.0992 69.6822 47.0992 70.0897C47.0992 70.4972 46.7688 70.8275 46.3613 70.8275L37.7531 70.8275C37.3456 70.8275 37.0153 70.4972 37.0153 70.0897Z" fill="black"/>
<path fill-rule="evenodd" clip-rule="evenodd" d="M104.651 70.0897C104.651 69.6822 104.982 69.3518 105.389 69.3518L113.997 69.3518C114.405 69.3518 114.735 69.6822 114.735 70.0897C114.735 70.4972 114.405 70.8275 113.997 70.8275L105.389 70.8275C104.982 70.8275 104.651 70.4972 104.651 70.0897Z" fill="black"/>
<path fill-rule="evenodd" clip-rule="evenodd" d="M104.651 100.71C104.651 100.303 104.982 99.9725 105.389 99.9725L130.23 99.9725C130.638 99.9725 130.968 100.303 130.968 100.71C130.968 101.118 130.638 101.448 130.23 101.448L105.389 101.448C104.982 101.448 104.651 101.118 104.651 100.71Z" fill="black"/>
<path fill-rule="evenodd" clip-rule="evenodd" d="M98.9337 96.2831C98.9337 95.8756 99.2641 95.5453 99.6716 95.5453L130.046 95.5453C130.454 95.5453 130.784 95.8756 130.784 96.2831C130.784 96.6906 130.454 97.021 130.046 97.021L99.6716 97.021C99.2641 97.021 98.9337 96.6906 98.9337 96.2831Z" fill="black"/>
<path fill-rule="evenodd" clip-rule="evenodd" d="M21.3973 61.7273C21.3973 61.3198 21.7277 60.9895 22.1352 60.9895L128.385 60.9895C128.793 60.9895 129.123 61.3199 129.123 61.7274C129.123 62.1349 128.793 62.4652 128.385 62.4652L22.1352 62.4652C21.7277 62.4652 21.3973 62.1349 21.3973 61.7273Z" fill="black"/>
<path fill-rule="evenodd" clip-rule="evenodd" d="M23.3652 65.0477C23.3652 64.6402 23.6955 64.3098 24.103 64.3098L58.6589 64.3098C59.0664 64.3098 59.3967 64.6402 59.3967 65.0477C59.3967 65.4552 59.0664 65.7855 58.6589 65.7855L24.103 65.7855C23.6955 65.7855 23.3652 65.4552 23.3652 65.0477Z" fill="black"/>
<path fill-rule="evenodd" clip-rule="evenodd" d="M91.9855 65.0477C91.9855 64.6402 92.3158 64.3098 92.7233 64.3098L126.172 64.3098C126.58 64.3098 126.91 64.6402 126.91 65.0477C126.91 65.4552 126.58 65.7855 126.172 65.7855L92.7233 65.7855C92.3158 65.7855 91.9855 65.4552 91.9855 65.0477Z" fill="black"/>
<path fill-rule="evenodd" clip-rule="evenodd" d="M24.3488 57.0544C24.3488 56.6469 24.6792 56.3165 25.0867 56.3165L125.434 56.3165C125.841 56.3165 126.172 56.6469 126.172 57.0544C126.172 57.4619 125.841 57.7922 125.434 57.7922L25.0867 57.7922C24.6792 57.7922 24.3488 57.4619 24.3488 57.0544Z" fill="black"/>
<path fill-rule="evenodd" clip-rule="evenodd" d="M28.2839 52.3813C28.2839 51.9738 28.6142 51.6434 29.0217 51.6434L121.868 51.6434C122.275 51.6434 122.605 51.9738 122.605 52.3813C122.605 52.7888 122.275 53.1191 121.868 53.1191L29.0217 53.1191C28.6142 53.1191 28.2839 52.7888 28.2839 52.3813Z" fill="black"/>
<path fill-rule="evenodd" clip-rule="evenodd" d="M31.8506 47.7083C31.8506 47.3008 32.1809 46.9705 32.5884 46.9705L118.794 46.9705C119.201 46.9705 119.532 47.3008 119.532 47.7083C119.532 48.1158 119.201 48.4462 118.794 48.4462L32.5884 48.4462C32.1809 48.4462 31.8506 48.1158 31.8506 47.7083Z" fill="black"/>
<path fill-rule="evenodd" clip-rule="evenodd" d="M40.0898 48.4462C39.6823 48.4462 39.3519 48.1158 39.3519 47.7083L39.3519 40.8217C39.3519 40.4142 39.6823 40.0839 40.0898 40.0839C40.4973 40.0839 40.8276 40.4142 40.8276 40.8217L40.8276 47.7083C40.8276 48.1158 40.4973 48.4462 40.0898 48.4462Z" fill="black"/>
<path fill-rule="evenodd" clip-rule="evenodd" d="M53.0021 48.4462C52.5946 48.4462 52.2643 48.1158 52.2643 47.7083L52.2643 40.8217C52.2643 40.4142 52.5946 40.0839 53.0021 40.0839C53.4096 40.0839 53.74 40.4142 53.74 40.8217L53.74 47.7083C53.74 48.1158 53.4096 48.4462 53.0021 48.4462Z" fill="black"/>
<path fill-rule="evenodd" clip-rule="evenodd" d="M65.9144 48.4462C65.5069 48.4462 65.1766 48.1158 65.1766 47.7083L65.1766 40.8217C65.1766 40.4142 65.5069 40.0839 65.9144 40.0839C66.3219 40.0839 66.6523 40.4142 66.6523 40.8217L66.6523 47.7083C66.6523 48.1158 66.3219 48.4462 65.9144 48.4462Z" fill="black"/>
<path fill-rule="evenodd" clip-rule="evenodd" d="M84.6062 48.4462C84.1987 48.4462 83.8683 48.1158 83.8683 47.7083L83.8683 40.8217C83.8683 40.4142 84.1987 40.0839 84.6062 40.0839C85.0137 40.0839 85.344 40.4142 85.344 40.8217L85.344 47.7083C85.344 48.1158 85.0137 48.4462 84.6062 48.4462Z" fill="black"/>
<path fill-rule="evenodd" clip-rule="evenodd" d="M97.2726 48.4462C96.8651 48.4462 96.5348 48.1158 96.5348 47.7083L96.5348 40.8217C96.5348 40.4142 96.8651 40.0839 97.2726 40.0839C97.6801 40.0839 98.0105 40.4142 98.0105 40.8217L98.0105 47.7083C98.0105 48.1158 97.6801 48.4462 97.2726 48.4462Z" fill="black"/>
<path fill-rule="evenodd" clip-rule="evenodd" d="M109.94 48.4462C109.532 48.4462 109.202 48.1158 109.202 47.7083L109.202 40.8217C109.202 40.4142 109.532 40.0839 109.94 40.0839C110.347 40.0839 110.677 40.4142 110.677 40.8217L110.677 47.7083C110.677 48.1158 110.347 48.4462 109.94 48.4462Z" fill="black"/>
<path fill-rule="evenodd" clip-rule="evenodd" d="M100.347 32.5823C99.9395 32.5823 99.6092 32.2519 99.6092 31.8444L99.6092 28.6471C99.6092 28.2396 99.9395 27.9092 100.347 27.9092C100.755 27.9092 101.085 28.2396 101.085 28.6471L101.085 31.8444C101.085 32.2519 100.755 32.5823 100.347 32.5823Z" fill="black"/>
<path fill-rule="evenodd" clip-rule="evenodd" d="M91.7391 32.5823C91.3316 32.5823 91.0013 32.2519 91.0013 31.8444L91.0013 28.6471C91.0013 28.2396 91.3316 27.9092 91.7391 27.9092C92.1466 27.9092 92.477 28.2396 92.477 28.6471L92.477 31.8444C92.477 32.2519 92.1466 32.5823 91.7391 32.5823Z" fill="black"/>
<path fill-rule="evenodd" clip-rule="evenodd" d="M81.2864 32.5823C80.8789 32.5823 80.5486 32.2519 80.5486 31.8444L80.5486 28.6471C80.5486 28.2396 80.8789 27.9092 81.2864 27.9092C81.6939 27.9092 82.0243 28.2396 82.0243 28.6471L82.0243 31.8444C82.0243 32.2519 81.6939 32.5823 81.2864 32.5823Z" fill="black"/>
<path fill-rule="evenodd" clip-rule="evenodd" d="M69.6036 32.5823C69.1961 32.5823 68.8658 32.2519 68.8658 31.8444L68.8658 28.6471C68.8658 28.2396 69.1961 27.9092 69.6036 27.9092C70.0111 27.9092 70.3415 28.2396 70.3415 28.6471L70.3415 31.8444C70.3415 32.2519 70.0111 32.5823 69.6036 32.5823Z" fill="black"/>
<path fill-rule="evenodd" clip-rule="evenodd" d="M57.9213 32.5823C57.5138 32.5823 57.1835 32.2519 57.1835 31.8444L57.1835 28.6471C57.1835 28.2396 57.5138 27.9092 57.9213 27.9092C58.3288 27.9092 58.6592 28.2396 58.6592 28.6471L58.6592 31.8444C58.6592 32.2519 58.3288 32.5823 57.9213 32.5823Z" fill="black"/>
<path fill-rule="evenodd" clip-rule="evenodd" d="M57.9213 23.7281C57.5138 23.7281 57.1835 23.3978 57.1835 22.9903L57.1835 18.3173C57.1835 17.9098 57.5138 17.5794 57.9213 17.5794C58.3288 17.5794 58.6592 17.9098 58.6592 18.3173L58.6592 22.9903C58.6592 23.3978 58.3288 23.7281 57.9213 23.7281Z" fill="black"/>
<path fill-rule="evenodd" clip-rule="evenodd" d="M74.7682 23.7281C74.3607 23.7281 74.0304 23.3978 74.0304 22.9903L74.0304 18.3173C74.0304 17.9098 74.3607 17.5794 74.7682 17.5794C75.1757 17.5794 75.5061 17.9098 75.5061 18.3173L75.5061 22.9903C75.5061 23.3978 75.1757 23.7281 74.7682 23.7281Z" fill="black"/>
<path fill-rule="evenodd" clip-rule="evenodd" d="M66.0374 23.7281C65.6299 23.7281 65.2996 23.3978 65.2996 22.9903L65.2996 18.3173C65.2996 17.9098 65.6299 17.5794 66.0374 17.5794C66.4449 17.5794 66.7753 17.9098 66.7753 18.3173L66.7753 22.9903C66.7753 23.3978 66.4449 23.7281 66.0374 23.7281Z" fill="black"/>
<path fill-rule="evenodd" clip-rule="evenodd" d="M84.3608 23.7281C83.9533 23.7281 83.6229 23.3978 83.6229 22.9903L83.6229 18.3173C83.6229 17.9098 83.9533 17.5794 84.3608 17.5794C84.7683 17.5794 85.0986 17.9098 85.0986 18.3173L85.0986 22.9903C85.0986 23.3978 84.7683 23.7281 84.3608 23.7281Z" fill="black"/>
<path fill-rule="evenodd" clip-rule="evenodd" d="M92.9687 23.7281C92.5612 23.7281 92.2308 23.3978 92.2308 22.9903L92.2308 18.3173C92.2308 17.9098 92.5612 17.5794 92.9687 17.5794C93.3762 17.5794 93.7065 17.9098 93.7065 18.3173L93.7065 22.9903C93.7065 23.3978 93.3762 23.7281 92.9687 23.7281Z" fill="black"/>
<path fill-rule="evenodd" clip-rule="evenodd" d="M50.42 32.5823C50.0125 32.5823 49.6822 32.2519 49.6822 31.8444L49.6822 28.6471C49.6822 28.2396 50.0125 27.9092 50.42 27.9092C50.8275 27.9092 51.1579 28.2396 51.1579 28.6471L51.1579 31.8444C51.1579 32.2519 50.8275 32.5823 50.42 32.5823Z" fill="black"/>
<path fill-rule="evenodd" clip-rule="evenodd" d="M35.9086 40.3298C35.9086 39.9223 36.239 39.5919 36.6465 39.5919L114.489 39.5919C114.897 39.5919 115.227 39.9223 115.227 40.3298C115.227 40.7373 114.897 41.0676 114.489 41.0676L36.6465 41.0676C36.239 41.0676 35.9086 40.7373 35.9086 40.3298Z" fill="black"/>
<path fill-rule="evenodd" clip-rule="evenodd" d="M39.2289 36.3946C39.2289 35.9871 39.5593 35.6567 39.9668 35.6567H111.415C111.823 35.6567 112.153 35.9871 112.153 36.3946C112.153 36.8021 111.823 37.1324 111.415 37.1324H39.9668C39.5593 37.1324 39.2289 36.8021 39.2289 36.3946Z" fill="black"/>
<path fill-rule="evenodd" clip-rule="evenodd" d="M41.3197 32.4594C41.3197 32.0519 41.65 31.7216 42.0576 31.7216L109.571 31.7216C109.978 31.7216 110.308 32.0519 110.308 32.4594C110.308 32.8669 109.978 33.1972 109.571 33.1972L42.0576 33.1973C41.65 33.1973 41.3197 32.8669 41.3197 32.4594Z" fill="black"/>
<path fill-rule="evenodd" clip-rule="evenodd" d="M46.3614 27.9094C46.3614 27.5019 46.6917 27.1715 47.0992 27.1715L104.651 27.1715C105.059 27.1715 105.389 27.5019 105.389 27.9094C105.389 28.3169 105.059 28.6472 104.651 28.6472L47.0992 28.6472C46.6917 28.6472 46.3614 28.3169 46.3614 27.9094Z" fill="black"/>
<path fill-rule="evenodd" clip-rule="evenodd" d="M50.0511 23.3593C50.0511 22.9518 50.3814 22.6215 50.7889 22.6215L100.963 22.6215C101.37 22.6215 101.7 22.9518 101.7 23.3593C101.7 23.7668 101.37 24.0972 100.963 24.0972L50.7889 24.0972C50.3814 24.0972 50.0511 23.7668 50.0511 23.3593Z" fill="black"/>
<path fill-rule="evenodd" clip-rule="evenodd" d="M24.349 64.5557L24.349 109.318H22.8734L22.8734 64.5557H24.349Z" fill="black"/>
<path fill-rule="evenodd" clip-rule="evenodd" d="M31.8503 78.6978L31.8503 109.318L30.3746 109.318L30.3746 78.6978L31.8503 78.6978Z" fill="black"/>
<path fill-rule="evenodd" clip-rule="evenodd" d="M38.1221 78.6978L38.1221 109.318L36.6464 109.318L36.6464 78.6978L38.1221 78.6978Z" fill="black"/>
<path fill-rule="evenodd" clip-rule="evenodd" d="M47.96 78.6978L47.96 109.318L46.4843 109.318L46.4843 78.6978L47.96 78.6978Z" fill="black"/>
<path fill-rule="evenodd" clip-rule="evenodd" d="M42.6725 65.7855L42.6725 96.0372L41.1968 96.0372L41.1968 65.7855L42.6725 65.7855Z" fill="black"/>
<path fill-rule="evenodd" clip-rule="evenodd" d="M109.694 65.7855L109.694 96.0372L108.218 96.0372L108.218 65.7855L109.694 65.7855Z" fill="black"/>
<path fill-rule="evenodd" clip-rule="evenodd" d="M53.74 78.6978L53.74 109.318L52.2643 109.318L52.2643 78.6978L53.74 78.6978Z" fill="black"/>
<path fill-rule="evenodd" clip-rule="evenodd" d="M98.7487 78.6978L98.7487 109.318L97.273 109.318L97.273 78.6978L98.7487 78.6978Z" fill="black"/>
<path fill-rule="evenodd" clip-rule="evenodd" d="M104.652 78.6978L104.652 109.318L103.176 109.318L103.176 78.6978L104.652 78.6978Z" fill="black"/>
<path fill-rule="evenodd" clip-rule="evenodd" d="M115.227 78.6978L115.227 109.318L113.751 109.318L113.751 78.6978L115.227 78.6978Z" fill="black"/>
<path fill-rule="evenodd" clip-rule="evenodd" d="M120.761 78.6978L120.761 109.318L119.286 109.318L119.286 78.6978L120.761 78.6978Z" fill="black"/>
<path fill-rule="evenodd" clip-rule="evenodd" d="M60.1341 78.6978L60.1341 109.318L58.6584 109.318L58.6584 78.6978L60.1341 78.6978Z" fill="black"/>
<path fill-rule="evenodd" clip-rule="evenodd" d="M60.1341 61.3584L60.1341 109.318L58.6584 109.318L58.6584 61.3584L60.1341 61.3584Z" fill="black"/>
<path fill-rule="evenodd" clip-rule="evenodd" d="M66.6523 78.6978L66.6523 103.908L65.1766 103.908L65.1766 78.6978L66.6523 78.6978Z" fill="black"/>
<path fill-rule="evenodd" clip-rule="evenodd" d="M86.943 78.6978L86.943 103.908L85.4673 103.908L85.4673 78.6978L86.943 78.6978Z" fill="black"/>
<path fill-rule="evenodd" clip-rule="evenodd" d="M92.6 62.4651L92.6 109.318L91.1243 109.318L91.1243 62.4651L92.6 62.4651Z" fill="black"/>
<path fill-rule="evenodd" clip-rule="evenodd" d="M128.385 65.7855L128.385 109.318L126.909 109.318L126.909 65.7855L128.385 65.7855Z" fill="black"/>
<path fill-rule="evenodd" clip-rule="evenodd" d="M128.385 63.6949L128.385 109.318L126.909 109.318L126.909 63.6949L128.385 63.6949Z" fill="black"/>
<path fill-rule="evenodd" clip-rule="evenodd" d="M94.9982 15.12H56.0153C55.5738 15.12 55.2159 15.4779 55.2159 15.9193C55.2159 16.3608 55.5738 16.7187 56.0153 16.7187H94.9982C95.4397 16.7187 95.7976 16.3608 95.7976 15.9193C95.7976 15.4779 95.4397 15.12 94.9982 15.12ZM56.0153 13.6443C54.7588 13.6443 53.7402 14.6629 53.7402 15.9193C53.7402 17.1758 54.7588 18.1943 56.0153 18.1943H94.9982C96.2547 18.1943 97.2733 17.1758 97.2733 15.9193C97.2733 14.6629 96.2547 13.6443 94.9982 13.6443H56.0153Z" fill="black"/>
<path fill-rule="evenodd" clip-rule="evenodd" d="M86.6969 1.83873H64.3155C62.8214 1.83873 61.6101 3.05 61.6101 4.54418C61.6101 6.03835 62.8214 7.24962 64.3155 7.24962H86.6969C88.1911 7.24962 89.4024 6.03835 89.4024 4.54418C89.4024 3.05 88.1911 1.83873 86.6969 1.83873ZM64.3155 0.363037C62.0064 0.363037 60.1344 2.235 60.1344 4.54418C60.1344 6.85335 62.0064 8.72531 64.3155 8.72531H86.6969C89.0061 8.72531 90.8781 6.85335 90.8781 4.54418C90.8781 2.235 89.0061 0.363037 86.6969 0.363037H64.3155Z" fill="black"/>
<path fill-rule="evenodd" clip-rule="evenodd" d="M84.2378 33.1973H67.2673C66.5881 33.1973 66.0375 33.7478 66.0375 34.427C66.0375 35.1062 66.5881 35.6567 67.2673 35.6567H84.2378C84.9169 35.6567 85.4675 35.1062 85.4675 34.427C85.4675 33.7478 84.9169 33.1973 84.2378 33.1973ZM67.2673 31.7216C65.7731 31.7216 64.5618 32.9328 64.5618 34.427C64.5618 35.9212 65.7731 37.1324 67.2673 37.1324H84.2378C85.7319 37.1324 86.9432 35.9212 86.9432 34.427C86.9432 32.9328 85.7319 31.7216 84.2378 31.7216H67.2673Z" fill="black"/>
<path fill-rule="evenodd" clip-rule="evenodd" d="M87.1277 37.3784H63.5166C63.0072 37.3784 62.5943 37.7913 62.5943 38.3007C62.5943 38.8101 63.0072 39.223 63.5166 39.223H87.1277C87.6371 39.223 88.05 38.8101 88.05 38.3007C88.05 37.7913 87.6371 37.3784 87.1277 37.3784ZM63.5166 35.9027C62.1922 35.9027 61.1186 36.9763 61.1186 38.3007C61.1186 39.6251 62.1922 40.6987 63.5166 40.6987H87.1277C88.4521 40.6987 89.5257 39.6251 89.5257 38.3007C89.5257 36.9763 88.4521 35.9027 87.1277 35.9027H63.5166Z" fill="black"/>
<path fill-rule="evenodd" clip-rule="evenodd" d="M87.5582 49.1839H63.4551C62.776 49.1839 62.2254 49.7345 62.2254 50.4137C62.2254 51.0929 62.776 51.6434 63.4551 51.6434H87.5582C88.2373 51.6434 88.7879 51.0929 88.7879 50.4137C88.7879 49.7345 88.2373 49.1839 87.5582 49.1839ZM63.4551 47.7083C61.961 47.7083 60.7497 48.9195 60.7497 50.4137C60.7497 51.9079 61.961 53.1191 63.4551 53.1191H87.5582C89.0523 53.1191 90.2636 51.9079 90.2636 50.4137C90.2636 48.9195 89.0523 47.7083 87.5582 47.7083H63.4551Z" fill="black"/>
<path fill-rule="evenodd" clip-rule="evenodd" d="M89.771 53.8569H61.3639C60.6847 53.8569 60.1341 54.4075 60.1341 55.0867C60.1341 55.7658 60.6847 56.3164 61.3639 56.3164H89.771C90.4502 56.3164 91.0008 55.7658 91.0008 55.0867C91.0008 54.4075 90.4502 53.8569 89.771 53.8569ZM61.3639 52.3812C59.8697 52.3812 58.6584 53.5925 58.6584 55.0867C58.6584 56.5808 59.8697 57.7921 61.3639 57.7921H89.771C91.2652 57.7921 92.4765 56.5808 92.4765 55.0867C92.4765 53.5925 91.2652 52.3812 89.771 52.3812H61.3639Z" fill="black"/>
<path fill-rule="evenodd" clip-rule="evenodd" d="M71.8174 85.0925V98.2508H79.3189V85.0925H71.8174ZM71.4485 83.6168C70.8373 83.6168 70.3417 84.1123 70.3417 84.7236V98.6197C70.3417 99.231 70.8373 99.7265 71.4485 99.7265H79.6878C80.2991 99.7265 80.7946 99.231 80.7946 98.6197V84.7236C80.7946 84.1123 80.2991 83.6168 79.6878 83.6168H71.4485Z" fill="black"/>
<path fill-rule="evenodd" clip-rule="evenodd" d="M92.2305 58.53H57.9206C57.2414 58.53 56.6908 59.0806 56.6908 59.7598C56.6908 60.4389 57.2414 60.9895 57.9206 60.9895H92.2305C92.9097 60.9895 93.4603 60.4389 93.4603 59.7598C93.4603 59.0806 92.9097 58.53 92.2305 58.53ZM57.9206 57.0543C56.4264 57.0543 55.2151 58.2656 55.2151 59.7598C55.2151 61.2539 56.4264 62.4652 57.9206 62.4652H92.2305C93.7247 62.4652 94.936 61.2539 94.936 59.7598C94.936 58.2656 93.7247 57.0543 92.2305 57.0543H57.9206Z" fill="black"/>
</svg>
