<svg width="45" height="45" viewBox="0 0 45 45" fill="none" xmlns="http://www.w3.org/2000/svg">
<g clip-path="url(#clip0_47_6453)">
<path d="M6.43109 45C5.80474 44.498 5.09018 44.1193 4.41972 43.6878C3.12292 42.86 1.81729 42.0499 0.511664 41.2485C0.141149 41.0283 0 40.7465 0 40.315C0.0176436 38.3688 0.0176436 36.4227 0 34.4677C0 34.0362 0.149971 33.7632 0.520486 33.543C2.41717 32.3806 4.30504 31.2005 6.18408 30.0117C6.5546 29.7739 6.86336 29.7739 7.23388 30.0117C9.13056 31.2094 11.0273 32.3894 12.9328 33.5694C13.268 33.7808 13.4091 34.0362 13.4003 34.4324C13.3827 36.3786 13.3827 38.3248 13.4003 40.2798C13.4091 40.7377 13.2503 41.0371 12.8534 41.2837C11.0096 42.4197 9.18349 43.5822 7.33974 44.727C7.18094 44.8238 7.02215 44.9119 6.86336 45C6.73103 45 6.58106 45 6.43109 45Z" fill="black"/>
<path d="M45 11.1575C42.9622 12.4344 40.9155 13.7113 38.8865 15.0059C38.5336 15.2348 38.2248 15.2172 37.872 14.9971C35.9841 13.7994 34.0874 12.6106 32.1819 11.4393C31.829 11.2192 31.6879 10.955 31.6879 10.5411C31.7055 8.57729 31.7055 6.6223 31.6879 4.6585C31.6879 4.24461 31.8202 3.98042 32.1731 3.76026C34.0874 2.58022 36.0018 1.38257 37.9073 0.184918C38.2249 -0.0176261 38.516 -0.0352387 38.8424 0.176112C40.7743 1.39138 42.7151 2.58903 44.6471 3.79549C44.7706 3.87474 44.8853 3.9628 45 4.05087C45 6.41095 45 8.78864 45 11.1575Z" fill="black"/>
<path d="M38.1366 44.9999C36.7781 44.0665 35.3489 43.2387 33.9551 42.3493C33.3464 41.9618 32.7465 41.5831 32.129 41.2133C31.8202 41.0283 31.6879 40.7817 31.6879 40.4207C31.6967 38.4129 31.6967 36.405 31.6879 34.3972C31.6879 34.0362 31.8114 33.7896 32.1202 33.6046C34.061 32.3982 36.0018 31.1917 37.9337 29.9765C38.2248 29.7915 38.4983 29.7651 38.7983 29.95C40.7832 31.1917 42.7681 32.4246 44.7618 33.6663C44.85 33.7191 44.9294 33.7808 45.0088 33.8336C45.0088 36.2025 45.0088 38.5802 45.0088 40.9491C44.9206 41.0812 44.85 41.2221 44.7001 41.3101C43.8355 41.8297 42.9974 42.3845 42.1329 42.8953C41.586 43.2123 41.2331 43.133 40.889 42.6663C40.7214 42.2084 40.8979 41.8737 41.286 41.6183C41.93 41.1868 42.5916 40.7817 43.2621 40.3855C43.5444 40.2181 43.6767 40.0068 43.6679 39.6722C43.6591 38.4833 43.6679 37.3033 43.6591 36.1144C43.6591 35.7093 43.6061 35.6829 43.2709 35.8943C42.0094 36.6692 40.7655 37.4618 39.504 38.2367C39.2129 38.4129 39.1511 38.6682 39.1511 38.9853C39.1511 40.7729 39.1688 42.5518 39.1423 44.3395C39.1423 44.7093 38.9129 44.9031 38.5865 44.9999C38.4277 44.9999 38.2778 44.9999 38.1366 44.9999Z" fill="black"/>
<path d="M15.8528 22.456C15.8528 21.4609 15.8616 20.4658 15.8528 19.4707C15.8528 19.1272 15.9763 18.8894 16.2674 18.7133C18.217 17.4981 20.1666 16.2828 22.1163 15.0675C22.4074 14.8826 22.6897 14.8826 22.9808 15.0675C24.9304 16.2828 26.88 17.5069 28.8296 18.7133C29.1208 18.8894 29.2531 19.1272 29.2443 19.4707C29.2354 21.4785 29.2354 23.4863 29.2443 25.4941C29.2443 25.8728 29.1031 26.1282 28.7855 26.3219C26.8712 27.5108 24.9569 28.7084 23.0514 29.9061C22.6985 30.1262 22.3897 30.1262 22.0369 29.9061C20.1313 28.6996 18.217 27.5108 16.3027 26.3219C15.9763 26.1194 15.8351 25.8728 15.844 25.4941C15.8616 24.4726 15.8528 23.4687 15.8528 22.456Z" fill="black"/>
<path d="M6.09586 0.96868C6.02529 0.625236 6.0694 0.325823 6.37816 0.114473C6.71339 -0.11449 6.98687 0.061635 7.26916 0.23776C9.13938 1.40899 11.0184 2.58023 12.8975 3.73385C13.2592 3.954 13.418 4.227 13.4091 4.66731C13.3915 6.63111 13.3915 8.5949 13.4091 10.5499C13.4091 10.9638 13.2592 11.228 12.9063 11.4393C11.0272 12.6018 9.15703 13.7642 7.28681 14.953C6.87218 15.2172 6.53695 15.2084 6.12233 14.9442C4.26093 13.7642 2.38189 12.5929 0.502843 11.4393C0.149971 11.228 0 10.9638 0 10.5499C0.0176436 8.5861 0.0176436 6.6223 0 4.66731C0 4.26222 0.132327 3.98042 0.485199 3.76907C1.42913 3.20547 2.35542 2.62426 3.28171 2.02543C3.66987 1.77005 4.01392 1.76124 4.3315 2.11349C4.62262 2.48336 4.56969 2.84441 4.15507 3.15263C3.65222 3.51369 3.1141 3.8131 2.59361 4.13893C2.54068 4.17416 2.49657 4.20058 2.44364 4.227C2.15252 4.3767 2.21427 4.49119 2.45246 4.64089C3.55519 5.32778 4.71084 5.95302 5.75181 6.73678C6.50167 7.29158 7.0398 7.15948 7.7279 6.67514C8.73358 5.97064 9.80102 5.3542 10.8508 4.71134C11.2654 4.45596 11.2743 4.42954 10.8685 4.17416C9.41286 3.26711 7.95726 2.36888 6.51049 1.44422C6.33405 1.32093 6.11351 1.22406 6.09586 0.96868Z" fill="black"/>
<path d="M6.09587 0.968628C6.23702 1.14475 6.41346 1.25923 6.59871 1.37372C8.2131 2.37763 9.81867 3.38154 11.486 4.42068C11.2743 4.55278 11.0978 4.66726 10.9214 4.78174C9.60695 5.60072 8.2925 6.4197 6.97805 7.24749C6.82808 7.34436 6.7134 7.43242 6.51049 7.30914C5.00197 6.34925 3.4758 5.39818 1.91434 4.42949C2.6289 3.98037 3.30818 3.56648 3.98746 3.13497C4.45502 2.83556 4.51677 2.65062 4.32269 2.11344C4.94021 1.76119 5.57538 1.45297 6.09587 0.968628Z" fill="#FEECB2"/>
<path d="M22.4956 7.90798C20.5901 7.90798 18.6846 7.90798 16.7791 7.90798C16.3821 7.90798 16.0821 7.81111 16.0027 7.3708C15.9233 6.93929 16.1704 6.62227 16.6114 6.58704C16.682 6.57824 16.7614 6.58704 16.832 6.58704C20.6254 6.58704 24.4276 6.58704 28.2209 6.58704C28.4944 6.58704 28.7591 6.59585 28.9267 6.84242C29.0766 7.06258 29.1031 7.30035 28.9884 7.54693C28.8473 7.83753 28.6003 7.90798 28.3003 7.90798C26.3684 7.90798 24.4276 7.90798 22.4956 7.90798Z" fill="black"/>
<path d="M22.5397 38.413C20.6165 38.413 18.7022 38.413 16.7791 38.413C16.1792 38.413 15.8616 37.955 16.0998 37.4619C16.2498 37.1449 16.5232 37.1008 16.832 37.1008C18.7816 37.1008 20.7312 37.1008 22.6808 37.1008C24.5599 37.1008 26.4301 37.1008 28.3092 37.1008C28.6973 37.1008 29.0061 37.1977 29.0855 37.638C29.1649 38.1224 28.8914 38.4218 28.3444 38.4218C26.4125 38.413 24.4717 38.413 22.5397 38.413Z" fill="black"/>
<path d="M37.6956 22.5C37.6956 21.2583 37.6956 20.0166 37.6956 18.7749C37.6956 18.1937 37.8985 17.9295 38.3395 17.9295C38.7895 17.9207 39.01 18.1937 39.01 18.7573C39.01 21.2759 39.01 23.7857 39.01 26.3043C39.01 26.7798 38.7542 27.0704 38.3572 27.0792C37.9426 27.088 37.6956 26.7886 37.6867 26.2867C37.6867 26.1986 37.6867 26.1105 37.6867 26.0225C37.6956 24.8424 37.6956 23.6712 37.6956 22.5Z" fill="black"/>
<path d="M6.07822 22.544C6.07822 21.2847 6.07822 20.0254 6.07822 18.7749C6.07822 18.2289 6.32523 17.9383 6.75749 17.9471C7.18094 17.9559 7.40149 18.2377 7.40149 18.7661C7.40149 21.2671 7.40149 23.768 7.40149 26.269C7.40149 26.815 7.15448 27.1056 6.72221 27.0968C6.30758 27.088 6.07822 26.7974 6.07822 26.2778C6.07822 25.0273 6.07822 23.7856 6.07822 22.544Z" fill="black"/>
<path d="M12.8181 13.6144C12.9945 13.6056 13.1268 13.6849 13.268 13.773C14.1943 14.3894 15.1294 14.9882 16.0557 15.6047C16.4879 15.8865 16.5762 16.2475 16.338 16.5998C16.1174 16.9256 15.7469 16.9696 15.3323 16.6966C14.3883 16.0802 13.4532 15.4549 12.5093 14.8385C12.2447 14.6624 12.0947 14.4246 12.2182 14.09C12.3152 13.817 12.5005 13.6321 12.8181 13.6144Z" fill="black"/>
<path d="M16.4615 29.2544C16.4527 29.4657 16.338 29.6507 16.1439 29.7739C15.1647 30.4168 14.1943 31.0685 13.2151 31.7025C12.871 31.9227 12.4917 31.8346 12.2888 31.5264C12.0771 31.2006 12.1476 30.8395 12.4829 30.6105C13.4533 29.9589 14.4236 29.3072 15.4117 28.6732C15.8792 28.3826 16.4527 28.6908 16.4615 29.2544Z" fill="black"/>
<path d="M29.306 28.5587C29.4825 28.5499 29.6148 28.638 29.7471 28.726C30.6646 29.3337 31.582 29.9325 32.4907 30.5401C32.923 30.8307 33.02 31.1742 32.7906 31.5352C32.5701 31.8787 32.1908 31.9227 31.7585 31.6409C30.8322 31.0333 29.9059 30.4168 28.9796 29.8004C28.7061 29.6243 28.5562 29.3953 28.662 29.0607C28.7679 28.7525 28.9708 28.5675 29.306 28.5587Z" fill="black"/>
<path d="M32.2349 13.6057C32.5701 13.6321 32.7553 13.7906 32.87 14.0636C32.9847 14.3454 32.9318 14.6096 32.6936 14.7681C31.6614 15.4638 30.6293 16.1595 29.5795 16.82C29.2884 17.0049 28.9708 16.9081 28.7679 16.6086C28.565 16.3004 28.565 15.957 28.8737 15.7456C29.8971 15.0411 30.9469 14.3719 31.9878 13.685C32.0584 13.6321 32.1731 13.6233 32.2349 13.6057Z" fill="black"/>
<path d="M1.91434 34.2387C3.4758 33.27 4.9755 32.3277 6.47521 31.3855C6.62518 31.2886 6.73986 31.2622 6.90748 31.3678C8.416 32.3189 9.93335 33.2612 11.486 34.2299C10.7008 34.723 9.951 35.1986 9.19232 35.6653C8.45129 36.132 7.70144 36.5988 6.96041 37.0567C6.82808 37.1447 6.70457 37.224 6.52814 37.1095C5.01079 36.1673 3.48462 35.2162 1.91434 34.2387Z" fill="#BCE8FE"/>
<path d="M1.33209 35.4276C2.39953 36.0881 3.39639 36.7133 4.39326 37.3386C4.86081 37.6292 5.32837 37.9286 5.81357 38.2192C5.98118 38.3161 6.06058 38.4305 6.06058 38.6331C6.05175 40.0245 6.05175 41.4159 6.06058 42.7985C6.06058 43.1243 5.96354 43.0979 5.74299 42.957C4.34915 42.0763 2.94648 41.2045 1.54382 40.3327C1.43795 40.2623 1.33209 40.2094 1.33209 40.0421C1.33209 38.5274 1.33209 37.0127 1.33209 35.4276Z" fill="#DAF2FE"/>
<path d="M12.077 35.4364C12.077 37.0215 12.077 38.5098 12.077 40.0069C12.077 40.1301 12.0594 40.227 11.9359 40.2975C10.4538 41.2133 8.98059 42.138 7.50735 43.0538C7.4897 43.0626 7.45442 43.0538 7.37502 43.045C7.37502 42.3229 7.37502 41.592 7.37502 40.8699C7.37502 40.1389 7.37502 39.408 7.37502 38.6771C7.37502 38.5186 7.3662 38.3689 7.53381 38.2632C9.0247 37.3474 10.5068 36.4139 12.077 35.4364Z" fill="#8CCFEF"/>
<path d="M43.1739 4.42949C41.6212 5.39818 40.1215 6.34045 38.6218 7.27392C38.4719 7.36198 38.3572 7.40601 38.1896 7.30033C36.681 6.34926 35.1637 5.40699 33.6022 4.42949C33.8404 4.27979 34.0433 4.1565 34.2462 4.0244C35.5254 3.22304 36.8045 2.43047 38.0837 1.6291C38.2425 1.53223 38.3748 1.40895 38.5954 1.54985C40.0951 2.50973 41.6124 3.452 43.1739 4.42949Z" fill="#BCE8FE"/>
<path d="M43.765 5.61841C43.765 7.18592 43.765 8.66537 43.765 10.136C43.765 10.321 43.6944 10.4266 43.5444 10.5235C42.1417 11.3953 40.7391 12.2671 39.3364 13.1566C39.0806 13.3239 39.0276 13.2534 39.0276 12.9804C39.0365 11.6067 39.0276 10.2329 39.0276 8.85031C39.0276 8.7006 39.0188 8.56851 39.1776 8.47164C40.6861 7.54698 42.1859 6.60471 43.765 5.61841Z" fill="#8CCFEF"/>
<path d="M37.6514 13.2886C37.2456 13.0421 36.8398 12.7867 36.434 12.5401C35.3754 11.8796 34.3256 11.2192 33.2758 10.5587C33.1611 10.4883 33.0112 10.4442 33.0112 10.2505C33.02 8.73581 33.0112 7.21232 33.0112 5.6272C33.4258 5.88258 33.7787 6.11154 34.1404 6.3317C35.2166 7.00097 36.2929 7.68786 37.3868 8.34833C37.625 8.48923 37.7308 8.63894 37.7308 8.92955C37.7132 10.2593 37.722 11.5978 37.722 12.9276C37.722 13.0333 37.7573 13.1477 37.6514 13.2886Z" fill="#DAF2FE"/>
<path d="M43.1739 34.2387C41.6124 35.2162 40.0863 36.1673 38.5601 37.1272C38.4542 37.1976 38.3572 37.2152 38.2337 37.1448C36.6987 36.1849 35.1637 35.225 33.5934 34.2387C35.1461 33.27 36.6634 32.3278 38.1719 31.3767C38.3307 31.271 38.4542 31.2886 38.6042 31.3855C40.1127 32.3278 41.6124 33.2612 43.1739 34.2387Z" fill="#FEECB2"/>
<path d="M40.9773 42.7016C40.4744 43.0274 39.9804 43.362 39.4687 43.6614C39.2129 43.8112 39.0453 43.9873 39.0541 44.2955C39.0541 42.3933 39.0453 40.4912 39.0453 38.5978C39.0453 38.4481 39.0982 38.3513 39.2217 38.272C40.7126 37.3474 42.1947 36.4227 43.6767 35.498C43.8267 35.5773 43.7738 35.6918 43.7738 35.7798C43.7738 37.136 43.7738 38.501 43.7826 39.8571C43.7826 40.1037 43.7032 40.2534 43.4915 40.3767C42.7857 40.7994 42.1065 41.2573 41.4007 41.6712C40.9773 41.9266 40.8185 42.2436 40.9773 42.7016Z" fill="#FEC645"/>
<path d="M37.6779 43.0538C37.572 43.0978 37.5103 43.0186 37.4397 42.9746C36.0459 42.1027 34.6608 41.2397 33.267 40.3679C33.1347 40.2798 33.0023 40.2182 33.0023 40.0068C33.0112 38.5186 33.0112 37.0215 33.0112 35.5421C33.17 35.4716 33.2494 35.5861 33.3464 35.6477C34.7138 36.4932 36.0812 37.3562 37.4485 38.2016C37.6073 38.2984 37.7308 38.3777 37.7308 38.5978C37.722 40.0597 37.722 41.5215 37.722 42.9922C37.7132 43.0098 37.6867 43.0274 37.6779 43.0538Z" fill="#FEDA66"/>
<path d="M17.7583 19.3298C19.3374 18.3435 20.8459 17.4012 22.3544 16.4589C22.5044 16.362 22.6103 16.3709 22.7426 16.4589C24.2511 17.41 25.7597 18.3523 27.3211 19.3298C26.9418 19.5675 26.6066 19.7877 26.2625 19.999C25.1068 20.7211 23.96 21.4433 22.8044 22.1566C22.672 22.2358 22.5662 22.3503 22.3809 22.227C20.8724 21.2759 19.3462 20.3249 17.7583 19.3298Z" fill="#BCE8FE"/>
<path d="M23.2013 28.2504C23.2013 26.6565 23.2013 25.1594 23.2013 23.6536C23.2013 23.5215 23.2543 23.4422 23.3601 23.3717C24.8598 22.4383 26.3507 21.5048 27.9122 20.5361C27.9122 21.8747 27.8681 23.134 27.9298 24.4021C27.9651 25.089 27.7446 25.4676 27.1535 25.8023C25.8391 26.5508 24.5687 27.3962 23.2013 28.2504Z" fill="#8CCFEF"/>
<path d="M21.8428 28.2152C20.3166 27.2642 18.8345 26.3307 17.3525 25.406C17.2466 25.3444 17.176 25.2827 17.176 25.133C17.176 23.6184 17.176 22.1037 17.176 20.5186C18.3493 21.2495 19.4609 21.9364 20.5724 22.6409C21.0047 22.9139 21.5958 23.1076 21.8075 23.4951C22.028 23.8914 21.8781 24.4902 21.8869 25.0009C21.8869 26.0225 21.8869 27.0528 21.8869 28.0743C21.8781 28.1096 21.8692 28.136 21.8428 28.2152Z" fill="#DAF2FE"/>
<path d="M6.05176 13.3415C5.23133 12.8307 4.4903 12.364 3.74927 11.906C3.02588 11.4569 2.31132 11.0078 1.58793 10.5587C1.4556 10.4794 1.31445 10.4178 1.31445 10.2064C1.32327 8.70056 1.32327 7.2035 1.32327 5.69763C1.49971 5.68002 1.58793 5.78569 1.69379 5.85614C3.0347 6.69274 4.3668 7.52933 5.71653 8.35712C5.95472 8.50683 6.06058 8.65653 6.05176 8.94714C6.04294 10.3738 6.05176 11.8004 6.05176 13.3415Z" fill="#FEDA66"/>
<path d="M7.37503 13.2886C7.37503 12.6546 7.37503 12.0558 7.37503 11.4569C7.37503 10.6203 7.38385 9.78375 7.36621 8.95596C7.35739 8.67416 7.43678 8.50685 7.68379 8.35714C9.13057 7.47651 10.5685 6.56947 12.077 5.6272C12.077 6.24364 12.077 6.78962 12.077 7.33561C12.077 8.26027 12.0682 9.18493 12.077 10.1008C12.077 10.2945 12.0418 10.4266 11.8653 10.5323C10.4362 11.4217 9.00706 12.3112 7.57793 13.2006C7.53382 13.2358 7.47207 13.2446 7.37503 13.2886Z" fill="#FEC645"/>
</g>
<defs>
<clipPath id="clip0_47_6453">
<rect width="45" height="45" fill="white"/>
</clipPath>
</defs>
</svg>
