<svg width="34" height="34" viewBox="0 0 34 34" fill="none" xmlns="http://www.w3.org/2000/svg">
<path d="M17 17C17.7792 17 18.4464 16.7223 19.0017 16.167C19.5571 15.6117 19.8343 14.9449 19.8333 14.1667C19.8333 13.3875 19.5557 12.7203 19.0003 12.1649C18.445 11.6096 17.7782 11.3324 17 11.3333C16.2208 11.3333 15.5536 11.611 14.9982 12.1663C14.4429 12.7217 14.1657 13.3885 14.1667 14.1667C14.1667 14.9458 14.4443 15.6131 14.9997 16.1684C15.555 16.7238 16.2218 17.001 17 17ZM17 30.6354C16.8111 30.6354 16.6222 30.6 16.4333 30.5292C16.2444 30.4583 16.0792 30.3639 15.9375 30.2458C12.4903 27.2 9.91666 24.3723 8.21666 21.7628C6.51666 19.1533 5.66666 16.7157 5.66666 14.45C5.66666 10.9083 6.80613 8.08682 9.08507 5.98543C11.364 3.88404 14.0023 2.83334 17 2.83334C19.9986 2.83334 22.6374 3.88404 24.9163 5.98543C27.1953 8.08682 28.3343 10.9083 28.3333 14.45C28.3333 16.7167 27.4833 19.1548 25.7833 21.7643C24.0833 24.3738 21.5097 27.201 18.0625 30.2458C17.9208 30.3639 17.7555 30.4583 17.5667 30.5292C17.3778 30.6 17.1889 30.6354 17 30.6354Z" fill="#049304"/>
</svg>
