<svg width="120" height="120" viewBox="0 0 120 120" fill="none" xmlns="http://www.w3.org/2000/svg">
<path d="M22.0008 87.3684H49.6008V114.968H22.0008V87.3684ZM71.2008 87.3684H98.8008V114.968H71.2008V87.3684Z" fill="#ED6D64"/>
<path d="M71.2008 81.3684H98.8008V87.3684H71.2008V81.3684Z" fill="#F1F1F2"/>
<path d="M71.2008 84.9685H98.8008V87.3685H71.2008V84.9685Z" fill="white"/>
<path d="M110.801 78.9684L107.201 75.3684L103.601 78.9684H98.8008V114.968H115.601V78.9684H110.801Z" fill="#ED6D64"/>
<path d="M108.401 83.7685H106.001V80.1685C106.001 79.8502 106.127 79.545 106.352 79.32C106.577 79.0949 106.883 78.9685 107.201 78.9685C107.519 78.9685 107.824 79.0949 108.049 79.32C108.274 79.545 108.401 79.8502 108.401 80.1685V83.7685Z" fill="#8D7E8A"/>
<path d="M107.201 78.9685C106.883 78.9685 106.577 79.0949 106.352 79.32C106.127 79.545 106.001 79.8502 106.001 80.1685V82.5685C106.001 82.2502 106.127 81.945 106.352 81.72C106.577 81.4949 106.883 81.3685 107.201 81.3685C107.519 81.3685 107.824 81.4949 108.049 81.72C108.274 81.945 108.401 82.2502 108.401 82.5685V80.1685C108.401 79.8502 108.274 79.545 108.049 79.32C107.824 79.0949 107.519 78.9685 107.201 78.9685Z" fill="black"/>
<path d="M112.001 101.755H102.401V93.3552C102.401 92.0821 102.906 90.8612 103.807 89.9611C104.707 89.0609 105.928 88.5552 107.201 88.5552C108.474 88.5552 109.695 89.0609 110.595 89.9611C111.495 90.8612 112.001 92.0821 112.001 93.3552V101.755ZM111.938 114.955H102.338V110.155C102.338 108.882 102.844 107.661 103.744 106.761C104.644 105.861 105.865 105.355 107.138 105.355C108.411 105.355 109.632 105.861 110.532 106.761C111.433 107.661 111.938 108.882 111.938 110.155V114.955Z" fill="#8D7E8A"/>
<path d="M107.201 88.5552C105.928 88.5552 104.707 89.0609 103.807 89.9611C102.906 90.8612 102.401 92.0821 102.401 93.3552V95.7552C102.401 94.4821 102.906 93.2612 103.807 92.3611C104.707 91.4609 105.928 90.9552 107.201 90.9552C108.474 90.9552 109.695 91.4609 110.595 92.3611C111.495 93.2612 112.001 94.4821 112.001 95.7552V93.3552C112.001 92.0821 111.495 90.8612 110.595 89.9611C109.695 89.0609 108.474 88.5552 107.201 88.5552ZM107.138 105.355C105.865 105.355 104.644 105.861 103.744 106.761C102.844 107.661 102.338 108.882 102.338 110.155V112.555C102.338 111.282 102.844 110.061 103.744 109.161C104.644 108.261 105.865 107.755 107.138 107.755C108.411 107.755 109.632 108.261 110.532 109.161C111.433 110.061 111.938 111.282 111.938 112.555V110.155C111.938 108.882 111.433 107.661 110.532 106.761C109.632 105.861 108.411 105.355 107.138 105.355Z" fill="black"/>
<path d="M93.4008 98.1685H90.4008V92.4685C90.4008 92.0707 90.5589 91.6892 90.8402 91.4078C91.1215 91.1265 91.503 90.9685 91.9008 90.9685C92.2986 90.9685 92.6802 91.1265 92.9615 91.4078C93.2428 91.6892 93.4008 92.0707 93.4008 92.4685V98.1685Z" fill="#8D7E8A"/>
<path d="M91.9008 90.9685C91.0728 90.9685 90.4008 91.6405 90.4008 92.4685V94.8685C90.4008 94.4707 90.5589 94.0892 90.8402 93.8078C91.1215 93.5265 91.503 93.3685 91.9008 93.3685C92.2986 93.3685 92.6802 93.5265 92.9615 93.8078C93.2428 94.0892 93.4008 94.4707 93.4008 94.8685V92.4685C93.4008 92.0707 93.2428 91.6892 92.9615 91.4078C92.6802 91.1265 92.2986 90.9685 91.9008 90.9685Z" fill="black"/>
<path d="M79.6008 98.1685H76.6008V92.4685C76.6008 92.0707 76.7588 91.6892 77.0401 91.4078C77.3214 91.1265 77.703 90.9685 78.1008 90.9685C78.4986 90.9685 78.8802 91.1265 79.1615 91.4078C79.4428 91.6892 79.6008 92.0707 79.6008 92.4685V98.1685ZM85.0008 98.1685H82.0008V92.4685C82.0008 92.0707 82.1588 91.6892 82.4401 91.4078C82.7214 91.1265 83.103 90.9685 83.5008 90.9685C83.8986 90.9685 84.2802 91.1265 84.5615 91.4078C84.8428 91.6892 85.0008 92.0707 85.0008 92.4685V98.1685Z" fill="#8D7E8A"/>
<path d="M78.1008 90.9685C77.2728 90.9685 76.6008 91.6405 76.6008 92.4685V94.8685C76.6008 94.4707 76.7588 94.0892 77.0401 93.8078C77.3214 93.5265 77.703 93.3685 78.1008 93.3685C78.4986 93.3685 78.8802 93.5265 79.1615 93.8078C79.4428 94.0892 79.6008 94.4707 79.6008 94.8685V92.4685C79.6008 92.0707 79.4428 91.6892 79.1615 91.4078C78.8802 91.1265 78.4986 90.9685 78.1008 90.9685ZM83.5008 90.9685C82.6728 90.9685 82.0008 91.6405 82.0008 92.4685V94.8685C82.0008 94.4707 82.1588 94.0892 82.4401 93.8078C82.7214 93.5265 83.103 93.3685 83.5008 93.3685C83.8986 93.3685 84.2802 93.5265 84.5615 93.8078C84.8428 94.0892 85.0008 94.4707 85.0008 94.8685V92.4685C85.0008 92.0707 84.8428 91.6892 84.5615 91.4078C84.2802 91.1265 83.8986 90.9685 83.5008 90.9685Z" fill="black"/>
<path d="M73.6008 114.601V109.561C73.6008 108.766 73.9169 108.003 74.4795 107.44C75.0421 106.877 75.8052 106.561 76.6008 106.561C77.3964 106.561 78.1595 106.877 78.7221 107.44C79.2847 108.003 79.6008 108.766 79.6008 109.561V114.601M82.0008 114.601V109.561C82.0008 108.766 82.3169 108.003 82.8795 107.44C83.4421 106.877 84.2051 106.561 85.0008 106.561C85.7964 106.561 86.5595 106.877 87.1221 107.44C87.6847 108.003 88.0008 108.766 88.0008 109.561V114.601M90.4008 114.601V109.561C90.4008 108.766 90.7169 108.003 91.2795 107.44C91.8421 106.877 92.6051 106.561 93.4008 106.561C94.1964 106.561 94.9595 106.877 95.5221 107.44C96.0847 108.003 96.4008 108.766 96.4008 109.561V114.601" fill="#8D7E8A"/>
<path d="M76.6008 106.561C75.8052 106.561 75.0421 106.877 74.4795 107.44C73.9169 108.003 73.6008 108.766 73.6008 109.561V111.961C73.6008 111.166 73.9169 110.403 74.4795 109.84C75.0421 109.277 75.8052 108.961 76.6008 108.961C77.3964 108.961 78.1595 109.277 78.7221 109.84C79.2847 110.403 79.6008 111.166 79.6008 111.961V109.561C79.6008 108.766 79.2847 108.003 78.7221 107.44C78.1595 106.877 77.3964 106.561 76.6008 106.561ZM85.0008 106.561C84.2051 106.561 83.4421 106.877 82.8795 107.44C82.3169 108.003 82.0008 108.766 82.0008 109.561V111.961C82.0008 111.166 82.3169 110.403 82.8795 109.84C83.4421 109.277 84.2051 108.961 85.0008 108.961C85.7964 108.961 86.5595 109.277 87.1221 109.84C87.6847 110.403 88.0008 111.166 88.0008 111.961V109.561C88.0008 108.766 87.6847 108.003 87.1221 107.44C86.5595 106.877 85.7964 106.561 85.0008 106.561ZM93.4008 106.561C92.6051 106.561 91.8421 106.877 91.2795 107.44C90.7169 108.003 90.4008 108.766 90.4008 109.561V111.961C90.4008 111.166 90.7169 110.403 91.2795 109.84C91.8421 109.277 92.6051 108.961 93.4008 108.961C94.1964 108.961 94.9595 109.277 95.5221 109.84C96.0847 110.403 96.4008 111.166 96.4008 111.961V109.561C96.4008 108.766 96.0847 108.003 95.5221 107.44C94.9595 106.877 94.1964 106.561 93.4008 106.561Z" fill="black"/>
<path d="M17.2008 78.9684L13.6008 75.3684L10.0008 78.9684H5.20081V114.968H22.0008V78.9684H17.2008Z" fill="#ED6D64"/>
<path d="M18.4008 101.755H8.80081V93.3552C8.80081 92.0821 9.30652 90.8612 10.2067 89.9611C11.1069 89.0609 12.3278 88.5552 13.6008 88.5552C14.8739 88.5552 16.0947 89.0609 16.9949 89.9611C17.8951 90.8612 18.4008 92.0821 18.4008 93.3552V101.755ZM27.4008 98.1684H24.4008V92.4684C24.4008 92.0706 24.5588 91.689 24.8402 91.4077C25.1215 91.1264 25.503 90.9684 25.9008 90.9684C26.2986 90.9684 26.6802 91.1264 26.9615 91.4077C27.2428 91.689 27.4008 92.0706 27.4008 92.4684V98.1684ZM30.4008 98.1684H27.4008V92.4684C27.4008 92.0706 27.5588 91.689 27.8402 91.4077C28.1215 91.1264 28.503 90.9684 28.9008 90.9684C29.2986 90.9684 29.6802 91.1264 29.9615 91.4077C30.2428 91.689 30.4008 92.0706 30.4008 92.4684V98.1684ZM35.8008 98.1684H32.8008V92.4684C32.8008 92.0706 32.9588 91.689 33.2402 91.4077C33.5215 91.1264 33.903 90.9684 34.3008 90.9684C34.6986 90.9684 35.0802 91.1264 35.3615 91.4077C35.6428 91.689 35.8008 92.0706 35.8008 92.4684V98.1684ZM38.8008 98.1684H35.8008V92.4684C35.8008 92.0706 35.9588 91.689 36.2402 91.4077C36.5215 91.1264 36.903 90.9684 37.3008 90.9684C37.6986 90.9684 38.0802 91.1264 38.3615 91.4077C38.6428 91.689 38.8008 92.0706 38.8008 92.4684V98.1684ZM44.2008 98.1684H41.2008V92.4684C41.2008 92.0706 41.3588 91.689 41.6402 91.4077C41.9215 91.1264 42.303 90.9684 42.7008 90.9684C43.0986 90.9684 43.4802 91.1264 43.7615 91.4077C44.0428 91.689 44.2008 92.0706 44.2008 92.4684V98.1684ZM47.2008 98.1684H44.2008V92.4684C44.2008 92.0706 44.3588 91.689 44.6402 91.4077C44.9215 91.1264 45.303 90.9684 45.7008 90.9684C46.0986 90.9684 46.4802 91.1264 46.7615 91.4077C47.0428 91.689 47.2008 92.0706 47.2008 92.4684V98.1684Z" fill="#8D7E8A"/>
<path d="M13.6008 88.5552C12.3278 88.5552 11.1069 89.0609 10.2067 89.9611C9.30652 90.8612 8.80081 92.0821 8.80081 93.3552V95.7552C8.80081 94.4821 9.30652 93.2612 10.2067 92.3611C11.1069 91.4609 12.3278 90.9552 13.6008 90.9552C14.8739 90.9552 16.0947 91.4609 16.9949 92.3611C17.8951 93.2612 18.4008 94.4821 18.4008 95.7552V93.3552C18.4008 92.0821 17.8951 90.8612 16.9949 89.9611C16.0947 89.0609 14.8739 88.5552 13.6008 88.5552ZM25.9008 90.9684C25.0728 90.9684 24.4008 91.6404 24.4008 92.4684V94.8684C24.4008 94.4706 24.5588 94.089 24.8402 93.8077C25.1215 93.5264 25.503 93.3684 25.9008 93.3684C26.2986 93.3684 26.6802 93.5264 26.9615 93.8077C27.2428 94.089 27.4008 94.4706 27.4008 94.8684V92.4684C27.4008 92.0706 27.2428 91.689 26.9615 91.4077C26.6802 91.1264 26.2986 90.9684 25.9008 90.9684ZM28.9008 90.9684C28.0728 90.9684 27.4008 91.6404 27.4008 92.4684V94.8684C27.4008 94.4706 27.5588 94.089 27.8402 93.8077C28.1215 93.5264 28.503 93.3684 28.9008 93.3684C29.2986 93.3684 29.6802 93.5264 29.9615 93.8077C30.2428 94.089 30.4008 94.4706 30.4008 94.8684V92.4684C30.4008 92.0706 30.2428 91.689 29.9615 91.4077C29.6802 91.1264 29.2986 90.9684 28.9008 90.9684ZM34.3008 90.9684C33.4728 90.9684 32.8008 91.6404 32.8008 92.4684V94.8684C32.8008 94.4706 32.9588 94.089 33.2402 93.8077C33.5215 93.5264 33.903 93.3684 34.3008 93.3684C34.6986 93.3684 35.0802 93.5264 35.3615 93.8077C35.6428 94.089 35.8008 94.4706 35.8008 94.8684V92.4684C35.8008 92.0706 35.6428 91.689 35.3615 91.4077C35.0802 91.1264 34.6986 90.9684 34.3008 90.9684ZM37.3008 90.9684C36.4728 90.9684 35.8008 91.6404 35.8008 92.4684V94.8684C35.8008 94.4706 35.9588 94.089 36.2402 93.8077C36.5215 93.5264 36.903 93.3684 37.3008 93.3684C37.6986 93.3684 38.0802 93.5264 38.3615 93.8077C38.6428 94.089 38.8008 94.4706 38.8008 94.8684V92.4684C38.8008 92.0706 38.6428 91.689 38.3615 91.4077C38.0802 91.1264 37.6986 90.9684 37.3008 90.9684ZM45.7008 90.9684C44.8728 90.9684 44.2008 91.6404 44.2008 92.4684V94.8684C44.2008 94.4706 44.3588 94.089 44.6402 93.8077C44.9215 93.5264 45.303 93.3684 45.7008 93.3684C46.0986 93.3684 46.4802 93.5264 46.7615 93.8077C47.0428 94.089 47.2008 94.4706 47.2008 94.8684V92.4684C47.2008 92.0706 47.0428 91.689 46.7615 91.4077C46.4802 91.1264 46.0986 90.9684 45.7008 90.9684ZM42.7008 90.9684C41.8728 90.9684 41.2008 91.6404 41.2008 92.4684V94.8684C41.2008 94.4706 41.3588 94.089 41.6402 93.8077C41.9215 93.5264 42.303 93.3684 42.7008 93.3684C43.0986 93.3684 43.4802 93.5264 43.7615 93.8077C44.0428 94.089 44.2008 94.4706 44.2008 94.8684V92.4684C44.2008 92.0706 44.0428 91.689 43.7615 91.4077C43.4802 91.1264 43.0986 90.9684 42.7008 90.9684Z" fill="black"/>
<path d="M49.6008 46.5684H71.2008V114.968H49.6008V46.5684Z" fill="#ED6D64"/>
<path d="M66.3384 114.955H54.3384V106.555C54.3384 104.964 54.9706 103.438 56.0958 102.313C57.221 101.187 58.7471 100.555 60.3384 100.555C61.9297 100.555 63.4558 101.187 64.5811 102.313C65.7063 103.438 66.3384 104.964 66.3384 106.555V114.955Z" fill="#8D7E8A"/>
<path d="M60.3384 100.555C58.7471 100.555 57.221 101.187 56.0958 102.313C54.9706 103.438 54.3384 104.964 54.3384 106.555V108.955C54.3384 107.364 54.9706 105.838 56.0958 104.713C57.221 103.587 58.7471 102.955 60.3384 102.955C61.9297 102.955 63.4558 103.587 64.5811 104.713C65.7063 105.838 66.3384 107.364 66.3384 108.955V106.555C66.3384 104.964 65.7063 103.438 64.5811 102.313C63.4558 101.187 61.9297 100.555 60.3384 100.555Z" fill="black"/>
<path d="M68.8008 46.5684H71.2008V114.968H68.8008V46.5684ZM49.6008 46.5684H52.0008V114.968H49.6008V46.5684ZM5.20081 78.9684H7.60081V114.968H5.20081V78.9684ZM19.6008 78.9684H22.0008V114.968H19.6008V78.9684ZM98.8008 78.9684H101.201V114.968H98.8008V78.9684ZM113.201 78.9684H115.601V114.968H113.201V78.9684Z" fill="#F48575"/>
<path d="M22.0008 81.3685H49.6008V87.3685H22.0008V81.3685ZM5.20081 78.9685L8.80081 68.1685H18.4008L22.0008 78.9685H17.2008L13.6008 75.3685L10.0008 78.9685H5.20081Z" fill="#F1F1F2"/>
<path d="M22.5384 84.9685H48.708V87.3685H22.5384V84.9685Z" fill="white"/>
<path d="M49.6008 46.5684H71.2008V48.9684H49.6008V46.5684Z" fill="#E0605A"/>
<path d="M56.8008 57.3684V59.7684L59.2008 60.9684V63.3684H61.6008V60.9684L64.0008 59.7684V57.3684H56.8008Z" fill="#ED6D64"/>
<path d="M59.2008 59.7684V57.3684H56.8008V59.7684L60.4008 60.9684V63.3684H61.6008V60.9684L59.2008 59.7684Z" fill="#F48575"/>
<path d="M61.6008 57.3684V59.7684L59.2008 60.9684V63.3684H60.4008V60.9684L64.0008 59.7684V57.3684H61.6008Z" fill="#F48575"/>
<path d="M59.2008 78.9685H55.6008V69.9685C55.6008 69.4911 55.7904 69.0332 56.128 68.6957C56.4656 68.3581 56.9234 68.1685 57.4008 68.1685C57.8782 68.1685 58.336 68.3581 58.6736 68.6957C59.0112 69.0332 59.2008 69.4911 59.2008 69.9685V78.9685ZM65.2008 78.9685H61.6008V69.9685C61.6008 69.4911 61.7904 69.0332 62.128 68.6957C62.4656 68.3581 62.9234 68.1685 63.4008 68.1685C63.8782 68.1685 64.336 68.3581 64.6736 68.6957C65.0112 69.0332 65.2008 69.4911 65.2008 69.9685V78.9685ZM60.4008 96.9685H55.6008V87.3685C55.6008 86.7319 55.8537 86.1215 56.3037 85.6714C56.7538 85.2213 57.3643 84.9685 58.0008 84.9685C58.6373 84.9685 59.2478 85.2213 59.6979 85.6714C60.1479 86.1215 60.4008 86.7319 60.4008 87.3685V96.9685ZM65.2008 96.9685H60.4008V87.3685C60.4008 86.7319 60.6537 86.1215 61.1037 85.6714C61.5538 85.2213 62.1643 84.9685 62.8008 84.9685C63.4373 84.9685 64.0478 85.2213 64.4979 85.6714C64.9479 86.1215 65.2008 86.7319 65.2008 87.3685V96.9685Z" fill="#8D7E8A"/>
<path d="M96.4008 87.3684H98.8008V114.968H96.4008V87.3684ZM71.2008 87.3684H73.6008V114.968H71.2008V87.3684ZM47.2008 87.3684H49.6008V114.968H47.2008V87.3684ZM22.0008 87.3684H24.4008V114.968H22.0008V87.3684Z" fill="#E0605A"/>
<path d="M76.6008 98.1685H73.6008V92.4685C73.6008 92.0707 73.7588 91.6892 74.0401 91.4078C74.3214 91.1265 74.703 90.9685 75.1008 90.9685C75.4986 90.9685 75.8801 91.1265 76.1614 91.4078C76.4428 91.6892 76.6008 92.0707 76.6008 92.4685V98.1685ZM88.0008 98.1685H85.0008V92.4685C85.0008 92.0707 85.1588 91.6892 85.4401 91.4078C85.7214 91.1265 86.103 90.9685 86.5008 90.9685C86.8986 90.9685 87.2801 91.1265 87.5614 91.4078C87.8428 91.6892 88.0008 92.0707 88.0008 92.4685V98.1685ZM96.4008 98.1685H93.4008V92.4685C93.4008 92.0707 93.5588 91.6892 93.8401 91.4078C94.1214 91.1265 94.503 90.9685 94.9008 90.9685C95.2986 90.9685 95.6801 91.1265 95.9614 91.4078C96.2428 91.6892 96.4008 92.0707 96.4008 92.4685V98.1685ZM73.6008 100.555H76.6008V103.555H73.6008V100.555ZM76.6008 100.555H79.6008V103.555H76.6008V100.555ZM82.0008 100.555H85.0008V103.555H82.0008V100.555ZM85.0008 100.555H88.0008V103.555H85.0008V100.555ZM90.4008 100.555H93.4008V103.555H90.4008V100.555ZM93.4008 100.555H96.4008V103.555H93.4008V100.555ZM24.4008 100.555H27.4008V103.555H24.4008V100.555ZM27.4008 100.555H30.4008V103.555H27.4008V100.555ZM32.8008 100.555H35.8008V103.555H32.8008V100.555ZM35.8008 100.555H38.8008V103.555H35.8008V100.555ZM41.2008 100.555H44.2008V103.555H41.2008V100.555ZM44.2008 100.555H47.2008V103.555H44.2008V100.555Z" fill="#8D7E8A"/>
<path d="M110.801 78.9684L107.201 75.3684L103.601 78.9684H98.8008V81.3684H103.601L107.201 77.7684L110.801 81.3684H115.601V78.9684H110.801ZM17.2008 78.9684L13.6008 75.3684L10.0008 78.9684H5.20081V81.3684H10.0008L13.6008 77.7684L17.2008 81.3684H22.0008V78.9684H17.2008Z" fill="#E0605A"/>
<path d="M14.8008 83.7685H12.4008V80.1685C12.4008 79.8502 12.5272 79.545 12.7523 79.32C12.9773 79.0949 13.2825 78.9685 13.6008 78.9685C13.919 78.9685 14.2243 79.0949 14.4493 79.32C14.6744 79.545 14.8008 79.8502 14.8008 80.1685V83.7685Z" fill="#8D7E8A"/>
<path d="M13.6008 78.9685C13.2825 78.9685 12.9773 79.0949 12.7523 79.32C12.5272 79.545 12.4008 79.8502 12.4008 80.1685V82.5685C12.4008 82.2502 12.5272 81.945 12.7523 81.72C12.9773 81.4949 13.2825 81.3685 13.6008 81.3685C13.919 81.3685 14.2243 81.4949 14.4493 81.72C14.6744 81.945 14.8008 82.2502 14.8008 82.5685V80.1685C14.8008 79.8502 14.6744 79.545 14.4493 79.32C14.2243 79.0949 13.919 78.9685 13.6008 78.9685Z" fill="black"/>
<path d="M54.9372 46.5684H49.6008L56.8008 23.7684H64.0008L71.2008 46.5684H66.9372" fill="#F1F1F2"/>
<path d="M51.9012 32.1685H68.7012V39.3685H51.9012V32.1685Z" fill="#F1F1F2"/>
<path d="M54.4644 48.9684V42.9684H56.7648L60.4644 33.3684L63.9648 42.9684H66.4644V48.9684" fill="#ED6D64"/>
<path d="M59.1648 42.9684L61.632 36.5676L60.4644 33.3684L56.7648 42.9684H54.4644V48.9684H56.8644V42.9684H59.1648Z" fill="#E0605A"/>
<path d="M64.0644 42.9684V48.9684H66.4644V42.9684H64.0644ZM61.5648 42.9684H63.9648L60.4644 33.3684L59.2308 36.5688L61.5648 42.9684Z" fill="#E0605A"/>
<path d="M60.4008 54.9683C62.389 54.9683 64.0008 53.3565 64.0008 51.3683C64.0008 49.3801 62.389 47.7683 60.4008 47.7683C58.4126 47.7683 56.8008 49.3801 56.8008 51.3683C56.8008 53.3565 58.4126 54.9683 60.4008 54.9683Z" fill="#ECECED"/>
<path d="M60.4008 47.7683C60.1956 47.7683 59.9964 47.7959 59.8008 47.8283C61.5024 48.1151 62.8008 49.5851 62.8008 51.3683C62.8008 53.1515 61.5024 54.6203 59.8008 54.9083C59.9964 54.9419 60.1956 54.9683 60.4008 54.9683C61.3556 54.9683 62.2713 54.589 62.9464 53.9139C63.6215 53.2388 64.0008 52.3231 64.0008 51.3683C64.0008 50.4135 63.6215 49.4979 62.9464 48.8227C62.2713 48.1476 61.3556 47.7683 60.4008 47.7683Z" fill="white"/>
<path d="M58.0008 51.3683C58.0019 50.5189 58.3038 49.6973 58.853 49.0493C59.4021 48.4013 60.1631 47.9687 61.0008 47.8283C60.8029 47.7912 60.6022 47.7712 60.4008 47.7683C59.446 47.7683 58.5304 48.1476 57.8552 48.8227C57.1801 49.4979 56.8008 50.4135 56.8008 51.3683C56.8008 52.3231 57.1801 53.2388 57.8552 53.9139C58.5304 54.589 59.446 54.9683 60.4008 54.9683C60.606 54.9683 60.8052 54.9407 61.0008 54.9083C60.1632 54.7677 59.4024 54.3351 58.8532 53.6871C58.3041 53.0391 58.0021 52.2177 58.0008 51.3683Z" fill="#D9D4D8"/>
<path d="M18.3384 114.955H8.7384V110.155C8.7384 108.882 9.24412 107.661 10.1443 106.761C11.0445 105.861 12.2654 105.355 13.5384 105.355C14.8114 105.355 16.0323 105.861 16.9325 106.761C17.8327 107.661 18.3384 108.882 18.3384 110.155V114.955Z" fill="#8D7E8A"/>
<path d="M13.5384 105.355C12.2654 105.355 11.0445 105.861 10.1443 106.761C9.24412 107.661 8.7384 108.882 8.7384 110.155V112.555C8.7384 111.282 9.24412 110.061 10.1443 109.161C11.0445 108.261 12.2654 107.755 13.5384 107.755C14.8114 107.755 16.0323 108.261 16.9325 109.161C17.8327 110.061 18.3384 111.282 18.3384 112.555V110.155C18.3384 108.882 17.8327 107.661 16.9325 106.761C16.0323 105.861 14.8114 105.355 13.5384 105.355Z" fill="black"/>
<path d="M24.4008 114.601V109.561C24.4008 108.766 24.7169 108.003 25.2795 107.44C25.8421 106.877 26.6051 106.561 27.4008 106.561C28.1964 106.561 28.9595 106.877 29.5221 107.44C30.0847 108.003 30.4008 108.766 30.4008 109.561V114.601M32.8008 114.601V109.561C32.8008 108.766 33.1169 108.003 33.6795 107.44C34.2421 106.877 35.0051 106.561 35.8008 106.561C36.5964 106.561 37.3595 106.877 37.9221 107.44C38.4847 108.003 38.8008 108.766 38.8008 109.561V114.601M41.2008 114.601V109.561C41.2008 108.766 41.5169 108.003 42.0795 107.44C42.6421 106.877 43.4051 106.561 44.2008 106.561C44.9964 106.561 45.7595 106.877 46.3221 107.44C46.8847 108.003 47.2008 108.766 47.2008 109.561V114.601" fill="#8D7E8A"/>
<path d="M27.4008 106.561C26.6051 106.561 25.8421 106.877 25.2795 107.44C24.7169 108.003 24.4008 108.766 24.4008 109.561V111.961C24.4008 111.166 24.7169 110.403 25.2795 109.84C25.8421 109.277 26.6051 108.961 27.4008 108.961C28.1964 108.961 28.9595 109.277 29.5221 109.84C30.0847 110.403 30.4008 111.166 30.4008 111.961V109.561C30.4008 109.167 30.3232 108.777 30.1724 108.413C30.0217 108.049 29.8007 107.719 29.5221 107.44C29.2435 107.161 28.9128 106.94 28.5488 106.79C28.1849 106.639 27.7948 106.561 27.4008 106.561ZM35.8008 106.561C35.0051 106.561 34.2421 106.877 33.6795 107.44C33.1169 108.003 32.8008 108.766 32.8008 109.561V111.961C32.8008 111.166 33.1169 110.403 33.6795 109.84C34.2421 109.277 35.0051 108.961 35.8008 108.961C36.5964 108.961 37.3595 109.277 37.9221 109.84C38.4847 110.403 38.8008 111.166 38.8008 111.961V109.561C38.8008 108.766 38.4847 108.003 37.9221 107.44C37.3595 106.877 36.5964 106.561 35.8008 106.561ZM44.2008 106.561C43.4051 106.561 42.6421 106.877 42.0795 107.44C41.5169 108.003 41.2008 108.766 41.2008 109.561V111.961C41.2008 111.166 41.5169 110.403 42.0795 109.84C42.6421 109.277 43.4051 108.961 44.2008 108.961C44.9964 108.961 45.7595 109.277 46.3221 109.84C46.8847 110.403 47.2008 111.166 47.2008 111.961V109.561C47.2008 108.766 46.8847 108.003 46.3221 107.44C45.7595 106.877 44.9964 106.561 44.2008 106.561Z" fill="black"/>
<path d="M98.7372 78.9685L102.337 68.1685H111.937L115.537 78.9685H110.737L107.137 75.3685L103.538 78.9685H98.7372Z" fill="#F1F1F2"/>
<path d="M110.738 76.5685L107.138 72.9685L103.538 76.5685H99.5376L98.7384 78.9685H103.538L107.138 75.3685L110.738 78.9685H115.538L114.738 76.5685H110.738Z" fill="white"/>
<path d="M102.338 68.1685L98.7384 78.9685H101.138L104.738 68.1685H102.338ZM108.338 76.5685L110.738 78.9685H113.138L109.538 75.3685L108.338 76.5685ZM111.938 68.1685H109.538L113.138 78.9685H115.538L111.938 68.1685ZM17.1384 76.5685L13.5384 72.9685L9.9384 76.5685H5.9376L5.1384 78.9685H9.9384L13.5384 75.3685L17.1384 78.9685H21.9384L21.138 76.5685H17.1384Z" fill="white"/>
<path d="M8.7384 68.1685L5.1384 78.9685H7.5384L11.1384 68.1685H8.7384ZM18.3384 68.1685H15.9384L19.5384 78.9685H21.9384L18.3384 68.1685ZM104.738 75.3685L101.138 78.9685H103.538L105.938 76.5685L104.738 75.3685Z" fill="white"/>
<path d="M47.2008 81.3684H49.6008V87.3684H47.2008V81.3684ZM22.0008 81.3684H24.4008V87.3684H22.0008V81.3684ZM96.4008 81.3684H98.8008V87.3684H96.4008V81.3684ZM71.2008 81.3684H73.6008V87.3684H71.2008V81.3684Z" fill="#D9D4D8"/>
<path d="M61.6008 72.9685V75.3685H59.2008V72.9685H61.6008Z" fill="#ECECED"/>
<path d="M57.4008 68.1685C56.9234 68.1685 56.4656 68.3581 56.128 68.6957C55.7904 69.0332 55.6008 69.4911 55.6008 69.9685V72.3685C55.6008 71.8911 55.7904 71.4332 56.128 71.0957C56.4656 70.7581 56.9234 70.5685 57.4008 70.5685C57.8782 70.5685 58.336 70.7581 58.6736 71.0957C59.0112 71.4332 59.2008 71.8911 59.2008 72.3685V69.9685C59.2008 69.4911 59.0112 69.0332 58.6736 68.6957C58.336 68.3581 57.8782 68.1685 57.4008 68.1685ZM63.4008 68.1685C62.9234 68.1685 62.4656 68.3581 62.128 68.6957C61.7904 69.0332 61.6008 69.4911 61.6008 69.9685V72.3685C61.6008 71.8911 61.7904 71.4332 62.128 71.0957C62.4656 70.7581 62.9234 70.5685 63.4008 70.5685C63.8782 70.5685 64.336 70.7581 64.6736 71.0957C65.0112 71.4332 65.2008 71.8911 65.2008 72.3685V69.9685C65.2008 69.4911 65.0112 69.0332 64.6736 68.6957C64.336 68.3581 63.8782 68.1685 63.4008 68.1685ZM58.0008 84.9685C57.3643 84.9685 56.7538 85.2213 56.3037 85.6714C55.8537 86.1215 55.6008 86.7319 55.6008 87.3685V89.7685C55.6008 89.1319 55.8537 88.5215 56.3037 88.0714C56.7538 87.6213 57.3643 87.3685 58.0008 87.3685C58.6373 87.3685 59.2478 87.6213 59.6979 88.0714C60.1479 88.5215 60.4008 89.1319 60.4008 89.7685V87.3685C60.4008 86.7319 60.1479 86.1215 59.6979 85.6714C59.2478 85.2213 58.6373 84.9685 58.0008 84.9685ZM62.8008 84.9685C62.1643 84.9685 61.5538 85.2213 61.1037 85.6714C60.6537 86.1215 60.4008 86.7319 60.4008 87.3685V89.7685C60.4008 89.1319 60.6537 88.5215 61.1037 88.0714C61.5538 87.6213 62.1643 87.3685 62.8008 87.3685C63.4373 87.3685 64.0478 87.6213 64.4979 88.0714C64.9479 88.5215 65.2008 89.1319 65.2008 89.7685V87.3685C65.2008 86.7319 64.9479 86.1215 64.4979 85.6714C64.0478 85.2213 63.4373 84.9685 62.8008 84.9685ZM75.1008 90.9685C74.2728 90.9685 73.6008 91.6405 73.6008 92.4685V94.8685C73.6008 94.4706 73.7588 94.0891 74.0401 93.8078C74.3214 93.5265 74.703 93.3685 75.1008 93.3685C75.4986 93.3685 75.8802 93.5265 76.1615 93.8078C76.4428 94.0891 76.6008 94.4706 76.6008 94.8685V92.4685C76.6008 92.0706 76.4428 91.6891 76.1615 91.4078C75.8802 91.1265 75.4986 90.9685 75.1008 90.9685ZM86.5008 90.9685C85.6728 90.9685 85.0008 91.6405 85.0008 92.4685V94.8685C85.0008 94.4706 85.1588 94.0891 85.4401 93.8078C85.7214 93.5265 86.103 93.3685 86.5008 93.3685C86.8986 93.3685 87.2801 93.5265 87.5615 93.8078C87.8428 94.0891 88.0008 94.4706 88.0008 94.8685V92.4685C88.0008 92.0706 87.8428 91.6891 87.5615 91.4078C87.2801 91.1265 86.8986 90.9685 86.5008 90.9685ZM94.9008 90.9685C94.0728 90.9685 93.4008 91.6405 93.4008 92.4685V94.8685C93.4008 94.4706 93.5588 94.0891 93.8401 93.8078C94.1214 93.5265 94.503 93.3685 94.9008 93.3685C95.2986 93.3685 95.6801 93.5265 95.9615 93.8078C96.2428 94.0891 96.4008 94.4706 96.4008 94.8685V92.4685C96.4008 92.0706 96.2428 91.6891 95.9615 91.4078C95.6801 91.1265 95.2986 90.9685 94.9008 90.9685Z" fill="black"/>
<path d="M117.938 114.218H116.138V79.4532H116.738C116.898 79.4532 117.05 79.39 117.163 79.2774C117.275 79.1649 117.338 79.0123 117.338 78.8532C117.338 78.694 117.275 78.5414 117.163 78.4289C117.05 78.3164 116.898 78.2532 116.738 78.2532H115.98L112.78 68.6532H113.149C113.308 68.6532 113.461 68.59 113.573 68.4774C113.686 68.3649 113.749 68.2123 113.749 68.0532C113.749 67.8941 113.686 67.7414 113.573 67.6289C113.461 67.5164 113.308 67.4532 113.149 67.4532H111.347V62.0532C111.347 61.8941 111.284 61.7414 111.171 61.6289C111.059 61.5164 110.906 61.4532 110.747 61.4532C110.588 61.4532 110.435 61.5164 110.323 61.6289C110.21 61.7414 110.147 61.8941 110.147 62.0532V63.8532H104.147V62.0532C104.147 61.8941 104.084 61.7414 103.971 61.6289C103.859 61.5164 103.706 61.4532 103.547 61.4532C103.388 61.4532 103.235 61.5164 103.123 61.6289C103.01 61.7414 102.947 61.8941 102.947 62.0532V67.4532H101.154C100.995 67.4532 100.842 67.5164 100.73 67.6289C100.617 67.7414 100.554 67.8941 100.554 68.0532C100.554 68.2123 100.617 68.3649 100.73 68.4774C100.842 68.59 100.995 68.6532 101.154 68.6532H101.502L98.3088 78.2184H97.5396C97.3805 78.2184 97.2279 78.2816 97.1153 78.3941C97.0028 78.5066 96.9396 78.6592 96.9396 78.8184C96.9396 78.9775 97.0028 79.1301 97.1153 79.2426C97.2279 79.3552 97.3805 79.4184 97.5396 79.4184H98.1396V80.6184H71.7396V46.4184C71.7396 46.3764 71.724 46.3404 71.7156 46.3008C71.712 46.2792 71.718 46.2576 71.7108 46.2372L69.3252 38.6844C69.3276 38.6616 69.3384 38.6412 69.3384 38.6184V29.6184C69.3384 29.4593 69.2752 29.3066 69.1627 29.1941C69.0501 29.0816 68.8975 29.0184 68.7384 29.0184C68.5793 29.0184 68.4267 29.0816 68.3141 29.1941C68.2016 29.3066 68.1384 29.4593 68.1384 29.6184V31.4184H67.0308L64.7568 24.2184H65.1384C65.2975 24.2184 65.4501 24.1552 65.5627 24.0426C65.6752 23.9301 65.7384 23.7775 65.7384 23.6184C65.7384 23.4593 65.6752 23.3066 65.5627 23.1941C65.4501 23.0816 65.2975 23.0184 65.1384 23.0184H64.5564V20.0484L64.5384 17.6484C64.5371 17.4901 64.4734 17.3387 64.361 17.2272C64.2486 17.1157 64.0967 17.0532 63.9384 17.0532H63.9336C63.8548 17.0538 63.7769 17.07 63.7043 17.1007C63.6318 17.1314 63.566 17.1761 63.5107 17.2323C63.4555 17.2885 63.4118 17.355 63.3822 17.428C63.3527 17.501 63.3378 17.5792 63.3384 17.658L63.3516 19.4532H60.9384V12.8184C60.9384 12.6593 60.8752 12.5066 60.7627 12.3941C60.6501 12.2816 60.4975 12.2184 60.3384 12.2184C60.1793 12.2184 60.0267 12.2816 59.9141 12.3941C59.8016 12.5066 59.7384 12.6593 59.7384 12.8184V19.4532H57.3516L57.3384 17.6484C57.3371 17.4901 57.2734 17.3387 57.161 17.2272C57.0486 17.1157 56.8967 17.0532 56.7384 17.0532H56.7336C56.6548 17.0538 56.5769 17.07 56.5043 17.1007C56.4318 17.1314 56.366 17.1761 56.3107 17.2323C56.2555 17.2885 56.2118 17.355 56.1822 17.428C56.1527 17.501 56.1378 17.5792 56.1384 17.658L56.1564 20.058V23.0184H55.5384C55.3793 23.0184 55.2267 23.0816 55.1141 23.1941C55.0016 23.3066 54.9384 23.4593 54.9384 23.6184C54.9384 23.7775 55.0016 23.9301 55.1141 24.0426C55.2267 24.1552 55.3793 24.2184 55.5384 24.2184H55.92L53.646 31.4184H52.5384V29.6184C52.5384 29.4593 52.4752 29.3066 52.3627 29.1941C52.2501 29.0816 52.0975 29.0184 51.9384 29.0184C51.7793 29.0184 51.6267 29.0816 51.5141 29.1941C51.4016 29.3066 51.3384 29.4593 51.3384 29.6184V38.6184C51.3384 38.6424 51.3492 38.6616 51.3516 38.6844L48.966 46.2372C48.96 46.2576 48.966 46.2792 48.9612 46.3008C48.9528 46.3404 48.9372 46.3764 48.9372 46.4184V80.6184H22.5372V79.4532H23.1708C23.3299 79.4532 23.4825 79.39 23.5951 79.2774C23.7076 79.1649 23.7708 79.0123 23.7708 78.8532C23.7708 78.694 23.7076 78.5414 23.5951 78.4289C23.4825 78.3164 23.3299 78.2532 23.1708 78.2532H22.3872L19.1868 68.6532H19.5564C19.7155 68.6532 19.8681 68.59 19.9807 68.4774C20.0932 68.3649 20.1564 68.2123 20.1564 68.0532C20.1564 67.8941 20.0932 67.7414 19.9807 67.6289C19.8681 67.5164 19.7155 67.4532 19.5564 67.4532H17.754V62.0532C17.754 61.8941 17.6908 61.7414 17.5783 61.6289C17.4657 61.5164 17.3131 61.4532 17.154 61.4532C16.9949 61.4532 16.8423 61.5164 16.7297 61.6289C16.6172 61.7414 16.554 61.8941 16.554 62.0532V63.8532H10.554V62.0532C10.554 61.8941 10.4908 61.7414 10.3783 61.6289C10.2657 61.5164 10.1131 61.4532 9.954 61.4532C9.79487 61.4532 9.64226 61.5164 9.52973 61.6289C9.41721 61.7414 9.354 61.8941 9.354 62.0532V67.4532H7.5636C7.40447 67.4532 7.25186 67.5164 7.13933 67.6289C7.02681 67.7414 6.9636 67.8941 6.9636 68.0532C6.9636 68.2123 7.02681 68.3649 7.13933 68.4774C7.25186 68.59 7.40447 68.6532 7.5636 68.6532H7.9116L4.7064 78.2532H3.9492C3.79007 78.2532 3.63746 78.3164 3.52493 78.4289C3.41241 78.5414 3.3492 78.694 3.3492 78.8532C3.3492 79.0123 3.41241 79.1649 3.52493 79.2774C3.63746 79.39 3.79007 79.4532 3.9492 79.4532H4.5384V114.218H2.7384C2.57927 114.218 2.42666 114.282 2.31413 114.394C2.20161 114.507 2.1384 114.659 2.1384 114.818C2.1384 114.978 2.20161 115.13 2.31413 115.243C2.42666 115.355 2.57927 115.418 2.7384 115.418H117.938C118.098 115.418 118.25 115.355 118.363 115.243C118.475 115.13 118.538 114.978 118.538 114.818C118.538 114.659 118.475 114.507 118.363 114.394C118.25 114.282 118.098 114.218 117.938 114.218ZM106.53 65.0532H107.73V67.4184H106.53V65.0532ZM110.147 67.4184H108.929V65.0532H110.147V67.4184ZM105.33 65.0532V67.4184H104.148V65.0532H105.33ZM111.515 68.6532L114.715 78.2532H110.999L107.574 74.796C107.518 74.7398 107.452 74.6952 107.379 74.6647C107.306 74.6342 107.228 74.6185 107.149 74.6184C107.07 74.6183 106.991 74.6339 106.918 74.6642C106.845 74.6944 106.779 74.7388 106.723 74.7948L103.282 78.2532H101.315C101.258 78.2364 101.202 78.2184 101.141 78.2184H99.576L102.769 68.6532H111.515ZM90.9384 97.4184V92.3184C90.9384 91.8228 91.3428 91.4184 91.8384 91.4184C92.334 91.4184 92.7384 91.8228 92.7384 92.3184V97.4184H90.9384ZM93.9384 92.3184C93.9384 91.8228 94.3428 91.4184 94.8384 91.4184C95.334 91.4184 95.7384 91.8228 95.7384 92.3184V97.4184H93.9384V92.3184ZM94.8384 90.2184C94.2504 90.2184 93.72 90.4632 93.3384 90.8532C93.1437 90.6523 92.9105 90.4925 92.6529 90.3835C92.3952 90.2744 92.1182 90.2183 91.8384 90.2184C90.6804 90.2184 89.7384 91.1604 89.7384 92.3184V97.4184H88.5384V92.3184C88.5384 91.1604 87.5964 90.2184 86.4384 90.2184C85.8504 90.2184 85.32 90.4632 84.9384 90.8532C84.7437 90.6523 84.5105 90.4925 84.2529 90.3835C83.9952 90.2744 83.7182 90.2183 83.4384 90.2184C82.2804 90.2184 81.3384 91.1604 81.3384 92.3184V97.4184H80.1384V92.3184C80.1384 91.1604 79.1964 90.2184 78.0384 90.2184C77.4504 90.2184 76.92 90.4632 76.5384 90.8532C76.3437 90.6523 76.1105 90.4925 75.8529 90.3835C75.5952 90.2744 75.3182 90.2183 75.0384 90.2184C73.8804 90.2184 72.9384 91.1604 72.9384 92.3184V97.4184H71.7384V87.8184H98.1384V97.4184H96.9384V92.3184C96.9384 91.1604 95.9964 90.2184 94.8384 90.2184ZM82.5384 97.4184V92.3184C82.5384 91.8228 82.9428 91.4184 83.4384 91.4184C83.934 91.4184 84.3384 91.8228 84.3384 92.3184V97.4184H82.5384ZM85.5384 92.3184C85.5384 91.8228 85.9428 91.4184 86.4384 91.4184C86.934 91.4184 87.3384 91.8228 87.3384 92.3184V97.4184H85.5384V92.3184ZM74.1384 97.4184V92.3184C74.1384 91.8228 74.5428 91.4184 75.0384 91.4184C75.534 91.4184 75.9384 91.8228 75.9384 92.3184V97.4184H74.1384ZM77.1384 92.3184C77.1384 91.8228 77.5428 91.4184 78.0384 91.4184C78.534 91.4184 78.9384 91.8228 78.9384 92.3184V97.4184H77.1384V92.3184ZM56.1384 96.2184V87.2184C56.1384 86.226 56.946 85.4184 57.9384 85.4184C58.9308 85.4184 59.7384 86.226 59.7384 87.2184V96.2184H56.1384ZM60.9384 87.2184C60.9384 86.226 61.746 85.4184 62.7384 85.4184C63.7308 85.4184 64.5384 86.226 64.5384 87.2184V96.2184H60.9384V87.2184ZM62.7384 84.2184C61.7532 84.2184 60.8856 84.702 60.3384 85.4364C60.0614 85.0599 59.7 84.7535 59.2832 84.542C58.8664 84.3305 58.4058 84.2196 57.9384 84.2184C57.1429 84.219 56.3802 84.5353 55.8178 85.0978C55.2553 85.6602 54.939 86.4229 54.9384 87.2184V96.2184H50.1384V73.4184H54.9384V78.2184H54.3384C54.1793 78.2184 54.0267 78.2816 53.9141 78.3941C53.8016 78.5066 53.7384 78.6592 53.7384 78.8184V81.2184C53.7384 81.3775 53.8016 81.5301 53.9141 81.6426C54.0267 81.7552 54.1793 81.8184 54.3384 81.8184H66.3384C66.4975 81.8184 66.6501 81.7552 66.7627 81.6426C66.8752 81.5301 66.9384 81.3775 66.9384 81.2184V78.8184C66.9384 78.6592 66.8752 78.5066 66.7627 78.3941C66.6501 78.2816 66.4975 78.2184 66.3384 78.2184H65.7384V73.4184H70.5384V96.2184H65.7384V87.2184C65.7384 85.5636 64.3932 84.2184 62.7384 84.2184ZM41.7384 97.4184V92.3184C41.7384 91.8228 42.1428 91.4184 42.6384 91.4184C43.134 91.4184 43.5384 91.8228 43.5384 92.3184V97.4184H41.7384ZM44.7384 92.3184C44.7384 91.8228 45.1428 91.4184 45.6384 91.4184C46.134 91.4184 46.5384 91.8228 46.5384 92.3184V97.4184H44.7384V92.3184ZM45.6384 90.2184C45.0504 90.2184 44.52 90.4632 44.1384 90.8532C43.9437 90.6523 43.7105 90.4925 43.4528 90.3835C43.1952 90.2744 42.9182 90.2183 42.6384 90.2184C41.4804 90.2184 40.5384 91.1604 40.5384 92.3184V97.4184H39.3384V92.3184C39.3384 91.1604 38.3964 90.2184 37.2384 90.2184C36.6504 90.2184 36.12 90.4632 35.7384 90.8532C35.5437 90.6523 35.3105 90.4925 35.0528 90.3835C34.7952 90.2744 34.5182 90.2183 34.2384 90.2184C33.0804 90.2184 32.1384 91.1604 32.1384 92.3184V97.4184H30.9384V92.3184C30.9384 91.1604 29.9964 90.2184 28.8384 90.2184C28.2504 90.2184 27.72 90.4632 27.3384 90.8532C27.1437 90.6523 26.9105 90.4925 26.6528 90.3835C26.3952 90.2744 26.1182 90.2183 25.8384 90.2184C24.6804 90.2184 23.7384 91.1604 23.7384 92.3184V97.4184H22.5384V87.8184H48.9384V97.4184H47.7384V92.3184C47.7384 91.1604 46.7964 90.2184 45.6384 90.2184ZM33.3384 97.4184V92.3184C33.3384 91.8228 33.7428 91.4184 34.2384 91.4184C34.734 91.4184 35.1384 91.8228 35.1384 92.3184V97.4184H33.3384ZM36.3384 92.3184C36.3384 91.8228 36.7428 91.4184 37.2384 91.4184C37.734 91.4184 38.1384 91.8228 38.1384 92.3184V97.4184H36.3384V92.3184ZM24.9384 97.4184V92.3184C24.9384 91.8228 25.3428 91.4184 25.8384 91.4184C26.334 91.4184 26.7384 91.8228 26.7384 92.3184V97.4184H24.9384ZM27.9384 92.3184C27.9384 91.8228 28.3428 91.4184 28.8384 91.4184C29.334 91.4184 29.7384 91.8228 29.7384 92.3184V97.4184H27.9384V92.3184ZM50.1384 47.0184H54.3384C54.4975 47.0184 54.6501 46.9552 54.7627 46.8426C54.8752 46.7301 54.9384 46.5775 54.9384 46.4184V43.4184H56.6388L56.6484 43.416C56.6784 43.4148 56.706 43.404 56.7348 43.398C56.836 43.3827 56.9314 43.3416 57.012 43.2785C57.0925 43.2154 57.1554 43.1325 57.1944 43.038L57.198 43.032L60.3228 34.9248L63.2736 43.0212C63.2748 43.0248 63.2784 43.026 63.2808 43.0296C63.3297 43.1523 63.4184 43.2551 63.5328 43.3212C63.6236 43.3806 63.7291 43.4134 63.8376 43.416H65.7384V46.41L65.7372 46.416C65.7372 46.5751 65.8004 46.7277 65.9129 46.8402C66.0255 46.9528 66.1781 47.016 66.3372 47.016H70.5384V47.1264C70.3462 47.0553 70.1433 47.018 69.9384 47.016C69.4764 47.016 69.0576 47.196 68.7384 47.484C68.4105 47.1842 67.9827 47.0174 67.5384 47.016C66.546 47.016 65.7384 47.8236 65.7384 48.816V50.016C65.7384 50.1751 65.8016 50.3277 65.9141 50.4402C66.0267 50.5528 66.1793 50.616 66.3384 50.616C66.4975 50.616 66.6501 50.5528 66.7627 50.4402C66.8752 50.3277 66.9384 50.1751 66.9384 50.016V48.816C66.9384 48.486 67.2084 48.216 67.5384 48.216C67.8684 48.216 68.1384 48.486 68.1384 48.816V50.016C68.1384 50.1751 68.2016 50.3277 68.3141 50.4402C68.4267 50.5528 68.5793 50.616 68.7384 50.616C68.8975 50.616 69.0501 50.5528 69.1627 50.4402C69.2752 50.3277 69.3384 50.1751 69.3384 50.016V48.816C69.3384 48.486 69.6084 48.216 69.9384 48.216C70.2684 48.216 70.5384 48.486 70.5384 48.816V56.616H50.1384V48.816C50.1384 48.486 50.4084 48.216 50.7384 48.216C51.0684 48.216 51.3384 48.486 51.3384 48.816V50.016C51.3384 50.1751 51.4016 50.3277 51.5141 50.4402C51.6267 50.5528 51.7793 50.616 51.9384 50.616C52.0975 50.616 52.2501 50.5528 52.3627 50.4402C52.4752 50.3277 52.5384 50.1751 52.5384 50.016V48.816C52.5384 48.486 52.8084 48.216 53.1384 48.216C53.4684 48.216 53.7384 48.486 53.7384 48.816V50.016C53.7384 50.1751 53.8016 50.3277 53.9141 50.4402C54.0267 50.5528 54.1793 50.616 54.3384 50.616C54.4975 50.616 54.6501 50.5528 54.7627 50.4402C54.8752 50.3277 54.9384 50.1751 54.9384 50.016V48.816C54.9384 47.8236 54.1308 47.016 53.1384 47.016C52.6764 47.016 52.2576 47.196 51.9384 47.484C51.6105 47.1842 51.1827 47.0174 50.7384 47.016C50.5272 47.016 50.3268 47.0592 50.1384 47.1264V47.0184ZM62.1384 80.6184V79.4184H63.3384V80.6184H62.1384ZM59.7384 80.6184V79.4184H60.9384V80.6184H59.7384ZM57.3384 80.6184V79.4184H58.5384V80.6184H57.3384ZM54.9384 80.6184V79.4184H56.1384V80.6184H54.9384ZM56.1384 69.8184C56.1384 69.5001 56.2648 69.1949 56.4899 68.9699C56.7149 68.7448 57.0201 68.6184 57.3384 68.6184C57.6567 68.6184 57.9619 68.7448 58.1869 68.9699C58.412 69.1949 58.5384 69.5001 58.5384 69.8184V78.2184H56.1384V69.8184ZM60.9384 78.2184H59.7384V75.8184H60.9384V78.2184ZM60.9384 74.6184H59.7384V73.4184H60.9384V74.6184ZM64.5384 79.4184H65.7384V80.6184H64.5384V79.4184ZM62.1384 78.2184V69.8184C62.1384 69.5001 62.2648 69.1949 62.4899 68.9699C62.7149 68.7448 63.0201 68.6184 63.3384 68.6184C63.6567 68.6184 63.9619 68.7448 64.1869 68.9699C64.412 69.1949 64.5384 69.5001 64.5384 69.8184V78.2184H62.1384ZM63.3384 67.4184C62.0148 67.4184 60.9384 68.4948 60.9384 69.8184V72.2184H59.7384V69.8184C59.7384 68.4948 58.662 67.4184 57.3384 67.4184C56.0148 67.4184 54.9384 68.4948 54.9384 69.8184V72.2184H50.1384V57.8184H56.1384V59.6184C56.1384 59.7297 56.1694 59.8389 56.2279 59.9336C56.2864 60.0283 56.3701 60.1049 56.4696 60.1548L58.5384 61.188V63.2172C58.5384 63.3763 58.6016 63.5289 58.7141 63.6414C58.8267 63.754 58.9793 63.8172 59.1384 63.8172H59.7384V66.2172C59.5793 66.2172 59.4267 66.2804 59.3141 66.3929C59.2016 66.5054 59.1384 66.6581 59.1384 66.8172C59.1384 66.9763 59.2016 67.1289 59.3141 67.2414C59.4267 67.354 59.5793 67.4172 59.7384 67.4172H60.9384C61.0975 67.4172 61.2501 67.354 61.3627 67.2414C61.4752 67.1289 61.5384 66.9763 61.5384 66.8172C61.5384 66.6581 61.4752 66.5054 61.3627 66.3929C61.2501 66.2804 61.0975 66.2172 60.9384 66.2172V63.8172H61.5384C61.6975 63.8172 61.8501 63.754 61.9627 63.6414C62.0752 63.5289 62.1384 63.3763 62.1384 63.2172V61.188L64.2072 60.1548C64.3067 60.1049 64.3904 60.0283 64.4489 59.9336C64.5074 59.8389 64.5384 59.7297 64.5384 59.6184V57.8184H70.5384V72.2184H65.7384V69.8184C65.7384 68.4948 64.662 67.4184 63.3384 67.4184ZM59.7384 62.6184V60.8184C59.7384 60.707 59.7074 60.5979 59.6489 60.5032C59.5904 60.4084 59.5067 60.3319 59.4072 60.282L57.3384 59.2488V57.8196H63.3384V59.2488L61.2696 60.282C61.1701 60.3319 61.0864 60.4084 61.0279 60.5032C60.9694 60.5979 60.9384 60.707 60.9384 60.8184V62.6184H59.7384ZM98.1384 81.8184V86.6184H71.7384V81.8184H98.1384ZM68.1384 32.6184V34.9272L67.4088 32.6184H68.1384ZM57.3564 20.6532H58.5384V23.0184H57.3564V20.6532ZM60.9384 20.6532V23.0184H59.7384V20.6532H60.9384ZM63.3564 23.0184H62.1384V20.6532H63.3564V23.0184ZM52.5384 34.4184V32.6184H53.268L52.5384 34.9272V34.4184ZM57.1668 24.2532H63.51L70.32 45.8184H66.9396V42.8184C66.9396 42.6593 66.8764 42.5066 66.7639 42.3941C66.6513 42.2816 66.4987 42.2184 66.3396 42.2184H64.2588L60.9036 33.0132C60.8618 32.8984 60.786 32.7991 60.6863 32.7286C60.5866 32.658 60.4677 32.6196 60.3456 32.6184H60.3396C60.2183 32.6183 60.0999 32.6549 59.9998 32.7234C59.8998 32.792 59.8229 32.8892 59.7792 33.0024L56.2272 42.2184H54.3396C54.1805 42.2184 54.0279 42.2816 53.9153 42.3941C53.8028 42.5066 53.7396 42.6593 53.7396 42.8184V45.8184H50.3592L57.1668 24.2532ZM48.9384 81.8184V86.6184H22.5384V81.8184H48.9384ZM12.9384 65.0532H14.1384V67.4184H12.9384V65.0532ZM16.5564 67.4184H15.3384V65.0532H16.5564V67.4184ZM11.7384 65.0532V67.4184H10.5564V65.0532H11.7384ZM9.1776 68.6532H17.9244L21.1248 78.2532H17.4072L13.9824 74.796C13.9268 74.7398 13.8607 74.6952 13.7878 74.6647C13.7148 74.6342 13.6366 74.6185 13.5576 74.6184H13.5564C13.4775 74.6183 13.3993 74.6339 13.3264 74.6642C13.2535 74.6944 13.1873 74.7388 13.1316 74.7948L9.69 78.2532H5.9724L9.1776 68.6532ZM5.7384 83.6184V82.4184C5.7384 82.0884 6.0084 81.8184 6.3384 81.8184C6.6684 81.8184 6.9384 82.0884 6.9384 82.4184V83.6184C6.9384 83.7775 7.00161 83.9301 7.11413 84.0426C7.22666 84.1552 7.37927 84.2184 7.5384 84.2184C7.69753 84.2184 7.85014 84.1552 7.96266 84.0426C8.07518 83.9301 8.1384 83.7775 8.1384 83.6184V82.4184C8.1384 82.0884 8.4084 81.8184 8.7384 81.8184C9.0684 81.8184 9.3384 82.0884 9.3384 82.4184V83.6184C9.3384 83.7775 9.40161 83.9301 9.51413 84.0426C9.62666 84.1552 9.77927 84.2184 9.9384 84.2184C10.0975 84.2184 10.2501 84.1552 10.3627 84.0426C10.4752 83.9301 10.5384 83.7775 10.5384 83.6184V82.4184C10.5384 81.426 9.7308 80.6184 8.7384 80.6184C8.2764 80.6184 7.8576 80.7984 7.5384 81.0864C7.21049 80.7866 6.78267 80.6198 6.3384 80.6184C6.1272 80.6184 5.9268 80.6616 5.7384 80.7288V79.4532H9.9384C10.0173 79.4532 10.0955 79.4377 10.1684 79.4074C10.2413 79.3771 10.3075 79.3327 10.3632 79.2768L13.554 76.0704L16.7292 79.2756C16.785 79.3318 16.8513 79.3765 16.9244 79.407C16.9976 79.4375 17.076 79.4532 17.1552 79.4532H21.3384V80.7288C21.1462 80.6577 20.9433 80.6204 20.7384 80.6184C20.2764 80.6184 19.8576 80.7984 19.5384 81.0864C19.2105 80.7866 18.7827 80.6198 18.3384 80.6184C17.346 80.6184 16.5384 81.426 16.5384 82.4184V83.6184C16.5384 83.7775 16.6016 83.9301 16.7141 84.0426C16.8267 84.1552 16.9793 84.2184 17.1384 84.2184C17.2975 84.2184 17.4501 84.1552 17.5627 84.0426C17.6752 83.9301 17.7384 83.7775 17.7384 83.6184V82.4184C17.7384 82.0884 18.0084 81.8184 18.3384 81.8184C18.6684 81.8184 18.9384 82.0884 18.9384 82.4184V83.6184C18.9384 83.7775 19.0016 83.9301 19.1141 84.0426C19.2267 84.1552 19.3793 84.2184 19.5384 84.2184C19.6975 84.2184 19.8501 84.1552 19.9627 84.0426C20.0752 83.9301 20.1384 83.7775 20.1384 83.6184V82.4184C20.1384 82.0884 20.4084 81.8184 20.7384 81.8184C21.0684 81.8184 21.3384 82.0884 21.3384 82.4184V114.218H18.876V110.005C18.876 107.028 16.4532 104.605 13.476 104.605C10.4988 104.605 8.076 107.028 8.076 110.005V114.218H5.7384V83.6184ZM9.276 114.205V110.005C9.276 107.689 11.16 105.805 13.476 105.805C15.792 105.805 17.676 107.689 17.676 110.005V114.205H9.276ZM22.5384 98.6184H48.9384V114.218H47.7384V109.411C47.7384 107.426 46.1232 105.811 44.1384 105.811C42.1536 105.811 40.5384 107.426 40.5384 109.411V114.218H39.3384V109.411C39.3384 107.426 37.7232 105.811 35.7384 105.811C33.7536 105.811 32.1384 107.426 32.1384 109.411V114.218H30.9384V109.411C30.9384 107.426 29.3232 105.811 27.3384 105.811C25.3536 105.811 23.7384 107.426 23.7384 109.411V114.218H22.5384V98.6184ZM46.5384 114.218H41.7384V109.411C41.7384 108.088 42.8148 107.011 44.1384 107.011C45.462 107.011 46.5384 108.088 46.5384 109.411V114.218ZM38.1384 114.218H33.3384V109.411C33.3384 108.088 34.4148 107.011 35.7384 107.011C37.062 107.011 38.1384 108.088 38.1384 109.411V114.218ZM29.7384 114.218H24.9384V109.411C24.9384 108.088 26.0148 107.011 27.3384 107.011C28.662 107.011 29.7384 108.088 29.7384 109.411V114.218ZM50.1384 97.4184H70.5384V114.218H66.876V106.405C66.876 102.767 63.9144 99.8052 60.276 99.8052C56.6376 99.8052 53.676 102.767 53.676 106.405V114.218H50.1396L50.1384 97.4184ZM54.876 114.205V106.405C54.876 103.428 57.2988 101.005 60.276 101.005C63.2532 101.005 65.676 103.428 65.676 106.405V114.205H54.876ZM71.7384 98.6184H98.1384V114.218H96.9384V109.411C96.9384 107.426 95.3232 105.811 93.3384 105.811C91.3536 105.811 89.7384 107.426 89.7384 109.411V114.218H88.5384V109.411C88.5384 107.426 86.9232 105.811 84.9384 105.811C82.9536 105.811 81.3384 107.426 81.3384 109.411V114.218H80.1384V109.411C80.1384 107.426 78.5232 105.811 76.5384 105.811C74.5536 105.811 72.9384 107.426 72.9384 109.411V114.218H71.7384V98.6184ZM95.7384 114.218H90.9384V109.411C90.9384 108.088 92.0148 107.011 93.3384 107.011C94.662 107.011 95.7384 108.088 95.7384 109.411V114.218ZM87.3384 114.218H82.5384V109.411C82.5384 108.088 83.6148 107.011 84.9384 107.011C86.262 107.011 87.3384 108.088 87.3384 109.411V114.218ZM78.9384 114.218H74.1384V109.411C74.1384 108.088 75.2148 107.011 76.5384 107.011C77.862 107.011 78.9384 108.088 78.9384 109.411V114.218ZM102.876 114.205V110.005C102.876 107.689 104.76 105.805 107.076 105.805C109.392 105.805 111.276 107.689 111.276 110.005V114.205H102.876ZM112.476 114.218V110.005C112.476 107.028 110.053 104.605 107.076 104.605C104.099 104.605 101.676 107.028 101.676 110.005V114.218H99.3396V82.4184C99.3396 82.0884 99.6096 81.8184 99.9396 81.8184C100.27 81.8184 100.54 82.0884 100.54 82.4184V83.6184C100.54 83.7775 100.603 83.9301 100.715 84.0426C100.828 84.1552 100.98 84.2184 101.14 84.2184C101.299 84.2184 101.451 84.1552 101.564 84.0426C101.676 83.9301 101.74 83.7775 101.74 83.6184V82.4184C101.74 82.0884 102.01 81.8184 102.34 81.8184C102.67 81.8184 102.94 82.0884 102.94 82.4184V83.6184C102.94 83.7775 103.003 83.9301 103.115 84.0426C103.228 84.1552 103.38 84.2184 103.54 84.2184C103.699 84.2184 103.851 84.1552 103.964 84.0426C104.076 83.9301 104.14 83.7775 104.14 83.6184V82.4184C104.14 81.426 103.332 80.6184 102.34 80.6184C101.878 80.6184 101.459 80.7984 101.14 81.0864C100.812 80.7866 100.384 80.6198 99.9396 80.6184C99.7284 80.6184 99.528 80.6616 99.3396 80.7288V79.4532H103.53C103.609 79.4532 103.687 79.4377 103.76 79.4074C103.833 79.3771 103.899 79.3327 103.955 79.2768L107.146 76.0704L110.321 79.2756C110.377 79.3318 110.443 79.3765 110.516 79.407C110.589 79.4375 110.668 79.4532 110.747 79.4532H114.938V80.7288C114.746 80.6577 114.543 80.6204 114.338 80.6184C113.876 80.6184 113.458 80.7984 113.138 81.0864C112.81 80.7866 112.383 80.6198 111.938 80.6184C110.946 80.6184 110.138 81.426 110.138 82.4184V83.6184C110.138 83.7775 110.202 83.9301 110.314 84.0426C110.427 84.1552 110.579 84.2184 110.738 84.2184C110.898 84.2184 111.05 84.1552 111.163 84.0426C111.275 83.9301 111.338 83.7775 111.338 83.6184V82.4184C111.338 82.0884 111.608 81.8184 111.938 81.8184C112.268 81.8184 112.538 82.0884 112.538 82.4184V83.6184C112.538 83.7775 112.602 83.9301 112.714 84.0426C112.827 84.1552 112.979 84.2184 113.138 84.2184C113.298 84.2184 113.45 84.1552 113.563 84.0426C113.675 83.9301 113.738 83.7775 113.738 83.6184V82.4184C113.738 82.0884 114.008 81.8184 114.338 81.8184C114.668 81.8184 114.938 82.0884 114.938 82.4184V114.218H112.476Z" fill="black"/>
<path d="M60.3384 55.4183C62.6544 55.4183 64.5384 53.5343 64.5384 51.2183C64.5384 48.9023 62.6544 47.0183 60.3384 47.0183C58.0224 47.0183 56.1384 48.9023 56.1384 51.2183C56.1384 53.5343 58.0236 55.4183 60.3384 55.4183ZM60.3384 48.2183C61.9932 48.2183 63.3384 49.5635 63.3384 51.2183C63.3384 52.8731 61.9932 54.2183 60.3384 54.2183C58.6836 54.2183 57.3384 52.8731 57.3384 51.2183C57.3384 49.5635 58.6836 48.2183 60.3384 48.2183Z" fill="black"/>
<path d="M60.3384 51.8185C60.3492 51.8185 60.3588 51.8125 60.3696 51.8125C60.3804 51.8125 60.39 51.8185 60.4008 51.8185H62.1372C62.2963 51.8185 62.4489 51.7552 62.5615 51.6427C62.674 51.5302 62.7372 51.3776 62.7372 51.2185C62.7372 51.0593 62.674 50.9067 62.5615 50.7942C62.4489 50.6817 62.2963 50.6185 62.1372 50.6185H60.9372V50.0185C60.9372 49.8593 60.874 49.7067 60.7615 49.5942C60.6489 49.4817 60.4963 49.4185 60.3372 49.4185C60.1781 49.4185 60.0255 49.4817 59.9129 49.5942C59.8004 49.7067 59.7372 49.8593 59.7372 50.0185V51.2185C59.7384 51.5497 60.0072 51.8185 60.3384 51.8185ZM112.31 91.7353C111.666 89.4745 109.604 87.8053 107.14 87.8053C104.676 87.8053 102.616 89.4733 101.97 91.7329C101.931 91.8024 101.908 91.8793 101.9 91.9585C101.804 92.3605 101.741 92.7745 101.741 93.2065V101.606C101.741 101.766 101.804 101.918 101.917 102.031C102.029 102.143 102.182 102.206 102.341 102.206H111.941C112.1 102.206 112.253 102.143 112.365 102.031C112.478 101.918 112.541 101.766 112.541 101.606V93.2065C112.536 92.7819 112.482 92.3593 112.378 91.9477C112.368 91.8734 112.345 91.8014 112.31 91.7353ZM102.938 93.2053C102.938 93.0037 102.971 92.8117 102.998 92.6185H104.137V93.8185H102.938V93.2053ZM105.337 92.6185H106.537V93.8185H105.337V92.6185ZM106.537 95.0185V101.005H105.337V95.0185H106.537ZM107.737 95.0185H108.937V101.005H107.737V95.0185ZM107.737 93.8185V92.6185H108.937V93.8185H107.737ZM110.137 92.6185H111.278C111.306 92.8117 111.338 93.0049 111.338 93.2053V93.8185H110.137V92.6185ZM107.138 89.0053C108.812 89.0053 110.25 89.9977 110.924 91.4185H103.352C103.69 90.6988 104.225 90.0898 104.895 89.6626C105.566 89.2353 106.344 89.0074 107.138 89.0053ZM102.938 95.0185H104.137V101.005H102.938V95.0185ZM110.137 101.005V95.0185H111.338V101.005H110.137ZM8.73839 102.205H18.3384C18.4975 102.205 18.6501 102.142 18.7627 102.03C18.8752 101.917 18.9384 101.764 18.9384 101.605V93.2053C18.9339 92.7807 18.8791 92.3581 18.7752 91.9465C18.7671 91.8724 18.7447 91.8007 18.7092 91.7353C18.0648 89.4745 16.0032 87.8053 13.5384 87.8053C11.0748 87.8053 9.01439 89.4733 8.36879 91.7329C8.33026 91.8024 8.30656 91.8793 8.29919 91.9585C8.20319 92.3605 8.13959 92.7745 8.13959 93.2065V101.606C8.13943 101.685 8.15481 101.763 8.18485 101.836C8.21488 101.909 8.25899 101.975 8.31462 102.03C8.37026 102.086 8.43633 102.13 8.50905 102.16C8.58177 102.19 8.65971 102.205 8.73839 102.205ZM17.7384 93.2053V93.8185H16.5372V92.6185H17.6784C17.7072 92.8117 17.7384 93.0037 17.7384 93.2053ZM15.3372 93.8185H14.1372V92.6185H15.3372V93.8185ZM14.1372 95.0185H15.3372V101.005H14.1372V95.0185ZM12.9372 101.005H11.7372V95.0185H12.9372V101.005ZM12.9372 93.8185H11.7372V92.6185H12.9372V93.8185ZM10.5372 93.8185H9.33839V93.2053C9.33839 93.0037 9.37079 92.8117 9.39839 92.6185H10.5372V93.8185ZM9.33839 95.0185H10.5372V101.005H9.33839V95.0185ZM16.5372 101.005V95.0185H17.7384V101.005H16.5372ZM13.5384 89.0053C15.2124 89.0053 16.65 89.9977 17.3244 91.4185H9.75239C10.0899 90.6988 10.625 90.0898 11.2953 89.6626C11.9656 89.2353 12.7435 89.0074 13.5384 89.0053ZM73.5384 104.005H79.5384C79.6975 104.005 79.8501 103.942 79.9627 103.83C80.0752 103.717 80.1384 103.564 80.1384 103.405V100.405C80.1384 100.246 80.0752 100.094 79.9627 99.981C79.8501 99.8685 79.6975 99.8053 79.5384 99.8053H73.5384C73.3793 99.8053 73.2267 99.8685 73.1141 99.981C73.0016 100.094 72.9384 100.246 72.9384 100.405V103.405C72.9384 103.564 73.0016 103.717 73.1141 103.83C73.2267 103.942 73.3793 104.005 73.5384 104.005ZM78.9384 102.805H77.1384V101.005H78.9384V102.805ZM74.1384 101.005H75.9384V102.805H74.1384V101.005ZM81.9384 104.005H87.9384C88.0975 104.005 88.2501 103.942 88.3627 103.83C88.4752 103.717 88.5384 103.564 88.5384 103.405V100.405C88.5384 100.246 88.4752 100.094 88.3627 99.981C88.2501 99.8685 88.0975 99.8053 87.9384 99.8053H81.9384C81.7793 99.8053 81.6266 99.8685 81.5141 99.981C81.4016 100.094 81.3384 100.246 81.3384 100.405V103.405C81.3384 103.564 81.4016 103.717 81.5141 103.83C81.6266 103.942 81.7793 104.005 81.9384 104.005ZM87.3384 102.805H85.5384V101.005H87.3384V102.805ZM82.5384 101.005H84.3384V102.805H82.5384V101.005ZM90.3384 104.005H96.3384C96.4975 104.005 96.6501 103.942 96.7627 103.83C96.8752 103.717 96.9384 103.564 96.9384 103.405V100.405C96.9384 100.246 96.8752 100.094 96.7627 99.981C96.6501 99.8685 96.4975 99.8053 96.3384 99.8053H90.3384C90.1793 99.8053 90.0266 99.8685 89.9141 99.981C89.8016 100.094 89.7384 100.246 89.7384 100.405V103.405C89.7384 103.564 89.8016 103.717 89.9141 103.83C90.0266 103.942 90.1793 104.005 90.3384 104.005ZM95.7384 102.805H93.9384V101.005H95.7384V102.805ZM90.9384 101.005H92.7384V102.805H90.9384V101.005ZM12.3384 84.2185H14.7384C14.8975 84.2185 15.0501 84.1552 15.1627 84.0427C15.2752 83.9302 15.3384 83.7776 15.3384 83.6185V80.0185C15.3384 79.0261 14.5308 78.2185 13.5384 78.2185C12.546 78.2185 11.7384 79.0261 11.7384 80.0185V83.6185C11.7384 83.7776 11.8016 83.9302 11.9141 84.0427C12.0266 84.1552 12.1793 84.2185 12.3384 84.2185ZM12.9384 80.0185C12.9384 79.6885 13.2084 79.4185 13.5384 79.4185C13.8684 79.4185 14.1384 79.6885 14.1384 80.0185V83.0185H12.9384V80.0185ZM105.938 84.2185H108.338C108.498 84.2185 108.65 84.1552 108.763 84.0427C108.875 83.9302 108.938 83.7776 108.938 83.6185V80.0185C108.938 79.0261 108.131 78.2185 107.138 78.2185C106.146 78.2185 105.338 79.0261 105.338 80.0185V83.6185C105.338 83.7776 105.402 83.9302 105.514 84.0427C105.627 84.1552 105.779 84.2185 105.938 84.2185ZM106.538 80.0185C106.538 79.6885 106.808 79.4185 107.138 79.4185C107.468 79.4185 107.738 79.6885 107.738 80.0185V83.0185H106.538V80.0185ZM24.3384 104.005H30.3384C30.4975 104.005 30.6501 103.942 30.7627 103.83C30.8752 103.717 30.9384 103.564 30.9384 103.405V100.405C30.9384 100.246 30.8752 100.094 30.7627 99.981C30.6501 99.8685 30.4975 99.8053 30.3384 99.8053H24.3384C24.1793 99.8053 24.0266 99.8685 23.9141 99.981C23.8016 100.094 23.7384 100.246 23.7384 100.405V103.405C23.7384 103.564 23.8016 103.717 23.9141 103.83C24.0266 103.942 24.1793 104.005 24.3384 104.005ZM29.7384 102.805H27.9384V101.005H29.7384V102.805ZM24.9384 101.005H26.7384V102.805H24.9384V101.005ZM32.7384 104.005H38.7384C38.8975 104.005 39.0501 103.942 39.1627 103.83C39.2752 103.717 39.3384 103.564 39.3384 103.405V100.405C39.3384 100.246 39.2752 100.094 39.1627 99.981C39.0501 99.8685 38.8975 99.8053 38.7384 99.8053H32.7384C32.5793 99.8053 32.4266 99.8685 32.3141 99.981C32.2016 100.094 32.1384 100.246 32.1384 100.405V103.405C32.1384 103.564 32.2016 103.717 32.3141 103.83C32.4266 103.942 32.5793 104.005 32.7384 104.005ZM38.1384 102.805H36.3384V101.005H38.1384V102.805ZM33.3384 101.005H35.1384V102.805H33.3384V101.005ZM41.1384 104.005H47.1384C47.2975 104.005 47.4501 103.942 47.5627 103.83C47.6752 103.717 47.7384 103.564 47.7384 103.405V100.405C47.7384 100.246 47.6752 100.094 47.5627 99.981C47.4501 99.8685 47.2975 99.8053 47.1384 99.8053H41.1384C40.9793 99.8053 40.8266 99.8685 40.7141 99.981C40.6016 100.094 40.5384 100.246 40.5384 100.405V103.405C40.5384 103.564 40.6016 103.717 40.7141 103.83C40.8266 103.942 40.9793 104.005 41.1384 104.005ZM46.5384 102.805H44.7384V101.005H46.5384V102.805ZM41.7384 101.005H43.5384V102.805H41.7384V101.005Z" fill="black"/>
</svg>
