<svg width="46" height="47" viewBox="0 0 46 47" fill="none" xmlns="http://www.w3.org/2000/svg">
<g clip-path="url(#clip0_47_6574)">
<path d="M13.1643 47C12.8634 46.8088 12.7882 46.5029 12.7882 46.1587C12.7882 44.5143 12.7882 42.8698 12.7882 41.1872C12.7882 40.8812 12.7506 40.7283 12.3745 40.7283C11.2837 40.7665 11.2461 40.69 11.2461 39.581C11.2461 39.1986 11.359 38.7014 11.1709 38.472C10.9828 38.2043 10.4563 38.3955 10.0801 38.3955C8.98937 38.3572 8.38757 37.7836 8.38757 36.6746C8.38757 36.2921 8.53802 35.7567 8.34996 35.5273C8.12428 35.2596 7.59771 35.4508 7.18397 35.4508C7.03352 35.4508 6.92069 35.4508 6.77024 35.4508C6.28127 35.4508 6.13083 35.2596 6.09321 34.8007C6.0556 33.9211 6.0556 33.9211 5.19051 33.9211C3.68602 33.9211 2.18152 33.9211 0.677023 33.9211C0.188062 33.9211 -0.0376129 33.7299 -0.0376129 33.3857C-0.0376129 33.0415 0.225674 32.8503 0.714636 32.8503C2.36958 32.8503 4.06214 32.8503 5.71709 32.8503C6.0556 32.8503 6.16844 32.7738 6.09321 32.4297C6.09321 32.3532 6.09321 32.2767 6.09321 32.2002C6.09321 31.3971 6.20605 31.2824 6.9583 31.2824C7.2592 31.2824 7.5601 31.2441 7.861 31.2824C8.23712 31.3206 8.42518 31.2059 8.38757 30.7852C8.34996 30.2881 8.34996 29.7909 8.38757 29.2555C8.38757 28.9496 8.31235 28.8349 8.01145 28.8731C7.59771 28.9113 7.18397 28.8731 6.73262 28.8731C6.24366 28.8731 6.0556 28.6819 6.0556 28.1847C6.0556 27.3816 6.0556 27.3816 5.26574 27.3816C3.79885 27.3816 2.33197 27.3816 0.902698 27.3816C0.78986 27.3816 0.677023 27.3816 0.601798 27.3816C0.225674 27.3816 -0.0376129 27.2287 -0.0376129 26.808C-0.0376129 26.4256 0.225674 26.2726 0.601798 26.2726C1.65495 26.2726 2.70809 26.2726 3.76124 26.2726C4.21259 26.2726 4.66394 26.2726 5.11529 26.2726C5.41619 26.2726 5.82993 26.4256 6.01799 26.1961C6.20605 26.0049 6.0556 25.6225 6.09321 25.3166C6.13083 24.8959 6.31889 24.7047 6.73262 24.7047C7.18397 24.7047 7.67293 24.7047 8.12428 24.7047C8.34996 24.7047 8.38757 24.6282 8.38757 24.437C8.38757 23.8251 8.38757 23.2132 8.38757 22.6013C8.38757 22.3719 8.31235 22.2954 8.12428 22.3336C7.67293 22.3336 7.22159 22.3336 6.77024 22.3336C6.28127 22.3336 6.13083 22.1424 6.09321 21.6835C6.0556 20.8039 6.0556 20.8039 5.19051 20.8039C3.68602 20.8039 2.18152 20.8039 0.677023 20.8039C0.188062 20.8039 -0.0376129 20.6127 -0.0376129 20.2685C-0.0376129 19.9244 0.225674 19.7331 0.677023 19.7331C2.33197 19.7331 4.02453 19.7331 5.67948 19.7331C5.98038 19.7331 6.09321 19.6567 6.09321 19.3507C6.09321 18.2417 6.13083 18.2035 7.22159 18.2035C7.59771 18.2035 8.08667 18.3564 8.31235 18.127C8.53802 17.8975 8.34996 17.4004 8.38757 17.0179C8.38757 16.712 8.38757 16.4443 8.38757 16.1384C8.42518 15.8324 8.27473 15.7942 8.01145 15.7942C7.5601 15.8324 7.14636 15.7942 6.69501 15.7942C6.24366 15.7942 6.09321 15.603 6.0556 15.1441C6.01799 14.3027 6.01799 14.3027 5.19051 14.3027C3.76124 14.3027 2.29436 14.3027 0.865085 14.3027C0.752248 14.3027 0.639411 14.3027 0.488961 14.3027C0.225674 14.188 -4.88198e-07 13.9968 -4.88198e-07 13.6144C0.0376119 13.2702 0.225674 13.1172 0.564186 13.1172C1.39166 13.1172 2.25675 13.1172 3.08422 13.1172C3.98692 13.1172 4.88961 13.1172 5.79231 13.1172C6.01799 13.1172 6.09321 13.079 6.09321 12.8113C6.13083 11.5493 6.13083 11.5493 7.37204 11.5493C8.38757 11.5493 8.38757 11.5493 8.38757 10.5167C8.38757 10.2108 8.38757 9.90484 8.4628 9.5989C8.68847 8.91053 9.29027 8.52811 10.193 8.52811C11.2461 8.52811 11.2461 8.52811 11.2461 7.45732V7.41907C11.2461 6.23356 11.2461 6.19532 12.4121 6.19532C12.713 6.19532 12.7882 6.11883 12.7882 5.81289C12.7882 4.13022 12.7882 2.40931 12.7882 0.726641C12.7882 0.229489 12.9387 3.4467e-05 13.3148 -0.038208C13.6909 -0.038208 13.879 0.191247 13.879 0.726641C13.879 2.40931 13.879 4.09198 13.879 5.77465C13.879 6.08059 13.9542 6.19532 14.2551 6.19532C15.3835 6.19532 15.3835 6.19532 15.3835 7.34259C15.3835 7.72501 15.233 8.22217 15.4587 8.45162C15.6844 8.68108 16.1733 8.52811 16.5495 8.52811C16.9256 8.52811 17.4146 8.68108 17.6402 8.45162C17.8659 8.22217 17.6778 7.72501 17.7155 7.34259C17.7155 7.18962 17.7155 7.03665 17.7155 6.88368C17.7155 6.38653 17.9035 6.19532 18.3925 6.19532C19.2199 6.19532 19.2199 6.19532 19.2199 5.31574C19.2199 3.78604 19.2199 2.2181 19.2199 0.688399C19.2199 0.458944 19.2199 0.229489 19.4456 0.0765194C19.6337 -0.038208 19.7841 -0.0764505 20.0098 0.0382769C20.2731 0.191247 20.3107 0.382459 20.3107 0.650157C20.3107 2.37107 20.3107 4.09198 20.3107 5.77465C20.3107 6.11883 20.3859 6.23356 20.7244 6.19532C20.8373 6.19532 20.9501 6.19532 21.1006 6.19532C21.7024 6.19532 21.8528 6.34829 21.8528 6.96017C21.8528 7.38083 21.8528 7.8015 21.8528 8.26041C21.8528 8.48986 21.928 8.56635 22.1161 8.52811C22.7179 8.52811 23.3197 8.52811 23.9215 8.52811C24.1472 8.52811 24.2224 8.45162 24.1848 8.26041C24.1848 7.8015 24.1848 7.34259 24.1848 6.88368C24.1848 6.38653 24.3729 6.23356 24.8242 6.19532C25.6893 6.15707 25.6893 6.15707 25.6893 5.2775C25.6893 3.7478 25.6893 2.2181 25.6893 0.688399C25.6893 0.305974 25.8021 3.4467e-05 26.2159 3.4467e-05C26.592 -0.038208 26.78 0.229489 26.78 0.726641C26.78 2.37107 26.8177 4.01549 26.78 5.69816C26.78 6.19532 26.9305 6.31004 27.3442 6.23356C27.4195 6.23356 27.5323 6.23356 27.6075 6.23356C28.0965 6.23356 28.2469 6.42477 28.2469 6.92192C28.2469 7.34259 28.2469 7.76326 28.2469 8.22217C28.2469 8.48986 28.2845 8.60459 28.5854 8.60459C29.1496 8.56635 29.7138 8.56635 30.3156 8.60459C30.5789 8.60459 30.6541 8.52811 30.6165 8.26041C30.6165 7.83974 30.6165 7.41907 30.6165 7.03665C30.6165 6.46301 30.767 6.31004 31.3312 6.2718C32.121 6.2718 32.121 6.2718 32.121 5.46871C32.121 3.97725 32.121 2.4858 32.121 0.956096C32.121 0.841369 32.121 0.726642 32.121 0.650157C32.121 0.267732 32.3091 0.0765194 32.6852 0.0765194C33.0237 0.0765194 33.2118 0.305974 33.2118 0.688399C33.2118 2.37107 33.2118 4.05374 33.2118 5.73641C33.2118 6.19532 33.287 6.38653 33.776 6.31004C33.8888 6.2718 34.0016 6.31004 34.1521 6.31004C34.5658 6.31004 34.7539 6.50126 34.7539 6.92192C34.7539 7.38083 34.7539 7.83974 34.7539 8.29865C34.7539 8.56635 34.7915 8.64283 35.0548 8.64283C35.3557 8.60459 35.6566 8.64283 35.9575 8.64283C36.9354 8.68108 37.5372 9.29296 37.5748 10.2873C37.5748 10.5932 37.6124 10.8991 37.5748 11.2051C37.5372 11.5493 37.6124 11.7022 37.9885 11.664C38.4023 11.6257 38.816 11.664 39.2674 11.664C39.6811 11.664 39.8692 11.8934 39.8692 12.2759C39.8692 12.5818 39.7187 12.9642 39.9444 13.1554C40.1325 13.3084 40.5086 13.1937 40.8095 13.1937C42.2764 13.1937 43.7433 13.1937 45.2477 13.1937C45.7367 13.1937 45.9624 13.3467 46 13.7291C46 14.1115 45.7367 14.3027 45.2477 14.3027C43.5928 14.3027 41.9379 14.3027 40.2829 14.3027C39.982 14.3027 39.8692 14.3792 39.9068 14.6851C39.9068 15.7942 39.9068 15.8324 38.7784 15.8324C38.4023 15.8324 37.9509 15.6794 37.6876 15.9089C37.462 16.1384 37.65 16.5973 37.6124 16.9797C37.6124 17.2474 37.65 17.5151 37.6124 17.821C37.5748 18.1652 37.7253 18.2417 38.0262 18.2035C38.4399 18.1652 38.8536 18.2035 39.2298 18.2035C39.7187 18.2035 39.9068 18.3947 39.9068 18.8918C39.9068 19.7332 39.9068 19.7331 40.7719 19.7331C42.2011 19.7331 43.668 19.7331 45.0973 19.7331C45.2101 19.7331 45.323 19.7331 45.3982 19.7331C45.7743 19.7714 46.0376 19.9626 46 20.3068C45.9624 20.651 45.7743 20.8422 45.3982 20.8422C43.7056 20.8422 42.0131 20.8422 40.2829 20.8422C39.982 20.8422 39.8692 20.9187 39.8692 21.2246C39.8692 22.3719 39.8692 22.3719 38.7032 22.3719C38.3271 22.3719 37.8757 22.2572 37.65 22.4484C37.3868 22.6778 37.5748 23.175 37.5748 23.5192C37.5748 23.9398 37.3868 24.4752 37.65 24.7047C37.8757 24.8959 38.4023 24.7812 38.7784 24.7812C38.9289 24.7812 39.0793 24.7812 39.2298 24.7812C39.6811 24.7812 39.8316 24.9724 39.8692 25.4313C39.9068 26.3109 39.9068 26.3109 40.8095 26.3109C42.314 26.3109 43.7809 26.3109 45.2854 26.3109C45.6615 26.3109 45.9624 26.4256 46 26.8462C46.0376 27.2287 45.7743 27.4199 45.2854 27.4199C43.6304 27.4199 41.9755 27.4199 40.3205 27.4199C39.9444 27.4199 39.8316 27.5346 39.8692 27.917C39.9068 28.07 39.8692 28.223 39.8692 28.3759C39.8316 28.7584 39.6435 28.9496 39.305 28.9496C38.8536 28.9496 38.3647 28.9496 37.9133 28.9496C37.65 28.9496 37.5748 29.0261 37.5748 29.2938C37.5748 29.8674 37.5748 30.441 37.5748 31.0529C37.5748 31.3206 37.65 31.3971 37.9133 31.3971C38.3271 31.3971 38.7408 31.3971 39.1921 31.3971C39.7187 31.3971 39.9068 31.5883 39.9068 32.1237C39.9068 32.9268 39.9068 32.9268 40.7343 32.9268C42.1635 32.9268 43.6304 32.9268 45.0597 32.9268C45.1725 32.9268 45.2854 32.9268 45.3606 32.9268C45.7367 32.9268 46 33.118 46 33.5004C46 33.8829 45.7367 34.0358 45.3606 34.0358C43.7056 34.0358 42.0507 34.0358 40.3957 34.0358C39.982 34.0358 39.8316 34.1506 39.9068 34.5712C39.9444 34.686 39.9068 34.8007 39.9068 34.9537C39.9068 35.4126 39.7187 35.6038 39.2674 35.642C38.816 35.642 38.3647 35.642 37.9133 35.642C37.65 35.642 37.6124 35.7185 37.6124 35.948C37.6124 36.2921 37.6124 36.6363 37.6124 37.0188C37.5748 38.0131 36.973 38.5867 35.9951 38.6249C35.6942 38.6249 35.3557 38.6249 35.0548 38.6249C34.7915 38.6249 34.7539 38.7014 34.7539 38.9309C34.7539 39.3515 34.7539 39.7722 34.7539 40.2311C34.7539 40.8048 34.5658 40.996 34.0392 40.996C33.2494 40.996 33.2494 40.996 33.2494 41.8373C33.2494 43.367 33.2494 44.8967 33.2494 46.4264C33.2494 46.8088 33.1365 47.0765 32.7604 47.2295C32.6852 47.2295 32.5724 47.2295 32.4971 47.2295C32.0458 47.0383 32.0082 46.6559 32.0082 46.2352C32.0082 44.782 32.0082 43.367 32.0082 41.9138C32.0082 41.7608 32.0082 41.6461 32.0082 41.4931C32.0082 41.2254 31.8953 41.1107 31.632 41.1107C30.6541 40.996 30.5037 40.8048 30.5037 39.8104C30.5037 38.5867 30.6165 38.7397 29.4129 38.7397C28.3974 38.7397 28.435 38.6632 28.435 39.734C28.435 39.8487 28.435 39.9634 28.435 40.0399C28.435 40.843 28.2469 41.0342 27.4571 41.1107C27.0809 41.1107 26.9681 41.3019 26.9681 41.6461C26.9681 43.214 26.9681 44.7437 26.9681 46.3117C26.9681 46.7706 26.8553 47.1148 26.3663 47.1912C26.2911 47.1912 26.1782 47.1912 26.103 47.1912C25.6517 47.0765 25.6141 46.7323 25.6141 46.3499C25.6141 44.9732 25.6141 43.5582 25.6141 42.1815C25.6141 42.0285 25.6141 41.9138 25.6141 41.7608C25.6141 41.1489 25.6141 41.1489 24.9747 41.1107C24.3352 41.0725 24.1096 40.8048 24.072 40.1546C24.072 39.8104 24.072 39.4663 24.072 39.1603C24.072 38.8926 23.9591 38.7397 23.6582 38.7397C23.2445 38.7397 22.8307 38.7397 22.3794 38.7397C22.0785 38.7397 21.9657 38.8926 21.9657 39.1603C21.9657 39.5045 21.9657 39.8487 21.9657 40.1546C21.928 40.8048 21.7024 41.0725 21.063 41.1107C20.4235 41.1489 20.4235 41.1489 20.4235 41.7608C20.4235 43.2905 20.4235 44.8202 20.4235 46.3499C20.4235 46.9618 20.3107 47.0765 19.8217 47.2295C19.7465 47.2295 19.6337 47.2295 19.5585 47.2295C19.1447 47.0765 19.0695 46.6941 19.0695 46.3117C19.0695 44.8202 19.0695 43.367 19.0695 41.8755C19.0695 41.1872 19.0695 41.1872 18.4301 41.1489C17.9035 41.1107 17.6026 40.8048 17.565 40.2694C17.5274 39.9252 17.5274 39.581 17.565 39.1986C17.565 38.8544 17.4146 38.7397 17.1137 38.7397C16.7375 38.7397 16.3614 38.7397 15.9853 38.7397C15.722 38.7397 15.6092 38.8544 15.6092 39.1221C15.6092 39.4663 15.6092 39.8104 15.6092 40.1929C15.5715 40.8048 15.2706 41.1107 14.6688 41.1489C14.1047 41.1872 14.1047 41.1872 14.1047 41.7608C14.1047 43.2905 14.1047 44.782 14.1047 46.3117C14.1047 46.7706 14.0294 47.153 13.5029 47.2677C13.3524 47 13.2772 47 13.1643 47Z" fill="black"/>
<path d="M36.2208 9.71357C36.5217 9.79006 36.5217 10.0578 36.5217 10.2872C36.5217 13.0407 36.5217 15.7559 36.5217 18.5093C36.5217 21.8364 36.5217 25.1635 36.5217 28.4524C36.5217 31.1676 36.5217 33.8828 36.5217 36.6363C36.5217 37.1717 36.3336 37.3246 35.807 37.3246C33.0613 37.3246 30.3156 37.3246 27.5323 37.3246C23.6206 37.3246 19.6713 37.3246 15.7596 37.3246C13.9166 37.3246 12.0736 37.3246 10.2682 37.3246C9.59116 37.3246 9.47833 37.1717 9.47833 36.4833C9.47833 31.4735 9.47833 26.4638 9.47833 21.4923C9.47833 17.821 9.47833 14.1115 9.47833 10.4402C9.47833 10.1725 9.44071 9.86654 9.74161 9.71357C9.89206 9.63709 10.0801 9.67533 10.2306 9.67533C11.8103 9.67533 13.39 9.67533 14.9697 9.67533C15.9477 9.67533 16.9256 9.67533 17.8659 9.67533C21.2134 9.67533 24.5233 9.67533 27.8708 9.67533C28.924 9.67533 29.9771 9.67533 31.0679 9.67533C32.6476 9.67533 34.1897 9.67533 35.7694 9.67533C35.9199 9.67533 36.0703 9.63709 36.2208 9.71357Z" fill="#5AA9E6"/>
<path d="M8.38757 25.8137C8.57563 26.3874 8.42519 26.9992 8.4628 27.6111C8.4628 27.7258 8.38757 27.7641 8.27474 27.8023C8.19951 27.8023 8.1619 27.8023 8.08667 27.8023C7.18398 27.8406 7.18398 27.8406 7.18398 26.961C7.18398 26.6168 7.18398 26.2726 7.18398 25.9284C7.59771 25.7755 8.01145 25.8902 8.38757 25.8137Z" fill="#1E80CB"/>
<path d="M38.816 32.3913C38.816 32.9267 38.816 33.5004 38.8536 34.0358C38.8536 34.3035 38.7408 34.3417 38.5527 34.3417C37.6124 34.38 37.6124 34.38 37.6124 33.4239C37.6124 33.0797 37.5372 32.7355 37.65 32.3913C38.0262 32.3149 38.4023 32.3149 38.816 32.3913Z" fill="#1E80CC"/>
<path d="M8.42519 32.3913C8.53802 32.965 8.4628 33.5386 8.4628 34.1123C8.4628 34.3035 8.34996 34.3417 8.19951 34.3417C7.97384 34.3417 7.71055 34.3417 7.48487 34.3417C7.2592 34.3417 7.22159 34.2652 7.22159 34.0358C7.22159 33.5004 7.22159 32.9267 7.2592 32.3913C7.63532 32.3149 8.01145 32.3149 8.42519 32.3913Z" fill="#1E80CC"/>
<path d="M7.22159 14.5704C7.22159 14.0351 7.22159 13.4614 7.18398 12.926C7.18398 12.6583 7.29681 12.6201 7.48487 12.6201C8.42519 12.5818 8.42519 12.5818 8.42519 13.5379C8.42519 13.8821 8.50041 14.2263 8.38757 14.5704C8.01145 14.6469 7.63532 14.6469 7.22159 14.5704Z" fill="#1E80CC"/>
<path d="M37.6124 14.6087C37.4996 14.0351 37.5748 13.4614 37.5748 12.8878C37.5748 12.6966 37.6876 12.6583 37.8381 12.6583C38.0638 12.6583 38.3271 12.6583 38.5527 12.6583C38.7784 12.6583 38.816 12.7348 38.816 12.9643C38.816 13.4997 38.816 14.0733 38.7784 14.6087C38.4023 14.6469 38.0262 14.6469 37.6124 14.6087Z" fill="#1E80CC"/>
<path d="M38.816 25.8902C38.816 26.4256 38.816 26.961 38.8536 27.4964C38.8536 27.7258 38.7784 27.8023 38.5527 27.8023C37.3868 27.7641 37.6124 27.9171 37.6124 26.8845C37.6124 26.5403 37.4996 26.1579 37.6877 25.8137C38.0262 25.8902 38.4399 25.7755 38.816 25.8902Z" fill="#1E80CB"/>
<path d="M25.2756 39.5427C25.2003 38.3572 25.2003 38.3572 26.3663 38.3572C27.269 38.3572 27.269 38.3572 27.2314 39.275C27.2314 39.3897 27.3066 39.5045 27.1562 39.6192C26.5544 39.5427 25.915 39.6574 25.2756 39.5427Z" fill="#1F80CB"/>
<path d="M7.22159 21.1099C7.22159 20.498 7.22159 19.8862 7.22159 19.2743C7.59771 19.1978 8.01145 19.1978 8.42519 19.2743C8.4628 19.9244 8.53802 20.5363 8.38757 21.1864C8.01145 21.1099 7.59771 21.2246 7.22159 21.1099Z" fill="#1E80CC"/>
<path d="M38.816 19.2743C38.816 19.8862 38.816 20.498 38.816 21.1099C38.4399 21.2246 38.0262 21.1099 37.65 21.1864C37.4996 20.5363 37.5748 19.9244 37.6124 19.2743C38.0262 19.1978 38.4023 19.1978 38.816 19.2743Z" fill="#1E80CC"/>
<path d="M14.2551 8.52805C13.6909 8.52805 13.1643 8.52805 12.6002 8.56629C12.4497 8.56629 12.3369 8.52805 12.3745 8.33683V8.29859C12.2993 7.34253 12.2993 7.34253 13.2772 7.34253C13.6157 7.34253 13.9166 7.34253 14.2551 7.34253C14.3303 7.72495 14.3303 8.10738 14.2551 8.52805Z" fill="#1E80CD"/>
<path d="M31.7825 7.34256C32.3467 7.34256 32.8733 7.34256 33.4374 7.30432C33.6255 7.30432 33.7007 7.38081 33.6631 7.53378V7.57202C33.7383 8.52808 33.7383 8.52808 32.798 8.52808C32.4595 8.52808 32.121 8.52808 31.7825 8.48984C31.7073 8.10741 31.7073 7.72499 31.7825 7.34256Z" fill="#1E80CD"/>
<path d="M25.3508 7.34256C25.8773 7.34256 26.4039 7.34256 26.9305 7.30432C27.1562 7.30432 27.2314 7.41905 27.2314 7.6485C27.269 8.56632 27.269 8.56632 26.3663 8.56632C26.0278 8.56632 25.6893 8.56632 25.3132 8.52808C25.2755 8.14566 25.2755 7.72499 25.3508 7.34256Z" fill="#1E80CC"/>
<path d="M20.6492 8.52805C20.0474 8.56629 19.4456 8.56629 18.8438 8.52805C18.7686 8.14562 18.7686 7.72495 18.8438 7.34253C19.4456 7.34253 20.0474 7.34253 20.6492 7.34253C20.7244 7.72495 20.7244 8.14562 20.6492 8.52805Z" fill="#1E80CD"/>
<path d="M12.3745 39.5428C12.3745 39.1604 12.3745 38.8162 12.3745 38.4337C12.9387 38.3573 13.5029 38.4338 14.067 38.3955C14.2551 38.3955 14.2927 38.472 14.2927 38.625C14.2927 38.9309 14.3303 39.2368 14.2551 39.5428C13.6533 39.6193 13.0139 39.6193 12.3745 39.5428Z" fill="#1E80CC"/>
<path d="M20.7244 38.4719C20.7244 38.8543 20.7244 39.1985 20.7244 39.5809C20.085 39.6574 19.4456 39.6574 18.8438 39.5809C18.731 38.4337 18.731 38.4337 19.7841 38.4337C20.1226 38.4337 20.4235 38.3572 20.7244 38.4719Z" fill="#1E80CC"/>
<path d="M33.6631 38.4719C33.6631 38.8543 33.6631 39.1985 33.6631 39.5809C33.0237 39.6574 32.3843 39.6574 31.7825 39.5809C31.6697 38.4337 31.6697 38.4337 32.7228 38.4337C33.0237 38.4337 33.3622 38.3572 33.6631 38.4719Z" fill="#1E80CC"/>
<path d="M27.9084 9.71357C24.5609 9.71357 21.2134 9.71357 17.9035 9.71357C17.8659 9.71357 17.8659 9.67533 17.8659 9.67533L17.9035 9.63708C21.251 9.63708 24.5985 9.63708 27.9084 9.63708C27.9084 9.67533 27.946 9.67533 27.9084 9.71357Z" fill="#73AEDA"/>
<path d="M14.9698 9.71358C13.2396 9.71358 11.4718 9.71358 9.74162 9.71358C9.81685 9.59886 9.92969 9.6371 10.0425 9.6371C11.6975 9.6371 13.3524 9.6371 15.0074 9.6371C15.0074 9.67534 15.0074 9.67534 14.9698 9.71358C15.0074 9.71358 15.0074 9.71358 14.9698 9.71358Z" fill="#72ABD6"/>
<path d="M36.2208 9.71358C34.4906 9.71358 32.7604 9.71358 31.0303 9.71358C30.9926 9.71358 30.9926 9.67534 30.9926 9.67534L31.0303 9.6371C32.6476 9.6371 34.3025 9.6371 35.9199 9.6371C36.0703 9.6371 36.1455 9.59886 36.2208 9.71358Z" fill="#73AED9"/>
<path d="M31.0679 9.63708C31.0679 9.67533 31.0679 9.67533 31.0679 9.71357C30.0147 9.71357 28.9616 9.71357 27.9084 9.71357C27.9084 9.67533 27.9084 9.67533 27.9084 9.63708C28.9616 9.63708 30.0147 9.63708 31.0679 9.63708Z" fill="#74AEDA"/>
<path d="M20.7244 38.4719C20.2355 38.4719 19.7465 38.5102 19.2952 38.4719C18.919 38.4337 18.8062 38.5867 18.8438 38.9309C18.8814 39.1603 18.8438 39.3515 18.8438 39.581C18.8814 39.581 18.8814 39.6192 18.8814 39.6192L18.8438 39.6575C18.6558 39.3133 18.8062 38.8926 18.7686 38.5102C18.7686 38.4337 18.8438 38.3955 18.919 38.3955C19.5585 38.4337 20.1603 38.2807 20.7244 38.4719Z" fill="#4D8CBD"/>
<path d="M33.6631 38.4719C33.1742 38.4719 32.6852 38.4719 32.1962 38.4719C31.8577 38.4719 31.7825 38.5867 31.7825 38.8926C31.8201 39.1221 31.7825 39.3515 31.7825 39.581C31.8201 39.581 31.8201 39.6192 31.8201 39.6192L31.7825 39.6575C31.5944 39.275 31.7449 38.8926 31.7073 38.5102C31.7073 38.4337 31.7825 38.3955 31.8577 38.3955C32.4595 38.4337 33.0613 38.2807 33.6631 38.4719Z" fill="#4F87B3"/>
<path d="M14.2551 39.5428C14.2551 38.4337 14.2551 38.4337 13.202 38.4337C12.9387 38.4337 12.6754 38.4337 12.3745 38.4337C12.9763 38.2425 13.5781 38.3955 14.1799 38.3572C14.2551 38.3572 14.3303 38.3955 14.3303 38.472C14.2927 38.8544 14.4432 39.2368 14.2551 39.6192C14.2175 39.6192 14.2175 39.6192 14.2551 39.5428Z" fill="#4F87B3"/>
<path d="M14.9697 9.71357C14.9697 9.67533 14.9697 9.67533 14.9697 9.63708C15.9477 9.63708 16.888 9.63708 17.8659 9.63708C17.8659 9.67533 17.8659 9.67533 17.8659 9.71357C16.888 9.71357 15.9477 9.71357 14.9697 9.71357Z" fill="#74AEDA"/>
<path d="M14.2551 39.5427C14.2551 39.581 14.2551 39.581 14.2551 39.6192C13.6157 39.581 12.9763 39.7339 12.3745 39.5427C13.0139 39.5427 13.6157 39.5427 14.2551 39.5427Z" fill="#3089D0"/>
<path d="M18.8438 39.6192C18.8438 39.581 18.8438 39.581 18.8438 39.5427C19.4832 39.5427 20.085 39.5427 20.7244 39.5427C20.3483 39.7339 19.9346 39.581 19.5209 39.6192C19.2952 39.6575 19.0695 39.6575 18.8438 39.6192Z" fill="#308AD0"/>
<path d="M25.2755 39.5428C25.915 39.581 26.5168 39.4663 27.1562 39.6193C26.5544 39.6193 25.915 39.7722 25.2755 39.5428Z" fill="#308AD0"/>
<path d="M31.7825 39.6192C31.7825 39.581 31.7825 39.581 31.7825 39.5427C32.4219 39.5427 33.0237 39.5427 33.6631 39.5427C33.2494 39.7339 32.798 39.581 32.3467 39.6192C32.1586 39.6575 31.9706 39.6575 31.7825 39.6192Z" fill="#3089D0"/>
<path d="M38.816 25.8902C38.4399 25.8519 38.0262 25.9666 37.65 25.8137C38.0262 25.8137 38.4399 25.6989 38.816 25.8902Z" fill="#2784CE"/>
<path d="M25.3508 7.34253C25.3508 7.72495 25.3508 8.14562 25.3508 8.52805C25.2003 8.14562 25.2003 7.72495 25.3508 7.34253Z" fill="#2784CE"/>
<path d="M8.42519 32.3914C8.04906 32.3914 7.63533 32.3914 7.2592 32.3914C7.63533 32.2385 8.01145 32.2767 8.42519 32.3914Z" fill="#528AB6"/>
<path d="M38.816 32.3914C38.4399 32.3914 38.0262 32.3914 37.65 32.3914C38.0262 32.2767 38.4023 32.2385 38.816 32.3914Z" fill="#528AB6"/>
<path d="M18.8814 7.34253C18.8814 7.72495 18.8814 8.14562 18.8814 8.52805C18.731 8.10738 18.6934 7.72495 18.8814 7.34253Z" fill="#4D8CBD"/>
<path d="M14.2551 8.52805C14.2551 8.14562 14.2551 7.72495 14.2551 7.34253C14.4056 7.72495 14.4056 8.10738 14.2551 8.52805Z" fill="#4F87B3"/>
<path d="M38.816 19.2743C38.4023 19.2743 38.0262 19.2743 37.6124 19.2743C38.0262 19.1213 38.4023 19.1213 38.816 19.2743Z" fill="#508FC0"/>
<path d="M8.42519 19.2743C8.01145 19.2743 7.63532 19.2743 7.22159 19.2743C7.63532 19.1213 8.01145 19.1213 8.42519 19.2743Z" fill="#508FC0"/>
<path d="M7.22159 14.5704C7.59771 14.5704 8.01145 14.5704 8.38757 14.5704C8.01145 14.7234 7.63532 14.7234 7.22159 14.5704Z" fill="#528AB6"/>
<path d="M20.6492 8.52805C20.6492 8.14562 20.6492 7.72495 20.6492 7.34253C20.7997 7.72495 20.7997 8.14562 20.6492 8.52805Z" fill="#2784CE"/>
<path d="M7.22159 21.1099C7.59771 21.1482 8.01145 21.0334 8.38757 21.1864C8.01145 21.1864 7.59771 21.3011 7.22159 21.1099Z" fill="#2784CE"/>
<path d="M37.65 21.1864C38.0262 21.0334 38.4023 21.1482 38.816 21.1099C38.4399 21.3011 38.0262 21.1864 37.65 21.1864Z" fill="#2784CE"/>
<path d="M37.6124 14.6086C37.9886 14.6086 38.4023 14.6086 38.7784 14.6086C38.4023 14.7234 38.0262 14.7234 37.6124 14.6086Z" fill="#528AB6"/>
<path d="M8.38757 25.8137C8.01145 25.9666 7.63532 25.8519 7.22159 25.8902C7.59771 25.6989 8.01145 25.8137 8.38757 25.8137Z" fill="#2784CE"/>
<path d="M31.7825 7.34253C31.7825 7.72495 31.7825 8.14562 31.7825 8.52805C31.6321 8.10738 31.6321 7.72495 31.7825 7.34253Z" fill="#4F87B3"/>
<path d="M32.3467 32.6591C32.2338 33.0415 31.9706 33.1563 31.5944 33.1563C25.8773 33.1563 20.1603 33.1563 14.4808 33.1563C14.1047 33.1563 13.8414 33.0415 13.7285 32.6591C13.6909 32.5444 13.6909 32.3914 13.6909 32.2385C13.6909 26.3874 13.6909 20.5363 13.6909 14.6852C13.6909 14.5322 13.6533 14.4175 13.7285 14.2645C13.8414 13.8821 14.1047 13.7673 14.4808 13.7673C19.1447 13.7673 23.8087 13.7673 28.4726 13.7673C28.7735 13.7673 28.9992 13.8438 29.2249 14.0733C30.1276 15.1441 31.0679 16.2149 32.0082 17.2856C32.1586 17.4769 32.3091 17.6298 32.3843 17.8593C32.4219 17.974 32.4219 18.0887 32.4219 18.2035C32.4219 22.869 32.4219 27.5729 32.4219 32.2385C32.3467 32.4297 32.3843 32.5444 32.3467 32.6591Z" fill="black"/>
<path d="M13.6909 14.3027C13.6909 15.603 13.6909 16.865 13.6909 18.1652C13.6909 22.8308 13.6909 27.4964 13.6909 32.162C13.6909 32.3149 13.6909 32.5062 13.6909 32.6591C13.5781 32.5062 13.6157 32.3532 13.6157 32.162C13.6157 26.3491 13.6157 20.5745 13.6157 14.7616C13.6157 14.6469 13.5781 14.4557 13.6909 14.3027Z" fill="#5FACE7"/>
<path d="M32.3467 32.6591C32.3467 29.4467 32.3467 26.2726 32.3467 23.0602C32.3467 21.3393 32.3467 19.6184 32.3467 17.8593C32.4595 18.0122 32.4219 18.1652 32.4219 18.3564C32.4219 22.9455 32.4219 27.5728 32.4219 32.1619C32.3843 32.3531 32.4595 32.5444 32.3467 32.6591Z" fill="#5FACE7"/>
<path d="M14.8193 32.0472C14.8193 31.6648 14.8193 31.2823 14.8193 30.8999C14.8193 25.7754 14.8193 20.6509 14.8193 15.5264C14.8193 15.3352 14.8193 15.144 14.8193 14.991C14.9321 14.9146 15.0826 14.9528 15.233 14.9528C19.5208 14.9528 23.771 14.9528 28.0589 14.9528C28.2093 14.9528 28.3222 14.9146 28.435 14.991C29.0368 15.6794 29.6762 16.3295 30.278 17.0179C30.5037 17.2856 30.6917 17.6298 30.9926 17.8592C31.1807 18.0122 31.2183 18.2417 31.2183 18.4711C31.2183 22.9455 31.2183 27.4198 31.2183 31.8942C31.2183 31.9325 31.2183 31.9707 31.2183 32.0472C31.1055 32.1237 30.955 32.0854 30.8046 32.0854C25.6141 32.0854 20.3859 32.0854 15.1954 32.0854C15.0826 32.0854 14.9321 32.1237 14.8193 32.0472Z" fill="#1E80CD"/>
<path d="M14.8193 32.0472C20.2731 32.0472 25.7645 32.0472 31.2183 32.0472C31.1055 32.2385 30.955 32.1237 30.8046 32.1237C25.6141 32.1237 20.3859 32.1237 15.1954 32.1237C15.0826 32.1237 14.8945 32.2002 14.8193 32.0472Z" fill="#4890C8"/>
<path d="M28.435 14.9528C23.8839 14.9528 19.3704 14.9528 14.8193 14.9528C14.9321 14.7616 15.0826 14.8763 15.233 14.8763C19.5208 14.8763 23.771 14.8763 28.0589 14.8763C28.1717 14.8763 28.3222 14.7616 28.435 14.9528Z" fill="#4890C8"/>
<path d="M22.9812 28.4907C21.6272 28.4907 20.2355 28.4907 18.8814 28.4907C18.3173 28.4907 18.1668 28.376 18.1668 27.7641C18.1668 24.9341 18.1668 22.0659 18.1668 19.236C18.1668 18.6241 18.3173 18.5094 18.8814 18.5094C21.6272 18.5094 24.3729 18.5094 27.1562 18.5094C27.7204 18.5094 27.8708 18.6624 27.8708 19.236C27.8708 22.0659 27.8708 24.8959 27.8708 27.7258C27.8708 28.2995 27.7204 28.4524 27.1186 28.4907C25.7269 28.4907 24.3729 28.4907 22.9812 28.4907Z" fill="black"/>
<path d="M19.2952 19.5802C21.7024 19.5802 24.1096 19.5802 26.5168 19.5802C26.6672 19.5802 26.8177 19.5802 26.8177 19.8097C26.8177 22.3337 26.8177 24.8577 26.8177 27.3817C26.8177 27.4199 26.78 27.4199 26.7424 27.4582C26.7048 27.4199 26.6672 27.3817 26.6296 27.3052C26.5544 27.0757 26.592 26.8463 26.592 26.6168C26.592 24.5517 26.592 22.4866 26.592 20.4215C26.592 19.8479 26.5544 19.8097 25.9902 19.8097C24.0343 19.8097 22.0785 19.8097 20.1226 19.8097C19.897 19.8097 19.6337 19.8479 19.408 19.7332C19.3328 19.6949 19.2952 19.6184 19.2952 19.5802Z" fill="#F1CD56"/>
<path d="M26.7048 27.3435C26.7048 27.3817 26.7048 27.3817 26.7048 27.4199C24.2976 27.4199 21.8904 27.4199 19.4832 27.4199C19.3328 27.4199 19.1823 27.4199 19.1823 27.1905C19.1823 24.6665 19.1823 22.1425 19.1823 19.6185C19.1823 19.5802 19.22 19.5802 19.2576 19.542C19.2576 19.5802 19.2576 19.5802 19.2576 19.6185C19.4456 19.8479 19.408 20.1156 19.408 20.3833C19.408 22.4484 19.408 24.4753 19.408 26.5404C19.408 27.1905 19.408 27.1905 20.0474 27.1905C22.0033 27.1905 23.9591 27.1905 25.915 27.1905C26.2159 27.1905 26.4792 27.1522 26.7048 27.3435Z" fill="#F1CD56"/>
<path d="M26.7048 27.3434C24.3728 27.3434 22.0785 27.3434 19.7465 27.3434C19.408 27.3434 19.2952 27.2287 19.2952 26.8845C19.2952 24.4752 19.2952 22.0659 19.2952 19.6184C21.6271 19.6184 23.9215 19.6184 26.2535 19.6184C26.592 19.6184 26.7048 19.7331 26.7048 20.0773C26.7048 22.5248 26.7048 24.9341 26.7048 27.3434Z" fill="#F6CB3F"/>
</g>
<defs>
<clipPath id="clip0_47_6574">
<rect width="46" height="47" fill="white"/>
</clipPath>
</defs>
</svg>
