<svg width="76" height="98" viewBox="0 0 76 98" fill="none" xmlns="http://www.w3.org/2000/svg">
<g clip-path="url(#clip0_47_7960)">
<path d="M7.30768 31.9243V97.2576H30.6923V63.1061C30.6923 61.1371 31.4622 59.2487 32.8327 57.8564C34.2031 56.4641 36.0619 55.6819 38 55.6819C39.9381 55.6819 41.7968 56.4641 43.1673 57.8564C44.5378 59.2487 45.3077 61.1371 45.3077 63.1061V97.2576H68.6923V31.9243H7.30768Z" fill="#FDD3B0"/>
<path d="M14.6154 14.1062H61.3846V27.4698H14.6154V14.1062Z" fill="#FED9B3"/>
<path d="M46.0385 20.7878H29.9615C29.7677 20.7878 29.5819 20.8661 29.4448 21.0053C29.3078 21.1445 29.2308 21.3334 29.2308 21.5303V24.5C29.2308 24.6969 29.3078 24.8857 29.4448 25.0249C29.5819 25.1642 29.7677 25.2424 29.9615 25.2424H31.4231C31.6169 25.2424 31.8028 25.3206 31.9398 25.4598C32.0769 25.5991 32.1539 25.7879 32.1539 25.9848C32.1539 26.1817 32.2308 26.3706 32.3679 26.5098C32.5049 26.649 32.6908 26.7272 32.8846 26.7272H43.1154C43.3092 26.7272 43.4951 26.649 43.6321 26.5098C43.7692 26.3706 43.8462 26.1817 43.8462 25.9848C43.8462 25.7879 43.9231 25.5991 44.0602 25.4598C44.1972 25.3206 44.3831 25.2424 44.5769 25.2424H46.0385C46.2323 25.2424 46.4182 25.1642 46.5552 25.0249C46.6922 24.8857 46.7692 24.6969 46.7692 24.5V21.5303C46.7692 21.3334 46.6922 21.1445 46.5552 21.0053C46.4182 20.8661 46.2323 20.7878 46.0385 20.7878Z" fill="#F0B895"/>
<path d="M23.3846 26.757C24.999 26.757 26.3077 25.4274 26.3077 23.7873C26.3077 22.1472 24.999 20.8176 23.3846 20.8176C21.7703 20.8176 20.4615 22.1472 20.4615 23.7873C20.4615 25.4274 21.7703 26.757 23.3846 26.757Z" fill="#F0B895"/>
<path d="M52.6154 26.757C54.2297 26.757 55.5384 25.4274 55.5384 23.7873C55.5384 22.1472 54.2297 20.8176 52.6154 20.8176C51.001 20.8176 49.6923 22.1472 49.6923 23.7873C49.6923 25.4274 51.001 26.757 52.6154 26.757Z" fill="#F0B895"/>
<path d="M23.3846 11.1365H52.6154V14.1062H23.3846V11.1365ZM10.2308 27.4698H65.7692V31.9244H10.2308V27.4698Z" fill="#FED9B3"/>
<path d="M65.7692 31.9243H68.6923V97.2576H65.7692V31.9243Z" fill="#FCF2E8"/>
<path d="M32.1538 3.71216H43.8461V6.68186H32.1538V3.71216Z" fill="#FED9B3"/>
<path d="M21.9231 46.7727H24.8461V97.2576H21.9231V46.7727Z" fill="#FCF2E8"/>
<path d="M7.30768 46.7727H24.8461V49H7.30768V46.7727ZM24.6634 51.2273V97.2576H30.6923V63.106C30.6923 61.137 31.4622 59.2486 32.8327 57.8563C34.2031 56.464 36.0619 55.6818 38 55.6818C39.9381 55.6818 41.7968 56.464 43.1673 57.8563C44.5378 59.2486 45.3077 61.137 45.3077 63.106V97.2576H51.3365V51.2273H24.6634ZM51.1538 46.7727H68.6923V49H51.1538V46.7727Z" fill="#F0B895"/>
<path d="M38 52.7122C35.2866 52.7122 32.6844 53.8072 30.7657 55.7565C28.8471 57.7057 27.7692 60.3495 27.7692 63.1061H30.6923C30.6923 61.1371 31.4622 59.2487 32.8327 57.8564C34.2031 56.4641 36.0619 55.6819 38 55.6819C39.9381 55.6819 41.7969 56.4641 43.1673 57.8564C44.5378 59.2487 45.3077 61.1371 45.3077 63.1061H48.2308C48.2308 60.3495 47.1529 57.7057 45.2342 55.7565C43.3156 53.8072 40.7134 52.7122 38 52.7122Z" fill="#BC856E"/>
<path d="M48.9615 63.8485H44.5769V63.1061C44.5769 59.4222 41.6261 56.4243 38 56.4243C36.2563 56.4262 34.5845 57.1308 33.3515 58.3835C32.1185 59.6362 31.425 61.3346 31.4231 63.1061V63.8485H27.0385V63.1061C27.0385 56.9648 31.9551 51.9697 38 51.9697C44.0449 51.9697 48.9615 56.9648 48.9615 63.1061V63.8485ZM46.0063 62.3637H47.4737C47.0981 57.3865 42.9941 53.4546 38.0015 53.4546C35.6091 53.4572 33.3056 54.3757 31.5501 56.0268C29.7946 57.678 28.716 59.9406 28.5292 62.3637H29.9966C30.3664 58.2061 33.8156 54.9394 38.0029 54.9394C42.1902 54.9394 45.6365 58.2061 46.0063 62.3637Z" fill="black"/>
<path d="M24.8462 51.2273H51.1539V53.4546H24.8462V51.2273Z" fill="#BC856E"/>
<path d="M48.9615 51.2273H51.8846V97.2576H48.9615V51.2273ZM24.1154 51.2273H27.0385V97.2576H24.1154V51.2273Z" fill="#BC856E"/>
<path d="M13.1538 66.0757H19V70.5302H13.1538V66.0757Z" fill="#DEA683"/>
<path d="M10.2308 63.1062H21.9231V66.0759H10.2308V63.1062ZM54.0769 63.1062H65.7692V66.0759H54.0769V63.1062ZM7.42899 77.9547H21.9231V80.9244H7.42899V77.9547ZM51.3365 77.9547H65.7692V80.9244H51.3365V77.9547Z" fill="#F0B895"/>
<path d="M57 66.0757H62.8462V70.5302H57V66.0757ZM43.8462 23.0151H46.7692V18.5605H29.2308V23.0151H32.1539V24.4999H43.8462V23.0151Z" fill="#DEA683"/>
<path d="M23.3846 24.5297C24.999 24.5297 26.3077 23.2001 26.3077 21.56C26.3077 19.9199 24.999 18.5903 23.3846 18.5903C21.7703 18.5903 20.4615 19.9199 20.4615 21.56C20.4615 23.2001 21.7703 24.5297 23.3846 24.5297Z" fill="#DEA683"/>
<path d="M16.0769 54.197C17.2877 54.197 18.2692 53.1998 18.2692 51.9697C18.2692 50.7396 17.2877 49.7424 16.0769 49.7424C14.8661 49.7424 13.8846 50.7396 13.8846 51.9697C13.8846 53.1998 14.8661 54.197 16.0769 54.197Z" fill="#DEA683"/>
<path d="M59.9231 54.197C61.1339 54.197 62.1154 53.1998 62.1154 51.9697C62.1154 50.7396 61.1339 49.7424 59.9231 49.7424C58.7123 49.7424 57.7308 50.7396 57.7308 51.9697C57.7308 53.1998 58.7123 54.197 59.9231 54.197Z" fill="#DEA683"/>
<path d="M52.6154 24.5297C54.2297 24.5297 55.5384 23.2001 55.5384 21.56C55.5384 19.9199 54.2297 18.5903 52.6154 18.5903C51.001 18.5903 49.6923 19.9199 49.6923 21.56C49.6923 23.2001 51.001 24.5297 52.6154 24.5297Z" fill="#DEA683"/>
<path d="M57 92.803H62.8462V97.2575H57V92.803Z" fill="#DEA683"/>
<path d="M62.8461 27.4697H65.7692V31.9243H62.8461V27.4697ZM58.4615 14.1061H61.3846V27.4697H58.4615V14.1061ZM49.6923 11.1364H52.6154V14.1061H49.6923V11.1364ZM40.9231 3.71216H43.8461V6.68185H40.9231V3.71216Z" fill="#FCF2E8"/>
<path d="M48.2308 11.1364H27.7692C27.7692 9.95501 28.2312 8.82198 29.0534 7.98659C29.8757 7.1512 30.991 6.68188 32.1538 6.68188H43.8461C45.009 6.68188 46.1243 7.1512 46.9465 7.98659C47.7688 8.82198 48.2308 9.95501 48.2308 11.1364Z" fill="#FED9B3"/>
<path d="M48.9615 11.8788H27.0385V11.1364C27.0385 8.27067 29.3331 5.93945 32.1538 5.93945H43.8461C46.6669 5.93945 48.9615 8.27067 48.9615 11.1364V11.8788ZM28.5731 10.394H47.4269C47.2574 9.55604 46.8087 8.8031 46.1564 8.26212C45.5041 7.72115 44.6882 7.42524 43.8461 7.4243H32.1538C30.3898 7.4243 28.9121 8.70127 28.5731 10.394Z" fill="black"/>
<path d="M43.8461 6.68188H40.9231C42.0859 6.68188 43.2012 7.1512 44.0235 7.98659C44.8457 8.82198 45.3077 9.95501 45.3077 11.1364H48.2308C48.2308 9.95501 47.7688 8.82198 46.9465 7.98659C46.1243 7.1512 45.009 6.68188 43.8461 6.68188Z" fill="#FCF2E8"/>
<path d="M68.6923 98.0001H7.3077C7.11389 98.0001 6.92802 97.9219 6.79097 97.7826C6.65393 97.6434 6.57693 97.4545 6.57693 97.2576V31.9243C6.57693 31.7274 6.65393 31.5386 6.79097 31.3993C6.92802 31.2601 7.11389 31.1819 7.3077 31.1819H68.6923C68.8861 31.1819 69.072 31.2601 69.209 31.3993C69.3461 31.5386 69.4231 31.7274 69.4231 31.9243V97.2576C69.4231 97.4545 69.3461 97.6434 69.209 97.7826C69.072 97.9219 68.8861 98.0001 68.6923 98.0001ZM8.03847 96.5152H67.9615V32.6667H8.03847V96.5152Z" fill="black"/>
<path d="M65.7692 32.6667H10.2308C10.037 32.6667 9.85108 32.5885 9.71404 32.4492C9.57699 32.31 9.5 32.1212 9.5 31.9243V27.4697C9.5 27.2728 9.57699 27.084 9.71404 26.9447C9.85108 26.8055 10.037 26.7273 10.2308 26.7273H65.7692C65.963 26.7273 66.1489 26.8055 66.286 26.9447C66.423 27.084 66.5 27.2728 66.5 27.4697V31.9243C66.5 32.1212 66.423 32.31 66.286 32.4492C66.1489 32.5885 65.963 32.6667 65.7692 32.6667ZM10.9615 31.1818H65.0385V28.2121H10.9615V31.1818Z" fill="black"/>
<path d="M61.3846 28.2123H14.6154C14.4216 28.2123 14.2357 28.134 14.0986 27.9948C13.9616 27.8556 13.8846 27.6667 13.8846 27.4698V14.1062C13.8846 13.9093 13.9616 13.7205 14.0986 13.5812C14.2357 13.442 14.4216 13.3638 14.6154 13.3638H61.3846C61.5784 13.3638 61.7643 13.442 61.9013 13.5812C62.0384 13.7205 62.1154 13.9093 62.1154 14.1062V27.4698C62.1154 27.6667 62.0384 27.8556 61.9013 27.9948C61.7643 28.134 61.5784 28.2123 61.3846 28.2123ZM15.3462 26.7274H60.6538V14.8486H15.3462V26.7274Z" fill="black"/>
<path d="M52.6154 14.8486H23.3846C23.1908 14.8486 23.0049 14.7704 22.8679 14.6311C22.7308 14.4919 22.6538 14.3031 22.6538 14.1062V11.1365C22.6538 10.9396 22.7308 10.7507 22.8679 10.6115C23.0049 10.4723 23.1908 10.394 23.3846 10.394H52.6154C52.8092 10.394 52.9951 10.4723 53.1321 10.6115C53.2692 10.7507 53.3461 10.9396 53.3461 11.1365V14.1062C53.3461 14.3031 53.2692 14.4919 53.1321 14.6311C52.9951 14.7704 52.8092 14.8486 52.6154 14.8486ZM24.1154 13.3637H51.8846V11.8789H24.1154V13.3637ZM43.8461 25.2425H32.1538C31.96 25.2425 31.7742 25.1643 31.6371 25.0251C31.5001 24.8858 31.4231 24.697 31.4231 24.5001V23.7577H29.2308C29.037 23.7577 28.8511 23.6795 28.714 23.5402C28.577 23.401 28.5 23.2122 28.5 23.0153V18.5607C28.5 18.3638 28.577 18.175 28.714 18.0357C28.8511 17.8965 29.037 17.8183 29.2308 17.8183H46.7692C46.963 17.8183 47.1489 17.8965 47.286 18.0357C47.423 18.175 47.5 18.3638 47.5 18.5607V23.0153C47.5 23.2122 47.423 23.401 47.286 23.5402C47.1489 23.6795 46.963 23.7577 46.7692 23.7577H44.5769V24.5001C44.5769 24.697 44.4999 24.8858 44.3629 25.0251C44.2258 25.1643 44.04 25.2425 43.8461 25.2425ZM32.8846 23.7577H43.1154V23.0153C43.1154 22.8184 43.1924 22.6295 43.3294 22.4903C43.4665 22.351 43.6523 22.2728 43.8461 22.2728H46.0385V19.3031H29.9615V22.2728H32.1538C32.3477 22.2728 32.5335 22.351 32.6706 22.4903C32.8076 22.6295 32.8846 22.8184 32.8846 23.0153V23.7577Z" fill="black"/>
<path d="M48.9615 11.8788H27.0385V11.1364C27.0385 8.27067 29.3331 5.93945 32.1538 5.93945H43.8461C46.6669 5.93945 48.9615 8.27067 48.9615 11.1364V11.8788ZM28.5731 10.394H47.4269C47.2574 9.55604 46.8087 8.8031 46.1564 8.26212C45.5041 7.72115 44.6882 7.42524 43.8461 7.4243H32.1538C30.3898 7.4243 28.9121 8.70127 28.5731 10.394Z" fill="black"/>
<path d="M43.8462 7.42427H32.1539C31.96 7.42427 31.7742 7.34605 31.6371 7.20682C31.5001 7.06759 31.4231 6.87875 31.4231 6.68185V3.71215C31.4231 3.51525 31.5001 3.32641 31.6371 3.18718C31.7742 3.04795 31.96 2.96973 32.1539 2.96973H43.8462C44.04 2.96973 44.2259 3.04795 44.3629 3.18718C44.4999 3.32641 44.5769 3.51525 44.5769 3.71215V6.68185C44.5769 6.87875 44.4999 7.06759 44.3629 7.20682C44.2259 7.34605 44.04 7.42427 43.8462 7.42427ZM32.8846 5.93942H43.1154V4.45458H32.8846V5.93942ZM48.2308 63.8485C48.037 63.8485 47.8511 63.7703 47.714 63.6311C47.577 63.4918 47.5 63.303 47.5 63.1061C47.5 57.7844 43.2382 53.4546 38 53.4546C35.4814 53.4577 33.0668 54.4756 31.2859 56.2849C29.505 58.0942 28.5031 60.5473 28.5 63.1061C28.5 63.303 28.423 63.4918 28.286 63.6311C28.1489 63.7703 27.9631 63.8485 27.7692 63.8485C27.5754 63.8485 27.3896 63.7703 27.2525 63.6311C27.1155 63.4918 27.0385 63.303 27.0385 63.1061C27.0385 56.9648 31.9551 51.9697 38 51.9697C44.0449 51.9697 48.9615 56.9648 48.9615 63.1061C48.9615 63.303 48.8846 63.4918 48.7475 63.6311C48.6105 63.7703 48.4246 63.8485 48.2308 63.8485ZM68.6923 98H51.1539C50.96 98 50.7742 97.9218 50.6371 97.7826C50.5001 97.6433 50.4231 97.4545 50.4231 97.2576V46.7728C50.4231 46.5759 50.5001 46.387 50.6371 46.2478C50.7742 46.1086 50.96 46.0303 51.1539 46.0303H68.6923C68.8861 46.0303 69.072 46.1086 69.209 46.2478C69.3461 46.387 69.4231 46.5759 69.4231 46.7728V97.2576C69.4231 97.4545 69.3461 97.6433 69.209 97.7826C69.072 97.9218 68.8861 98 68.6923 98ZM51.8846 96.5152H67.9615V47.5152H51.8846V96.5152ZM24.8462 98H7.3077C7.11389 98 6.92802 97.9218 6.79097 97.7826C6.65393 97.6433 6.57693 97.4545 6.57693 97.2576V46.7728C6.57693 46.5759 6.65393 46.387 6.79097 46.2478C6.92802 46.1086 7.11389 46.0303 7.3077 46.0303H24.8462C25.04 46.0303 25.2259 46.1086 25.3629 46.2478C25.4999 46.387 25.5769 46.5759 25.5769 46.7728V97.2576C25.5769 97.4545 25.4999 97.6433 25.3629 97.7826C25.2259 97.9218 25.04 98 24.8462 98ZM8.03847 96.5152H24.1154V47.5152H8.03847V96.5152Z" fill="black"/>
<path d="M10.2308 57.1667H13.8846V60.1364H10.2308V57.1667ZM18.2692 57.1667H21.9231V60.1364H18.2692V57.1667ZM54.0769 57.1667H57.7308V60.1364H54.0769V57.1667ZM62.1154 57.1667H65.7692V60.1364H62.1154V57.1667Z" fill="#DEA683"/>
<path d="M21.9231 98.0001H10.2308C10.037 98.0001 9.85108 97.9219 9.71404 97.7826C9.57699 97.6434 9.5 97.4546 9.5 97.2577V57.1667C9.5 56.9698 9.57699 56.781 9.71404 56.6418C9.85108 56.5025 10.037 56.4243 10.2308 56.4243H21.9231C22.1169 56.4243 22.3028 56.5025 22.4398 56.6418C22.5769 56.781 22.6538 56.9698 22.6538 57.1667V97.2577C22.6538 97.4546 22.5769 97.6434 22.4398 97.7826C22.3028 97.9219 22.1169 98.0001 21.9231 98.0001ZM10.9615 96.5152H21.1923V57.9092H10.9615V96.5152Z" fill="black"/>
<path d="M18.2692 60.8789H13.8846C13.6908 60.8789 13.5049 60.8006 13.3679 60.6614C13.2308 60.5222 13.1538 60.3333 13.1538 60.1364V57.1667C13.1538 56.9698 13.2308 56.781 13.3679 56.6418C13.5049 56.5025 13.6908 56.4243 13.8846 56.4243H18.2692C18.463 56.4243 18.6489 56.5025 18.786 56.6418C18.923 56.781 19 56.9698 19 57.1667V60.1364C19 60.3333 18.923 60.5222 18.786 60.6614C18.6489 60.8006 18.463 60.8789 18.2692 60.8789ZM14.6154 59.394H17.5385V57.9092H14.6154V59.394ZM19 71.2728H13.1538C12.96 71.2728 12.7742 71.1946 12.6371 71.0554C12.5001 70.9161 12.4231 70.7273 12.4231 70.5304V66.0758C12.4231 65.8789 12.5001 65.6901 12.6371 65.5509C12.7742 65.4116 12.96 65.3334 13.1538 65.3334H19C19.1938 65.3334 19.3797 65.4116 19.5167 65.5509C19.6538 65.6901 19.7308 65.8789 19.7308 66.0758V70.5304C19.7308 70.7273 19.6538 70.9161 19.5167 71.0554C19.3797 71.1946 19.1938 71.2728 19 71.2728ZM13.8846 69.788H18.2692V66.8183H13.8846V69.788ZM24.1154 93.5455H5.84616C5.65234 93.5455 5.46647 93.4673 5.32942 93.3281C5.19238 93.1888 5.11539 93 5.11539 92.8031C5.11539 92.6062 5.19238 92.4174 5.32942 92.2781C5.46647 92.1389 5.65234 92.0607 5.84616 92.0607H24.1154C24.3092 92.0607 24.4951 92.1389 24.6321 92.2781C24.7692 92.4174 24.8462 92.6062 24.8462 92.8031C24.8462 93 24.7692 93.1888 24.6321 93.3281C24.4951 93.4673 24.3092 93.5455 24.1154 93.5455Z" fill="black"/>
<path d="M24.1154 66.8183H7.3077C7.11389 66.8183 6.92802 66.74 6.79097 66.6008C6.65393 66.4616 6.57693 66.2727 6.57693 66.0758C6.57693 65.8789 6.65393 65.6901 6.79097 65.5509C6.92802 65.4116 7.11389 65.3334 7.3077 65.3334H24.1154C24.3092 65.3334 24.4951 65.4116 24.6321 65.5509C24.7692 65.6901 24.8462 65.8789 24.8462 66.0758C24.8462 66.2727 24.7692 66.4616 24.6321 66.6008C24.4951 66.74 24.3092 66.8183 24.1154 66.8183ZM21.9231 60.8789H10.2308C10.037 60.8789 9.85109 60.8006 9.71405 60.6614C9.577 60.5222 9.50001 60.3333 9.50001 60.1364C9.50001 59.9395 9.577 59.7507 9.71405 59.6115C9.85109 59.4722 10.037 59.394 10.2308 59.394H21.9231C22.1169 59.394 22.3028 59.4722 22.4398 59.6115C22.5769 59.7507 22.6539 59.9395 22.6539 60.1364C22.6539 60.3333 22.5769 60.5222 22.4398 60.6614C22.3028 60.8006 22.1169 60.8789 21.9231 60.8789ZM62.1154 60.8789H57.7308C57.537 60.8789 57.3511 60.8006 57.2141 60.6614C57.077 60.5222 57 60.3333 57 60.1364V57.1667C57 56.9698 57.077 56.781 57.2141 56.6418C57.3511 56.5025 57.537 56.4243 57.7308 56.4243H62.1154C62.3092 56.4243 62.4951 56.5025 62.6321 56.6418C62.7692 56.781 62.8462 56.9698 62.8462 57.1667V60.1364C62.8462 60.3333 62.7692 60.5222 62.6321 60.6614C62.4951 60.8006 62.3092 60.8789 62.1154 60.8789ZM58.4616 59.394H61.3846V57.9092H58.4616V59.394Z" fill="black"/>
<path d="M65.7692 60.8788H54.0769C53.8831 60.8788 53.6972 60.8006 53.5602 60.6613C53.4231 60.5221 53.3461 60.3333 53.3461 60.1364C53.3461 59.9395 53.4231 59.7506 53.5602 59.6114C53.6972 59.4722 53.8831 59.3939 54.0769 59.3939H65.7692C65.963 59.3939 66.1489 59.4722 66.286 59.6114C66.423 59.7506 66.5 59.9395 66.5 60.1364C66.5 60.3333 66.423 60.5221 66.286 60.6613C66.1489 60.8006 65.963 60.8788 65.7692 60.8788ZM23.3846 25.2736C22.4158 25.2728 21.4869 24.8815 20.8018 24.1855C20.1167 23.4895 19.7315 22.5458 19.7308 21.5615C19.7308 19.5139 21.3691 17.8494 23.3846 17.8494C25.4001 17.8494 27.0385 19.5139 27.0385 21.5615C27.0385 23.6091 25.4001 25.2736 23.3846 25.2736ZM23.3846 19.3342C22.1759 19.3342 21.1923 20.3335 21.1923 21.5615C21.1923 22.7895 22.1759 23.7888 23.3846 23.7888C24.5933 23.7888 25.5769 22.7895 25.5769 21.5615C25.5769 20.3335 24.5933 19.3342 23.3846 19.3342ZM16.0769 54.9394C14.4648 54.9394 13.1538 53.6075 13.1538 51.9697C13.1538 50.3319 14.4648 49 16.0769 49C17.689 49 19 50.3319 19 51.9697C19 53.6075 17.689 54.9394 16.0769 54.9394ZM16.0769 50.4848C15.6893 50.4848 15.3175 50.6413 15.0435 50.9198C14.7694 51.1982 14.6154 51.5759 14.6154 51.9697C14.6154 52.3635 14.7694 52.7412 15.0435 53.0196C15.3175 53.2981 15.6893 53.4545 16.0769 53.4545C16.4645 53.4545 16.8363 53.2981 17.1104 53.0196C17.3845 52.7412 17.5385 52.3635 17.5385 51.9697C17.5385 51.5759 17.3845 51.1982 17.1104 50.9198C16.8363 50.6413 16.4645 50.4848 16.0769 50.4848Z" fill="black"/>
<path d="M65.7692 98.0001H54.0769C53.8831 98.0001 53.6972 97.9219 53.5602 97.7826C53.4232 97.6434 53.3462 97.4546 53.3462 97.2577V57.1667C53.3462 56.9698 53.4232 56.781 53.5602 56.6418C53.6972 56.5025 53.8831 56.4243 54.0769 56.4243H65.7692C65.963 56.4243 66.1489 56.5025 66.286 56.6418C66.423 56.781 66.5 56.9698 66.5 57.1667V97.2577C66.5 97.4546 66.423 97.6434 66.286 97.7826C66.1489 97.9219 65.963 98.0001 65.7692 98.0001ZM54.8077 96.5152H65.0385V57.9092H54.8077V96.5152Z" fill="black"/>
<path d="M62.8461 97.9999H57C56.8062 97.9999 56.6203 97.9217 56.4833 97.7825C56.3462 97.6432 56.2692 97.4544 56.2692 97.2575V92.8029C56.2692 92.606 56.3462 92.4172 56.4833 92.278C56.6203 92.1387 56.8062 92.0605 57 92.0605H62.8461C63.04 92.0605 63.2258 92.1387 63.3629 92.278C63.4999 92.4172 63.5769 92.606 63.5769 92.8029V97.2575C63.5769 97.4544 63.4999 97.6432 63.3629 97.7825C63.2258 97.9217 63.04 97.9999 62.8461 97.9999ZM57.7308 96.5151H62.1154V93.5454H57.7308V96.5151ZM62.8461 71.2726H57C56.8062 71.2726 56.6203 71.1944 56.4833 71.0552C56.3462 70.916 56.2692 70.7271 56.2692 70.5302V66.0757C56.2692 65.8788 56.3462 65.6899 56.4833 65.5507C56.6203 65.4115 56.8062 65.3333 57 65.3333H62.8461C63.04 65.3333 63.2258 65.4115 63.3629 65.5507C63.4999 65.6899 63.5769 65.8788 63.5769 66.0757V70.5302C63.5769 70.7271 63.4999 70.916 63.3629 71.0552C63.2258 71.1944 63.04 71.2726 62.8461 71.2726ZM57.7308 69.7878H62.1154V66.8181H57.7308V69.7878Z" fill="black"/>
<path d="M70.1539 93.5454H51.5192C51.3254 93.5454 51.1396 93.4672 51.0025 93.328C50.8655 93.1888 50.7885 92.9999 50.7885 92.803C50.7885 92.6061 50.8655 92.4173 51.0025 92.2781C51.1396 92.1388 51.3254 92.0606 51.5192 92.0606H70.1539C70.3477 92.0606 70.5335 92.1388 70.6706 92.2781C70.8076 92.4173 70.8846 92.6061 70.8846 92.803C70.8846 92.9999 70.8076 93.1888 70.6706 93.328C70.5335 93.4672 70.3477 93.5454 70.1539 93.5454ZM67.9615 66.8182H51.1539C50.96 66.8182 50.7742 66.74 50.6371 66.6007C50.5001 66.4615 50.4231 66.2727 50.4231 66.0758C50.4231 65.8789 50.5001 65.69 50.6371 65.5508C50.7742 65.4116 50.96 65.3333 51.1539 65.3333H67.9615C68.1554 65.3333 68.3412 65.4116 68.4783 65.5508C68.6153 65.69 68.6923 65.8789 68.6923 66.0758C68.6923 66.2727 68.6153 66.4615 68.4783 66.6007C68.3412 66.74 68.1554 66.8182 67.9615 66.8182ZM59.9231 54.9394C58.311 54.9394 57 53.6075 57 51.9697C57 50.3319 58.311 49 59.9231 49C61.5352 49 62.8462 50.3319 62.8462 51.9697C62.8462 53.6075 61.5352 54.9394 59.9231 54.9394ZM59.9231 50.4848C59.5355 50.4848 59.1637 50.6413 58.8896 50.9198C58.6155 51.1982 58.4615 51.5759 58.4615 51.9697C58.4615 52.3635 58.6155 52.7412 58.8896 53.0196C59.1637 53.2981 59.5355 53.4545 59.9231 53.4545C60.3107 53.4545 60.6825 53.2981 60.9566 53.0196C61.2306 52.7412 61.3846 52.3635 61.3846 51.9697C61.3846 51.5759 61.2306 51.1982 60.9566 50.9198C60.6825 50.6413 60.3107 50.4848 59.9231 50.4848ZM52.6154 25.2736C51.6466 25.2728 50.7177 24.8815 50.0326 24.1855C49.3475 23.4895 48.9623 22.5458 48.9615 21.5615C48.9615 19.5139 50.5999 17.8494 52.6154 17.8494C54.6309 17.8494 56.2692 19.5139 56.2692 21.5615C56.2692 23.6091 54.6309 25.2736 52.6154 25.2736ZM52.6154 19.3342C51.4067 19.3342 50.4231 20.3335 50.4231 21.5615C50.4231 22.7895 51.4067 23.7888 52.6154 23.7888C53.8241 23.7888 54.8077 22.7895 54.8077 21.5615C54.8077 20.3335 53.8241 19.3342 52.6154 19.3342Z" fill="black"/>
<path d="M2.92307 37.8638H73.0769L68.6923 46.7729H7.30768L2.92307 37.8638Z" fill="#DEA683"/>
<path d="M71.6154 40.8333L4.38608 40.8362L7.30769 46.7726H68.6923L71.6154 40.8333Z" fill="#DEA683"/>
<path d="M4.38608 40.8362L5.48223 43.0635L70.5192 43.0605L71.6154 40.8333L4.38608 40.8362Z" fill="#BC856E"/>
<path d="M11.6923 47.1676C11.4985 47.1676 11.3126 47.0894 11.1756 46.9502C11.0385 46.8109 10.9616 46.6221 10.9616 46.4252V40.8332C10.9616 40.6363 11.0385 40.4475 11.1756 40.3083C11.3126 40.169 11.4985 40.0908 11.6923 40.0908C11.8861 40.0908 12.072 40.169 12.2091 40.3083C12.3461 40.4475 12.4231 40.6363 12.4231 40.8332V46.4252C12.4231 46.6221 12.3461 46.8109 12.2091 46.9502C12.072 47.0894 11.8861 47.1676 11.6923 47.1676ZM7.3077 47.1676C7.11389 47.1676 6.92802 47.0894 6.79097 46.9502C6.65393 46.8109 6.57693 46.6221 6.57693 46.4252V40.8332C6.57693 40.6363 6.65393 40.4475 6.79097 40.3083C6.92802 40.169 7.11389 40.0908 7.3077 40.0908C7.50152 40.0908 7.68739 40.169 7.82444 40.3083C7.96148 40.4475 8.03847 40.6363 8.03847 40.8332V46.4252C8.03847 46.6221 7.96148 46.8109 7.82444 46.9502C7.68739 47.0894 7.50152 47.1676 7.3077 47.1676ZM16.0769 47.1676C15.8831 47.1676 15.6972 47.0894 15.5602 46.9502C15.4232 46.8109 15.3462 46.6221 15.3462 46.4252V40.8332C15.3462 40.6363 15.4232 40.4475 15.5602 40.3083C15.6972 40.169 15.8831 40.0908 16.0769 40.0908C16.2707 40.0908 16.4566 40.169 16.5937 40.3083C16.7307 40.4475 16.8077 40.6363 16.8077 40.8332V46.4252C16.8077 46.6221 16.7307 46.8109 16.5937 46.9502C16.4566 47.0894 16.2707 47.1676 16.0769 47.1676ZM20.4615 47.1676C20.2677 47.1676 20.0819 47.0894 19.9448 46.9502C19.8078 46.8109 19.7308 46.6221 19.7308 46.4252V40.8332C19.7308 40.6363 19.8078 40.4475 19.9448 40.3083C20.0819 40.169 20.2677 40.0908 20.4615 40.0908C20.6554 40.0908 20.8412 40.169 20.9783 40.3083C21.1153 40.4475 21.1923 40.6363 21.1923 40.8332V46.4252C21.1923 46.6221 21.1153 46.8109 20.9783 46.9502C20.8412 47.0894 20.6554 47.1676 20.4615 47.1676ZM24.8462 47.1676C24.6524 47.1676 24.4665 47.0894 24.3294 46.9502C24.1924 46.8109 24.1154 46.6221 24.1154 46.4252V40.8332C24.1154 40.6363 24.1924 40.4475 24.3294 40.3083C24.4665 40.169 24.6524 40.0908 24.8462 40.0908C25.04 40.0908 25.2259 40.169 25.3629 40.3083C25.4999 40.4475 25.5769 40.6363 25.5769 40.8332V46.4252C25.5769 46.6221 25.4999 46.8109 25.3629 46.9502C25.2259 47.0894 25.04 47.1676 24.8462 47.1676ZM29.2308 47.1676C29.037 47.1676 28.8511 47.0894 28.714 46.9502C28.577 46.8109 28.5 46.6221 28.5 46.4252V40.8332C28.5 40.6363 28.577 40.4475 28.714 40.3083C28.8511 40.169 29.037 40.0908 29.2308 40.0908C29.4246 40.0908 29.6105 40.169 29.7475 40.3083C29.8846 40.4475 29.9615 40.6363 29.9615 40.8332V46.4252C29.9615 46.6221 29.8846 46.8109 29.7475 46.9502C29.6105 47.0894 29.4246 47.1676 29.2308 47.1676ZM33.6154 47.1676C33.4216 47.1676 33.2357 47.0894 33.0987 46.9502C32.9616 46.8109 32.8846 46.6221 32.8846 46.4252V40.8332C32.8846 40.6363 32.9616 40.4475 33.0987 40.3083C33.2357 40.169 33.4216 40.0908 33.6154 40.0908C33.8092 40.0908 33.9951 40.169 34.1321 40.3083C34.2692 40.4475 34.3462 40.6363 34.3462 40.8332V46.4252C34.3462 46.6221 34.2692 46.8109 34.1321 46.9502C33.9951 47.0894 33.8092 47.1676 33.6154 47.1676ZM38 47.1676C37.8062 47.1676 37.6203 47.0894 37.4833 46.9502C37.3462 46.8109 37.2692 46.6221 37.2692 46.4252V40.8332C37.2692 40.6363 37.3462 40.4475 37.4833 40.3083C37.6203 40.169 37.8062 40.0908 38 40.0908C38.1938 40.0908 38.3797 40.169 38.5167 40.3083C38.6538 40.4475 38.7308 40.6363 38.7308 40.8332V46.4252C38.7308 46.6221 38.6538 46.8109 38.5167 46.9502C38.3797 47.0894 38.1938 47.1676 38 47.1676ZM42.3846 47.1676C42.1908 47.1676 42.0049 47.0894 41.8679 46.9502C41.7308 46.8109 41.6539 46.6221 41.6539 46.4252V40.8332C41.6539 40.6363 41.7308 40.4475 41.8679 40.3083C42.0049 40.169 42.1908 40.0908 42.3846 40.0908C42.5784 40.0908 42.7643 40.169 42.9014 40.3083C43.0384 40.4475 43.1154 40.6363 43.1154 40.8332V46.4252C43.1154 46.6221 43.0384 46.8109 42.9014 46.9502C42.7643 47.0894 42.5784 47.1676 42.3846 47.1676ZM46.7692 47.1676C46.5754 47.1676 46.3896 47.0894 46.2525 46.9502C46.1155 46.8109 46.0385 46.6221 46.0385 46.4252V40.8332C46.0385 40.6363 46.1155 40.4475 46.2525 40.3083C46.3896 40.169 46.5754 40.0908 46.7692 40.0908C46.9631 40.0908 47.1489 40.169 47.286 40.3083C47.423 40.4475 47.5 40.6363 47.5 40.8332V46.4252C47.5 46.6221 47.423 46.8109 47.286 46.9502C47.1489 47.0894 46.9631 47.1676 46.7692 47.1676ZM51.1539 47.1676C50.96 47.1676 50.7742 47.0894 50.6371 46.9502C50.5001 46.8109 50.4231 46.6221 50.4231 46.4252V40.8332C50.4231 40.6363 50.5001 40.4475 50.6371 40.3083C50.7742 40.169 50.96 40.0908 51.1539 40.0908C51.3477 40.0908 51.5335 40.169 51.6706 40.3083C51.8076 40.4475 51.8846 40.6363 51.8846 40.8332V46.4252C51.8846 46.6221 51.8076 46.8109 51.6706 46.9502C51.5335 47.0894 51.3477 47.1676 51.1539 47.1676ZM55.5385 47.1676C55.3447 47.1676 55.1588 47.0894 55.0217 46.9502C54.8847 46.8109 54.8077 46.6221 54.8077 46.4252V40.8332C54.8077 40.6363 54.8847 40.4475 55.0217 40.3083C55.1588 40.169 55.3447 40.0908 55.5385 40.0908C55.7323 40.0908 55.9182 40.169 56.0552 40.3083C56.1922 40.4475 56.2692 40.6363 56.2692 40.8332V46.4252C56.2692 46.6221 56.1922 46.8109 56.0552 46.9502C55.9182 47.0894 55.7323 47.1676 55.5385 47.1676ZM59.9231 47.1676C59.7293 47.1676 59.5434 47.0894 59.4064 46.9502C59.2693 46.8109 59.1923 46.6221 59.1923 46.4252V40.8332C59.1923 40.6363 59.2693 40.4475 59.4064 40.3083C59.5434 40.169 59.7293 40.0908 59.9231 40.0908C60.1169 40.0908 60.3028 40.169 60.4398 40.3083C60.5769 40.4475 60.6539 40.6363 60.6539 40.8332V46.4252C60.6539 46.6221 60.5769 46.8109 60.4398 46.9502C60.3028 47.0894 60.1169 47.1676 59.9231 47.1676ZM64.3077 47.1676C64.1139 47.1676 63.928 47.0894 63.791 46.9502C63.6539 46.8109 63.5769 46.6221 63.5769 46.4252V40.8332C63.5769 40.6363 63.6539 40.4475 63.791 40.3083C63.928 40.169 64.1139 40.0908 64.3077 40.0908C64.5015 40.0908 64.6874 40.169 64.8244 40.3083C64.9615 40.4475 65.0385 40.6363 65.0385 40.8332V46.4252C65.0385 46.6221 64.9615 46.8109 64.8244 46.9502C64.6874 47.0894 64.5015 47.1676 64.3077 47.1676ZM68.6923 47.1676C68.4985 47.1676 68.3126 47.0894 68.1756 46.9502C68.0385 46.8109 67.9615 46.6221 67.9615 46.4252V40.8332C67.9615 40.6363 68.0385 40.4475 68.1756 40.3083C68.3126 40.169 68.4985 40.0908 68.6923 40.0908C68.8861 40.0908 69.072 40.169 69.209 40.3083C69.3461 40.4475 69.4231 40.6363 69.4231 40.8332V46.4252C69.4231 46.6221 69.3461 46.8109 69.209 46.9502C69.072 47.0894 68.8861 47.1676 68.6923 47.1676Z" fill="black"/>
<path d="M73.0769 37.8638L71.6154 40.8335L4.38607 40.8364L2.92307 37.8638H73.0769Z" fill="#FDD3B0"/>
<path d="M3.93446 41.5789L1.74069 37.1213H74.2578L72.0655 41.5759L3.93446 41.5789ZM4.10546 38.6062L4.83769 40.094L71.1638 40.091L71.8945 38.6062H4.10546Z" fill="#FDD3B0"/>
<path d="M70.8846 41.5757H4.80847C4.61465 41.5757 4.42878 41.4974 4.29173 41.3582C4.15469 41.219 4.0777 41.0301 4.0777 40.8332C4.0777 40.6363 4.15469 40.4475 4.29173 40.3083C4.42878 40.169 4.61465 40.0908 4.80847 40.0908H70.8846C71.0784 40.0908 71.2643 40.169 71.4014 40.3083C71.5384 40.4475 71.6154 40.6363 71.6154 40.8332C71.6154 41.0301 71.5384 41.219 71.4014 41.3582C71.2643 41.4974 71.0784 41.5757 70.8846 41.5757Z" fill="black"/>
<path d="M68.6923 47.5153H7.3077C7.1721 47.5153 7.03917 47.4769 6.9238 47.4046C6.80842 47.3322 6.71514 47.2286 6.65439 47.1055L2.26977 38.1964C2.21479 38.0831 2.18905 37.9575 2.19495 37.8313C2.20085 37.7052 2.23821 37.5826 2.30352 37.4751C2.36883 37.3677 2.45995 37.2788 2.56832 37.2169C2.67669 37.1551 2.79877 37.1222 2.92308 37.1213H73.0769C73.2017 37.1207 73.3245 37.1525 73.4336 37.2139C73.5427 37.2753 73.6344 37.3642 73.7 37.4719C73.7656 37.5797 73.8028 37.7028 73.8081 37.8294C73.8134 37.956 73.7866 38.0819 73.7302 38.1949L69.3456 47.104C69.2851 47.2274 69.1919 47.3313 69.0765 47.4039C68.9611 47.4766 68.8281 47.5151 68.6923 47.5153ZM7.75931 46.0304H68.2422L71.896 38.6062H4.10547L7.75931 46.0304Z" fill="black"/>
<path d="M4.47668 73.5H27.7692L24.8461 77.9545H7.39976L4.47668 73.5ZM48.3228 73.5H71.6154L68.6923 77.9545H51.2459L48.3228 73.5Z" fill="#DEA683"/>
<path d="M68.6923 77.9545L71.6154 73.5H68.6923L65.7692 77.9545H68.6923ZM24.8461 77.9545L27.7692 73.5H24.8461L21.9231 77.9545H24.8461Z" fill="#EEE1CC"/>
<path d="M24.8462 78.697H7.39977C7.27945 78.6968 7.16103 78.6665 7.05498 78.6087C6.94894 78.551 6.85853 78.4675 6.79177 78.3658L3.86869 73.9113C3.79494 73.7996 3.7525 73.6696 3.74593 73.5353C3.73935 73.401 3.76889 73.2674 3.83138 73.1488C3.89386 73.0302 3.98694 72.9312 4.10062 72.8622C4.2143 72.7933 4.34431 72.7571 4.47669 72.7576H27.7692C27.9016 72.7575 28.0316 72.7939 28.1452 72.863C28.2588 72.9321 28.3518 73.0313 28.4143 73.1499C28.4767 73.2686 28.5062 73.4022 28.4997 73.5366C28.4932 73.6709 28.4509 73.801 28.3772 73.9128L25.4542 78.3673C25.387 78.4686 25.2965 78.5515 25.1905 78.609C25.0845 78.6665 24.9663 78.6967 24.8462 78.697ZM7.79 77.2121H24.4545L26.4027 74.2424H5.84177L7.79 77.2121ZM68.6923 78.697H51.2459C51.1256 78.6968 51.0072 78.6665 50.9011 78.6087C50.7951 78.551 50.7047 78.4675 50.6379 78.3658L47.7148 73.9113C47.6411 73.7996 47.5987 73.6696 47.5921 73.5353C47.5855 73.401 47.615 73.2674 47.6775 73.1488C47.74 73.0302 47.8331 72.9312 47.9468 72.8622C48.0605 72.7933 48.1905 72.7571 48.3228 72.7576H71.6154C71.7478 72.7575 71.8778 72.7939 71.9914 72.863C72.105 72.9321 72.198 73.0313 72.2604 73.1499C72.3229 73.2686 72.3524 73.4022 72.3459 73.5366C72.3393 73.6709 72.297 73.801 72.2234 73.9128L69.3003 78.3673C69.2332 78.4686 69.1427 78.5515 69.0367 78.609C68.9307 78.6665 68.8125 78.6967 68.6923 78.697ZM51.6362 77.2121H68.3006L70.2488 74.2424H49.6879L51.6362 77.2121Z" fill="black"/>
<path d="M13.1538 92.803H19V97.2575H13.1538V92.803Z" fill="#DEA683"/>
<path d="M19 98.0001H13.1538C12.96 98.0001 12.7741 97.9218 12.6371 97.7826C12.5001 97.6434 12.4231 97.4545 12.4231 97.2576V92.8031C12.4231 92.6062 12.5001 92.4173 12.6371 92.2781C12.7741 92.1389 12.96 92.0607 13.1538 92.0607H19C19.1938 92.0607 19.3797 92.1389 19.5167 92.2781C19.6538 92.4173 19.7308 92.6062 19.7308 92.8031V97.2576C19.7308 97.4545 19.6538 97.6434 19.5167 97.7826C19.3797 97.9218 19.1938 98.0001 19 98.0001ZM13.8846 96.5152H18.2692V93.5455H13.8846V96.5152ZM45.3077 98.0001H30.6923C30.4985 98.0001 30.3126 97.9218 30.1756 97.7826C30.0385 97.6434 29.9615 97.4545 29.9615 97.2576V63.1061C29.9615 58.6041 33.5686 54.9395 38 54.9395C42.4314 54.9395 46.0384 58.6041 46.0384 63.1061V97.2576C46.0384 97.4545 45.9615 97.6434 45.8244 97.7826C45.6874 97.9218 45.5015 98.0001 45.3077 98.0001ZM31.4231 96.5152H44.5769V63.1061C44.5769 59.4222 41.6261 56.4243 38 56.4243C36.2563 56.4263 34.5845 57.1309 33.3515 58.3835C32.1185 59.6362 31.425 61.3346 31.4231 63.1061V96.5152Z" fill="black"/>
<path d="M32.1539 74.2426H26.6731C26.4793 74.2426 26.2934 74.1643 26.1563 74.0251C26.0193 73.8859 25.9423 73.697 25.9423 73.5001C25.9423 73.3032 26.0193 73.1144 26.1563 72.9752C26.2934 72.8359 26.4793 72.7577 26.6731 72.7577H32.1539C32.3477 72.7577 32.5335 72.8359 32.6706 72.9752C32.8076 73.1144 32.8846 73.3032 32.8846 73.5001C32.8846 73.697 32.8076 73.8859 32.6706 74.0251C32.5335 74.1643 32.3477 74.2426 32.1539 74.2426ZM49.3269 74.2426H43.8462C43.6523 74.2426 43.4665 74.1643 43.3294 74.0251C43.1924 73.8859 43.1154 73.697 43.1154 73.5001C43.1154 73.3032 43.1924 73.1144 43.3294 72.9752C43.4665 72.8359 43.6523 72.7577 43.8462 72.7577H49.3269C49.5207 72.7577 49.7066 72.8359 49.8437 72.9752C49.9807 73.1144 50.0577 73.3032 50.0577 73.5001C50.0577 73.697 49.9807 73.8859 49.8437 74.0251C49.7066 74.1643 49.5207 74.2426 49.3269 74.2426ZM32.1539 63.8486H5.84616C5.65234 63.8486 5.46647 63.7704 5.32942 63.6312C5.19238 63.4919 5.11539 63.3031 5.11539 63.1062C5.11539 62.9093 5.19238 62.7205 5.32942 62.5812C5.46647 62.442 5.65234 62.3638 5.84616 62.3638H32.1539C32.3477 62.3638 32.5335 62.442 32.6706 62.5812C32.8076 62.7205 32.8846 62.9093 32.8846 63.1062C32.8846 63.3031 32.8076 63.4919 32.6706 63.6312C32.5335 63.7704 32.3477 63.8486 32.1539 63.8486ZM70.1539 63.8486H43.8462C43.6523 63.8486 43.4665 63.7704 43.3294 63.6312C43.1924 63.4919 43.1154 63.3031 43.1154 63.1062C43.1154 62.9093 43.1924 62.7205 43.3294 62.5812C43.4665 62.442 43.6523 62.3638 43.8462 62.3638H70.1539C70.3477 62.3638 70.5335 62.442 70.6706 62.5812C70.8076 62.7205 70.8846 62.9093 70.8846 63.1062C70.8846 63.3031 70.8076 63.4919 70.6706 63.6312C70.5335 63.7704 70.3477 63.8486 70.1539 63.8486Z" fill="black"/>
<path d="M39.4615 51.2273H51.1539V46.7727H24.8462V51.2273H36.5385V57.1666H39.4615V51.2273Z" fill="#FDD3B0"/>
<path d="M24.8462 46.7727H51.1539V49H24.8462V46.7727Z" fill="#F0B895"/>
<path d="M39.4615 57.9091H36.5385C36.3447 57.9091 36.1588 57.8308 36.0217 57.6916C35.8847 57.5524 35.8077 57.3635 35.8077 57.1666V51.9697H24.8462C24.6523 51.9697 24.4665 51.8914 24.3294 51.7522C24.1924 51.613 24.1154 51.4241 24.1154 51.2272V46.7727C24.1154 46.5758 24.1924 46.387 24.3294 46.2477C24.4665 46.1085 24.6523 46.0303 24.8462 46.0303H51.1538C51.3477 46.0303 51.5335 46.1085 51.6706 46.2477C51.8076 46.387 51.8846 46.5758 51.8846 46.7727V51.2272C51.8846 51.4241 51.8076 51.613 51.6706 51.7522C51.5335 51.8914 51.3477 51.9697 51.1538 51.9697H40.1923V57.1666C40.1923 57.3635 40.1153 57.5524 39.9783 57.6916C39.8412 57.8308 39.6553 57.9091 39.4615 57.9091ZM37.2692 56.4242H38.7308V51.2272C38.7308 51.0303 38.8078 50.8415 38.9448 50.7023C39.0819 50.563 39.2677 50.4848 39.4615 50.4848H50.4231V47.5151H25.5769V50.4848H36.5385C36.7323 50.4848 36.9181 50.563 37.0552 50.7023C37.1922 50.8415 37.2692 51.0303 37.2692 51.2272V56.4242ZM75.2692 98H0.730769C0.536957 98 0.351083 97.9218 0.214037 97.7825C0.0769917 97.6433 0 97.4545 0 97.2575C0 97.0606 0.0769917 96.8718 0.214037 96.7326C0.351083 96.5933 0.536957 96.5151 0.730769 96.5151H75.2692C75.463 96.5151 75.6489 96.5933 75.786 96.7326C75.923 96.8718 76 97.0606 76 97.2575C76 97.4545 75.923 97.6433 75.786 97.7825C75.6489 97.9218 75.463 98 75.2692 98Z" fill="black"/>
</g>
<defs>
<clipPath id="clip0_47_7960">
<rect width="76" height="98" fill="white"/>
</clipPath>
</defs>
</svg>
