<svg width="46" height="41" viewBox="0 0 46 41" fill="none" xmlns="http://www.w3.org/2000/svg">
<g clip-path="url(#clip0_47_6314)">
<path d="M46 2.03266C46 14.3841 46 26.7235 46 39.0749C45.6889 40.3065 44.8993 40.9522 43.6073 41.012C43.4637 41.0239 43.3082 41.012 43.1646 41.012C29.7415 41.012 16.3064 41.012 2.88322 41.012C2.45254 41.012 2.02185 40.988 1.60312 40.8446C0.657997 40.5337 0.0717815 39.7804 0.0239272 38.776C0.0239272 38.6565 0.0239272 38.5369 0.0239272 38.4173C0.0239272 26.4724 0.0478544 14.5395 0 2.59463C0 0.789151 1.32796 0 2.5961 0C11.9157 0 21.2234 0 30.543 0C31.3326 0 31.6078 0.215223 31.7514 0.848936C31.6198 1.39895 31.4164 1.59026 30.878 1.61417C30.6746 1.62613 30.4593 1.61417 30.2559 1.61417C21.2114 1.61417 12.167 1.61417 3.1225 1.61417C1.74668 1.61417 1.56723 1.79353 1.56723 3.15661C1.56723 3.82619 1.56723 4.49577 1.56723 5.17731C1.56723 5.35666 1.5433 5.53602 1.65098 5.70341C1.84239 5.90668 2.10559 5.83494 2.3329 5.83494C11.9157 5.83494 21.4986 5.83494 31.0694 5.83494C35.1012 5.83494 39.1449 5.83494 43.1766 5.83494C43.4876 5.83494 43.7987 5.81102 44.1217 5.81102C44.3729 5.81102 44.5165 5.71537 44.5165 5.44036C44.5165 4.43599 44.5644 3.44357 44.4926 2.4392C44.4567 1.96092 44.1935 1.72178 43.7269 1.63809C43.4876 1.60222 43.2484 1.60222 43.0091 1.60222C40.0302 1.60222 37.0632 1.61417 34.0843 1.60222C33.6177 1.54243 33.4023 1.24351 33.3425 0.801108C33.4502 0.298921 33.6416 0.0956547 34.1202 0.0239137C34.2518 0 34.3834 0 34.5269 0C37.5298 0 40.5326 0 43.5355 0C44.2772 0 44.9352 0.22718 45.4736 0.777195C45.8086 1.14786 45.9282 1.56635 46 2.03266Z" fill="black"/>
<path d="M14.1769 17.2179C14.6434 17.1222 14.787 16.8233 14.787 16.3689C14.775 13.4873 14.787 10.6057 14.775 7.72414C14.775 7.4013 14.8229 7.26978 15.1938 7.26978C24.5014 7.28173 33.8211 7.28173 43.1287 7.28173C43.2484 7.28173 43.368 7.29369 43.4877 7.30565C43.6791 7.53283 43.6312 7.81979 43.6312 8.08284C43.6312 10.9405 43.6312 13.7863 43.6312 16.6439C43.6312 23.83 43.6312 31.0161 43.6312 38.2021C43.6312 39.4576 43.6193 39.4695 42.3631 39.4695C33.3665 39.4695 24.3698 39.4695 15.3732 39.4695C14.7631 39.4695 14.8229 39.5413 14.8229 38.9195C14.8229 33.3118 14.8229 27.716 14.8229 22.1082C14.8229 21.9289 14.8468 21.7495 14.799 21.5702C14.799 20.9604 14.775 20.3625 14.787 19.7527C14.787 19.2984 14.5956 19.0233 14.141 18.9396C13.9496 18.3657 13.9256 17.7918 14.1769 17.2179Z" fill="#F7F5F5"/>
<path d="M2.18933 39.4337C1.69882 39.3261 1.44759 39.063 1.4117 38.5967C1.39973 38.4771 1.4117 38.3576 1.4117 38.238C1.4117 28.0866 1.4117 17.9233 1.39973 7.77196C1.39973 7.35347 1.51937 7.26978 1.91417 7.26978C5.27594 7.28173 8.63771 7.28173 11.9995 7.28173C12.143 7.28173 12.2986 7.29369 12.4421 7.30565C12.6216 7.52087 12.5857 7.78392 12.5857 8.03501C12.5857 10.4264 12.5857 12.8177 12.5857 15.2091C12.5857 22.9811 12.5857 30.753 12.5857 38.513C12.5857 39.4576 12.5857 39.4576 11.6406 39.4576C8.64967 39.4576 5.65877 39.4576 2.66787 39.4576C2.51235 39.4695 2.34486 39.4935 2.18933 39.4337Z" fill="#FC7F86"/>
<path d="M31.6557 0.86084C32.2419 0.86084 32.84 0.86084 33.4263 0.86084C33.4861 1.19563 33.6655 1.41085 33.9886 1.50651C34.1919 1.56629 34.4073 1.53042 34.6107 1.53042C37.3742 1.53042 40.1378 1.53042 42.9014 1.53042C43.4278 1.53042 43.5116 1.60216 43.6312 2.11631C43.7987 2.82176 43.715 3.53917 43.7269 4.25658C43.7389 4.67507 43.7389 5.09356 43.715 5.51205C43.703 5.79901 43.5834 5.96641 43.2723 5.91858C43.1886 5.90663 43.0928 5.91858 43.0091 5.91858C29.3347 5.91858 15.6603 5.91858 1.98595 5.91858C1.8065 5.91858 1.62704 5.96641 1.45955 5.88271C1.38777 4.71094 1.42366 3.52721 1.43563 2.34349C1.43563 1.90108 1.78257 1.57825 2.23719 1.51847C2.41664 1.49455 2.59609 1.50651 2.77555 1.50651C12.0713 1.50651 21.367 1.50651 30.6627 1.50651C31.3566 1.50651 31.4403 1.44672 31.6557 0.86084Z" fill="#B2D9FD"/>
<path d="M14.799 21.5821C14.9306 21.7375 14.8707 21.9288 14.8707 22.0962C14.8707 27.6801 14.8827 33.2759 14.8588 38.8597C14.8588 39.3141 14.9665 39.4337 15.433 39.4337C24.5373 39.4217 33.6416 39.4217 42.7459 39.4217C43.4278 39.4217 43.4996 39.3619 43.4996 38.6445C43.4996 36.2412 43.4996 33.8379 43.4996 31.4226C43.4996 23.3876 43.4996 15.3406 43.4996 7.30563C44.6601 7.19802 44.6601 7.19802 44.6601 8.31C44.6601 18.282 44.6601 28.2421 44.6601 38.2141C44.6601 39.2065 44.373 39.4934 43.38 39.4934C33.9886 39.4934 24.5971 39.4934 15.2057 39.5054C14.9545 39.5054 14.7631 39.5293 14.775 39.1586C14.787 33.3476 14.787 27.5366 14.787 21.7136C14.775 21.6658 14.787 21.618 14.799 21.5821Z" fill="#EAEAEA"/>
<path d="M2.18933 39.4337C5.35968 39.4337 8.53003 39.4217 11.7004 39.4217C12.5498 39.4217 12.4421 39.5293 12.4421 38.6924C12.4421 28.2301 12.4421 17.7679 12.4421 7.30566C13.4351 7.21 13.4351 7.21 13.4351 8.17851C13.4351 10.9047 13.4351 13.6308 13.4351 16.357C13.4351 16.9309 13.6146 17.1342 14.1768 17.2059C14.1649 17.7798 14.1529 18.3657 14.141 18.9397C13.5787 19.0592 13.4351 19.2386 13.4351 19.8843C13.4351 26.2333 13.4351 32.5824 13.4471 38.9315C13.4471 39.3739 13.3633 39.5054 12.8967 39.4935C9.49908 39.4696 6.11339 39.4815 2.71573 39.4815C2.53628 39.4935 2.35682 39.5413 2.18933 39.4337Z" fill="#FD646F"/>
<path d="M1.4476 5.88279C6.60391 5.88279 11.7602 5.87084 16.9165 5.87084C25.626 5.87084 34.3475 5.87084 43.057 5.88279C43.4518 5.88279 43.6193 5.7991 43.5834 5.36865C43.5235 4.30449 43.6671 3.22838 43.4996 2.15226C43.4398 1.72181 43.2603 1.56638 42.8057 1.56638C40.0421 1.59029 37.2786 1.57833 34.515 1.57833C34.3475 1.57833 34.1561 1.63812 34.0005 1.50659C37.1948 1.50659 40.401 1.50659 43.5953 1.50659C44.3131 1.50659 44.6601 1.8653 44.6601 2.58271C44.6601 3.55121 44.6481 4.53167 44.672 5.50018C44.684 5.85888 44.5763 5.94258 44.2294 5.94258C38.1758 5.93062 32.1222 5.94258 26.0687 5.94258C18.0052 5.94258 9.95371 5.94258 1.89025 5.93062C1.73473 5.93062 1.5792 5.97845 1.4476 5.88279Z" fill="#89C8FD"/>
<path d="M25.0996 19.3342C27.5402 19.3342 29.9688 19.3342 32.4094 19.3342C32.529 19.3342 32.6486 19.3222 32.7683 19.3461C33.1152 19.4059 33.3425 19.5972 33.3664 19.9679C33.3904 20.3625 33.175 20.5777 32.8161 20.6733C32.7084 20.6972 32.5768 20.6853 32.4572 20.6853C27.5402 20.6853 22.6231 20.6853 17.7061 20.6853C17.5745 20.6853 17.4309 20.6972 17.2993 20.6614C16.9524 20.5777 16.749 20.3385 16.761 19.9798C16.7729 19.6211 16.9883 19.4059 17.3352 19.3461C17.4668 19.3222 17.5984 19.3342 17.742 19.3342C20.1945 19.3342 22.6471 19.3342 25.0996 19.3342Z" fill="black"/>
<path d="M29.239 29.4496C31.5599 29.4496 33.8689 29.4496 36.1899 29.4496C36.3215 29.4496 36.465 29.4377 36.5966 29.4616C36.9196 29.4975 37.1111 29.6888 37.1589 30.0116C37.2068 30.3464 37.0752 30.5855 36.7641 30.729C36.5847 30.8127 36.3813 30.8008 36.1899 30.8008C31.5599 30.8008 26.93 30.8008 22.3001 30.8008C22.1566 30.8008 22.001 30.8127 21.8575 30.7769C21.4866 30.6932 21.2832 30.454 21.3071 30.0714C21.3311 29.7007 21.5584 29.4736 21.9532 29.4616C22.4198 29.4496 22.8744 29.4616 23.341 29.4616C25.291 29.4496 27.265 29.4496 29.239 29.4496Z" fill="black"/>
<path d="M21.4387 27.417C20.1586 27.417 18.8666 27.417 17.5865 27.417C17.072 27.417 16.761 27.1659 16.761 26.7475C16.761 26.3409 17.072 26.0659 17.5865 26.0659C20.1586 26.0659 22.7189 26.0659 25.291 26.0659C25.8055 26.0659 26.1045 26.3409 26.0926 26.7594C26.0806 27.1659 25.7935 27.4051 25.291 27.4051C24.0109 27.417 22.7189 27.417 21.4387 27.417Z" fill="black"/>
<path d="M21.4148 37.5325C20.1347 37.5325 18.8427 37.5325 17.5626 37.5325C17.0481 37.5325 16.7131 37.2096 16.761 36.7911C16.7969 36.4205 17.096 36.1933 17.5626 36.1933C19.8596 36.1933 22.1566 36.1933 24.4536 36.1933C24.7527 36.1933 25.0518 36.1813 25.3508 36.1933C25.8055 36.2053 26.0806 36.4683 26.0806 36.8629C26.0806 37.2575 25.7935 37.5325 25.3508 37.5325C24.0468 37.5444 22.7308 37.5325 21.4148 37.5325Z" fill="black"/>
<path d="M37.9844 27.417C36.7163 27.417 35.4481 27.417 34.18 27.417C33.6536 27.417 33.3545 27.1779 33.3545 26.7594C33.3545 26.3409 33.6536 26.0779 34.168 26.0779C36.7402 26.0779 39.3004 26.0779 41.8726 26.0779C42.387 26.0779 42.6981 26.3529 42.6861 26.7714C42.6741 27.166 42.375 27.417 41.8845 27.429C40.5805 27.417 39.2884 27.417 37.9844 27.417Z" fill="black"/>
<path d="M21.4387 34.1487C20.1586 34.1487 18.8666 34.1487 17.5865 34.1487C17.072 34.1487 16.761 33.8857 16.7729 33.4672C16.7849 33.0726 17.084 32.8096 17.5745 32.7976C20.1467 32.7976 22.7189 32.7976 25.291 32.7976C25.8174 32.7976 26.1045 33.0607 26.1045 33.4911C26.0926 33.9096 25.8055 34.1368 25.2671 34.1368C23.975 34.1487 22.7069 34.1487 21.4387 34.1487Z" fill="black"/>
<path d="M25.1475 9.94813C25.1116 10.0557 25.0757 10.2112 25.0159 10.3666C24.1784 12.483 23.341 14.5993 22.4916 16.7037C22.2882 17.2179 21.9412 17.4092 21.5345 17.2538C21.1636 17.0983 21.044 16.7157 21.2354 16.2255C22.0848 14.0732 22.9581 11.921 23.8075 9.75682C23.9511 9.39811 24.1784 9.17093 24.5852 9.23072C24.9321 9.2905 25.1235 9.54159 25.1475 9.94813Z" fill="black"/>
<path d="M27.0258 9.5535C27.3129 9.54154 27.5043 9.69698 27.6359 9.93612C28.2101 10.8927 28.7964 11.8492 29.3706 12.8058C29.5261 13.0688 29.5381 13.3438 29.3826 13.6069C28.7964 14.6112 28.2221 15.6156 27.6239 16.62C27.3966 17.0026 27.0138 17.0983 26.6668 16.883C26.3558 16.6917 26.2601 16.3091 26.4635 15.9385C26.93 15.1254 27.3966 14.3123 27.8752 13.5112C28.0068 13.284 27.9948 13.1286 27.8632 12.9134C27.3847 12.1601 26.93 11.3949 26.4754 10.6177C26.2003 10.1035 26.4874 9.5535 27.0258 9.5535Z" fill="black"/>
<path d="M19.2135 9.55354C19.7638 9.54158 20.0749 10.0916 19.7878 10.6057C19.3571 11.359 18.9144 12.1003 18.4479 12.8297C18.2564 13.1286 18.2684 13.3319 18.4479 13.6308C18.9025 14.3602 19.3212 15.1254 19.7519 15.8787C20.0031 16.3211 19.9313 16.6918 19.5844 16.895C19.2255 17.1103 18.8427 16.9907 18.5795 16.5363C18.0172 15.5798 17.4788 14.6232 16.9165 13.6786C16.7251 13.3558 16.7251 13.0808 16.9165 12.758C17.4908 11.8373 18.0411 10.8927 18.6034 9.96007C18.7469 9.72093 18.9264 9.56549 19.2135 9.55354Z" fill="black"/>
<path d="M29.7056 27.417C29.2271 27.417 28.7485 27.4289 28.27 27.417C27.8512 27.405 27.5761 27.142 27.5641 26.7713C27.5521 26.4007 27.8273 26.0898 28.246 26.0898C29.2271 26.0778 30.22 26.0778 31.201 26.0898C31.6078 26.1017 31.8949 26.4007 31.8949 26.7713C31.8949 27.142 31.6078 27.417 31.1891 27.4289C30.6866 27.417 30.1961 27.417 29.7056 27.417Z" fill="black"/>
<path d="M29.6936 34.1487C29.2151 34.1487 28.7365 34.1607 28.258 34.1487C27.8393 34.1368 27.5641 33.8737 27.5522 33.4911C27.5522 33.1324 27.8034 32.8215 28.1982 32.8215C29.2151 32.7976 30.232 32.7976 31.2489 32.8215C31.6317 32.8335 31.8949 33.1563 31.883 33.5031C31.871 33.8737 31.5958 34.1368 31.1652 34.1487C30.6747 34.1607 30.1841 34.1487 29.6936 34.1487Z" fill="#010101"/>
<path d="M25.3987 24.0452C24.9321 24.0452 24.4775 24.0571 24.0109 24.0452C23.5443 24.0332 23.2692 23.7821 23.2692 23.3875C23.2692 22.993 23.5324 22.718 23.999 22.718C24.956 22.706 25.9131 22.706 26.8702 22.718C27.3129 22.7299 27.612 23.0169 27.6 23.3995C27.588 23.7821 27.3009 24.0452 26.8463 24.0571C26.3558 24.0571 25.8772 24.0452 25.3987 24.0452Z" fill="#010101"/>
<path d="M18.9623 22.706C19.4289 22.706 19.8835 22.694 20.3501 22.706C20.8286 22.718 21.0799 22.969 21.0799 23.3756C21.0799 23.7821 20.8167 24.0332 20.3501 24.0452C19.4049 24.0571 18.4718 24.0571 17.5267 24.0452C17.0481 24.0452 16.749 23.7462 16.761 23.3517C16.773 22.969 17.0601 22.718 17.5267 22.706C18.0052 22.694 18.4838 22.706 18.9623 22.706Z" fill="#010101"/>
<path d="M18.3521 29.4616C18.6632 29.4616 18.9742 29.4497 19.2853 29.4616C19.6442 29.4855 19.8596 29.7007 19.8954 30.0595C19.9313 30.4182 19.7638 30.7051 19.4049 30.753C18.6991 30.8606 17.9813 30.8486 17.2754 30.753C16.9285 30.7051 16.7371 30.4182 16.7729 30.0714C16.8088 29.7008 17.0242 29.4736 17.419 29.4616C17.7181 29.4497 18.0291 29.4616 18.3521 29.4616Z" fill="#010101"/>
<path d="M5.9818 10.5579C5.61093 10.5579 5.24006 10.5699 4.86919 10.5579C4.47439 10.546 4.21119 10.2949 4.18726 9.93616C4.1753 9.57746 4.40261 9.25462 4.79741 9.24267C5.59897 9.21875 6.41249 9.21875 7.21405 9.24267C7.59689 9.25462 7.83616 9.58942 7.80027 9.96008C7.76438 10.3427 7.53707 10.5579 7.15423 10.5699C6.75943 10.5699 6.3766 10.5579 5.9818 10.5579Z" fill="#010000"/>
<path d="M6.02965 12.6025C6.40052 12.6025 6.77139 12.5905 7.14226 12.6025C7.5251 12.6144 7.75241 12.8297 7.7883 13.2123C7.82419 13.5829 7.58492 13.9058 7.20208 13.9297C6.40052 13.9536 5.587 13.9536 4.78544 13.9297C4.4026 13.9177 4.16333 13.5949 4.17529 13.2362C4.18726 12.8775 4.45046 12.6264 4.85722 12.6144C5.25202 12.5905 5.64682 12.6025 6.02965 12.6025Z" fill="#010000"/>
<path d="M6.01769 17.3016C5.63485 17.3016 5.24005 17.3135 4.85722 17.3016C4.45046 17.2777 4.19922 17.0266 4.18726 16.6679C4.17529 16.2972 4.41457 15.9983 4.80936 15.9863C5.59896 15.9624 6.38856 15.9624 7.17815 15.9863C7.58492 15.9983 7.81222 16.2972 7.80026 16.6679C7.7883 17.0385 7.54903 17.2896 7.14226 17.3016C6.75943 17.3135 6.38856 17.3016 6.01769 17.3016Z" fill="#010101"/>
<path d="M5.95786 27.417C5.58699 27.417 5.21612 27.429 4.84525 27.417C4.45045 27.4051 4.19922 27.1301 4.18725 26.7714C4.17529 26.4127 4.42652 26.1018 4.82132 26.0898C5.61092 26.0659 6.40052 26.0659 7.19011 26.0898C7.57295 26.1018 7.81222 26.4127 7.80026 26.7833C7.78829 27.154 7.53706 27.4051 7.1303 27.417C6.7355 27.429 6.35266 27.417 5.95786 27.417Z" fill="black"/>
<path d="M6.00572 30.8008C5.64681 30.8008 5.2879 30.8127 4.929 30.8008C4.45045 30.7769 4.16333 30.5019 4.18725 30.0834C4.21118 29.6888 4.48634 29.4616 4.95292 29.4616C5.65878 29.4616 6.35266 29.4497 7.05852 29.4616C7.53706 29.4616 7.78829 29.7007 7.80026 30.1192C7.80026 30.5138 7.53706 30.7769 7.08244 30.8127C7.05852 30.8127 7.02263 30.8127 6.9987 30.8127C6.66372 30.8008 6.32874 30.8008 6.00572 30.8008Z" fill="#010000"/>
<path d="M5.99376 34.1487C5.62288 34.1487 5.25201 34.1607 4.88114 34.1487C4.47438 34.1368 4.21118 33.8976 4.18725 33.5389C4.16333 33.1563 4.41456 32.8454 4.83329 32.8215C5.61092 32.7976 6.38855 32.7976 7.15422 32.8215C7.57295 32.8335 7.81222 33.1444 7.78829 33.527C7.76437 33.8976 7.5251 34.1248 7.10637 34.1487C7.08244 34.1487 7.04655 34.1487 7.02262 34.1487C6.67568 34.1487 6.3407 34.1487 5.99376 34.1487Z" fill="#010000"/>
<path d="M5.99376 37.5325C5.63485 37.5325 5.27594 37.5444 4.91704 37.5325C4.46242 37.5205 4.18726 37.2574 4.17529 36.8629C4.17529 36.4683 4.45046 36.1933 4.90507 36.1933C5.62289 36.1813 6.3407 36.1813 7.05852 36.1933C7.51313 36.1933 7.7883 36.4563 7.7883 36.8509C7.7883 37.2455 7.51313 37.5085 7.05852 37.5325C7.04655 37.5325 7.03459 37.5325 7.01066 37.5325C6.68765 37.5325 6.3407 37.5325 5.99376 37.5325Z" fill="black"/>
<path d="M6.01768 19.3342C6.38855 19.3342 6.75943 19.3223 7.1303 19.3342C7.52509 19.3462 7.77633 19.6212 7.78829 19.9799C7.80026 20.3506 7.54902 20.6495 7.16619 20.6614C6.37659 20.6853 5.58699 20.6853 4.7974 20.6614C4.41456 20.6495 4.16333 20.3386 4.17529 19.9679C4.18725 19.6092 4.45045 19.3462 4.84525 19.3223C5.24005 19.3223 5.63485 19.3342 6.01768 19.3342Z" fill="black"/>
<path d="M5.99376 22.706C6.36463 22.706 6.7355 22.694 7.10637 22.706C7.54903 22.7299 7.7883 22.981 7.7883 23.3636C7.7883 23.7343 7.56099 24.0093 7.14226 24.0212C6.36463 24.0452 5.587 24.0452 4.82133 24.0212C4.41456 24.0093 4.17529 23.7223 4.17529 23.3636C4.17529 22.981 4.42653 22.718 4.86918 22.706C5.25202 22.694 5.62289 22.706 5.99376 22.706Z" fill="#010101"/>
</g>
<defs>
<clipPath id="clip0_47_6314">
<rect width="46" height="41" fill="white"/>
</clipPath>
</defs>
</svg>
