<svg width="98" height="85" viewBox="0 0 98 85" fill="none" xmlns="http://www.w3.org/2000/svg">
<g clip-path="url(#clip0_540_8545)">
<path d="M0 80.9843C0 55.3281 0 29.6719 0 4.01575C0.637191 1.46253 2.34486 0.123943 5.09753 2.97092e-07C5.47984 -0.0247883 5.86216 2.97092e-07 6.24447 2.97092e-07C25.5386 2.97092e-07 44.8073 2.97092e-07 64.1014 2.97092e-07C64.5857 2.97092e-07 65.0445 -0.0247883 65.5287 0.0247889C66.7267 0.123943 67.2619 0.619715 67.4913 1.78478C67.2109 2.92505 66.7521 3.29688 65.6052 3.37125C65.1719 3.39603 64.7131 3.37125 64.2798 3.37125C45.0112 3.37125 25.768 3.37125 6.49935 3.37125C3.56827 3.37125 3.18596 3.74307 3.18596 6.56897C3.18596 7.95713 3.18596 9.34529 3.18596 10.7582C3.18596 11.1301 3.13498 11.5019 3.36437 11.8489C3.77217 12.2703 4.3329 12.1216 4.81716 12.1216C25.2328 12.1216 45.6484 12.1216 66.064 12.1216C74.6533 12.1216 83.2681 12.1216 91.8575 12.1216C92.5202 12.1216 93.1828 12.072 93.871 12.072C94.4062 12.072 94.7121 11.8489 94.7121 11.3036C94.7376 9.27093 94.7886 7.21347 94.6866 5.18081C94.6356 4.13969 94.0494 3.61913 93.0299 3.44561C92.5202 3.37125 92.0104 3.37125 91.5006 3.37125C85.1542 3.37125 78.8333 3.39603 72.4869 3.37125C71.4674 3.22251 71.0086 2.6028 70.9321 1.66083C71.187 0.619715 71.6203 0.247886 72.6653 0.0991546C72.9456 2.96161e-07 73.3025 2.97092e-07 73.6593 2.97092e-07C79.8783 2.97092e-07 86.0718 2.97092e-07 92.2908 2.97092e-07C92.928 2.97092e-07 93.5651 0.0495774 94.1769 0.198309C96.3178 0.69408 97.8216 2.40449 97.949 4.53631C97.9745 4.80898 97.949 5.08166 97.949 5.37912C97.949 30.1429 97.9235 54.8819 98 79.6457C98 83.3392 95.2218 85.0248 92.5456 85C92.1378 85 91.73 85 91.2968 85C63.031 85 34.7906 85 6.52484 85C6.04057 85 5.55631 85 5.09753 85C2.34486 84.8761 0.637191 83.5375 0 80.9843Z" fill="black"/>
<path d="M30.0499 35.6955C31.044 35.4972 31.3498 34.8775 31.3498 33.9356C31.3243 27.9615 31.3498 21.9875 31.3243 16.0134C31.3243 15.3441 31.4263 15.0715 32.2164 15.0715C52.0458 15.0962 71.9007 15.0962 91.7301 15.0962C91.9849 15.0962 92.2398 15.121 92.4947 15.1458C92.9025 15.6168 92.8005 16.2117 92.8005 16.7571C92.8005 22.6815 92.8005 28.5812 92.8005 34.5057C92.8005 49.4036 92.8005 64.3016 92.8005 79.1995C92.8005 81.8023 92.775 81.8271 90.0988 81.8271C70.9321 81.8271 51.7654 81.8271 32.5987 81.8271C31.2988 81.8271 31.4263 81.9758 31.4263 80.6868C31.4263 67.6976 31.4263 54.7332 31.4263 41.744C31.4263 41.3721 31.4773 41.0003 31.3753 40.6285C31.2479 39.86 30.7891 39.389 29.9735 39.2651C29.5912 38.0752 29.5402 36.8854 30.0499 35.6955Z" fill="#F7F5F5"/>
<path d="M4.5368 81.7527C3.49181 81.5296 2.95656 80.9843 2.8801 80.0175C2.85461 79.7696 2.8801 79.5217 2.8801 79.2738C2.8801 58.2284 2.8801 37.1581 2.85461 16.1126C2.85461 15.245 3.10949 15.0715 3.95058 15.0715C11.1126 15.0962 18.2746 15.0962 25.4367 15.0962C25.7425 15.0962 26.0739 15.121 26.3797 15.1458C26.762 15.592 26.6856 16.1374 26.6856 16.6579C26.6856 21.6156 26.6856 26.5734 26.6856 31.5311C26.6856 47.6436 26.6856 63.7562 26.6856 79.844C26.6856 81.8023 26.6856 81.8023 24.672 81.8023C18.3001 81.8023 11.9282 81.8023 5.5563 81.8023C5.22497 81.8271 4.86814 81.8766 4.5368 81.7527Z" fill="#FC7F86"/>
<path d="M67.3128 1.78477C68.5617 1.78477 69.8361 1.78477 71.085 1.78477C71.2124 2.47885 71.5947 2.92505 72.2829 3.12336C72.7162 3.2473 73.175 3.17293 73.6083 3.17293C79.4959 3.17293 85.3836 3.17293 91.2712 3.17293C92.3927 3.17293 92.5711 3.32167 92.826 4.38757C93.1828 5.8501 93.0044 7.33741 93.0299 8.82473C93.0553 9.69233 93.0553 10.5599 93.0044 11.4275C92.9789 12.0225 92.724 12.3695 92.0613 12.2703C91.8829 12.2456 91.679 12.2703 91.5006 12.2703C62.3682 12.2703 33.2358 12.2703 4.10346 12.2703C3.72115 12.2703 3.33883 12.3695 2.982 12.196C2.82908 9.76669 2.90554 7.31263 2.93103 4.85856C2.93103 3.94138 3.67017 3.27209 4.6387 3.14815C5.02102 3.09857 5.40333 3.12336 5.78565 3.12336C25.5895 3.12336 45.3934 3.12336 65.1973 3.12336C66.6501 3.12336 66.854 2.99941 67.3128 1.78477Z" fill="#B2D9FD"/>
<path d="M31.3753 40.6533C31.6557 40.9755 31.5282 41.3721 31.5282 41.7192C31.5282 54.6588 31.5537 67.6232 31.5028 80.5628C31.5028 81.5048 31.7322 81.7527 32.7007 81.7527C52.0968 81.7279 71.4929 81.7279 90.889 81.7279C92.3418 81.7279 92.4947 81.604 92.4947 80.1167C92.4947 75.382 92.4947 70.6474 92.4947 65.888C92.4947 48.9822 92.4947 32.0516 92.4947 15.1458C94.967 14.9227 94.967 14.9227 94.967 17.2281C94.967 37.9017 94.967 58.5506 94.967 79.2243C94.967 81.2817 94.3553 81.8766 92.2398 81.8766C72.232 81.8766 52.2242 81.8766 32.2164 81.9014C31.6812 81.9014 31.2734 81.951 31.2989 81.1826C31.3243 67.7719 31.3243 54.3613 31.3243 40.9259C31.3498 40.8268 31.3753 40.7276 31.3753 40.6533Z" fill="#EAEAEA"/>
<path d="M4.53674 81.7527C11.291 81.7527 18.0452 81.7279 24.7994 81.7279C26.609 81.7279 26.3797 81.951 26.3797 80.2158C26.3797 58.5258 26.3797 36.8358 26.3797 15.1458C28.4951 14.9475 28.4951 14.9475 28.4951 16.9554C28.4951 22.6072 28.4951 28.259 28.4951 33.9108C28.4951 35.1006 28.8774 35.522 30.0754 35.6708C30.0499 36.8606 30.0244 38.0752 29.9989 39.2651C28.801 39.513 28.4951 39.8848 28.4951 41.2234C28.4951 54.3861 28.4951 67.5489 28.5206 80.7116C28.5206 81.6288 28.3422 81.9014 27.3482 81.8766C20.1097 81.8271 12.8967 81.8519 5.6582 81.8519C5.27589 81.8766 4.89357 81.951 4.53674 81.7527Z" fill="#FD646F"/>
<path d="M2.93103 12.196C13.9162 12.196 24.9014 12.1712 35.8866 12.1712C54.4416 12.1712 73.0221 12.1712 91.5771 12.196C92.4182 12.196 92.775 12.0225 92.6985 11.1301C92.5456 8.92389 92.8515 6.69292 92.5201 4.46195C92.3927 3.56956 92.0104 3.24731 91.0418 3.24731C85.1542 3.29689 79.2665 3.2721 73.3789 3.2721C73.0221 3.2721 72.6143 3.39604 72.2829 3.12337C79.0881 3.12337 85.9188 3.12337 92.724 3.12337C94.2533 3.12337 94.9924 3.86702 94.9924 5.35434C94.9924 7.36221 94.9669 9.39488 95.0179 11.4027C95.0434 12.1464 94.814 12.3199 94.0749 12.3199C81.1781 12.2951 68.2814 12.3199 55.3846 12.3199C38.2059 12.3199 21.0527 12.3199 3.87407 12.2951C3.56822 12.2951 3.23688 12.3943 2.93103 12.196Z" fill="#89C8FD"/>
<path d="M53.2692 40.0831C58.4687 40.0831 63.6427 40.0831 68.8422 40.0831C69.097 40.0831 69.3519 40.0583 69.6068 40.0831C70.3969 40.1823 70.8812 40.6037 70.9321 41.3969C70.9831 42.1653 70.4479 42.7603 69.6323 42.8346C69.3519 42.8594 69.0715 42.8594 68.7657 42.8594C58.4177 42.8594 48.0697 42.8594 37.7217 42.8594C37.6198 42.8594 37.5433 42.8594 37.4414 42.8594C36.2435 42.8594 35.5808 42.3389 35.5553 41.4713C35.5553 40.6037 36.218 40.0583 37.4159 40.0583C42.6918 40.0831 47.9933 40.0831 53.2692 40.0831Z" fill="black"/>
<path d="M62.1644 61.0542C67.2364 61.0542 72.2829 61.0542 77.355 61.0542C78.4 61.0542 78.9862 61.5004 79.0372 62.2937C79.0882 63.0373 78.7313 63.5579 77.9922 63.7314C77.6608 63.8058 77.304 63.8058 76.9472 63.8058C67.0835 63.8058 57.2197 63.8058 47.356 63.8058C47.0502 63.8058 46.7188 63.8306 46.413 63.7562C45.6229 63.5827 45.1896 63.0621 45.2406 62.2937C45.317 61.5252 45.7758 61.0542 46.6169 61.0294C48.401 61.0047 50.1852 61.0294 51.9693 61.0294C55.3591 61.0542 58.749 61.0542 62.1644 61.0542Z" fill="black"/>
<path d="M45.4955 56.8402C42.7938 56.8402 40.0921 56.8402 37.3904 56.8402C36.2689 56.8402 35.6062 56.3444 35.5808 55.5016C35.5553 54.6092 36.2434 54.0639 37.3904 54.0639C42.8193 54.0639 48.2736 54.0639 53.7025 54.0639C54.8239 54.0639 55.4611 54.5844 55.4611 55.4768C55.4611 56.3444 54.8239 56.865 53.7025 56.865C50.9498 56.8402 48.2226 56.8402 45.4955 56.8402Z" fill="black"/>
<path d="M45.4955 75.0102C48.2226 75.0102 50.9753 75.0102 53.7025 75.0102C54.8239 75.0102 55.4611 75.5308 55.4611 76.3984C55.4611 77.266 54.8239 77.7865 53.7025 77.7865C48.2736 77.7865 42.8193 77.7865 37.3904 77.7865C36.2434 77.7865 35.5553 77.2164 35.5808 76.324C35.6062 75.4812 36.2689 74.9854 37.3904 74.9854C40.0921 75.0102 42.7938 75.0102 45.4955 75.0102Z" fill="black"/>
<path d="M80.8468 56.8402C78.1451 56.8402 75.4434 56.8402 72.7417 56.8402C71.5438 56.8402 70.9066 56.3196 70.9066 55.4273C70.9321 54.5597 71.5693 54.0639 72.6908 54.0391C78.1196 54.0391 83.574 54.0391 89.0028 54.0391C89.691 54.0391 90.2517 54.163 90.6086 54.8075C90.8889 55.2785 90.838 55.7743 90.5321 56.2205C90.1753 56.741 89.64 56.865 89.0283 56.8402C86.3266 56.8154 83.574 56.8402 80.8468 56.8402Z" fill="black"/>
<path d="M45.5464 70.7962C42.8192 70.7962 40.0666 70.7962 37.3394 70.7962C36.2434 70.7962 35.5808 70.2508 35.6062 69.3832C35.6317 68.5652 36.2689 68.0198 37.3139 67.9951C42.7938 67.9951 48.2736 67.9951 53.7534 67.9951C54.8749 67.9951 55.4866 68.5404 55.4866 69.4328C55.4611 70.3004 54.8494 70.7714 53.7025 70.7714C50.9498 70.7962 48.2481 70.7962 45.5464 70.7962Z" fill="black"/>
<path d="M53.4476 20.5993C53.3966 20.7976 53.3201 21.0951 53.1927 21.3677C51.3831 25.8049 49.5735 30.2421 47.7638 34.704C47.3305 35.7947 46.464 36.1665 45.5974 35.6955C44.8837 35.2989 44.7053 34.6544 45.0876 33.6629C46.7698 29.4984 48.4775 25.3587 50.1852 21.1942C50.3636 20.748 50.542 20.2523 50.7714 19.8309C51.1027 19.2607 51.638 18.988 52.3006 19.1616C52.9888 19.3351 53.3711 19.7813 53.4476 20.5993Z" fill="black"/>
<path d="M57.4237 19.8061C58.0354 19.7813 58.4432 20.0787 58.7491 20.5745C59.9979 22.5824 61.2468 24.5903 62.4957 26.5981C62.8271 27.1187 62.8016 27.664 62.4957 28.1846C61.2468 30.2668 60.0234 32.3491 58.7745 34.4313C58.2903 35.2493 57.4747 35.4477 56.761 35.0262C56.0474 34.6296 55.8689 33.8116 56.3532 32.9936C57.2963 31.3575 58.2648 29.7215 59.2843 28.1102C59.5901 27.6145 59.6411 27.2426 59.2843 26.7221C58.2648 25.1604 57.2708 23.5739 56.3277 21.9627C55.665 20.9463 56.3022 19.8309 57.4237 19.8061Z" fill="black"/>
<path d="M42.2585 21.2934C42.284 21.566 42.0801 21.8883 41.8762 22.1858C40.9332 23.7227 39.9901 25.2595 39.0216 26.7964C38.7412 27.2178 38.7412 27.5401 39.0216 27.9615C40.0156 29.5728 40.9842 31.2088 41.9527 32.8448C42.5134 33.7868 42.3605 34.6048 41.5704 35.0262C40.8057 35.4229 40.0411 35.1502 39.5059 34.2826C38.308 32.2747 37.1355 30.2668 35.9121 28.259C35.5553 27.664 35.5298 27.1187 35.8866 26.5238C37.1355 24.5407 38.3589 22.5576 39.5823 20.5745C39.9647 19.93 40.5509 19.6573 41.29 19.8556C41.8762 20.0292 42.2331 20.5001 42.2585 21.2934Z" fill="black"/>
<path d="M63.1329 56.8402C62.1134 56.8402 61.0939 56.865 60.0744 56.8402C59.1823 56.8154 58.5961 56.2701 58.5706 55.5016C58.5451 54.7332 59.1314 54.0887 60.0234 54.0887C62.1134 54.0639 64.2289 54.0639 66.3189 54.0887C67.1855 54.1134 67.7972 54.7332 67.7972 55.5016C67.7972 56.2701 67.1854 56.8402 66.2934 56.865C65.2484 56.8402 64.2034 56.8402 63.1329 56.8402Z" fill="black"/>
<path d="M63.1329 70.7962C62.1134 70.7962 61.0939 70.821 60.0744 70.7962C59.1568 70.7714 58.5961 70.2508 58.5706 69.4576C58.5451 68.6891 59.1314 68.0446 60.0234 68.0446C62.1134 67.9951 64.2289 67.9951 66.3189 68.0446C67.2109 68.0694 67.7972 68.7139 67.7972 69.4576C67.7972 70.2756 67.1855 70.7962 66.1914 70.821C65.1719 70.7962 64.1524 70.7962 63.1329 70.7962Z" fill="#010101"/>
<path d="M54.1103 47.0735C55.1043 47.0735 56.0728 47.0487 57.0668 47.0735C58.0354 47.0983 58.6471 47.6684 58.6471 48.4616C58.6471 49.2549 58.0099 49.8498 57.0668 49.8498C55.0278 49.8746 52.9888 49.8746 50.9498 49.8498C49.9813 49.825 49.4205 49.2549 49.4205 48.4121C49.446 47.6188 49.9813 47.0983 50.9243 47.0735C51.9948 47.0487 53.0398 47.0735 54.1103 47.0735Z" fill="#010101"/>
<path d="M40.0666 49.8498C39.1235 49.8498 38.155 49.8746 37.212 49.8498C36.1925 49.825 35.5553 49.2301 35.5808 48.4121C35.6062 47.6188 36.2179 47.0983 37.212 47.0735C39.2255 47.0487 41.2135 47.0487 43.227 47.0735C44.2466 47.0983 44.7818 47.6188 44.7818 48.4617C44.7818 49.3045 44.2211 49.825 43.227 49.8498C42.1566 49.8746 41.1116 49.8498 40.0666 49.8498Z" fill="#010101"/>
<path d="M38.9451 61.0542C39.5823 61.0542 40.2195 61.0295 40.8567 61.0542C41.6723 61.079 42.182 61.5004 42.2585 62.2689C42.335 63.0621 41.9272 63.657 41.1371 63.7314C39.6588 63.9049 38.155 63.9049 36.6767 63.7314C35.9376 63.6323 35.5298 63.0621 35.5807 62.3185C35.6317 61.55 36.116 61.079 36.9316 61.0294C37.6198 61.0542 38.2824 61.0542 38.9451 61.0542Z" fill="#010101"/>
<path d="M12.5654 21.8883C11.7753 21.8883 10.9852 21.9131 10.1951 21.8883C9.37945 21.8635 8.89518 21.4173 8.81872 20.6241C8.74225 19.8804 9.25201 19.1863 10.0676 19.1368C11.7753 19.0624 13.5084 19.0624 15.2161 19.1368C16.0572 19.1616 16.5415 19.8308 16.4905 20.5745C16.465 21.343 15.9298 21.8387 15.0632 21.8635C14.2221 21.9131 13.381 21.8883 12.5654 21.8883Z" fill="#010000"/>
<path d="M12.7183 26.1272C13.4829 26.1272 14.2475 26.1024 15.0122 26.1272C15.9297 26.1519 16.4905 26.6725 16.4905 27.4905C16.4905 28.2838 15.9552 28.8787 15.0632 28.9035C13.4319 28.953 11.8262 28.953 10.195 28.9035C9.32843 28.8787 8.7677 28.2342 8.79319 27.4409C8.81868 26.6973 9.37941 26.1767 10.246 26.1272C11.0616 26.1024 11.8772 26.1272 12.7183 26.1272Z" fill="#010000"/>
<path d="M12.5144 35.8691C11.7498 35.8691 10.9852 35.8939 10.2205 35.8691C9.35396 35.8195 8.81872 35.3237 8.76775 34.5801C8.71677 33.7868 9.25201 33.1423 10.1696 33.1175C11.7753 33.068 13.4065 33.068 15.0377 33.1175C15.9553 33.1423 16.4905 33.7125 16.4905 34.5305C16.4905 35.3485 15.9553 35.8443 15.0122 35.8939C14.1711 35.8939 13.3555 35.8691 12.5144 35.8691Z" fill="#010101"/>
<path d="M12.6418 56.8402C11.8517 56.8402 11.0616 56.865 10.246 56.8402C9.35392 56.8154 8.7677 56.2701 8.7677 55.4768C8.7677 54.6836 9.32843 54.0887 10.2205 54.0639C11.8007 54.0391 13.4065 54.0391 14.9867 54.0639C15.9042 54.0887 16.465 54.6588 16.465 55.4273C16.465 56.2701 15.9042 56.7906 14.9357 56.8154C14.1711 56.8402 13.4065 56.8402 12.6418 56.8402Z" fill="black"/>
<path d="M12.6418 61.0542C13.4319 61.0542 14.2221 61.0294 15.0122 61.0542C15.9042 61.079 16.414 61.5748 16.465 62.3432C16.5159 63.1117 16.0317 63.7562 15.1906 63.8058C13.4829 63.8801 11.7498 63.8801 10.0421 63.8058C9.20099 63.781 8.71672 63.0869 8.7677 62.3432C8.81867 61.5996 9.3794 61.1038 10.246 61.079C11.0616 61.0542 11.8517 61.0542 12.6418 61.0542Z" fill="#010000"/>
<path d="M12.6673 70.7962C11.8772 70.7962 11.0871 70.821 10.297 70.7962C9.43038 70.7714 8.86965 70.2756 8.81868 69.5319C8.7677 68.7387 9.27746 68.0694 10.1695 68.0446C11.8517 67.9951 13.5339 67.9951 15.2161 68.0446C16.0572 68.0694 16.5414 68.7139 16.5159 69.4824C16.4905 70.2508 15.9552 70.7466 15.0886 70.7714C14.2475 70.8209 13.4574 70.7962 12.6673 70.7962Z" fill="#010000"/>
<path d="M12.6673 77.8113C11.8772 77.8113 11.0871 77.8361 10.2715 77.8113C9.37943 77.7865 8.79321 77.2164 8.79321 76.448C8.79321 75.6299 9.37943 75.0598 10.348 75.0598C11.9027 75.035 13.4575 75.035 15.0122 75.0598C15.9298 75.0846 16.4905 75.6299 16.4905 76.4232C16.4905 77.2164 15.9298 77.7865 15.0377 77.8361C14.2476 77.8361 13.4575 77.8113 12.6673 77.8113Z" fill="black"/>
<path d="M12.7183 40.0831C13.4829 40.0831 14.2475 40.0583 15.0122 40.0831C15.9042 40.1079 16.4905 40.6532 16.4905 41.4465C16.4905 42.2397 15.9297 42.8346 15.0632 42.8594C13.4319 42.8842 11.8262 42.8842 10.195 42.8594C9.32843 42.8346 8.7677 42.1901 8.79319 41.3969C8.81868 40.6532 9.4049 40.1327 10.246 40.0831C10.297 40.0831 10.3734 40.0831 10.4244 40.0831C11.189 40.0831 11.9537 40.0831 12.7183 40.0831Z" fill="black"/>
<path d="M12.6929 47.0735C13.483 47.0735 14.2731 47.0487 15.0632 47.0735C15.9553 47.1231 16.4395 47.6188 16.465 48.4121C16.4905 49.1805 16.0063 49.7754 15.1397 49.825C13.4575 49.8746 11.7753 49.8746 10.0931 49.825C9.25202 49.8002 8.74227 49.1805 8.76776 48.4121C8.79325 47.6684 9.32849 47.1479 10.1951 47.0983C11.0362 47.0487 11.8773 47.0735 12.6929 47.0735Z" fill="#010101"/>
</g>
<defs>
<clipPath id="clip0_540_8545">
<rect width="98" height="85" fill="white"/>
</clipPath>
</defs>
</svg>
