<svg width="41" height="44" viewBox="0 0 41 44" fill="none" xmlns="http://www.w3.org/2000/svg">
<g clip-path="url(#clip0_47_6261)">
<path d="M30.7387 7.03536C31.17 6.87494 31.4651 7.00098 31.6922 7.40203C33.5991 10.7479 35.5175 14.0822 37.4244 17.4281C37.9012 18.2645 37.6628 19.0895 36.8455 19.6052C36.7093 19.6968 36.5391 19.7427 36.4029 19.9374C37.4131 19.9374 38.3779 19.9718 39.3428 19.926C40.8184 19.8572 41.0454 20.4874 41 21.6218C40.966 22.3666 41 23.1114 40.9887 23.8562C40.9773 24.6812 40.5687 25.0937 39.7514 25.1052C39.4222 25.1052 39.093 25.1395 38.7752 25.0937C38.3893 25.0479 38.2871 25.2197 38.2304 25.5635C37.7536 28.4281 37.2542 31.2812 36.7661 34.1458C36.278 36.9874 35.8012 39.8406 35.3018 42.6822C35.1542 43.5531 34.5753 44.0114 33.6445 44.0114C28.7976 44.0114 23.9394 44.0114 19.0925 44.0114C15.2104 44.0114 11.317 44.0114 7.43497 44.0114C6.34527 44.0114 5.85717 43.5989 5.6642 42.5218C5.18746 39.7947 4.72207 37.0562 4.24532 34.3291C4.14316 33.7562 4.23397 33.5729 4.73342 33.3437C5.11935 33.2406 5.35772 33.3437 5.52799 33.6989C5.63015 33.9166 5.6642 34.1687 5.70961 34.4093C6.1296 36.8958 6.56094 39.3822 6.98093 41.8572C7.10579 42.5906 7.10579 42.602 7.8436 42.602C15.6985 42.602 23.5648 42.602 31.4197 42.602C31.6127 42.602 31.817 42.5906 32.01 42.6135C32.464 42.6135 32.9181 42.6135 33.3721 42.6135C33.8375 42.602 33.8943 42.5562 33.9737 42.0864C34.3937 39.6343 34.8251 37.1822 35.2337 34.7187C35.7331 31.7739 36.2439 28.8177 36.7434 25.8729C36.8455 25.2541 36.8455 25.2541 36.2099 25.2541C35.8239 25.2541 35.4494 25.2656 35.0634 25.2541C34.8364 25.2656 34.6094 25.2656 34.3824 25.2656C24.5751 25.2656 14.7564 25.2656 4.94909 25.2656C4.05235 25.2656 4.12046 25.2541 4.25667 26.0906C4.49504 27.5114 4.74477 28.9437 4.99449 30.3645C5.02854 30.5937 5.0853 30.8114 5.07395 31.0406C5.05125 31.4645 4.81287 31.6822 4.40424 31.6708C3.85939 31.6135 3.75723 31.4645 3.63237 30.7885C3.32589 29.001 3.00806 27.2135 2.72428 25.426C2.67888 25.1624 2.58807 25.1052 2.3497 25.1166C1.95241 25.1281 1.55512 25.1281 1.15784 25.1166C0.488124 25.1052 0.0340818 24.7156 0.0113797 24.051C-0.0226734 23.0312 -0.0226734 22.0229 0.0113797 21.0031C0.0340818 20.3499 0.465422 19.9604 1.12378 19.9604C2.3951 19.9489 3.66642 19.9604 5.01719 19.9604C4.5291 19.101 4.06371 18.2874 3.59831 17.4739C3.40534 17.1416 3.28048 16.7979 3.33724 16.4197C3.40534 15.8697 3.71182 15.4916 4.18857 15.2166C6.09554 14.1166 7.99117 13.0052 9.88679 11.9052C10.1252 11.7677 10.3295 11.6072 10.4998 11.3895C13.4851 7.75723 16.4818 4.12494 19.4671 0.50411C19.6033 0.343693 19.7509 0.194735 19.8871 0.0457764C20.0573 0.0457764 20.2276 0.0457764 20.3979 0.0457764C20.886 0.538485 20.8973 0.77911 20.4319 1.34057C18.2752 3.95307 16.1185 6.57703 13.9618 9.18953C13.871 9.30411 13.7802 9.43015 13.678 9.55619C13.9278 9.61348 14.0753 9.45307 14.2456 9.34994C18.366 6.95515 22.4751 4.56036 26.5955 2.15411C27.6625 1.53536 28.4231 1.73015 29.036 2.79578C29.3765 3.39161 29.7057 3.98744 30.0576 4.57182C30.2733 4.94994 30.2506 5.27078 29.9214 5.55723C29.5355 5.83223 29.1722 5.75203 28.8771 5.27078C28.6387 4.89265 28.4231 4.51453 28.2074 4.12494C27.5604 2.99057 27.742 3.09369 26.6636 3.71244C26.5615 3.76973 26.4707 3.82703 26.3685 3.88432C22.8951 5.91244 19.4103 7.94057 15.9369 9.96869C12.5997 11.9052 9.23978 13.8531 5.89122 15.8124C5.60745 15.9729 5.32367 16.1333 5.0399 16.3052C4.80152 16.4541 4.73342 16.6145 4.88098 16.8666C5.40313 17.7374 5.86852 18.6427 6.40202 19.502C6.53823 19.7197 6.69715 19.8229 6.95822 19.8229C7.49172 19.8229 8.03657 19.8114 8.57007 19.8229C8.8652 19.8229 8.8879 19.7083 8.74034 19.4906C8.58142 19.2499 8.45656 18.9979 8.32035 18.7458C7.85496 17.9552 8.00252 17.2447 8.78574 16.752C9.78463 16.1218 10.8176 15.5489 11.8392 14.9531C14.3364 13.5093 16.8223 12.0427 19.3195 10.5989C20.2503 10.0604 20.92 10.2208 21.4649 11.1604C22.9746 13.7843 24.4842 16.4083 25.9712 19.0437C26.0507 19.1927 26.1529 19.3302 26.2323 19.4906C26.3572 19.7312 26.5501 19.8343 26.8226 19.8343C29.002 19.8343 31.1927 19.8343 33.3721 19.8343C33.5764 19.8343 33.7581 19.7885 33.9397 19.6739C34.3143 19.4333 34.7002 19.227 35.0748 18.9979C35.3699 18.8604 35.631 18.6656 35.9261 18.5166C36.2212 18.3677 36.2553 18.1729 36.0964 17.8979C35.6196 17.0385 35.1202 16.1906 34.6321 15.3312C33.2586 12.9364 31.9078 10.5416 30.523 8.15828C30.2279 7.64265 30.3073 7.28744 30.7387 7.03536Z" fill="black"/>
<path d="M4.4156 31.6364C4.89235 31.4646 5.02856 31.2583 4.9491 30.7771C4.65397 29.0125 4.3702 27.2593 4.05237 25.4948C3.98426 25.1281 4.06372 25.0708 4.40425 25.0708C8.05929 25.0823 11.7143 25.0823 15.3807 25.0823C21.7827 25.0823 28.1961 25.0823 34.598 25.0823C34.7797 25.0823 34.9613 25.0937 35.1543 25.0937C35.2451 25.2771 35.1997 25.4604 35.1656 25.6437C34.2235 31.1208 33.2927 36.5979 32.3505 42.075C32.3165 42.2927 32.3051 42.5333 32.0895 42.6823C31.9533 42.6823 31.8057 42.6937 31.6695 42.6937C23.6329 42.6937 15.5964 42.6937 7.55984 42.7052C7.11715 42.7052 6.98094 42.5562 6.91283 42.1437C6.47014 39.4395 5.9934 36.7354 5.53936 34.0312C5.44855 33.4927 5.30098 33.3552 4.76748 33.3093C4.60857 32.7708 4.59722 32.1864 4.4156 31.6364Z" fill="#0E85D1"/>
<path d="M30.7387 7.03533C30.3641 7.44783 30.3414 7.63116 30.6365 8.13533C32.4867 11.378 34.337 14.6093 36.1985 17.8405C36.4142 18.2187 36.3802 18.4249 35.9942 18.5968C35.6991 18.7343 35.4267 18.9062 35.1429 19.0666C34.7116 18.551 34.4278 17.9322 34.0986 17.3593C31.9987 13.6926 29.8987 10.026 27.8101 6.34783C27.322 5.48845 26.7885 4.66345 26.3685 3.7697C26.7091 3.56345 27.0496 3.36866 27.3788 3.15095C27.6171 3.002 27.7647 3.0822 27.8896 3.31137C28.2415 3.93012 28.582 4.54887 28.9452 5.16762C29.2063 5.62595 29.4106 5.6947 29.9328 5.53429C30.1938 6.03845 30.4663 6.53116 30.7387 7.03533Z" fill="#E28423"/>
<path d="M26.3686 3.78125C26.8226 4.23958 27.061 4.84687 27.3788 5.39687C28.6161 7.53958 29.842 9.68229 31.0679 11.8365C32.3846 14.1396 33.7014 16.4542 35.0181 18.7573C35.0748 18.849 35.0975 18.9635 35.1429 19.0781C34.723 19.3302 34.2916 19.5937 33.8716 19.8458C33.7241 19.9375 33.5765 19.926 33.4176 19.926C31.1814 19.926 28.9339 19.926 26.6978 19.9375C26.4253 19.9375 26.3005 19.8344 26.1756 19.6167C24.5978 16.8552 23.02 14.0938 21.4422 11.3323C20.8633 10.324 20.3071 10.175 19.3082 10.7594C15.9143 12.7417 12.5089 14.724 9.11498 16.6948C9.00147 16.7635 8.88796 16.8208 8.7858 16.8896C8.1842 17.2906 8.01393 17.9208 8.34311 18.574C8.45662 18.8031 8.59283 19.0208 8.72905 19.2385C8.84256 19.4448 8.96742 19.6625 9.12633 19.9375C8.26365 19.9375 7.46908 19.9375 6.67451 19.9375C6.47019 19.9375 6.43613 19.7656 6.35668 19.6396C5.83453 18.7344 5.33508 17.8292 4.80158 16.9354C4.59726 16.5917 4.65402 16.4312 4.99455 16.2365C7.90042 14.5635 10.7949 12.8677 13.6895 11.1833C17.8099 8.77708 21.9303 6.38229 26.0621 3.97604C26.1302 3.88438 26.2551 3.83854 26.3686 3.78125Z" fill="#E8A42D"/>
<path d="M1.33941 21.2437C1.46428 21.2323 1.58914 21.2094 1.714 21.2094C13.6213 21.2094 25.5285 21.2094 37.4358 21.2094C37.5493 21.2094 37.6628 21.2208 37.7763 21.2323C37.8671 21.3354 37.9012 21.4614 37.9012 21.5875C37.9239 22.1718 37.9125 22.7562 37.9012 23.3521C37.8898 23.65 37.7763 23.7875 37.4585 23.776C36.7093 23.7531 35.9601 23.7646 35.1996 23.7646C24.0756 23.7646 12.9629 23.7646 1.83886 23.7646C1.21455 23.7646 1.28266 23.8333 1.29401 23.2146C1.31671 22.5614 1.24861 21.8968 1.33941 21.2437Z" fill="#90D9F9"/>
<path d="M24.8475 19.9259C23.2924 19.9259 21.7827 19.9259 20.2844 19.9259C17.1969 19.9259 14.098 19.926 11.0105 19.9374C10.7041 19.9374 10.5224 19.8572 10.3749 19.5707C10.1592 19.1353 9.92084 18.7114 9.65977 18.3103C9.47815 18.0353 9.52356 17.9207 9.80733 17.7603C12.157 16.4082 14.4953 15.0332 16.8336 13.6697C17.8552 13.0739 18.8655 12.4895 19.8871 11.8822C20.0914 11.7676 20.2049 11.7218 20.3525 11.9853C21.8167 14.5634 23.2924 17.1416 24.7567 19.7197C24.7794 19.7541 24.7907 19.8114 24.8475 19.9259Z" fill="#8CCFEF"/>
<path d="M32.0781 42.6937C32.3051 41.4219 32.5435 40.15 32.7592 38.8896C33.0316 37.2969 33.304 35.7042 33.5765 34.1114C33.9056 32.2094 34.2235 30.3073 34.5527 28.4052C34.7456 27.3052 34.9499 26.2052 35.1429 25.1052C35.6764 25.1052 36.2213 25.0937 36.7548 25.0823C36.9591 25.0823 37.0272 25.1167 36.9818 25.3458C36.4596 28.325 35.9602 31.3041 35.4494 34.2948C35.0067 36.8844 34.564 39.4739 34.1213 42.0635C34.0078 42.7167 34.0192 42.7167 33.3494 42.7167C32.9295 42.7052 32.4981 42.7052 32.0781 42.6937Z" fill="#3895D1"/>
<path d="M1.33951 21.2437C1.33951 21.9541 1.35086 22.6759 1.33951 23.3864C1.33951 23.6155 1.40762 23.7416 1.65734 23.7187C1.7368 23.7072 1.82761 23.7187 1.90706 23.7187C13.6668 23.7187 25.4264 23.7187 37.1748 23.7187C37.765 23.7187 37.765 23.7187 37.765 23.1228C37.765 22.4926 37.765 21.8624 37.765 21.2322C38.3212 21.2207 38.8661 21.2322 39.4223 21.2093C39.6607 21.1978 39.7061 21.3124 39.6947 21.5187C39.6834 22.1718 39.6834 22.8364 39.6947 23.4895C39.6947 23.7301 39.6266 23.8103 39.3769 23.7989C38.7072 23.7874 38.0488 23.7989 37.3791 23.7989C25.5173 23.7989 13.6441 23.7989 1.7822 23.8103C1.36221 23.8103 1.2033 23.7301 1.2487 23.2832C1.33951 22.6072 1.2033 21.9197 1.33951 21.2437Z" fill="#6BBEF6"/>
<path d="M17.2423 30.9947C17.9006 29.8489 18.5136 28.7832 19.1152 27.7291C19.399 27.2364 19.7849 26.927 20.3638 26.8811C21.0108 26.8353 21.4989 27.0874 21.8281 27.6374C22.2367 28.3249 22.634 29.0238 23.0199 29.7113C23.2356 30.0895 23.1448 30.4561 22.827 30.6509C22.4864 30.8457 22.1346 30.7426 21.8962 30.3301C21.533 29.7114 21.1924 29.0926 20.8292 28.4739C20.5795 28.0384 20.3978 28.0384 20.1481 28.4739C19.5579 29.4936 18.979 30.5249 18.366 31.5905C18.6271 31.602 18.8201 31.5103 19.0357 31.4759C19.4444 31.3957 19.7622 31.5905 19.8416 31.9686C19.9211 32.3124 19.7168 32.6332 19.3308 32.7249C18.6725 32.8968 18.0141 33.0457 17.3444 33.1947C16.9131 33.2864 16.5498 33.0916 16.4023 32.6676C16.1753 31.9916 15.9823 31.3041 15.8007 30.6166C15.6985 30.2499 15.8915 29.9291 16.2093 29.8374C16.5385 29.7343 16.8563 29.8947 16.9925 30.2384C17.0833 30.4561 17.1401 30.6739 17.2423 30.9947Z" fill="black"/>
<path d="M24.1324 34.2375C24.0302 34.5469 23.9735 34.776 23.894 34.9823C23.7578 35.326 23.44 35.4864 23.1108 35.3948C22.793 35.3031 22.6 34.9823 22.7022 34.6156C22.8838 33.9281 23.0881 33.2406 23.3038 32.5646C23.44 32.1521 23.7805 31.9458 24.2005 32.0375C24.8929 32.175 25.5853 32.3469 26.2664 32.5187C26.6296 32.6104 26.8112 32.9427 26.7318 33.275C26.6523 33.6302 26.3458 33.8365 25.9599 33.7677C25.7442 33.7333 25.5172 33.6646 25.2334 33.6073C25.8578 34.7073 26.448 35.7615 27.061 36.8042C27.3674 37.3312 27.481 37.8698 27.1972 38.4312C26.9248 38.9698 26.4821 39.2792 25.8691 39.2792C25.0632 39.2906 24.2573 39.2906 23.44 39.2792C23.0086 39.2792 22.7362 39.0271 22.7362 38.6489C22.7362 38.2823 23.02 38.0073 23.44 37.9958C24.1891 37.9844 24.9383 37.9958 25.6988 37.9844C26.0621 37.9844 26.1756 37.8354 26.0167 37.549C25.4264 36.4719 24.8021 35.4062 24.1324 34.2375Z" fill="black"/>
<path d="M18.9676 37.9614C18.7973 37.7666 18.6384 37.6176 18.5136 37.4572C18.2638 37.1478 18.2865 36.7697 18.5476 36.5291C18.8087 36.2884 19.1492 36.2884 19.4217 36.5634C19.9098 37.0562 20.3865 37.5718 20.8519 38.0989C21.1811 38.4655 21.1697 38.8551 20.8405 39.2218C20.3978 39.7259 19.9325 40.2072 19.4671 40.6884C19.1719 40.9864 18.7746 41.0093 18.5249 40.7572C18.2525 40.4937 18.2638 40.1384 18.559 39.8062C18.6838 39.6572 18.82 39.5197 18.9563 39.3593C18.82 39.2332 18.6838 39.2905 18.5703 39.2905C17.4352 39.2905 16.3001 39.302 15.165 39.2791C13.9845 39.2676 13.2694 38.0759 13.8142 37.0218C14.1888 36.2884 14.6202 35.578 15.0401 34.8676C15.2558 34.5009 15.6304 34.4093 15.9482 34.6041C16.2661 34.7989 16.3455 35.1541 16.1299 35.5437C15.778 36.1624 15.4261 36.7812 15.0742 37.3999C14.8131 37.8582 14.8812 37.9957 15.392 37.9957C16.5385 37.9957 17.6849 37.9957 18.8428 37.9957C18.8428 37.9957 18.8768 37.9843 18.9676 37.9614Z" fill="black"/>
<path d="M23.7237 9.53333C23.7351 8.20416 24.8021 7.13854 26.1074 7.14999C27.4128 7.16145 28.4798 8.26145 28.4685 9.5677C28.4571 10.8854 27.3788 11.951 26.0734 11.951C24.7567 11.9396 23.7124 10.8625 23.7237 9.53333Z" fill="black"/>
<path d="M30.0236 18.8259C28.7069 18.8259 27.6512 17.7603 27.6512 16.4312C27.6512 15.1134 28.7296 14.0249 30.0236 14.0249C31.3176 14.0249 32.4073 15.1134 32.4073 16.4312C32.4073 17.7489 31.3403 18.8259 30.0236 18.8259Z" fill="black"/>
<path d="M26.1074 10.6561C25.4944 10.6676 25.0063 10.1749 25.0063 9.55614C25.0063 8.93739 25.4944 8.43323 26.1074 8.43323C26.6863 8.43323 27.1857 8.92594 27.1971 9.52177C27.2085 10.1291 26.709 10.6447 26.1074 10.6561Z" fill="#F6F2F0"/>
<path d="M29.9668 17.5312C29.3652 17.5083 28.8884 16.9697 28.9225 16.3624C28.9565 15.7781 29.4787 15.2853 30.0576 15.3083C30.6592 15.3312 31.1587 15.8812 31.1246 16.4656C31.1019 17.0958 30.5797 17.5656 29.9668 17.5312Z" fill="#DD5690"/>
</g>
<defs>
<clipPath id="clip0_47_6261">
<rect width="41" height="44" fill="white"/>
</clipPath>
</defs>
</svg>
