<svg width="46" height="46" viewBox="0 0 46 46" fill="none" xmlns="http://www.w3.org/2000/svg">
<g clip-path="url(#clip0_47_6531)">
<path d="M45.9281 17.5466C45.8922 18.2538 45.7724 18.9489 45.5448 19.6081C45.0656 20.9745 44.0953 21.8134 42.6698 22.0891C42.3703 22.149 42.2865 22.2449 42.2745 22.5326C42.2026 24.8817 42.0948 27.2308 41.8672 29.568C41.5677 32.6602 38.8964 35.2731 35.7937 35.5008C32.9667 35.7165 30.1396 35.8244 27.3125 35.8963C26.8453 35.9083 26.7375 36.0761 26.8333 36.5315C26.8812 36.7473 27.037 36.6754 27.1448 36.6754C28.4625 36.7712 29.7682 36.8671 31.0859 36.927C32.7031 37.0109 34.1766 37.4304 35.3984 38.5451C35.8417 38.9526 35.8776 39.1923 35.5542 39.7077C35.3865 40.0073 35.1229 39.9833 34.8594 39.9114C34.6797 39.8635 34.5359 39.7436 34.4042 39.6238C33.3979 38.7249 32.188 38.4732 30.8823 38.3893C29.6964 38.3174 28.4984 38.2694 27.3125 38.1496C26.9411 38.1136 26.7495 38.2454 26.5937 38.581C25.5635 40.7624 23.0839 41.5654 21.0115 40.3788C20.2807 39.9594 19.7057 39.3721 19.3823 38.581C19.2146 38.1855 18.975 38.0657 18.5797 38.1615C17.9927 38.2934 17.3818 38.1376 16.7948 38.2934C15.9323 38.3413 15.0698 38.4132 14.2073 38.4971C12.2667 38.6769 10.6615 40.0672 10.1943 41.9609C10.0146 42.692 10.0026 43.4471 9.99062 44.1902C9.99062 44.4299 10.0984 44.5138 10.3141 44.5138C10.4339 44.5138 10.5536 44.5258 10.6734 44.5258C18.9151 44.5498 27.1568 44.5378 35.3984 44.5378C35.5781 44.5378 35.7578 44.5737 35.9135 44.4539C36.0573 43.9265 35.9734 43.3872 35.9375 42.8598C35.9135 42.4763 35.8177 42.0928 35.7458 41.7092C35.662 41.2058 35.8417 40.9182 36.2849 40.8103C36.8479 40.7863 37.0516 40.9182 37.1833 41.4575C37.5187 42.728 37.4589 44.0464 37.5307 45.3408C37.5547 45.6764 37.3151 45.8921 36.9917 45.9521C36.812 45.988 36.6323 45.976 36.4526 45.976C27.4682 45.976 18.4839 45.976 9.49948 45.976C8.5651 45.976 8.37344 45.7962 8.43333 44.8734C8.51719 43.7108 8.45729 42.5362 8.78073 41.3976C9.47552 38.9646 11.5958 37.2267 14.1115 36.999C15.6568 36.8551 17.2141 36.7593 18.7714 36.6873C19.0589 36.6754 19.1307 36.5915 19.1427 36.3038C19.1427 36.0042 19.0708 35.8963 18.7594 35.8843C16.2318 35.8364 13.7042 35.7045 11.1766 35.5847C9.63125 35.5128 8.18177 35.2131 6.91198 34.2903C5.01927 32.9119 4.15677 31.0182 4.025 28.717C3.90521 26.6556 3.76146 24.5941 3.71354 22.5206C3.70156 22.2329 3.62969 22.1371 3.33021 22.0771C1.88073 21.7775 0.886458 20.9265 0.43125 19.5003C0.239583 18.877 0.119792 18.2178 0.071875 17.5466C-0.0119792 17.4028 0.0958333 17.223 0 17.0792C0 16.5998 0 16.1204 0 15.641C0.0958333 15.4971 0.0239583 15.3293 0.0479167 15.1735C0.0359375 14.3585 0.131771 13.5555 0.443229 12.8004C0.982292 11.5419 1.94062 10.7749 3.28229 10.4992C3.90521 10.3674 3.90521 10.3554 3.91719 9.74414C3.97708 6.12454 6.49271 3.26003 10.0625 2.7926C10.6255 2.72069 11.1885 2.69672 11.7635 2.67275C12.051 2.66076 12.1948 2.56488 12.2786 2.28921C12.4224 1.85774 12.626 1.47421 12.9375 1.12663C13.5125 0.479416 14.2073 0.059927 15.0937 0C15.1297 0 15.1536 0 15.1896 0C15.4052 0.0719125 15.6089 0.0719125 15.8245 0C15.8604 0 15.8844 0 15.9203 0C17.2979 0.0958833 18.1844 0.874935 18.7354 2.08546C18.8432 2.32517 19.0109 2.40907 19.2625 2.40907C19.526 2.40907 19.7177 2.34914 19.8375 2.08546C20.0052 1.68994 20.2448 1.33038 20.5443 1.00677C21.0953 0.419489 21.7542 0.059927 22.5687 0C22.6047 0 22.6286 0 22.6646 0C22.8802 0.0719125 23.0839 0.0719125 23.2995 0C23.3354 0 23.3594 0 23.3953 0C24.7729 0.0958833 25.6594 0.874935 26.2104 2.08546C26.3182 2.32517 26.4859 2.40907 26.7375 2.40907C27.001 2.40907 27.1927 2.34914 27.3125 2.08546C27.4802 1.68994 27.7198 1.33038 28.0193 1.00677C28.5703 0.419489 29.2292 0.059927 30.0437 0C30.0797 0 30.1036 0 30.1396 0C30.3672 0.0958833 30.6068 0.0239708 30.8464 0.0479416C32.2839 0.0479416 33.1344 0.874935 33.6734 2.08546C33.8531 2.50495 34.0448 2.67275 34.512 2.68473C36.0932 2.72069 37.6385 2.9604 38.9922 3.89526C40.7292 5.08181 41.7234 6.69984 42.0229 8.77332C42.0589 9.02501 42.1187 9.27671 42.1187 9.5284C42.0948 10.5232 42.2146 10.3674 42.9812 10.5591C44.275 10.8828 45.1615 11.6858 45.6406 12.9442C45.9161 13.6634 46.012 14.4184 46 15.1855C46.024 15.3653 45.9521 15.5571 46.0479 15.7368C46.0479 16.1923 46.0479 16.6357 46.0479 17.0912C45.8922 17.223 46 17.3908 45.9281 17.5466Z" fill="black"/>
<path d="M30.8224 0C30.8224 0.0239708 30.8224 0.0479416 30.8344 0.0838979C30.5948 0.059927 30.3312 0.191767 30.1036 0C30.3432 0 30.5828 0 30.8224 0Z" fill="#626262"/>
<path d="M15.8125 0C15.5969 0.143825 15.3932 0.15581 15.1776 0C15.3932 0 15.6088 0 15.8125 0Z" fill="#626262"/>
<path d="M23.2755 0C23.0599 0.143825 22.8563 0.15581 22.6406 0C22.8563 0 23.0599 0 23.2755 0Z" fill="#616161"/>
<path d="M45.9281 15.1735C45.9521 15.1616 45.976 15.1735 46 15.1855C46 15.3653 46 15.5451 46 15.7249C45.8682 15.5571 45.8922 15.3653 45.9281 15.1735Z" fill="#626262"/>
<path d="M0 15.1975C0.0239583 15.1735 0.0479167 15.1735 0.071875 15.1855C0.107813 15.3533 0.131771 15.5091 0 15.6529C0 15.4971 0 15.3413 0 15.1975Z" fill="#606060"/>
<path d="M0 17.0792C0.14375 17.2111 0.107813 17.3789 0.071875 17.5467C0.0479167 17.5467 0.0239583 17.5467 0 17.5347C0 17.3789 0 17.235 0 17.0792Z" fill="#646464"/>
<path d="M45.9281 17.5467C45.9042 17.3789 45.8682 17.223 46 17.0792C46 17.235 46 17.3789 46 17.5347C45.976 17.5347 45.9521 17.5467 45.9281 17.5467Z" fill="#666666"/>
<path d="M36.3088 40.8342C35.9016 41.062 35.7937 41.3736 35.9135 41.841C36.1411 42.7399 36.1651 43.6748 36.1292 44.5976C35.9734 44.6696 35.8057 44.6336 35.638 44.6336C28.6062 44.6336 21.5745 44.6336 14.5427 44.6336C13.9437 44.6336 13.8838 44.5857 13.8838 44.1302C13.8719 43.471 14.0396 43.2553 14.5786 43.2313C14.8182 43.2673 14.9141 43.459 14.9979 43.6508C15.1177 43.9025 15.2974 44.0943 15.5969 43.9744C15.9083 43.8546 15.8604 43.5789 15.7766 43.3272C15.4891 42.5122 15.1656 41.6972 14.8661 40.8822C14.8062 40.7264 14.7344 40.5825 14.7703 40.4028C15.2255 39.42 15.9323 38.6769 16.9026 38.1855C17.6453 38.0656 18.388 38.1016 19.1427 38.0296C19.4182 38.0057 19.3823 38.2454 19.4422 38.3892C20.3885 40.7264 23.2396 41.5534 25.2641 40.0911C25.887 39.6357 26.3302 39.0484 26.6057 38.3293C26.6656 38.1855 26.6656 38.0057 26.9052 38.0177C28.7021 38.1375 30.499 38.1615 32.2719 38.4371C33.1344 38.569 33.8891 38.9765 34.524 39.5638C34.8594 39.8754 35.1828 39.9353 35.5781 39.7196C35.8896 40.0432 36.0453 40.4747 36.3088 40.8342Z" fill="#8FD7F8"/>
<path d="M9.60729 4.38667C9.87084 4.26682 10.1583 4.24285 10.4339 4.23086C14.7823 3.94321 19.1307 3.7874 23.4911 3.81137C27.5161 3.82336 31.5411 3.9552 35.5542 4.23086C38.3214 4.42263 40.3578 6.59199 40.5854 9.55238C40.9687 14.4904 41.0766 19.4284 40.8609 24.3664C40.7891 26.0563 40.6932 27.7462 40.5255 29.4242C40.262 31.9052 38.1896 33.9667 35.7099 34.1584C30.0438 34.5779 24.3776 34.6858 18.6995 34.5539C15.8724 34.482 13.0453 34.3742 10.2302 34.1584C10.0505 34.1464 9.88282 34.0865 9.70313 34.0625C8.49323 33.2955 7.87031 32.1209 7.49896 30.7905C7.22344 29.8317 7.23542 28.8369 7.16354 27.8541C6.88802 24.0308 6.81615 20.2074 6.9 16.3841C6.93594 14.7181 6.99584 13.0401 7.12761 11.3742C7.19948 10.4633 7.23542 9.55238 7.33125 8.65348C7.48698 7.1553 8.08594 5.87286 9.11615 4.7702C9.2599 4.60241 9.43959 4.51851 9.60729 4.38667Z" fill="#8FD7F8"/>
<path d="M9.6073 4.38672C9.37969 4.78224 8.99636 5.02195 8.73282 5.39349C8.00209 6.42424 7.5349 7.53888 7.45105 8.82132C7.35521 10.1996 7.27136 11.578 7.17553 12.9683C6.9599 16.1804 6.99584 19.3925 7.03178 22.6045C7.04376 23.9589 7.09167 25.3132 7.21146 26.6676C7.3073 27.8901 7.33126 29.1366 7.54688 30.3471C7.77448 31.5936 8.32553 32.6483 9.22396 33.5352C9.39167 33.703 9.5474 33.8828 9.71511 34.0626C7.63073 33.739 5.71407 31.7254 5.49844 29.5561C5.05521 24.9297 4.9474 20.2914 5.09115 15.653C5.16303 13.4117 5.25886 11.1705 5.48646 8.92919C5.70209 6.74784 7.57084 4.71032 9.6073 4.38672Z" fill="#75CDF8"/>
<path d="M14.7224 43.3272C14.5307 43.3752 14.2552 43.2194 14.1474 43.4351C13.9917 43.7467 13.9917 44.0943 14.0396 44.4419C14.0516 44.5497 14.1474 44.5737 14.2432 44.5737C14.375 44.5737 14.5068 44.5737 14.6505 44.5737C21.6224 44.5737 28.5943 44.5737 35.5542 44.5737C35.7458 44.5737 35.9375 44.5737 36.1412 44.5857C36.0094 44.7055 35.8537 44.6456 35.7099 44.6456C27.2406 44.6456 18.7714 44.6456 10.3021 44.6576C9.88282 44.6576 9.81094 44.5497 9.84688 44.1542C9.94271 43.3272 9.88282 42.4763 10.1464 41.6613C10.7094 39.8275 12.3026 38.5331 14.2193 38.3653C15.1177 38.2814 16.0042 38.1735 16.9026 38.1855C16.088 38.7848 15.3573 39.4799 14.8302 40.3668C14.5787 40.3069 14.5786 40.0552 14.4828 39.8874C14.375 39.6837 14.2432 39.5039 13.9797 39.5159C13.7161 39.5279 13.5604 39.6837 13.4766 39.8994C13.0333 41.062 12.5781 42.2126 12.1589 43.3752C12.075 43.6269 12.087 43.8666 12.3745 43.9744C12.638 44.0703 12.8417 43.9265 12.9135 43.6988C13.0693 43.1954 13.4286 43.0875 13.8839 43.1235C14.0875 43.1355 14.3031 43.1115 14.5068 43.1474C14.5906 43.1474 14.7464 43.1355 14.7224 43.3272Z" fill="#74CDF8"/>
<path d="M42.3344 18.5174C42.2984 17.2949 42.2745 16.0604 42.2385 14.8379C42.2146 13.9749 42.1787 13.1 42.1307 12.2371C42.1188 11.9374 42.2026 11.8775 42.4901 11.9494C43.4365 12.1771 44.0594 12.7404 44.3109 13.6753C44.7182 15.2214 44.7901 16.7675 44.4667 18.3376C43.7719 18.7092 43.0651 18.7691 42.3344 18.5174Z" fill="#407092"/>
<path d="M1.54531 18.3377C1.22188 16.8395 1.30573 15.3413 1.64115 13.8551C1.86875 12.8244 2.59948 12.1172 3.54583 11.9375C3.80938 11.8895 3.89323 11.9375 3.88125 12.2131C3.83333 13.3517 3.82136 14.4784 3.7375 15.617C3.67761 16.5518 3.72552 17.4987 3.66563 18.4336C3.62969 18.5055 3.59375 18.5774 3.52188 18.5894C2.83906 18.6852 2.16823 18.7212 1.54531 18.3377Z" fill="#407092"/>
<path d="M25.4438 37.3226C25.3359 38.629 24.138 39.5638 22.7365 39.444C21.8979 38.9286 21.5865 38.1136 21.5385 37.1787C21.5266 36.9271 21.6583 36.7113 21.9339 36.7593C22.9281 36.9031 23.9224 36.6993 24.9167 36.7233C25.4677 36.7353 25.5036 36.7832 25.4438 37.3226Z" fill="#406F92"/>
<path d="M25.4437 37.3226C25.4917 36.9151 25.3 36.8432 24.9167 36.8432C24.138 36.8432 23.3714 36.999 22.5927 36.9391C22.4729 36.9271 22.3531 36.9391 22.2333 36.9271C21.6464 36.8432 21.5385 36.951 21.6703 37.5503C21.826 38.2934 22.2094 38.9047 22.7365 39.432C21.4786 39.3002 20.5562 38.2934 20.4964 36.987C20.4484 35.9323 20.4484 35.9323 21.4906 35.9323C22.6646 35.9323 23.8505 35.9563 25.0245 35.9203C25.4437 35.9083 25.5635 36.0401 25.5036 36.4237C25.4677 36.7353 25.5875 37.0469 25.4437 37.3226Z" fill="#365E7C"/>
<path d="M1.54532 18.3376C2.10834 18.4455 2.67136 18.5534 3.24636 18.5294C3.39011 18.5174 3.54584 18.5294 3.66563 18.4335C3.66563 19.1047 3.66563 19.7759 3.68959 20.4471C3.70157 20.7947 3.55782 20.8186 3.2823 20.7108C2.39584 20.3872 1.85678 19.7759 1.64115 18.865C1.60521 18.6852 1.58126 18.5054 1.54532 18.3376Z" fill="#365E7C"/>
<path d="M42.3344 18.5174C43.0531 18.5534 43.7599 18.5054 44.4547 18.3376C44.3349 19.3444 43.9276 20.1594 42.9693 20.6149C42.3823 20.8905 42.3224 20.8546 42.3224 20.2194C42.3224 19.6441 42.3224 19.0807 42.3344 18.5174Z" fill="#365E7C"/>
<path d="M30.1875 1.43819C30.9422 1.28238 31.7688 1.6779 32.1641 2.37305C32.2958 2.61276 32.2958 2.72063 31.9724 2.69666C31.3734 2.64872 30.7745 2.62475 30.1755 2.60078C30.1396 2.58879 30.0917 2.5768 30.0438 2.5768C29.876 2.55283 29.6484 2.67269 29.5526 2.49291C29.4448 2.28915 29.6245 2.09739 29.7323 1.92959C29.8521 1.71386 29.9839 1.53407 30.1875 1.43819Z" fill="#DB626D"/>
<path d="M15.2734 1.43827C16.088 1.27047 16.9385 1.71393 17.274 2.52894C16.3875 2.61284 15.513 2.61284 14.6385 2.61284C14.5307 2.04952 14.8661 1.72592 15.2734 1.43827Z" fill="#DB626D"/>
<path d="M22.7365 1.43822C23.5271 1.27042 24.3417 1.68991 24.6771 2.44499C23.8385 2.44499 23.012 2.44499 22.1854 2.44499C22.0656 1.9416 22.413 1.68991 22.7365 1.43822Z" fill="#DB626D"/>
<path d="M15.2734 1.43823C14.9979 1.79779 14.6984 2.14537 14.6385 2.62479C14.4948 2.64876 14.351 2.67273 14.1953 2.68471C14.0516 2.68471 13.8479 2.76861 13.776 2.64876C13.6682 2.49295 13.8479 2.34912 13.9318 2.21728C14.2792 1.77382 14.6865 1.45022 15.2734 1.43823Z" fill="#D64953"/>
<path d="M30.1875 1.43823C30.0078 1.78581 29.6724 2.06147 29.6125 2.46898C29.7922 2.58883 30.0198 2.44501 30.1755 2.58883C29.6844 2.62479 29.2052 2.57685 28.6661 2.51692C29.0495 1.89368 29.4807 1.47419 30.1875 1.43823Z" fill="#D74953"/>
<path d="M22.7365 1.43823C22.5687 1.77382 22.2213 2.02552 22.1974 2.44501C21.9099 2.44501 21.6344 2.44501 21.275 2.44501C21.6224 1.84574 22.0656 1.47419 22.7365 1.43823Z" fill="#D74953"/>
<path d="M14.7224 43.3273C14.2672 43.1475 13.788 43.2913 13.3328 43.2554C13.201 43.2434 13.1651 43.3632 13.1292 43.4591C13.0812 43.567 13.0573 43.6868 13.0094 43.7947C12.8656 44.1183 12.6141 44.2501 12.2786 44.1183C11.9672 43.9985 11.8833 43.7228 11.9911 43.4112C12.4463 42.2006 12.9135 40.9901 13.3807 39.7796C13.4766 39.5159 13.6682 39.3721 13.9557 39.3601C14.2672 39.3481 14.4588 39.5159 14.5667 39.7916C14.6385 39.9833 14.7344 40.1751 14.8182 40.3549C15.1896 41.3617 15.5609 42.3684 15.9203 43.3752C16.088 43.8426 15.7766 44.2262 15.3333 44.1423C15.1297 44.1063 15.0219 43.9745 14.938 43.8067C14.8542 43.6509 14.7823 43.4951 14.7224 43.3273Z" fill="black"/>
<path d="M17.8849 41.7572C17.8849 42.3564 17.8849 42.9557 17.8849 43.555C17.8849 43.9026 17.7412 44.1423 17.3818 44.1662C16.9984 44.1782 16.8188 43.9385 16.8188 43.567C16.8188 42.3684 16.8188 41.1699 16.8188 39.9833C16.8188 39.6238 16.9865 39.3721 17.3818 39.3721C17.7531 39.3841 17.8969 39.6238 17.8969 39.9713C17.8849 40.5586 17.8849 41.1579 17.8849 41.7572Z" fill="#000101"/>
<path d="M8.26562 23.024C7.79843 22.964 7.60677 22.6764 7.57083 22.2329C7.39114 19.4763 7.36718 16.7316 7.49895 13.975C7.57083 12.4049 7.66666 10.8348 7.89427 9.27669C8.14583 7.58674 9.51145 6.25636 11.2125 6.11254C14.1354 5.86084 17.0703 5.77695 20.0052 5.71702C24.7849 5.62114 29.5526 5.75298 34.3203 6.05261C36.6203 6.19644 37.974 7.6227 38.2016 9.91191C38.525 13.2079 38.6448 16.5159 38.537 19.8238C38.4771 21.7295 38.3693 23.6232 38.0937 25.5049C37.8422 27.2428 36.3208 28.5612 34.5719 28.6691C28.5583 29.0646 22.5448 29.1485 16.5312 28.9208C14.7943 28.8608 13.0573 28.765 11.3323 28.6571C9.49947 28.5372 7.9901 27.0031 7.83437 25.1454C7.79843 24.6899 8.00208 24.4382 8.52916 24.3304C8.88854 24.2944 9.12812 24.4382 9.24791 24.8098C9.31979 25.0015 9.33177 25.2173 9.37968 25.421C9.63124 26.4518 10.5656 27.1949 11.6078 27.1949C13.0812 27.3147 14.5667 27.3267 16.0401 27.4466C16.8068 27.5065 17.5615 27.4825 18.3281 27.5065C21.4547 27.5904 24.5812 27.5904 27.7078 27.5065C28.0312 27.4945 28.3667 27.4705 28.6901 27.4586C30.6547 27.4466 32.6073 27.3147 34.5599 27.1709C35.5661 27.099 36.4047 26.3319 36.6083 25.3132C36.7641 24.5701 36.8 23.803 36.8599 23.0359C37.1115 20.2913 37.0755 17.5346 37.0276 14.778C37.0036 13.0761 36.8599 11.3741 36.6443 9.68419C36.5005 8.50962 35.7458 7.77851 34.5839 7.57476C33.949 7.46689 33.3021 7.49086 32.6552 7.44292C31.062 7.34704 29.4568 7.23917 27.8635 7.23917C26.0547 7.23917 24.2458 7.10733 22.437 7.1313C20.7359 7.15527 19.0229 7.2152 17.3219 7.25115C15.3573 7.29909 13.3807 7.39498 11.4161 7.56277C10.1943 7.74255 9.4276 8.55756 9.28385 9.80404C8.87656 13.2798 8.87656 16.7796 8.92447 20.2793C8.93645 20.9625 9.03229 21.6456 8.98437 22.3408C8.98437 22.8681 8.73281 23.0839 8.26562 23.024Z" fill="black"/>
<path d="M8.26562 23.024C8.82865 22.8682 8.94844 22.7004 8.9125 22.1251C8.72083 19.0568 8.70885 15.9886 8.90052 12.9203C8.9724 11.8416 9.06823 10.7749 9.17604 9.69623C9.30781 8.42577 10.2542 7.5029 11.4042 7.45496C11.524 7.64672 11.3802 7.80253 11.2964 7.94636C11.0208 8.43776 10.8771 8.96512 10.8172 9.52843C10.6135 11.5779 10.5057 13.6394 10.4219 15.7129C10.374 17.0193 10.4099 18.3137 10.4578 19.6082C10.4698 19.8599 10.4458 20.1115 10.4578 20.3632C10.4818 21.4659 10.5536 22.5686 10.6615 23.6592C10.7094 24.1506 10.7453 24.642 10.8052 25.1334C10.8771 25.7567 10.9849 26.3679 11.3563 26.9073C11.4401 27.0271 11.524 27.159 11.488 27.3148C10.2661 27.2429 9.37969 26.3919 9.17604 25.0615C9.11615 24.642 8.92448 24.4143 8.51719 24.3424C8.38542 24.2465 8.32552 24.1267 8.34948 23.9589C8.38542 23.6472 8.32552 23.3356 8.26562 23.024Z" fill="#BFE2F7"/>
<path d="M13.9677 41.2777C14.0995 41.6133 14.1953 41.865 14.2911 42.1407C14.0635 42.2006 13.8719 42.2006 13.6323 42.1407C13.7401 41.853 13.8359 41.6013 13.9677 41.2777Z" fill="#71C5EE"/>
<path d="M10.3859 19.68C10.2662 18.4935 10.1464 17.3189 10.3021 16.1204C10.326 15.9406 10.326 15.7608 10.326 15.581C10.3141 13.6394 10.4938 11.7217 10.6615 9.79206C10.7333 8.92911 10.9969 8.17403 11.4042 7.44292C12.6859 7.27513 13.9677 7.25116 15.2495 7.19123C19.6219 6.99946 23.9823 6.95152 28.3547 7.09534C30.3313 7.15527 32.2958 7.26314 34.2724 7.38299C35.8417 7.47888 36.6802 8.38977 36.8359 9.95986C37.1714 13.2079 37.2792 16.4679 37.1833 19.74C37.1354 21.5018 37.0037 23.2637 36.812 25.0255C36.6682 26.3919 35.6979 27.2428 34.3323 27.3267C29.6005 27.6503 24.8568 27.7342 20.113 27.6743C17.238 27.6263 14.375 27.5305 11.5 27.3027C10.949 26.6316 10.7693 25.8405 10.6734 24.9896C10.5297 23.6352 10.4818 22.2689 10.338 20.9145C10.3141 20.7108 10.2662 20.495 10.3979 20.3033C11.476 20.7347 12.6021 20.495 13.7162 20.507C14.0156 20.507 14.2552 20.3153 14.2792 19.9797C14.2912 19.692 14.0516 19.4763 13.6682 19.4643C12.8057 19.4403 11.9432 19.4523 11.0688 19.4523C10.8052 19.4643 10.6375 19.668 10.3859 19.68Z" fill="#D9EDF9"/>
<path d="M10.3859 19.68C10.5656 19.4044 10.8172 19.3085 11.1406 19.3085C11.9792 19.3205 12.8177 19.3085 13.6443 19.3205C14.1234 19.3205 14.4229 19.5961 14.4229 19.9916C14.4229 20.3752 14.1234 20.6508 13.6682 20.6628C12.8057 20.6748 11.9432 20.6628 11.0688 20.6628C10.7813 20.6628 10.5536 20.543 10.3859 20.3152C10.326 20.1115 10.3021 19.8958 10.3859 19.68Z" fill="black"/>
<path d="M15.1537 15.5811C13.249 15.5811 11.6917 14.0469 11.6797 12.1413C11.6677 10.2356 13.2609 8.64152 15.1656 8.65351C17.0703 8.66549 18.6037 10.2116 18.6037 12.1293C18.6037 14.0469 17.0703 15.5811 15.1537 15.5811Z" fill="black"/>
<path d="M30.7865 15.581C28.8578 15.545 27.3604 13.975 27.3964 12.0333C27.4323 10.1636 29.0255 8.62946 30.8943 8.66541C32.8229 8.70137 34.3563 10.2954 34.3203 12.2011C34.2724 14.0948 32.6911 15.617 30.7865 15.581Z" fill="black"/>
<path d="M23.012 20.2433C20.9276 20.2433 19.2026 18.6253 19.0708 16.5398C19.0349 16.0124 19.2625 15.6888 19.6698 15.6409C20.101 15.593 20.3646 15.8806 20.4125 16.4439C20.5323 17.8702 21.6224 18.9009 23.012 18.8889C24.3776 18.8889 25.4557 17.8702 25.5875 16.4559C25.6354 15.8806 25.887 15.6049 26.3182 15.6409C26.7615 15.6769 26.9891 16.0364 26.9292 16.6117C26.7375 18.6972 25.0604 20.2313 23.012 20.2433Z" fill="black"/>
<path d="M33.5896 20.6629C33.1583 20.6629 32.7271 20.6749 32.2958 20.6629C31.8526 20.6509 31.5651 20.3513 31.5651 19.9677C31.5771 19.5842 31.8646 19.3205 32.3198 19.3205C33.1823 19.3085 34.0568 19.3085 34.9193 19.3205C35.3745 19.3205 35.662 19.5842 35.662 19.9797C35.662 20.3752 35.3865 20.6509 34.9313 20.6629C34.488 20.6749 34.0448 20.6629 33.5896 20.6629Z" fill="black"/>
<path d="M12.3745 18.3737C11.9432 18.3737 11.512 18.3856 11.0687 18.3737C10.5896 18.3617 10.338 18.122 10.326 17.7145C10.326 17.307 10.5776 17.0433 11.0448 17.0313C11.9312 17.0073 12.8057 17.0193 13.6922 17.0313C14.1474 17.0433 14.4349 17.3309 14.4229 17.7145C14.4109 18.098 14.1234 18.3497 13.6682 18.3737C13.6443 18.3737 13.6083 18.3737 13.5844 18.3737C13.1891 18.3737 12.7818 18.3737 12.3745 18.3737Z" fill="#010101"/>
<path d="M33.6016 18.3737C33.1703 18.3737 32.7391 18.3857 32.3078 18.3737C31.8526 18.3617 31.5651 18.086 31.5651 17.7025C31.5651 17.319 31.8526 17.0433 32.3078 17.0313C33.1823 17.0193 34.0688 17.0193 34.9552 17.0313C35.4104 17.0433 35.6859 17.331 35.674 17.7265C35.662 18.098 35.3865 18.3617 34.9552 18.3737C34.5 18.3857 34.0568 18.3737 33.6016 18.3737Z" fill="#010101"/>
<path d="M15.549 10.0797C16.4833 10.2355 17.2141 11.0385 17.262 11.9734C17.3099 13.0042 16.7109 13.8671 15.7526 14.1188C15.5729 14.1907 15.4292 14.1068 15.3094 13.975C14.1953 12.7644 14.5068 10.7749 15.549 10.0797Z" fill="#8FD7F8"/>
<path d="M15.549 10.0797C15.2375 10.5711 14.8662 11.0146 14.7703 11.6138C14.6385 12.4408 14.8302 13.1719 15.3214 13.8431C15.4292 13.9869 15.549 14.1188 15.7526 14.1308C14.9021 14.4064 14.0156 14.1188 13.4766 13.4116C12.9255 12.6925 12.8896 11.7337 13.3807 10.9786C13.8599 10.2475 14.7104 9.88793 15.549 10.0797Z" fill="#74CDF8"/>
<path d="M31.2656 10.0797C32.224 10.2595 32.9307 11.0745 32.9667 12.0453C33.0026 13.0042 32.3797 13.8671 31.4573 14.1188C31.2656 14.2027 31.1219 14.1188 30.9781 13.987C30.1156 13.112 30.1036 11.1584 30.9661 10.2715C31.05 10.1756 31.1578 10.1396 31.2656 10.0797Z" fill="#8FD7F8"/>
<path d="M31.2656 10.0798C30.4391 11.0266 30.1995 12.0813 30.6786 13.2559C30.8224 13.6154 30.9661 14.0589 31.4693 14.1188C30.6307 14.3945 29.7562 14.1308 29.1932 13.4237C28.6422 12.7285 28.5943 11.7337 29.0734 10.9906C29.5526 10.2475 30.4031 9.88799 31.2656 10.0798Z" fill="#74CDF8"/>
</g>
<defs>
<clipPath id="clip0_47_6531">
<rect width="46" height="46" fill="white"/>
</clipPath>
</defs>
</svg>
