<svg width="15" height="15" viewBox="0 0 15 15" fill="none" xmlns="http://www.w3.org/2000/svg">
<path d="M9.27988 2.74963C9.48983 2.74963 9.6813 2.86014 9.78758 3.03548L9.83332 3.12835L13.8411 13.4431H14.038C14.3659 13.4431 14.6318 13.7088 14.6318 14.0368C14.6318 14.3283 14.4217 14.5707 14.1447 14.621L14.038 14.6307H11.6594C11.3315 14.6307 11.0657 14.3647 11.0657 14.0368C11.0657 13.7453 11.2757 13.5029 11.5527 13.4526L11.6594 13.4431H12.5671L11.6453 11.0706H6.9145L5.99483 13.4375H6.90624C7.23415 13.4375 7.49999 13.7034 7.49999 14.0312C7.49999 14.3227 7.28995 14.5652 7.01296 14.6154L6.90624 14.625H5.20647L5.12543 14.6307L5.04333 14.625H4.53124C4.20332 14.625 3.93749 14.3591 3.93749 14.0312C3.93749 13.7398 4.14753 13.4973 4.42451 13.4471L4.53124 13.4375H4.72085L8.72644 3.12835C8.81514 2.90004 9.03495 2.74963 9.27988 2.74963ZM9.27988 4.98281L7.37591 9.88307H11.1838L9.27988 4.98281ZM3.64098 0.375C3.88849 0.375 4.11002 0.528544 4.19692 0.760296L6.24757 6.22935L5.60216 7.89041L5.23266 6.90494H2.04873L1.52469 8.30222C1.40954 8.60924 1.06729 8.76479 0.760248 8.64964C0.45322 8.53449 0.297669 8.19224 0.412821 7.8852L3.08503 0.760249C3.17194 0.528508 3.39348 0.375 3.64098 0.375ZM3.6409 2.65974L2.4941 5.71744H4.78739L3.6409 2.65974Z" fill="white"/>
</svg>
