<svg width="91" height="104" viewBox="0 0 91 104" fill="none" xmlns="http://www.w3.org/2000/svg">
<path d="M81.2015 103.561C81.1744 103.615 81.1744 103.669 81.1744 103.75C57.6445 103.75 34.1418 103.75 10.612 103.75C10.6391 103.696 10.6391 103.615 10.5849 103.561C11.0999 103.074 11.7234 103.209 12.3198 103.209C18.9884 103.209 25.657 103.209 32.3256 103.209C47.9669 103.209 63.6083 103.209 79.2226 103.209C79.9274 103.209 80.6322 103.047 81.2015 103.561Z" fill="#666666"/>
<path d="M81.2018 103.561C80.9307 103.561 80.6597 103.534 80.3886 103.534C57.1841 103.534 34.0066 103.534 10.8021 103.507C10.7479 103.507 10.6666 103.534 10.6124 103.534C9.66357 103.209 9.69068 102.398 9.69068 101.614C9.69068 93.5853 9.69068 85.5291 9.69068 77.5C9.69068 75.932 9.69068 75.932 8.0913 75.932C7.22384 75.932 6.32927 75.9861 5.46182 75.8239C2.83233 75.3372 0.961872 73.2827 0.934764 70.6063C0.880548 66.5512 0.907656 62.4961 0.907656 58.4409C0.907656 57.3866 1.42271 56.873 2.45282 56.873C4.18774 56.8459 5.92265 56.8459 7.63046 56.873C8.68768 56.873 9.17562 57.3596 9.17562 58.4409C9.20273 60.5766 9.17562 62.6853 9.17562 64.9562C11.0461 64.4966 12.8623 64.037 14.6786 63.5774C17.8773 62.7664 21.1032 61.9283 24.3019 61.1444C25.0068 60.9821 25.2507 60.6848 25.2236 59.9278C25.1694 57.9273 25.1694 55.9538 25.2236 53.9533C25.2236 53.3315 25.1152 53.0341 24.4104 53.0882C20.6695 53.3315 18.2026 50.1685 18.5279 47.1137C18.6092 46.4648 18.3382 46.3297 17.7418 46.3567C16.6575 46.4108 15.5731 46.3837 14.4888 46.3567C11.4527 46.3026 9.0943 44.1129 9.01298 41.1121C8.93165 37.084 8.98587 33.083 8.98587 29.0549C8.98587 28.0006 9.52803 27.5139 10.5581 27.5139C12.2117 27.4869 13.8653 27.5139 15.546 27.5139C16.793 27.5139 17.2809 28.0006 17.2809 29.2171C17.2809 31.2987 17.2809 33.4074 17.2809 35.6242C19.7478 35.0024 22.1604 34.4076 24.5459 33.7859C27.1754 33.11 29.7778 32.4071 32.4073 31.8124C33.1663 31.6231 33.356 31.2987 33.3289 30.5958C33.2747 29.2441 33.2747 27.8924 33.3289 26.5407C33.356 25.8378 33.1392 25.6486 32.4344 25.6486C29.4254 25.6486 27.2838 23.9454 26.7146 21.215C26.6875 21.0528 26.6603 20.8906 26.6332 20.7284C26.4706 18.9441 26.4706 18.9441 24.6272 18.9441C23.7869 18.9441 22.9194 18.9712 22.0791 18.8901C19.1514 18.5927 17.1183 16.4029 17.0912 13.4562C17.037 9.53627 17.0641 5.61633 17.0912 1.69639C17.0912 0.533923 17.5791 0.0202756 18.7719 0.0202756C20.5068 -0.00675852 22.1604 -0.00675852 23.814 0.0202756C25.0068 0.0473097 25.4676 0.533923 25.4676 1.72342C25.4676 3.80505 25.4676 5.91371 25.4676 8.0494C31.0247 6.67066 36.4735 5.23785 41.9493 3.94022C44.5246 3.34547 47.2354 3.34547 49.8107 3.94022C55.151 5.15675 60.437 6.56253 65.7502 7.8872C65.9129 7.91423 66.0755 7.9683 66.3195 8.02237C66.3195 5.94074 66.3195 3.94022 66.3195 1.91266C66.3195 0.398753 66.7261 0.0202756 68.2713 0.0202756C69.7893 0.0202756 71.3345 -0.00675852 72.8525 0.0202756C74.1808 0.0473097 74.6146 0.479855 74.6146 1.80453C74.6146 5.64337 74.6417 9.50924 74.6146 13.3481C74.5875 16.7273 72.2562 18.9712 68.8948 18.9712C67.946 18.9712 66.9972 19.0252 66.0484 18.9441C65.3165 18.8901 65.0725 19.0793 65.0996 19.8633C65.1809 21.999 64.3406 23.7292 62.4701 24.8916C61.4671 25.5134 60.3286 25.7567 59.163 25.6486C58.5937 25.5945 58.4039 25.7838 58.431 26.3785C58.4581 27.8924 58.4581 29.4334 58.431 30.9473C58.4039 31.515 58.6208 31.6502 59.1358 31.7853C63.9882 33.0019 68.8405 34.2184 73.6658 35.462C74.2893 35.6242 74.479 35.5701 74.479 34.8672C74.4248 33.0019 74.4519 31.1635 74.479 29.2982C74.479 28.0276 74.9128 27.541 76.1597 27.541C77.8133 27.5139 79.494 27.5139 81.1476 27.541C82.2862 27.568 82.7741 28.0546 82.7741 29.163C82.8012 33.137 82.8554 37.1381 82.747 41.1121C82.6657 44.3292 80.3344 46.4919 77.1085 46.5189C76.2411 46.5189 75.3465 46.6 74.479 46.4919C73.5302 46.4108 73.232 46.627 73.2592 47.6543C73.3134 50.3848 71.5785 52.5205 69.0032 53.0882C68.461 53.2234 67.8646 53.2234 67.2954 53.1963C66.7803 53.1693 66.5906 53.3045 66.5906 53.8451C66.6177 56.0349 66.6177 58.2247 66.5906 60.4415C66.5906 60.9281 66.7532 61.0362 67.187 61.1444C72.0935 62.3879 77.0001 63.6315 81.9066 64.9021C82.5301 65.0643 82.6386 64.848 82.6386 64.2803C82.6115 62.3879 82.6115 60.4955 82.6386 58.6031C82.6386 57.4407 83.0723 56.9811 84.2108 56.9811C85.9457 56.9541 87.6807 56.9541 89.3885 56.9811C90.4728 57.0081 90.9878 57.5218 90.9878 58.6302C90.9878 62.5772 91.015 66.5512 90.9878 70.4981C90.9607 73.4449 88.6837 75.7157 85.7018 75.8779C85.4578 75.8779 85.2138 75.8779 84.997 75.8779C84.1024 75.932 82.8554 75.4724 82.3946 76.0672C81.9337 76.6078 82.2319 77.7974 82.2319 78.7165C82.2319 86.3401 82.2319 93.9908 82.2319 101.614C82.1777 102.479 82.1506 103.263 81.2018 103.561Z" fill="black"/>
<path d="M45.8255 73.1204C32.8137 73.1204 19.8289 73.1204 6.81699 73.1204C4.72967 73.1204 3.61823 72.0931 3.59113 70.2008C3.59113 69.6871 3.69956 69.4168 4.26883 69.2816C11.6693 67.4433 19.0698 65.5779 26.4975 63.7126C26.8499 63.6315 27.2294 63.6315 27.6089 63.6315C39.8347 63.6315 52.0604 63.6315 64.2862 63.6315C65.9397 63.6315 67.4578 64.2533 69.0301 64.6317C75.1294 66.1456 81.2287 67.7136 87.328 69.2005C88.1142 69.3897 88.2768 69.7412 88.1955 70.4441C87.9515 72.2283 86.9485 73.0934 84.9967 73.0934C71.9035 73.1204 58.8645 73.1204 45.8255 73.1204Z" fill="#DC4C43"/>
<path d="M26.4705 44.9509C26.1181 44.0318 25.3862 43.7614 24.4374 43.7885C21.1302 43.8155 17.7959 43.8155 14.4888 43.7885C12.8352 43.7885 11.8593 42.8153 11.6966 41.1932C11.6424 40.4903 11.7779 40.1118 12.5641 39.9226C18.5821 38.4628 24.6001 37.0029 30.5639 35.3809C33.5729 34.5699 36.5819 34.2725 39.6722 34.3266C44.1721 34.4077 48.6721 34.4077 53.1991 34.3266C55.6931 34.2725 58.1057 34.5699 60.5183 35.2187C66.6718 36.8407 72.8254 38.3546 79.006 39.8685C79.8464 40.0848 80.0903 40.4363 80.009 41.2473C79.8735 42.8693 78.8976 43.7885 77.0814 43.7885C72.0392 43.7885 66.9971 43.7885 61.9279 43.7885C57.0214 43.7885 52.1148 43.7885 47.1811 43.7885C46.3137 43.7885 45.5275 43.8966 45.3378 44.9509C45.2564 45.0321 45.148 45.1132 45.0125 45.1402C43.0878 45.2754 41.136 45.2213 39.2113 45.1672C39.1029 45.1402 38.9945 45.1132 38.886 45.0591C38.2897 44.1399 37.3951 43.8696 36.3379 43.9777C36.0668 44.0048 35.7957 44.0318 35.5246 43.9777C34.3048 43.7614 33.4102 44.3832 32.5427 45.1402C30.7536 45.3024 28.9645 45.1943 27.1753 45.1943C26.9585 45.2213 26.6874 45.1402 26.4705 44.9509Z" fill="#DC4C43"/>
<path d="M45.8529 16.1056C38.2355 16.1056 30.6182 16.1056 22.9737 16.1056C20.9135 16.1056 19.802 15.0513 19.7478 13.1589C19.7207 12.51 19.9647 12.2938 20.534 12.1586C27.0399 10.5366 33.5458 8.96858 39.9976 7.2384C44.2535 6.10297 48.374 6.34628 52.6028 7.48171C58.6479 9.13079 64.7201 10.6177 70.7924 12.1316C71.6869 12.3478 71.9038 12.7534 71.8225 13.5914C71.6869 14.862 70.9008 15.8082 69.6267 16.0245C69.193 16.1056 68.7593 16.1056 68.3255 16.1056C60.8437 16.1056 53.3619 16.1056 45.8529 16.1056Z" fill="#DC4C43"/>
<path d="M45.8799 53.2774C51.4642 53.2774 57.0484 53.3044 62.6327 53.2504C63.5815 53.2504 63.7441 53.5207 63.717 54.3588C63.6628 56.2512 63.6628 58.1435 63.717 60.0359C63.717 60.6036 63.5544 60.7658 62.9851 60.7658C61.3586 60.7388 59.7321 60.7118 58.1056 60.7658C57.4279 60.7929 57.3195 60.5496 57.3466 59.9548C57.4008 59.2249 57.3737 58.4679 57.3466 57.738C57.3195 56.7648 56.7773 56.2241 55.937 56.2512C55.0153 56.2782 54.6358 56.8459 54.5816 57.711C54.5816 57.8732 54.5816 58.0624 54.5816 58.2246C54.5274 59.0627 54.9611 60.1981 54.4189 60.6307C53.9039 61.0362 52.8196 60.7658 51.9792 60.7658C50.6509 60.7658 49.3497 60.7388 48.0214 60.7658C47.5335 60.7658 47.3708 60.6577 47.3979 60.1441C47.4522 59.3601 47.4251 58.6031 47.3979 57.8191C47.3708 56.7648 46.8287 56.2241 45.9612 56.2512C45.1209 56.2782 44.66 56.8189 44.6329 57.8191C44.6329 57.8462 44.6329 57.9002 44.6329 57.9273C44.5516 58.8464 45.0395 60.1441 44.4432 60.6307C43.8468 61.0903 42.6269 60.7658 41.6781 60.7658C40.5667 60.7658 39.4282 60.7118 38.3167 60.7929C37.5848 60.8199 37.2595 60.6847 37.3408 59.8737C37.4222 59.1438 37.3679 58.3868 37.3408 57.6569C37.2866 56.7378 36.7716 56.2241 35.9312 56.2782C35.0909 56.3323 34.63 56.8189 34.63 57.6569C34.6029 58.4679 34.6029 59.279 34.63 60.09C34.6571 60.5766 34.5758 60.8199 33.9794 60.8199C32.1632 60.7929 30.3198 60.7929 28.5036 60.8199C28.0699 60.8199 27.9343 60.7118 27.9343 60.2522C27.9614 58.1706 27.9885 56.0619 27.9343 53.9803C27.9072 53.1693 28.3952 53.3315 28.856 53.3315C34.4945 53.2774 40.1872 53.2774 45.8799 53.2774Z" fill="#F2F4F8"/>
<path d="M45.2295 44.9779C45.2838 44.9779 45.338 44.9509 45.3651 44.9509C45.4464 46.2215 45.8259 46.573 47.1542 46.573C54.5005 46.573 61.8468 46.6 69.1931 46.5459C70.2232 46.5459 70.4672 46.8703 70.3859 47.7895C70.2503 49.3845 69.2473 50.4118 67.6208 50.4118C53.0909 50.4118 38.5881 50.4118 24.0581 50.4118C22.1063 50.4118 20.9407 48.979 21.1847 47.0596C21.2389 46.573 21.51 46.5459 21.8624 46.5459C22.784 46.5459 23.7057 46.5189 24.6003 46.5459C25.6575 46.6 26.2539 46.1404 26.4707 45.1131C28.4767 44.8968 30.5099 45.0861 32.5158 45.005C32.6785 45.005 32.8683 45.032 32.9767 45.1672C34.2508 46.8703 36.0128 46.1675 37.6393 46.1134C38.317 46.0864 38.4525 45.3024 38.8863 44.8969C38.9405 44.9239 38.9947 44.9239 39.0218 44.9239C41.1091 45.0861 43.1693 45.0861 45.2295 44.9779Z" fill="#9E919C"/>
<path d="M68.732 94.2342C65.5875 94.2342 62.4429 94.2071 59.2713 94.2612C58.5665 94.2612 58.3496 94.0449 58.3496 93.342C58.3767 90.0709 58.3767 86.7998 58.3496 83.5016C58.3496 82.8528 58.5394 82.6095 59.2171 82.6365C65.5875 82.6636 71.9579 82.6636 78.3283 82.6365C79.006 82.6365 79.1957 82.8528 79.1957 83.5016C79.1686 86.7457 79.1686 89.9898 79.1957 93.2339C79.1957 94.0179 79.006 94.2882 78.1656 94.2612C75.0211 94.2071 71.8766 94.2342 68.732 94.2342Z" fill="#9E919C"/>
<path d="M22.7835 94.2341C19.639 94.2341 16.4944 94.2071 13.3228 94.2611C12.618 94.2611 12.374 94.0719 12.4011 93.369C12.4282 90.0979 12.4282 86.8268 12.4011 83.5286C12.4011 82.7987 12.6722 82.6365 13.3499 82.6365C19.639 82.6635 25.9552 82.6635 32.2442 82.6365C33.0033 82.6365 33.2472 82.8257 33.2201 83.6097C33.193 86.8538 33.1659 90.0979 33.2201 93.342C33.2201 94.126 32.9491 94.2882 32.2171 94.2882C29.0997 94.2071 25.9552 94.2341 22.7835 94.2341Z" fill="#9E919C"/>
<path d="M45.8258 18.9712C50.9492 18.9712 56.0726 18.9983 61.169 18.9442C62.1177 18.9442 62.3075 19.2686 62.2533 20.1067C62.1449 21.6206 61.0334 22.8101 59.5154 22.8101C50.3799 22.8371 41.2174 22.8371 32.082 22.8101C30.2928 22.8101 29.0188 21.161 29.3441 19.4308C29.4525 18.782 29.9133 18.9712 30.2928 18.9712C33.5187 18.9712 36.7175 18.9712 39.9433 18.9712C41.8951 18.9712 43.874 18.9712 45.8258 18.9712Z" fill="#9E919C"/>
<path d="M45.7987 31.3528C42.8168 31.3528 39.8349 31.3258 36.8801 31.3799C36.2296 31.3799 36.0127 31.2447 36.0398 30.5418C36.094 29.1631 36.0669 27.7843 36.0398 26.4056C36.0398 25.8649 36.1753 25.7297 36.7175 25.7297C42.7626 25.7568 48.8348 25.7568 54.8799 25.7297C55.395 25.7297 55.5847 25.8649 55.5847 26.4056C55.5576 27.8114 55.5576 29.2442 55.5847 30.6499C55.6118 31.2177 55.4221 31.3799 54.8528 31.3799C51.8167 31.3258 48.8077 31.3528 45.7987 31.3528Z" fill="#F2F4F8"/>
<path d="M22.9195 75.959C26.0911 75.959 29.2899 75.9861 32.4615 75.959C33.0579 75.959 33.329 76.0672 33.2748 76.716C33.1935 77.6892 33.573 78.9598 33.085 79.5546C32.57 80.2034 31.2417 79.7438 30.2929 79.7438C24.6273 79.7708 18.9888 79.7438 13.3232 79.7709C12.5642 79.7709 12.2931 79.5816 12.3744 78.8247C12.4287 78.1218 12.4287 77.3919 12.3744 76.689C12.3202 76.0131 12.5913 75.932 13.1877 75.932C16.4407 75.959 19.6936 75.959 22.9195 75.959Z" fill="#F2F4F8"/>
<path d="M68.7594 75.9591C71.931 75.9591 75.1298 75.9861 78.3014 75.9321C78.9791 75.9321 79.3044 76.0402 79.196 76.7972C79.0604 77.7434 79.6297 79.041 78.9791 79.5817C78.4099 80.0683 77.1629 79.7439 76.2412 79.7439C70.5756 79.7439 64.9371 79.7439 59.2715 79.7709C58.5125 79.7709 58.2414 79.6087 58.3228 78.8247C58.4041 78.1218 58.377 77.3919 58.3228 76.689C58.2685 76.0402 58.5125 75.905 59.1089 75.905C62.3348 75.9591 65.5606 75.9591 68.7594 75.9591Z" fill="#F2F4F8"/>
<path d="M22.7293 100.912C19.5848 100.912 16.4403 100.885 13.2957 100.939C12.618 100.939 12.3198 100.83 12.4012 100.074C12.4825 99.3436 12.4554 98.5867 12.4012 97.8567C12.3469 97.2079 12.618 97.0728 13.2144 97.0728C19.639 97.0998 26.0636 97.0998 32.4883 97.0728C33.1118 97.0728 33.3557 97.2079 33.2744 97.8567C33.1931 98.857 33.681 100.155 33.0575 100.749C32.5696 101.236 31.2684 100.912 30.3196 100.912C27.7986 100.912 25.2504 100.912 22.7293 100.912Z" fill="#F2F4F8"/>
<path d="M68.7595 97.0726C71.9311 97.0726 75.1299 97.0996 78.3015 97.0455C79.0876 97.0455 79.3045 97.2618 79.2232 98.0188C79.169 98.6946 79.169 99.3705 79.2232 100.046C79.3045 100.776 79.0334 100.938 78.3286 100.911C72.8257 100.884 67.2956 100.884 61.7927 100.884C60.8439 100.884 59.8951 100.857 58.9463 100.884C58.4584 100.911 58.2957 100.749 58.3228 100.263C58.3499 99.4786 58.3771 98.6946 58.3228 97.9377C58.2686 97.2348 58.4855 97.0185 59.2174 97.0455C62.3891 97.0996 65.5607 97.0726 68.7595 97.0726Z" fill="#F2F4F8"/>
<path d="M40.1869 91.9903C39.0484 91.9903 37.8827 91.9633 36.7442 91.9903C36.2562 92.0173 36.1207 91.8281 36.1207 91.3415C36.1478 89.4221 36.1478 87.5026 36.1207 85.5832C36.1207 85.0425 36.2834 84.8803 36.8255 84.9074C39.1297 84.9344 41.4339 84.9344 43.711 84.9074C44.2802 84.9074 44.3887 85.0966 44.3887 85.6103C44.3616 87.5297 44.3616 89.4491 44.3887 91.3685C44.3887 91.8551 44.226 91.9903 43.7652 91.9903C42.5453 91.9633 41.3526 91.9903 40.1869 91.9903Z" fill="#E0E5EF"/>
<path d="M51.2203 91.9902C50.1089 91.9902 48.9974 91.9632 47.8589 91.9902C47.3167 92.0172 47.1812 91.828 47.1812 91.3144C47.2083 89.3949 47.2083 87.4755 47.1812 85.5291C47.1812 85.0425 47.3167 84.8802 47.8047 84.8802C50.1089 84.9073 52.4131 84.9073 54.7173 84.8802C55.2865 84.8802 55.395 85.0695 55.395 85.5831C55.3679 87.5026 55.3679 89.422 55.395 91.3684C55.395 91.855 55.2594 91.9902 54.7715 91.9902C53.5787 91.9632 52.386 91.9902 51.2203 91.9902Z" fill="#E0E5EF"/>
<path d="M40.2143 100.911C39.13 100.911 38.0457 100.884 36.9614 100.911C36.3379 100.938 36.0668 100.83 36.0939 100.1C36.1481 98.5865 36.121 97.0726 36.0939 95.5587C36.0939 95.018 36.2023 94.8018 36.7987 94.8018C39.0487 94.8288 41.3258 94.8288 43.5758 94.8018C44.1179 94.8018 44.3619 94.8829 44.3348 95.5046C44.2806 97.0456 44.2806 98.6136 44.3348 100.155C44.3619 100.83 44.0908 100.938 43.5215 100.911C42.4372 100.884 41.3258 100.911 40.2143 100.911Z" fill="#E0E5EF"/>
<path d="M40.214 82.0417C39.0755 82.0417 37.9098 82.0147 36.7713 82.0417C36.2834 82.0417 36.1207 81.9065 36.1207 81.4199C36.1478 79.7979 36.1478 78.1758 36.1207 76.5538C36.1207 76.0401 36.3376 75.932 36.7984 75.959C39.1297 75.9861 41.461 75.9861 43.8194 75.959C44.3073 75.959 44.47 76.0672 44.4429 76.5808C44.4158 78.2028 44.4158 79.8249 44.4429 81.4469C44.4429 81.9335 44.2802 82.0687 43.7923 82.0687C42.5724 82.0147 41.4068 82.0417 40.214 82.0417Z" fill="#E0E5EF"/>
<path d="M51.3557 75.959C52.4942 75.959 53.6599 75.9861 54.7984 75.959C55.3135 75.932 55.5032 76.0942 55.5032 76.6349C55.4761 78.1758 55.4761 79.7438 55.5032 81.2848C55.5032 81.8254 55.3677 82.0417 54.7713 82.0417C52.4671 82.0147 50.1629 82.0147 47.8587 82.0417C47.3166 82.0417 47.181 81.8525 47.181 81.3388C47.2081 79.7438 47.2081 78.1758 47.181 76.5808C47.1539 76.0131 47.3979 75.932 47.8858 75.932C49.0515 75.959 50.19 75.959 51.3557 75.959Z" fill="#E0E5EF"/>
<path d="M51.2741 100.911C50.1627 100.911 49.0512 100.884 47.9127 100.911C47.3705 100.938 47.1537 100.803 47.1537 100.209C47.2079 98.6676 47.1808 97.0997 47.1537 95.5587C47.1537 95.018 47.2621 94.8018 47.8585 94.8018C50.1356 94.8288 52.3855 94.8288 54.6626 94.8018C55.1506 94.8018 55.3674 94.8829 55.3674 95.4506C55.3403 97.0456 55.3132 98.6136 55.3674 100.209C55.3945 100.83 55.1235 100.911 54.6084 100.911C53.5241 100.884 52.4126 100.911 51.2741 100.911Z" fill="#E0E5EF"/>
<path d="M11.642 37.084C11.642 35.0024 11.642 32.9748 11.642 30.9743C11.642 30.5958 11.7505 30.3795 12.1571 30.4336C12.1842 30.4336 12.2113 30.4336 12.2655 30.4336C14.3257 30.2984 14.3257 30.2984 14.3257 32.3801C14.3257 33.4614 14.2986 34.5428 14.3528 35.5971C14.3799 36.2459 14.2173 36.5974 13.5125 36.6785C12.889 36.7325 12.3197 36.9218 11.642 37.084Z" fill="#FDBD40"/>
<path d="M79.9547 36.9759C79.8463 37.0029 79.7921 37.0029 79.765 37.0029C77.271 36.5433 77.271 36.5434 77.271 34.0292C77.271 33.056 77.2981 32.0827 77.271 31.1095C77.2439 30.6229 77.3795 30.4066 77.9216 30.3796C79.9276 30.2985 79.9276 30.2714 79.9276 32.272C79.9547 33.867 79.9547 35.435 79.9547 36.9759Z" fill="#FDBD40"/>
<path d="M71.8224 6.10291C71.8224 7.0491 71.8224 7.9953 71.8224 8.91446C71.8224 9.31997 71.714 9.48217 71.3074 9.31997C71.2803 9.31997 71.2531 9.29293 71.1989 9.29293C69.1387 8.94149 69.1387 8.94149 69.1387 6.8869C69.1387 5.75147 69.1658 4.589 69.1387 3.45357C69.1116 2.85882 69.3285 2.72365 69.8706 2.72365C71.8224 2.69662 71.8224 2.66958 71.8224 4.6701C71.8224 5.15672 71.8224 5.64333 71.8224 6.10291Z" fill="#FEBD40"/>
<path d="M19.775 9.42814C19.775 7.29245 19.775 5.29193 19.775 3.26437C19.775 2.93996 19.8563 2.75072 20.2358 2.77776C20.2629 2.77776 20.29 2.77776 20.3443 2.77776C22.4587 2.61555 22.4587 2.61555 22.4587 4.72421C22.4587 5.80558 22.4316 6.88694 22.4587 7.9683C22.4858 8.56305 22.3231 8.88746 21.6997 8.9956C21.0762 9.0767 20.5069 9.26594 19.775 9.42814Z" fill="#FEBD40"/>
<path d="M3.51019 66.443C3.51019 64.4155 3.51019 62.3879 3.51019 60.3874C3.51019 59.9819 3.64573 59.8467 4.05235 59.9008C4.07946 59.9008 4.10656 59.9008 4.16078 59.9008C6.19389 59.8197 6.19389 59.8197 6.19389 61.8202C6.19389 62.9286 6.16678 64.037 6.19389 65.1454C6.22099 65.7131 6.05835 66.0105 5.46197 66.0645C4.81137 66.1456 4.2421 66.443 3.51019 66.443Z" fill="#FEFEFE"/>
<path d="M88.087 63.2531C88.087 64.1182 88.087 65.0103 88.087 65.8754C88.087 66.0646 88.1412 66.4161 87.9515 66.389C87.1925 66.2809 86.4334 66.1187 85.7015 65.9024C85.2136 65.7402 85.4575 65.2536 85.4304 64.9292C85.4033 63.5234 85.4575 62.0906 85.4033 60.6848C85.3762 60.0901 85.5118 59.8738 86.1624 59.8738C88.0599 59.8738 88.0599 59.8468 88.0599 61.7662C88.087 62.2528 88.087 62.7664 88.087 63.2531Z" fill="#FEBD40"/>
<path d="M32.7868 45.1402C30.6995 45.1402 28.5851 45.1402 26.4977 45.1402C26.4706 45.0862 26.4435 45.0051 26.4977 44.951C28.5851 44.951 30.6724 44.951 32.7868 44.924C32.841 44.951 32.841 45.0051 32.841 45.0591C32.8139 45.1132 32.8139 45.1402 32.7868 45.1402Z" fill="#D3A4A0"/>
<path d="M32.7864 45.1401C32.7864 45.086 32.7593 45.0049 32.7593 44.9509C33.1659 43.9777 33.8978 43.6532 34.9279 43.7343C35.7412 43.7884 36.5273 43.7614 37.3405 43.7343C38.1809 43.7343 38.7502 44.0858 38.9128 44.9509C38.8044 46.0322 38.3435 46.4918 37.2592 46.5459C36.4731 46.5729 35.7141 46.5189 34.9279 46.5459C33.8436 46.6 33.1117 46.2215 32.7864 45.1401Z" fill="#000001"/>
<path d="M45.2293 44.9779C43.4944 45.3293 41.7595 45.059 40.0246 45.1401C39.6993 45.1671 39.3469 45.2753 39.0758 44.9779C41.1089 44.9779 43.1691 44.9779 45.2293 44.9779Z" fill="#D3A4A0"/>
<path d="M70.0605 91.1522C70.1418 92.3417 69.6538 92.9635 68.5966 92.9635C66.4009 92.9905 64.2322 90.8278 64.1509 88.5029C64.0696 86.3401 66.1298 84.1504 68.3255 84.0693C69.5996 84.0152 70.0062 84.3937 70.0605 85.7184C70.1689 86.4212 69.681 86.6646 69.193 86.9079C68.9219 87.043 68.6237 87.0971 68.3255 87.1782C67.675 87.4215 67.3225 87.8811 67.3497 88.5569C67.3768 89.2058 67.7834 89.5842 68.3798 89.8005C68.7593 89.9357 69.193 89.9357 69.5183 90.179C69.8707 90.4223 70.2231 90.6656 70.0605 91.1522Z" fill="black"/>
<path d="M70.0602 91.1521C69.8433 90.5303 69.3825 90.287 68.759 90.1789C67.6475 89.9896 67.0783 89.4219 67.0512 88.5298C67.0241 87.5836 67.5933 86.9889 68.7861 86.7996C69.4638 86.6915 69.9246 86.3941 70.0873 85.7183C71.2529 86.2049 71.7951 87.1511 71.8222 88.3406C71.8493 89.6112 71.2529 90.6114 70.0602 91.1521Z" fill="#FDBD40"/>
<path d="M18.3385 88.3948C18.3385 85.8536 20.3987 83.8801 22.9468 83.8801C25.3052 83.9072 27.4739 86.0969 27.4468 88.4759C27.4197 90.882 25.2781 93.0177 22.8655 92.9906C20.3716 92.9636 18.3385 90.909 18.3385 88.3948Z" fill="black"/>
<path d="M21.1847 88.3946C21.2118 87.4755 21.9437 86.7455 22.8654 86.7185C23.787 86.7185 24.5732 87.4755 24.5732 88.3676C24.5732 89.2867 23.6786 90.1518 22.8112 90.1248C21.9166 90.0978 21.1576 89.3138 21.1847 88.3946Z" fill="#FCBC3F"/>
</svg>
