<svg width="132" height="111" viewBox="0 0 132 111" fill="none" xmlns="http://www.w3.org/2000/svg">
<rect x="18" y="81" width="94" height="30" fill="#F1F1F2"/>
<path d="M97.2414 80L32.5455 78.8C27.9909 38.96 53.0757 21 66.1874 17C97.2414 33.32 99.8292 65.8 97.2414 80Z" fill="#D9D4D8"/>
<path d="M32.9999 69.5C31.5172 56.1559 35.799 27.2769 64.4844 17.3405C65.1321 17.1161 65.8475 17.1276 66.4791 17.394C78.0531 22.2755 98.8326 38.7872 96.5 69.5" stroke="black" stroke-width="1.7"/>
<rect x="51.85" y="82.85" width="26.3" height="27.3" fill="#D9D4D8" stroke="black" stroke-width="1.7"/>
<rect x="81.85" y="82.85" width="7.3" height="27.3" fill="#D9D4D8" stroke="black" stroke-width="1.7"/>
<rect x="18.85" y="82.85" width="7.3" height="27.3" fill="#D9D4D8" stroke="black" stroke-width="1.7"/>
<rect x="92.85" y="82.85" width="7.3" height="27.3" fill="#D9D4D8" stroke="black" stroke-width="1.7"/>
<rect x="29.85" y="82.85" width="7.3" height="27.3" fill="#D9D4D8" stroke="black" stroke-width="1.7"/>
<rect x="103.85" y="82.85" width="7.3" height="27.3" fill="#D9D4D8" stroke="black" stroke-width="1.7"/>
<rect x="40.85" y="82.85" width="7.3" height="27.3" fill="#D9D4D8" stroke="black" stroke-width="1.7"/>
<path d="M1 110H131" stroke="black" stroke-width="2" stroke-linecap="round"/>
<path d="M19 89L25 89" stroke="black" stroke-width="2" stroke-linecap="round"/>
<path d="M82 89L88 89" stroke="black" stroke-width="2" stroke-linecap="round"/>
<path d="M31 89L37 89" stroke="black" stroke-width="2" stroke-linecap="round"/>
<path d="M29 83L38 83" stroke="black" stroke-width="2" stroke-linecap="round"/>
<path d="M92 83L101 83" stroke="black" stroke-width="2" stroke-linecap="round"/>
<path d="M40 83L49 83" stroke="black" stroke-width="2" stroke-linecap="round"/>
<path d="M103 83L112 83" stroke="black" stroke-width="2" stroke-linecap="round"/>
<path d="M51 83L79 83" stroke="black" stroke-width="2" stroke-linecap="round"/>
<path d="M18 83L27 83" stroke="black" stroke-width="2" stroke-linecap="round"/>
<path d="M81 83L90 83" stroke="black" stroke-width="2" stroke-linecap="round"/>
<path d="M94 89L100 89" stroke="black" stroke-width="2" stroke-linecap="round"/>
<path d="M42 89L48 89" stroke="black" stroke-width="2" stroke-linecap="round"/>
<path d="M105 89L111 89" stroke="black" stroke-width="2" stroke-linecap="round"/>
<path d="M53 89L78 89" stroke="black" stroke-width="2" stroke-linecap="round"/>
<path d="M84 86H87" stroke="black" stroke-width="1.7" stroke-linecap="round"/>
<path d="M21 86H24" stroke="black" stroke-width="1.7" stroke-linecap="round"/>
<path d="M56 86H59" stroke="black" stroke-width="1.7" stroke-linecap="round"/>
<path d="M55 92V107" stroke="black" stroke-width="1.7" stroke-linecap="round"/>
<path d="M59 92V107" stroke="black" stroke-width="1.7" stroke-linecap="round"/>
<path d="M62 92V107" stroke="black" stroke-width="1.7" stroke-linecap="round"/>
<path d="M65 92V107" stroke="black" stroke-width="1.7" stroke-linecap="round"/>
<path d="M68 92V107" stroke="black" stroke-width="1.7" stroke-linecap="round"/>
<path d="M71 92V107" stroke="black" stroke-width="1.7" stroke-linecap="round"/>
<path d="M75 92V107" stroke="black" stroke-width="1.7" stroke-linecap="round"/>
<path d="M95 86H98" stroke="black" stroke-width="1.7" stroke-linecap="round"/>
<path d="M32 86H35" stroke="black" stroke-width="1.7" stroke-linecap="round"/>
<path d="M64 86H67" stroke="black" stroke-width="1.7" stroke-linecap="round"/>
<path d="M106 86H109" stroke="black" stroke-width="1.7" stroke-linecap="round"/>
<path d="M43 86H46" stroke="black" stroke-width="1.7" stroke-linecap="round"/>
<path d="M72 86H75" stroke="black" stroke-width="1.7" stroke-linecap="round"/>
<rect x="40.85" y="74.85" width="7.3" height="5.3" fill="#F1F1F2" stroke="black" stroke-width="1.7"/>
<path d="M40 75L49 75" stroke="black" stroke-width="1.7" stroke-linecap="round"/>
<path d="M41 74.5C41 72.567 42.567 71 44.5 71C46.433 71 48 72.567 48 74.5V75H41V74.5Z" fill="#F1F1F2" stroke="black" stroke-width="1.7"/>
<rect x="103.85" y="74.85" width="7.3" height="5.3" fill="#F1F1F2" stroke="black" stroke-width="1.7"/>
<path d="M103 75L112 75" stroke="black" stroke-width="1.7" stroke-linecap="round"/>
<path d="M104 74.5C104 72.567 105.567 71 107.5 71C109.433 71 111 72.567 111 74.5V75H104V74.5Z" fill="#F1F1F2" stroke="black" stroke-width="1.7"/>
<rect x="29.85" y="74.85" width="7.3" height="5.3" fill="#F1F1F2" stroke="black" stroke-width="1.7"/>
<path d="M29 75L38 75" stroke="black" stroke-width="1.7" stroke-linecap="round"/>
<path d="M30 74.5C30 72.567 31.567 71 33.5 71C35.433 71 37 72.567 37 74.5V75H30V74.5Z" fill="#F1F1F2" stroke="black" stroke-width="1.7"/>
<rect x="92.85" y="74.85" width="7.3" height="5.3" fill="#F1F1F2" stroke="black" stroke-width="1.7"/>
<path d="M92 75L101 75" stroke="black" stroke-width="1.7" stroke-linecap="round"/>
<path d="M93 74.5C93 72.567 94.567 71 96.5 71C98.433 71 100 72.567 100 74.5V75H93V74.5Z" fill="#F1F1F2" stroke="black" stroke-width="1.7"/>
<rect x="18.85" y="74.85" width="7.3" height="5.3" fill="#F1F1F2" stroke="black" stroke-width="1.7"/>
<path d="M18 75L27 75" stroke="black" stroke-width="1.7" stroke-linecap="round"/>
<path d="M19 74.5C19 72.567 20.567 71 22.5 71C24.433 71 26 72.567 26 74.5V75H19V74.5Z" fill="#F1F1F2" stroke="black" stroke-width="1.7"/>
<rect x="81.85" y="74.85" width="7.3" height="5.3" fill="#F1F1F2" stroke="black" stroke-width="1.7"/>
<path d="M81 75L90 75" stroke="black" stroke-width="1.7" stroke-linecap="round"/>
<path d="M82 74.5C82 72.567 83.567 71 85.5 71C87.433 71 89 72.567 89 74.5V75H82V74.5Z" fill="#F1F1F2" stroke="black" stroke-width="1.7"/>
<rect x="53.85" y="72.9409" width="7.3" height="7.20909" fill="#F1F1F2" stroke="black" stroke-width="1.7"/>
<path d="M53 73.3636L62 73.3636" stroke="black" stroke-width="1.7" stroke-linecap="round"/>
<path d="M54 71.5C54 69.567 55.567 68 57.5 68C59.433 68 61 69.567 61 71.5V73.0909H54V71.5Z" fill="#F1F1F2" stroke="black" stroke-width="1.7"/>
<rect x="68.85" y="72.9409" width="7.3" height="7.20909" fill="#F1F1F2" stroke="black" stroke-width="1.7"/>
<path d="M68 73.3636L77 73.3636" stroke="black" stroke-width="1.7" stroke-linecap="round"/>
<path d="M69 71.5C69 69.567 70.567 68 72.5 68C74.433 68 76 69.567 76 71.5V73.0909H69V71.5Z" fill="#F1F1F2" stroke="black" stroke-width="1.7"/>
<path d="M54 21H76" stroke="black" stroke-width="1.7" stroke-linecap="round"/>
<path d="M65 9L65 1" stroke="black" stroke-width="1.7" stroke-linecap="round"/>
<path d="M48 25L81 25" stroke="black" stroke-width="1.7" stroke-linecap="round"/>
<path d="M43 30L86 30" stroke="black" stroke-width="1.7" stroke-linecap="round"/>
<path d="M38 35L90 35" stroke="black" stroke-width="1.7" stroke-linecap="round"/>
<path d="M37 39L92 39" stroke="black" stroke-width="1.7" stroke-linecap="round"/>
<path d="M35 43L94 43" stroke="black" stroke-width="1.7" stroke-linecap="round"/>
<path d="M33 47L96 47" stroke="black" stroke-width="1.7" stroke-linecap="round"/>
<path d="M32 51L97 51" stroke="black" stroke-width="1.7" stroke-linecap="round"/>
<path d="M31 55L98 55" stroke="black" stroke-width="1.7" stroke-linecap="round"/>
<path d="M31 59L98.5 59" stroke="black" stroke-width="1.7" stroke-linecap="round"/>
<path d="M31 63L98.5 63" stroke="black" stroke-width="1.7" stroke-linecap="round"/>
<path d="M31 67L98 67" stroke="black" stroke-width="1.7" stroke-linecap="round"/>
<path d="M32 70L54 70" stroke="black" stroke-width="1.7" stroke-linecap="round"/>
<path d="M76 70L97 70" stroke="black" stroke-width="1.7" stroke-linecap="round"/>
<path d="M17 80L113 80" stroke="black" stroke-width="2" stroke-linecap="round"/>
<path d="M61 70L69 70" stroke="black" stroke-width="1.7" stroke-linecap="round"/>
<path d="M61.85 16C61.85 14.2603 63.2603 12.85 65 12.85C66.7397 12.85 68.15 14.2603 68.15 16V17.15H61.85V16Z" fill="#F1F1F2" stroke="black" stroke-width="1.7"/>
<path d="M63.7302 11.58C64.3717 12.4133 65.6283 12.4133 66.2698 11.58C67.081 10.5262 66.3298 9 65 9C63.6702 9 62.919 10.5262 63.7302 11.58Z" fill="#F1F1F2" stroke="black" stroke-width="1.5"/>
</svg>
