<svg width="44" height="44" viewBox="0 0 44 44" fill="none" xmlns="http://www.w3.org/2000/svg">
<g clip-path="url(#clip0_47_6498)">
<path d="M19.0475 44C14.035 44 9.02251 44 4.01 44C1.5282 44 0 42.4844 0 40.0156C0 33.6111 0 27.2189 0 20.8144C0 18.4067 1.5282 16.8667 3.93665 16.8667C4.45013 16.8667 4.97583 16.8422 5.4893 16.8789C5.79494 16.8911 5.8683 16.7933 5.8683 16.5C5.85607 14.5322 5.85607 12.5644 5.85607 10.5844C5.85607 7.39444 5.85607 4.20444 5.85607 1.00222C5.8683 0.22 6.08836 0 6.8708 0C15.0008 0 23.1309 0 31.2609 0C32.0433 0 32.2756 0.22 32.2756 1.00222C32.2756 1.51556 32.2879 2.04111 32.2756 2.55444C32.2634 2.84778 32.3245 2.95778 32.6424 2.93333C33.1803 2.90889 33.706 2.92111 34.244 2.92111C34.9775 2.92111 35.2098 3.16556 35.2098 3.92333C35.2098 7.34556 35.222 10.7678 35.1976 14.19C35.1976 14.5567 35.2709 14.6789 35.6621 14.6667C36.9336 14.6422 38.1928 14.6544 39.4643 14.6544C41.8238 14.6667 43.5599 16.1456 43.9633 18.4556C44.0367 18.8589 43.9878 19.2378 43.8777 19.6289C41.9828 26.4733 40.1 33.3178 38.2173 40.1622C38.1195 40.5167 38.095 40.8833 38.0094 41.2378C37.5693 42.9 36.1389 43.9878 34.354 43.9878C29.2437 44 24.1456 44 19.0475 44Z" fill="#062D42"/>
<path d="M6.78519 18.3456C8.49678 18.3456 10.2084 18.3456 11.9199 18.3212C12.1522 18.3212 12.2745 18.4434 12.4212 18.5901C13.387 19.5678 14.3773 20.5212 15.3309 21.5112C15.6732 21.8778 16.0522 22.0001 16.5412 22.0001C22.4218 21.9878 28.3023 21.9878 34.195 21.9878C35.821 21.9878 36.6768 22.8556 36.6768 24.4812C36.6768 29.6634 36.6768 34.8334 36.6768 40.0156C36.6768 41.6534 35.821 42.5212 34.195 42.5212C25.2214 42.5212 16.26 42.5212 7.28644 42.5212C7.11528 42.5212 6.95635 42.5089 6.78519 42.5089C6.06388 42.1056 5.89272 41.3967 5.74601 40.6756C5.70934 40.4923 5.72156 40.3089 5.72156 40.1256C5.72156 33.6601 5.72156 27.1945 5.72156 20.7289C5.72156 20.0201 5.88049 19.3723 6.28394 18.7856C6.4062 18.5901 6.5529 18.4312 6.78519 18.3456Z" fill="#3895D1"/>
<path d="M10.2695 1.47891C10.404 1.47891 10.5385 1.46669 10.6852 1.46669C17.2381 1.46669 23.791 1.46669 30.344 1.45447C30.723 1.45447 30.8208 1.54002 30.8208 1.93113C30.8085 7.98113 30.8085 14.0311 30.8208 20.0811C30.8208 20.46 30.723 20.5578 30.344 20.5456C26.5907 20.5211 22.8252 20.5211 19.0719 20.5211C18.8641 20.4356 18.7174 20.3011 18.5585 20.1422C17.8738 19.4456 17.177 18.7611 16.4923 18.0645C16.2478 17.82 15.9911 17.6978 15.6488 17.71C15.1475 17.7345 14.6463 17.71 14.1328 17.71C13.9372 17.71 13.7416 17.6978 13.5582 17.6C13.0325 16.9034 12.3112 16.7689 11.5043 16.8545C11.1008 16.8911 10.6852 16.8545 10.2817 16.8422C10.135 16.6956 10.135 16.5122 10.135 16.3289C10.135 15.8034 10.1228 15.2656 10.135 14.74C10.1472 14.1411 10.135 13.5545 10.135 12.9556C10.1472 11.8311 10.3673 11.6111 11.4798 11.6111C11.871 11.6111 12.2378 11.5745 12.5924 11.3911C13.0203 11.1834 13.3503 10.8656 13.5704 10.45C13.7293 10.1567 13.9494 10.0345 14.2917 10.0956C14.5485 10.1445 14.8052 10.1445 15.0619 10.0956C15.392 10.0345 15.6243 10.1445 15.7832 10.4378C16.2478 11.2689 16.9691 11.6356 17.9105 11.5989C18.0328 11.5989 18.155 11.5989 18.2773 11.5989C18.8641 11.6356 19.1697 11.9289 19.2064 12.5278C19.2309 12.98 19.2064 13.4445 19.2186 13.8967C19.2186 14.5078 19.2431 14.5322 19.8666 14.52C19.9277 14.52 19.9889 14.52 20.05 14.52C20.2945 14.52 20.4168 14.4222 20.4168 14.1656C20.4168 13.53 20.4657 12.8822 20.4045 12.2467C20.3067 11.2567 19.4387 10.45 18.4362 10.3889C18.2039 10.3767 17.9839 10.3889 17.7516 10.3767C16.8836 10.34 16.529 9.6678 16.9691 8.91002C17.7393 7.60225 17.666 6.19669 17.2625 4.8278C16.8346 3.41002 15.3554 2.94558 14.414 3.05558C13.0814 3.21447 12.1033 4.14336 11.9322 5.4878C11.8344 6.19669 11.8588 6.9178 11.9322 7.63891C11.9811 8.11558 12.1889 8.54336 12.4457 8.94669C12.8613 9.61891 12.5068 10.3034 11.7243 10.3522C11.3453 10.3767 10.9664 10.3522 10.5751 10.4011C10.4407 10.4134 10.2939 10.4011 10.2206 10.2545C10.1472 10.0834 10.1472 9.90002 10.1472 9.71669C10.1472 7.17447 10.1472 4.64447 10.1472 2.10225C10.1228 1.90669 10.0983 1.66225 10.2695 1.47891Z" fill="#E3EAEF"/>
<path d="M6.78525 18.3456C6.14952 19.0667 5.8561 19.8978 5.8561 20.8878C5.88055 27.2556 5.88055 33.6112 5.8561 39.9789C5.8561 40.9689 6.14952 41.7878 6.78525 42.5212C5.69717 42.5212 4.62131 42.5578 3.53323 42.5212C2.40848 42.4967 1.47933 41.5067 1.4671 40.3578C1.45488 38.5245 1.4671 36.6912 1.4671 34.8578C1.4671 30.1645 1.4671 25.4834 1.4671 20.79C1.4671 19.2378 2.35957 18.3334 3.9 18.3334C4.86583 18.3334 5.81942 18.3456 6.78525 18.3456Z" fill="#0E85D1"/>
<path d="M10.2695 14.6544C10.2695 15.3877 10.2695 16.1211 10.2818 16.8544C9.42597 16.8544 8.57018 16.8544 7.71438 16.8788C7.40874 16.8911 7.33539 16.8055 7.33539 16.4999C7.34761 14.9722 7.34761 13.4444 7.34761 11.9166C7.34761 8.59217 7.35984 5.2555 7.33539 1.93106C7.33539 1.55217 7.42097 1.44217 7.81219 1.45439C8.6313 1.49106 9.46265 1.47883 10.2818 1.47883C10.2818 4.43661 10.2818 7.39439 10.2818 10.3522C10.2818 10.5722 10.0862 10.5966 9.95167 10.6944C9.27926 11.1588 8.91249 11.7822 8.93694 12.6133C8.94917 13.0777 8.94917 13.5544 8.93694 14.0188C8.92472 14.3855 9.0592 14.5444 9.43819 14.5322C9.70716 14.5322 10.0006 14.4711 10.2695 14.6544Z" fill="#B3D6EF"/>
<path d="M41.1514 24.0166C40.1734 27.5611 39.1953 31.1177 38.2295 34.6622C38.205 34.6622 38.1806 34.65 38.1561 34.65C38.1561 34.4911 38.1561 34.32 38.1561 34.1611C38.1561 30.91 38.1561 27.6589 38.1561 24.4077C38.1561 22.5866 37.2514 21.3033 35.5276 20.7044C35.3076 20.6311 35.222 20.5333 35.222 20.2889C35.2342 19.0177 35.2342 17.7589 35.222 16.4877C35.222 16.2433 35.2831 16.1333 35.5521 16.1333C36.4201 16.1577 37.2881 16.1455 38.1684 16.1577C38.3273 16.3411 38.2906 16.5611 38.3028 16.7689C38.3028 18.04 38.3151 19.2989 38.3028 20.57C38.2906 20.9855 38.4373 21.1566 38.8408 21.2422C40.1367 21.5233 41.1392 22.6355 41.1514 24.0166Z" fill="#0E85D1"/>
<path d="M41.1514 24.0167C40.968 23.76 41.0047 23.4422 40.8947 23.1611C40.4546 22.0734 39.6232 21.4745 38.4985 21.3034C38.1806 21.2545 38.1439 21.12 38.1439 20.8634C38.1561 19.2989 38.1439 17.7345 38.1439 16.17C38.8652 16.17 39.5743 16.0722 40.2834 16.2434C41.4937 16.5245 42.4107 17.5634 42.5207 18.7856C42.5329 18.9078 42.5207 19.03 42.4962 19.1522C42.0561 20.7534 41.6038 22.3789 41.1514 24.0167Z" fill="#3895D1"/>
<path d="M33.0092 20.5212C32.2756 20.5578 32.2756 20.5578 32.2756 19.8489C32.2756 14.9356 32.2756 10.0223 32.2756 5.09671C32.2756 4.3756 32.2756 4.3756 33.0092 4.42449C33.1803 4.5956 33.1559 4.8156 33.1559 5.0356C33.1559 9.99782 33.1559 14.96 33.1559 19.9223C33.1559 20.1178 33.1803 20.35 33.0092 20.5212Z" fill="#B3D6EF"/>
<path d="M33.0092 20.5211C33.0092 15.1556 33.0092 9.79001 33.0092 4.41223C33.7427 4.37556 33.7427 4.37556 33.7427 5.08445C33.7427 9.99779 33.7427 14.9111 33.7427 19.8367C33.7427 20.5578 33.7427 20.5578 33.0092 20.5211Z" fill="#E3EAEF"/>
<path d="M13.5582 17.6122C14.3407 17.6122 15.1109 17.6122 15.8933 17.6C16.0645 17.6 16.2112 17.6244 16.3457 17.7589C17.2504 18.6878 18.1673 19.6044 19.072 20.5211C18.2773 20.5211 17.4827 20.5333 16.688 20.5333C16.5413 20.5333 16.4312 20.5211 16.3212 20.4111C15.4043 19.47 14.4751 18.5411 13.5582 17.6122Z" fill="#B3D6EF"/>
<path d="M27.1409 32.2667C27.1409 33.1956 27.1409 34.1245 27.1409 35.0656C27.1409 35.6645 26.8719 35.9334 26.2728 35.9334C25.2337 35.9334 24.1945 35.9456 23.1553 35.9212C22.8008 35.9089 22.7152 36.0189 22.7274 36.3612C22.7519 37.3878 22.7396 38.4023 22.7396 39.4289C22.7396 40.0645 22.4829 40.3212 21.8594 40.3334C20.0011 40.3334 18.1306 40.3334 16.2723 40.3334C15.6732 40.3334 15.4165 40.0645 15.4165 39.4534C15.4165 38.4145 15.4043 37.3756 15.4165 36.3367C15.4165 36.0189 15.3431 35.9089 15.0131 35.9212C13.9739 35.9456 12.9347 35.9334 11.8955 35.9334C11.2598 35.9334 11.0031 35.6767 11.0031 35.0412C11.0031 33.1956 11.0031 31.3501 11.0031 29.4923C11.0031 28.8567 11.2598 28.6001 11.8955 28.6001C12.9347 28.6001 13.9739 28.5878 15.0131 28.6123C15.3431 28.6245 15.4165 28.5145 15.4165 28.1967C15.392 27.1701 15.4043 26.1556 15.4165 25.1289C15.4165 24.4567 15.661 24.2123 16.3212 24.2123C18.1673 24.2123 20.0133 24.2123 21.8716 24.2123C22.4951 24.2123 22.7519 24.4689 22.7519 25.1045C22.7519 26.1312 22.7641 27.1456 22.7396 28.1723C22.7274 28.5023 22.813 28.6245 23.1675 28.6123C24.1945 28.5878 25.2092 28.6001 26.2362 28.6001C26.8964 28.6001 27.1409 28.8567 27.1531 29.5167C27.1409 30.4334 27.1409 31.3501 27.1409 32.2667Z" fill="#062D42"/>
<path d="M10.2695 14.6544C9.80495 14.6544 9.19367 14.8255 8.90026 14.5933C8.60684 14.3489 8.8269 13.7133 8.81468 13.2489C8.80245 12.87 8.79023 12.4789 8.83913 12.1122C8.97361 11.2566 9.52377 10.7189 10.2695 10.3644C10.7219 10.2666 11.1742 10.2544 11.6388 10.2666C11.9689 10.2789 12.2379 10.1689 12.3846 9.85109C12.519 9.55775 12.5068 9.28886 12.2868 9.00775C11.9078 8.51886 11.7366 7.95664 11.7366 7.34553C11.7488 6.64887 11.651 5.93998 11.81 5.24331C12.1278 3.78887 13.4726 2.79887 14.9519 2.94553C16.4068 3.07998 17.556 4.28998 17.6049 5.74442C17.6293 6.30664 17.6171 6.86887 17.6049 7.44331C17.5927 8.0422 17.3971 8.57998 17.0303 9.05664C16.8225 9.32553 16.8347 9.59442 16.9692 9.86331C17.0914 10.1444 17.3359 10.2544 17.6293 10.2666C18.045 10.2911 18.4485 10.23 18.8641 10.3278C19.8422 10.5844 20.5268 11.4033 20.539 12.4055C20.5513 13.0655 20.539 13.7133 20.5513 14.3733C20.5513 14.5933 20.4901 14.6544 20.2701 14.6666C19.072 14.7155 19.072 14.7278 19.072 13.5544C19.072 13.2 19.0842 12.8578 19.072 12.5033C19.0597 12.0144 18.7786 11.7455 18.2895 11.7333C18.0939 11.7211 17.8983 11.7333 17.6905 11.7333C16.7247 11.7333 16.0156 11.2933 15.6121 10.4255C15.5021 10.1933 15.4043 10.1322 15.172 10.2055C14.7441 10.3278 14.2673 10.0833 13.925 10.2178C13.5949 10.3522 13.5093 10.9144 13.167 11.1955C12.7758 11.5133 12.3357 11.6966 11.8344 11.7333C11.6021 11.7455 11.3821 11.7333 11.1498 11.7333C10.5507 11.7455 10.2818 12.0022 10.2818 12.6011C10.2695 13.2855 10.2695 13.97 10.2695 14.6544Z" fill="#062D42"/>
<path d="M25.6616 2.93335C26.5907 2.93335 27.5199 2.93335 28.449 2.93335C29.0725 2.93335 29.3415 3.20224 29.3415 3.82557C29.3415 4.70557 29.3415 5.59779 29.3415 6.47779C29.3415 7.05224 29.0725 7.33335 28.5101 7.33335C26.6152 7.33335 24.7324 7.34557 22.8374 7.33335C22.2995 7.33335 22.0183 7.05224 22.0183 6.51446C22.0061 5.59779 22.0061 4.68113 22.0183 3.76446C22.0183 3.20224 22.2995 2.93335 22.8741 2.93335C23.8033 2.93335 24.7324 2.93335 25.6616 2.93335Z" fill="#062D42"/>
<path d="M25.6494 10.2667C24.5491 10.2667 23.4488 10.2545 22.3484 10.2789C22.055 10.2789 21.9939 10.1934 21.9939 9.92449C21.9939 8.81227 21.9817 8.81227 23.0942 8.81227C25.0503 8.81227 27.0064 8.82449 28.9503 8.80005C29.2804 8.80005 29.3537 8.8856 29.3415 9.20338C29.3293 10.2789 29.3415 10.2789 28.2901 10.2789C27.4099 10.2667 26.5296 10.2667 25.6494 10.2667Z" fill="#062D42"/>
<path d="M25.6616 13.1999C24.5735 13.1999 23.4976 13.1877 22.4096 13.2122C22.1162 13.2122 21.9939 13.1755 21.9939 12.8333C22.0061 11.7455 21.9939 11.7455 23.0698 11.7455C25.0136 11.7455 26.9453 11.7577 28.8769 11.7333C29.2681 11.7333 29.3537 11.8433 29.3415 12.2099C29.317 13.2122 29.3293 13.2122 28.3512 13.2122C27.4587 13.1999 26.5663 13.1999 25.6616 13.1999Z" fill="#062D42"/>
<path d="M25.6616 16.1333C24.5735 16.1333 23.4976 16.1211 22.4096 16.1455C22.1162 16.1455 21.9939 16.1088 21.9939 15.7666C22.0061 14.6788 21.9939 14.6788 23.0698 14.6788C25.0136 14.6788 26.9453 14.6911 28.8769 14.6666C29.2681 14.6666 29.3537 14.7766 29.3415 15.1433C29.317 16.1455 29.3293 16.1455 28.3512 16.1455C27.4587 16.1333 26.5663 16.1333 25.6616 16.1333Z" fill="#062D42"/>
<path d="M25.6738 19.0667C24.5613 19.0667 23.4487 19.0545 22.3362 19.0667C22.0795 19.0667 22.0061 19.0056 22.0061 18.7367C21.9939 17.5878 21.9817 17.5878 23.1187 17.5878C25.0625 17.5878 26.9942 17.6 28.9258 17.5756C29.2681 17.5756 29.3537 17.6489 29.3537 17.9911C29.3293 19.0422 29.3537 19.0422 28.2901 19.0422C27.4098 19.0667 26.5418 19.0667 25.6738 19.0667Z" fill="#062D42"/>
<path d="M16.8836 35.2C16.7246 34.6255 16.5413 34.4789 15.9667 34.4666C15.2943 34.4544 14.6096 34.4544 13.9372 34.4544C13.7783 34.2955 13.7905 34.0878 13.7905 33.8922C13.7905 32.8044 13.7905 31.7289 13.7905 30.6411C13.7905 30.4455 13.7783 30.2378 13.9372 30.0789C14.6096 30.0789 15.2943 30.0666 15.9667 30.0666C16.5413 30.0666 16.7246 29.9078 16.8836 29.3333C17.1159 29.1255 17.3971 29.1989 17.666 29.1866C18.1306 29.1622 18.1795 29.1255 18.1917 28.6489C18.2039 27.8544 18.1917 27.0722 18.1917 26.2778C18.1917 26.07 18.1673 25.85 18.3384 25.6789C19.2064 25.6789 20.0745 25.6789 20.9425 25.6544C21.1992 25.6544 21.2726 25.7278 21.2726 25.9844C21.2604 27.0355 21.2604 28.0866 21.2726 29.15C21.2726 29.81 21.5293 30.0666 22.1895 30.0666C23.2287 30.0666 24.2679 30.0789 25.307 30.0544C25.6004 30.0544 25.686 30.1278 25.686 30.4333C25.6738 31.6555 25.6738 32.8778 25.686 34.1C25.686 34.4055 25.6004 34.4789 25.307 34.4789C24.2679 34.4666 23.2287 34.4666 22.1895 34.4789C21.5293 34.4789 21.2726 34.7355 21.2726 35.3955C21.2726 36.4344 21.2604 37.4733 21.2726 38.5122C21.2726 38.8055 21.1992 38.9033 20.8936 38.8911C20.0378 38.8666 19.182 38.8789 18.3262 38.8666C18.155 38.6955 18.1795 38.4755 18.1795 38.2678C18.1795 37.4733 18.1795 36.6911 18.1795 35.8966C18.1795 35.42 18.1306 35.3833 17.6538 35.3589C17.4093 35.3344 17.1159 35.3955 16.8836 35.2Z" fill="#E3EAEF"/>
<path d="M13.9372 30.0789C13.9372 31.5334 13.9372 32.9878 13.9372 34.4545C13.4726 34.4545 12.8736 34.6256 12.5679 34.3934C12.2745 34.1734 12.4824 33.5378 12.4824 33.0856C12.4701 32.1811 12.4824 31.2889 12.4701 30.3845C12.4701 30.1278 12.5435 30.0423 12.8002 30.0545C13.1792 30.0911 13.5582 30.0789 13.9372 30.0789Z" fill="#B3D6EF"/>
<path d="M18.3384 25.6789C18.3384 26.7545 18.3262 27.8422 18.3384 28.9178C18.3384 29.2356 18.2529 29.3578 17.9228 29.3334C17.5804 29.3089 17.2259 29.3334 16.8714 29.3334C16.8714 28.2089 16.8714 27.0722 16.8591 25.9478C16.8591 25.7278 16.9203 25.6545 17.1403 25.6667C17.5438 25.6789 17.9472 25.6789 18.3384 25.6789Z" fill="#B3D6EF"/>
<path d="M16.8836 35.2C17.2503 35.2 17.6171 35.2122 17.9839 35.2C18.265 35.1878 18.3506 35.2978 18.3506 35.5667C18.3384 36.6667 18.3506 37.7545 18.3506 38.8545C17.8738 38.8545 17.2748 39.0256 16.9691 38.7933C16.6757 38.5733 16.8836 37.9378 16.8836 37.4856C16.8591 36.7278 16.8836 35.9578 16.8836 35.2Z" fill="#B3D6EF"/>
<path d="M16.1378 6.62451C16.1378 6.88117 16.15 7.15006 16.1378 7.40673C16.1011 8.20117 15.441 8.81228 14.6707 8.80006C13.8883 8.80006 13.2403 8.17673 13.2159 7.38228C13.2037 6.86895 13.2037 6.34339 13.2159 5.83006C13.2403 5.03562 13.8761 4.41228 14.6585 4.41228C15.4532 4.40006 16.1011 5.03562 16.1378 5.85451C16.15 6.09895 16.1378 6.35562 16.1378 6.62451Z" fill="#E3EAEF"/>
<path d="M25.6738 5.86671C25.0381 5.86671 24.3901 5.85448 23.7544 5.86671C23.5343 5.86671 23.4732 5.80559 23.4732 5.58559C23.4243 4.38782 23.4121 4.38782 24.5857 4.38782C25.576 4.38782 26.5663 4.40004 27.5565 4.38782C27.8133 4.38782 27.8866 4.44893 27.8866 4.71782C27.8989 5.86671 27.9111 5.86671 26.7741 5.86671C26.4073 5.86671 26.0406 5.86671 25.6738 5.86671Z" fill="#E3EAEF"/>
</g>
<defs>
<clipPath id="clip0_47_6498">
<rect width="44" height="44" fill="white"/>
</clipPath>
</defs>
</svg>
