<svg width="78" height="100" viewBox="0 0 78 100" fill="none" xmlns="http://www.w3.org/2000/svg">
<g clip-path="url(#clip0_47_8183)">
<path d="M56.6281 64.1162H65.9881V99.9962H56.6281V64.1162Z" fill="#FFEDCE"/>
<path d="M62.8681 89.0762H59.748V85.9562C59.748 85.0202 60.3721 84.3962 61.3081 84.3962C62.2441 84.3962 62.8681 85.0202 62.8681 85.9562V89.0762Z" fill="#8E7F8B"/>
<path d="M16.0681 45.3962H62.8681V64.1162H16.0681V45.3962Z" fill="#FFE9CF"/>
<path d="M28.5481 64.8962V56.3162C28.5481 52.7282 31.8241 51.6362 31.8241 51.6362C31.8241 51.6362 34.7881 52.7282 34.7881 56.3162V64.8962M19.1881 64.8962V56.3162C19.1881 52.7282 22.4641 51.6362 22.4641 51.6362C22.4641 51.6362 25.4281 52.7282 25.4281 56.3162V64.8962" fill="#8E7F8B"/>
<path d="M22.308 51.6362C22.308 51.6362 19.032 52.8842 19.032 56.3162V59.4362C19.032 55.8482 22.308 54.7562 22.308 54.7562C22.308 54.7562 25.272 55.8482 25.272 59.4362V56.3162C25.428 52.7282 22.308 51.6362 22.308 51.6362ZM31.668 51.6362C31.668 51.6362 28.392 52.8842 28.392 56.3162V59.4362C28.392 55.8482 31.668 54.7562 31.668 54.7562C31.668 54.7562 34.632 55.8482 34.632 59.4362V56.3162C34.788 52.7282 31.668 51.6362 31.668 51.6362Z" fill="black"/>
<path d="M65.9881 64.1162H75.3481V99.9962H65.9881V64.1162ZM3.58813 64.1162H12.9481V99.9962H3.58813V64.1162Z" fill="#FFE9CF"/>
<path d="M72.2281 64.1162H75.3481V99.9962H72.2281V64.1162ZM9.82812 64.1162H12.9481V99.9962H9.82812V64.1162Z" fill="white"/>
<path d="M22.3081 64.1162V99.9962H51.9481H26.9881V83.7722C26.9881 78.7802 29.7961 74.2562 34.6321 71.4482L39.4681 68.7962L44.3041 71.4482C49.1401 74.1002 51.9481 78.7802 51.9481 83.7722V99.9962H56.6281V64.1162H22.3081Z" fill="#FFE9CF"/>
<path d="M22.3081 64.1162H25.4281V99.9962H22.3081V64.1162ZM53.5081 64.1162H56.6281V99.9962H53.5081V64.1162Z" fill="#FDD2AF"/>
<path d="M67.5481 19.6559H73.7881V26.6759H67.5481V19.6559ZM5.14807 19.6559H11.3881V26.6759H5.14807V19.6559ZM75.2607 19.6029H65.9007V14.9229H75.2607V19.6029Z" fill="#FFE9CF"/>
<path d="M12.8605 19.6029H3.50049V14.9229H12.8605V19.6029Z" fill="#FFEDCE"/>
<path d="M5.14807 14.6642V9.04818C5.14807 7.64418 5.92807 6.24018 7.02007 5.61618L8.26807 4.83618L9.51607 5.61618C10.7641 6.39618 11.3881 7.64418 11.3881 9.04818V14.6642M67.5481 14.6642V9.04818C67.5481 7.64418 68.3281 6.24018 69.4201 5.61618L70.6681 4.83618L71.9161 5.61618C73.1641 6.39618 73.7881 7.64418 73.7881 9.04818V14.6642" fill="#FFE9CF"/>
<path d="M5.14807 19.6562H11.3881V22.7762H5.14807V19.6562ZM67.5481 19.6562H73.7881V22.7762H67.5481V19.6562Z" fill="#FDD2AF"/>
<path d="M67.5481 32.9163H73.7881V45.3963H67.5481V32.9163Z" fill="#FFE9CF"/>
<path d="M62.868 45.3962H78.468V64.1162H62.868V45.3962Z" fill="#FFEDCE"/>
<path d="M62.868 45.3962H65.988V64.1162H62.868V45.3962Z" fill="#FDD2AF"/>
<path d="M12.9481 64.1162H22.3081V99.9962H12.9481V64.1162Z" fill="#FFE9CF"/>
<path d="M39.4681 56.316C40.3296 56.316 41.0281 55.6176 41.0281 54.756C41.0281 53.8945 40.3296 53.196 39.4681 53.196C38.6065 53.196 37.9081 53.8945 37.9081 54.756C37.9081 55.6176 38.6065 56.316 39.4681 56.316Z" fill="#FFD79E"/>
<path d="M12.9481 64.1162H65.9881V67.2362H12.9481V64.1162ZM3.58813 64.1162H12.9481V67.2362H3.58813V64.1162Z" fill="#FDD2AF"/>
<path d="M56.6281 64.1162H59.7481V99.9962H56.6281V64.1162ZM65.9881 64.1162H69.1081V99.9962H65.9881V64.1162ZM12.9481 64.1162H16.0681V99.9962H12.9481V64.1162Z" fill="#FDD2AF"/>
<path d="M19.1881 64.1162H22.3081V99.9962H19.1881V64.1162ZM62.8681 64.1162H65.9881V99.9962H62.8681V64.1162Z" fill="white"/>
<path d="M3.58813 64.1162H6.70813V99.9962H3.58813V64.1162Z" fill="#FDD2AF"/>
<path d="M26.9881 71.9161C27.8497 71.9161 28.5481 71.2177 28.5481 70.3561C28.5481 69.4946 27.8497 68.7961 26.9881 68.7961C26.1265 68.7961 25.4281 69.4946 25.4281 70.3561C25.4281 71.2177 26.1265 71.9161 26.9881 71.9161Z" fill="#FFD79E"/>
<path d="M51.9481 71.9161C52.8096 71.9161 53.5081 71.2177 53.5081 70.3561C53.5081 69.4946 52.8096 68.7961 51.9481 68.7961C51.0865 68.7961 50.3881 69.4946 50.3881 70.3561C50.3881 71.2177 51.0865 71.9161 51.9481 71.9161Z" fill="#FFD79E"/>
<path d="M0.468018 45.3962H16.068V64.1162H0.468018V45.3962Z" fill="#FFE9CF"/>
<path d="M65.9881 64.1162H75.3481V67.2362H65.9881V64.1162Z" fill="#FDD2AF"/>
<path d="M11.3881 39H67.5481V45.24H11.3881V39Z" fill="#FFE9CF"/>
<path d="M11.388 39H14.508V45.24H11.388V39ZM64.428 39H67.548V45.24H64.428V39ZM16.068 45.396H19.188V64.116H16.068V45.396ZM0.468018 45.396H3.58802V64.116H0.468018V45.396Z" fill="#FDD2AF"/>
<path d="M44.1481 64.8962V56.3162C44.1481 52.7282 47.4241 51.6362 47.4241 51.6362C47.4241 51.6362 50.3881 52.7282 50.3881 56.3162V64.8962M53.5081 64.8962V56.3162C53.5081 52.7282 56.7841 51.6362 56.7841 51.6362C56.7841 51.6362 59.7481 52.7282 59.7481 56.3162V64.8962M19.1881 73.4762H16.0681V70.3562C16.0681 69.4202 16.6921 68.7962 17.6281 68.7962C18.5641 68.7962 19.1881 69.4202 19.1881 70.3562V73.4762Z" fill="#8E7F8B"/>
<path d="M17.6281 68.7961C16.6921 68.7961 16.0681 69.4201 16.0681 70.3561V72.6961C16.0681 71.7601 16.6921 71.1361 17.6281 71.1361C18.5641 71.1361 19.1881 71.7601 19.1881 72.6961V70.3561C19.1881 69.4201 18.4081 68.7961 17.6281 68.7961Z" fill="black"/>
<path d="M19.1881 81.2762H16.0681V78.1562C16.0681 77.2202 16.6921 76.5962 17.6281 76.5962C18.5641 76.5962 19.1881 77.2202 19.1881 78.1562V81.2762Z" fill="#8E7F8B"/>
<path d="M17.6281 76.5962C16.6921 76.5962 16.0681 77.2202 16.0681 78.1562V80.4962C16.0681 79.5602 16.6921 78.9362 17.6281 78.9362C18.5641 78.9362 19.1881 79.5602 19.1881 80.4962V78.1562C19.1881 77.2202 18.4081 76.5962 17.6281 76.5962Z" fill="black"/>
<path d="M19.1881 89.0761H16.0681V85.9561C16.0681 85.0201 16.6921 84.3961 17.6281 84.3961C18.5641 84.3961 19.1881 85.0201 19.1881 85.9561V89.0761ZM19.1881 96.8761H16.0681V93.7561C16.0681 92.8201 16.6921 92.1961 17.6281 92.1961C18.5641 92.1961 19.1881 92.8201 19.1881 93.7561V96.8761ZM62.8681 73.4761H59.7481V70.3561C59.7481 69.4201 60.3721 68.7961 61.3081 68.7961C62.2441 68.7961 62.8681 69.4201 62.8681 70.3561V73.4761ZM62.8681 81.2761H59.7481V78.1561C59.7481 77.2201 60.3721 76.5961 61.3081 76.5961C62.2441 76.5961 62.8681 77.2201 62.8681 78.1561V81.2761ZM62.8681 96.8761H59.7481V93.7561C59.7481 92.8201 60.3721 92.1961 61.3081 92.1961C62.2441 92.1961 62.8681 92.8201 62.8681 93.7561V96.8761ZM12.9481 60.9961H9.82812V57.8761C9.82812 56.9401 10.4521 56.3161 11.3881 56.3161C12.3241 56.3161 12.9481 56.9401 12.9481 57.8761V60.9961ZM12.9481 53.1961H9.82812V50.0761C9.82812 49.1401 10.4521 48.5161 11.3881 48.5161C12.3241 48.5161 12.9481 49.1401 12.9481 50.0761V53.1961ZM69.1081 60.9961H65.9881V57.8761C65.9881 56.9401 66.6121 56.3161 67.5481 56.3161C68.4841 56.3161 69.1081 56.9401 69.1081 57.8761V60.9961ZM69.1081 53.1961H65.9881V50.0761C65.9881 49.1401 66.6121 48.5161 67.5481 48.5161C68.4841 48.5161 69.1081 49.1401 69.1081 50.0761V53.1961ZM75.3481 60.9961H72.2281V57.8761C72.2281 56.9401 72.8521 56.3161 73.7881 56.3161C74.7241 56.3161 75.3481 56.9401 75.3481 57.8761V60.9961ZM75.3481 53.1961H72.2281V50.0761C72.2281 49.1401 72.8521 48.5161 73.7881 48.5161C74.7241 48.5161 75.3481 49.1401 75.3481 50.0761V53.1961Z" fill="#8E7F8B"/>
<path d="M19.1881 45.3961H16.0681V43.8361C16.0681 42.9001 16.6921 42.2761 17.6281 42.2761C18.5641 42.2761 19.1881 42.9001 19.1881 43.8361V45.3961ZM25.4281 45.3961H22.3081V43.8361C22.3081 42.9001 22.9321 42.2761 23.8681 42.2761C24.8041 42.2761 25.4281 42.9001 25.4281 43.8361V45.3961ZM31.6681 45.3961H28.5481V43.8361C28.5481 42.9001 29.1721 42.2761 30.1081 42.2761C31.0441 42.2761 31.6681 42.9001 31.6681 43.8361V45.3961ZM37.9081 45.3961H34.7881V43.8361C34.7881 42.9001 35.4121 42.2761 36.3481 42.2761C37.2841 42.2761 37.9081 42.9001 37.9081 43.8361V45.3961ZM44.1481 45.3961H41.0281V43.8361C41.0281 42.9001 41.6521 42.2761 42.5881 42.2761C43.5241 42.2761 44.1481 42.9001 44.1481 43.8361V45.3961ZM50.3881 45.3961H47.2681V43.8361C47.2681 42.9001 47.8921 42.2761 48.8281 42.2761C49.7641 42.2761 50.3881 42.9001 50.3881 43.8361V45.3961ZM56.6281 45.3961H53.5081V43.8361C53.5081 42.9001 54.1321 42.2761 55.0681 42.2761C56.0041 42.2761 56.6281 42.9001 56.6281 43.8361V45.3961ZM62.8681 45.3961H59.7481V43.8361C59.7481 42.9001 60.3721 42.2761 61.3081 42.2761C62.2441 42.2761 62.8681 42.9001 62.8681 43.8361V45.3961Z" fill="#E3F4FD"/>
<path d="M6.70813 60.9961H3.58813V57.8761C3.58813 56.9401 4.21213 56.3161 5.14813 56.3161C6.08413 56.3161 6.70813 56.9401 6.70813 57.8761V60.9961ZM6.70813 53.1961H3.58813V50.0761C3.58813 49.1401 4.21213 48.5161 5.14813 48.5161C6.08413 48.5161 6.70813 49.1401 6.70813 50.0761V53.1961Z" fill="#8E7F8B"/>
<path d="M11.3881 35.8803H67.5481V39.0003H11.3881V35.8803ZM5.14807 32.9163H11.3881V45.3963H5.14807V32.9163Z" fill="#FFE9CF"/>
<path d="M4.36804 14.8201H6.70804V19.6561H4.36804V14.8201ZM66.768 14.8201H69.108V19.6561H66.768V14.8201Z" fill="#FDD2AF"/>
<path d="M14.4204 32.8628H1.94043V26.6228H14.4204V32.8628Z" fill="#FFE9CF"/>
<path d="M5.14807 32.9163H11.3881V36.0363H5.14807V32.9163ZM67.5481 32.9163H73.7881V36.0363H67.5481V32.9163Z" fill="#FDD2AF"/>
<path d="M76.8205 32.8628H64.3405V26.6228H76.8205V32.8628Z" fill="#FFE9CF"/>
<path d="M71.4481 19.6562H73.7881V26.6762H71.4481V19.6562ZM9.0481 19.6562H11.3881V26.6762H9.0481V19.6562ZM71.4481 32.9162H73.7881V45.3962H71.4481V32.9162ZM59.7481 45.3962H62.8681V64.1162H59.7481V45.3962ZM75.3481 45.3962H78.4681V64.1162H75.3481V45.3962Z" fill="white"/>
<path d="M16.068 45.3962H62.868V48.5162H16.068V45.3962ZM0.468018 45.3962H16.068V48.5162H0.468018V45.3962ZM62.868 45.3962H78.468V48.5162H62.868V45.3962Z" fill="white"/>
<path d="M12.9481 45.3961H16.0681V64.1161H12.9481V45.3961ZM9.0481 32.9161H11.3881V45.3961H9.0481V32.9161ZM71.4481 9.51611H73.7881V14.9761H71.4481V9.51611ZM9.0481 9.51611H11.3881V14.9761H9.0481V9.51611Z" fill="white"/>
<path d="M9.82812 14.8201H12.1681V19.6561H9.82812V14.8201ZM72.2281 14.8201H74.5681V19.6561H72.2281V14.8201ZM11.3881 38.2201H67.5481V41.3401H11.3881V38.2201ZM11.3881 26.6761H14.5081V32.9161H11.3881V26.6761ZM73.7881 26.6761H76.9081V32.9161H73.7881V26.6761Z" fill="white"/>
<path d="M2.02832 26.6763H5.14832V32.9163H2.02832V26.6763ZM64.4283 26.6763H67.5483V32.9163H64.4283V26.6763Z" fill="#FDD2AF"/>
<path d="M81.5881 100.932H-2.65188C-3.11988 100.932 -3.43188 100.62 -3.43188 100.152C-3.43188 99.6838 -3.11988 99.3718 -2.65188 99.3718H81.5881C82.0561 99.3718 82.3681 99.6838 82.3681 100.152C82.3681 100.62 81.9001 100.932 81.5881 100.932Z" fill="black"/>
<path d="M51.9481 100.776C51.4801 100.776 51.1681 100.464 51.1681 99.9962V83.7722C51.1681 79.0922 48.5161 74.7242 43.8361 72.2282L39.4681 69.7322L34.9441 72.2282C30.4201 74.7242 27.7681 79.0922 27.7681 83.7722V99.8402C27.7681 100.308 27.4561 100.62 26.9881 100.62C26.5201 100.62 26.2081 100.308 26.2081 99.8402V83.7722C26.2081 78.4682 29.1721 73.6322 34.3201 70.8242L39.1561 68.1722C39.4681 68.0162 39.6241 68.0162 39.9361 68.1722L44.7721 70.8242C49.9201 73.6322 52.8841 78.4682 52.8841 83.7722V99.9962C52.7281 100.464 52.2601 100.776 51.9481 100.776ZM25.4281 65.6762C24.9601 65.6762 24.6481 65.3642 24.6481 64.8962V56.3162C24.6481 53.9762 23.0881 52.8842 22.3081 52.4162C21.6841 52.7282 19.9681 53.8202 19.9681 56.3162V64.8962C19.9681 65.3642 19.6561 65.6762 19.1881 65.6762C18.7201 65.6762 18.4081 65.3642 18.4081 64.8962V56.3162C18.4081 52.2602 21.9961 51.0122 22.1521 50.8562H22.6201C22.7761 50.8562 26.2081 52.2602 26.2081 56.3162V64.8962C26.2081 65.3642 25.7401 65.6762 25.4281 65.6762ZM34.7881 65.6762C34.3201 65.6762 34.0081 65.3642 34.0081 64.8962V56.3162C34.0081 53.9762 32.4481 52.8842 31.6681 52.4162C31.0441 52.7282 29.3281 53.8202 29.3281 56.3162V64.8962C29.3281 65.3642 29.0161 65.6762 28.5481 65.6762C28.0801 65.6762 27.7681 65.3642 27.7681 64.8962V56.3162C27.7681 52.2602 31.3561 51.0122 31.5121 50.8562H31.9801C32.1361 50.8562 35.5681 52.2602 35.5681 56.3162V64.8962C35.5681 65.3642 35.1001 65.6762 34.7881 65.6762Z" fill="black"/>
<path d="M56.6283 100.776H22.3083C21.8403 100.776 21.5283 100.464 21.5283 99.9962V64.1162C21.5283 63.6482 21.8403 63.3362 22.3083 63.3362H56.6283C57.0963 63.3362 57.4083 63.6482 57.4083 64.1162V99.9962C57.4083 100.464 56.9403 100.776 56.6283 100.776ZM23.0883 99.2162H55.8483V64.8962H23.0883V99.2162Z" fill="black"/>
<path d="M22.3081 100.776H12.9481C12.4801 100.776 12.1681 100.464 12.1681 99.9962V64.1162C12.1681 63.6482 12.4801 63.3362 12.9481 63.3362H22.3081C22.7761 63.3362 23.0881 63.6482 23.0881 64.1162V99.9962C23.0881 100.464 22.6201 100.776 22.3081 100.776ZM13.7281 99.2162H21.5281V64.8962H13.7281V99.2162Z" fill="black"/>
<path d="M12.9481 100.776H3.58811C3.12011 100.776 2.80811 100.464 2.80811 99.9962V64.1162C2.80811 63.6482 3.12011 63.3362 3.58811 63.3362H12.9481C13.4161 63.3362 13.7281 63.6482 13.7281 64.1162V99.9962C13.7281 100.464 13.2601 100.776 12.9481 100.776ZM4.36811 99.2162H12.1681V64.8962H4.36811V99.2162ZM11.3881 46.1762H5.14811C4.68011 46.1762 4.36811 45.8642 4.36811 45.3962V32.9162C4.36811 32.4482 4.68011 32.1362 5.14811 32.1362H11.3881C11.8561 32.1362 12.1681 32.4482 12.1681 32.9162V45.3962C12.1681 45.8642 11.7001 46.1762 11.3881 46.1762ZM5.92811 44.6162H10.6081V33.6962H5.92811V44.6162ZM11.3881 27.4562H5.14811C4.68011 27.4562 4.36811 27.1442 4.36811 26.6762V19.6562C4.36811 19.1882 4.68011 18.8762 5.14811 18.8762H11.3881C11.8561 18.8762 12.1681 19.1882 12.1681 19.6562V26.6762C12.1681 27.1442 11.7001 27.4562 11.3881 27.4562ZM5.92811 25.8962H10.6081V20.4362H5.92811V25.8962ZM73.7881 46.1762H67.5481C67.0801 46.1762 66.7681 45.8642 66.7681 45.3962V32.9162C66.7681 32.4482 67.0801 32.1362 67.5481 32.1362H73.7881C74.2561 32.1362 74.5681 32.4482 74.5681 32.9162V45.3962C74.5681 45.8642 74.1001 46.1762 73.7881 46.1762ZM68.3281 44.6162H73.0081V33.6962H68.3281V44.6162Z" fill="black"/>
<path d="M16.0681 64.896H0.46811C0.000110328 64.896 -0.31189 64.584 -0.31189 64.116V45.396C-0.31189 44.928 0.000110328 44.616 0.46811 44.616H16.0681C16.5361 44.616 16.8481 44.928 16.8481 45.396V64.116C16.8481 64.584 16.3801 64.896 16.0681 64.896ZM1.24811 63.336H15.2881V46.176H1.24811V63.336ZM14.5081 33.696H2.02811C1.56011 33.696 1.24811 33.384 1.24811 32.916V26.676C1.24811 26.208 1.56011 25.896 2.02811 25.896H14.5081C14.9761 25.896 15.2881 26.208 15.2881 26.676V32.916C15.2881 33.384 14.8201 33.696 14.5081 33.696ZM2.80811 32.136H13.7281V27.456H2.80811V32.136ZM12.9481 20.436H3.58811C3.12011 20.436 2.80811 20.124 2.80811 19.656V14.976C2.80811 14.508 3.12011 14.196 3.58811 14.196H12.9481C13.4161 14.196 13.7281 14.508 13.7281 14.976V19.656C13.7281 20.124 13.2601 20.436 12.9481 20.436ZM4.36811 18.876H12.1681V15.756H4.36811V18.876Z" fill="black"/>
<path d="M62.8681 64.8962H16.0681C15.6001 64.8962 15.2881 64.5842 15.2881 64.1162V45.3962C15.2881 44.9282 15.6001 44.6162 16.0681 44.6162H62.8681C63.3361 44.6162 63.6481 44.9282 63.6481 45.3962V64.1162C63.6481 64.5842 63.1801 64.8962 62.8681 64.8962ZM16.8481 63.3362H62.0881V46.1762H16.8481V63.3362Z" fill="black"/>
<path d="M67.548 46.1762H11.388C10.92 46.1762 10.608 45.8642 10.608 45.3962V39.1562C10.608 38.6882 10.92 38.3762 11.388 38.3762H67.548C68.016 38.3762 68.328 38.6882 68.328 39.1562V45.3962C68.328 45.8642 67.86 46.1762 67.548 46.1762ZM12.168 44.6162H66.768V39.9362H12.168V44.6162Z" fill="black"/>
<path d="M67.548 39.7801H11.388C10.92 39.7801 10.608 39.4681 10.608 39.0001V35.8801C10.608 35.4121 10.92 35.1001 11.388 35.1001H67.548C68.016 35.1001 68.328 35.4121 68.328 35.8801V39.0001C68.328 39.4681 67.86 39.7801 67.548 39.7801ZM12.168 38.2201H66.768V36.6601H12.168V38.2201ZM19.188 74.2561H16.068C15.6 74.2561 15.288 73.9441 15.288 73.4761V70.3561C15.288 69.1081 16.38 68.0161 17.628 68.0161C18.876 68.0161 19.968 69.1081 19.968 70.3561V73.4761C19.968 73.9441 19.5 74.2561 19.188 74.2561ZM16.848 72.6961H18.408V70.3561C18.408 69.8881 18.096 69.5761 17.628 69.5761C17.16 69.5761 16.848 69.8881 16.848 70.3561V72.6961ZM19.188 82.0561H16.068C15.6 82.0561 15.288 81.7441 15.288 81.2761V78.1561C15.288 76.9081 16.38 75.8161 17.628 75.8161C18.876 75.8161 19.968 76.9081 19.968 78.1561V81.2761C19.968 81.7441 19.5 82.0561 19.188 82.0561ZM16.848 80.4961H18.408V78.1561C18.408 77.6881 18.096 77.3761 17.628 77.3761C17.16 77.3761 16.848 77.6881 16.848 78.1561V80.4961ZM19.188 89.8561H16.068C15.6 89.8561 15.288 89.5441 15.288 89.0761V85.9561C15.288 84.7081 16.38 83.6161 17.628 83.6161C18.876 83.6161 19.968 84.7081 19.968 85.9561V89.0761C19.968 89.5441 19.5 89.8561 19.188 89.8561ZM16.848 88.2961H18.408V85.9561C18.408 85.4881 18.096 85.1761 17.628 85.1761C17.16 85.1761 16.848 85.4881 16.848 85.9561V88.2961ZM19.188 97.6561H16.068C15.6 97.6561 15.288 97.3441 15.288 96.8761V93.7561C15.288 92.5081 16.38 91.4161 17.628 91.4161C18.876 91.4161 19.968 92.5081 19.968 93.7561V96.8761C19.968 97.3441 19.5 97.6561 19.188 97.6561ZM16.848 96.0961H18.408V93.7561C18.408 93.2881 18.096 92.9761 17.628 92.9761C17.16 92.9761 16.848 93.2881 16.848 93.7561V96.0961ZM62.868 82.0561H59.748C59.28 82.0561 58.968 81.7441 58.968 81.2761V78.1561C58.968 76.9081 60.06 75.8161 61.308 75.8161C62.556 75.8161 63.648 76.9081 63.648 78.1561V81.2761C63.648 81.7441 63.18 82.0561 62.868 82.0561ZM60.528 80.4961H62.088V78.1561C62.088 77.6881 61.776 77.3761 61.308 77.3761C60.84 77.3761 60.528 77.6881 60.528 78.1561V80.4961ZM62.868 97.6561H59.748C59.28 97.6561 58.968 97.3441 58.968 96.8761V93.7561C58.968 92.5081 60.06 91.4161 61.308 91.4161C62.556 91.4161 63.648 92.5081 63.648 93.7561V96.8761C63.648 97.3441 63.18 97.6561 62.868 97.6561ZM60.528 96.0961H62.088V93.7561C62.088 93.2881 61.776 92.9761 61.308 92.9761C60.84 92.9761 60.528 93.2881 60.528 93.7561V96.0961Z" fill="black"/>
<path d="M19.1881 74.2561H16.0681C15.6001 74.2561 15.2881 73.9441 15.2881 73.4761V70.3561C15.2881 69.1081 16.3801 68.0161 17.6281 68.0161C18.8761 68.0161 19.9681 69.1081 19.9681 70.3561V73.4761C19.9681 73.9441 19.5001 74.2561 19.1881 74.2561ZM16.8481 72.6961H18.4081V70.3561C18.4081 69.8881 18.0961 69.5761 17.6281 69.5761C17.1601 69.5761 16.8481 69.8881 16.8481 70.3561V72.6961ZM19.1881 82.0561H16.0681C15.6001 82.0561 15.2881 81.7441 15.2881 81.2761V78.1561C15.2881 76.9081 16.3801 75.8161 17.6281 75.8161C18.8761 75.8161 19.9681 76.9081 19.9681 78.1561V81.2761C19.9681 81.7441 19.5001 82.0561 19.1881 82.0561ZM16.8481 80.4961H18.4081V78.1561C18.4081 77.6881 18.0961 77.3761 17.6281 77.3761C17.1601 77.3761 16.8481 77.6881 16.8481 78.1561V80.4961ZM19.1881 89.8561H16.0681C15.6001 89.8561 15.2881 89.5441 15.2881 89.0761V85.9561C15.2881 84.7081 16.3801 83.6161 17.6281 83.6161C18.8761 83.6161 19.9681 84.7081 19.9681 85.9561V89.0761C19.9681 89.5441 19.5001 89.8561 19.1881 89.8561ZM16.8481 88.2961H18.4081V85.9561C18.4081 85.4881 18.0961 85.1761 17.6281 85.1761C17.1601 85.1761 16.8481 85.4881 16.8481 85.9561V88.2961ZM19.1881 97.6561H16.0681C15.6001 97.6561 15.2881 97.3441 15.2881 96.8761V93.7561C15.2881 92.5081 16.3801 91.4161 17.6281 91.4161C18.8761 91.4161 19.9681 92.5081 19.9681 93.7561V96.8761C19.9681 97.3441 19.5001 97.6561 19.1881 97.6561ZM16.8481 96.0961H18.4081V93.7561C18.4081 93.2881 18.0961 92.9761 17.6281 92.9761C17.1601 92.9761 16.8481 93.2881 16.8481 93.7561V96.0961ZM62.8681 82.0561H59.7481C59.2801 82.0561 58.9681 81.7441 58.9681 81.2761V78.1561C58.9681 76.9081 60.0601 75.8161 61.3081 75.8161C62.5561 75.8161 63.6481 76.9081 63.6481 78.1561V81.2761C63.6481 81.7441 63.1801 82.0561 62.8681 82.0561ZM60.5281 80.4961H62.0881V78.1561C62.0881 77.6881 61.7761 77.3761 61.3081 77.3761C60.8401 77.3761 60.5281 77.6881 60.5281 78.1561V80.4961ZM62.8681 97.6561H59.7481C59.2801 97.6561 58.9681 97.3441 58.9681 96.8761V93.7561C58.9681 92.5081 60.0601 91.4161 61.3081 91.4161C62.5561 91.4161 63.6481 92.5081 63.6481 93.7561V96.8761C63.6481 97.3441 63.1801 97.6561 62.8681 97.6561ZM60.5281 96.0961H62.0881V93.7561C62.0881 93.2881 61.7761 92.9761 61.3081 92.9761C60.8401 92.9761 60.5281 93.2881 60.5281 93.7561V96.0961Z" fill="black"/>
<path d="M11.3881 56.3161C10.4521 56.3161 9.82814 56.9401 9.82814 57.8761V59.4361C9.82814 58.5001 10.4521 57.8761 11.3881 57.8761C12.3241 57.8761 12.9481 58.5001 12.9481 59.4361V57.8761C12.9481 56.9401 12.1681 56.3161 11.3881 56.3161ZM67.5481 56.3161C66.6121 56.3161 65.9881 56.9401 65.9881 57.8761V59.4361C65.9881 58.5001 66.6121 57.8761 67.5481 57.8761C68.4841 57.8761 69.1081 58.5001 69.1081 59.4361V57.8761C69.1081 56.9401 68.3281 56.3161 67.5481 56.3161ZM67.5481 48.5161C66.6121 48.5161 65.9881 49.1401 65.9881 50.0761V51.6361C65.9881 50.7001 66.6121 50.0761 67.5481 50.0761C68.4841 50.0761 69.1081 50.7001 69.1081 51.6361V50.0761C69.1081 49.1401 68.3281 48.5161 67.5481 48.5161ZM73.7881 56.3161C72.8521 56.3161 72.2281 56.9401 72.2281 57.8761V59.4361C72.2281 58.5001 72.8521 57.8761 73.7881 57.8761C74.7241 57.8761 75.3481 58.5001 75.3481 59.4361V57.8761C75.3481 56.9401 74.5681 56.3161 73.7881 56.3161ZM73.7881 48.5161C72.8521 48.5161 72.2281 49.1401 72.2281 50.0761V51.6361C72.2281 50.7001 72.8521 50.0761 73.7881 50.0761C74.7241 50.0761 75.3481 50.7001 75.3481 51.6361V50.0761C75.3481 49.1401 74.5681 48.5161 73.7881 48.5161ZM5.14813 56.3161C4.21213 56.3161 3.58813 56.9401 3.58813 57.8761V59.4361C3.58813 58.5001 4.21213 57.8761 5.14813 57.8761C6.08413 57.8761 6.70813 58.5001 6.70813 59.4361V57.8761C6.70813 56.9401 5.92813 56.3161 5.14813 56.3161ZM5.14813 48.5161C4.21213 48.5161 3.58813 49.1401 3.58813 50.0761V51.6361C3.58813 50.7001 4.21213 50.0761 5.14813 50.0761C6.08413 50.0761 6.70813 50.7001 6.70813 51.6361V50.0761C6.70813 49.1401 5.92813 48.5161 5.14813 48.5161ZM11.3881 48.5161C10.4521 48.5161 9.82814 49.1401 9.82814 50.0761V51.6361C9.82814 50.7001 10.4521 50.0761 11.3881 50.0761C12.3241 50.0761 12.9481 50.7001 12.9481 51.6361V50.0761C12.9481 49.1401 12.1681 48.5161 11.3881 48.5161Z" fill="black"/>
<path d="M19.1881 74.2561H16.0681C15.6001 74.2561 15.2881 73.9441 15.2881 73.4761V70.3561C15.2881 69.1081 16.3801 68.0161 17.6281 68.0161C18.8761 68.0161 19.9681 69.1081 19.9681 70.3561V73.4761C19.9681 73.9441 19.5001 74.2561 19.1881 74.2561ZM16.8481 72.6961H18.4081V70.3561C18.4081 69.8881 18.0961 69.5761 17.6281 69.5761C17.1601 69.5761 16.8481 69.8881 16.8481 70.3561V72.6961ZM19.1881 82.0561H16.0681C15.6001 82.0561 15.2881 81.7441 15.2881 81.2761V78.1561C15.2881 76.9081 16.3801 75.8161 17.6281 75.8161C18.8761 75.8161 19.9681 76.9081 19.9681 78.1561V81.2761C19.9681 81.7441 19.5001 82.0561 19.1881 82.0561ZM16.8481 80.4961H18.4081V78.1561C18.4081 77.6881 18.0961 77.3761 17.6281 77.3761C17.1601 77.3761 16.8481 77.6881 16.8481 78.1561V80.4961ZM6.70811 61.7761H3.58811C3.12011 61.7761 2.80811 61.4641 2.80811 60.9961V57.8761C2.80811 56.6281 3.90011 55.5361 5.14811 55.5361C6.39611 55.5361 7.48811 56.6281 7.48811 57.8761V60.9961C7.48811 61.4641 7.02011 61.7761 6.70811 61.7761ZM4.36811 60.2161H5.92811V57.8761C5.92811 57.4081 5.61611 57.0961 5.14811 57.0961C4.68011 57.0961 4.36811 57.4081 4.36811 57.8761V60.2161ZM6.70811 53.9761H3.58811C3.12011 53.9761 2.80811 53.6641 2.80811 53.1961V50.0761C2.80811 48.8281 3.90011 47.7361 5.14811 47.7361C6.39611 47.7361 7.48811 48.8281 7.48811 50.0761V53.1961C7.48811 53.6641 7.02011 53.9761 6.70811 53.9761ZM4.36811 52.4161H5.92811V50.0761C5.92811 49.6081 5.61611 49.2961 5.14811 49.2961C4.68011 49.2961 4.36811 49.6081 4.36811 50.0761V52.4161ZM12.9481 61.7761H9.82811C9.36011 61.7761 9.04811 61.4641 9.04811 60.9961V57.8761C9.04811 56.6281 10.1401 55.5361 11.3881 55.5361C12.6361 55.5361 13.7281 56.6281 13.7281 57.8761V60.9961C13.7281 61.4641 13.2601 61.7761 12.9481 61.7761ZM10.6081 60.2161H12.1681V57.8761C12.1681 57.4081 11.8561 57.0961 11.3881 57.0961C10.9201 57.0961 10.6081 57.4081 10.6081 57.8761V60.2161ZM12.9481 53.9761H9.82811C9.36011 53.9761 9.04811 53.6641 9.04811 53.1961V50.0761C9.04811 48.8281 10.1401 47.7361 11.3881 47.7361C12.6361 47.7361 13.7281 48.8281 13.7281 50.0761V53.1961C13.7281 53.6641 13.2601 53.9761 12.9481 53.9761ZM10.6081 52.4161H12.1681V50.0761C12.1681 49.6081 11.8561 49.2961 11.3881 49.2961C10.9201 49.2961 10.6081 49.6081 10.6081 50.0761V52.4161ZM69.1081 61.7761H65.9881C65.5201 61.7761 65.2081 61.4641 65.2081 60.9961V57.8761C65.2081 56.6281 66.3001 55.5361 67.5481 55.5361C68.7961 55.5361 69.8881 56.6281 69.8881 57.8761V60.9961C69.8881 61.4641 69.4201 61.7761 69.1081 61.7761ZM66.7681 60.2161H68.3281V57.8761C68.3281 57.4081 68.0161 57.0961 67.5481 57.0961C67.0801 57.0961 66.7681 57.4081 66.7681 57.8761V60.2161ZM69.1081 53.9761H65.9881C65.5201 53.9761 65.2081 53.6641 65.2081 53.1961V50.0761C65.2081 48.8281 66.3001 47.7361 67.5481 47.7361C68.7961 47.7361 69.8881 48.8281 69.8881 50.0761V53.1961C69.8881 53.6641 69.4201 53.9761 69.1081 53.9761ZM66.7681 52.4161H68.3281V50.0761C68.3281 49.6081 68.0161 49.2961 67.5481 49.2961C67.0801 49.2961 66.7681 49.6081 66.7681 50.0761V52.4161ZM75.3481 61.7761H72.2281C71.7601 61.7761 71.4481 61.4641 71.4481 60.9961V57.8761C71.4481 56.6281 72.5401 55.5361 73.7881 55.5361C75.0361 55.5361 76.1281 56.6281 76.1281 57.8761V60.9961C76.1281 61.4641 75.6601 61.7761 75.3481 61.7761ZM73.0081 60.2161H74.5681V57.8761C74.5681 57.4081 74.2561 57.0961 73.7881 57.0961C73.3201 57.0961 73.0081 57.4081 73.0081 57.8761V60.2161ZM75.3481 53.9761H72.2281C71.7601 53.9761 71.4481 53.6641 71.4481 53.1961V50.0761C71.4481 48.8281 72.5401 47.7361 73.7881 47.7361C75.0361 47.7361 76.1281 48.8281 76.1281 50.0761V53.1961C76.1281 53.6641 75.6601 53.9761 75.3481 53.9761ZM73.0081 52.4161H74.5681V50.0761C74.5681 49.6081 74.2561 49.2961 73.7881 49.2961C73.3201 49.2961 73.0081 49.6081 73.0081 50.0761V52.4161ZM19.1881 46.1761H16.0681C15.6001 46.1761 15.2881 45.8641 15.2881 45.3961V43.8361C15.2881 42.5881 16.3801 41.4961 17.6281 41.4961C18.8761 41.4961 19.9681 42.5881 19.9681 43.8361V45.3961C19.9681 45.8641 19.5001 46.1761 19.1881 46.1761ZM16.8481 44.6161H18.4081V43.8361C18.4081 43.3681 18.0961 43.0561 17.6281 43.0561C17.1601 43.0561 16.8481 43.3681 16.8481 43.8361V44.6161ZM25.4281 46.1761H22.3081C21.8401 46.1761 21.5281 45.8641 21.5281 45.3961V43.8361C21.5281 42.5881 22.6201 41.4961 23.8681 41.4961C25.1161 41.4961 26.2081 42.5881 26.2081 43.8361V45.3961C26.2081 45.8641 25.7401 46.1761 25.4281 46.1761ZM23.0881 44.6161H24.6481V43.8361C24.6481 43.3681 24.3361 43.0561 23.8681 43.0561C23.4001 43.0561 23.0881 43.3681 23.0881 43.8361V44.6161ZM31.6681 46.1761H28.5481C28.0801 46.1761 27.7681 45.8641 27.7681 45.3961V43.8361C27.7681 42.5881 28.8601 41.4961 30.1081 41.4961C31.3561 41.4961 32.4481 42.5881 32.4481 43.8361V45.3961C32.4481 45.8641 31.9801 46.1761 31.6681 46.1761ZM29.3281 44.6161H30.8881V43.8361C30.8881 43.3681 30.5761 43.0561 30.1081 43.0561C29.6401 43.0561 29.3281 43.3681 29.3281 43.8361V44.6161ZM37.9081 46.1761H34.7881C34.3201 46.1761 34.0081 45.8641 34.0081 45.3961V43.8361C34.0081 42.5881 35.1001 41.4961 36.3481 41.4961C37.5961 41.4961 38.6881 42.5881 38.6881 43.8361V45.3961C38.6881 45.8641 38.2201 46.1761 37.9081 46.1761ZM35.5681 44.6161H37.1281V43.8361C37.1281 43.3681 36.8161 43.0561 36.3481 43.0561C35.8801 43.0561 35.5681 43.3681 35.5681 43.8361V44.6161ZM44.1481 46.1761H41.0281C40.5601 46.1761 40.2481 45.8641 40.2481 45.3961V43.8361C40.2481 42.5881 41.3401 41.4961 42.5881 41.4961C43.8361 41.4961 44.9281 42.5881 44.9281 43.8361V45.3961C44.9281 45.8641 44.4601 46.1761 44.1481 46.1761ZM41.8081 44.6161H43.3681V43.8361C43.3681 43.3681 43.0561 43.0561 42.5881 43.0561C42.1201 43.0561 41.8081 43.3681 41.8081 43.8361V44.6161ZM50.3881 46.1761H47.2681C46.8001 46.1761 46.4881 45.8641 46.4881 45.3961V43.8361C46.4881 42.5881 47.5801 41.4961 48.8281 41.4961C50.0761 41.4961 51.1681 42.5881 51.1681 43.8361V45.3961C51.1681 45.8641 50.7001 46.1761 50.3881 46.1761ZM48.0481 44.6161H49.6081V43.8361C49.6081 43.3681 49.2961 43.0561 48.8281 43.0561C48.3601 43.0561 48.0481 43.3681 48.0481 43.8361V44.6161ZM56.6281 46.1761H53.5081C53.0401 46.1761 52.7281 45.8641 52.7281 45.3961V43.8361C52.7281 42.5881 53.8201 41.4961 55.0681 41.4961C56.3161 41.4961 57.4081 42.5881 57.4081 43.8361V45.3961C57.4081 45.8641 56.9401 46.1761 56.6281 46.1761ZM54.2881 44.6161H55.8481V43.8361C55.8481 43.3681 55.5361 43.0561 55.0681 43.0561C54.6001 43.0561 54.2881 43.3681 54.2881 43.8361V44.6161ZM62.8681 46.1761H59.7481C59.2801 46.1761 58.9681 45.8641 58.9681 45.3961V43.8361C58.9681 42.5881 60.0601 41.4961 61.3081 41.4961C62.5561 41.4961 63.6481 42.5881 63.6481 43.8361V45.3961C63.6481 45.8641 63.1801 46.1761 62.8681 46.1761ZM60.5281 44.6161H62.0881V43.8361C62.0881 43.3681 61.7761 43.0561 61.3081 43.0561C60.8401 43.0561 60.5281 43.3681 60.5281 43.8361V44.6161ZM8.26811 32.1361C7.80011 32.1361 7.48811 31.8241 7.48811 31.3561V29.7961C7.48811 29.3281 7.80011 29.0161 8.26811 29.0161C8.73611 29.0161 9.04811 29.3281 9.04811 29.7961V31.3561C9.04811 31.8241 8.58011 32.1361 8.26811 32.1361ZM5.14811 32.9161C4.68011 32.9161 4.36811 32.6041 4.36811 32.1361V29.7961C4.36811 29.3281 4.68011 29.0161 5.14811 29.0161C5.61611 29.0161 5.92811 29.3281 5.92811 29.7961V32.1361C5.92811 32.6041 5.46011 32.9161 5.14811 32.9161ZM11.3881 32.9161C10.9201 32.9161 10.6081 32.6041 10.6081 32.1361V29.7961C10.6081 29.3281 10.9201 29.0161 11.3881 29.0161C11.8561 29.0161 12.1681 29.3281 12.1681 29.7961V32.1361C12.1681 32.6041 11.7001 32.9161 11.3881 32.9161Z" fill="black"/>
<path d="M8.26804 32.9162C7.80004 32.9162 7.48804 32.6042 7.48804 32.1362V29.7962C7.48804 29.3282 7.80004 29.0162 8.26804 29.0162C8.73604 29.0162 9.04804 29.3282 9.04804 29.7962V32.1362C9.04804 32.6042 8.58004 32.9162 8.26804 32.9162ZM76.908 33.6962H64.428C63.96 33.6962 63.648 33.3842 63.648 32.9162V26.6762C63.648 26.2082 63.96 25.8962 64.428 25.8962H76.908C77.376 25.8962 77.688 26.2082 77.688 26.6762V32.9162C77.688 33.3842 77.22 33.6962 76.908 33.6962ZM65.208 32.1362H76.128V27.4562H65.208V32.1362Z" fill="black"/>
<path d="M70.6681 32.9161C70.2001 32.9161 69.8881 32.6041 69.8881 32.1361V29.7961C69.8881 29.3281 70.2001 29.0161 70.6681 29.0161C71.1361 29.0161 71.4481 29.3281 71.4481 29.7961V32.1361C71.4481 32.6041 70.9801 32.9161 70.6681 32.9161ZM67.5481 32.9161C67.0801 32.9161 66.7681 32.6041 66.7681 32.1361V29.7961C66.7681 29.3281 67.0801 29.0161 67.5481 29.0161C68.0161 29.0161 68.3281 29.3281 68.3281 29.7961V32.1361C68.3281 32.6041 67.8601 32.9161 67.5481 32.9161ZM73.7881 32.9161C73.3201 32.9161 73.0081 32.6041 73.0081 32.1361V29.7961C73.0081 29.3281 73.3201 29.0161 73.7881 29.0161C74.2561 29.0161 74.5681 29.3281 74.5681 29.7961V32.1361C74.5681 32.6041 74.1001 32.9161 73.7881 32.9161ZM78.4681 64.8961H62.8681C62.4001 64.8961 62.0881 64.5841 62.0881 64.1161V45.3961C62.0881 44.9281 62.4001 44.6161 62.8681 44.6161H78.4681C78.9361 44.6161 79.2481 44.9281 79.2481 45.3961V64.1161C79.2481 64.5841 78.7801 64.8961 78.4681 64.8961ZM63.6481 63.3361H77.6881V46.1761H63.6481V63.3361Z" fill="black"/>
<path d="M65.988 100.776H56.628C56.16 100.776 55.848 100.464 55.848 99.9962V64.1162C55.848 63.6482 56.16 63.3362 56.628 63.3362H65.988C66.456 63.3362 66.768 63.6482 66.768 64.1162V99.9962C66.768 100.464 66.3 100.776 65.988 100.776ZM57.408 99.2162H65.208V64.8962H57.408V99.2162Z" fill="black"/>
<path d="M75.3481 100.776H65.988C65.5201 100.776 65.208 100.464 65.208 99.996V64.116C65.208 63.648 65.5201 63.336 65.988 63.336H75.3481C75.816 63.336 76.1281 63.648 76.1281 64.116V99.996C76.1281 100.464 75.66 100.776 75.3481 100.776ZM66.7681 99.216H74.5681V64.896H66.7681V99.216ZM26.988 72.696C25.74 72.696 24.648 71.604 24.648 70.356C24.648 69.108 25.74 68.016 26.988 68.016C28.236 68.016 29.328 69.108 29.328 70.356C29.328 71.604 28.236 72.696 26.988 72.696ZM26.988 69.576C26.52 69.576 26.208 69.888 26.208 70.356C26.208 70.824 26.52 71.136 26.988 71.136C27.456 71.136 27.768 70.824 27.768 70.356C27.768 69.888 27.3 69.576 26.988 69.576ZM51.948 72.696C50.7 72.696 49.608 71.604 49.608 70.356C49.608 69.108 50.7 68.016 51.948 68.016C53.196 68.016 54.288 69.108 54.288 70.356C54.288 71.604 53.196 72.696 51.948 72.696ZM51.948 69.576C51.48 69.576 51.168 69.888 51.168 70.356C51.168 70.824 51.48 71.136 51.948 71.136C52.416 71.136 52.728 70.824 52.728 70.356C52.728 69.888 52.26 69.576 51.948 69.576ZM39.468 57.096C38.22 57.096 37.128 56.004 37.128 54.756C37.128 53.508 38.22 52.416 39.468 52.416C40.716 52.416 41.808 53.508 41.808 54.756C41.808 56.004 40.716 57.096 39.468 57.096ZM39.468 53.976C39 53.976 38.688 54.288 38.688 54.756C38.688 55.224 39 55.536 39.468 55.536C39.936 55.536 40.248 55.224 40.248 54.756C40.248 54.288 39.78 53.976 39.468 53.976ZM25.428 66.456C24.96 66.456 24.648 66.144 24.648 65.676V64.116C24.648 63.648 24.96 63.336 25.428 63.336C25.896 63.336 26.208 63.648 26.208 64.116V65.676C26.208 66.144 25.74 66.456 25.428 66.456ZM28.548 66.456C28.08 66.456 27.768 66.144 27.768 65.676V64.116C27.768 63.648 28.08 63.336 28.548 63.336C29.016 63.336 29.328 63.648 29.328 64.116V65.676C29.328 66.144 28.86 66.456 28.548 66.456ZM16.068 66.456C15.6 66.456 15.288 66.144 15.288 65.676V64.116C15.288 63.648 15.6 63.336 16.068 63.336C16.536 63.336 16.848 63.648 16.848 64.116V65.676C16.848 66.144 16.38 66.456 16.068 66.456ZM19.188 66.456C18.72 66.456 18.408 66.144 18.408 65.676V64.116C18.408 63.648 18.72 63.336 19.188 63.336C19.656 63.336 19.968 63.648 19.968 64.116V65.676C19.968 66.144 19.5 66.456 19.188 66.456ZM25.428 47.736C24.96 47.736 24.648 47.424 24.648 46.956V45.396C24.648 44.928 24.96 44.616 25.428 44.616C25.896 44.616 26.208 44.928 26.208 45.396V46.956C26.208 47.424 25.74 47.736 25.428 47.736ZM22.308 47.736C21.84 47.736 21.528 47.424 21.528 46.956V45.396C21.528 44.928 21.84 44.616 22.308 44.616C22.776 44.616 23.088 44.928 23.088 45.396V46.956C23.088 47.424 22.62 47.736 22.308 47.736ZM28.548 47.736C28.08 47.736 27.768 47.424 27.768 46.956V45.396C27.768 44.928 28.08 44.616 28.548 44.616C29.016 44.616 29.328 44.928 29.328 45.396V46.956C29.328 47.424 28.86 47.736 28.548 47.736ZM19.188 47.736C18.72 47.736 18.408 47.424 18.408 46.956V45.396C18.408 44.928 18.72 44.616 19.188 44.616C19.656 44.616 19.968 44.928 19.968 45.396V46.956C19.968 47.424 19.5 47.736 19.188 47.736ZM37.908 47.736C37.44 47.736 37.128 47.424 37.128 46.956V45.396C37.128 44.928 37.44 44.616 37.908 44.616C38.376 44.616 38.688 44.928 38.688 45.396V46.956C38.688 47.424 38.22 47.736 37.908 47.736ZM34.788 47.736C34.32 47.736 34.008 47.424 34.008 46.956V45.396C34.008 44.928 34.32 44.616 34.788 44.616C35.256 44.616 35.568 44.928 35.568 45.396V46.956C35.568 47.424 35.1 47.736 34.788 47.736ZM41.028 47.736C40.56 47.736 40.248 47.424 40.248 46.956V45.396C40.248 44.928 40.56 44.616 41.028 44.616C41.496 44.616 41.808 44.928 41.808 45.396V46.956C41.808 47.424 41.34 47.736 41.028 47.736ZM31.668 47.736C31.2 47.736 30.888 47.424 30.888 46.956V45.396C30.888 44.928 31.2 44.616 31.668 44.616C32.136 44.616 32.448 44.928 32.448 45.396V46.956C32.448 47.424 31.98 47.736 31.668 47.736ZM50.388 47.736C49.92 47.736 49.608 47.424 49.608 46.956V45.396C49.608 44.928 49.92 44.616 50.388 44.616C50.856 44.616 51.168 44.928 51.168 45.396V46.956C51.168 47.424 50.7 47.736 50.388 47.736ZM47.268 47.736C46.8 47.736 46.488 47.424 46.488 46.956V45.396C46.488 44.928 46.8 44.616 47.268 44.616C47.736 44.616 48.048 44.928 48.048 45.396V46.956C48.048 47.424 47.58 47.736 47.268 47.736ZM53.508 47.736C53.04 47.736 52.728 47.424 52.728 46.956V45.396C52.728 44.928 53.04 44.616 53.508 44.616C53.976 44.616 54.288 44.928 54.288 45.396V46.956C54.288 47.424 53.82 47.736 53.508 47.736ZM44.148 47.736C43.68 47.736 43.368 47.424 43.368 46.956V45.396C43.368 44.928 43.68 44.616 44.148 44.616C44.616 44.616 44.928 44.928 44.928 45.396V46.956C44.928 47.424 44.46 47.736 44.148 47.736ZM59.748 47.736C59.28 47.736 58.968 47.424 58.968 46.956V45.396C58.968 44.928 59.28 44.616 59.748 44.616C60.216 44.616 60.528 44.928 60.528 45.396V46.956C60.528 47.424 60.06 47.736 59.748 47.736ZM56.628 47.736C56.16 47.736 55.848 47.424 55.848 46.956V45.396C55.848 44.928 56.16 44.616 56.628 44.616C57.096 44.616 57.408 44.928 57.408 45.396V46.956C57.408 47.424 56.94 47.736 56.628 47.736ZM31.668 66.456C31.2 66.456 30.888 66.144 30.888 65.676V64.116C30.888 63.648 31.2 63.336 31.668 63.336C32.136 63.336 32.448 63.648 32.448 64.116V65.676C32.448 66.144 31.98 66.456 31.668 66.456ZM34.788 66.456C34.32 66.456 34.008 66.144 34.008 65.676V64.116C34.008 63.648 34.32 63.336 34.788 63.336C35.256 63.336 35.568 63.648 35.568 64.116V65.676C35.568 66.144 35.1 66.456 34.788 66.456ZM37.908 66.456C37.44 66.456 37.128 66.144 37.128 65.676V64.116C37.128 63.648 37.44 63.336 37.908 63.336C38.376 63.336 38.688 63.648 38.688 64.116V65.676C38.688 66.144 38.22 66.456 37.908 66.456ZM41.028 66.456C40.56 66.456 40.248 66.144 40.248 65.676V64.116C40.248 63.648 40.56 63.336 41.028 63.336C41.496 63.336 41.808 63.648 41.808 64.116V65.676C41.808 66.144 41.34 66.456 41.028 66.456ZM44.148 66.456C43.68 66.456 43.368 66.144 43.368 65.676V64.116C43.368 63.648 43.68 63.336 44.148 63.336C44.616 63.336 44.928 63.648 44.928 64.116V65.676C44.928 66.144 44.46 66.456 44.148 66.456ZM47.268 66.456C46.8 66.456 46.488 66.144 46.488 65.676V64.116C46.488 63.648 46.8 63.336 47.268 63.336C47.736 63.336 48.048 63.648 48.048 64.116V65.676C48.048 66.144 47.58 66.456 47.268 66.456ZM50.388 66.456C49.92 66.456 49.608 66.144 49.608 65.676V64.116C49.608 63.648 49.92 63.336 50.388 63.336C50.856 63.336 51.168 63.648 51.168 64.116V65.676C51.168 66.144 50.7 66.456 50.388 66.456ZM53.508 66.456C53.04 66.456 52.728 66.144 52.728 65.676V64.116C52.728 63.648 53.04 63.336 53.508 63.336C53.976 63.336 54.288 63.648 54.288 64.116V65.676C54.288 66.144 53.82 66.456 53.508 66.456ZM59.748 66.456C59.28 66.456 58.968 66.144 58.968 65.676V64.116C58.968 63.648 59.28 63.336 59.748 63.336C60.216 63.336 60.528 63.648 60.528 64.116V65.676C60.528 66.144 60.06 66.456 59.748 66.456ZM62.868 66.456C62.4001 66.456 62.0881 66.144 62.0881 65.676V64.116C62.0881 63.648 62.4001 63.336 62.868 63.336C63.3361 63.336 63.648 63.648 63.648 64.116V65.676C63.648 66.144 63.18 66.456 62.868 66.456ZM11.388 15.444C10.92 15.444 10.608 15.132 10.608 14.664V9.04796C10.608 7.95596 9.98404 6.86396 9.04804 6.23996L8.26804 5.77197L7.48804 6.23996C6.55204 6.86396 5.92804 7.95596 5.92804 9.04796V14.664C5.92804 15.132 5.61604 15.444 5.14804 15.444C4.68004 15.444 4.36804 15.132 4.36804 14.664V9.04796C4.36804 7.33196 5.14804 5.77196 6.70804 4.83596L7.95604 4.05596C8.26804 3.89996 8.58004 3.89996 8.73604 4.05596L9.98404 4.83596C11.388 5.77196 12.324 7.33196 12.324 9.04796V14.664C12.168 15.132 11.7 15.444 11.388 15.444Z" fill="black"/>
<path d="M8.26807 5.61603C7.80007 5.61603 7.48807 5.30404 7.48807 4.83604V1.71604C7.48807 1.24804 7.80007 0.936035 8.26807 0.936035C8.73607 0.936035 9.04807 1.24804 9.04807 1.71604V4.83604C9.04807 5.30404 8.58007 5.61603 8.26807 5.61603ZM8.26807 14.976C7.80007 14.976 7.48807 14.664 7.48807 14.196V12.636C7.48807 12.168 7.80007 11.856 8.26807 11.856C8.73607 11.856 9.04807 12.168 9.04807 12.636V14.196C9.04807 14.664 8.58007 14.976 8.26807 14.976ZM6.70807 19.656C6.24007 19.656 5.92807 19.344 5.92807 18.876V18.096C5.92807 17.628 6.24007 17.316 6.70807 17.316C7.17607 17.316 7.48807 17.628 7.48807 18.096V18.876C7.48807 19.344 7.02007 19.656 6.70807 19.656ZM9.82807 19.656C9.36007 19.656 9.04807 19.344 9.04807 18.876V18.096C9.04807 17.628 9.36007 17.316 9.82807 17.316C10.2961 17.316 10.6081 17.628 10.6081 18.096V18.876C10.6081 19.344 10.1401 19.656 9.82807 19.656ZM11.3881 10.296H5.92807C5.46007 10.296 5.14807 9.98403 5.14807 9.51603C5.14807 9.04803 5.46007 8.73603 5.92807 8.73603H11.3881C11.8561 8.73603 12.1681 9.04803 12.1681 9.51603C12.1681 9.98403 11.7001 10.296 11.3881 10.296ZM73.7881 27.456H67.5481C67.0801 27.456 66.7681 27.144 66.7681 26.676V19.656C66.7681 19.188 67.0801 18.876 67.5481 18.876H73.7881C74.2561 18.876 74.5681 19.188 74.5681 19.656V26.676C74.5681 27.144 74.1001 27.456 73.7881 27.456ZM68.3281 25.896H73.0081V20.436H68.3281V25.896Z" fill="black"/>
<path d="M75.3481 20.436H65.9881C65.5201 20.436 65.2081 20.124 65.2081 19.656V14.976C65.2081 14.508 65.5201 14.196 65.9881 14.196H75.3481C75.8161 14.196 76.1281 14.508 76.1281 14.976V19.656C76.1281 20.124 75.6601 20.436 75.3481 20.436ZM66.7681 18.876H74.5681V15.756H66.7681V18.876Z" fill="black"/>
<path d="M73.7881 15.444C73.3201 15.444 73.0081 15.132 73.0081 14.664V9.04796C73.0081 7.95596 72.3841 6.86396 71.4481 6.23996L70.6681 5.77197L69.8881 6.23996C68.9521 6.86396 68.3281 7.95596 68.3281 9.04796V14.664C68.3281 15.132 68.0161 15.444 67.5481 15.444C67.0801 15.444 66.7681 15.132 66.7681 14.664V9.04796C66.7681 7.33196 67.5481 5.77196 69.1081 4.83596L70.3561 4.05596C70.6681 3.89996 70.9801 3.89996 71.1361 4.05596L72.3841 4.83596C73.7881 5.77196 74.7241 7.33196 74.7241 9.04796V14.664C74.5681 15.132 74.1001 15.444 73.7881 15.444Z" fill="black"/>
<path d="M70.6681 5.61604C70.2001 5.61604 69.8881 5.30404 69.8881 4.83604V1.71604C69.8881 1.24804 70.2001 0.936035 70.6681 0.936035C71.1361 0.936035 71.4481 1.24804 71.4481 1.71604V4.83604C71.4481 5.30404 70.9801 5.61604 70.6681 5.61604ZM70.6681 14.976C70.2001 14.976 69.8881 14.664 69.8881 14.196V12.636C69.8881 12.168 70.2001 11.856 70.6681 11.856C71.1361 11.856 71.4481 12.168 71.4481 12.636V14.196C71.4481 14.664 70.9801 14.976 70.6681 14.976ZM69.1081 19.656C68.6401 19.656 68.3281 19.344 68.3281 18.876V18.096C68.3281 17.628 68.6401 17.316 69.1081 17.316C69.5761 17.316 69.8881 17.628 69.8881 18.096V18.876C69.8881 19.344 69.4201 19.656 69.1081 19.656ZM72.2281 19.656C71.7601 19.656 71.4481 19.344 71.4481 18.876V18.096C71.4481 17.628 71.7601 17.316 72.2281 17.316C72.6961 17.316 73.0081 17.628 73.0081 18.096V18.876C73.0081 19.344 72.5401 19.656 72.2281 19.656ZM73.7881 10.296H68.3281C67.8601 10.296 67.5481 9.98403 67.5481 9.51603C67.5481 9.04803 67.8601 8.73604 68.3281 8.73604H73.7881C74.2561 8.73604 74.5681 9.04803 74.5681 9.51603C74.5681 9.98403 74.1001 10.296 73.7881 10.296Z" fill="black"/>
<path d="M47.2679 51.6362C47.2679 51.6362 43.9919 52.8842 43.9919 56.3162V59.4362C43.9919 55.8482 47.2679 54.7562 47.2679 54.7562C47.2679 54.7562 50.2319 55.8482 50.2319 59.4362V56.3162C50.3879 52.7282 47.2679 51.6362 47.2679 51.6362ZM56.6279 51.6362C56.6279 51.6362 53.3519 52.8842 53.3519 56.3162V59.4362C53.3519 55.8482 56.6279 54.7562 56.6279 54.7562C56.6279 54.7562 59.5919 55.8482 59.5919 59.4362V56.3162C59.7479 52.7282 56.6279 51.6362 56.6279 51.6362Z" fill="black"/>
<path d="M50.388 65.6762C49.92 65.6762 49.608 65.3642 49.608 64.8962V56.3162C49.608 53.9762 48.048 52.8842 47.268 52.4162C46.644 52.7282 44.928 53.8202 44.928 56.3162V64.8962C44.928 65.3642 44.616 65.6762 44.148 65.6762C43.68 65.6762 43.368 65.3642 43.368 64.8962V56.3162C43.368 52.2602 46.956 51.0122 47.112 50.8562H47.58C47.736 50.8562 51.168 52.2602 51.168 56.3162V64.8962C51.168 65.3642 50.7 65.6762 50.388 65.6762ZM59.748 65.6762C59.28 65.6762 58.968 65.3642 58.968 64.8962V56.3162C58.968 53.9762 57.408 52.8842 56.628 52.4162C56.004 52.7282 54.288 53.8202 54.288 56.3162V64.8962C54.288 65.3642 53.976 65.6762 53.508 65.6762C53.04 65.6762 52.728 65.3642 52.728 64.8962V56.3162C52.728 52.2602 56.316 51.0122 56.472 50.8562H56.94C57.096 50.8562 60.528 52.2602 60.528 56.3162V64.8962C60.528 65.3642 60.06 65.6762 59.748 65.6762Z" fill="black"/>
<path d="M17.6281 84.3961C16.6921 84.3961 16.0681 85.0201 16.0681 85.9561V88.2961C16.0681 87.3601 16.6921 86.7361 17.6281 86.7361C18.5641 86.7361 19.1881 87.3601 19.1881 88.2961V85.9561C19.1881 85.0201 18.4081 84.3961 17.6281 84.3961ZM17.6281 92.1961C16.6921 92.1961 16.0681 92.8201 16.0681 93.7561V96.0961C16.0681 95.1601 16.6921 94.5361 17.6281 94.5361C18.5641 94.5361 19.1881 95.1601 19.1881 96.0961V93.7561C19.1881 92.8201 18.4081 92.1961 17.6281 92.1961ZM61.3081 68.7961C60.3721 68.7961 59.7481 69.4201 59.7481 70.3561V72.6961C59.7481 71.7601 60.3721 71.1361 61.3081 71.1361C62.2441 71.1361 62.8681 71.7601 62.8681 72.6961V70.3561C62.8681 69.4201 62.0881 68.7961 61.3081 68.7961ZM61.3081 76.5961C60.3721 76.5961 59.7481 77.2201 59.7481 78.1561V80.4961C59.7481 79.5601 60.3721 78.9361 61.3081 78.9361C62.2441 78.9361 62.8681 79.5601 62.8681 80.4961V78.1561C62.8681 77.2201 62.0881 76.5961 61.3081 76.5961ZM61.3081 84.3961C60.3721 84.3961 59.7481 85.0201 59.7481 85.9561V88.2961C59.7481 87.3601 60.3721 86.7361 61.3081 86.7361C62.2441 86.7361 62.8681 87.3601 62.8681 88.2961V85.9561C62.8681 85.0201 62.0881 84.3961 61.3081 84.3961ZM61.3081 92.1961C60.3721 92.1961 59.7481 92.8201 59.7481 93.7561V96.0961C59.7481 95.1601 60.3721 94.5361 61.3081 94.5361C62.2441 94.5361 62.8681 95.1601 62.8681 96.0961V93.7561C62.8681 92.8201 62.0881 92.1961 61.3081 92.1961Z" fill="black"/>
<path d="M19.1881 89.8561H16.0681C15.6001 89.8561 15.2881 89.5441 15.2881 89.0761V85.9561C15.2881 84.7081 16.3801 83.6161 17.6281 83.6161C18.8761 83.6161 19.9681 84.7081 19.9681 85.9561V89.0761C19.9681 89.5441 19.5001 89.8561 19.1881 89.8561ZM16.8481 88.2961H18.4081V85.9561C18.4081 85.4881 18.0961 85.1761 17.6281 85.1761C17.1601 85.1761 16.8481 85.4881 16.8481 85.9561V88.2961ZM19.1881 97.6561H16.0681C15.6001 97.6561 15.2881 97.3441 15.2881 96.8761V93.7561C15.2881 92.5081 16.3801 91.4161 17.6281 91.4161C18.8761 91.4161 19.9681 92.5081 19.9681 93.7561V96.8761C19.9681 97.3441 19.5001 97.6561 19.1881 97.6561ZM16.8481 96.0961H18.4081V93.7561C18.4081 93.2881 18.0961 92.9761 17.6281 92.9761C17.1601 92.9761 16.8481 93.2881 16.8481 93.7561V96.0961ZM62.8681 74.2561H59.7481C59.2801 74.2561 58.9681 73.9441 58.9681 73.4761V70.3561C58.9681 69.1081 60.0601 68.0161 61.3081 68.0161C62.5561 68.0161 63.6481 69.1081 63.6481 70.3561V73.4761C63.6481 73.9441 63.1801 74.2561 62.8681 74.2561ZM60.5281 72.6961H62.0881V70.3561C62.0881 69.8881 61.7761 69.5761 61.3081 69.5761C60.8401 69.5761 60.5281 69.8881 60.5281 70.3561V72.6961ZM62.8681 82.0561H59.7481C59.2801 82.0561 58.9681 81.7441 58.9681 81.2761V78.1561C58.9681 76.9081 60.0601 75.8161 61.3081 75.8161C62.5561 75.8161 63.6481 76.9081 63.6481 78.1561V81.2761C63.6481 81.7441 63.1801 82.0561 62.8681 82.0561ZM60.5281 80.4961H62.0881V78.1561C62.0881 77.6881 61.7761 77.3761 61.3081 77.3761C60.8401 77.3761 60.5281 77.6881 60.5281 78.1561V80.4961ZM62.8681 97.6561H59.7481C59.2801 97.6561 58.9681 97.3441 58.9681 96.8761V93.7561C58.9681 92.5081 60.0601 91.4161 61.3081 91.4161C62.5561 91.4161 63.6481 92.5081 63.6481 93.7561V96.8761C63.6481 97.3441 63.1801 97.6561 62.8681 97.6561ZM60.5281 96.0961H62.0881V93.7561C62.0881 93.2881 61.7761 92.9761 61.3081 92.9761C60.8401 92.9761 60.5281 93.2881 60.5281 93.7561V96.0961ZM62.8681 89.8561H59.7481C59.2801 89.8561 58.9681 89.5441 58.9681 89.0761V85.9561C58.9681 84.7081 60.0601 83.6161 61.3081 83.6161C62.5561 83.6161 63.6481 84.7081 63.6481 85.9561V89.0761C63.6481 89.5441 63.1801 89.8561 62.8681 89.8561ZM60.5281 88.2961H62.0881V85.9561C62.0881 85.4881 61.7761 85.1761 61.3081 85.1761C60.8401 85.1761 60.5281 85.4881 60.5281 85.9561V88.2961Z" fill="black"/>
</g>
<defs>
<clipPath id="clip0_47_8183">
<rect width="78" height="100" fill="white"/>
</clipPath>
</defs>
</svg>
