<svg width="40" height="40" viewBox="0 0 40 40" fill="none" xmlns="http://www.w3.org/2000/svg">
<g clip-path="url(#clip0_47_6631)">
<path d="M21.0938 0C21.5833 0.104167 22.0729 0.1875 22.5521 0.302083C25.8229 1.10417 28.2708 2.98958 29.9167 5.92708C30.0417 6.15625 30.1771 6.25 30.4479 6.26042C35.0521 6.39583 39.1354 9.98958 39.8542 14.5521C40.6667 19.6563 37.7396 24.3229 32.7708 25.8333C32.5417 25.9063 32.4896 25.9896 32.5 26.2083C32.5104 27 32.5104 27.7917 32.5 28.5938C32.5 28.7917 32.5625 28.8854 32.7396 28.9792C33.5417 29.4063 33.9167 30.2396 33.6979 31.0729C33.4792 31.9167 32.7396 32.5 31.875 32.5C31.0313 32.5 30.2917 31.9167 30.0729 31.0938C29.8542 30.25 30.2083 29.4063 31 28.9896C31.1875 28.8958 31.2604 28.8021 31.2604 28.5833C31.25 27.8646 31.25 27.1563 31.2604 26.4375C31.2604 26.25 31.2396 26.1563 31.0104 26.1875C29.5 26.3438 27.9896 26.2292 26.4792 26.25C26.2292 26.25 26.0417 26.3229 25.8542 26.4896C22.4167 29.5313 17.5313 29.5208 14.1042 26.4583C13.9583 26.3333 13.8333 26.25 13.625 26.25C12.1042 26.2604 10.5833 26.2604 9.05208 26.25C8.83333 26.25 8.72917 26.2708 8.73958 26.5313C8.76042 27.2188 8.76042 27.9063 8.73958 28.6042C8.73958 28.8021 8.8125 28.8958 8.97917 28.9792C9.78125 29.4063 10.1458 30.2396 9.92708 31.0833C9.70833 31.9271 8.95833 32.5104 8.10417 32.5C7.26042 32.4896 6.52083 31.9167 6.3125 31.0938C6.09375 30.25 6.45833 29.4063 7.25 28.9896C7.4375 28.8854 7.5 28.7917 7.5 28.5833C7.48958 27.8646 7.48958 27.1563 7.5 26.4375C7.5 26.2292 7.44792 26.1458 7.22917 26.1042C3.41667 25.375 0.677083 22.5417 0.0729167 18.7188C0.0729167 18.6458 0.104167 18.5521 0 18.5208C0 17.8438 0 17.1667 0 16.4896C0.0833333 15.1354 0.552083 13.9063 1.28125 12.7708C2.79167 10.4375 4.94792 9.09375 7.69792 8.72917C7.9375 8.69792 8.1875 8.64583 8.4375 8.65625C8.94792 8.65625 8.94792 8.65625 9.09375 8.14583C9.28125 7.47917 9.52083 6.83333 9.84375 6.21875C11.4583 3.07292 13.9896 1.07292 17.4167 0.197917C17.9063 0.0729167 18.4167 0.09375 18.9167 0.0104167C19.0521 0.0104167 19.1771 0.0104167 19.3125 0.0104167C19.3646 0.0625 19.4167 0.0625 19.4688 0.0104167C19.8854 0.0104167 20.3021 0.0104167 20.7188 0.0104167C20.8021 0.0729167 20.875 0.0729167 20.9583 0.0104167C20.9896 0 21.0417 0 21.0938 0Z" fill="#000935"/>
<path d="M0 33.9896C0.1875 33.5626 0.385417 33.1459 0.78125 32.8542C1.67708 32.2084 2.94792 32.4688 3.47917 33.4376C3.625 33.698 3.78125 33.7605 4.05208 33.7501C5.94792 33.7396 7.85417 33.7396 9.75 33.7396C9.86458 33.7396 9.98958 33.7292 10.1042 33.7501C10.4167 33.823 10.6146 34.0209 10.625 34.3438C10.6354 34.6876 10.4375 34.8959 10.1042 34.9792C9.98958 35.0001 9.875 34.9896 9.75 34.9896C7.83333 34.9896 5.92708 34.9896 4.01042 34.9896C3.77083 34.9896 3.61458 35.0209 3.5 35.2813C3.36458 35.5938 3.11458 35.8542 2.80208 35.9896C2.55208 36.0938 2.5 36.2396 2.5 36.4896C2.51042 37.3959 2.51042 38.3126 2.5 39.2188C2.5 39.7084 2.26042 40.0001 1.875 39.9896C1.48958 39.9896 1.26042 39.698 1.26042 39.2084C1.26042 38.2813 1.26042 37.3646 1.26042 36.4376C1.26042 36.2396 1.23958 36.1146 1.02083 36.0209C0.479167 35.7813 0.21875 35.2813 0 34.7605C0 34.5105 0 34.2501 0 33.9896Z" fill="#000935"/>
<path d="M20.9375 0C20.8542 0.125 20.7813 0.09375 20.6979 0C20.7813 0 20.8646 0 20.9375 0Z" fill="#646A84"/>
<path d="M19.4583 0C19.4062 0.0833333 19.3542 0.09375 19.3021 0C19.3542 0 19.4062 0 19.4583 0Z" fill="#3D4465"/>
<path d="M28 37.5C29.4271 37.5 30.8646 37.5 32.2917 37.5C32.5 37.5 32.625 37.4584 32.7396 37.25C33.1562 36.448 34.0104 36.0938 34.8437 36.323C35.6771 36.5417 36.2604 37.3021 36.2396 38.1667C36.2292 39.0105 35.6458 39.7292 34.8125 39.948C33.9688 40.1667 33.1354 39.7917 32.7188 38.9896C32.6042 38.75 32.4479 38.7605 32.25 38.7605C29.2813 38.7605 26.3125 38.7605 23.3438 38.7709C22.9896 38.7709 22.7292 38.6667 22.4792 38.4167C21.9688 37.875 21.4375 37.3542 20.9062 36.8438C20.6979 36.6355 20.5938 36.4167 20.5938 36.1146C20.6042 34.3438 20.5938 32.573 20.5938 30.8021C20.5938 30.3021 20.8229 30.0209 21.2083 30.0209C21.6042 30.0209 21.8333 30.3021 21.8437 30.7917C21.8437 32.4167 21.8542 34.0417 21.8437 35.6771C21.8437 35.9167 21.9063 36.0834 22.0833 36.25C22.5208 36.6563 22.875 37.25 23.3854 37.4584C23.8854 37.6667 24.5417 37.5105 25.125 37.5105C26.0937 37.5 27.0417 37.5 28 37.5Z" fill="#000935"/>
<path d="M12.2292 38.75C10.7187 38.75 9.20833 38.75 7.69792 38.75C7.47917 38.75 7.36458 38.7917 7.25 39.0104C6.83333 39.8021 5.97917 40.1562 5.13542 39.9375C4.32292 39.7083 3.75 38.9687 3.75 38.125C3.75 37.2604 4.33333 36.5208 5.1875 36.3125C6.01042 36.1042 6.85417 36.4687 7.26042 37.2396C7.36458 37.4479 7.47917 37.5 7.69792 37.5C10.5729 37.4896 13.4479 37.4896 16.3333 37.5C16.5521 37.5 16.6979 37.4271 16.8333 37.2812C17.1875 36.9167 17.5417 36.5521 17.9062 36.2083C18.0729 36.0521 18.125 35.8854 18.125 35.6667C18.1146 34.0937 18.125 32.5208 18.125 30.9375C18.125 30.8333 18.125 30.7292 18.125 30.625C18.1562 30.2604 18.4062 30 18.75 30C19.0937 30 19.375 30.25 19.375 30.6146C19.3854 32.4896 19.375 34.3646 19.375 36.2396C19.375 36.4687 19.2604 36.6354 19.1042 36.7812C18.5417 37.3437 17.9792 37.8958 17.4167 38.4687C17.2187 38.6667 17 38.75 16.7187 38.75C15.2292 38.75 13.7292 38.75 12.2292 38.75Z" fill="#000935"/>
<path d="M33.0833 33.7501C34.0729 33.7501 35.0625 33.7396 36.0521 33.7501C36.2708 33.7501 36.3854 33.6876 36.4896 33.4792C36.8646 32.7605 37.6667 32.3751 38.4167 32.5105C39.2292 32.6563 39.8542 33.2917 39.9792 34.0938C40.1042 34.8542 39.7083 35.6251 38.9896 36.0001C38.7917 36.1042 38.7396 36.2084 38.75 36.4167C38.7604 37.3438 38.7604 38.2605 38.75 39.1876C38.75 39.6876 38.5312 39.9688 38.1354 39.9792C37.7292 39.9896 37.5 39.698 37.5 39.1771C37.5 38.2813 37.4896 37.3855 37.5 36.4792C37.5 36.2396 37.4687 36.0834 37.2083 35.9688C36.8854 35.823 36.625 35.5626 36.4792 35.2292C36.3854 35.0105 36.25 34.9688 36.0312 34.9688C34.0833 34.9792 32.125 34.9688 30.1771 34.9792C29.9792 34.9792 29.7812 34.9792 29.6146 34.8542C29.3958 34.6876 29.3021 34.4584 29.3854 34.198C29.4792 33.8855 29.6979 33.7292 30.0208 33.7292C31.0521 33.7501 32.0729 33.7501 33.0833 33.7501Z" fill="#000935"/>
<path d="M14.375 30.9063C14.375 31.3438 14.3854 31.7917 14.375 32.2292C14.3646 32.4792 14.4167 32.625 14.6771 32.7708C15.5 33.2083 15.8333 34.1979 15.5 35.0521C15.1667 35.9167 14.2396 36.4167 13.3646 36.2083C12.4375 35.9896 11.8125 35.1667 11.8958 34.2292C11.9583 33.5625 12.2813 33.0417 12.8854 32.7396C13.1042 32.625 13.1458 32.5104 13.1458 32.2917C13.1354 31.3646 13.1354 30.4479 13.1458 29.5208C13.1458 29.0312 13.3854 28.75 13.7813 28.75C14.1667 28.75 14.3958 29.0417 14.3958 29.5312C14.375 29.9896 14.375 30.4479 14.375 30.9063Z" fill="#000935"/>
<path d="M26.875 30.8958C26.875 31.1563 26.8854 31.4167 26.875 31.6771C26.8333 32.2188 26.8854 32.6354 27.4479 32.9792C28.1563 33.4167 28.3021 34.3542 27.9688 35.1146C27.6458 35.8542 26.8854 36.3125 26.0938 36.2396C25.2813 36.1667 24.5938 35.5625 24.4167 34.7292C24.25 33.9687 24.625 33.125 25.3438 32.75C25.5833 32.625 25.6458 32.4896 25.6354 32.25C25.625 31.3438 25.625 30.4271 25.6354 29.5208C25.6354 29.0312 25.875 28.75 26.2604 28.75C26.6458 28.75 26.875 29.0417 26.875 29.5313C26.875 29.9896 26.875 30.4479 26.875 30.8958Z" fill="#000935"/>
<path d="M20.9375 1.33328C22.7396 1.44786 24.3542 2.09369 25.8021 3.13536C27.9063 4.64578 29.2396 6.67703 29.7813 9.21869C29.9063 9.80203 30.1667 10.0729 30.5625 9.99994C30.9792 9.91661 31.1458 9.57286 31.0104 8.97911C30.9063 8.51036 30.7708 8.05203 30.6458 7.56244C31.9583 7.64578 33.1771 8.02078 34.3021 8.66661C37.4375 10.4374 39.2292 14.0937 38.6458 17.5312C38.0104 21.2499 35.125 24.2291 31.5 24.8749C31.1458 24.9374 30.7813 24.9999 30.4167 25.0104C29.3542 25.0312 28.2917 25.0208 27.1771 25.0208C28.625 22.8229 29.1042 20.4583 28.4792 17.927C27.9896 15.9374 26.9167 14.3124 25.2813 13.0729C22.0417 10.6041 17.5417 10.7083 14.4167 13.2708C11.4271 15.7187 9.89583 20.6354 12.7813 25.0208C11.8542 25.0208 10.9479 25.0208 10.0417 25.0208C9.10417 25.0208 8.16667 25.0833 7.23959 24.8645C6.89584 24.7916 6.55208 24.7291 6.23958 24.5624C5.4375 24.0729 4.84375 23.3749 4.33333 22.5937C3.375 21.1041 2.91667 19.4687 3.02083 17.6979C3.13542 15.7916 3.82292 14.1145 5.10417 12.677C6.13542 11.5208 7.39583 10.7395 8.86458 10.2604C9.27083 10.1249 9.67708 10.0937 10.0938 10.1562C10.5938 10.1979 11.0521 10.3645 11.5104 10.5416C11.9271 10.6979 12.2292 10.6249 12.4063 10.3437C12.5833 10.0624 12.5104 9.77078 12.1875 9.45828C12.0729 9.31244 12.125 9.16661 12.1667 9.01036C13.1667 5.69786 15.2396 3.33328 18.4271 1.96869C18.875 1.78119 19.3333 1.63536 19.7917 1.49994C20.1667 1.38536 20.5521 1.32286 20.9375 1.33328Z" fill="#D4F0FD"/>
<path d="M12.5 19.9688C12.5104 15.8438 15.8854 12.4896 20.0312 12.5C24.1562 12.5104 27.5104 15.8854 27.5 20.0313C27.4896 24.1563 24.1042 27.5104 19.9687 27.5C15.8437 27.4896 12.4896 24.1146 12.5 19.9688Z" fill="#FEC04F"/>
<path d="M10.0938 10.1458C8.52084 10.25 7.18751 10.9479 6.00001 11.9271C5.18751 12.6041 4.52084 13.4062 4.04167 14.3541C3.60417 15.2396 3.30209 16.1666 3.17709 17.1562C3.02084 18.4375 3.17709 19.6562 3.59376 20.8541C4.10417 22.3437 5.06251 23.5104 6.22917 24.5312C4.45834 23.9375 3.13542 22.7916 2.21876 21.1979C-0.437494 16.5937 2.52084 10.6875 7.80209 10.0521C8.58334 9.96873 9.34376 9.96873 10.0938 10.1458Z" fill="#B3E6FC"/>
<path d="M20.9375 1.33335C20.6667 1.46877 20.3646 1.45835 20.0833 1.52085C18.3854 1.94794 16.8646 2.71877 15.5313 3.87502C13.875 5.3021 12.8229 7.09377 12.2188 9.1771C12.1979 9.26044 12.1979 9.35419 12.1875 9.44794C11.6667 9.26044 11.1458 9.0521 10.5938 8.96877C10.3438 8.9271 10.2917 8.84377 10.375 8.58335C11.4896 4.9271 13.875 2.58335 17.5521 1.57294C18.6458 1.26044 19.7917 1.14585 20.9375 1.33335Z" fill="#B3E6FC"/>
<path d="M7.57292 30.3854C7.68751 30.0729 7.93751 29.9688 8.25001 30.0208C8.53126 30.0729 8.70834 30.2604 8.73959 30.5417C8.77084 30.8333 8.66667 31.0729 8.36459 31.1771C7.88542 31.1667 7.58334 30.8646 7.57292 30.3854Z" fill="#07A7ED"/>
<path d="M31.3229 30.3854C31.4375 30.0729 31.6875 29.9688 32 30.0208C32.2813 30.0729 32.4583 30.2604 32.4896 30.5417C32.5208 30.8333 32.4167 31.0729 32.1146 31.1771C31.6354 31.1667 31.3333 30.8646 31.3229 30.3854Z" fill="#07A7ED"/>
<path d="M7.57292 30.3854C7.6875 30.7916 7.95833 31.0625 8.36458 31.177C8.11458 31.3333 7.88542 31.25 7.69792 31.0729C7.5 30.8854 7.41667 30.6458 7.57292 30.3854Z" fill="#0688C4"/>
<path d="M31.3229 30.3854C31.4375 30.7916 31.7083 31.0625 32.1146 31.177C31.8646 31.3333 31.6354 31.25 31.4479 31.0729C31.25 30.8854 31.1667 30.6458 31.3229 30.3854Z" fill="#0688C4"/>
<path d="M1.32292 34.1354C1.43751 33.8229 1.68751 33.7188 2.00001 33.7708C2.28126 33.8229 2.45834 34.0104 2.48959 34.2917C2.52084 34.5833 2.41667 34.8229 2.11459 34.9271C1.63542 34.9167 1.33334 34.6146 1.32292 34.1354Z" fill="#07A7ED"/>
<path d="M1.32292 34.1354C1.4375 34.5416 1.70833 34.8125 2.11458 34.927C1.86458 35.0833 1.63542 35 1.44792 34.8229C1.25 34.6354 1.16667 34.3958 1.32292 34.1354Z" fill="#0688C4"/>
<path d="M33.8229 37.8854C33.9375 37.5729 34.1875 37.4688 34.5 37.5208C34.7813 37.5729 34.9583 37.7604 34.9896 38.0417C35.0208 38.3333 34.9167 38.5729 34.6146 38.6771C34.1354 38.6667 33.8333 38.3646 33.8229 37.8854Z" fill="#07A7ED"/>
<path d="M33.8229 37.8854C33.9375 38.2916 34.2083 38.5625 34.6146 38.677C34.3646 38.8333 34.1354 38.75 33.9479 38.5729C33.75 38.3854 33.6667 38.1458 33.8229 37.8854Z" fill="#0688C4"/>
<path d="M5.07292 37.8854C5.18751 37.5729 5.43751 37.4688 5.75001 37.5208C6.03126 37.5729 6.20834 37.7604 6.23959 38.0417C6.27084 38.3333 6.16667 38.5729 5.86459 38.6771C5.38542 38.6667 5.08334 38.3646 5.07292 37.8854Z" fill="#07A7ED"/>
<path d="M5.07292 37.8854C5.1875 38.2916 5.45833 38.5625 5.86458 38.677C5.61458 38.8333 5.38542 38.75 5.19792 38.5729C5 38.3854 4.91667 38.1458 5.07292 37.8854Z" fill="#0688C4"/>
<path d="M37.5729 34.1354C37.6875 33.8229 37.9375 33.7188 38.25 33.7708C38.5313 33.8229 38.7083 34.0104 38.7396 34.2917C38.7708 34.5833 38.6667 34.8229 38.3646 34.9271C37.8854 34.9167 37.5833 34.6146 37.5729 34.1354Z" fill="#07A7ED"/>
<path d="M37.5729 34.1354C37.6875 34.5416 37.9583 34.8125 38.3646 34.927C38.1146 35.0833 37.8854 35 37.6979 34.8229C37.5 34.6354 37.4167 34.3958 37.5729 34.1354Z" fill="#0688C4"/>
<path d="M13.1979 34.1354C13.3125 33.8229 13.5625 33.7188 13.875 33.7708C14.1563 33.8229 14.3333 34.0104 14.3646 34.2917C14.3958 34.5833 14.2917 34.8229 13.9896 34.9271C13.5104 34.9167 13.2083 34.6146 13.1979 34.1354Z" fill="#07A7ED"/>
<path d="M13.1979 34.1354C13.3125 34.5416 13.5833 34.8125 13.9896 34.927C13.7396 35.0833 13.5104 35 13.3229 34.8229C13.125 34.6354 13.0417 34.3958 13.1979 34.1354Z" fill="#0688C4"/>
<path d="M25.6979 34.1354C25.8125 33.8229 26.0625 33.7188 26.375 33.7708C26.6563 33.8229 26.8333 34.0104 26.8646 34.2917C26.8958 34.5833 26.7917 34.8229 26.4896 34.9271C26.0104 34.9167 25.7083 34.6146 25.6979 34.1354Z" fill="#07A7ED"/>
<path d="M25.6979 34.1354C25.8125 34.5416 26.0833 34.8125 26.4896 34.927C26.2396 35.0833 26.0104 35 25.8229 34.8229C25.625 34.6354 25.5417 34.3958 25.6979 34.1354Z" fill="#0688C4"/>
<path d="M20.0521 15.0104C21.5625 15.0416 23.0104 15.3541 24.3542 16.0729C24.7917 16.302 24.9479 16.625 24.7604 16.9687C24.5833 17.3125 24.2188 17.3854 23.7813 17.177C21.6146 16.0937 19.3854 15.9687 17.1042 16.7916C16.7708 16.9062 16.4688 17.0729 16.1458 17.2187C15.7604 17.3958 15.4063 17.2916 15.2396 16.9687C15.0729 16.6354 15.2083 16.302 15.5833 16.1041C16.9896 15.3645 18.4792 15.0312 20.0521 15.0104Z" fill="#000935"/>
<path d="M20.0521 22.5C21.0625 22.5209 21.8854 23.3854 21.875 24.4063C21.8646 25.4375 20.9896 26.2709 19.9479 26.25C18.9167 26.2292 18.0938 25.3438 18.125 24.3021C18.1563 23.2917 19.0313 22.4792 20.0521 22.5Z" fill="#000935"/>
<path d="M20.3333 17.5C21.1458 17.5104 22.2083 17.7604 23.2083 18.2917C23.5937 18.4896 23.7292 18.8333 23.5625 19.1562C23.4062 19.4792 23.0312 19.6042 22.6667 19.4167C20.8958 18.5208 19.125 18.5208 17.3542 19.4167C16.9792 19.6042 16.6146 19.4896 16.4583 19.1667C16.2917 18.8333 16.4271 18.5 16.8125 18.2917C17.6979 17.7917 18.9062 17.5 20.3333 17.5Z" fill="#000935"/>
<path d="M22.4271 20.9375C22.4375 21.5521 21.9687 21.8438 21.4896 21.6146C20.8021 21.2813 20.0833 21.1667 19.3333 21.3229C19.0521 21.3854 18.7917 21.4896 18.5312 21.6146C18.1458 21.7917 17.8021 21.6667 17.6458 21.3334C17.4896 21.0104 17.6146 20.6771 17.9792 20.5C19.3437 19.8334 20.7083 19.8438 22.0625 20.5209C22.2917 20.625 22.4167 20.8125 22.4271 20.9375Z" fill="#000935"/>
<path d="M19.4479 24.1354C19.5625 23.8125 19.8125 23.7188 20.125 23.7708C20.3854 23.8125 20.5625 23.9896 20.6146 24.2604C20.6667 24.5625 20.5729 24.8125 20.25 24.9375C19.7604 24.9167 19.4583 24.6146 19.4479 24.1354Z" fill="#845BB0"/>
<path d="M19.4479 24.1354C19.5625 24.5416 19.8333 24.8125 20.2396 24.927C19.9687 25.0833 19.7396 25 19.5521 24.802C19.375 24.6145 19.2917 24.3854 19.4479 24.1354Z" fill="#6D4899"/>
</g>
<defs>
<clipPath id="clip0_47_6631">
<rect width="40" height="40" fill="white"/>
</clipPath>
</defs>
</svg>
