<svg width="124" height="124" viewBox="0 0 124 124" fill="none" xmlns="http://www.w3.org/2000/svg">
<g clip-path="url(#clip0_47_8497)">
<path d="M3 72.2C2.4 72.2 2 71.8 2 71.2V68C2 67.4 2.4 67 3 67C3.6 67 4 67.4 4 68V71.2C4 71.6 3.4 72.2 3 72.2Z" fill="black"/>
<path d="M77 55H47C47 58.4 44.4 61 41 61V75H83V61C79.6 61 77 58.4 77 55Z" fill="#F1F1F2"/>
<path d="M47 59H77V55H47V59Z" fill="#D9D4D8"/>
<path d="M52 55H47C47 58.4 44.4 61 41 61V75H46V61C49.2 61 52 58.4 52 55ZM72 55H77C77 58.4 79.6 61 83 61V75H78V61C74.6 61 72 58.4 72 55Z" fill="#D9D4D8"/>
<path d="M71 69H77V75H71V69ZM120.812 123.1H106.812V71.1H120.812V123.1Z" fill="#F1F1F2"/>
<path d="M117 71H121V123H117V71Z" fill="white"/>
<path d="M3 71H17V123H3V71Z" fill="#F1F1F2"/>
<path d="M13 71H17V123H13V71Z" fill="white"/>
<path d="M106.812 123.1H88.812V89.1001H106.812V123.1Z" fill="#F1F1F2"/>
<path d="M89 89H93V123H89V89ZM103 89H107V123H103V89Z" fill="#D9D4D8"/>
<path d="M53 79H71V123H53V79Z" fill="#F1F1F2"/>
<path d="M53 79H71V83H53V79ZM53 85H71V89H53V85Z" fill="#D9D4D8"/>
<path d="M53 79H57V123H53V79ZM67 79H71V123H67V79Z" fill="#D9D4D8"/>
<path d="M53 123V98C53 93 57 89 62 89C67 89 71 93 71 98V123" fill="#8E7F8B"/>
<path d="M57.8 31V23C57.8 20.8 59.6 19 61.8 19C64 19 65.8 20.8 65.8 23V31M43 75H81V79H43V75Z" fill="#F1F1F2"/>
<path d="M77 75H81V79H77V75ZM43 75H47V79H43V75Z" fill="white"/>
<path d="M43 79V77H35V85H47V79H43Z" fill="#F1F1F2"/>
<path d="M43 79V77H35V81H43V83H47V79H43Z" fill="#D9D4D8"/>
<path d="M39 77H43V79H39V77ZM43 79H47V85H43V79Z" fill="#D9D4D8"/>
<path d="M81 79V77H89V85H77V79H81Z" fill="#F1F1F2"/>
<path d="M81 77V79H77V83H81V81H89V77H81Z" fill="#D9D4D8"/>
<path d="M77 79H81V85H77V79ZM81 77H85V79H81V77Z" fill="#D9D4D8"/>
<path d="M17 81H35V89H17V81ZM89 81H107V89H89V81Z" fill="#F1F1F2"/>
<path d="M31 81H35V89H31V81ZM103 81H107V89H103V81ZM17 81H21V89H17V81ZM89 81H93V89H89V81Z" fill="#D9D4D8"/>
<path d="M47 50V46C47 37.8 53.8 31 62 31C70.2 31 77 37.8 77 46V50" fill="#F1F1F2"/>
<path d="M64 31.2C63.4 31.2 62.6 31 62 31C53.8 31 47 37.8 47 46V50H51V46C51 38.4 56.6 32.2 64 31.2Z" fill="#D9D4D8"/>
<path d="M62 31C61.4 31 60.6 31 60 31.2C67.4 32.2 73 38.4 73 46V50H77V46C77 37.8 70.2 31 62 31Z" fill="white"/>
<path d="M34.8 77.2002V65.2002C34.8 63.0002 36.6 61.2002 38.8 61.2002C41 61.2002 42.8 63.0002 42.8 65.2002V77.2002H34.8ZM47 79.0002H53V123H47V79.0002ZM35 85.0002H41V123H35V85.0002ZM41 85.0002H47V123H41V85.0002Z" fill="#F1F1F2"/>
<path d="M3 71H17V74H3V71ZM3 77H17V80H3V77ZM3 85H17V88H3V85ZM3 103H17V106H3V103ZM107 71H121V74H107V71ZM107 77H121V80H107V77ZM107 85H121V88H107V85ZM107 103H121V106H107V103Z" fill="#D9D4D8"/>
<path d="M17 89H35V123H17V89Z" fill="#F1F1F2"/>
<path d="M17 89H35V93H17V89ZM89 89H107V93H89V89Z" fill="#D9D4D8"/>
<path d="M17 89H21V123H17V89ZM31 89H35V123H31V89Z" fill="#D9D4D8"/>
<path d="M88.812 123.1H82.812V85.1H88.812V123.1ZM43 51H81V55H43V51Z" fill="#F1F1F2"/>
<path d="M43 51H47V55H43V51Z" fill="#D9D4D8"/>
<path d="M77 51H81V55H77V51Z" fill="white"/>
<path d="M47 69H53V75H47V69Z" fill="#F1F1F2"/>
<path d="M50 69H53V75H50V69ZM74 69H77V75H74V69Z" fill="white"/>
<path d="M71 79H77V123H71V79Z" fill="#F1F1F2"/>
<path d="M50 79H53V123H50V79ZM38 85H41V123H38V85ZM86 85H89V123H86V85ZM74 79H77V123H74V79Z" fill="white"/>
<path d="M77 85H83V123H77V85ZM6.80005 71V62C6.80005 60.4 8.20005 59 9.80005 59C11.4 59 12.8 60.4 12.8 62V71H6.80005ZM80.8 77V65C80.8 62.8 82.6001 61 84.8 61C87 61 88.8 62.8 88.8 65V77H80.8Z" fill="#F1F1F2"/>
<path d="M38.8 61C38.2 61 37.8 61.2 37.2 61.2C38.6 61.8 39.8 63.2 39.8 65V77H42.8V65C43 62.8 41.2 61 38.8 61ZM84.8 61C84.2 61 83.8 61.2 83.2 61.2C84.6 61.8 85.8 63.2 85.8 65V77H88.8V65C89 62.8 87.2 61 84.8 61Z" fill="white"/>
<path d="M117 71V62C117 60.4 115.6 59 114 59C112.4 59 111 60.4 111 62V71H117Z" fill="#F1F1F2"/>
<path d="M64 89.2C63.4 89 62.6 89 62 89C57 89 53 93 53 98V123H57V98C57 93.8 59.8 90.2 64 89.2Z" fill="#726571"/>
<path d="M60 89.2C60.6 89 61.4 89 62 89C67 89 71 93 71 98V123H67V98C67 93.8 64 90.2 60 89.2Z" fill="#726571"/>
<path d="M41 113V108C41 106.4 42.4 105 44 105C45.6 105 47 106.4 47 108V113H41ZM41 99V94C41 92.4 42.4 91 44 91C45.6 91 47 92.4 47 94V99H41ZM58.8 65V62C58.8 60.4 60.2 59 61.8 59C63.4 59 64.8 60.4 64.8 62V65M7 89H13V97H7V89ZM83 113V108C83 106.4 81.6 105 80 105C78.4 105 77 106.4 77 108V113H83ZM83 99V94C83 92.4 81.6 91 80 91C78.4 91 77 92.4 77 94V99H83ZM23 107H29V115H23V107ZM23 93H29V101H23V93ZM7 107H13V115H7V107ZM111 89H117V97H111V89ZM95 107H101V115H95V107ZM95 93H101V101H95V93ZM111 107H117V115H111V107Z" fill="#8E7F8B"/>
<path d="M123 124H1C0.4 124 0 123.6 0 123C0 122.4 0.4 122 1 122H123C123.6 122 124 122.4 124 123C124 123.6 123.6 124 123 124ZM71 117C70.4 117 70 116.6 70 116V98C70 93.6 66.4 90 62 90C57.6 90 54 93.6 54 98V116C54 116.6 53.6 117 53 117C52.4 117 52 116.6 52 116V98C52 92.4 56.4 88 62 88C67.6 88 72 92.4 72 98V116C72 116.6 71.4 117 71 117ZM77 51C76.4 51 76 50.6 76 50V46C76 38.2 69.8 32 62 32C54.2 32 48 38.2 48 46V50C48 50.6 47.6 51 47 51C46.4 51 46 50.6 46 50V46C46 37.2 53.2 30 62 30C70.8 30 78 37.2 78 46V50C78 50.6 77.4 51 77 51ZM47 114H41C40.4 114 40 113.6 40 113V108C40 105.8 41.8 104 44 104C46.2 104 48 105.8 48 108V113C48 113.6 47.4 114 47 114ZM42 112H46V108C46 106.8 45.2 106 44 106C42.8 106 42 106.8 42 108V112ZM47 100H41C40.4 100 40 99.6 40 99V94C40 91.8 41.8 90 44 90C46.2 90 48 91.8 48 94V99C48 99.6 47.4 100 47 100ZM42 98H46V94C46 92.8 45.2 92 44 92C42.8 92 42 92.8 42 94V98ZM43 78.2H35C34.4 78.2 34 77.8 34 77.2V65.2C34 62.4 36.2 60.2 39 60.2C41.8 60.2 44 62.4 44 65.2V77.2C44 77.6 43.4 78.2 43 78.2ZM35.8 76.2H41.8V65.2C41.8 63.6 40.4 62.2 38.8 62.2C37.2 62.2 35.8 63.6 35.8 65.2V76.2ZM64.8 66C64.2 66 63.8 65.6 63.8 65V62C63.8 60.8 63 60 61.8 60C60.6 60 59.8 60.8 59.8 62V65C59.8 65.6 59.4 66 58.8 66C58.2 66 57.8 65.6 57.8 65V62C57.8 59.8 59.6 58 61.8 58C64 58 65.8 59.8 65.8 62V65C65.8 65.6 65.4 66 64.8 66Z" fill="black"/>
<path d="M53 124H47C46.4 124 46 123.6 46 123V79C46 78.4 46.4 78 47 78H53C53.6 78 54 78.4 54 79V123C54 123.6 53.4 124 53 124ZM48 122H52V80H48V122ZM41 124H35C34.4 124 34 123.6 34 123V85C34 84.4 34.4 84 35 84H41C41.6 84 42 84.4 42 85V123C42 123.6 41.4 124 41 124ZM36 122H40V86H36V122ZM13 98H7C6.4 98 6 97.6 6 97V89C6 88.4 6.4 88 7 88H13C13.6 88 14 88.4 14 89V97C14 97.6 13.4 98 13 98ZM8 96H12V90H8V96Z" fill="black"/>
<path d="M17 124H3C2.4 124 2 123.6 2 123V71C2 70.4 2.4 70 3 70H17C17.6 70 18 70.4 18 71V123C18 123.6 17.4 124 17 124ZM4 122H16V72H4V122Z" fill="black"/>
<path d="M35 124H17C16.4 124 16 123.6 16 123V89C16 88.4 16.4 88 17 88H35C35.6 88 36 88.4 36 89V123C36 123.6 35.4 124 35 124ZM18 122H34V90H18V122ZM83 114H77C76.4 114 76 113.6 76 113V108C76 105.8 77.8 104 80 104C82.2 104 84 105.8 84 108V113C84 113.6 83.4 114 83 114ZM78 112H82V108C82 106.8 81.2 106 80 106C78.8 106 78 106.8 78 108V112ZM83 100H77C76.4 100 76 99.6 76 99V94C76 91.8 77.8 90 80 90C82.2 90 84 91.8 84 94V99C84 99.6 83.4 100 83 100ZM78 98H82V94C82 92.8 81.2 92 80 92C78.8 92 78 92.8 78 94V98Z" fill="black"/>
<path d="M89 124H83C82.4 124 82 123.6 82 123V85C82 84.4 82.4 84 83 84H89C89.6 84 90 84.4 90 85V123C90 123.6 89.4 124 89 124ZM84 122H88V86H84V122ZM81 80H43C42.4 80 42 79.6 42 79V75C42 74.4 42.4 74 43 74H81C81.6 74 82 74.4 82 75V79C82 79.6 81.4 80 81 80ZM44 78H80V76H44V78ZM81 56H43C42.4 56 42 55.6 42 55V51C42 50.4 42.4 50 43 50H81C81.6 50 82 50.4 82 51V55C82 55.6 81.4 56 81 56ZM44 54H80V52H44V54Z" fill="black"/>
<path d="M53 76H47C46.4 76 46 75.6 46 75V69C46 68.4 46.4 68 47 68H53C53.6 68 54 68.4 54 69V75C54 75.6 53.4 76 53 76ZM48 74H52V70H48V74ZM67 70H57C56.4 70 56 69.6 56 69V65C56 64.4 56.4 64 57 64H67C67.6 64 68 64.4 68 65V69C68 69.6 67.4 70 67 70ZM58 68H66V66H58V68ZM77 76H71C70.4 76 70 75.6 70 75V69C70 68.4 70.4 68 71 68H77C77.6 68 78 68.4 78 69V75C78 75.6 77.4 76 77 76ZM72 74H76V70H72V74ZM77 124H71C70.4 124 70 123.6 70 123V79C70 78.4 70.4 78 71 78H77C77.6 78 78 78.4 78 79V123C78 123.6 77.4 124 77 124ZM72 122H76V80H72V122Z" fill="black"/>
<path d="M77 70H47C46.4 70 46 69.6 46 69C46 68.4 46.4 68 47 68H77C77.6 68 78 68.4 78 69C78 69.6 77.4 70 77 70ZM75 66H49C48.4 66 48 65.6 48 65C48 64.4 48.4 64 49 64H75C75.6 64 76 64.4 76 65C76 65.6 75.4 66 75 66ZM43 78H33C32.4 78 32 77.6 32 77C32 76.4 32.4 76 33 76H43C43.6 76 44 76.4 44 77C44 77.6 43.4 78 43 78ZM67 86H33C32.4 86 32 85.6 32 85C32 84.4 32.4 84 33 84H67C67.6 84 68 84.4 68 85C68 85.6 67.4 86 67 86Z" fill="black"/>
<path d="M91 86H57C56.4 86 56 85.6 56 85C56 84.4 56.4 84 57 84H91C91.6 84 92 84.4 92 85C92 85.6 91.4 86 91 86ZM125 124H-1C-1.6 124 -2 123.6 -2 123C-2 122.4 -1.6 122 -1 122H125C125.6 122 126 122.4 126 123C126 123.6 125.4 124 125 124ZM47 86H35C34.4 86 34 85.6 34 85V77C34 76.4 34.4 76 35 76H43C43.6 76 44 76.4 44 77V78H47C47.6 78 48 78.4 48 79V85C48 85.6 47.4 86 47 86ZM36 84H46V80H43C42.4 80 42 79.6 42 79V78H36V84ZM91 78H81C80.4 78 80 77.6 80 77C80 76.4 80.4 76 81 76H91C91.6 76 92 76.4 92 77C92 77.6 91.4 78 91 78Z" fill="black"/>
<path d="M89 86H77C76.4 86 76 85.6 76 85V79C76 78.4 76.4 78 77 78H80V77C80 76.4 80.4 76 81 76H89C89.6 76 90 76.4 90 77V85C90 85.6 89.4 86 89 86ZM78 84H88V78H82V79C82 79.6 81.6 80 81 80H78V84ZM39 77C38.4 77 38 76.6 38 76V71.2C38 70.6 38.4 70.2 39 70.2C39.6 70.2 40 70.6 40 71.2V76C40 76.4 39.4 77 39 77ZM39 61.2C38.4 61.2 38 60.8 38 60.2V57C38 56.4 38.4 56 39 56C39.6 56 40 56.4 40 57V60.2C40 60.8 39.4 61.2 39 61.2ZM44.8 66H32.8C32.2001 66 31.8 65.6 31.8 65C31.8 64.4 32.2001 64 32.8 64H44.8C45.4 64 45.8 64.4 45.8 65C45.8 65.6 45.4 66 44.8 66ZM12.8 72H6.80005C6.20005 72 5.80005 71.6 5.80005 71V62C5.80005 59.8 7.60005 58 9.80005 58C12 58 13.8 59.8 13.8 62V71C13.8 71.6 13.4 72 12.8 72ZM7.80005 70H11.8V62C11.8 60.8 11 60 9.80005 60C8.60005 60 7.80005 60.8 7.80005 62V70Z" fill="black"/>
<path d="M10 59.2C9.4 59.2 9 58.8 9 58.2V55C9 54.4 9.4 54 10 54C10.6 54 11 54.4 11 55V58.2C11 58.8 10.4 59.2 10 59.2ZM17 73.2C16.4 73.2 16 72.8 16 72.2V69C16 68.4 16.4 68 17 68C17.6 68 18 68.4 18 69V72.2C18 72.8 17.4 73.2 17 73.2ZM15 64H5C4.4 64 4 63.6 4 63C4 62.4 4.4 62 5 62H15C15.6 62 16 62.4 16 63C16 63.6 15.4 64 15 64ZM19 78H1C0.4 78 0 77.6 0 77C0 76.4 0.4 76 1 76H19C19.6 76 20 76.4 20 77C20 77.6 19.4 78 19 78ZM19 86H1C0.4 86 0 85.6 0 85C0 84.4 0.4 84 1 84H19C19.6 84 20 84.4 20 85C20 85.6 19.4 86 19 86ZM13 94H7C6.4 94 6 93.6 6 93C6 92.4 6.4 92 7 92H13C13.6 92 14 92.4 14 93C14 93.6 13.4 94 13 94ZM29 116H23C22.4 116 22 115.6 22 115V107C22 106.4 22.4 106 23 106H29C29.6 106 30 106.4 30 107V115C30 115.6 29.4 116 29 116ZM24 114H28V108H24V114Z" fill="black"/>
<path d="M28 112H23C22.4 112 22 111.6 22 111C22 110.4 22.4 110 23 110H28C28.6 110 29 110.4 29 111C29 111.6 28.4 112 28 112ZM29 102H23C22.4 102 22 101.6 22 101V93C22 92.4 22.4 92 23 92H29C29.6 92 30 92.4 30 93V101C30 101.6 29.4 102 29 102ZM24 100H28V94H24V100Z" fill="black"/>
<path d="M28 98H23C22.4 98 22 97.6 22 97C22 96.4 22.4 96 23 96H28C28.6 96 29 96.4 29 97C29 97.6 28.4 98 28 98ZM13 116H7C6.4 116 6 115.6 6 115V107C6 106.4 6.4 106 7 106H13C13.6 106 14 106.4 14 107V115C14 115.6 13.4 116 13 116ZM8 114H12V108H8V114ZM35 90H17C16.4 90 16 89.6 16 89V81C16 80.4 16.4 80 17 80H35C35.6 80 36 80.4 36 81V89C36 89.6 35.4 90 35 90ZM18 88H34V82H18V88ZM19 104H1C0.4 104 0 103.6 0 103C0 102.4 0.4 102 1 102H19C19.6 102 20 102.4 20 103C20 103.6 19.4 104 19 104ZM78.8 46H44.8C44.2 46 43.8 45.6 43.8 45C43.8 44.4 44.2 44 44.8 44H78.8C79.4 44 79.8 44.4 79.8 45C79.8 45.6 79.4 46 78.8 46ZM66 32C65.4 32 65 31.6 65 31V23C65 21.4 63.6 20 62 20C60.4 20 59 21.4 59 23V31C59 31.6 58.6 32 58 32C57.4 32 57 31.6 57 31V23C57 20.2 59.2 18 62 18C64.8 18 67 20.2 67 23V31C67 31.6 66.4 32 66 32Z" fill="black"/>
<path d="M62 31C61.4 31 61 30.6 61 30V27.2C61 26.6 61.4 26.2 62 26.2C62.6 26.2 63 26.6 63 27.2V30C63 30.4 62.4 31 62 31ZM51 51C50.4 51 50 50.6 50 50V46C50 45.4 50.4 45 51 45C51.6 45 52 45.4 52 46V50C52 50.6 51.4 51 51 51ZM57 51C56.4 51 56 50.6 56 50V46C56 45.4 56.4 45 57 45C57.6 45 58 45.4 58 46V50C58 50.6 57.4 51 57 51ZM51 65C50.4 65 50 64.6 50 64V56C50 55.4 50.4 55 51 55C51.6 55 52 55.4 52 56V64C52 64.6 51.4 65 51 65ZM55 65C54.4 65 54 64.6 54 64V56C54 55.4 54.4 55 55 55C55.6 55 56 55.4 56 56V64C56 64.6 55.4 65 55 65ZM69 65C68.4 65 68 64.6 68 64V56C68 55.4 68.4 55 69 55C69.6 55 70 55.4 70 56V64C70 64.6 69.4 65 69 65ZM73 65C72.4 65 72 64.6 72 64V56C72 55.4 72.4 55 73 55C73.6 55 74 55.4 74 56V64C74 64.6 73.4 65 73 65ZM67 51C66.4 51 66 50.6 66 50V46C66 45.4 66.4 45 67 45C67.6 45 68 45.4 68 46V50C68 50.6 67.4 51 67 51ZM73 51C72.4 51 72 50.6 72 50V46C72 45.4 72.4 45 73 45C73.6 45 74 45.4 74 46V50C74 50.6 73.4 51 73 51ZM62 19.2C61.4 19.2 61 18.8 61 18.2V11C61 10.4 61.4 10 62 10C62.6 10 63 10.4 63 11V18.2C63 18.8 62.4 19.2 62 19.2ZM67.8 24H55.8C55.2 24 54.8 23.6 54.8 23C54.8 22.4 55.4 22 56 22H68C68.6 22 69 22.4 69 23C69 23.6 68.4 24 67.8 24ZM89 78H81C80.4 78 80 77.6 80 77V65C80 62.2 82.2 60 85 60C87.8 60 90 62.2 90 65V77C90 77.6 89.4 78 89 78ZM81.8 76H87.8V65C87.8 63.4 86.4 62 84.8 62C83.2 62 81.8 63.4 81.8 65V76Z" fill="black"/>
<path d="M85 77C84.4 77 84 76.6 84 76V71.2C84 70.6 84.4 70.2 85 70.2C85.6 70.2 86 70.6 86 71.2V76C86 76.4 85.4 77 85 77ZM85 61.2C84.4 61.2 84 60.8 84 60.2V57C84 56.4 84.4 56 85 56C85.6 56 86 56.4 86 57V60.2C86 60.8 85.4 61.2 85 61.2ZM90.8 66H78.8C78.2 66 77.8 65.6 77.8 65C77.8 64.4 78.2 64 78.8 64H90.8C91.4 64 91.8 64.4 91.8 65C91.8 65.6 91.4 66 90.8 66ZM61.8 49C61.2 49 60.8 48.6 60.8 48C60.8 47.4 61.2 47 61.8 47C62.4 47 62.8 47.4 62.8 48C62.8 48.6 62.4 49 61.8 49ZM41 62C40.4 62 40 61.6 40 61C40 60.4 40.4 60 41 60C43.8 60 46 57.8 46 55C46 54.4 46.4 54 47 54C47.6 54 48 54.4 48 55C48 59 44.8 62 41 62Z" fill="black"/>
<path d="M41 62H40C39.4 62 39 61.6 39 61C39 60.4 39.4 60 40 60H41C41.6 60 42 60.4 42 61C42 61.6 41.4 62 41 62ZM83 62C79.2 62 76 58.8 76 55C76 54.4 76.4 54 77 54C77.6 54 78 54.4 78 55C78 57.8 80.2 60 83 60C83.6 60 84 60.4 84 61C84 61.6 83.4 62 83 62Z" fill="black"/>
<path d="M84 62H83C82.4 62 82 61.6 82 61C82 60.4 82.4 60 83 60H84C84.6 60 85 60.4 85 61C85 61.6 84.4 62 84 62Z" fill="black"/>
<path d="M10 82C10.5523 82 11 81.5523 11 81C11 80.4477 10.5523 80 10 80C9.44772 80 9 80.4477 9 81C9 81.5523 9.44772 82 10 82Z" fill="black"/>
<path d="M117 98H111C110.4 98 110 97.6 110 97V89C110 88.4 110.4 88 111 88H117C117.6 88 118 88.4 118 89V97C118 97.6 117.4 98 117 98ZM112 96H116V90H112V96Z" fill="black"/>
<path d="M121 124H107C106.4 124 106 123.6 106 123V71C106 70.4 106.4 70 107 70H121C121.6 70 122 70.4 122 71V123C122 123.6 121.4 124 121 124ZM108 122H120V72H108V122Z" fill="black"/>
<path d="M107 124H89C88.4 124 88 123.6 88 123V89C88 88.4 88.4 88 89 88H107C107.6 88 108 88.4 108 89V123C108 123.6 107.4 124 107 124ZM90 122H106V90H90V122ZM117 72H111C110.4 72 110 71.6 110 71V62C110 59.8 111.8 58 114 58C116.2 58 118 59.8 118 62V71C118 71.6 117.4 72 117 72ZM112 70H116V62C116 60.8 115.2 60 114 60C112.8 60 112 60.8 112 62V70Z" fill="black"/>
<path d="M114 59.2C113.4 59.2 113 58.8 113 58.2V55C113 54.4 113.4 54 114 54C114.6 54 115 54.4 115 55V58.2C115 58.8 114.4 59.2 114 59.2ZM121 73.2C120.4 73.2 120 72.8 120 72.2V69C120 68.4 120.4 68 121 68C121.6 68 122 68.4 122 69V72.2C122 72.8 121.4 73.2 121 73.2ZM107 73.2C106.4 73.2 106 72.8 106 72.2V69C106 68.4 106.4 68 107 68C107.6 68 108 68.4 108 69V72.2C108 72.8 107.4 73.2 107 73.2ZM119 64H109C108.4 64 108 63.6 108 63C108 62.4 108.4 62 109 62H119C119.6 62 120 62.4 120 63C120 63.6 119.4 64 119 64ZM123 78H105C104.4 78 104 77.6 104 77C104 76.4 104.4 76 105 76H123C123.6 76 124 76.4 124 77C124 77.6 123.4 78 123 78ZM123 86H105C104.4 86 104 85.6 104 85C104 84.4 104.4 84 105 84H123C123.6 84 124 84.4 124 85C124 85.6 123.4 86 123 86ZM117 94H111C110.4 94 110 93.6 110 93C110 92.4 110.4 92 111 92H117C117.6 92 118 92.4 118 93C118 93.6 117.4 94 117 94ZM101 116H95C94.4 116 94 115.6 94 115V107C94 106.4 94.4 106 95 106H101C101.6 106 102 106.4 102 107V115C102 115.6 101.4 116 101 116ZM96 114H100V108H96V114Z" fill="black"/>
<path d="M101 112H96C95.4 112 95 111.6 95 111C95 110.4 95.4 110 96 110H101C101.6 110 102 110.4 102 111C102 111.6 101.4 112 101 112ZM101 102H95C94.4 102 94 101.6 94 101V93C94 92.4 94.4 92 95 92H101C101.6 92 102 92.4 102 93V101C102 101.6 101.4 102 101 102ZM96 100H100V94H96V100Z" fill="black"/>
<path d="M101 98H96C95.4 98 95 97.6 95 97C95 96.4 95.4 96 96 96H101C101.6 96 102 96.4 102 97C102 97.6 101.4 98 101 98ZM117 116H111C110.4 116 110 115.6 110 115V107C110 106.4 110.4 106 111 106H117C117.6 106 118 106.4 118 107V115C118 115.6 117.4 116 117 116ZM112 114H116V108H112V114ZM107 90H89C88.4 90 88 89.6 88 89V81C88 80.4 88.4 80 89 80H107C107.6 80 108 80.4 108 81V89C108 89.6 107.4 90 107 90ZM90 88H106V82H90V88ZM123 104H105C104.4 104 104 103.6 104 103C104 102.4 104.4 102 105 102H123C123.6 102 124 102.4 124 103C124 103.6 123.4 104 123 104Z" fill="black"/>
<path d="M114 82C114.552 82 115 81.5523 115 81C115 80.4477 114.552 80 114 80C113.448 80 113 80.4477 113 81C113 81.5523 113.448 82 114 82Z" fill="black"/>
</g>
<defs>
<clipPath id="clip0_47_8497">
<rect width="124" height="124" fill="white"/>
</clipPath>
</defs>
</svg>
