<svg width="32" height="28" viewBox="0 0 32 28" fill="none" xmlns="http://www.w3.org/2000/svg">
<path d="M32 18.6831C31.8751 18.6831 31.7503 18.6914 31.6254 18.6914C21.2196 18.6914 10.8137 18.6914 0.407907 18.6831C0.0998955 18.6831 0 18.749 0.0249729 19.0617C0.0582714 19.498 0.0249729 19.9424 0.0332985 20.3868C0.0499477 21.4568 0.849117 22.3045 1.923 22.3951C2.08949 22.4115 2.25598 22.4115 2.42248 22.4115C11.3881 22.4115 20.3621 22.4033 29.3278 22.428C30.6264 22.428 31.5754 22.0659 32 20.7737C32 20.0823 32 19.3827 32 18.6831Z" fill="#049304"/>
<path d="M0.00832558 2.04938C0.00832558 1.68724 0.066597 1.34156 0.274714 1.02058C0.732569 0.304527 1.41519 0 2.24766 0C5.36941 0 8.49116 0 11.6129 0C17.6566 0 23.7003 0 29.744 0C30.9927 0 31.7752 0.617284 32 1.76955C32 6.79012 32 11.8107 32 16.8313C31.8085 16.9794 31.5838 16.93 31.3673 16.93C21.1446 16.93 10.9136 16.93 0.690947 16.93C0.566076 16.93 0.441206 16.93 0.316336 16.9218C0.0832462 16.9218 0 16.823 0 16.5761C0.00832558 11.7366 0 6.88889 0.00832558 2.04938ZM20.3788 12.6255C20.77 12.9959 21.3361 12.963 21.7607 12.5432C22.5515 11.7695 23.334 10.9959 24.1249 10.214C24.5994 9.74485 24.5994 9.22634 24.1249 8.7572C23.334 7.96708 22.5349 7.19342 21.744 6.40329C21.5442 6.20576 21.3195 6.0823 21.0281 6.0823C20.6452 6.0823 20.3122 6.2963 20.1707 6.64197C20.0125 7.02058 20.0874 7.37449 20.3704 7.66255C20.9199 8.21399 21.4693 8.7572 22.0271 9.29218C22.1852 9.44033 22.1935 9.52263 22.0271 9.67078C21.486 10.1811 20.9615 10.7078 20.437 11.2346C19.9958 11.679 19.9709 12.2387 20.3788 12.6255ZM13.9688 7.50617C14.7763 9.10288 15.5838 10.6996 16.3913 12.2881C16.5744 12.6502 16.8491 12.8642 17.1655 12.8807C17.9729 12.8889 18.4142 12.1811 18.0895 11.5309C17.7149 10.7572 17.3153 9.99177 16.924 9.21811C16.4995 8.3786 16.0666 7.53086 15.642 6.69136C15.359 6.13992 14.8262 5.93416 14.3267 6.18107C13.8522 6.41975 13.7024 6.97119 13.9688 7.50617ZM7.85848 10.1646C8.6743 10.9877 9.49844 11.7942 10.3309 12.6008C10.7222 12.9794 11.3049 12.9794 11.6712 12.6091C12.0375 12.2387 12.0375 11.679 11.6379 11.284C11.1217 10.7654 10.6056 10.2387 10.0645 9.74486C9.81478 9.52263 9.86473 9.40741 10.0812 9.20988C10.6223 8.69959 11.155 8.17284 11.6712 7.64609C11.9542 7.35802 12.0208 7.00411 11.846 6.62551C11.6878 6.2716 11.3965 6.107 11.0968 6.09053C10.7471 6.0823 10.5224 6.18107 10.3309 6.36214C9.49844 7.18518 8.66597 8 7.84183 8.82304C7.45057 9.21811 7.45057 9.75309 7.85848 10.1646Z" fill="#049304"/>
<path d="M16.0499 28C18.514 28 20.9781 28 23.4422 28C23.9584 28 24.3413 27.7284 24.4412 27.2922C24.5744 26.7078 24.1581 26.1646 23.5421 26.1564C22.9594 26.1481 22.3767 26.1399 21.7939 26.1564C21.5858 26.1646 21.5026 26.0823 21.4526 25.9012C21.3028 25.4321 21.1363 24.9712 20.9948 24.5021C20.9448 24.3457 20.8866 24.2716 20.6951 24.2716C17.5733 24.2798 14.4516 24.2798 11.3382 24.2716C11.1717 24.2716 11.1051 24.321 11.0551 24.4774C10.9053 24.963 10.7305 25.4486 10.5723 25.9424C10.5224 26.107 10.4474 26.1646 10.2643 26.1564C9.72318 26.1399 9.18208 26.1482 8.64098 26.1482C7.98333 26.1482 7.55877 26.5185 7.56709 27.0782C7.57542 27.6379 7.99998 28 8.66595 28C11.1217 28 13.5858 28 16.0499 28Z" fill="#049304"/>
</svg>
