<svg width="137" height="115" viewBox="0 0 137 115" fill="none" xmlns="http://www.w3.org/2000/svg">
<path d="M15.5967 48.7184V34.082H129.412V48.7184" fill="#FED6B1"/>
<path d="M70.3967 44.5364H66.1813V40.3546C66.1813 39.1 67.0244 38.2637 68.289 38.2637C69.5537 38.2637 70.3967 39.1 70.3967 40.3546V44.5364ZM45.1044 44.5364H40.889V40.3546C40.889 39.1 41.7321 38.2637 42.9967 38.2637C44.2613 38.2637 45.1044 39.1 45.1044 40.3546V44.5364Z" fill="#8E7F8B"/>
<path d="M15.5967 54.991V107.264H129.412V54.991H15.5967ZM45.1044 106.636H32.4583V88.4455C32.4583 85.5182 33.9337 83.0091 36.2521 81.3364L38.7814 79.8728L41.0998 81.3364C43.6291 82.8001 45.1044 85.5182 45.1044 88.4455V106.636ZM78.8275 106.636H66.1814V88.4455C66.1814 85.5182 67.6567 83.0091 69.9752 81.3364L72.5044 79.8728L74.8229 81.3364C77.3521 82.8001 78.8275 85.5182 78.8275 88.4455V106.636ZM112.551 106.636H99.9044V88.4455C99.9044 85.5182 101.38 83.0091 103.698 81.3364L106.228 79.8728L108.546 81.3364C111.075 82.8001 112.551 85.5182 112.551 88.4455V106.636Z" fill="#FED6B1"/>
<path d="M104.12 69.6273H99.9044V63.3546C99.9044 62.1 100.747 61.2637 102.012 61.2637C103.277 61.2637 104.12 62.1 104.12 63.3546V69.6273Z" fill="#8E7F8B"/>
<path d="M127.077 21.344V33.8895H118.646V21.344H127.077ZM26.0091 21.4527V33.9982H17.5784V21.4527H26.0091Z" fill="#FED6B1"/>
<path d="M17.7044 21.5364H20.8659V34.0818H17.7044V21.5364Z" fill="#F7BD96"/>
<path d="M62.8093 34.0821V30.7366C62.8093 29.273 63.4416 28.0184 64.7063 27.1821L65.9709 26.3457L67.2355 27.1821C68.5001 28.0184 69.1324 29.273 69.1324 30.7366V34.0821M75.4555 34.0821V30.7366C75.4555 29.273 76.0878 28.0184 77.3524 27.1821L78.617 26.3457L79.8816 27.1821C81.1463 28.0184 81.7786 29.273 81.7786 30.7366V34.0821" fill="#FED6B1"/>
<path d="M62.8093 33.6637V24.2546C62.8093 22.3728 64.0739 20.7001 65.9709 20.491H78.8278C80.7247 20.9091 81.9893 22.5819 81.9893 24.4637V33.8728" fill="#FED6B1"/>
<path d="M69.1321 34.0821V30.7366C69.1321 29.273 69.7644 28.0184 71.029 27.1821L72.2937 26.3457L73.5583 27.1821C74.8229 28.0184 75.4552 29.273 75.4552 30.7366V34.0821M87.2583 34.0821V30.7366C87.2583 29.273 87.8906 28.0184 89.1552 27.1821L90.4198 26.3457L91.6844 27.1821C92.949 28.0184 93.5813 29.273 93.5813 30.7366V34.0821M93.5813 34.0821V30.7366C93.5813 29.273 94.2137 28.0184 95.4783 27.1821L96.7429 26.3457L98.0075 27.1821C99.2721 28.0184 99.9044 29.273 99.9044 30.7366V34.0821M99.9044 34.0821V30.7366C99.9044 29.273 100.537 28.0184 101.801 27.1821L103.066 26.3457L104.331 27.1821C105.595 28.0184 106.228 29.273 106.228 30.7366V34.0821M106.228 34.0821V30.7366C106.228 29.273 106.86 28.0184 108.124 27.1821L109.389 26.3457L110.654 27.1821C111.918 28.0184 112.551 29.273 112.551 30.7366V34.0821M112.551 34.0821V30.7366C112.551 29.273 113.183 28.0184 114.448 27.1821L115.712 26.3457L116.977 27.1821C118.241 28.0184 118.874 29.273 118.874 30.7366V34.0821M11.3813 48.7184H133.627V54.9912H11.3813V48.7184Z" fill="#FED6B1"/>
<path d="M11.3813 48.7184H15.5967V54.9911H11.3813V48.7184ZM15.5967 34.082H19.8121V48.7184H15.5967V34.082Z" fill="#F7BD96"/>
<path d="M125.197 54.9911H129.412V107.264H125.197V54.9911ZM112.551 54.9911H116.766V107.264H112.551V54.9911ZM91.4737 54.9911H95.6891V107.264H91.4737V54.9911ZM78.8275 54.9911H83.0429V107.264H78.8275V54.9911ZM57.7506 54.9911H61.966V107.264H57.7506V54.9911ZM45.1044 54.9911H49.3198V107.264H45.1044V54.9911ZM24.0275 54.9911H28.2429V107.264H24.0275V54.9911ZM15.5967 34.082H129.412V38.2638H15.5967V34.082Z" fill="#F6E8D9"/>
<path d="M125.197 34.082H129.412V48.7184H125.197V34.082Z" fill="#F6E8D9"/>
<path d="M15.5967 54.991H129.412V59.1728H15.5967V54.991ZM28.2429 73.8092H116.766V77.991H28.2429V73.8092Z" fill="#F7BD96"/>
<path d="M15.5967 54.991H19.8121V107.264H15.5967V54.991ZM28.2429 54.991H32.4583V107.264H28.2429V54.991ZM49.3198 54.991H53.5352V107.264H49.3198V54.991ZM61.966 54.991H66.1814V107.264H61.966V54.991ZM83.0429 54.991H87.2583V107.264H83.0429V54.991ZM95.689 54.991H99.9044V107.264H95.689V54.991ZM116.766 54.991H120.981V107.264H116.766V54.991Z" fill="#F7BD96"/>
<path d="M57.7506 100.991H53.5352V94.7184C53.5352 93.4638 54.3783 92.6274 55.6429 92.6274C56.9075 92.6274 57.7506 93.4638 57.7506 94.7184V100.991ZM24.0275 100.991H19.8121V94.7184C19.8121 93.4638 20.6552 92.6274 21.9198 92.6274C23.1844 92.6274 24.0275 93.4638 24.0275 94.7184V100.991Z" fill="#8E7F8B"/>
<path d="M21.9198 92.6274C20.6552 92.6274 19.8121 93.4638 19.8121 94.7184V97.8547C19.8121 96.6002 20.6552 95.7638 21.9198 95.7638C23.1844 95.7638 24.0275 96.6002 24.0275 97.8547V94.7184C24.0275 93.4638 22.9737 92.6274 21.9198 92.6274Z" fill="#726571"/>
<path d="M125.197 100.991H120.981V94.7182C120.981 93.4637 121.824 92.6273 123.089 92.6273C124.354 92.6273 125.197 93.4637 125.197 94.7182V100.991ZM91.4737 100.991H87.2583V94.7182C87.2583 93.4637 88.1014 92.6273 89.366 92.6273C90.6306 92.6273 91.4737 93.4637 91.4737 94.7182V100.991ZM57.7506 86.3546H53.5352V80.0819C53.5352 78.8273 54.3783 77.991 55.6429 77.991C56.9075 77.991 57.7506 78.8273 57.7506 80.0819V86.3546ZM24.0275 86.3546H19.8121V80.0819C19.8121 78.8273 20.6552 77.991 21.9198 77.991C23.1844 77.991 24.0275 78.8273 24.0275 80.0819V86.3546ZM125.197 86.3546H120.981V80.0819C120.981 78.8273 121.824 77.991 123.089 77.991C124.354 77.991 125.197 78.8273 125.197 80.0819V86.3546ZM91.4737 86.3546H87.2583V80.0819C87.2583 78.8273 88.1014 77.991 89.366 77.991C90.6306 77.991 91.4737 78.8273 91.4737 80.0819V86.3546ZM57.7506 69.6273H53.5352V63.3546C53.5352 62.1 54.3783 61.2637 55.6429 61.2637C56.9075 61.2637 57.7506 62.1 57.7506 63.3546V69.6273ZM24.0275 69.6273H19.8121V63.3546C19.8121 62.1 20.6552 61.2637 21.9198 61.2637C23.1844 61.2637 24.0275 62.1 24.0275 63.3546V69.6273ZM36.6737 69.6273H32.4583V63.3546C32.4583 62.1 33.3014 61.2637 34.566 61.2637C35.8306 61.2637 36.6737 62.1 36.6737 63.3546V69.6273ZM45.1044 69.6273H40.8891V63.3546C40.8891 62.1 41.7321 61.2637 42.9968 61.2637C44.2614 61.2637 45.1044 62.1 45.1044 63.3546V69.6273ZM24.0275 44.5364H19.8121V40.3546C19.8121 39.1 20.6552 38.2637 21.9198 38.2637C23.1844 38.2637 24.0275 39.1 24.0275 40.3546V44.5364Z" fill="#8E7F8B"/>
<path d="M21.9198 38.2637C20.6552 38.2637 19.8121 39.1 19.8121 40.3546V43.4909C19.8121 42.2364 20.6552 41.4 21.9198 41.4C23.1844 41.4 24.0275 42.2364 24.0275 43.4909V40.3546C24.0275 39.1 22.9737 38.2637 21.9198 38.2637Z" fill="#726571"/>
<path d="M36.6736 44.5364H32.4583V40.3546C32.4583 39.1 33.3013 38.2637 34.5659 38.2637C35.8306 38.2637 36.6736 39.1 36.6736 40.3546V44.5364ZM57.7506 44.5364H53.5352V40.3546C53.5352 39.1 54.3783 38.2637 55.6429 38.2637C56.9075 38.2637 57.7506 39.1 57.7506 40.3546V44.5364ZM78.8275 44.5364H74.6121V40.3546C74.6121 39.1 75.4552 38.2637 76.7198 38.2637C77.9844 38.2637 78.8275 39.1 78.8275 40.3546V44.5364ZM91.4736 44.5364H87.2583V40.3546C87.2583 39.1 88.1013 38.2637 89.366 38.2637C90.6306 38.2637 91.4736 39.1 91.4736 40.3546V44.5364ZM112.551 44.5364H108.335V40.3546C108.335 39.1 109.178 38.2637 110.443 38.2637C111.707 38.2637 112.551 39.1 112.551 40.3546V44.5364ZM125.197 44.5364H120.981V40.3546C120.981 39.1 121.824 38.2637 123.089 38.2637C124.354 38.2637 125.197 39.1 125.197 40.3546V44.5364ZM104.12 44.5364H99.9044V40.3546C99.9044 39.1 100.747 38.2637 102.012 38.2637C103.277 38.2637 104.12 39.1 104.12 40.3546V44.5364ZM70.3967 69.6273H66.1813V63.3546C66.1813 62.1 67.0244 61.2637 68.289 61.2637C69.5536 61.2637 70.3967 62.1 70.3967 63.3546V69.6273ZM78.8275 69.6273H74.6121V63.3546C74.6121 62.1 75.4552 61.2637 76.7198 61.2637C77.9844 61.2637 78.8275 62.1 78.8275 63.3546V69.6273ZM112.551 69.6273H108.335V63.3546C108.335 62.1 109.178 61.2637 110.443 61.2637C111.707 61.2637 112.551 62.1 112.551 63.3546V69.6273ZM125.197 69.6273H120.981V63.3546C120.981 62.1 121.824 61.2637 123.089 61.2637C124.354 61.2637 125.197 62.1 125.197 63.3546V69.6273ZM91.4736 69.6273H87.2583V63.3546C87.2583 62.1 88.1013 61.2637 89.366 61.2637C90.6306 61.2637 91.4736 62.1 91.4736 63.3546V69.6273Z" fill="#8E7F8B"/>
<path d="M17.7044 21.1183V18.8183C17.7044 16.9365 18.7583 15.0547 20.2336 14.2183L21.9198 13.1729L23.6059 14.2183C25.2921 15.2638 26.1352 16.9365 26.1352 18.8183V21.1183M26.1352 34.0819V30.7365C26.1352 29.2729 26.7675 28.0183 28.0321 27.1819L29.2967 26.3456L30.5613 27.1819C31.8259 28.0183 32.4583 29.2729 32.4583 30.7365V34.0819" fill="#FED6B1"/>
<path d="M17.7044 21.5364H26.1352V24.6727H17.7044V21.5364Z" fill="#F6E8D9"/>
<path d="M22.9736 21.5364H26.1352V34.0818H22.9736V21.5364Z" fill="#F6E8D9"/>
<path d="M118.874 21.5364H122.035V34.0818H118.874V21.5364Z" fill="#F7BD96"/>
<path d="M118.874 21.5364H127.304V24.6727H118.874V21.5364Z" fill="#F6E8D9"/>
<path d="M124.143 21.5364H127.304V34.0818H124.143V21.5364Z" fill="#F6E8D9"/>
<path d="M118.663 22.1638V18.8183C118.663 16.9365 119.717 15.0547 121.192 14.2183L122.878 13.1729L124.564 14.2183C126.251 15.2638 127.094 16.9365 127.094 18.8183V22.1638M32.4583 34.0819V30.7365C32.4583 29.2729 33.0906 28.0183 34.3552 27.1819L35.6198 26.3456L36.8844 27.1819C38.149 28.0183 38.7813 29.2729 38.7813 30.7365V34.0819M38.7813 34.0819V30.7365C38.7813 29.2729 39.4136 28.0183 40.6783 27.1819L41.9429 26.3456L43.2075 27.1819C44.4721 28.0183 45.1044 29.2729 45.1044 30.7365V34.0819M45.1044 34.0819V30.7365C45.1044 29.2729 45.7367 28.0183 47.0013 27.1819L48.2659 26.3456L49.5306 27.1819C50.7952 28.0183 51.4275 29.2729 51.4275 30.7365V34.0819M51.4275 34.0819V30.7365C51.4275 29.2729 52.0598 28.0183 53.3244 27.1819L54.589 26.3456L55.8536 27.1819C57.1183 28.0183 57.7506 29.2729 57.7506 30.7365V34.0819" fill="#FED6B1"/>
<path d="M30.5613 26.9727L29.2967 26.1363L28.0321 26.9727C26.7675 27.8091 26.1352 29.0636 26.1352 30.5273V33.6636C26.1352 32.2 26.7675 30.9454 28.0321 30.1091L29.2967 29.2727L30.5613 30.1091C31.8259 30.9454 32.4583 32.2 32.4583 33.6636V30.5273C32.4583 29.0636 31.6152 27.8091 30.5613 26.9727ZM36.8844 26.9727L35.6198 26.1363L34.3552 26.9727C33.0906 27.8091 32.4583 29.0636 32.4583 30.5273V33.6636C32.4583 32.2 33.0906 30.9454 34.3552 30.1091L35.6198 29.2727L36.8844 30.1091C38.149 30.9454 38.7813 32.2 38.7813 33.6636V30.5273C38.7813 29.0636 37.9383 27.8091 36.8844 26.9727ZM43.2075 26.9727L41.9429 26.1363L40.6783 26.9727C39.4136 27.8091 38.7813 29.0636 38.7813 30.5273V33.6636C38.7813 32.2 39.4136 30.9454 40.6783 30.1091L41.9429 29.2727L43.2075 30.1091C44.4721 30.9454 45.1044 32.2 45.1044 33.6636V30.5273C45.1044 29.0636 44.2613 27.8091 43.2075 26.9727ZM49.5306 26.9727L48.2659 26.1363L47.0013 26.9727C45.7367 27.8091 45.1044 29.0636 45.1044 30.5273V33.6636C45.1044 32.2 45.7367 30.9454 47.0013 30.1091L48.2659 29.2727L49.5306 30.1091C50.7952 30.9454 51.4275 32.2 51.4275 33.6636V30.5273C51.4275 29.0636 50.5844 27.8091 49.5306 26.9727ZM55.8536 26.9727L54.589 26.1363L53.3244 26.9727C52.0598 27.8091 51.4275 29.0636 51.4275 30.5273V33.6636C51.4275 32.2 52.0598 30.9454 53.3244 30.1091L54.589 29.2727L55.8536 30.1091C57.1183 30.9454 57.7506 32.2 57.7506 33.6636V30.5273C57.7506 29.0636 56.9075 27.8091 55.8536 26.9727ZM67.4459 26.9727L66.1813 26.1363L64.9167 26.9727C63.6521 27.8091 63.0198 29.0636 63.0198 30.5273V33.6636C63.0198 32.2 63.6521 30.9454 64.9167 30.1091L66.1813 29.2727L67.4459 30.1091C68.7106 30.9454 69.3429 32.2 69.3429 33.6636V30.5273C69.3429 29.0636 68.4998 27.8091 67.4459 26.9727ZM73.769 26.9727L72.5044 26.1363L71.2398 26.9727C69.9752 27.8091 69.3429 29.0636 69.3429 30.5273V33.6636C69.3429 32.2 69.9752 30.9454 71.2398 30.1091L72.5044 29.2727L73.769 30.1091C75.0336 30.9454 75.6659 32.2 75.6659 33.6636V30.5273C75.6659 29.0636 74.8229 27.8091 73.769 26.9727ZM80.0921 26.9727L78.8275 26.1363L77.5629 26.9727C76.2983 27.8091 75.6659 29.0636 75.6659 30.5273V33.6636C75.6659 32.2 76.2983 30.9454 77.5629 30.1091L78.8275 29.2727L80.0921 30.1091C81.3567 30.9454 81.989 32.2 81.989 33.6636V30.5273C81.989 29.0636 81.1459 27.8091 80.0921 26.9727ZM91.6844 26.9727L90.4198 26.1363L89.1552 26.9727C87.8906 27.8091 87.2582 29.0636 87.2582 30.5273V33.6636C87.2582 32.2 87.8906 30.9454 89.1552 30.1091L90.4198 29.2727L91.6844 30.1091C92.949 30.9454 93.5813 32.2 93.5813 33.6636V30.5273C93.5813 29.0636 92.7383 27.8091 91.6844 26.9727ZM98.0075 26.9727L96.7429 26.1363L95.4783 26.9727C94.2136 27.8091 93.5813 29.0636 93.5813 30.5273V33.6636C93.5813 32.2 94.2136 30.9454 95.4783 30.1091L96.7429 29.2727L98.0075 30.1091C99.2721 30.9454 99.9044 32.2 99.9044 33.6636V30.5273C99.9044 29.0636 99.0613 27.8091 98.0075 26.9727ZM104.331 26.9727L103.066 26.1363L101.801 26.9727C100.537 27.8091 99.9044 29.0636 99.9044 30.5273V33.6636C99.9044 32.2 100.537 30.9454 101.801 30.1091L103.066 29.2727L104.331 30.1091C105.595 30.9454 106.227 32.2 106.227 33.6636V30.5273C106.227 29.0636 105.384 27.8091 104.331 26.9727ZM110.654 26.9727L109.389 26.1363L108.124 26.9727C106.86 27.8091 106.227 29.0636 106.227 30.5273V33.6636C106.227 32.2 106.86 30.9454 108.124 30.1091L109.389 29.2727L110.654 30.1091C111.918 30.9454 112.551 32.2 112.551 33.6636V30.5273C112.551 29.0636 111.707 27.8091 110.654 26.9727ZM116.977 26.9727L115.712 26.1363L114.447 26.9727C113.183 27.8091 112.551 29.0636 112.551 30.5273V33.6636C112.551 32.2 113.183 30.9454 114.447 30.1091L115.712 29.2727L116.977 30.1091C118.241 30.9454 118.874 32.2 118.874 33.6636V30.5273C118.874 29.0636 118.031 27.8091 116.977 26.9727ZM23.6059 14.0091L21.9198 12.9636L20.2336 14.0091C18.5475 15.0545 17.7044 16.7273 17.7044 18.6091V21.7454C17.7044 19.8636 18.7583 17.9818 20.2336 17.1454L21.9198 16.1L23.6059 17.1454C25.2921 18.1909 26.1352 19.8636 26.1352 21.7454V18.8182C26.1352 16.9363 25.0813 15.0545 23.6059 14.0091ZM124.564 14.0091L122.878 12.9636L121.192 14.0091C119.506 15.0545 118.663 16.7273 118.663 18.6091V21.7454C118.663 19.8636 119.717 17.9818 121.192 17.1454L122.878 16.1L124.564 17.1454C126.251 18.1909 127.094 19.8636 127.094 21.7454V18.8182C127.094 16.9363 126.251 15.0545 124.564 14.0091Z" fill="#F6E8D9"/>
<path d="M63.0198 27.391C63.0198 25.5091 64.2844 23.8364 66.1814 23.6273H79.0383C80.7244 24.0455 81.989 25.5092 82.1998 27.1819V24.4637C82.1998 22.5819 80.9352 20.9091 79.0383 20.491H66.1814C64.2844 20.9091 63.0198 22.5819 63.0198 24.2546V33.6637V27.391ZM11.3813 48.7182H133.627V51.8546H11.3813V48.7182Z" fill="#F6E8D9"/>
<path d="M129.412 48.7183H133.627V54.991H129.412V48.7183Z" fill="#F6E8D9"/>
<path d="M133.628 108.1H11.3814C10.7491 108.1 10.3275 107.682 10.3275 107.054C10.3275 106.427 10.7491 106.009 11.3814 106.009H133.628C134.26 106.009 134.681 106.427 134.681 107.054C134.681 107.682 134.26 108.1 133.628 108.1Z" fill="black"/>
<path d="M135.735 108.1H9.27363C8.64133 108.1 8.21979 107.682 8.21979 107.055C8.21979 106.428 8.64133 106.009 9.27363 106.009H135.735C136.367 106.009 136.789 106.428 136.789 107.055C136.789 107.682 136.367 108.1 135.735 108.1ZM26.1352 26.3457C25.5029 26.3457 25.0813 25.9275 25.0813 25.3002V18.8184C25.0813 17.3548 24.2382 15.8912 22.9736 15.0548L21.9198 14.4275L20.8659 15.0548C19.6013 15.8912 18.7582 17.3548 18.7582 18.8184V25.3002C18.7582 25.9275 18.3367 26.3457 17.7044 26.3457C17.0721 26.3457 16.6506 25.9275 16.6506 25.3002V18.8184C16.6506 16.5184 17.7044 14.4275 19.8121 13.173L21.4983 12.1275C21.9198 11.9184 22.3413 11.9184 22.5521 12.1275L24.2382 13.173C26.1352 14.4275 27.3998 16.5184 27.3998 18.8184V25.3002C27.189 25.9275 26.7675 26.3457 26.1352 26.3457ZM32.4582 34.9184C31.8259 34.9184 31.4044 34.5002 31.4044 33.873V30.5275C31.4044 29.4821 30.7721 28.4366 29.929 27.8093L29.2967 27.3912L28.6644 27.8093C27.8213 28.4366 27.189 29.273 27.189 30.5275V33.873C27.189 34.5002 26.7675 34.9184 26.1352 34.9184C25.5029 34.9184 25.0813 34.5002 25.0813 33.873V30.5275C25.0813 28.6457 25.9244 27.1821 27.3998 26.1366L28.6644 25.3002C29.0859 25.0912 29.5075 25.0912 29.7183 25.3002L30.9829 26.1366C32.4583 27.1821 33.5121 28.6457 33.5121 30.5275V33.873C33.5121 34.5002 33.0906 34.9184 32.4582 34.9184Z" fill="black"/>
<path d="M45.1044 107.682C44.4721 107.682 44.0505 107.264 44.0505 106.636V88.4453C44.0505 85.9362 42.7859 83.6362 40.6782 82.1726L38.7813 80.9181L36.8844 82.1726C34.7767 83.4272 33.5121 85.7271 33.5121 88.2362V106.636C33.5121 107.264 33.0905 107.682 32.4582 107.682C31.8259 107.682 31.4044 107.264 31.4044 106.636V88.4453C31.4044 85.309 33.0905 82.1726 35.8305 80.4999L38.3598 79.0362C38.7813 78.8272 39.2029 78.8272 39.4136 79.0362L41.7321 80.4999C44.4721 82.1726 46.1582 85.0999 46.1582 88.4453V106.636C46.1582 107.264 45.7367 107.682 45.1044 107.682ZM129.412 48.509C128.78 48.509 128.358 48.0908 128.358 47.4635V34.9181H16.6505V47.4635C16.6505 48.0908 16.229 48.509 15.5967 48.509C14.9644 48.509 14.5428 48.0908 14.5428 47.4635V33.8726C14.5428 33.2453 14.9644 32.8271 15.5967 32.8271H129.412C130.044 32.8271 130.466 33.2453 130.466 33.8726V47.4635C130.466 48.0908 130.044 48.509 129.412 48.509Z" fill="black"/>
<path d="M129.412 108.1H15.5967C14.9644 108.1 14.5428 107.682 14.5428 107.054V55.8272C14.5428 55.1999 14.9644 54.7817 15.5967 54.7817C16.229 54.7817 16.6505 55.1999 16.6505 55.8272V106.009H128.358V55.8272C128.358 55.1999 128.78 54.7817 129.412 54.7817C130.044 54.7817 130.466 55.1999 130.466 55.8272V107.054C130.466 107.682 130.044 108.1 129.412 108.1Z" fill="black"/>
<path d="M116.766 108.1H28.2429C27.6106 108.1 27.189 107.682 27.189 107.055V54.7818C27.189 54.1545 27.6106 53.7363 28.2429 53.7363H116.766C117.398 53.7363 117.82 54.1545 117.82 54.7818V107.055C117.82 107.682 117.398 108.1 116.766 108.1ZM29.2967 106.009H115.712V55.8272H29.2967V106.009Z" fill="black"/>
<path d="M133.628 55.8272H11.3814C10.7491 55.8272 10.3275 55.409 10.3275 54.7817V48.509C10.3275 47.8817 10.7491 47.4636 11.3814 47.4636H133.628C134.26 47.4636 134.681 47.8817 134.681 48.509V54.7817C134.681 55.409 134.26 55.8272 133.628 55.8272ZM12.4352 53.7363H132.574V49.5545H12.4352V53.7363ZM26.1352 34.9181H17.7044C17.0721 34.9181 16.6506 34.4999 16.6506 33.8726V21.3272C16.6506 20.6999 17.0721 20.2817 17.7044 20.2817H26.1352C26.7675 20.2817 27.1891 20.6999 27.1891 21.3272V33.8726C27.1891 34.4999 26.7675 34.9181 26.1352 34.9181ZM18.7583 32.8272H25.0814V22.3726H18.7583V32.8272Z" fill="black"/>
<path d="M28.2428 22.3726H15.5967C14.9644 22.3726 14.5428 21.9545 14.5428 21.3272C14.5428 20.6999 14.9644 20.2817 15.5967 20.2817H28.2428C28.8752 20.2817 29.2967 20.6999 29.2967 21.3272C29.2967 21.9545 28.8752 22.3726 28.2428 22.3726ZM24.0275 101.827H19.8121C19.1798 101.827 18.7582 101.409 18.7582 100.782V94.509C18.7582 92.8363 20.2336 91.3726 21.9198 91.3726C23.6059 91.3726 25.0813 92.8363 25.0813 94.509V100.782C25.0813 101.409 24.6598 101.827 24.0275 101.827ZM20.8659 99.7363H22.9736V94.509C22.9736 93.8817 22.5521 93.4636 21.9198 93.4636C21.2875 93.4636 20.8659 93.8817 20.8659 94.509V99.7363ZM61.9659 108.1H49.3198C48.6875 108.1 48.2659 107.682 48.2659 107.054V54.7817C48.2659 54.1545 48.6875 53.7363 49.3198 53.7363H61.9659C62.5982 53.7363 63.0198 54.1545 63.0198 54.7817V107.054C63.0198 107.682 62.5982 108.1 61.9659 108.1ZM50.3736 106.009H60.9121V55.8272H50.3736V106.009ZM78.8275 107.682C78.1952 107.682 77.7736 107.264 77.7736 106.636V88.4454C77.7736 85.9363 76.509 83.6363 74.4013 82.1727L72.5044 80.9181L70.6075 82.1727C68.4998 83.4272 67.2352 85.7272 67.2352 88.2363V106.636C67.2352 107.264 66.8136 107.682 66.1813 107.682C65.549 107.682 65.1275 107.264 65.1275 106.636V88.4454C65.1275 85.309 66.8136 82.1726 69.5536 80.4999L72.0828 79.0363C72.5044 78.8272 72.9259 78.8272 73.1367 79.0363L75.4552 80.4999C78.1952 82.1726 79.8813 85.0999 79.8813 88.4454V106.636C79.8813 107.264 79.4598 107.682 78.8275 107.682ZM24.0275 45.3727H19.8121C19.1798 45.3727 18.7582 44.9545 18.7582 44.3272V40.1454C18.7582 38.4726 20.2336 37.009 21.9198 37.009C23.6059 37.009 25.0813 38.4726 25.0813 40.1454V44.3272C25.0813 44.9545 24.6598 45.3727 24.0275 45.3727ZM20.8659 43.2817H22.9736V40.1454C22.9736 39.5181 22.5521 39.0999 21.9198 39.0999C21.2875 39.0999 20.8659 39.5181 20.8659 40.1454V43.2817ZM95.689 108.1H83.0428C82.4105 108.1 81.989 107.682 81.989 107.054V54.7817C81.989 54.1545 82.4105 53.7363 83.0428 53.7363H95.689C96.3213 53.7363 96.7428 54.1545 96.7428 54.7817V107.054C96.7428 107.682 96.3213 108.1 95.689 108.1ZM84.0967 106.009H94.6352V55.8272H84.0967V106.009ZM112.551 107.682C111.918 107.682 111.497 107.264 111.497 106.636V88.4454C111.497 85.9363 110.232 83.6363 108.124 82.1727L106.227 80.9181L104.331 82.1727C102.223 83.4272 100.958 85.7272 100.958 88.2363V106.636C100.958 107.264 100.537 107.682 99.9044 107.682C99.2721 107.682 98.8505 107.264 98.8505 106.636V88.4454C98.8505 85.309 100.537 82.1726 103.277 80.4999L105.806 79.0363C106.227 78.8272 106.649 78.8272 106.86 79.0363L109.178 80.4999C111.918 82.1726 113.604 85.0999 113.604 88.4454V106.636C113.604 107.264 113.183 107.682 112.551 107.682Z" fill="black"/>
<path d="M116.766 74.6454H28.2429C27.6106 74.6454 27.189 74.2272 27.189 73.6C27.189 72.9727 27.6106 72.5545 28.2429 72.5545H116.766C117.398 72.5545 117.82 72.9727 117.82 73.6C117.82 74.2272 117.398 74.6454 116.766 74.6454ZM21.9198 14.0091C21.2875 14.0091 20.866 13.5909 20.866 12.9636V8.78178C20.866 8.15451 21.2875 7.73633 21.9198 7.73633C22.5521 7.73633 22.9737 8.15451 22.9737 8.78178V12.9636C22.9737 13.5909 22.5521 14.0091 21.9198 14.0091ZM21.9198 34.9181C21.2875 34.9181 20.866 34.5 20.866 33.8727V27.6C20.866 26.9727 21.2875 26.5545 21.9198 26.5545C22.5521 26.5545 22.9737 26.9727 22.9737 27.6V33.8727C22.9737 34.5 22.5521 34.9181 21.9198 34.9181ZM123.089 34.9181C122.457 34.9181 122.035 34.5 122.035 33.8727V27.6C122.035 26.9727 122.457 26.5545 123.089 26.5545C123.721 26.5545 124.143 26.9727 124.143 27.6V33.8727C124.143 34.5 123.721 34.9181 123.089 34.9181ZM127.304 26.3454C126.672 26.3454 126.251 25.9272 126.251 25.3V18.8181C126.251 17.3545 125.408 15.8909 124.143 15.0545L123.089 14.4272L122.035 15.0545C120.771 15.8909 119.928 17.3545 119.928 18.8181V25.3C119.928 25.9272 119.506 26.3454 118.874 26.3454C118.241 26.3454 117.82 25.9272 117.82 25.3V18.8181C117.82 16.5181 118.874 14.4272 120.981 13.1727L122.668 12.1272C123.089 11.9181 123.511 11.9181 123.721 12.1272L125.408 13.1727C127.304 14.4272 128.569 16.5181 128.569 18.8181V25.3C128.358 25.9272 127.937 26.3454 127.304 26.3454Z" fill="black"/>
<path d="M127.304 34.9181H118.874C118.241 34.9181 117.82 34.4999 117.82 33.8726V21.3272C117.82 20.6999 118.241 20.2817 118.874 20.2817H127.304C127.937 20.2817 128.358 20.6999 128.358 21.3272V33.8726C128.358 34.4999 127.937 34.9181 127.304 34.9181ZM119.928 32.8272H126.251V22.3726H119.928V32.8272Z" fill="black"/>
<path d="M129.412 22.3727H116.766C116.134 22.3727 115.712 21.9545 115.712 21.3272C115.712 20.7 116.134 20.2818 116.766 20.2818H129.412C130.044 20.2818 130.466 20.7 130.466 21.3272C130.466 21.9545 130.044 22.3727 129.412 22.3727ZM123.089 14.0091C122.457 14.0091 122.035 13.5909 122.035 12.9636V8.78178C122.035 8.15451 122.457 7.73633 123.089 7.73633C123.721 7.73633 124.143 8.15451 124.143 8.78178V12.9636C124.143 13.5909 123.721 14.0091 123.089 14.0091ZM29.2967 26.5545C28.6644 26.5545 28.2429 26.1363 28.2429 25.5091V24.4636C28.2429 23.8363 28.6644 23.4181 29.2967 23.4181C29.929 23.4181 30.3506 23.8363 30.3506 24.4636V25.5091C30.3506 26.1363 29.929 26.5545 29.2967 26.5545ZM38.7813 34.9181C38.149 34.9181 37.7275 34.5 37.7275 33.8727V30.5272C37.7275 29.4818 37.0952 28.4363 36.2521 27.8091L35.6198 27.3909L34.9875 27.8091C34.1444 28.4363 33.5121 29.2727 33.5121 30.5272V33.8727C33.5121 34.5 33.0906 34.9181 32.4582 34.9181C31.8259 34.9181 31.4044 34.5 31.4044 33.8727V30.5272C31.4044 28.6454 32.2475 27.1818 33.7229 26.1363L34.9875 25.3C35.409 25.0909 35.8305 25.0909 36.0413 25.3L37.3059 26.1363C38.7813 27.1818 39.8352 28.6454 39.8352 30.5272V33.8727C39.8352 34.5 39.4136 34.9181 38.7813 34.9181Z" fill="black"/>
<path d="M35.6198 26.5543C34.9875 26.5543 34.5659 26.1362 34.5659 25.5089V24.4634C34.5659 23.8362 34.9875 23.418 35.6198 23.418C36.2521 23.418 36.6736 23.8362 36.6736 24.4634V25.5089C36.6736 26.1362 36.2521 26.5543 35.6198 26.5543ZM45.1044 34.918C44.4721 34.918 44.0505 34.4998 44.0505 33.8725V30.5271C44.0505 29.4816 43.4182 28.4361 42.5751 27.8089L41.9428 27.3907L41.3105 27.8089C40.4675 28.4361 39.8351 29.2725 39.8351 30.5271V33.8725C39.8351 34.4998 39.4136 34.918 38.7813 34.918C38.149 34.918 37.7275 34.4998 37.7275 33.8725V30.5271C37.7275 28.6452 38.5705 27.1816 40.0459 26.1361L41.3105 25.2998C41.7321 25.0907 42.1536 25.0907 42.3644 25.2998L43.629 26.1361C45.1044 27.1816 46.1582 28.6452 46.1582 30.5271V33.8725C46.1582 34.4998 45.7367 34.918 45.1044 34.918Z" fill="black"/>
<path d="M41.9429 26.5543C41.3106 26.5543 40.889 26.1362 40.889 25.5089V24.4634C40.889 23.8362 41.3106 23.418 41.9429 23.418C42.5752 23.418 42.9967 23.8362 42.9967 24.4634V25.5089C42.9967 26.1362 42.5752 26.5543 41.9429 26.5543ZM51.4275 34.918C50.7952 34.918 50.3737 34.4998 50.3737 33.8725V30.5271C50.3737 29.4816 49.7413 28.4361 48.8983 27.8089L48.266 27.3907L47.6336 27.8089C46.7906 28.4361 46.1583 29.2725 46.1583 30.5271V33.8725C46.1583 34.4998 45.7367 34.918 45.1044 34.918C44.4721 34.918 44.0506 34.4998 44.0506 33.8725V30.5271C44.0506 28.6452 44.8937 27.1816 46.369 26.1361L47.6336 25.2998C48.0552 25.0907 48.4767 25.0907 48.6875 25.2998L49.9521 26.1361C51.4275 27.1816 52.4813 28.6452 52.4813 30.5271V33.8725C52.4813 34.4998 52.0598 34.918 51.4275 34.918Z" fill="black"/>
<path d="M48.2659 26.5543C47.6336 26.5543 47.2121 26.1362 47.2121 25.5089V24.4634C47.2121 23.8362 47.6336 23.418 48.2659 23.418C48.8983 23.418 49.3198 23.8362 49.3198 24.4634V25.5089C49.3198 26.1362 48.8983 26.5543 48.2659 26.5543ZM57.7506 34.918C57.1183 34.918 56.6967 34.4998 56.6967 33.8725V30.5271C56.6967 29.4816 56.0644 28.4361 55.2213 27.8089L54.589 27.3907L53.9567 27.8089C53.1136 28.4361 52.4813 29.2725 52.4813 30.5271V33.8725C52.4813 34.4998 52.0598 34.918 51.4275 34.918C50.7952 34.918 50.3736 34.4998 50.3736 33.8725V30.5271C50.3736 28.6452 51.2167 27.1816 52.6921 26.1361L53.9567 25.2998C54.3782 25.0907 54.7998 25.0907 55.0106 25.2998L56.2752 26.1361C57.7506 27.1816 58.8044 28.6452 58.8044 30.5271V33.8725C58.8044 34.4998 58.3829 34.918 57.7506 34.918Z" fill="black"/>
<path d="M54.589 26.5543C53.9567 26.5543 53.5352 26.1362 53.5352 25.5089V24.4634C53.5352 23.8362 53.9567 23.418 54.589 23.418C55.2213 23.418 55.6428 23.8362 55.6428 24.4634V25.5089C55.6428 26.1362 55.2213 26.5543 54.589 26.5543ZM69.1321 34.918C68.4998 34.918 68.0782 34.4998 68.0782 33.8725V30.5271C68.0782 29.4816 67.4459 28.4361 66.6028 27.8089L65.9705 27.3907L65.3382 27.8089C64.4952 28.4361 63.8628 29.2725 63.8628 30.5271V33.8725C63.8628 34.4998 63.4413 34.918 62.809 34.918C62.1767 34.918 61.7552 34.4998 61.7552 33.8725V30.5271C61.7552 28.6452 62.5982 27.1816 64.0736 26.1361L65.3382 25.2998C65.7598 25.0907 66.1813 25.0907 66.3921 25.2998L67.6567 26.1361C69.1321 27.1816 70.1859 28.6452 70.1859 30.5271V33.8725C70.1859 34.4998 69.7644 34.918 69.1321 34.918Z" fill="black"/>
<path d="M62.8093 34.7092C62.177 34.7092 61.7555 34.291 61.7555 33.6637V24.2546C61.7555 21.9546 63.4417 19.8637 65.7601 19.4456H78.8278C81.1463 19.8637 82.8324 21.9546 82.8324 24.2546V33.6637C82.8324 34.291 82.4109 34.7092 81.7786 34.7092C81.1463 34.7092 80.7247 34.291 80.7247 33.6637V24.2546C80.7247 23.0001 79.8816 21.7456 78.4063 21.5365H65.9709C64.7063 21.9546 63.8632 23.0001 63.8632 24.2546V33.6637C63.8632 34.291 63.4416 34.7092 62.8093 34.7092Z" fill="black"/>
<path d="M65.9708 26.5544C65.3385 26.5544 64.917 26.1362 64.917 25.5089V24.4634C64.917 23.8362 65.3385 23.418 65.9708 23.418C66.6031 23.418 67.0247 23.8362 67.0247 24.4634V25.5089C67.0247 26.1362 66.6031 26.5544 65.9708 26.5544ZM65.9708 20.2816C65.3385 20.2816 64.917 19.8634 64.917 19.2362V18.1907C64.917 17.5634 65.3385 17.1453 65.9708 17.1453C66.6031 17.1453 67.0247 17.5634 67.0247 18.1907V19.2362C67.0247 19.8634 66.6031 20.2816 65.9708 20.2816ZM72.2939 20.2816C71.6616 20.2816 71.2401 19.8634 71.2401 19.2362V18.1907C71.2401 17.5634 71.6616 17.1453 72.2939 17.1453C72.9262 17.1453 73.3478 17.5634 73.3478 18.1907V19.2362C73.3478 19.8634 72.9262 20.2816 72.2939 20.2816ZM78.617 20.2816C77.9847 20.2816 77.5631 19.8634 77.5631 19.2362V18.1907C77.5631 17.5634 77.9847 17.1453 78.617 17.1453C79.2493 17.1453 79.6708 17.5634 79.6708 18.1907V19.2362C79.6708 19.8634 79.2493 20.2816 78.617 20.2816ZM75.4555 34.918C74.8231 34.918 74.4016 34.4998 74.4016 33.8725V30.5271C74.4016 29.4816 73.7693 28.4362 72.9262 27.8089L72.2939 27.3907L71.6616 27.8089C70.8185 28.4362 70.1862 29.2725 70.1862 30.5271V33.8725C70.1862 34.4998 69.7647 34.918 69.1324 34.918C68.5001 34.918 68.0785 34.4998 68.0785 33.8725V30.5271C68.0785 28.6453 68.9216 27.1816 70.397 26.1362L71.6616 25.2998C72.0831 25.0907 72.5047 25.0907 72.7155 25.2998L73.9801 26.1362C75.4555 27.1816 76.5093 28.6453 76.5093 30.5271V33.8725C76.5093 34.4998 76.0878 34.918 75.4555 34.918Z" fill="black"/>
<path d="M72.294 26.5543C71.6617 26.5543 71.2401 26.1362 71.2401 25.5089V24.4634C71.2401 23.8362 71.6617 23.418 72.294 23.418C72.9263 23.418 73.3478 23.8362 73.3478 24.4634V25.5089C73.3478 26.1362 72.9263 26.5543 72.294 26.5543ZM78.617 26.5543C77.9847 26.5543 77.5632 26.1362 77.5632 25.5089V24.4634C77.5632 23.8362 77.9847 23.418 78.617 23.418C79.2493 23.418 79.6709 23.8362 79.6709 24.4634V25.5089C79.6709 26.1362 79.2493 26.5543 78.617 26.5543Z" fill="black"/>
<path d="M81.7785 34.9181C81.1462 34.9181 80.7247 34.4999 80.7247 33.8726V30.5272C80.7247 29.4817 80.0924 28.4362 79.2493 27.809L78.617 27.3908L77.9847 27.809C77.1416 28.4362 76.5093 29.2726 76.5093 30.5272V33.8726C76.5093 34.4999 76.0878 34.9181 75.4555 34.9181C74.8231 34.9181 74.4016 34.4999 74.4016 33.8726V30.5272C74.4016 28.6453 75.2447 27.1817 76.7201 26.1363L77.9847 25.2999C78.4062 25.0908 78.8278 25.0908 79.0385 25.2999L80.3031 26.1363C81.7785 27.1817 82.8324 28.6453 82.8324 30.5272V33.8726C82.8324 34.4999 82.4108 34.9181 81.7785 34.9181ZM93.5816 34.9181C92.9493 34.9181 92.5278 34.4999 92.5278 33.8726V30.5272C92.5278 29.4817 91.8955 28.4362 91.0524 27.809L90.4201 27.3908L89.7878 27.809C88.9447 28.4362 88.3124 29.2726 88.3124 30.5272V33.8726C88.3124 34.4999 87.8908 34.9181 87.2585 34.9181C86.6262 34.9181 86.2047 34.4999 86.2047 33.8726V30.5272C86.2047 28.6453 87.0478 27.1817 88.5232 26.1363L89.7878 25.2999C90.2093 25.0908 90.6308 25.0908 90.8416 25.2999L92.1062 26.1363C93.5816 27.1817 94.6355 28.6453 94.6355 30.5272V33.8726C94.6355 34.4999 94.2139 34.9181 93.5816 34.9181Z" fill="black"/>
<path d="M90.4198 26.5543C89.7875 26.5543 89.366 26.1362 89.366 25.5089V24.4634C89.366 23.8362 89.7875 23.418 90.4198 23.418C91.0521 23.418 91.4737 23.8362 91.4737 24.4634V25.5089C91.4737 26.1362 91.0521 26.5543 90.4198 26.5543ZM99.9044 34.918C99.2721 34.918 98.8506 34.4998 98.8506 33.8725V30.5271C98.8506 29.4816 98.2183 28.4361 97.3752 27.8089L96.7429 27.3907L96.1106 27.8089C95.2675 28.4361 94.6352 29.2725 94.6352 30.5271V33.8725C94.6352 34.4998 94.2137 34.918 93.5814 34.918C92.949 34.918 92.5275 34.4998 92.5275 33.8725V30.5271C92.5275 28.6452 93.3706 27.1816 94.846 26.1361L96.1106 25.2998C96.5321 25.0907 96.9537 25.0907 97.1644 25.2998L98.429 26.1361C99.9044 27.1816 100.958 28.6452 100.958 30.5271V33.8725C100.958 34.4998 100.537 34.918 99.9044 34.918Z" fill="black"/>
<path d="M96.7429 26.5543C96.1106 26.5543 95.689 26.1362 95.689 25.5089V24.4634C95.689 23.8362 96.1106 23.418 96.7429 23.418C97.3752 23.418 97.7967 23.8362 97.7967 24.4634V25.5089C97.7967 26.1362 97.3752 26.5543 96.7429 26.5543ZM106.227 34.918C105.595 34.918 105.174 34.4998 105.174 33.8725V30.5271C105.174 29.4816 104.541 28.4361 103.698 27.8089L103.066 27.3907L102.434 27.8089C101.591 28.4361 100.958 29.2725 100.958 30.5271V33.8725C100.958 34.4998 100.537 34.918 99.9044 34.918C99.2721 34.918 98.8506 34.4998 98.8506 33.8725V30.5271C98.8506 28.6452 99.6936 27.1816 101.169 26.1361L102.434 25.2998C102.855 25.0907 103.277 25.0907 103.487 25.2998L104.752 26.1361C106.227 27.1816 107.281 28.6452 107.281 30.5271V33.8725C107.281 34.4998 106.86 34.918 106.227 34.918Z" fill="black"/>
<path d="M103.066 26.5543C102.434 26.5543 102.012 26.1362 102.012 25.5089V24.4634C102.012 23.8362 102.434 23.418 103.066 23.418C103.698 23.418 104.12 23.8362 104.12 24.4634V25.5089C104.12 26.1362 103.698 26.5543 103.066 26.5543ZM112.551 34.918C111.918 34.918 111.497 34.4998 111.497 33.8725V30.5271C111.497 29.4816 110.864 28.4361 110.021 27.8089L109.389 27.3907L108.757 27.8089C107.914 28.4361 107.281 29.2725 107.281 30.5271V33.8725C107.281 34.4998 106.86 34.918 106.227 34.918C105.595 34.918 105.174 34.4998 105.174 33.8725V30.5271C105.174 28.6452 106.017 27.1816 107.492 26.1361L108.757 25.2998C109.178 25.0907 109.6 25.0907 109.811 25.2998L111.075 26.1361C112.551 27.1816 113.604 28.6452 113.604 30.5271V33.8725C113.604 34.4998 113.183 34.918 112.551 34.918Z" fill="black"/>
<path d="M109.389 26.5543C108.757 26.5543 108.335 26.1362 108.335 25.5089V24.4634C108.335 23.8362 108.757 23.418 109.389 23.418C110.021 23.418 110.443 23.8362 110.443 24.4634V25.5089C110.443 26.1362 110.021 26.5543 109.389 26.5543ZM118.874 34.918C118.241 34.918 117.82 34.4998 117.82 33.8725V30.5271C117.82 29.4816 117.188 28.4361 116.344 27.8089L115.712 27.3907L115.08 27.8089C114.237 28.4361 113.604 29.2725 113.604 30.5271V33.8725C113.604 34.4998 113.183 34.918 112.551 34.918C111.918 34.918 111.497 34.4998 111.497 33.8725V30.5271C111.497 28.6452 112.34 27.1816 113.815 26.1361L115.08 25.2998C115.501 25.0907 115.923 25.0907 116.134 25.2998L117.398 26.1361C118.874 27.1816 119.928 28.6452 119.928 30.5271V33.8725C119.928 34.4998 119.506 34.918 118.874 34.918Z" fill="black"/>
<path d="M21.9198 61.2637C20.6552 61.2637 19.8121 62.1 19.8121 63.3546V66.4909C19.8121 65.2364 20.6552 64.4 21.9198 64.4C23.1844 64.4 24.0275 65.2364 24.0275 66.4909V63.3546C24.0275 62.1 22.9737 61.2637 21.9198 61.2637ZM34.566 61.2637C33.3014 61.2637 32.4583 62.1 32.4583 63.3546V66.4909C32.4583 65.2364 33.3014 64.4 34.566 64.4C35.8306 64.4 36.6737 65.2364 36.6737 66.4909V63.3546C36.6737 62.1 35.6198 61.2637 34.566 61.2637ZM42.9968 61.2637C41.7321 61.2637 40.8891 62.1 40.8891 63.3546V66.4909C40.8891 65.2364 41.7321 64.4 42.9968 64.4C44.2614 64.4 45.1044 65.2364 45.1044 66.4909V63.3546C45.1044 62.1 44.0506 61.2637 42.9968 61.2637ZM55.6429 61.2637C54.3783 61.2637 53.5352 62.1 53.5352 63.3546V66.4909C53.5352 65.2364 54.3783 64.4 55.6429 64.4C56.9075 64.4 57.7506 65.2364 57.7506 66.4909V63.3546C57.7506 62.1 56.6968 61.2637 55.6429 61.2637ZM68.2891 61.2637C67.0244 61.2637 66.1814 62.1 66.1814 63.3546V66.4909C66.1814 65.2364 67.0244 64.4 68.2891 64.4C69.5537 64.4 70.3968 65.2364 70.3968 66.4909V63.3546C70.3968 62.1 69.3429 61.2637 68.2891 61.2637ZM76.7198 61.2637C75.4552 61.2637 74.6121 62.1 74.6121 63.3546V66.4909C74.6121 65.2364 75.4552 64.4 76.7198 64.4C77.9844 64.4 78.8275 65.2364 78.8275 66.4909V63.3546C78.8275 62.1 77.7737 61.2637 76.7198 61.2637ZM89.366 61.2637C88.1014 61.2637 87.2583 62.1 87.2583 63.3546V66.4909C87.2583 65.2364 88.1014 64.4 89.366 64.4C90.6306 64.4 91.4737 65.2364 91.4737 66.4909V63.3546C91.4737 62.1 90.4198 61.2637 89.366 61.2637ZM102.012 61.2637C100.748 61.2637 99.9044 62.1 99.9044 63.3546V66.4909C99.9044 65.2364 100.748 64.4 102.012 64.4C103.277 64.4 104.12 65.2364 104.12 66.4909V63.3546C104.12 62.1 103.066 61.2637 102.012 61.2637ZM110.443 61.2637C109.178 61.2637 108.335 62.1 108.335 63.3546V66.4909C108.335 65.2364 109.178 64.4 110.443 64.4C111.708 64.4 112.551 65.2364 112.551 66.4909V63.3546C112.551 62.1 111.497 61.2637 110.443 61.2637ZM123.089 61.2637C121.824 61.2637 120.981 62.1 120.981 63.3546V66.4909C120.981 65.2364 121.824 64.4 123.089 64.4C124.354 64.4 125.197 65.2364 125.197 66.4909V63.3546C125.197 62.1 124.143 61.2637 123.089 61.2637Z" fill="#726571"/>
<path d="M115.712 26.5543C115.08 26.5543 114.658 26.1362 114.658 25.5089V24.4634C114.658 23.8362 115.08 23.418 115.712 23.418C116.344 23.418 116.766 23.8362 116.766 24.4634V25.5089C116.766 26.1362 116.344 26.5543 115.712 26.5543Z" fill="black"/>
<path d="M21.9198 77.991C20.6552 77.991 19.8121 78.8273 19.8121 80.0819V83.2182C19.8121 81.9637 20.6552 81.1273 21.9198 81.1273C23.1844 81.1273 24.0275 81.9637 24.0275 83.2182V80.0819C24.0275 78.8273 22.9737 77.991 21.9198 77.991ZM55.6429 92.6273C54.3783 92.6273 53.5352 93.4637 53.5352 94.7182V97.8546C53.5352 96.6001 54.3783 95.7637 55.6429 95.7637C56.9075 95.7637 57.7506 96.6001 57.7506 97.8546V94.7182C57.7506 93.4637 56.6968 92.6273 55.6429 92.6273ZM55.6429 77.991C54.3783 77.991 53.5352 78.8273 53.5352 80.0819V83.2182C53.5352 81.9637 54.3783 81.1273 55.6429 81.1273C56.9075 81.1273 57.7506 81.9637 57.7506 83.2182V80.0819C57.7506 78.8273 56.6968 77.991 55.6429 77.991ZM89.366 92.6273C88.1014 92.6273 87.2583 93.4637 87.2583 94.7182V97.8546C87.2583 96.6001 88.1014 95.7637 89.366 95.7637C90.6306 95.7637 91.4737 96.6001 91.4737 97.8546V94.7182C91.4737 93.4637 90.4198 92.6273 89.366 92.6273ZM89.366 77.991C88.1014 77.991 87.2583 78.8273 87.2583 80.0819V83.2182C87.2583 81.9637 88.1014 81.1273 89.366 81.1273C90.6306 81.1273 91.4737 81.9637 91.4737 83.2182V80.0819C91.4737 78.8273 90.4198 77.991 89.366 77.991ZM123.089 92.6273C121.824 92.6273 120.981 93.4637 120.981 94.7182V97.8546C120.981 96.6001 121.824 95.7637 123.089 95.7637C124.354 95.7637 125.197 96.6001 125.197 97.8546V94.7182C125.197 93.4637 124.143 92.6273 123.089 92.6273ZM123.089 77.991C121.824 77.991 120.981 78.8273 120.981 80.0819V83.2182C120.981 81.9637 121.824 81.1273 123.089 81.1273C124.354 81.1273 125.197 81.9637 125.197 83.2182V80.0819C125.197 78.8273 124.143 77.991 123.089 77.991Z" fill="#726571"/>
<path d="M24.0275 87.1908H19.8121C19.1798 87.1908 18.7582 86.7727 18.7582 86.1454V79.8727C18.7582 78.1999 20.2336 76.7363 21.9198 76.7363C23.6059 76.7363 25.0813 78.1999 25.0813 79.8727V86.1454C25.0813 86.7727 24.6598 87.1908 24.0275 87.1908ZM20.8659 85.0999H22.9736V79.8727C22.9736 79.2454 22.5521 78.8272 21.9198 78.8272C21.2875 78.8272 20.8659 79.2454 20.8659 79.8727V85.0999ZM24.0275 70.4636H19.8121C19.1798 70.4636 18.7582 70.0454 18.7582 69.4181V63.1454C18.7582 61.4727 20.2336 60.009 21.9198 60.009C23.6059 60.009 25.0813 61.4727 25.0813 63.1454V69.4181C25.0813 70.0454 24.6598 70.4636 24.0275 70.4636ZM20.8659 68.3727H22.9736V63.1454C22.9736 62.5181 22.5521 62.0999 21.9198 62.0999C21.2875 62.0999 20.8659 62.5181 20.8659 63.1454V68.3727ZM57.7505 70.4636H53.5352C52.9029 70.4636 52.4813 70.0454 52.4813 69.4181V63.1454C52.4813 61.4727 53.9567 60.009 55.6429 60.009C57.329 60.009 58.8044 61.4727 58.8044 63.1454V69.4181C58.8044 70.0454 58.3829 70.4636 57.7505 70.4636ZM54.589 68.3727H56.6967V63.1454C56.6967 62.5181 56.2752 62.0999 55.6429 62.0999C55.0106 62.0999 54.589 62.5181 54.589 63.1454V68.3727ZM36.6736 70.4636H32.4582C31.8259 70.4636 31.4044 70.0454 31.4044 69.4181V63.1454C31.4044 61.4727 32.8798 60.009 34.5659 60.009C36.2521 60.009 37.7275 61.4727 37.7275 63.1454V69.4181C37.7275 70.0454 37.3059 70.4636 36.6736 70.4636ZM33.5121 68.3727H35.6198V63.1454C35.6198 62.5181 35.1982 62.0999 34.5659 62.0999C33.9336 62.0999 33.5121 62.5181 33.5121 63.1454V68.3727ZM45.1044 70.4636H40.889C40.2567 70.4636 39.8352 70.0454 39.8352 69.4181V63.1454C39.8352 61.4727 41.3106 60.009 42.9967 60.009C44.6829 60.009 46.1582 61.4727 46.1582 63.1454V69.4181C46.1582 70.0454 45.7367 70.4636 45.1044 70.4636ZM41.9429 68.3727H44.0506V63.1454C44.0506 62.5181 43.629 62.0999 42.9967 62.0999C42.3644 62.0999 41.9429 62.5181 41.9429 63.1454V68.3727ZM70.3967 70.4636H66.1813C65.549 70.4636 65.1275 70.0454 65.1275 69.4181V63.1454C65.1275 61.4727 66.6029 60.009 68.289 60.009C69.9752 60.009 71.4506 61.4727 71.4506 63.1454V69.4181C71.4506 70.0454 71.029 70.4636 70.3967 70.4636ZM67.2352 68.3727H69.3429V63.1454C69.3429 62.5181 68.9213 62.0999 68.289 62.0999C67.6567 62.0999 67.2352 62.5181 67.2352 63.1454V68.3727ZM78.8275 70.4636H74.6121C73.9798 70.4636 73.5582 70.0454 73.5582 69.4181V63.1454C73.5582 61.4727 75.0336 60.009 76.7198 60.009C78.4059 60.009 79.8813 61.4727 79.8813 63.1454V69.4181C79.8813 70.0454 79.4598 70.4636 78.8275 70.4636ZM75.6659 68.3727H77.7736V63.1454C77.7736 62.5181 77.3521 62.0999 76.7198 62.0999C76.0875 62.0999 75.6659 62.5181 75.6659 63.1454V68.3727ZM112.551 70.4636H108.335C107.703 70.4636 107.281 70.0454 107.281 69.4181V63.1454C107.281 61.4727 108.757 60.009 110.443 60.009C112.129 60.009 113.604 61.4727 113.604 63.1454V69.4181C113.604 70.0454 113.183 70.4636 112.551 70.4636ZM109.389 68.3727H111.497V63.1454C111.497 62.5181 111.075 62.0999 110.443 62.0999C109.811 62.0999 109.389 62.5181 109.389 63.1454V68.3727ZM125.197 70.4636H120.981C120.349 70.4636 119.927 70.0454 119.927 69.4181V63.1454C119.927 61.4727 121.403 60.009 123.089 60.009C124.775 60.009 126.251 61.4727 126.251 63.1454V69.4181C126.251 70.0454 125.829 70.4636 125.197 70.4636ZM122.035 68.3727H124.143V63.1454C124.143 62.5181 123.721 62.0999 123.089 62.0999C122.457 62.0999 122.035 62.5181 122.035 63.1454V68.3727ZM91.4736 70.4636H87.2582C86.6259 70.4636 86.2044 70.0454 86.2044 69.4181V63.1454C86.2044 61.4727 87.6798 60.009 89.3659 60.009C91.0521 60.009 92.5275 61.4727 92.5275 63.1454V69.4181C92.5275 70.0454 92.1059 70.4636 91.4736 70.4636ZM88.3121 68.3727H90.4198V63.1454C90.4198 62.5181 89.9982 62.0999 89.3659 62.0999C88.7336 62.0999 88.3121 62.5181 88.3121 63.1454V68.3727ZM104.12 70.4636H99.9044C99.2721 70.4636 98.8505 70.0454 98.8505 69.4181V63.1454C98.8505 61.4727 100.326 60.009 102.012 60.009C103.698 60.009 105.174 61.4727 105.174 63.1454V69.4181C105.174 70.0454 104.752 70.4636 104.12 70.4636ZM100.958 68.3727H103.066V63.1454C103.066 62.5181 102.644 62.0999 102.012 62.0999C101.38 62.0999 100.958 62.5181 100.958 63.1454V68.3727ZM57.7505 101.827H53.5352C52.9029 101.827 52.4813 101.409 52.4813 100.782V94.509C52.4813 92.8363 53.9567 91.3727 55.6429 91.3727C57.329 91.3727 58.8044 92.8363 58.8044 94.509V100.782C58.8044 101.409 58.3829 101.827 57.7505 101.827ZM54.589 99.7363H56.6967V94.509C56.6967 93.8818 56.2752 93.4636 55.6429 93.4636C55.0106 93.4636 54.589 93.8818 54.589 94.509V99.7363ZM125.197 101.827H120.981C120.349 101.827 119.927 101.409 119.927 100.782V94.509C119.927 92.8363 121.403 91.3727 123.089 91.3727C124.775 91.3727 126.251 92.8363 126.251 94.509V100.782C126.251 101.409 125.829 101.827 125.197 101.827ZM122.035 99.7363H124.143V94.509C124.143 93.8818 123.721 93.4636 123.089 93.4636C122.457 93.4636 122.035 93.8818 122.035 94.509V99.7363ZM91.4736 101.827H87.2582C86.6259 101.827 86.2044 101.409 86.2044 100.782V94.509C86.2044 92.8363 87.6798 91.3727 89.3659 91.3727C91.0521 91.3727 92.5275 92.8363 92.5275 94.509V100.782C92.5275 101.409 92.1059 101.827 91.4736 101.827ZM88.3121 99.7363H90.4198V94.509C90.4198 93.8818 89.9982 93.4636 89.3659 93.4636C88.7336 93.4636 88.3121 93.8818 88.3121 94.509V99.7363ZM57.7505 87.1908H53.5352C52.9029 87.1908 52.4813 86.7727 52.4813 86.1454V79.8727C52.4813 78.1999 53.9567 76.7363 55.6429 76.7363C57.329 76.7363 58.8044 78.1999 58.8044 79.8727V86.1454C58.8044 86.7727 58.3829 87.1908 57.7505 87.1908ZM54.589 85.0999H56.6967V79.8727C56.6967 79.2454 56.2752 78.8272 55.6429 78.8272C55.0106 78.8272 54.589 79.2454 54.589 79.8727V85.0999ZM125.197 87.1908H120.981C120.349 87.1908 119.927 86.7727 119.927 86.1454V79.8727C119.927 78.1999 121.403 76.7363 123.089 76.7363C124.775 76.7363 126.251 78.1999 126.251 79.8727V86.1454C126.251 86.7727 125.829 87.1908 125.197 87.1908ZM122.035 85.0999H124.143V79.8727C124.143 79.2454 123.721 78.8272 123.089 78.8272C122.457 78.8272 122.035 79.2454 122.035 79.8727V85.0999ZM91.4736 87.1908H87.2582C86.6259 87.1908 86.2044 86.7727 86.2044 86.1454V79.8727C86.2044 78.1999 87.6798 76.7363 89.3659 76.7363C91.0521 76.7363 92.5275 78.1999 92.5275 79.8727V86.1454C92.5275 86.7727 92.1059 87.1908 91.4736 87.1908ZM88.3121 85.0999H90.4198V79.8727C90.4198 79.2454 89.9982 78.8272 89.3659 78.8272C88.7336 78.8272 88.3121 79.2454 88.3121 79.8727V85.0999Z" fill="black"/>
<path d="M34.5659 38.2637C33.3013 38.2637 32.4583 39.1 32.4583 40.3546V43.4909C32.4583 42.2364 33.3013 41.4 34.5659 41.4C35.8306 41.4 36.6736 42.2364 36.6736 43.4909V40.3546C36.6736 39.1 35.6198 38.2637 34.5659 38.2637ZM42.9967 38.2637C41.7321 38.2637 40.889 39.1 40.889 40.3546V43.4909C40.889 42.2364 41.7321 41.4 42.9967 41.4C44.2613 41.4 45.1044 42.2364 45.1044 43.4909V40.3546C45.1044 39.1 44.0506 38.2637 42.9967 38.2637ZM55.6429 38.2637C54.3783 38.2637 53.5352 39.1 53.5352 40.3546V43.4909C53.5352 42.2364 54.3783 41.4 55.6429 41.4C56.9075 41.4 57.7506 42.2364 57.7506 43.4909V40.3546C57.7506 39.1 56.6967 38.2637 55.6429 38.2637ZM76.7198 38.2637C75.4552 38.2637 74.6121 39.1 74.6121 40.3546V43.4909C74.6121 42.2364 75.4552 41.4 76.7198 41.4C77.9844 41.4 78.8275 42.2364 78.8275 43.4909V40.3546C78.8275 39.1 77.7736 38.2637 76.7198 38.2637ZM89.366 38.2637C88.1013 38.2637 87.2583 39.1 87.2583 40.3546V43.4909C87.2583 42.2364 88.1013 41.4 89.366 41.4C90.6306 41.4 91.4736 42.2364 91.4736 43.4909V40.3546C91.4736 39.1 90.4198 38.2637 89.366 38.2637ZM102.012 38.2637C100.747 38.2637 99.9044 39.1 99.9044 40.3546V43.4909C99.9044 42.2364 100.747 41.4 102.012 41.4C103.277 41.4 104.12 42.2364 104.12 43.4909V40.3546C104.12 39.1 103.066 38.2637 102.012 38.2637ZM110.443 38.2637C109.178 38.2637 108.335 39.1 108.335 40.3546V43.4909C108.335 42.2364 109.178 41.4 110.443 41.4C111.707 41.4 112.551 42.2364 112.551 43.4909V40.3546C112.551 39.1 111.497 38.2637 110.443 38.2637ZM123.089 38.2637C121.824 38.2637 120.981 39.1 120.981 40.3546V43.4909C120.981 42.2364 121.824 41.4 123.089 41.4C124.354 41.4 125.197 42.2364 125.197 43.4909V40.3546C125.197 39.1 124.143 38.2637 123.089 38.2637Z" fill="#726571"/>
<path d="M36.6737 45.3727H32.4583C31.826 45.3727 31.4044 44.9545 31.4044 44.3272V40.1454C31.4044 38.4727 32.8798 37.009 34.566 37.009C36.2521 37.009 37.7275 38.4727 37.7275 40.1454V44.3272C37.7275 44.9545 37.306 45.3727 36.6737 45.3727ZM33.5121 43.2818H35.6198V40.1454C35.6198 39.5181 35.1983 39.0999 34.566 39.0999C33.9337 39.0999 33.5121 39.5181 33.5121 40.1454V43.2818ZM57.7506 45.3727H53.5352C52.9029 45.3727 52.4813 44.9545 52.4813 44.3272V40.1454C52.4813 38.4727 53.9567 37.009 55.6429 37.009C57.329 37.009 58.8044 38.4727 58.8044 40.1454V44.3272C58.8044 44.9545 58.3829 45.3727 57.7506 45.3727ZM54.589 43.2818H56.6967V40.1454C56.6967 39.5181 56.2752 39.0999 55.6429 39.0999C55.0106 39.0999 54.589 39.5181 54.589 40.1454V43.2818ZM78.8275 45.3727H74.6121C73.9798 45.3727 73.5583 44.9545 73.5583 44.3272V40.1454C73.5583 38.4727 75.0337 37.009 76.7198 37.009C78.406 37.009 79.8814 38.4727 79.8814 40.1454V44.3272C79.8814 44.9545 79.4598 45.3727 78.8275 45.3727ZM75.666 43.2818H77.7737V40.1454C77.7737 39.5181 77.3521 39.0999 76.7198 39.0999C76.0875 39.0999 75.666 39.5181 75.666 40.1454V43.2818ZM91.4737 45.3727H87.2583C86.626 45.3727 86.2044 44.9545 86.2044 44.3272V40.1454C86.2044 38.4727 87.6798 37.009 89.366 37.009C91.0521 37.009 92.5275 38.4727 92.5275 40.1454V44.3272C92.5275 44.9545 92.106 45.3727 91.4737 45.3727ZM88.3121 43.2818H90.4198V40.1454C90.4198 39.5181 89.9983 39.0999 89.366 39.0999C88.7337 39.0999 88.3121 39.5181 88.3121 40.1454V43.2818ZM112.551 45.3727H108.335C107.703 45.3727 107.281 44.9545 107.281 44.3272V40.1454C107.281 38.4727 108.757 37.009 110.443 37.009C112.129 37.009 113.604 38.4727 113.604 40.1454V44.3272C113.604 44.9545 113.183 45.3727 112.551 45.3727ZM109.389 43.2818H111.497V40.1454C111.497 39.5181 111.075 39.0999 110.443 39.0999C109.811 39.0999 109.389 39.5181 109.389 40.1454V43.2818ZM125.197 45.3727H120.981C120.349 45.3727 119.928 44.9545 119.928 44.3272V40.1454C119.928 38.4727 121.403 37.009 123.089 37.009C124.775 37.009 126.251 38.4727 126.251 40.1454V44.3272C126.251 44.9545 125.829 45.3727 125.197 45.3727ZM122.035 43.2818H124.143V40.1454C124.143 39.5181 123.721 39.0999 123.089 39.0999C122.457 39.0999 122.035 39.5181 122.035 40.1454V43.2818ZM104.12 45.3727H99.9044C99.2721 45.3727 98.8506 44.9545 98.8506 44.3272V40.1454C98.8506 38.4727 100.326 37.009 102.012 37.009C103.698 37.009 105.174 38.4727 105.174 40.1454V44.3272C105.174 44.9545 104.752 45.3727 104.12 45.3727ZM100.958 43.2818H103.066V40.1454C103.066 39.5181 102.644 39.0999 102.012 39.0999C101.38 39.0999 100.958 39.5181 100.958 40.1454V43.2818ZM45.1044 45.3727H40.889C40.2567 45.3727 39.8352 44.9545 39.8352 44.3272V40.1454C39.8352 38.4727 41.3106 37.009 42.9967 37.009C44.6829 37.009 46.1583 38.4727 46.1583 40.1454V44.3272C46.1583 44.9545 45.7367 45.3727 45.1044 45.3727ZM41.9429 43.2818H44.0506V40.1454C44.0506 39.5181 43.629 39.0999 42.9967 39.0999C42.3644 39.0999 41.9429 39.5181 41.9429 40.1454V43.2818Z" fill="black"/>
<path d="M68.289 38.2637C67.0244 38.2637 66.1813 39.1 66.1813 40.3546V43.4909C66.1813 42.2364 67.0244 41.4 68.289 41.4C69.5536 41.4 70.3967 42.2364 70.3967 43.4909V40.3546C70.3967 39.1 69.3429 38.2637 68.289 38.2637Z" fill="#726571"/>
<path d="M70.3967 45.3727H66.1813C65.549 45.3727 65.1275 44.9545 65.1275 44.3272V40.1454C65.1275 38.4727 66.6029 37.009 68.289 37.009C69.9752 37.009 71.4506 38.4727 71.4506 40.1454V44.3272C71.4506 44.9545 71.029 45.3727 70.3967 45.3727ZM67.2352 43.2818H69.3429V40.1454C69.3429 39.5181 68.9213 39.0999 68.289 39.0999C67.6567 39.0999 67.2352 39.5181 67.2352 40.1454V43.2818Z" fill="black"/>
</svg>
