<svg width="117" height="117" viewBox="0 0 117 117" fill="none" xmlns="http://www.w3.org/2000/svg">
<path d="M3.03537 62.8407L14.6106 22.8097H102.389L113.482 62.8407H3.03537Z" fill="#FADEB9"/>
<path d="M89.3672 38.2433H28.115L21.8451 57.5353H95.6371L89.3672 38.2433Z" fill="#71CE96"/>
<path d="M96.1196 26.6681H19.9161L9.30545 58.0177L21.363 58.5L27.6329 37.761H89.3674L96.1196 58.5H106.73L96.1196 26.6681Z" fill="#ED6D64"/>
<path d="M6.89389 78.2744H110.106V107.212H6.89389V78.2744Z" fill="#FADEB9"/>
<path fill-rule="evenodd" clip-rule="evenodd" d="M108.177 80.2036H8.82309V105.283H108.177V80.2036ZM6.89389 78.2744V107.212H110.106V78.2744H6.89389Z" fill="black"/>
<path d="M2.07074 61.8761H114.929V76.3451C114.929 78.4761 113.202 80.2035 111.071 80.2035H5.92915C3.79821 80.2035 2.07074 78.4761 2.07074 76.3451V61.8761Z" fill="#FADEB9"/>
<path fill-rule="evenodd" clip-rule="evenodd" d="M113 63.8053H3.99994V76.3451C3.99994 77.4106 4.86368 78.2743 5.92915 78.2743H111.071C112.136 78.2743 113 77.4106 113 76.3451V63.8053ZM2.07074 61.8761V76.3451C2.07074 78.4761 3.79821 80.2035 5.92915 80.2035H111.071C113.202 80.2035 114.929 78.4761 114.929 76.3451V61.8761H2.07074Z" fill="black"/>
<path fill-rule="evenodd" clip-rule="evenodd" d="M102.262 26.0158C101.764 24.3969 100.269 23.2921 98.5747 23.2921H18.4245C16.7307 23.2921 15.2349 24.3969 14.7367 26.0158L4.17021 60.3571C4.0571 60.7247 3.97186 61.1158 4.08568 61.4832C4.32929 62.2696 5.06234 62.8408 5.92879 62.8408H111.07C111.937 62.8408 112.67 62.2696 112.914 61.4832C113.027 61.1158 112.942 60.7247 112.829 60.3571L102.262 26.0158ZM16.5366 21.3629C14.8231 21.3629 13.3149 22.493 12.8335 24.1375L2.22573 60.3808C2.12269 60.7329 2.05753 61.0999 2.10948 61.463C2.37702 63.3327 3.98506 64.77 5.92879 64.77H111.07C113.014 64.77 114.622 63.3327 114.89 61.463C114.942 61.0999 114.877 60.7329 114.773 60.3808L104.166 24.1375C103.684 22.493 102.176 21.3629 100.463 21.3629H16.5366Z" fill="black"/>
<path fill-rule="evenodd" clip-rule="evenodd" d="M97.9195 29.364C97.3825 27.8084 95.918 26.7646 94.2722 26.7646H22.7277C21.082 26.7646 19.6174 27.8084 19.0805 29.364L9.80086 56.2484C9.66107 56.6534 9.54658 57.1007 9.7372 57.4844C10.0061 58.0258 10.6141 58.4035 11.321 58.4035H105.679C106.386 58.4035 106.994 58.0258 107.263 57.4844C107.453 57.1007 107.339 56.6534 107.199 56.2484L97.9195 29.364ZM21.0406 25.2212C19.3734 25.2212 17.8948 26.292 17.3747 27.876L8.0509 56.2737C7.92336 56.6622 7.83645 57.0736 7.92648 57.4724C8.24511 58.8839 9.64382 59.9469 11.321 59.9469H105.679C107.356 59.9469 108.755 58.8839 109.073 57.4724C109.164 57.0736 109.077 56.6622 108.949 56.2737L99.6252 27.876C99.1051 26.292 97.6265 25.2212 95.9593 25.2212H21.0406Z" fill="black"/>
<path d="M39.6902 89.8496C39.6902 87.7187 41.4177 85.9912 43.5486 85.9912H73.4513C75.5822 85.9912 77.3097 87.7187 77.3097 89.8496V107.212H39.6902V89.8496Z" fill="#ED6D64"/>
<path fill-rule="evenodd" clip-rule="evenodd" d="M73.4513 87.9204H43.5486C42.4832 87.9204 41.6194 88.7841 41.6194 89.8496V105.283H75.3805V89.8496C75.3805 88.7841 74.5168 87.9204 73.4513 87.9204ZM43.5486 85.9912C41.4177 85.9912 39.6902 87.7187 39.6902 89.8496V107.212H77.3097V89.8496C77.3097 87.7187 75.5822 85.9912 73.4513 85.9912H43.5486Z" fill="black"/>
<path d="M45.478 94.6726C45.478 92.5417 47.2055 90.8142 49.3364 90.8142H67.6638C69.7948 90.8142 71.5223 92.5417 71.5223 94.6726V107.212H45.478V94.6726Z" fill="#8D7E8A"/>
<path fill-rule="evenodd" clip-rule="evenodd" d="M67.6638 92.7434H49.3364C48.2709 92.7434 47.4072 93.6071 47.4072 94.6726V105.283H69.593V94.6726C69.593 93.6071 68.7293 92.7434 67.6638 92.7434ZM49.3364 90.8142C47.2055 90.8142 45.478 92.5417 45.478 94.6726V107.212H71.5223V94.6726C71.5223 92.5417 69.7948 90.8142 67.6638 90.8142H49.3364Z" fill="black"/>
<path fill-rule="evenodd" clip-rule="evenodd" d="M19.0601 25.6216L27.6141 36.3141H88.9037L97.4578 25.6216L108.048 58.9823H8.46942L19.0601 25.6216ZM88.667 38.2433H27.8828L22.6336 57.0531H94.7911L88.667 38.2433ZM96.8199 57.0531H105.412L96.7106 29.6438L90.4457 37.4749L96.8199 57.0531ZM20.6306 57.0531L26.0886 37.4954L19.8073 29.6438L11.106 57.0531H20.6306Z" fill="black"/>
<path d="M2.07074 109.142C2.07074 107.011 3.79821 105.283 5.92915 105.283H111.071C113.202 105.283 114.929 107.011 114.929 109.142C114.929 111.273 113.202 113 111.071 113H5.92915C3.79821 113 2.07074 111.273 2.07074 109.142Z" fill="#ED6D64"/>
<path fill-rule="evenodd" clip-rule="evenodd" d="M111.071 107.212H5.92915C4.86368 107.212 3.99994 108.076 3.99994 109.142C3.99994 110.207 4.86368 111.071 5.92915 111.071H111.071C112.136 111.071 113 110.207 113 109.142C113 108.076 112.136 107.212 111.071 107.212ZM5.92915 105.283C3.79821 105.283 2.07074 107.011 2.07074 109.142C2.07074 111.273 3.79821 113 5.92915 113H111.071C113.202 113 114.929 111.273 114.929 109.142C114.929 107.011 113.202 105.283 111.071 105.283H5.92915Z" fill="black"/>
<path d="M26.1859 7.8584C26.1859 6.79293 27.0497 5.9292 28.1151 5.9292H36.7966C37.862 5.9292 38.7258 6.79293 38.7258 7.8584V13.646C38.7258 14.7115 37.862 15.5752 36.7966 15.5752H28.1151C27.0497 15.5752 26.1859 14.7115 26.1859 13.646V7.8584Z" fill="#ED6D64"/>
<path fill-rule="evenodd" clip-rule="evenodd" d="M36.7966 7.8584H28.1151L28.1151 13.646H36.7966V7.8584ZM28.1151 5.9292C27.0497 5.9292 26.1859 6.79293 26.1859 7.8584V13.646C26.1859 14.7115 27.0497 15.5752 28.1151 15.5752H36.7966C37.862 15.5752 38.7258 14.7115 38.7258 13.646V7.8584C38.7258 6.79293 37.862 5.9292 36.7966 5.9292H28.1151Z" fill="black"/>
<path fill-rule="evenodd" clip-rule="evenodd" d="M27.1506 4C27.6833 4 28.1152 4.70992 28.1152 5.58565L28.1152 21.7064C28.1152 22.5821 27.6833 23.292 27.1506 23.292C26.6179 23.292 26.186 22.5821 26.186 21.7064L26.186 5.58565C26.186 4.70992 26.6179 4 27.1506 4Z" fill="black"/>
<path d="M54.1591 7.8584C54.1591 6.79293 55.0229 5.9292 56.0883 5.9292H64.7697C65.8352 5.9292 66.6989 6.79293 66.6989 7.8584V13.646C66.6989 14.7115 65.8352 15.5752 64.7697 15.5752H56.0883C55.0229 15.5752 54.1591 14.7115 54.1591 13.646V7.8584Z" fill="#ED6D64"/>
<path fill-rule="evenodd" clip-rule="evenodd" d="M64.7697 7.8584H56.0883L56.0883 13.646H64.7697V7.8584ZM56.0883 5.9292C55.0229 5.9292 54.1591 6.79293 54.1591 7.8584V13.646C54.1591 14.7115 55.0229 15.5752 56.0883 15.5752H64.7697C65.8352 15.5752 66.6989 14.7115 66.6989 13.646V7.8584C66.6989 6.79293 65.8352 5.9292 64.7697 5.9292H56.0883Z" fill="black"/>
<path fill-rule="evenodd" clip-rule="evenodd" d="M55.1238 4C55.6565 4 56.0884 4.70992 56.0884 5.58565L56.0884 21.7064C56.0884 22.5821 55.6565 23.292 55.1238 23.292C54.591 23.292 54.1592 22.5821 54.1592 21.7064L54.1592 5.58565C54.1592 4.70992 54.591 4 55.1238 4Z" fill="black"/>
<path d="M83.0975 7.8584C83.0975 6.79293 83.9612 5.9292 85.0267 5.9292H93.7081C94.7736 5.9292 95.6373 6.79293 95.6373 7.8584V13.646C95.6373 14.7115 94.7736 15.5752 93.7081 15.5752H85.0267C83.9612 15.5752 83.0975 14.7115 83.0975 13.646V7.8584Z" fill="#ED6D64"/>
<path fill-rule="evenodd" clip-rule="evenodd" d="M93.7081 7.8584H85.0267L85.0267 13.646H93.7081V7.8584ZM85.0267 5.9292C83.9612 5.9292 83.0975 6.79293 83.0975 7.8584V13.646C83.0975 14.7115 83.9612 15.5752 85.0267 15.5752H93.7081C94.7736 15.5752 95.6373 14.7115 95.6373 13.646V7.8584C95.6373 6.79293 94.7736 5.9292 93.7081 5.9292H85.0267Z" fill="black"/>
<path fill-rule="evenodd" clip-rule="evenodd" d="M84.0621 4C84.5949 4 85.0267 4.70992 85.0267 5.58565L85.0267 21.7064C85.0267 22.5821 84.5949 23.292 84.0621 23.292C83.5294 23.292 83.0975 22.5821 83.0975 21.7064L83.0975 5.58565C83.0975 4.70992 83.5294 4 84.0621 4Z" fill="black"/>
</svg>
