<svg width="135" height="106" viewBox="0 0 135 106" fill="none" xmlns="http://www.w3.org/2000/svg">
<g clip-path="url(#clip0_47_8022)">
<path d="M50.9777 54.0193V104.981H87.2464V54.0193H50.9777ZM83.2165 103.962H55.0076V81.7424C55.0076 75.2193 58.2315 69.3077 63.6718 65.6385L69.1121 62.1731L74.5524 65.6385C79.9927 69.1039 83.2165 75.2193 83.2165 81.7424V103.962Z" fill="#FEDAB3"/>
<path d="M97.3208 60.1345V104.981H106.589V90.7114C106.589 86.023 110.821 84.5961 110.821 84.5961C110.821 84.5961 114.649 86.023 114.649 90.7114V104.981H125.731V60.1345H97.3208ZM12.4924 60.1345V104.981H23.5745V90.7114C23.5745 86.023 27.8059 84.5961 27.8059 84.5961C27.8059 84.5961 31.6342 86.023 31.6342 90.7114V104.981H40.7014V60.1345H12.4924Z" fill="#FDD2AF"/>
<path d="M97.321 37.7114H127.545V43.8268H10.6792V37.7114H40.9031" fill="#FEDAB3"/>
<path d="M10.6792 37.7114H14.7091V43.8268H10.6792V37.7114ZM36.8732 37.7114H40.9031V43.8268H36.8732V37.7114Z" fill="#EEB694"/>
<path opacity="0.7" d="M123.515 37.7114H127.545V43.8268H123.515V37.7114Z" fill="white"/>
<path d="M50.9777 29.5576H87.2464V43.8268H50.9777V29.5576Z" fill="#FEDAB3"/>
<path d="M50.9777 29.5576V33.6345H83.015V43.8268H87.0449V29.5576H50.9777Z" fill="#EEB694"/>
<path d="M12.6942 54.0192V43.8269H125.731V54.0192" fill="#FDD2AF"/>
<path d="M12.6942 43.8269H125.731V47.9038H12.6942V43.8269ZM97.321 60.1346H125.731V64.2115H97.321V60.1346ZM12.6942 60.1346H41.1046V64.2115H12.6942V60.1346ZM50.9777 54.0192H87.2464V58.0961H50.9777V54.0192Z" fill="#EEB694"/>
<path opacity="0.7" d="M50.9777 54.0193H55.0076V104.981H50.9777V54.0193Z" fill="white"/>
<path d="M83.2166 54.0193H87.2464V104.981H83.2166V54.0193Z" fill="#EEB694"/>
<path d="M50.9777 43.8269H87.2464V54.0192H50.9777V43.8269Z" fill="#E8B795"/>
<path d="M50.9777 43.8269H87.2464V47.9038H50.9777V43.8269Z" fill="#C59878"/>
<path d="M127.545 44.8462H10.6792C10.0747 44.8462 9.67175 44.4385 9.67175 43.827V37.7116C9.67175 37.1001 10.0747 36.6924 10.6792 36.6924H40.9031C41.5076 36.6924 41.9106 37.1001 41.9106 37.7116C41.9106 38.3232 41.5076 38.7308 40.9031 38.7308H11.6867V42.8078H126.537V38.7308H97.321C96.7165 38.7308 96.3135 38.3232 96.3135 37.7116C96.3135 37.1001 96.7165 36.6924 97.321 36.6924H127.343C127.948 36.6924 128.351 37.1001 128.351 37.7116V43.827C128.552 44.4385 128.149 44.8462 127.545 44.8462Z" fill="black"/>
<path d="M88.2538 54.0193H131.575L129.56 60.1347H88.2538" fill="#DDA581"/>
<path opacity="0.7" d="M121.701 43.8269H125.731V54.0192H121.701V43.8269ZM121.701 60.1346H125.731V104.981H121.701V60.1346ZM127.545 54.0192L125.53 60.1346H129.56L131.574 54.0192H127.545Z" fill="white"/>
<path d="M87.2463 29.5576H97.321V104.981H87.2463V29.5576Z" fill="#FEDAB3"/>
<path d="M49.9702 60.1347H8.66428L6.64935 54.0193H50.9777" fill="#DDA581"/>
<path d="M12.4924 60.1346H16.5223V104.981H12.4924V60.1346ZM36.6715 60.1346H40.7014V104.981H36.6715V60.1346ZM12.6939 43.8269H16.7238V54.0192H12.6939V43.8269ZM36.873 43.8269H40.9029V54.0192H36.873V43.8269Z" fill="#EEB694"/>
<path d="M6.64935 54.0193L8.66428 60.1347H12.6941L10.6792 54.0193H6.64935Z" fill="#B7856C"/>
<path d="M40.9031 29.5576H50.9777V104.981H40.9031V29.5576Z" fill="#FEDAB3"/>
<path opacity="0.7" d="M93.2912 29.5576H97.321V104.981H93.2912V29.5576ZM46.9479 29.5576H50.9777V104.981H46.9479V29.5576Z" fill="white"/>
<path d="M40.9031 54.0193H50.9777V60.1347H40.9031V54.0193Z" fill="#E8B795"/>
<path opacity="0.7" d="M46.9479 54.0193H50.9777V60.1347H46.9479V54.0193Z" fill="white"/>
<path d="M87.2463 54.0193H97.321V60.1347H87.2463V54.0193Z" fill="#FCC49D"/>
<path opacity="0.7" d="M93.2911 54.0193H97.321V60.1347H93.2911V54.0193Z" fill="white"/>
<path d="M19.7463 80.7228C19.7463 75.6266 22.5672 70.9382 27.2016 68.492C27.6045 68.2881 28.0075 68.2881 28.4105 68.492C33.0448 70.7343 35.8657 75.4228 35.8657 80.7228M102.358 80.7228C102.358 75.6266 105.179 70.9382 109.814 68.492C110.216 68.2881 110.619 68.2881 111.022 68.492C115.657 70.7343 118.478 75.4228 118.478 80.7228" fill="#DDA581"/>
<path d="M27.2016 72.5689C27.6045 72.3651 28.0075 72.3651 28.4105 72.5689C31.6344 74.1997 34.0523 77.2574 35.2613 80.7228H35.8657C35.8657 75.6266 33.0448 70.9382 28.4105 68.492C28.0075 68.2881 27.6045 68.2881 27.2016 68.492C22.5672 70.7343 19.7463 75.4228 19.7463 80.7228H20.3508C21.3583 77.2574 23.7762 74.1997 27.2016 72.5689ZM109.814 72.5689C110.216 72.3651 110.619 72.3651 111.022 72.5689C114.246 74.1997 116.664 77.2574 117.873 80.7228H118.478C118.478 75.6266 115.657 70.9382 111.022 68.492C110.619 68.2881 110.216 68.2881 109.814 68.492C105.179 70.7343 102.358 75.4228 102.358 80.7228H102.963C103.97 77.2574 106.388 74.1997 109.814 72.5689Z" fill="#B7856C"/>
<path d="M42.918 17.3269H48.9628V29.5577H42.918V17.3269ZM48.9628 23.4423H89.2613V29.5577H48.9628V23.4423Z" fill="#FEDAB3"/>
<path d="M85.2314 23.4424H89.2613V29.5578H85.2314V23.4424Z" fill="#EEB694"/>
<path opacity="0.7" d="M48.9628 23.4424H52.9926V29.5578H48.9628V23.4424Z" fill="white"/>
<path d="M42.918 18.3462V14.2692C42.918 12.6385 44.3285 11.2115 45.9404 11.2115C47.5524 11.2115 48.9628 12.6385 48.9628 14.2692V18.3462" fill="#FCC49D"/>
<path d="M89.2613 17.3269H95.3061V29.5577H89.2613V17.3269Z" fill="#FEDAB3"/>
<path d="M42.918 17.3269H48.9628V21.4038H42.918V17.3269ZM89.2613 17.3269H95.3061V21.4038H89.2613V17.3269Z" fill="#EEB694"/>
<path d="M89.2613 18.3462V14.2692C89.2613 12.6385 90.6717 11.2115 92.2837 11.2115C93.8956 11.2115 95.3061 12.6385 95.3061 14.2692V18.3462" fill="#FCC49D"/>
<path d="M133.59 106H4.63442C4.02994 106 3.62695 105.592 3.62695 104.981C3.62695 104.369 4.02994 103.961 4.63442 103.961H133.59C134.194 103.961 134.597 104.369 134.597 104.981C134.597 105.592 134.194 106 133.59 106Z" fill="black"/>
<path d="M125.53 106H12.6941C12.0896 106 11.6866 105.592 11.6866 104.981V60.1345C11.6866 59.523 12.0896 59.1153 12.6941 59.1153C13.2986 59.1153 13.7016 59.523 13.7016 60.1345V103.961H124.522V60.1345C124.522 59.523 124.925 59.1153 125.53 59.1153C126.134 59.1153 126.537 59.523 126.537 60.1345V104.981C126.537 105.592 126.134 106 125.53 106ZM125.53 55.0384C124.925 55.0384 124.522 54.6307 124.522 54.0192V44.8461H13.7016V54.0192C13.7016 54.6307 13.2986 55.0384 12.6941 55.0384C12.0896 55.0384 11.6866 54.6307 11.6866 54.0192V43.8268C11.6866 43.2153 12.0896 42.8076 12.6941 42.8076H125.53C126.134 42.8076 126.537 43.2153 126.537 43.8268V54.0192C126.537 54.6307 126.134 55.0384 125.53 55.0384Z" fill="black"/>
<path d="M49.9701 61.1538H8.66414C8.26115 61.1538 7.85817 60.95 7.65667 60.5423L5.64175 54.4269C5.44026 54.0192 5.64175 53.8154 5.84324 53.4077C6.04474 53.2038 6.24623 53 6.64921 53H50.9776C51.5821 53 51.985 53.4077 51.985 54.0192C51.985 54.6308 51.5821 55.0385 50.9776 55.0385H8.05966L9.47011 59.1154H49.9701C50.5746 59.1154 50.9776 59.5231 50.9776 60.1346C50.9776 60.7462 50.5746 61.1538 49.9701 61.1538ZM129.56 61.1538H88.2537C87.6492 61.1538 87.2462 60.7462 87.2462 60.1346C87.2462 59.5231 87.6492 59.1154 88.2537 59.1154H128.754L130.164 55.0385H88.2537C87.6492 55.0385 87.2462 54.6308 87.2462 54.0192C87.2462 53.4077 87.6492 53 88.2537 53H131.575C131.978 53 132.179 53.2038 132.381 53.4077C132.582 53.6115 132.582 54.0192 132.582 54.4269L130.567 60.5423C130.366 60.95 129.963 61.1538 129.56 61.1538Z" fill="black"/>
<path d="M50.9777 106H40.9031C40.2986 106 39.8956 105.592 39.8956 104.981V29.5578C39.8956 28.9463 40.2986 28.5386 40.9031 28.5386H50.9777C51.5822 28.5386 51.9852 28.9463 51.9852 29.5578V104.981C51.9852 105.592 51.5822 106 50.9777 106ZM41.9106 103.962H49.9703V30.577H41.9106V103.962Z" fill="black"/>
<path d="M48.9628 30.5768H42.918C42.3135 30.5768 41.9105 30.1692 41.9105 29.5576V17.3268C41.9105 16.7153 42.3135 16.3076 42.918 16.3076H48.9628C49.5672 16.3076 49.9702 16.7153 49.9702 17.3268V29.5576C49.9702 30.1692 49.5672 30.5768 48.9628 30.5768ZM43.9254 28.5384H47.9553V18.3461H43.9254V28.5384Z" fill="black"/>
<path d="M48.9628 19.3653C48.3583 19.3653 47.9553 18.9576 47.9553 18.3461V14.2692C47.9553 13.0461 47.1493 12.2307 45.9404 12.2307C44.7314 12.2307 43.9255 13.0461 43.9255 14.2692V18.3461C43.9255 18.9576 43.5225 19.3653 42.918 19.3653C42.3135 19.3653 41.9105 18.9576 41.9105 18.3461V14.2692C41.9105 12.0269 43.724 10.1923 45.9404 10.1923C48.1568 10.1923 49.9702 12.0269 49.9702 14.2692V18.3461C49.9702 18.9576 49.5673 19.3653 48.9628 19.3653ZM31.8359 106H23.7762C23.1717 106 22.7687 105.592 22.7687 104.981V90.7115C22.7687 85.4115 27.4031 83.7807 27.6046 83.5769H28.209C28.4105 83.5769 32.8434 85.4115 32.8434 90.7115V104.981C32.8434 105.592 32.4404 106 31.8359 106ZM24.7837 103.961H30.8284V90.7115C30.8284 87.6538 28.8135 86.2269 27.8061 85.6153C27.0001 86.023 24.7837 87.45 24.7837 90.7115V103.961ZM83.2165 104.981C82.612 104.981 82.209 104.573 82.209 103.961V81.5384C82.209 75.423 79.1867 69.7153 73.9479 66.25L69.112 63.1923L64.2762 66.4538C59.2389 69.7153 56.015 75.423 56.015 81.5384V103.961C56.015 104.573 55.612 104.981 55.0075 104.981C54.4031 104.981 54.0001 104.573 54.0001 103.961V81.7423C54.0001 74.8115 57.4255 68.4923 63.0673 64.823L68.5076 61.3576C68.9105 61.1538 69.3135 61.1538 69.515 61.3576L74.9553 64.823C80.5971 68.4923 84.224 74.8115 84.224 81.7423V104.165C84.224 104.573 83.821 104.981 83.2165 104.981ZM35.8658 81.5384H19.7464C19.1419 81.5384 18.7389 81.1307 18.7389 80.5192C18.7389 79.9076 19.1419 79.4999 19.7464 79.4999H35.8658C36.4702 79.4999 36.8732 79.9076 36.8732 80.5192C36.8732 81.1307 36.4702 81.5384 35.8658 81.5384Z" fill="black"/>
<path d="M45.9404 12.0269C45.3359 12.0269 44.9329 11.6192 44.9329 11.0077V7.13459C44.9329 6.52305 45.3359 6.11536 45.9404 6.11536C46.5449 6.11536 46.9478 6.52305 46.9478 7.13459V11.0077C46.9478 11.6192 46.5449 12.0269 45.9404 12.0269ZM97.321 106H87.2464C86.6419 106 86.2389 105.592 86.2389 104.981V29.5577C86.2389 28.9461 86.6419 28.5384 87.2464 28.5384H97.321C97.9255 28.5384 98.3285 28.9461 98.3285 29.5577V104.981C98.3285 105.592 97.9255 106 97.321 106ZM88.2538 103.962H96.3135V30.5769H88.2538V103.962Z" fill="black"/>
<path d="M95.3061 30.5768H89.2613C88.6568 30.5768 88.2538 30.1692 88.2538 29.5576V17.3268C88.2538 16.7153 88.6568 16.3076 89.2613 16.3076H95.3061C95.9106 16.3076 96.3135 16.7153 96.3135 17.3268V29.5576C96.3135 30.1692 95.9106 30.5768 95.3061 30.5768ZM90.2688 28.5384H94.2986V18.3461H90.2688V28.5384Z" fill="black"/>
<path d="M95.3061 19.3653C94.7016 19.3653 94.2986 18.9576 94.2986 18.3461V14.2692C94.2986 13.0461 93.4927 12.2307 92.2837 12.2307C91.0747 12.2307 90.2688 13.0461 90.2688 14.2692V18.3461C90.2688 18.9576 89.8658 19.3653 89.2613 19.3653C88.6568 19.3653 88.2538 18.9576 88.2538 18.3461V14.2692C88.2538 12.0269 90.0673 10.1923 92.2837 10.1923C94.5001 10.1923 96.3135 12.0269 96.3135 14.2692V18.3461C96.3135 18.9576 95.9106 19.3653 95.3061 19.3653Z" fill="black"/>
<path d="M92.2837 12.0269C91.6792 12.0269 91.2762 11.6192 91.2762 11.0077V7.13459C91.2762 6.52305 91.6792 6.11536 92.2837 6.11536C92.8882 6.11536 93.2911 6.52305 93.2911 7.13459V11.0077C93.2911 11.6192 92.8882 12.0269 92.2837 12.0269ZM57.0225 55.0384C56.418 55.0384 56.015 54.6307 56.015 54.0192V43.8269C56.015 43.2154 56.418 42.8077 57.0225 42.8077C57.627 42.8077 58.0299 43.2154 58.0299 43.8269V54.0192C58.0299 54.6307 57.627 55.0384 57.0225 55.0384ZM63.0673 55.0384C62.4628 55.0384 62.0598 54.6307 62.0598 54.0192V43.8269C62.0598 43.2154 62.4628 42.8077 63.0673 42.8077C63.6717 42.8077 64.0747 43.2154 64.0747 43.8269V54.0192C64.0747 54.6307 63.6717 55.0384 63.0673 55.0384ZM69.112 55.0384C68.5075 55.0384 68.1046 54.6307 68.1046 54.0192V43.8269C68.1046 43.2154 68.5075 42.8077 69.112 42.8077C69.7165 42.8077 70.1195 43.2154 70.1195 43.8269V54.0192C70.1195 54.6307 69.7165 55.0384 69.112 55.0384ZM75.1568 55.0384C74.5523 55.0384 74.1493 54.6307 74.1493 54.0192V43.8269C74.1493 43.2154 74.5523 42.8077 75.1568 42.8077C75.7613 42.8077 76.1643 43.2154 76.1643 43.8269V54.0192C76.1643 54.6307 75.7613 55.0384 75.1568 55.0384ZM81.2016 55.0384C80.5971 55.0384 80.1941 54.6307 80.1941 54.0192V43.8269C80.1941 43.2154 80.5971 42.8077 81.2016 42.8077C81.8061 42.8077 82.209 43.2154 82.209 43.8269V54.0192C82.209 54.6307 81.8061 55.0384 81.2016 55.0384ZM35.8658 106C35.2613 106 34.8583 105.592 34.8583 104.981V80.7231C34.8583 75.8307 32.2389 71.55 28.0075 69.5115H27.6046C23.3732 71.7538 20.7538 76.0346 20.7538 80.7231V104.981C20.7538 105.592 20.3508 106 19.7464 106C19.1419 106 18.7389 105.592 18.7389 104.981V80.7231C18.7389 75.2192 21.7613 70.123 26.7986 67.6769C27.4031 67.2692 28.209 67.2692 29.015 67.6769C34.0523 70.123 37.0747 75.2192 37.0747 80.7231V104.981C36.8732 105.592 36.4702 106 35.8658 106ZM114.448 106H106.388C105.784 106 105.381 105.592 105.381 104.981V90.7115C105.381 85.4115 110.015 83.7807 110.217 83.5769H110.821C111.022 83.5769 115.455 85.4115 115.455 90.7115V104.981C115.455 105.592 115.052 106 114.448 106ZM107.396 103.962H113.44V90.7115C113.44 87.6538 111.425 86.2269 110.418 85.6154C109.612 86.0231 107.396 87.45 107.396 90.7115V103.962ZM118.478 81.5384H102.56C101.955 81.5384 101.552 81.1307 101.552 80.5192C101.552 79.9077 101.955 79.5 102.56 79.5H118.478C119.082 79.5 119.485 79.9077 119.485 80.5192C119.485 81.1307 118.881 81.5384 118.478 81.5384Z" fill="black"/>
<path d="M118.478 106C117.873 106 117.47 105.592 117.47 104.981V80.7231C117.47 75.8308 114.851 71.55 110.62 69.5116H110.217C105.985 71.7539 103.366 76.0346 103.366 80.7231V104.981C103.366 105.592 102.963 106 102.358 106C101.754 106 101.351 105.592 101.351 104.981V80.7231C101.351 75.2192 104.373 70.1231 109.411 67.6769C110.015 67.2692 110.821 67.2692 111.627 67.6769C116.664 70.1231 119.687 75.2192 119.687 80.7231V104.981C119.485 105.592 119.082 106 118.478 106ZM87.8508 30.5769H50.9777C50.3732 30.5769 49.9702 30.1693 49.9702 29.5577C49.9702 28.9462 50.3732 28.5385 50.9777 28.5385H87.8508C88.4553 28.5385 88.8583 28.9462 88.8583 29.5577C88.8583 30.1693 88.4553 30.5769 87.8508 30.5769ZM87.8508 55.0385H50.9777C50.3732 55.0385 49.9702 54.6308 49.9702 54.0193C49.9702 53.4077 50.3732 53 50.9777 53H87.8508C88.4553 53 88.8583 53.4077 88.8583 54.0193C88.8583 54.6308 88.4553 55.0385 87.8508 55.0385ZM88.2538 24.4616H48.9628C48.3583 24.4616 47.9553 24.0539 47.9553 23.4423C47.9553 22.8308 48.3583 22.4231 48.9628 22.4231H88.2538C88.8583 22.4231 89.2613 22.8308 89.2613 23.4423C89.2613 24.0539 88.8583 24.4616 88.2538 24.4616Z" fill="black"/>
</g>
<defs>
<clipPath id="clip0_47_8022">
<rect width="135" height="106" fill="white"/>
</clipPath>
</defs>
</svg>
