<svg width="96" height="115" viewBox="0 0 96 115" fill="none" xmlns="http://www.w3.org/2000/svg">
<path d="M28.2873 40.2953V113.189H68.5826V17.6575L28.2873 40.2953Z" fill="#F4D3BD"/>
<rect x="28.7401" y="53.4252" width="39.8425" height="10.8661" fill="#F2B894"/>
<path d="M28.7401 109.114V84.2126H67.2243L28.7401 109.114Z" fill="#F2B894"/>
<rect x="77.6377" y="92.3622" width="3.62205" height="10.8661" rx="1.81102" fill="#258F69"/>
<path fill-rule="evenodd" clip-rule="evenodd" d="M0.927429 114.252C0.927429 113.84 1.26212 113.505 1.67499 113.505H94.6219C95.0348 113.505 95.3694 113.84 95.3694 114.252C95.3694 114.665 95.0348 115 94.6219 115H1.67499C1.26212 115 0.927429 114.665 0.927429 114.252Z" fill="black"/>
<path fill-rule="evenodd" clip-rule="evenodd" d="M27.2164 83.8516C27.2164 83.4387 27.5511 83.104 27.964 83.104L68.3324 83.104C68.7452 83.104 69.0799 83.4387 69.0799 83.8516C69.0799 84.2644 68.7452 84.5991 68.3324 84.5991L27.964 84.5991C27.5511 84.5991 27.2164 84.2644 27.2164 83.8516Z" fill="black"/>
<path fill-rule="evenodd" clip-rule="evenodd" d="M55.0012 100.921C55.0012 100.508 55.3359 100.173 55.7488 100.173L61.1063 100.173C61.5192 100.173 61.8539 100.508 61.8539 100.921C61.8539 101.334 61.5192 101.668 61.1063 101.668L55.7488 101.668C55.3359 101.668 55.0012 101.334 55.0012 100.921Z" fill="black"/>
<path fill-rule="evenodd" clip-rule="evenodd" d="M41.171 109.767C41.171 109.354 41.5057 109.02 41.9185 109.02L47.2761 109.02C47.6889 109.02 48.0236 109.354 48.0236 109.767C48.0236 110.18 47.6889 110.515 47.2761 110.515L41.9185 110.515C41.5057 110.515 41.171 110.18 41.171 109.767Z" fill="black"/>
<path fill-rule="evenodd" clip-rule="evenodd" d="M55.0012 109.767C55.0012 109.354 55.3359 109.02 55.7488 109.02L61.1063 109.02C61.5192 109.02 61.8539 109.354 61.8539 109.767C61.8539 110.18 61.5192 110.515 61.1063 110.515L55.7488 110.515C55.3359 110.515 55.0012 110.18 55.0012 109.767Z" fill="black"/>
<path fill-rule="evenodd" clip-rule="evenodd" d="M27.4602 110.172C27.2367 109.825 27.3369 109.362 27.684 109.138L67.9278 83.223C68.2749 82.9995 68.7375 83.0996 68.961 83.4468C69.1846 83.7939 69.0844 84.2565 68.7373 84.48L28.4935 110.396C28.1464 110.619 27.6838 110.519 27.4602 110.172Z" fill="black"/>
<path fill-rule="evenodd" clip-rule="evenodd" d="M27.2164 63.6674C27.2164 63.2545 27.5511 62.9198 27.964 62.9198L68.3324 62.9198C68.7452 62.9198 69.0799 63.2545 69.0799 63.6674C69.0799 64.0802 68.7452 64.4149 68.3324 64.4149L27.964 64.4149C27.5511 64.4149 27.2164 64.0802 27.2164 63.6674Z" fill="black"/>
<path fill-rule="evenodd" clip-rule="evenodd" d="M27.2164 43.4832C27.2164 43.0703 27.5511 42.7356 27.964 42.7356L68.3324 42.7356C68.7452 42.7356 69.0799 43.0703 69.0799 43.4832C69.0799 43.896 68.7452 44.2307 68.3324 44.2307L27.964 44.2307C27.5511 44.2307 27.2164 43.896 27.2164 43.4832Z" fill="black"/>
<path fill-rule="evenodd" clip-rule="evenodd" d="M27.3411 74.0087C27.3411 73.5958 27.6758 73.2611 28.0887 73.2611L68.457 73.2611C68.8699 73.2611 69.2046 73.5958 69.2046 74.0087C69.2046 74.4215 68.8699 74.7562 68.457 74.7562L28.0887 74.7562C27.6758 74.7562 27.3411 74.4215 27.3411 74.0087Z" fill="black"/>
<path fill-rule="evenodd" clip-rule="evenodd" d="M27.3411 53.8245C27.3411 53.4116 27.6758 53.0769 28.0887 53.0769L68.457 53.0769C68.8699 53.0769 69.2046 53.4116 69.2046 53.8245C69.2046 54.2373 68.8699 54.572 68.457 54.572L28.0887 54.572C27.6758 54.572 27.3411 54.2373 27.3411 53.8245Z" fill="black"/>
<path fill-rule="evenodd" clip-rule="evenodd" d="M39.8003 33.6403C39.8003 33.2274 40.135 32.8927 40.5479 32.8927L68.4569 32.8927C68.8697 32.8927 69.2044 33.2274 69.2044 33.6403C69.2044 34.0531 68.8697 34.3878 68.4569 34.3878L40.5479 34.3878C40.135 34.3878 39.8003 34.0531 39.8003 33.6403Z" fill="black"/>
<path fill-rule="evenodd" clip-rule="evenodd" d="M59.1127 22.8007C59.1127 22.3878 59.4474 22.0531 59.8603 22.0531L68.4573 22.0531C68.8701 22.0531 69.2048 22.3878 69.2048 22.8007C69.2048 23.2135 68.8701 23.5482 68.4573 23.5482L59.8603 23.5482C59.4474 23.5482 59.1127 23.2135 59.1127 22.8007Z" fill="black"/>
<path fill-rule="evenodd" clip-rule="evenodd" d="M28.0885 39.9946C28.5013 39.9946 28.836 40.3293 28.836 40.7422L28.836 114.252C28.836 114.665 28.5013 115 28.0885 115C27.6756 115 27.3409 114.665 27.3409 114.252L27.3409 40.7422C27.3409 40.3293 27.6756 39.9946 28.0885 39.9946Z" fill="black"/>
<path fill-rule="evenodd" clip-rule="evenodd" d="M69.3538 16.9451C69.5601 17.3027 69.4374 17.7599 69.0797 17.9661L28.4622 41.3897C28.1045 41.596 27.6474 41.4732 27.4411 41.1156C27.2349 40.7579 27.3576 40.3008 27.7152 40.0945L68.3328 16.6709C68.6904 16.4647 69.1476 16.5874 69.3538 16.9451Z" fill="black"/>
<path fill-rule="evenodd" clip-rule="evenodd" d="M69.1045 9.96776C69.3107 10.3254 69.188 10.7826 68.8303 10.9888L28.2128 34.4124C27.8551 34.6187 27.398 34.4959 27.1917 34.1383C26.9855 33.7806 27.1082 33.3235 27.4659 33.1172L68.0834 9.69363C68.4411 9.48737 68.8982 9.61011 69.1045 9.96776Z" fill="black"/>
<path fill-rule="evenodd" clip-rule="evenodd" d="M68.7065 16.5709C69.1193 16.5709 69.454 16.9056 69.454 17.3185L69.454 114.252C69.454 114.665 69.1193 115 68.7065 115C68.2936 115 67.9589 114.665 67.9589 114.252L67.9589 17.3185C67.9589 16.9056 68.2936 16.5709 68.7065 16.5709Z" fill="black"/>
<path fill-rule="evenodd" clip-rule="evenodd" d="M79.6708 103.039C80.0836 103.039 80.4183 103.374 80.4183 103.787L80.4183 114.252C80.4183 114.665 80.0836 115 79.6708 115C79.2579 115 78.9232 114.665 78.9232 114.252L78.9232 103.787C78.9232 103.374 79.2579 103.039 79.6708 103.039Z" fill="black"/>
<path fill-rule="evenodd" clip-rule="evenodd" d="M53.5056 -3.2677e-08C53.9184 -1.463e-08 54.2531 0.334695 54.2531 0.747562L54.2531 26.2893C54.2531 26.7021 53.9184 27.0368 53.5056 27.0368C53.0927 27.0368 52.758 26.7021 52.758 26.2893L52.758 0.747562C52.758 0.334695 53.0927 -5.0724e-08 53.5056 -3.2677e-08Z" fill="black"/>
<path fill-rule="evenodd" clip-rule="evenodd" d="M61.106 14.4529C61.5189 14.4529 61.8536 14.7876 61.8536 15.2004L61.8536 22.0531C61.8536 22.466 61.5189 22.8007 61.106 22.8007C60.6931 22.8007 60.3585 22.466 60.3585 22.0531L60.3585 15.2004C60.3585 14.7876 60.6931 14.4529 61.106 14.4529Z" fill="black"/>
<path fill-rule="evenodd" clip-rule="evenodd" d="M46.5285 22.0531C46.9414 22.0531 47.2761 22.3878 47.2761 22.8007L47.2761 29.6533C47.2761 30.0662 46.9414 30.4009 46.5285 30.4009C46.1157 30.4009 45.781 30.0662 45.781 29.6533L45.781 22.8007C45.781 22.3878 46.1157 22.0531 46.5285 22.0531Z" fill="black"/>
<path fill-rule="evenodd" clip-rule="evenodd" d="M39.0527 26.9122C39.4656 26.9122 39.8003 27.2469 39.8003 27.6598L39.8003 34.5124C39.8003 34.9253 39.4656 35.26 39.0527 35.26C38.6399 35.26 38.3052 34.9253 38.3052 34.5124L38.3052 27.6598C38.3052 27.2469 38.6399 26.9122 39.0527 26.9122Z" fill="black"/>
<path fill-rule="evenodd" clip-rule="evenodd" d="M32.4493 30.2762C32.8622 30.2762 33.1969 30.6109 33.1969 31.0238L33.1969 37.8765C33.1969 38.2893 32.8622 38.624 32.4493 38.624C32.0365 38.624 31.7018 38.2893 31.7018 37.8765L31.7018 31.0238C31.7018 30.6109 32.0365 30.2762 32.4493 30.2762Z" fill="black"/>
<path fill-rule="evenodd" clip-rule="evenodd" d="M80.4984 102.272C80.9629 101.27 81.2902 99.7806 81.2902 98.0552C81.2902 96.3297 80.9629 94.8404 80.4984 93.8385C80.2656 93.3365 80.0274 93.019 79.8373 92.8456C79.7461 92.7624 79.6801 92.7251 79.6448 92.7096C79.6277 92.702 79.6173 92.6993 79.6132 92.6984C79.611 92.6979 79.6097 92.6978 79.6092 92.6977C79.6089 92.6977 79.6087 92.6976 79.6085 92.6976C79.6084 92.6976 79.6083 92.6976 79.6082 92.6976C79.6081 92.6976 79.6079 92.6976 79.6078 92.6977C79.6076 92.6977 79.6074 92.6977 79.6072 92.6977C79.6068 92.6978 79.6055 92.6979 79.6033 92.6984C79.5992 92.6993 79.5888 92.702 79.5716 92.7096C79.5364 92.7251 79.4704 92.7624 79.3792 92.8456C79.1891 93.019 78.9508 93.3365 78.7181 93.8385C78.2535 94.8404 77.9262 96.3297 77.9262 98.0552C77.9262 99.7806 78.2535 101.27 78.7181 102.272C78.9508 102.774 79.1891 103.091 79.3792 103.265C79.4704 103.348 79.5364 103.385 79.5716 103.401C79.5888 103.408 79.5992 103.411 79.6033 103.412C79.6055 103.412 79.6068 103.413 79.6072 103.413C79.6077 103.413 79.608 103.413 79.6082 103.413C79.6083 103.413 79.6085 103.413 79.6086 103.413C79.6088 103.413 79.609 103.413 79.6092 103.413C79.6097 103.413 79.611 103.412 79.6132 103.412C79.6173 103.411 79.6277 103.408 79.6448 103.401C79.6801 103.385 79.7461 103.348 79.8373 103.265C80.0274 103.091 80.2656 102.774 80.4984 102.272ZM79.6082 104.908C81.3629 104.908 82.7854 101.84 82.7854 98.0552C82.7854 94.2706 81.3629 91.2025 79.6082 91.2025C77.8535 91.2025 76.4311 94.2706 76.4311 98.0552C76.4311 101.84 77.8535 104.908 79.6082 104.908Z" fill="black"/>
</svg>
