<svg width="36" height="28" viewBox="0 0 36 28" fill="none" xmlns="http://www.w3.org/2000/svg">
<path d="M9.00487 15.7837C9.00487 11.8402 9.00487 7.90632 8.99513 3.9628C8.99513 3.65426 9.08275 3.59641 9.3748 3.59641C15.1184 3.60605 20.8621 3.60605 26.6057 3.59641C26.9367 3.59641 26.9951 3.68318 26.9951 3.99172C26.9854 11.8595 26.9854 19.7273 26.9951 27.6047C26.9951 27.9421 26.9075 28.0193 26.5765 28.0096C25.5349 27.9903 24.4835 27.9903 23.4419 28.0096C23.1693 28.0096 23.1011 27.9421 23.1011 27.6722C23.1109 25.2424 23.1109 22.803 23.1109 20.3733C23.1109 19.7465 22.9162 19.5441 22.2931 19.5441C19.431 19.5441 16.5787 19.5441 13.7166 19.5441C13.0838 19.5441 12.8891 19.7369 12.8891 20.3636C12.8891 22.7837 12.8794 25.2038 12.8989 27.6336C12.8989 27.9229 12.8502 28.0193 12.5289 28.0193C11.4581 28 10.3872 28 9.31639 28.0193C9.05354 28.0193 9.00487 27.9421 9.00487 27.7011C9.00487 23.7094 9.00487 19.7465 9.00487 15.7837Z" fill="#049304"/>
<path d="M7.76852 20.1515C7.76852 22.6584 7.76852 25.1653 7.77826 27.6722C7.77826 27.9422 7.71011 28.0097 7.43753 28.0097C5.20822 28 2.98864 28 0.75933 28C0.204435 28 0.00973511 27.8072 0.00973511 27.2672C0.00973511 22.5331 0.00973511 17.7989 0.00973511 13.0647C0.00973511 12.5055 0.204435 12.3127 0.788535 12.3127C2.99838 12.3127 5.21796 12.3223 7.4278 12.303C7.73932 12.303 7.77826 12.4091 7.77826 12.6694C7.75879 15.157 7.76852 17.6543 7.76852 20.1515Z" fill="#049304"/>
<path d="M28.2315 20.1322C28.2315 17.635 28.2412 15.1474 28.2217 12.6501C28.2217 12.3609 28.2996 12.2934 28.5819 12.2934C30.7918 12.303 33.0114 12.303 35.2212 12.303C35.7956 12.303 35.9903 12.4959 35.9903 13.0647C35.9903 17.7893 35.9903 22.5138 35.9903 27.2287C35.9903 27.7975 35.7956 27.9904 35.2212 27.9904C33.0211 27.9904 30.821 27.9807 28.6209 28C28.3094 28 28.212 27.9518 28.2217 27.6143C28.2412 25.1267 28.2315 22.6295 28.2315 20.1322Z" fill="#049304"/>
<path d="M18.0195 27.9903C16.8318 27.9903 15.6344 27.9807 14.4467 28C14.2131 28 14.1157 27.9711 14.1157 27.7011C14.1255 25.4931 14.1255 23.2948 14.1157 21.0868C14.1157 20.8457 14.1644 20.7686 14.4273 20.7686C16.8026 20.7782 19.1682 20.7782 21.5435 20.7686C21.8356 20.7686 21.8745 20.8554 21.8745 21.1157C21.8648 23.3044 21.8648 25.5027 21.8745 27.6915C21.8745 27.9421 21.8161 28.0096 21.563 28.0096C20.3851 27.9807 19.2071 27.9903 18.0195 27.9903Z" fill="#049304"/>
<path d="M18.0097 -4.20259e-07C21.086 -4.20259e-07 24.1622 -4.20259e-07 27.2482 -4.20259e-07C28.1536 -4.20259e-07 28.7474 0.800275 28.4359 1.59091C28.2899 1.96694 28.0076 2.22727 27.5987 2.32369C27.4429 2.35262 27.2872 2.3719 27.1314 2.3719C21.0471 2.3719 14.9627 2.3719 8.87831 2.3719C8.54732 2.3719 8.22607 2.33333 7.95349 2.11157C7.54462 1.78375 7.38886 1.30165 7.55435 0.819559C7.71985 0.337465 8.12872 0.00964145 8.64467 0.00964145C9.48188 -0.00964229 10.3386 -4.20259e-07 11.1855 -4.20259e-07C13.4635 -4.20259e-07 15.7415 -4.20259e-07 18.0097 -4.20259e-07Z" fill="#049304"/>
<path d="M18 6.43112C18.331 6.43112 18.6522 6.44076 18.9832 6.43112C19.285 6.42147 19.3921 6.55646 19.3921 6.84572C19.3824 7.49172 19.3824 8.14737 19.3921 8.79337C19.3921 9.06335 19.2753 9.18869 19.0027 9.18869C18.331 9.17905 17.669 9.18869 16.9973 9.18869C16.7442 9.18869 16.6079 9.09227 16.6176 8.83194C16.6176 8.15701 16.6176 7.48208 16.6176 6.81679C16.6176 6.55646 16.7344 6.44076 16.9876 6.4504C17.3185 6.44076 17.6593 6.43112 18 6.43112Z" fill="#37579D"/>
<path d="M12.782 6.43112C13.113 6.43112 13.4343 6.44076 13.7653 6.43112C14.0476 6.42148 14.1547 6.54682 14.1547 6.82644C14.1449 7.49173 14.1547 8.14737 14.1547 8.81266C14.1547 9.06335 14.0476 9.18869 13.7847 9.18869C13.1033 9.18869 12.4218 9.18869 11.7404 9.18869C11.497 9.18869 11.3802 9.06335 11.3802 8.83195C11.3802 8.15701 11.3802 7.48208 11.3802 6.80715C11.3802 6.55646 11.497 6.43112 11.7599 6.44076C12.1006 6.44076 12.4413 6.43112 12.782 6.43112Z" fill="#37579D"/>
<path d="M23.2082 9.17905C22.8772 9.17905 22.556 9.17905 22.225 9.17905C21.9621 9.17905 21.8453 9.06335 21.8453 8.80302C21.8453 8.12809 21.8453 7.45316 21.8453 6.77823C21.8453 6.5179 21.9816 6.42148 22.2347 6.42148C22.9064 6.43112 23.5684 6.43112 24.2401 6.42148C24.503 6.42148 24.6198 6.53718 24.6198 6.78787C24.6198 7.4628 24.6198 8.13773 24.6198 8.81266C24.6198 9.06335 24.4835 9.17905 24.2304 9.16941C23.8897 9.17905 23.5489 9.17905 23.2082 9.17905Z" fill="#37579D"/>
<path d="M14.1547 13.6432C14.1547 13.9711 14.1449 14.2893 14.1547 14.6171C14.1644 14.8678 14.0573 14.9931 13.7847 14.9931C13.1033 14.9835 12.4218 14.9835 11.7404 14.9931C11.4678 14.9931 11.3705 14.8581 11.3705 14.6171C11.3705 13.9518 11.3705 13.2961 11.3705 12.6309C11.3705 12.3512 11.5165 12.2452 11.7793 12.2452C12.4316 12.2452 13.0936 12.2452 13.7458 12.2452C14.0184 12.2452 14.1449 12.3609 14.1449 12.6405C14.1449 12.9683 14.1547 13.3058 14.1547 13.6432Z" fill="#37579D"/>
<path d="M17.9805 14.9931C17.6495 14.9931 17.3283 14.9931 16.9973 14.9931C16.7442 14.9931 16.6176 14.8967 16.6176 14.6267C16.6274 13.9518 16.6176 13.2769 16.6176 12.6019C16.6176 12.3609 16.7345 12.2452 16.9681 12.2452C17.6593 12.2452 18.3505 12.2452 19.0514 12.2452C19.285 12.2452 19.4018 12.3705 19.3921 12.6116C19.3921 13.2865 19.3921 13.9614 19.3921 14.6364C19.3921 14.8774 19.285 14.9931 19.0416 14.9931C18.6814 14.9931 18.331 14.9931 17.9805 14.9931Z" fill="#37579D"/>
<path d="M21.8453 13.6047C21.8453 13.2769 21.8551 12.9587 21.8453 12.6309C21.8356 12.3802 21.9524 12.2452 22.2152 12.2452C22.8967 12.2452 23.5781 12.2452 24.2596 12.2452C24.5224 12.2452 24.6295 12.3898 24.6295 12.6309C24.6295 13.2961 24.6295 13.9518 24.6295 14.6171C24.6295 14.8678 24.5224 14.9931 24.2499 14.9931C23.5684 14.9835 22.887 14.9835 22.2055 14.9931C21.9329 14.9931 21.8453 14.8581 21.8453 14.6074C21.8551 14.27 21.8453 13.9421 21.8453 13.6047Z" fill="#37579D"/>
<path d="M3.87453 24.4421C3.54354 24.4421 3.22228 24.4421 2.89129 24.4421C2.63818 24.4421 2.50189 24.3457 2.50189 24.0854C2.50189 23.4008 2.50189 22.7163 2.50189 22.022C2.50189 21.8003 2.60898 21.6942 2.83288 21.6942C3.52407 21.6942 4.21525 21.6942 4.91617 21.6942C5.16928 21.6942 5.27636 21.8196 5.27636 22.051C5.27636 22.7259 5.27636 23.4008 5.27636 24.0758C5.27636 24.3264 5.15954 24.4518 4.8967 24.4518C4.54624 24.4421 4.21525 24.4421 3.87453 24.4421Z" fill="#37579D"/>
<path d="M3.87453 18.6088C3.5338 18.6088 3.19308 18.6088 2.85235 18.6088C2.60898 18.6088 2.49216 18.5028 2.49216 18.2617C2.49216 17.5868 2.50189 16.9118 2.49216 16.2369C2.49216 15.9477 2.63818 15.8512 2.90103 15.8609C3.55327 15.8609 4.21525 15.8609 4.8675 15.8609C5.14007 15.8609 5.26663 15.9766 5.26663 16.2562C5.26663 16.9215 5.26663 17.5771 5.26663 18.2424C5.26663 18.4931 5.14981 18.6185 4.88697 18.6185C4.55598 18.6088 4.21525 18.6088 3.87453 18.6088Z" fill="#37579D"/>
<path d="M32.1449 21.6942C32.4759 21.6942 32.7972 21.7039 33.1282 21.6942C33.3715 21.6846 33.4981 21.781 33.4981 22.0317C33.4981 22.7163 33.4981 23.4008 33.4981 24.0951C33.4981 24.3361 33.3813 24.4518 33.1379 24.4518C32.4565 24.4518 31.775 24.4518 31.0936 24.4518C30.8599 24.4518 30.7236 24.3457 30.7236 24.1047C30.7236 23.4201 30.7236 22.7355 30.7236 22.0413C30.7236 21.8099 30.8405 21.6846 31.0838 21.6942C31.444 21.6942 31.7945 21.6942 32.1449 21.6942Z" fill="#37579D"/>
<path d="M32.106 18.6088C31.7653 18.6088 31.4246 18.6088 31.0838 18.6088C30.8405 18.6088 30.7236 18.4931 30.7236 18.2521C30.7236 17.5771 30.7236 16.9022 30.7236 16.2273C30.7236 15.9766 30.8502 15.8512 31.1033 15.8512C31.775 15.8512 32.437 15.8512 33.1087 15.8512C33.3521 15.8512 33.4981 15.9476 33.4981 16.2176C33.4981 16.8925 33.4884 17.5675 33.4981 18.2424C33.4981 18.5027 33.3813 18.6088 33.1184 18.6088C32.7875 18.6088 32.4467 18.6088 32.106 18.6088Z" fill="#37579D"/>
</svg>
