<svg width="140" height="106" viewBox="0 0 140 106" fill="none" xmlns="http://www.w3.org/2000/svg">
<path d="M78.93 55.5493L62.6797 67.9857L64.6695 73.9552L76.2769 66.3275L77.2718 61.0213H78.93V55.5493Z" fill="#DC4C43"/>
<path d="M60.6898 60.0264V52.0671L81.0855 35.9827L80.2564 44.4394L60.6898 60.0264Z" fill="#DC4C43"/>
<path d="M69.9754 27.0284L58.5339 35.4852V42.9471L77.7689 27.0284H69.9754Z" fill="#DC4C43"/>
<path d="M6.13538 98.6621L6.96447 93.8534H25.0387L26.6969 98.6621H6.13538Z" fill="#DC4C43"/>
<path d="M112.591 98.6621L113.42 93.8534H131.494L133.152 98.6621H112.591Z" fill="#DC4C43"/>
<path d="M82.5779 14.9236H56.0469L56.7102 11.2756L81.4172 11.9389L82.5779 14.9236Z" fill="#DC4C43"/>
<path d="M80.9195 8.29096H57.7049L58.2853 4.64294L79.9039 5.30622L80.9195 8.29096Z" fill="#DC4C43"/>
<path d="M6.46689 29.1841V37.8066H14.7578L16.0844 34.8219H25.5361L26.6968 32.003H35.8168V30.179H46.7609V25.7019H93.356V27.8575H102.973V32.003H113.918V34.8219H124.53V37.8066H133.152V30.179H122.706V27.0284H113.088V23.712H102.144V20.8931H91.2003V18.5716L46.7609 17.7426V20.8931H36.8117L35.8168 23.712H25.5361V27.0284H16.0844L14.7578 29.1841H6.46689Z" fill="#DC4C43"/>
<path d="M9.2858 75.116V78.1007L24.3753 78.9298L26.6968 98.3306L29.0182 99.3255L29.8473 104.798L109.938 103.803V98.3306H112.259L114.415 78.1007H130.168L129.339 75.116H9.2858Z" fill="#DC4C43"/>
<path fill-rule="evenodd" clip-rule="evenodd" d="M45.9319 16.9135H92.3611V19.7324H102.808V22.3855H113.586V25.536H124.033V28.1891H133.816V39.299H122.872V35.9826H112.425V33.3295H101.979V30.179H91.2004V27.5259H47.9217V31.3397H37.4751V33.3295H27.1943V35.9826H16.5819V39.299H5.14041V28.1891H14.5921V25.536H25.2045V22.3855H35.4853V19.7324H45.9319V16.9135ZM35.4853 31.3397V29.3499H45.9319V25.536H93.1902V28.1891H103.968V31.3397H114.415V33.9928H124.862V37.3092H131.826V30.179H122.043V27.5259H111.596V24.3753H100.818V21.7222H90.3713V18.9033H47.9217V21.7222H37.4751V24.3753H27.1943V27.5259H16.5819V30.179H7.13024V37.3092H14.5921V33.9928H25.2045V31.3397H35.4853Z" fill="black"/>
<path fill-rule="evenodd" clip-rule="evenodd" d="M6.10352e-05 104.963C6.10352e-05 104.414 0.445499 103.968 0.994974 103.968H138.127C138.677 103.968 139.122 104.414 139.122 104.963C139.122 105.513 138.677 105.958 138.127 105.958H0.994974C0.445499 105.958 6.10352e-05 105.513 6.10352e-05 104.963Z" fill="black"/>
<path fill-rule="evenodd" clip-rule="evenodd" d="M7.79382 74.4527C7.79382 73.9032 8.23926 73.4578 8.78874 73.4578L130.334 73.4578C130.883 73.4578 131.329 73.9032 131.329 74.4527C131.329 75.0022 130.883 75.4476 130.334 75.4476L8.78874 75.4476C8.23926 75.4476 7.79382 75.0022 7.79382 74.4527Z" fill="black"/>
<path fill-rule="evenodd" clip-rule="evenodd" d="M42.7818 78.5982C42.7818 78.0487 43.2272 77.6033 43.7767 77.6033H94.8489C95.3984 77.6033 95.8438 78.0487 95.8438 78.5982C95.8438 79.1477 95.3984 79.5931 94.8489 79.5931H43.7767C43.2272 79.5931 42.7818 79.1477 42.7818 78.5982Z" fill="black"/>
<path fill-rule="evenodd" clip-rule="evenodd" d="M7.79382 78.5982C7.79382 78.0487 8.23926 77.6033 8.78874 77.6033H24.3757C24.9252 77.6033 25.3706 78.0487 25.3706 78.5982C25.3706 79.1477 24.9252 79.5931 24.3757 79.5931H8.78874C8.23926 79.5931 7.79382 79.1477 7.79382 78.5982Z" fill="black"/>
<path fill-rule="evenodd" clip-rule="evenodd" d="M6.46689 93.356C6.46689 92.8065 6.91233 92.3611 7.4618 92.3611L24.3753 92.3611C24.9248 92.3611 25.3702 92.8065 25.3702 93.356C25.3702 93.9055 24.9248 94.3509 24.3753 94.3509L7.4618 94.3509C6.91233 94.3509 6.46689 93.9055 6.46689 93.356Z" fill="black"/>
<path fill-rule="evenodd" clip-rule="evenodd" d="M9.61749 97.916C9.20539 97.916 8.87131 97.5819 8.87131 97.1698L8.87131 95.6775C8.87131 95.2654 9.20539 94.9313 9.61749 94.9313C10.0296 94.9313 10.3637 95.2654 10.3637 95.6775L10.3637 97.1698C10.3637 97.5819 10.0296 97.916 9.61749 97.916Z" fill="black"/>
<path fill-rule="evenodd" clip-rule="evenodd" d="M12.2709 97.916C11.8588 97.916 11.5247 97.5819 11.5247 97.1698L11.5247 95.6775C11.5247 95.2654 11.8588 94.9313 12.2709 94.9313C12.683 94.9313 13.0171 95.2654 13.0171 95.6775L13.0171 97.1698C13.0171 97.5819 12.683 97.916 12.2709 97.916Z" fill="black"/>
<path fill-rule="evenodd" clip-rule="evenodd" d="M14.9238 97.916C14.5117 97.916 14.1776 97.5819 14.1776 97.1698L14.1776 95.6775C14.1776 95.2654 14.5117 94.9313 14.9238 94.9313C15.3359 94.9313 15.67 95.2654 15.67 95.6775L15.67 97.1698C15.67 97.5819 15.3359 97.916 14.9238 97.916Z" fill="black"/>
<path fill-rule="evenodd" clip-rule="evenodd" d="M17.5768 97.916C17.1646 97.916 16.8306 97.5819 16.8306 97.1698L16.8306 95.6775C16.8306 95.2654 17.1646 94.9313 17.5768 94.9313C17.9889 94.9313 18.3229 95.2654 18.3229 95.6775L18.3229 97.1698C18.3229 97.5819 17.9889 97.916 17.5768 97.916Z" fill="black"/>
<path fill-rule="evenodd" clip-rule="evenodd" d="M20.2302 97.916C19.8181 97.916 19.484 97.5819 19.484 97.1698L19.484 95.6775C19.484 95.2654 19.8181 94.9313 20.2302 94.9313C20.6423 94.9313 20.9763 95.2654 20.9763 95.6775L20.9763 97.1698C20.9763 97.5819 20.6423 97.916 20.2302 97.916Z" fill="black"/>
<path fill-rule="evenodd" clip-rule="evenodd" d="M22.8831 97.916C22.471 97.916 22.1369 97.5819 22.1369 97.1698L22.1369 95.6775C22.1369 95.2654 22.471 94.9313 22.8831 94.9313C23.2952 94.9313 23.6293 95.2654 23.6293 95.6775L23.6293 97.1698C23.6293 97.5819 23.2952 97.916 22.8831 97.916Z" fill="black"/>
<path fill-rule="evenodd" clip-rule="evenodd" d="M55.0522 23.6293C54.64 23.6293 54.306 23.2952 54.306 22.8831L54.306 21.3907C54.306 20.9786 54.64 20.6445 55.0522 20.6445C55.4643 20.6445 55.7983 20.9786 55.7983 21.3907L55.7983 22.8831C55.7983 23.2952 55.4643 23.6293 55.0522 23.6293Z" fill="black"/>
<path fill-rule="evenodd" clip-rule="evenodd" d="M57.7051 23.6293C57.293 23.6293 56.9589 23.2952 56.9589 22.8831L56.9589 21.3907C56.9589 20.9786 57.293 20.6445 57.7051 20.6445C58.1172 20.6445 58.4513 20.9786 58.4513 21.3907L58.4513 22.8831C58.4513 23.2952 58.1172 23.6293 57.7051 23.6293Z" fill="black"/>
<path fill-rule="evenodd" clip-rule="evenodd" d="M60.358 23.6293C59.9459 23.6293 59.6118 23.2952 59.6118 22.8831L59.6118 21.3907C59.6118 20.9786 59.9459 20.6445 60.358 20.6445C60.7701 20.6445 61.1042 20.9786 61.1042 21.3907L61.1042 22.8831C61.1042 23.2952 60.7701 23.6293 60.358 23.6293Z" fill="black"/>
<path fill-rule="evenodd" clip-rule="evenodd" d="M63.0114 23.6293C62.5993 23.6293 62.2652 23.2952 62.2652 22.8831L62.2652 21.3907C62.2652 20.9786 62.5993 20.6445 63.0114 20.6445C63.4235 20.6445 63.7576 20.9786 63.7576 21.3907L63.7576 22.8831C63.7576 23.2952 63.4235 23.6293 63.0114 23.6293Z" fill="black"/>
<path fill-rule="evenodd" clip-rule="evenodd" d="M65.6639 23.6293C65.2518 23.6293 64.9177 23.2952 64.9177 22.8831L64.9177 21.3907C64.9177 20.9786 65.2518 20.6445 65.6639 20.6445C66.076 20.6445 66.4101 20.9786 66.4101 21.3907L66.4101 22.8831C66.4101 23.2952 66.076 23.6293 65.6639 23.6293Z" fill="black"/>
<path fill-rule="evenodd" clip-rule="evenodd" d="M68.3177 23.6293C67.9056 23.6293 67.5716 23.2952 67.5716 22.8831L67.5716 21.3907C67.5716 20.9786 67.9056 20.6445 68.3177 20.6445C68.7299 20.6445 69.0639 20.9786 69.0639 21.3907L69.0639 22.8831C69.0639 23.2952 68.7299 23.6293 68.3177 23.6293Z" fill="black"/>
<path fill-rule="evenodd" clip-rule="evenodd" d="M70.4727 23.6293C70.0606 23.6293 69.7266 23.2952 69.7266 22.8831L69.7266 21.3907C69.7266 20.9786 70.0606 20.6445 70.4727 20.6445C70.8849 20.6445 71.2189 20.9786 71.2189 21.3907L71.2189 22.8831C71.2189 23.2952 70.8849 23.6293 70.4727 23.6293Z" fill="black"/>
<path fill-rule="evenodd" clip-rule="evenodd" d="M73.1261 23.6293C72.714 23.6293 72.3799 23.2952 72.3799 22.8831L72.3799 21.3907C72.3799 20.9786 72.714 20.6445 73.1261 20.6445C73.5382 20.6445 73.8723 20.9786 73.8723 21.3907L73.8723 22.8831C73.8723 23.2952 73.5382 23.6293 73.1261 23.6293Z" fill="black"/>
<path fill-rule="evenodd" clip-rule="evenodd" d="M75.7795 23.6293C75.3674 23.6293 75.0334 23.2952 75.0334 22.8831L75.0334 21.3907C75.0334 20.9786 75.3674 20.6445 75.7795 20.6445C76.1916 20.6445 76.5257 20.9786 76.5257 21.3907L76.5257 22.8831C76.5257 23.2952 76.1916 23.6293 75.7795 23.6293Z" fill="black"/>
<path fill-rule="evenodd" clip-rule="evenodd" d="M78.4325 23.6293C78.0204 23.6293 77.6863 23.2952 77.6863 22.8831L77.6863 21.3907C77.6863 20.9786 78.0204 20.6445 78.4325 20.6445C78.8446 20.6445 79.1786 20.9786 79.1786 21.3907L79.1786 22.8831C79.1786 23.2952 78.8446 23.6293 78.4325 23.6293Z" fill="black"/>
<path fill-rule="evenodd" clip-rule="evenodd" d="M81.0854 23.6293C80.6733 23.6293 80.3392 23.2952 80.3392 22.8831L80.3392 21.3907C80.3392 20.9786 80.6733 20.6445 81.0854 20.6445C81.4975 20.6445 81.8316 20.9786 81.8316 21.3907L81.8316 22.8831C81.8316 23.2952 81.4975 23.6293 81.0854 23.6293Z" fill="black"/>
<path fill-rule="evenodd" clip-rule="evenodd" d="M83.7388 23.6293C83.3267 23.6293 82.9926 23.2952 82.9926 22.8831L82.9926 21.3907C82.9926 20.9786 83.3267 20.6445 83.7388 20.6445C84.1509 20.6445 84.485 20.9786 84.485 21.3907L84.485 22.8831C84.485 23.2952 84.1509 23.6293 83.7388 23.6293Z" fill="black"/>
<path fill-rule="evenodd" clip-rule="evenodd" d="M26.6342 100.315C26.0877 100.372 25.5985 99.9749 25.5417 99.4284L23.3861 78.701C23.3292 78.1545 23.7262 77.6654 24.2727 77.6085C24.8192 77.5517 25.3084 77.9487 25.3652 78.4952L27.5209 99.2226C27.5777 99.7691 27.1807 100.258 26.6342 100.315Z" fill="black"/>
<path fill-rule="evenodd" clip-rule="evenodd" d="M130.997 78.5982C130.997 78.0487 130.552 77.6033 130.002 77.6033H114.415C113.866 77.6033 113.42 78.0487 113.42 78.5982C113.42 79.1477 113.866 79.5931 114.415 79.5931H130.002C130.552 79.5931 130.997 79.1477 130.997 78.5982Z" fill="black"/>
<path fill-rule="evenodd" clip-rule="evenodd" d="M132.324 93.356C132.324 92.8065 131.878 92.3611 131.329 92.3611L114.415 92.3611C113.866 92.3611 113.42 92.8065 113.42 93.356C113.42 93.9055 113.866 94.3509 114.415 94.3509L131.329 94.3509C131.878 94.3509 132.324 93.9055 132.324 93.356Z" fill="black"/>
<path fill-rule="evenodd" clip-rule="evenodd" d="M129.173 97.916C129.585 97.916 129.919 97.5819 129.919 97.1698L129.919 95.6775C129.919 95.2654 129.585 94.9313 129.173 94.9313C128.761 94.9313 128.427 95.2654 128.427 95.6775L128.427 97.1698C128.427 97.5819 128.761 97.916 129.173 97.916Z" fill="black"/>
<path fill-rule="evenodd" clip-rule="evenodd" d="M126.52 97.916C126.932 97.916 127.266 97.5819 127.266 97.1698L127.266 95.6775C127.266 95.2654 126.932 94.9313 126.52 94.9313C126.108 94.9313 125.773 95.2654 125.773 95.6775L125.773 97.1698C125.773 97.5819 126.108 97.916 126.52 97.916Z" fill="black"/>
<path fill-rule="evenodd" clip-rule="evenodd" d="M123.867 97.916C124.279 97.916 124.613 97.5819 124.613 97.1698L124.613 95.6775C124.613 95.2654 124.279 94.9313 123.867 94.9313C123.455 94.9313 123.121 95.2654 123.121 95.6775L123.121 97.1698C123.121 97.5819 123.455 97.916 123.867 97.916Z" fill="black"/>
<path fill-rule="evenodd" clip-rule="evenodd" d="M121.214 97.916C121.626 97.916 121.96 97.5819 121.96 97.1698L121.96 95.6775C121.96 95.2654 121.626 94.9313 121.214 94.9313C120.802 94.9313 120.468 95.2654 120.468 95.6775L120.468 97.1698C120.468 97.5819 120.802 97.916 121.214 97.916Z" fill="black"/>
<path fill-rule="evenodd" clip-rule="evenodd" d="M118.56 97.916C118.973 97.916 119.307 97.5819 119.307 97.1698L119.307 95.6775C119.307 95.2654 118.973 94.9313 118.56 94.9313C118.148 94.9313 117.814 95.2654 117.814 95.6775L117.814 97.1698C117.814 97.5819 118.148 97.916 118.56 97.916Z" fill="black"/>
<path fill-rule="evenodd" clip-rule="evenodd" d="M115.907 97.916C116.319 97.916 116.653 97.5819 116.653 97.1698L116.653 95.6775C116.653 95.2654 116.319 94.9313 115.907 94.9313C115.495 94.9313 115.161 95.2654 115.161 95.6775L115.161 97.1698C115.161 97.5819 115.495 97.916 115.907 97.916Z" fill="black"/>
<path fill-rule="evenodd" clip-rule="evenodd" d="M112.157 100.315C112.703 100.372 113.193 99.9749 113.249 99.4284L115.405 78.701C115.462 78.1545 115.065 77.6654 114.518 77.6085C113.972 77.5517 113.483 77.9487 113.426 78.4952L111.27 99.2226C111.213 99.7691 111.61 100.258 112.157 100.315Z" fill="black"/>
<path fill-rule="evenodd" clip-rule="evenodd" d="M59.1973 0.994913C59.1973 0.445438 59.6428 3.89414e-08 60.1922 8.69781e-08L78.5981 1.69607e-06C79.1476 1.74411e-06 79.593 0.44544 79.593 0.994915C79.593 1.54439 79.1476 1.98983 78.5981 1.98983L60.1922 1.98983C59.6428 1.98983 59.1973 1.54439 59.1973 0.994913Z" fill="black"/>
<path fill-rule="evenodd" clip-rule="evenodd" d="M58.3683 4.64286C58.3683 4.09339 58.8138 3.64795 59.3633 3.64795L78.5982 3.64795C79.1477 3.64795 79.5932 4.09339 79.5932 4.64286C79.5932 5.19234 79.1477 5.63777 78.5982 5.63777L59.3633 5.63778C58.8138 5.63778 58.3683 5.19234 58.3683 4.64286Z" fill="black"/>
<path fill-rule="evenodd" clip-rule="evenodd" d="M55.715 11.6072C55.715 11.0577 56.1604 10.6123 56.7099 10.6123L80.5878 10.6123C81.1373 10.6123 81.5827 11.0577 81.5827 11.6072C81.5827 12.1567 81.1373 12.6021 80.5878 12.6021L56.7099 12.6021C56.1604 12.6021 55.715 12.1567 55.715 11.6072Z" fill="black"/>
<path fill-rule="evenodd" clip-rule="evenodd" d="M57.5394 8.29093C57.5394 7.74146 57.9848 7.29602 58.5343 7.29602L80.9198 7.29602C81.4693 7.29602 81.9147 7.74146 81.9147 8.29093C81.9147 8.84041 81.4693 9.28584 80.9198 9.28584L58.5343 9.28585C57.9848 9.28585 57.5394 8.84041 57.5394 8.29093Z" fill="black"/>
<path fill-rule="evenodd" clip-rule="evenodd" d="M54.5545 15.2554C54.5545 14.7059 54.9999 14.2605 55.5494 14.2605L83.5728 14.2605C84.1222 14.2605 84.5677 14.7059 84.5677 15.2554C84.5677 15.8049 84.1222 16.2503 83.5728 16.2503L55.5494 16.2503C54.9999 16.2503 54.5545 15.8049 54.5545 15.2554Z" fill="black"/>
<path fill-rule="evenodd" clip-rule="evenodd" d="M8.95477 26.3652C8.95477 25.8157 9.40021 25.3702 9.94969 25.3702H12.2712C12.8206 25.3702 13.2661 25.8157 13.2661 26.3652C13.2661 26.9146 12.8206 27.3601 12.2712 27.3601H9.94969C9.40021 27.3601 8.95477 26.9146 8.95477 26.3652Z" fill="black"/>
<path fill-rule="evenodd" clip-rule="evenodd" d="M19.401 23.878C19.401 23.3285 19.8464 22.8831 20.3959 22.8831H22.7174C23.2669 22.8831 23.7123 23.3285 23.7123 23.878C23.7123 24.4274 23.2669 24.8729 22.7174 24.8729H20.3959C19.8464 24.8729 19.401 24.4274 19.401 23.878Z" fill="black"/>
<path fill-rule="evenodd" clip-rule="evenodd" d="M29.8477 20.7273C29.8477 20.1779 30.2931 19.7324 30.8426 19.7324H33.1641C33.7135 19.7324 34.159 20.1779 34.159 20.7273C34.159 21.2768 33.7135 21.7222 33.1641 21.7222H30.8426C30.2931 21.7222 29.8477 21.2768 29.8477 20.7273Z" fill="black"/>
<path fill-rule="evenodd" clip-rule="evenodd" d="M40.7918 18.0743C40.7918 17.5248 41.2373 17.0793 41.7868 17.0793H44.1082C44.6577 17.0793 45.1031 17.5248 45.1031 18.0743C45.1031 18.6237 44.6577 19.0692 44.1082 19.0692H41.7868C41.2373 19.0692 40.7918 18.6237 40.7918 18.0743Z" fill="black"/>
<path fill-rule="evenodd" clip-rule="evenodd" d="M130.334 26.3652C130.334 25.8157 129.888 25.3702 129.339 25.3702H127.017C126.468 25.3702 126.022 25.8157 126.022 26.3652C126.022 26.9146 126.468 27.3601 127.017 27.3601H129.339C129.888 27.3601 130.334 26.9146 130.334 26.3652Z" fill="black"/>
<path fill-rule="evenodd" clip-rule="evenodd" d="M119.887 23.878C119.887 23.3285 119.442 22.8831 118.892 22.8831H116.571C116.021 22.8831 115.576 23.3285 115.576 23.878C115.576 24.4274 116.021 24.8729 116.571 24.8729H118.892C119.442 24.8729 119.887 24.4274 119.887 23.878Z" fill="black"/>
<path fill-rule="evenodd" clip-rule="evenodd" d="M109.44 20.7273C109.44 20.1779 108.995 19.7324 108.445 19.7324H106.124C105.575 19.7324 105.129 20.1779 105.129 20.7273C105.129 21.2768 105.575 21.7222 106.124 21.7222H108.445C108.995 21.7222 109.44 21.2768 109.44 20.7273Z" fill="black"/>
<path fill-rule="evenodd" clip-rule="evenodd" d="M98.4967 18.0743C98.4967 17.5248 98.0512 17.0793 97.5018 17.0793H95.1803C94.6308 17.0793 94.1854 17.5248 94.1854 18.0743C94.1854 18.6237 94.6308 19.0692 95.1803 19.0692H97.5018C98.0512 19.0692 98.4967 18.6237 98.4967 18.0743Z" fill="black"/>
<path fill-rule="evenodd" clip-rule="evenodd" d="M40.7918 82.7436C40.7918 82.1941 41.2373 81.7487 41.7868 81.7487L96.1753 81.7487C96.7248 81.7487 97.1702 82.1941 97.1702 82.7436C97.1702 83.2931 96.7248 83.7385 96.1753 83.7385L41.7868 83.7385C41.2373 83.7385 40.7918 83.293 40.7918 82.7436Z" fill="black"/>
<path fill-rule="evenodd" clip-rule="evenodd" d="M40.7918 86.8891C40.7918 86.3396 41.2373 85.8942 41.7868 85.8942L96.1753 85.8942C96.7248 85.8942 97.1702 86.3396 97.1702 86.8891C97.1702 87.4386 96.7248 87.884 96.1753 87.884L41.7868 87.884C41.2373 87.884 40.7918 87.4386 40.7918 86.8891Z" fill="black"/>
<path fill-rule="evenodd" clip-rule="evenodd" d="M39.4649 91.0345C39.4649 90.485 39.9103 90.0396 40.4598 90.0396L97.8331 90.0396C98.3826 90.0396 98.8281 90.485 98.8281 91.0345C98.8281 91.5839 98.3826 92.0294 97.8331 92.0294L40.4598 92.0294C39.9103 92.0294 39.4649 91.5839 39.4649 91.0345Z" fill="black"/>
<path fill-rule="evenodd" clip-rule="evenodd" d="M39.4649 95.18C39.4649 94.6305 39.9103 94.1851 40.4598 94.1851L97.8331 94.1851C98.3826 94.1851 98.8281 94.6305 98.8281 95.18C98.8281 95.7295 98.3826 96.1749 97.8331 96.1749L40.4598 96.1749C39.9103 96.1749 39.4649 95.7294 39.4649 95.18Z" fill="black"/>
<path fill-rule="evenodd" clip-rule="evenodd" d="M37.8065 99.3255C37.8065 98.776 38.2519 98.3306 38.8014 98.3306L100.154 98.3306C100.704 98.3306 101.149 98.776 101.149 99.3255C101.149 99.8749 100.704 100.32 100.154 100.32L38.8014 100.32C38.2519 100.32 37.8065 99.875 37.8065 99.3255Z" fill="black"/>
<path fill-rule="evenodd" clip-rule="evenodd" d="M28.0238 100.32H5.14077V102.973H28.0238V100.32ZM3.15094 98.3306V104.963H30.0136V98.3306H3.15094Z" fill="black"/>
<path fill-rule="evenodd" clip-rule="evenodd" d="M133.816 100.32H110.933V102.973H133.816V100.32ZM108.943 98.3306V104.963H135.806V98.3306H108.943Z" fill="black"/>
<path fill-rule="evenodd" clip-rule="evenodd" d="M9.72727 60.5238H17.7359L19.3676 69.0088L20.8906 60.5238H27.6352L29.8076 68.9963L30.7852 60.5238H38.7745L40.6975 69.3472L42.2812 60.5238H49.1568L50.6157 65.3175L51.7834 60.5238H61.6676L64.3207 73.4577H73.6812L76.9976 60.5238H88.6961L89.2776 63.3589L89.7496 61.3529H97.1207L99.0999 69.3796L100.462 60.5238H108.813L109.758 67.2264L110.563 61.3529H117.838L120.105 70.0645L121.895 61.3529H128.646L131.306 73.4092L129.363 73.8378L127.048 63.3427H123.518L121.194 74.6528L119.256 74.7032L116.3 63.3427H112.299L110.758 74.5876L108.787 74.5915L107.084 62.5136H102.169L100.309 74.6039L98.36 74.6908L95.5619 63.3427H91.3256L90.2297 68.0003L91.5122 74.2527L89.563 74.6525L87.073 62.5136H78.5415L75.2252 75.4475H62.6976L60.0445 62.5136H53.3467L51.7533 69.0552L51.7731 69.1203L50.3812 74.6881L50.3797 74.6939L48.4479 74.2171L48.4493 74.2113L49.6911 69.1135L47.6825 62.5136H43.9457L41.7712 74.6284L39.8199 74.6645L37.1716 62.5136H32.5586L31.1679 74.5666L29.2158 74.6997L26.0912 62.5136H22.555L20.3806 74.6284L18.4243 74.6405L16.0922 62.5136H11.4986L7.28985 98.6115L5.31342 98.3811L9.72727 60.5238Z" fill="black"/>
<path d="M9.78375 52.8962H17.7431V62.6796H9.78375V52.8962Z" fill="#DC4C43"/>
<path fill-rule="evenodd" clip-rule="evenodd" d="M15.7532 54.8861H11.7736V60.6897H15.7532V54.8861ZM9.78375 52.8962V62.6796H17.7431V52.8962H9.78375Z" fill="black"/>
<path d="M20.396 52.8962H28.3553V62.6796H20.396V52.8962Z" fill="#DC4C43"/>
<path fill-rule="evenodd" clip-rule="evenodd" d="M26.3654 54.8861H22.3858V60.6897H26.3654V54.8861ZM20.396 52.8962V62.6796H28.3553V52.8962H20.396Z" fill="black"/>
<path d="M31.0081 52.8962H38.9675V62.6796H31.0081V52.8962Z" fill="#DC4C43"/>
<path fill-rule="evenodd" clip-rule="evenodd" d="M36.9776 54.8861H32.998V60.6897H36.9776V54.8861ZM31.0081 52.8962V62.6796H38.9675V52.8962H31.0081Z" fill="black"/>
<path d="M41.6208 52.8962H49.5801V62.6796H41.6208V52.8962Z" fill="#DC4C43"/>
<path fill-rule="evenodd" clip-rule="evenodd" d="M47.5903 54.8861H43.6106V60.6897H47.5903V54.8861ZM41.6208 52.8962V62.6796H49.5801V52.8962H41.6208Z" fill="black"/>
<path d="M51.7356 51.4038H61.0214V62.6795H51.7356V51.4038Z" fill="#DC4C43"/>
<path fill-rule="evenodd" clip-rule="evenodd" d="M59.0316 53.3936H53.7254V60.6897H59.0316V53.3936ZM51.7356 51.4038V62.6795H61.0214V51.4038H51.7356Z" fill="black"/>
<path d="M129.339 52.8962H121.38V62.6796H129.339V52.8962Z" fill="#DC4C43"/>
<path fill-rule="evenodd" clip-rule="evenodd" d="M123.369 54.8861H127.349V60.6897H123.369V54.8861ZM129.339 52.8962V62.6796H121.38V52.8962H129.339Z" fill="black"/>
<path d="M118.727 52.8962H110.767V62.6796H118.727V52.8962Z" fill="#DC4C43"/>
<path fill-rule="evenodd" clip-rule="evenodd" d="M112.757 54.8861H116.737V60.6897H112.757V54.8861ZM118.727 52.8962V62.6796H110.767V52.8962H118.727Z" fill="black"/>
<path d="M108.114 52.8962H100.155V62.6796H108.114V52.8962Z" fill="#DC4C43"/>
<path fill-rule="evenodd" clip-rule="evenodd" d="M102.144 54.8861H106.124V60.6897H102.144V54.8861ZM108.114 52.8962V62.6796H100.155V52.8962H108.114Z" fill="black"/>
<path d="M97.5017 52.8962H89.5424V62.6796H97.5017V52.8962Z" fill="#DC4C43"/>
<path fill-rule="evenodd" clip-rule="evenodd" d="M91.5322 54.8861H95.5119V60.6897H91.5322V54.8861ZM97.5017 52.8962V62.6796H89.5424V52.8962H97.5017Z" fill="black"/>
<path d="M87.3865 51.4038H78.1007V62.6795H87.3865V51.4038Z" fill="#DC4C43"/>
<path fill-rule="evenodd" clip-rule="evenodd" d="M80.0905 53.3936H85.3967V60.6897H80.0905V53.3936ZM87.3865 51.4038V62.6795H78.1007V51.4038H87.3865Z" fill="black"/>
<path fill-rule="evenodd" clip-rule="evenodd" d="M11.4418 52.8961L11.4418 38.3041L13.4316 38.3041L13.4316 52.8961L11.4418 52.8961Z" fill="black"/>
<path fill-rule="evenodd" clip-rule="evenodd" d="M21.888 52.8962L21.888 35.1536L23.8779 35.1536L23.8779 52.8962L21.888 52.8962Z" fill="black"/>
<path fill-rule="evenodd" clip-rule="evenodd" d="M32.6662 52.8962L32.6662 31.8372L34.6561 31.8372L34.6561 52.8962L32.6662 52.8962Z" fill="black"/>
<path fill-rule="evenodd" clip-rule="evenodd" d="M43.6109 53.062L43.6109 29.5157L45.6007 29.5157L45.6007 53.062L43.6109 53.062Z" fill="black"/>
<path fill-rule="evenodd" clip-rule="evenodd" d="M53.7251 52.8961L53.7251 27.1942L55.715 27.1942L55.715 52.8961L53.7251 52.8961Z" fill="black"/>
<path fill-rule="evenodd" clip-rule="evenodd" d="M13.9288 52.8961L13.9288 38.3041L15.9186 38.3041L15.9186 52.8961L13.9288 52.8961Z" fill="black"/>
<path fill-rule="evenodd" clip-rule="evenodd" d="M24.3755 52.8962L24.3755 35.1536L26.3653 35.1536L26.3653 52.8962L24.3755 52.8962Z" fill="black"/>
<path fill-rule="evenodd" clip-rule="evenodd" d="M35.1537 52.8962L35.1537 31.8372L37.1435 31.8372L37.1435 52.8962L35.1537 52.8962Z" fill="black"/>
<path fill-rule="evenodd" clip-rule="evenodd" d="M46.0978 53.062L46.0978 29.5157L48.0876 29.5157L48.0876 53.062L46.0978 53.062Z" fill="black"/>
<path fill-rule="evenodd" clip-rule="evenodd" d="M57.2075 52.8961L57.2075 27.1942L59.1973 27.1942L59.1973 52.8961L57.2075 52.8961Z" fill="black"/>
<path fill-rule="evenodd" clip-rule="evenodd" d="M58.0369 35.1535L68.981 26.3651L70.2269 27.9166L59.2828 36.705L58.0369 35.1535Z" fill="black"/>
<path fill-rule="evenodd" clip-rule="evenodd" d="M59.363 51.4038L79.7587 34.8219L81.0139 36.3658L60.6182 52.9477L59.363 51.4038Z" fill="black"/>
<path fill-rule="evenodd" clip-rule="evenodd" d="M61.0214 67.3224L78.1007 54.0569L79.3213 55.6284L62.2419 68.8939L61.0214 67.3224Z" fill="black"/>
<path fill-rule="evenodd" clip-rule="evenodd" d="M63.8408 73.7894L76.7746 64.1719L77.962 65.7687L65.0281 75.3862L63.8408 73.7894Z" fill="black"/>
<path fill-rule="evenodd" clip-rule="evenodd" d="M52.8966 17.2452L59.3635 5.58652e-05L61.2267 0.69873L54.7597 17.9439L52.8966 17.2452Z" fill="black"/>
<path fill-rule="evenodd" clip-rule="evenodd" d="M85.5629 17.2452L79.096 5.58652e-05L77.2329 0.69873L83.6998 17.9439L85.5629 17.2452Z" fill="black"/>
<path fill-rule="evenodd" clip-rule="evenodd" d="M58.0364 42.2839L76.774 27.1944L78.022 28.7441L59.2845 43.8337L58.0364 42.2839Z" fill="black"/>
<path fill-rule="evenodd" clip-rule="evenodd" d="M59.3633 60.0264L80.9198 42.118L82.1913 43.6486L60.6349 61.557L59.3633 60.0264Z" fill="black"/>
<path fill-rule="evenodd" clip-rule="evenodd" d="M128.012 52.8961L128.012 38.3041L126.022 38.3041L126.022 52.8961L128.012 52.8961Z" fill="black"/>
<path fill-rule="evenodd" clip-rule="evenodd" d="M117.566 52.8962L117.566 35.1536L115.576 35.1536L115.576 52.8962L117.566 52.8962Z" fill="black"/>
<path fill-rule="evenodd" clip-rule="evenodd" d="M106.788 52.8962L106.788 31.8372L104.798 31.8372L104.798 52.8962L106.788 52.8962Z" fill="black"/>
<path fill-rule="evenodd" clip-rule="evenodd" d="M95.8436 53.062L95.8436 29.5157L93.8538 29.5157L93.8538 53.062L95.8436 53.062Z" fill="black"/>
<path fill-rule="evenodd" clip-rule="evenodd" d="M85.7289 52.8961L85.7289 27.1942L83.7391 27.1942L83.7391 52.8961L85.7289 52.8961Z" fill="black"/>
<path fill-rule="evenodd" clip-rule="evenodd" d="M125.525 52.8961L125.525 38.3041L123.535 38.3041L123.535 52.8961L125.525 52.8961Z" fill="black"/>
<path fill-rule="evenodd" clip-rule="evenodd" d="M115.078 52.8962L115.078 35.1536L113.088 35.1536L113.088 52.8962L115.078 52.8962Z" fill="black"/>
<path fill-rule="evenodd" clip-rule="evenodd" d="M104.3 52.8962L104.3 31.8372L102.31 31.8372L102.31 52.8962L104.3 52.8962Z" fill="black"/>
<path fill-rule="evenodd" clip-rule="evenodd" d="M93.3562 53.062L93.3562 29.5157L91.3664 29.5157L91.3664 53.062L93.3562 53.062Z" fill="black"/>
<path fill-rule="evenodd" clip-rule="evenodd" d="M82.2465 52.8961L82.2465 27.1942L80.2567 27.1942L80.2567 52.8961L82.2465 52.8961Z" fill="black"/>
<path fill-rule="evenodd" clip-rule="evenodd" d="M130.25 72.798C130.798 72.7518 131.279 73.1582 131.325 73.7057L133.481 99.2418C133.527 99.7894 133.121 100.271 132.573 100.317C132.026 100.363 131.544 99.9567 131.498 99.4092L129.342 73.8731C129.296 73.3256 129.703 72.8443 130.25 72.798Z" fill="black"/>
</svg>
