<svg width="134" height="97" viewBox="0 0 134 97" fill="none" xmlns="http://www.w3.org/2000/svg">
<g clip-path="url(#clip0_47_8071)">
<path d="M44.89 44.4858H51.59V96.3078H44.89V44.4858Z" fill="#BD866E"/>
<path d="M83.75 44.4858H90.45V96.3078H83.75V44.4858Z" fill="#F2B894"/>
<path d="M83.75 47.1433H90.45V96.3077H83.75V47.1433Z" fill="#BD866E"/>
<path d="M90.7435 13.758H98.49L94.47 5.7854H91.12" fill="#9E919C"/>
<path d="M51.59 44.4858H83.75V96.3078H51.59V44.4858Z" fill="#F2B894"/>
<path d="M79.73 96.3078H56.95V76.0694C56.95 74.2723 57.4095 72.5046 58.2855 70.9314C59.1614 69.3583 60.4253 68.031 61.9589 67.0736L68.34 63.0886L74.445 66.6497C76.0544 67.5884 77.3886 68.9277 78.3156 70.5348C79.2425 72.142 79.7301 73.9614 79.73 75.8129V96.3078Z" fill="#BD866E"/>
<path d="M75.71 96.3079H60.97V76.0495C60.97 73.6856 62.1934 71.4879 64.2101 70.2282L68.34 67.6504L72.2903 69.9545C73.3317 70.5618 74.195 71.4283 74.7948 72.4683C75.3946 73.5082 75.7101 74.6854 75.71 75.8834V96.3079Z" fill="#8D7E8A"/>
<path d="M76.38 96.9719H60.3V76.0478C60.3 73.4408 61.6279 71.0543 63.8523 69.6657L68.3279 66.8713L72.6307 69.3814C73.7705 70.0497 74.7155 71.0004 75.3728 72.1403C76.0302 73.2802 76.3773 74.57 76.38 75.883V96.9719ZM61.64 95.6431H75.04V75.883C75.04 73.6906 73.8568 71.639 71.95 70.5268L68.3507 68.4273L64.5666 70.7899C63.6681 71.3472 62.9278 72.1225 62.4157 73.0425C61.9036 73.9626 61.6366 74.9969 61.64 76.0478V95.6431Z" fill="black"/>
<path d="M66.8901 70.2282L69.7256 68.4583L68.34 67.6504L64.2101 70.2282C63.2181 70.8478 62.4006 71.7065 61.834 72.7243C61.2674 73.7421 60.9701 74.8856 60.97 76.0482V96.3079H63.65V76.0495C63.65 73.6856 64.8734 71.4879 66.8901 70.2282Z" fill="#7A6675"/>
<path d="M69.4775 70.2282L66.6421 68.4583L68.0277 67.6504L72.1575 70.2282C73.1496 70.8478 73.967 71.7065 74.5337 72.7243C75.1003 73.7421 75.3975 74.8856 75.3977 76.0482V96.3079H72.7177V76.0495C72.7178 74.8867 72.4206 73.7429 71.854 72.7249C71.2874 71.7069 70.4697 70.8479 69.4775 70.2282Z" fill="#7A6675"/>
<path d="M31.49 44.4858H44.89V96.3078H31.49V44.4858Z" fill="#F2B894"/>
<path d="M31.49 44.5138V27.2119L44.89 28.5407V44.5138H31.49Z" fill="#F2B894"/>
<path d="M31.49 96.3102H18.09V44.4883H31.49V96.3102Z" fill="#FED4AF"/>
<path d="M18.09 27.2397H31.49V44.5137H18.09V27.2397Z" fill="#FED4AF"/>
<path d="M4.69 44.5137V28.5685L18.09 27.2397V44.5137H4.69Z" fill="#F2B894"/>
<path d="M18.09 96.3102H4.69V44.4883H18.09V96.3102Z" fill="#F2B894"/>
<path d="M90.45 47.146H83.75V28.5432H90.45V47.146Z" fill="#BD866E"/>
<path d="M51.59 36.5132H83.75V44.4858H51.59V36.5132Z" fill="#DFA683"/>
<path d="M54.27 39.1708C53.5592 39.1708 52.8775 39.4508 52.375 39.9492C51.8724 40.4476 51.59 41.1235 51.59 41.8284V43.5996H51.7535C51.9369 43.0826 52.2773 42.6347 52.728 42.3175C53.1786 42.0004 53.7174 41.8294 54.27 41.8284C55.4358 41.8284 56.4167 42.5698 56.7865 43.5996H56.95V41.8284C56.95 41.1235 56.6676 40.4476 56.165 39.9492C55.6624 39.4508 54.9808 39.1708 54.27 39.1708ZM59.63 39.1708C58.9192 39.1708 58.2375 39.4508 57.735 39.9492C57.2324 40.4476 56.95 41.1235 56.95 41.8284V43.5996H57.1135C57.2969 43.0826 57.6373 42.6347 58.088 42.3175C58.5386 42.0004 59.0774 41.8294 59.63 41.8284C60.7958 41.8284 61.7767 42.5698 62.1465 43.5996H62.31V41.8284C62.31 41.1235 62.0276 40.4476 61.525 39.9492C61.0224 39.4508 60.3408 39.1708 59.63 39.1708ZM64.99 39.1708C64.2792 39.1708 63.5975 39.4508 63.095 39.9492C62.5924 40.4476 62.31 41.1235 62.31 41.8284V43.5996H62.4735C62.6569 43.0826 62.9973 42.6347 63.448 42.3175C63.8986 42.0004 64.4374 41.8294 64.99 41.8284C66.1558 41.8284 67.1367 42.5698 67.5065 43.5996H67.67V41.8284C67.67 41.1235 67.3876 40.4476 66.885 39.9492C66.3825 39.4508 65.7008 39.1708 64.99 39.1708ZM70.35 39.1708C69.6392 39.1708 68.9576 39.4508 68.4549 39.9492C67.9524 40.4476 67.67 41.1235 67.67 41.8284V43.5996H67.8335C68.0169 43.0826 68.3573 42.6347 68.808 42.3175C69.2586 42.0004 69.7974 41.8294 70.35 41.8284C71.5158 41.8284 72.4967 42.5698 72.8665 43.5996H73.03V41.8284C73.03 41.1235 72.7476 40.4476 72.245 39.9492C71.7424 39.4508 71.0608 39.1708 70.35 39.1708ZM75.71 39.1708C74.9992 39.1708 74.3176 39.4508 73.8149 39.9492C73.3124 40.4476 73.03 41.1235 73.03 41.8284V43.5996H73.1935C73.3769 43.0826 73.7173 42.6347 74.168 42.3175C74.6186 42.0004 75.1574 41.8294 75.71 41.8284C76.8758 41.8284 77.8567 42.5698 78.2265 43.5996H78.39V41.8284C78.39 41.1235 78.1076 40.4476 77.605 39.9492C77.1024 39.4508 76.4208 39.1708 75.71 39.1708ZM81.07 39.1708C80.3592 39.1708 79.6775 39.4508 79.1749 39.9492C78.6724 40.4476 78.39 41.1235 78.39 41.8284V43.5996H78.5535C78.7369 43.0826 79.0773 42.6347 79.528 42.3175C79.9786 42.0004 80.5173 41.8294 81.07 41.8284C82.2358 41.8284 83.2167 42.5698 83.5865 43.5996H83.75V41.8284C83.75 41.1235 83.4676 40.4476 82.965 39.9492C82.4624 39.4508 81.7808 39.1708 81.07 39.1708ZM51.59 35.8635H83.75V38.5211H51.59V35.8635ZM4.69 47.1434H18.09V49.801H4.69V47.1434Z" fill="#BD866E"/>
<path d="M18.09 47.1433H31.49V49.8008H18.09V47.1433Z" fill="#F2B894"/>
<path d="M31.49 47.1433H44.89V49.8008H31.49V47.1433Z" fill="#BD866E"/>
<path d="M44.89 47.1433H51.59V49.8008H44.89V47.1433Z" fill="#916557"/>
<path d="M44.555 13.9241H37.185L41.205 5.95154H43.215" fill="#7A6675"/>
<path d="M50.92 11.9309H83.08V29.2049H50.92V11.9309Z" fill="#FED4AF"/>
<path d="M51.5913 11.2666H83.7513V13.9241H51.5913V11.2666Z" fill="#F2B894"/>
<path d="M53.6 27.8761V15.9172C53.6 14.8236 55.145 13.9241 56.6163 13.9241C58.0877 13.9241 59.1302 14.8236 59.1302 15.9172L58.9587 19.9035V27.8761" fill="#8D7E8A"/>
<path d="M58.96 27.8761V15.9172C58.96 14.8236 60.505 13.9241 61.9763 13.9241C63.4477 13.9241 64.4902 14.8236 64.4902 15.9172L64.3187 19.9035V27.8761" fill="#8D7E8A"/>
<path d="M64.32 27.8761V15.9172C64.32 14.8236 65.865 13.9241 67.3363 13.9241C68.8077 13.9241 69.8502 14.8236 69.8502 15.9172L69.6787 19.9035V27.8761" fill="#8D7E8A"/>
<path d="M69.68 27.8761V15.9172C69.68 14.8236 71.225 13.9241 72.6963 13.9241C74.1677 13.9241 75.2102 14.8236 75.2102 15.9172L75.0387 19.9035V27.8761" fill="#8D7E8A"/>
<path d="M75.04 27.8761V15.9172C75.04 14.8236 76.585 13.9241 78.0563 13.9241C79.5277 13.9241 80.5702 14.8236 80.5702 15.9172L80.3987 19.9035V27.8761" fill="#8D7E8A"/>
<path d="M44.22 11.9309H50.92V29.2049H44.22V11.9309Z" fill="#FED4AF"/>
<path d="M44.8913 11.2666H51.5913V13.9241H44.8913V11.2666Z" fill="#F2B894"/>
<path d="M48.91 11.7649H51.59V29.0389H48.91V11.7649Z" fill="#F2B894"/>
<path d="M51.59 19.412C51.59 18.5921 50.6828 17.9185 49.58 17.9185C48.4772 17.9185 47.57 18.5921 47.57 19.412V28.5034L51.59 28.5473V19.412Z" fill="#8D7E8A"/>
<path d="M89.78 29.2076H83.08V11.9336H89.78V29.2076Z" fill="#FED4AF"/>
<path d="M83.7513 11.2666H90.4513V13.9241H83.7513V11.2666Z" fill="#F2B894"/>
<path d="M83.08 11.9309H85.76V29.2049H83.08V11.9309Z" fill="#F2B894"/>
<path d="M83.08 19.4039C83.08 18.5841 83.9872 17.9104 85.09 17.9104C86.1928 17.9104 87.1 18.5841 87.1 19.4039V28.4954L83.08 28.5392V19.4039Z" fill="#8D7E8A"/>
<path d="M56.6163 16.5816C58.0796 16.5816 59.4504 17.4719 59.4638 18.5575L59.5496 15.9172C59.5496 14.8236 58.0461 13.9241 56.5748 13.9241C55.1035 13.9241 53.6 14.8236 53.6 15.9172V18.5748C53.6 17.4812 55.145 16.5816 56.6163 16.5816Z" fill="#7A6675"/>
<path d="M61.9763 16.5816C63.4396 16.5816 64.8104 17.4719 64.8238 18.5575L64.9096 15.9172C64.9096 14.8236 63.4061 13.9241 61.9348 13.9241C60.4635 13.9241 58.96 14.8236 58.96 15.9172V18.5748C58.96 17.4812 60.505 16.5816 61.9763 16.5816Z" fill="#7A6675"/>
<path d="M67.3363 16.5816C68.7996 16.5816 70.1704 17.4719 70.1838 18.5575L70.2696 15.9172C70.2696 14.8236 68.7661 13.9241 67.2948 13.9241C65.8235 13.9241 64.32 14.8236 64.32 15.9172V18.5748C64.32 17.4812 65.865 16.5816 67.3363 16.5816Z" fill="#7A6675"/>
<path d="M72.6963 16.5816C74.1596 16.5816 75.5304 17.4719 75.5438 18.5575L75.6296 15.9172C75.6296 14.8236 74.1261 13.9241 72.6548 13.9241C71.1835 13.9241 69.68 14.8236 69.68 15.9172V18.5748C69.68 17.4812 71.225 16.5816 72.6963 16.5816Z" fill="#7A6675"/>
<path d="M78.0563 16.5816C79.5196 16.5816 80.8904 17.4719 80.9038 18.5575L80.9896 15.9172C80.9896 14.8236 79.4861 13.9241 78.0148 13.9241C76.5435 13.9241 75.04 14.8236 75.04 15.9172V18.5748C75.04 17.4812 76.585 16.5816 78.0563 16.5816ZM49.58 17.9104C48.4772 17.9104 47.57 18.5854 47.57 19.4039V22.0614C47.57 21.2416 48.4772 20.5679 49.58 20.5679C50.6828 20.5679 51.59 21.2429 51.59 22.0614V19.4039C51.59 18.5854 50.6828 17.9104 49.58 17.9104ZM85.09 17.9104C83.9872 17.9104 83.08 18.5854 83.08 19.4039V22.0614C83.08 21.2416 83.9872 20.5679 85.09 20.5679C86.1928 20.5679 87.1 21.2429 87.1 22.0614V19.4039C87.1 18.5854 86.1928 17.9104 85.09 17.9104Z" fill="#7A6675"/>
<path d="M42.21 8.60913H93.13V11.2667H42.21V8.60913ZM36.85 13.9242H44.89V16.5817H36.85V13.9242Z" fill="#ED6D64"/>
<path d="M38.86 17.2461H44.22V27.8762H38.86V17.2461Z" fill="#FED4AF"/>
<path d="M38.86 17.2461H44.22V19.9036H38.86V17.2461Z" fill="#F2B894"/>
<path d="M42.88 17.2461H45.56V27.8762H42.88V17.2461Z" fill="#F2B894"/>
<path d="M89.78 17.2461H95.14V27.8762H89.78V17.2461Z" fill="#FED4AF"/>
<path d="M90.324 16.7466H95.684V19.4041H90.324V16.7466Z" fill="#F2B894"/>
<path d="M89.78 17.2461H92.46V27.8762H89.78V17.2461Z" fill="#F2B894"/>
<path d="M90.45 13.9241H98.49V16.5816H90.45V13.9241Z" fill="#ED6D64"/>
<path d="M42.2113 8.60908L46.2313 0.636475H89.1113L93.1313 8.60908H42.2113Z" fill="#8D7E8A"/>
<path d="M85.09 1.3009L89.11 9.27351H93.13L89.11 1.3009H85.09Z" fill="#9E919C"/>
<path d="M51.59 44.4592H83.75V49.8009H51.59V44.4592Z" fill="#BD866E"/>
<path d="M51.59 44.4858H54.27V96.3078H51.59V44.4858ZM81.07 44.4858H83.75V96.3078H81.07V44.4858Z" fill="#BD866E"/>
<path d="M59.63 64.4173C59.2746 64.4173 58.9338 64.2773 58.6825 64.0281C58.4312 63.7789 58.29 63.4409 58.29 63.0885C58.29 62.7361 58.4312 62.3982 58.6825 62.149C58.9338 61.8998 59.2746 61.7598 59.63 61.7598C59.9854 61.7598 60.3262 61.8998 60.5775 62.149C60.8288 62.3982 60.97 62.7361 60.97 63.0885C60.97 63.4409 60.8288 63.7789 60.5775 64.0281C60.3262 64.2773 59.9854 64.4173 59.63 64.4173ZM75.71 64.4173C75.3546 64.4173 75.0138 64.2773 74.7625 64.0281C74.5112 63.7789 74.37 63.4409 74.37 63.0885C74.37 62.7361 74.5112 62.3982 74.7625 62.149C75.0138 61.8998 75.3546 61.7598 75.71 61.7598C76.0654 61.7598 76.4062 61.8998 76.6575 62.149C76.9088 62.3982 77.05 62.7361 77.05 63.0885C77.05 63.4409 76.9088 63.7789 76.6575 64.0281C76.4062 64.2773 76.0654 64.4173 75.71 64.4173Z" fill="#8D7E8A"/>
<path d="M44.89 28.5405H51.59V44.5136H44.89V28.5405Z" fill="#BD866E"/>
<path d="M44.89 31.1982H51.59V33.8558H44.89V31.1982Z" fill="#916557"/>
<path d="M48.91 32.527H55.61V35.1845H48.91V32.527ZM83.75 31.1982H90.45V33.8558H83.75V31.1982Z" fill="#916557"/>
<path d="M79.73 32.5269H86.43V35.1844H79.73V32.5269Z" fill="#916557"/>
<path d="M12.73 40.4994H10.05V36.5131C10.05 36.1607 10.1912 35.8227 10.4425 35.5735C10.6938 35.3243 11.0346 35.1843 11.39 35.1843C11.7454 35.1843 12.0862 35.3243 12.3375 35.5735C12.5888 35.8227 12.73 36.1607 12.73 36.5131V40.4994ZM26.13 40.4994H23.45V36.5131C23.45 36.1607 23.5912 35.8227 23.8425 35.5735C24.0938 35.3243 24.4346 35.1843 24.79 35.1843C25.1454 35.1843 25.4862 35.3243 25.7375 35.5735C25.9888 35.8227 26.13 36.1607 26.13 36.5131V40.4994ZM39.53 40.4994H36.85V36.5131C36.85 36.1607 36.9912 35.8227 37.2425 35.5735C37.4938 35.3243 37.8346 35.1843 38.19 35.1843C38.5454 35.1843 38.8862 35.3243 39.1375 35.5735C39.3888 35.8227 39.53 36.1607 39.53 36.5131V40.4994Z" fill="#E3F3FC"/>
<path d="M103.85 96.3102H90.45V44.4883H103.85V96.3102Z" fill="#F2B894"/>
<path d="M103.85 44.5138V27.2119L90.45 28.5407V44.5138H103.85Z" fill="#F2B894"/>
<path d="M103.85 44.4858H117.25V96.3078H103.85V44.4858Z" fill="#FED4AF"/>
<path d="M117.25 44.5137H103.85V27.2397H117.25V44.5137Z" fill="#FED4AF"/>
<path d="M130.65 44.5137V28.5685L117.25 27.2397V44.5137H130.65Z" fill="#F2B894"/>
<path d="M117.25 44.4858H130.65V96.3078H117.25V44.4858Z" fill="#F2B894"/>
<path d="M117.25 47.1433H130.65V49.8008H117.25V47.1433Z" fill="#BD866E"/>
<path d="M103.85 47.1433H117.25V49.8008H103.85V47.1433Z" fill="#F2B894"/>
<path d="M90.45 47.1433H103.85V49.8008H90.45V47.1433Z" fill="#BD866E"/>
<path d="M122.61 40.4994H125.29V36.5131C125.29 36.1607 125.149 35.8227 124.898 35.5735C124.646 35.3243 124.305 35.1843 123.95 35.1843C123.595 35.1843 123.254 35.3243 123.002 35.5735C122.751 35.8227 122.61 36.1607 122.61 36.5131V40.4994ZM109.21 40.4994H111.89V36.5131C111.89 36.1607 111.749 35.8227 111.498 35.5735C111.246 35.3243 110.905 35.1843 110.55 35.1843C110.195 35.1843 109.854 35.3243 109.602 35.5735C109.351 35.8227 109.21 36.1607 109.21 36.5131V40.4994ZM95.81 40.4994H98.49V36.5131C98.49 36.1607 98.3488 35.8227 98.0975 35.5735C97.8462 35.3243 97.5054 35.1843 97.15 35.1843C96.7946 35.1843 96.4538 35.3243 96.2025 35.5735C95.9512 35.8227 95.81 36.1607 95.81 36.5131V40.4994Z" fill="#E3F3FC"/>
<path d="M44.89 47.1433H51.255V96.3077H44.89V47.1433Z" fill="#BD866E"/>
<path d="M44.89 47.1433H51.59V49.8008H44.89V47.1433ZM83.75 47.1433H90.45V49.8008H83.75V47.1433Z" fill="#916557"/>
<path d="M45.56 96.972H30.82V43.8214H45.56V96.972ZM32.16 95.6433H44.22V45.1501H32.16V95.6433ZM39.53 28.5405C39.3523 28.5405 39.1819 28.4705 39.0562 28.3459C38.9306 28.2213 38.86 28.0524 38.86 27.8762V17.246C38.86 17.0698 38.9306 16.9008 39.0562 16.7762C39.1819 16.6516 39.3523 16.5816 39.53 16.5816C39.7077 16.5816 39.8781 16.6516 40.0038 16.7762C40.1294 16.9008 40.2 17.0698 40.2 17.246V27.8762C40.2 28.0524 40.1294 28.2213 40.0038 28.3459C39.8781 28.4705 39.7077 28.5405 39.53 28.5405ZM95.81 28.5405C95.6323 28.5405 95.4619 28.4705 95.3362 28.3459C95.2106 28.2213 95.14 28.0524 95.14 27.8762V17.246C95.14 17.0698 95.2106 16.9008 95.3362 16.7762C95.4619 16.6516 95.6323 16.5816 95.81 16.5816C95.9877 16.5816 96.1581 16.6516 96.2838 16.7762C96.4094 16.9008 96.48 17.0698 96.48 17.246V27.8762C96.48 28.0524 96.4094 28.2213 96.2838 28.3459C96.1581 28.4705 95.9877 28.5405 95.81 28.5405ZM44.22 14.5885H36.85C36.7357 14.5891 36.6231 14.5606 36.523 14.5056C36.423 14.4507 36.3389 14.3712 36.2787 14.2747C36.2186 14.1783 36.1845 14.0681 36.1796 13.9549C36.1748 13.8416 36.1994 13.7289 36.251 13.6278L40.271 5.65518C40.3267 5.54496 40.4122 5.45228 40.518 5.38752C40.6238 5.32275 40.7457 5.28844 40.87 5.28844H43.55C43.7277 5.28844 43.8981 5.35843 44.0238 5.48303C44.1494 5.60763 44.22 5.77662 44.22 5.95282C44.22 6.12903 44.1494 6.29802 44.0238 6.42261C43.8981 6.54721 43.7277 6.6172 43.55 6.6172H41.2841L37.9341 13.261H44.22C44.3923 13.2687 44.5551 13.342 44.6743 13.4656C44.7935 13.5892 44.8601 13.7537 44.8601 13.9248C44.8601 14.0958 44.7935 14.2603 44.6743 14.3839C44.5551 14.5076 44.3923 14.5808 44.22 14.5885ZM98.49 14.5885C98.3657 14.5882 98.244 14.5537 98.1383 14.489C98.0325 14.4243 97.947 14.3318 97.891 14.2217L94.0573 6.61588H91.12C90.9423 6.61588 90.7719 6.54588 90.6462 6.42128C90.5206 6.29669 90.45 6.1277 90.45 5.95149C90.45 5.77529 90.5206 5.6063 90.6462 5.4817C90.7719 5.35711 90.9423 5.28711 91.12 5.28711H94.47C94.5943 5.28711 94.7162 5.32142 94.822 5.38619C94.9278 5.45096 95.0133 5.54363 95.069 5.65385L99.089 13.6265C99.1402 13.7277 99.1644 13.8403 99.1593 13.9535C99.1543 14.0667 99.1201 14.1767 99.0601 14.2731C99.0001 14.3695 98.9162 14.4491 98.8164 14.5043C98.7166 14.5595 98.6043 14.5885 98.49 14.5885ZM18.09 45.1501H4.69C4.51231 45.1501 4.34189 45.0801 4.21624 44.9555C4.09059 44.8309 4.02 44.6619 4.02 44.4857V28.5405C4.02 28.199 4.27996 27.9134 4.623 27.8801L18.023 26.5514C18.1162 26.5417 18.2104 26.5515 18.2995 26.5803C18.3886 26.6091 18.4706 26.6562 18.5401 26.7185C18.6096 26.7808 18.6651 26.8569 18.703 26.9419C18.7409 27.0269 18.7603 27.1188 18.76 27.2118V44.4857C18.76 44.6619 18.6894 44.8309 18.5638 44.9555C18.4381 45.0801 18.2677 45.1501 18.09 45.1501ZM5.36 43.8214H17.42V27.9466L5.36 29.1411V43.8214ZM7.37 59.7945C7.19231 59.7945 7.02189 59.7245 6.89624 59.5999C6.77059 59.4753 6.7 59.3063 6.7 59.1301V51.1575C6.7 50.9813 6.77059 50.8123 6.89624 50.6877C7.02189 50.5631 7.19231 50.4931 7.37 50.4931C7.5477 50.4931 7.71812 50.5631 7.84377 50.6877C7.96942 50.8123 8.04 50.9813 8.04 51.1575V59.1301C8.04 59.3063 7.96942 59.4753 7.84377 59.5999C7.71812 59.7245 7.5477 59.7945 7.37 59.7945Z" fill="black"/>
<path d="M7.37 41.1919C7.19231 41.1919 7.02189 41.1219 6.89624 40.9973C6.77059 40.8727 6.7 40.7037 6.7 40.5275V35.2124C6.7 35.0362 6.77059 34.8672 6.89624 34.7426C7.02189 34.618 7.19231 34.548 7.37 34.548C7.5477 34.548 7.71811 34.618 7.84376 34.7426C7.96941 34.8672 8.04 35.0362 8.04 35.2124V40.5275C8.04 40.7037 7.96941 40.8727 7.84376 40.9973C7.71811 41.1219 7.5477 41.1919 7.37 41.1919ZM15.41 41.1919C15.2323 41.1919 15.0619 41.1219 14.9362 40.9973C14.8106 40.8727 14.74 40.7037 14.74 40.5275V35.2124C14.74 35.0362 14.8106 34.8672 14.9362 34.7426C15.0619 34.618 15.2323 34.548 15.41 34.548C15.5877 34.548 15.7581 34.618 15.8838 34.7426C16.0094 34.8672 16.08 35.0362 16.08 35.2124V40.5275C16.08 40.7037 16.0094 40.8727 15.8838 40.9973C15.7581 41.1219 15.5877 41.1919 15.41 41.1919ZM11.39 59.7946C11.2123 59.7946 11.0419 59.7246 10.9162 59.6C10.7906 59.4754 10.72 59.3064 10.72 59.1302V51.1576C10.72 50.9814 10.7906 50.8124 10.9162 50.6878C11.0419 50.5632 11.2123 50.4932 11.39 50.4932C11.5677 50.4932 11.7381 50.5632 11.8638 50.6878C11.9894 50.8124 12.06 50.9814 12.06 51.1576V59.1302C12.06 59.3064 11.9894 59.4754 11.8638 59.6C11.7381 59.7246 11.5677 59.7946 11.39 59.7946ZM15.41 59.7946C15.2323 59.7946 15.0619 59.7246 14.9362 59.6C14.8106 59.4754 14.74 59.3064 14.74 59.1302V51.1576C14.74 50.9814 14.8106 50.8124 14.9362 50.6878C15.0619 50.5632 15.2323 50.4932 15.41 50.4932C15.5877 50.4932 15.7581 50.5632 15.8838 50.6878C16.0094 50.8124 16.08 50.9814 16.08 51.1576V59.1302C16.08 59.3064 16.0094 59.4754 15.8838 59.6C15.7581 59.7246 15.5877 59.7946 15.41 59.7946ZM20.77 59.7946C20.5923 59.7946 20.4219 59.7246 20.2962 59.6C20.1706 59.4754 20.1 59.3064 20.1 59.1302V51.1576C20.1 50.9814 20.1706 50.8124 20.2962 50.6878C20.4219 50.5632 20.5923 50.4932 20.77 50.4932C20.9477 50.4932 21.1181 50.5632 21.2438 50.6878C21.3694 50.8124 21.44 50.9814 21.44 51.1576V59.1302C21.44 59.3064 21.3694 59.4754 21.2438 59.6C21.1181 59.7246 20.9477 59.7946 20.77 59.7946ZM24.79 59.7946C24.6123 59.7946 24.4419 59.7246 24.3162 59.6C24.1906 59.4754 24.12 59.3064 24.12 59.1302V51.1576C24.12 50.9814 24.1906 50.8124 24.3162 50.6878C24.4419 50.5632 24.6123 50.4932 24.79 50.4932C24.9677 50.4932 25.1381 50.5632 25.2638 50.6878C25.3894 50.8124 25.46 50.9814 25.46 51.1576V59.1302C25.46 59.3064 25.3894 59.4754 25.2638 59.6C25.1381 59.7246 24.9677 59.7946 24.79 59.7946ZM28.81 59.7946C28.6323 59.7946 28.4619 59.7246 28.3362 59.6C28.2106 59.4754 28.14 59.3064 28.14 59.1302V51.1576C28.14 50.9814 28.2106 50.8124 28.3362 50.6878C28.4619 50.5632 28.6323 50.4932 28.81 50.4932C28.9877 50.4932 29.1581 50.5632 29.2838 50.6878C29.4094 50.8124 29.48 50.9814 29.48 51.1576V59.1302C29.48 59.3064 29.4094 59.4754 29.2838 59.6C29.1581 59.7246 28.9877 59.7946 28.81 59.7946ZM34.17 59.7946C33.9923 59.7946 33.8219 59.7246 33.6962 59.6C33.5706 59.4754 33.5 59.3064 33.5 59.1302V51.1576C33.5 50.9814 33.5706 50.8124 33.6962 50.6878C33.8219 50.5632 33.9923 50.4932 34.17 50.4932C34.3477 50.4932 34.5181 50.5632 34.6438 50.6878C34.7694 50.8124 34.84 50.9814 34.84 51.1576V59.1302C34.84 59.3064 34.7694 59.4754 34.6438 59.6C34.5181 59.7246 34.3477 59.7946 34.17 59.7946ZM38.19 59.7946C38.0123 59.7946 37.8419 59.7246 37.7162 59.6C37.5906 59.4754 37.52 59.3064 37.52 59.1302V51.1576C37.52 50.9814 37.5906 50.8124 37.7162 50.6878C37.8419 50.5632 38.0123 50.4932 38.19 50.4932C38.3677 50.4932 38.5381 50.5632 38.6638 50.6878C38.7894 50.8124 38.86 50.9814 38.86 51.1576V59.1302C38.86 59.3064 38.7894 59.4754 38.6638 59.6C38.5381 59.7246 38.3677 59.7946 38.19 59.7946ZM42.21 59.7946C42.0323 59.7946 41.8619 59.7246 41.7362 59.6C41.6106 59.4754 41.54 59.3064 41.54 59.1302V51.1576C41.54 50.9814 41.6106 50.8124 41.7362 50.6878C41.8619 50.5632 42.0323 50.4932 42.21 50.4932C42.3877 50.4932 42.5581 50.5632 42.6838 50.6878C42.8094 50.8124 42.88 50.9814 42.88 51.1576V59.1302C42.88 59.3064 42.8094 59.4754 42.6838 59.6C42.5581 59.7246 42.3877 59.7946 42.21 59.7946ZM83.75 45.1503H51.59C51.4123 45.1503 51.2419 45.0803 51.1162 44.9557C50.9906 44.8311 50.92 44.6621 50.92 44.4859C50.92 44.3097 50.9906 44.1407 51.1162 44.0161C51.2419 43.8915 51.4123 43.8215 51.59 43.8215H83.75C83.9277 43.8215 84.0981 43.8915 84.2238 44.0161C84.3494 44.1407 84.42 44.3097 84.42 44.4859C84.42 44.6621 84.3494 44.8311 84.2238 44.9557C84.0981 45.0803 83.9277 45.1503 83.75 45.1503ZM50.25 31.8626H5.36C5.18231 31.8626 5.01189 31.7926 4.88624 31.668C4.76059 31.5434 4.69 31.3744 4.69 31.1982C4.69 31.022 4.76059 30.853 4.88624 30.7284C5.01189 30.6038 5.18231 30.5338 5.36 30.5338H50.25C50.4277 30.5338 50.5981 30.6038 50.7238 30.7284C50.8494 30.853 50.92 31.022 50.92 31.1982C50.92 31.3744 50.8494 31.5434 50.7238 31.668C50.5981 31.7926 50.4277 31.8626 50.25 31.8626ZM81.07 26.5475H54.94C54.7623 26.5475 54.5919 26.4775 54.4662 26.3529C54.3406 26.2283 54.27 26.0593 54.27 25.8831C54.27 25.7069 54.3406 25.5379 54.4662 25.4133C54.5919 25.2887 54.7623 25.2188 54.94 25.2188H81.07C81.2477 25.2188 81.4181 25.2887 81.5438 25.4133C81.6694 25.5379 81.74 25.7069 81.74 25.8831C81.74 26.0593 81.6694 26.2283 81.5438 26.3529C81.4181 26.4775 81.2477 26.5475 81.07 26.5475ZM51.59 26.5475H48.24C48.0623 26.5475 47.8919 26.4775 47.7662 26.3529C47.6406 26.2283 47.57 26.0593 47.57 25.8831C47.57 25.7069 47.6406 25.5379 47.7662 25.4133C47.8919 25.2887 48.0623 25.2188 48.24 25.2188H51.59C51.7677 25.2188 51.9381 25.2887 52.0638 25.4133C52.1894 25.5379 52.26 25.7069 52.26 25.8831C52.26 26.0593 52.1894 26.2283 52.0638 26.3529C51.9381 26.4775 51.7677 26.5475 51.59 26.5475ZM87.77 26.5475H84.42C84.2423 26.5475 84.0719 26.4775 83.9462 26.3529C83.8206 26.2283 83.75 26.0593 83.75 25.8831C83.75 25.7069 83.8206 25.5379 83.9462 25.4133C84.0719 25.2887 84.2423 25.2188 84.42 25.2188H87.77C87.9477 25.2188 88.1181 25.2887 88.2438 25.4133C88.3694 25.5379 88.44 25.7069 88.44 25.8831C88.44 26.0593 88.3694 26.2283 88.2438 26.3529C88.1181 26.4775 87.9477 26.5475 87.77 26.5475ZM51.59 47.8078H5.36C5.18231 47.8078 5.01189 47.7378 4.88624 47.6132C4.76059 47.4886 4.69 47.3196 4.69 47.1434C4.69 46.9672 4.76059 46.7982 4.88624 46.6736C5.01189 46.549 5.18231 46.479 5.36 46.479H51.59C51.7677 46.479 51.9381 46.549 52.0638 46.6736C52.1894 46.7982 52.26 46.9672 52.26 47.1434C52.26 47.3196 52.1894 47.4886 52.0638 47.6132C51.9381 47.7378 51.7677 47.8078 51.59 47.8078Z" fill="black"/>
<path d="M93.13 47.8078H46.9C46.7223 47.8078 46.5519 47.7378 46.4262 47.6132C46.3006 47.4886 46.23 47.3196 46.23 47.1434C46.23 46.9672 46.3006 46.7982 46.4262 46.6736C46.5519 46.549 46.7223 46.479 46.9 46.479H93.13C93.3077 46.479 93.4781 46.549 93.6038 46.6736C93.7294 46.7982 93.8 46.9672 93.8 47.1434C93.8 47.3196 93.7294 47.4886 93.6038 47.6132C93.4781 47.7378 93.3077 47.8078 93.13 47.8078Z" fill="black"/>
<path d="M129.98 47.8076H83.75C83.5723 47.8076 83.4019 47.7376 83.2762 47.613C83.1506 47.4884 83.08 47.3195 83.08 47.1433C83.08 46.967 83.1506 46.7981 83.2762 46.6735C83.4019 46.5489 83.5723 46.4789 83.75 46.4789H129.98C130.158 46.4789 130.328 46.5489 130.454 46.6735C130.579 46.7981 130.65 46.967 130.65 47.1433C130.65 47.3195 130.579 47.4884 130.454 47.613C130.328 47.7376 130.158 47.8076 129.98 47.8076ZM12.73 41.1638H10.05C9.87231 41.1638 9.70189 41.0938 9.57624 40.9692C9.45059 40.8446 9.38 40.6756 9.38 40.4994V36.5131C9.38 35.4142 10.2818 34.52 11.39 34.52C12.4982 34.52 13.4 35.4142 13.4 36.5131V40.4994C13.4 40.6756 13.3294 40.8446 13.2038 40.9692C13.0781 41.0938 12.9077 41.1638 12.73 41.1638ZM10.72 39.835H12.06V36.5131C12.06 36.1477 11.7585 35.8487 11.39 35.8487C11.0215 35.8487 10.72 36.1477 10.72 36.5131V39.835ZM31.49 45.1501H18.09C17.9123 45.1501 17.7419 45.0801 17.6162 44.9555C17.4906 44.8309 17.42 44.6619 17.42 44.4857V27.2117C17.42 27.0355 17.4906 26.8666 17.6162 26.742C17.7419 26.6174 17.9123 26.5474 18.09 26.5474H31.49C31.6677 26.5474 31.8381 26.6174 31.9638 26.742C32.0894 26.8666 32.16 27.0355 32.16 27.2117V44.4857C32.16 44.6619 32.0894 44.8309 31.9638 44.9555C31.8381 45.0801 31.6677 45.1501 31.49 45.1501ZM18.76 43.8213H30.82V27.8761H18.76V43.8213Z" fill="black"/>
<path d="M20.77 41.1918C20.5923 41.1918 20.4219 41.1218 20.2962 40.9972C20.1706 40.8726 20.1 40.7036 20.1 40.5274V35.2123C20.1 35.0361 20.1706 34.8671 20.2962 34.7425C20.4219 34.6179 20.5923 34.5479 20.77 34.5479C20.9477 34.5479 21.1181 34.6179 21.2438 34.7425C21.3694 34.8671 21.44 35.0361 21.44 35.2123V40.5274C21.44 40.7036 21.3694 40.8726 21.2438 40.9972C21.1181 41.1218 20.9477 41.1918 20.77 41.1918ZM28.81 41.1918C28.6323 41.1918 28.4619 41.1218 28.3362 40.9972C28.2106 40.8726 28.14 40.7036 28.14 40.5274V35.2123C28.14 35.0361 28.2106 34.8671 28.3362 34.7425C28.4619 34.6179 28.6323 34.5479 28.81 34.5479C28.9877 34.5479 29.1581 34.6179 29.2838 34.7425C29.4094 34.8671 29.48 35.0361 29.48 35.2123V40.5274C29.48 40.7036 29.4094 40.8726 29.2838 40.9972C29.1581 41.1218 28.9877 41.1918 28.81 41.1918ZM26.13 41.1639H23.45C23.2723 41.1639 23.1019 41.0939 22.9762 40.9693C22.8506 40.8447 22.78 40.6757 22.78 40.4995V36.5132C22.78 35.4143 23.6818 34.52 24.79 34.52C25.8982 34.52 26.8 35.4143 26.8 36.5132V40.4995C26.8 40.6757 26.7294 40.8447 26.6038 40.9693C26.4781 41.0939 26.3077 41.1639 26.13 41.1639ZM24.12 39.8351H25.46V36.5132C25.46 36.1478 25.1585 35.8488 24.79 35.8488C24.4215 35.8488 24.12 36.1478 24.12 36.5132V39.8351ZM44.89 45.1502H31.49C31.3123 45.1502 31.1419 45.0802 31.0162 44.9556C30.8906 44.831 30.82 44.662 30.82 44.4858V27.2118C30.82 27.0231 30.9004 26.8451 31.0398 26.7188C31.1089 26.6559 31.1908 26.6084 31.2801 26.5795C31.3693 26.5506 31.4637 26.541 31.557 26.5514L44.957 27.8802C45.3 27.9134 45.56 28.1991 45.56 28.5406V44.4858C45.56 44.662 45.4894 44.831 45.3638 44.9556C45.2381 45.0802 45.0677 45.1502 44.89 45.1502ZM32.16 43.8214H44.22V29.1412L32.16 27.9466V43.8214Z" fill="black"/>
<path d="M34.17 41.1918C33.9923 41.1918 33.8219 41.1218 33.6962 40.9972C33.5706 40.8726 33.5 40.7036 33.5 40.5274V35.2124C33.5 35.0361 33.5706 34.8672 33.6962 34.7426C33.8219 34.618 33.9923 34.548 34.17 34.548C34.3477 34.548 34.5181 34.618 34.6438 34.7426C34.7694 34.8672 34.84 35.0361 34.84 35.2124V40.5274C34.84 40.7036 34.7694 40.8726 34.6438 40.9972C34.5181 41.1218 34.3477 41.1918 34.17 41.1918ZM42.21 41.1918C42.0323 41.1918 41.8619 41.1218 41.7362 40.9972C41.6106 40.8726 41.54 40.7036 41.54 40.5274V35.2124C41.54 35.0361 41.6106 34.8672 41.7362 34.7426C41.8619 34.618 42.0323 34.548 42.21 34.548C42.3877 34.548 42.5581 34.618 42.6838 34.7426C42.8094 34.8672 42.88 35.0361 42.88 35.2124V40.5274C42.88 40.7036 42.8094 40.8726 42.6838 40.9972C42.5581 41.1218 42.3877 41.1918 42.21 41.1918ZM39.53 41.1639H36.85C36.6723 41.1639 36.5019 41.0939 36.3762 40.9693C36.2506 40.8447 36.18 40.6757 36.18 40.4995V36.5132C36.18 35.4143 37.0818 34.5201 38.19 34.5201C39.2982 34.5201 40.2 35.4143 40.2 36.5132V40.4995C40.2 40.6757 40.1294 40.8447 40.0038 40.9693C39.8781 41.0939 39.7077 41.1639 39.53 41.1639ZM37.52 39.8351H38.86V36.5132C38.86 36.1478 38.5585 35.8488 38.19 35.8488C37.8215 35.8488 37.52 36.1478 37.52 36.5132V39.8351ZM74.2025 73.0543H62.4775C62.2998 73.0543 62.1294 72.9843 62.0037 72.8597C61.8781 72.7351 61.8075 72.5661 61.8075 72.3899C61.8075 72.2137 61.8781 72.0447 62.0037 71.9201C62.1294 71.7955 62.2998 71.7255 62.4775 71.7255H74.2025C74.3802 71.7255 74.5506 71.7955 74.6763 71.9201C74.8019 72.0447 74.8725 72.2137 74.8725 72.3899C74.8725 72.5661 74.8019 72.7351 74.6763 72.8597C74.5506 72.9843 74.3802 73.0543 74.2025 73.0543ZM75.04 77.0406H61.64C61.4623 77.0406 61.2919 76.9706 61.1662 76.846C61.0406 76.7214 60.97 76.5524 60.97 76.3762C60.97 76.2 61.0406 76.031 61.1662 75.9064C61.2919 75.7818 61.4623 75.7118 61.64 75.7118H75.04C75.2177 75.7118 75.3881 75.7818 75.5138 75.9064C75.6394 76.031 75.71 76.2 75.71 76.3762C75.71 76.5524 75.6394 76.7214 75.5138 76.846C75.3881 76.9706 75.2177 77.0406 75.04 77.0406ZM75.04 81.0269H61.64C61.4623 81.0269 61.2919 80.9569 61.1662 80.8323C61.0406 80.7077 60.97 80.5387 60.97 80.3625C60.97 80.1863 61.0406 80.0173 61.1662 79.8927C61.2919 79.7681 61.4623 79.6981 61.64 79.6981H75.04C75.2177 79.6981 75.3881 79.7681 75.5138 79.8927C75.6394 80.0173 75.71 80.1863 75.71 80.3625C75.71 80.5387 75.6394 80.7077 75.5138 80.8323C75.3881 80.9569 75.2177 81.0269 75.04 81.0269ZM75.04 85.0132H61.64C61.4623 85.0132 61.2919 84.9432 61.1662 84.8186C61.0406 84.694 60.97 84.525 60.97 84.3488C60.97 84.1726 61.0406 84.0036 61.1662 83.879C61.2919 83.7544 61.4623 83.6844 61.64 83.6844H75.04C75.2177 83.6844 75.3881 83.7544 75.5138 83.879C75.6394 84.0036 75.71 84.1726 75.71 84.3488C75.71 84.525 75.6394 84.694 75.5138 84.8186C75.3881 84.9432 75.2177 85.0132 75.04 85.0132ZM75.04 88.9995H61.64C61.4623 88.9995 61.2919 88.9295 61.1662 88.8049C61.0406 88.6803 60.97 88.5113 60.97 88.3351C60.97 88.1589 61.0406 87.9899 61.1662 87.8653C61.2919 87.7408 61.4623 87.6707 61.64 87.6707H75.04C75.2177 87.6707 75.3881 87.7408 75.5138 87.8653C75.6394 87.9899 75.71 88.1589 75.71 88.3351C75.71 88.5113 75.6394 88.6803 75.5138 88.8049C75.3881 88.9295 75.2177 88.9995 75.04 88.9995ZM75.04 92.9858H61.64C61.4623 92.9858 61.2919 92.9158 61.1662 92.7912C61.0406 92.6666 60.97 92.4976 60.97 92.3214C60.97 92.1452 61.0406 91.9762 61.1662 91.8516C61.2919 91.7271 61.4623 91.657 61.64 91.657H75.04C75.2177 91.657 75.3881 91.7271 75.5138 91.8516C75.6394 91.9762 75.71 92.1452 75.71 92.3214C75.71 92.4976 75.6394 92.6666 75.5138 92.7912C75.3881 92.9158 75.2177 92.9858 75.04 92.9858ZM56.95 59.7945C56.7723 59.7945 56.6019 59.7245 56.4762 59.5999C56.3506 59.4754 56.28 59.3064 56.28 59.1302V51.1576C56.28 50.9814 56.3506 50.8124 56.4762 50.6878C56.6019 50.5632 56.7723 50.4932 56.95 50.4932C57.1277 50.4932 57.2981 50.5632 57.4238 50.6878C57.5494 50.8124 57.62 50.9814 57.62 51.1576V59.1302C57.62 59.3064 57.5494 59.4754 57.4238 59.5999C57.2981 59.7245 57.1277 59.7945 56.95 59.7945ZM60.3 18.5749H58.96C58.7823 18.5749 58.6119 18.5049 58.4862 18.3803C58.3606 18.2557 58.29 18.0867 58.29 17.9105C58.29 17.7343 58.3606 17.5653 58.4862 17.4407C58.6119 17.3161 58.7823 17.2461 58.96 17.2461H60.3C60.4777 17.2461 60.6481 17.3161 60.7738 17.4407C60.8994 17.5653 60.97 17.7343 60.97 17.9105C60.97 18.0867 60.8994 18.2557 60.7738 18.3803C60.6481 18.5049 60.4777 18.5749 60.3 18.5749ZM54.94 18.5749H53.6C53.4223 18.5749 53.2519 18.5049 53.1262 18.3803C53.0006 18.2557 52.93 18.0867 52.93 17.9105C52.93 17.7343 53.0006 17.5653 53.1262 17.4407C53.2519 17.3161 53.4223 17.2461 53.6 17.2461H54.94C55.1177 17.2461 55.2881 17.3161 55.4138 17.4407C55.5394 17.5653 55.61 17.7343 55.61 17.9105C55.61 18.0867 55.5394 18.2557 55.4138 18.3803C55.2881 18.5049 55.1177 18.5749 54.94 18.5749ZM48.24 21.2324H46.9C46.7223 21.2324 46.5519 21.1624 46.4262 21.0378C46.3006 20.9132 46.23 20.7442 46.23 20.568C46.23 20.3918 46.3006 20.2228 46.4262 20.0982C46.5519 19.9736 46.7223 19.9036 46.9 19.9036H48.24C48.4177 19.9036 48.5881 19.9736 48.7138 20.0982C48.8394 20.2228 48.91 20.3918 48.91 20.568C48.91 20.7442 48.8394 20.9132 48.7138 21.0378C48.5881 21.1624 48.4177 21.2324 48.24 21.2324ZM50.92 21.2324C50.8262 21.2324 50.7458 21.2191 50.6654 21.1792C50.5821 21.1502 50.5082 21.0998 50.451 21.0331C50.3867 20.9737 50.3358 20.9017 50.3014 20.8216C50.267 20.7415 50.2499 20.6551 50.2513 20.568C50.2513 20.3953 50.3183 20.2225 50.451 20.1016C50.5433 20.0086 50.6615 19.9452 50.7904 19.9194C50.9194 19.8935 51.0532 19.9066 51.1746 19.9568C51.2563 19.9834 51.3354 20.0365 51.389 20.1016C51.4535 20.1611 51.5048 20.2333 51.5394 20.3137C51.574 20.394 51.5913 20.4807 51.59 20.568C51.59 20.7408 51.523 20.9135 51.389 21.0331C51.3354 21.0995 51.255 21.1527 51.1746 21.1792C51.0953 21.217 51.0079 21.2353 50.92 21.2324ZM87.1 21.2324C87.0062 21.2324 86.9258 21.2191 86.8454 21.1792C86.7621 21.1502 86.6882 21.0998 86.631 21.0331C86.5667 20.9737 86.5158 20.9017 86.4814 20.8216C86.447 20.7415 86.4299 20.6551 86.4313 20.568C86.4313 20.3953 86.4983 20.2225 86.631 20.1016C86.7229 20.008 86.8411 19.9441 86.9702 19.9183C87.0993 19.8924 87.2333 19.9058 87.3546 19.9568C87.4363 19.9834 87.5154 20.0365 87.569 20.1016C87.6896 20.2225 87.77 20.3953 87.77 20.568C87.77 20.7408 87.703 20.9135 87.569 21.0331C87.5154 21.0995 87.435 21.1527 87.3546 21.1792C87.2753 21.217 87.1879 21.2353 87.1 21.2324ZM84.42 21.2324H83.08C82.9023 21.2324 82.7319 21.1624 82.6062 21.0378C82.4806 20.9132 82.41 20.7442 82.41 20.568C82.41 20.3918 82.4806 20.2228 82.6062 20.0982C82.7319 19.9736 82.9023 19.9036 83.08 19.9036H84.42C84.5977 19.9036 84.7681 19.9736 84.8938 20.0982C85.0194 20.2228 85.09 20.3918 85.09 20.568C85.09 20.7442 85.0194 20.9132 84.8938 21.0378C84.7681 21.1624 84.5977 21.2324 84.42 21.2324ZM65.66 18.5749H64.32C64.1423 18.5749 63.9719 18.5049 63.8462 18.3803C63.7206 18.2557 63.65 18.0867 63.65 17.9105C63.65 17.7343 63.7206 17.5653 63.8462 17.4407C63.9719 17.3161 64.1423 17.2461 64.32 17.2461H65.66C65.8377 17.2461 66.0081 17.3161 66.1338 17.4407C66.2594 17.5653 66.33 17.7343 66.33 17.9105C66.33 18.0867 66.2594 18.2557 66.1338 18.3803C66.0081 18.5049 65.8377 18.5749 65.66 18.5749ZM71.02 18.5749H69.68C69.5023 18.5749 69.3319 18.5049 69.2062 18.3803C69.0806 18.2557 69.01 18.0867 69.01 17.9105C69.01 17.7343 69.0806 17.5653 69.2062 17.4407C69.3319 17.3161 69.5023 17.2461 69.68 17.2461H71.02C71.1977 17.2461 71.3681 17.3161 71.4938 17.4407C71.6194 17.5653 71.69 17.7343 71.69 17.9105C71.69 18.0867 71.6194 18.2557 71.4938 18.3803C71.3681 18.5049 71.1977 18.5749 71.02 18.5749ZM76.38 18.5749H75.04C74.8623 18.5749 74.6919 18.5049 74.5662 18.3803C74.4406 18.2557 74.37 18.0867 74.37 17.9105C74.37 17.7343 74.4406 17.5653 74.5662 17.4407C74.6919 17.3161 74.8623 17.2461 75.04 17.2461H76.38C76.5577 17.2461 76.7281 17.3161 76.8538 17.4407C76.9794 17.5653 77.05 17.7343 77.05 17.9105C77.05 18.0867 76.9794 18.2557 76.8538 18.3803C76.7281 18.5049 76.5577 18.5749 76.38 18.5749ZM80.4 18.5749C80.2258 18.5749 80.0516 18.5084 79.9297 18.3755C79.8654 18.3162 79.8144 18.2441 79.78 18.164C79.7456 18.0839 79.7286 17.9975 79.73 17.9105C79.73 17.7377 79.797 17.565 79.9297 17.4441C80.0554 17.3233 80.2236 17.2557 80.3987 17.2557C80.5737 17.2557 80.7419 17.3233 80.8677 17.4441C80.9322 17.5036 80.9834 17.5758 81.0181 17.6561C81.0527 17.7365 81.0699 17.8231 81.0687 17.9105C81.0687 18.0832 81.0017 18.256 80.8677 18.3755C80.8082 18.4395 80.7359 18.4904 80.6553 18.5247C80.5747 18.5591 80.4877 18.5762 80.4 18.5749Z" fill="black"/>
<path d="M81.0701 18.5748C80.8959 18.5748 80.7217 18.5084 80.5997 18.3755C80.5355 18.3161 80.4845 18.2441 80.4501 18.164C80.4157 18.0839 80.3987 17.9975 80.4001 17.9104C80.4001 17.7377 80.4671 17.5649 80.5997 17.444C80.6941 17.3543 80.8127 17.2937 80.9412 17.2697C81.0696 17.2456 81.2024 17.2591 81.3233 17.3086C81.4441 17.358 81.5479 17.4412 81.6219 17.5481C81.6959 17.6549 81.7369 17.7808 81.7401 17.9104C81.7401 18.0832 81.6731 18.2559 81.5391 18.3755C81.4792 18.4393 81.4066 18.49 81.3258 18.5244C81.2451 18.5587 81.1579 18.5759 81.0701 18.5748Z" fill="black"/>
<path d="M62.31 59.7946C62.1323 59.7946 61.9619 59.7246 61.8362 59.6C61.7106 59.4755 61.64 59.3065 61.64 59.1303V51.1577C61.64 50.9815 61.7106 50.8125 61.8362 50.6879C61.9619 50.5633 62.1323 50.4933 62.31 50.4933C62.4877 50.4933 62.6581 50.5633 62.7838 50.6879C62.9094 50.8125 62.98 50.9815 62.98 51.1577V59.1303C62.98 59.3065 62.9094 59.4755 62.7838 59.6C62.6581 59.7246 62.4877 59.7946 62.31 59.7946ZM67.67 59.7946C67.4923 59.7946 67.3219 59.7246 67.1962 59.6C67.0706 59.4755 67 59.3065 67 59.1303V51.1577C67 50.9815 67.0706 50.8125 67.1962 50.6879C67.3219 50.5633 67.4923 50.4933 67.67 50.4933C67.8477 50.4933 68.0181 50.5633 68.1438 50.6879C68.2694 50.8125 68.34 50.9815 68.34 51.1577V59.1303C68.34 59.3065 68.2694 59.4755 68.1438 59.6C68.0181 59.7246 67.8477 59.7946 67.67 59.7946ZM73.03 59.7946C72.8523 59.7946 72.6819 59.7246 72.5562 59.6C72.4306 59.4755 72.36 59.3065 72.36 59.1303V51.1577C72.36 50.9815 72.4306 50.8125 72.5562 50.6879C72.6819 50.5633 72.8523 50.4933 73.03 50.4933C73.2077 50.4933 73.3781 50.5633 73.5038 50.6879C73.6294 50.8125 73.7 50.9815 73.7 51.1577V59.1303C73.7 59.3065 73.6294 59.4755 73.5038 59.6C73.3781 59.7246 73.2077 59.7946 73.03 59.7946ZM68.34 97.0001C68.1623 97.0001 67.9919 96.9301 67.8662 96.8055C67.7406 96.6809 67.67 96.5119 67.67 96.3357V68.4316C67.67 68.2554 67.7406 68.0864 67.8662 67.9618C67.9919 67.8372 68.1623 67.7672 68.34 67.7672C68.5177 67.7672 68.6881 67.8372 68.8138 67.9618C68.9394 68.0864 69.01 68.2554 69.01 68.4316V96.3357C69.01 96.5119 68.9394 96.6809 68.8138 96.8055C68.6881 96.9301 68.5177 97.0001 68.34 97.0001ZM78.39 59.7946C78.2123 59.7946 78.0419 59.7246 77.9162 59.6C77.7906 59.4755 77.72 59.3065 77.72 59.1303V51.1577C77.72 50.9815 77.7906 50.8125 77.9162 50.6879C78.0419 50.5633 78.2123 50.4933 78.39 50.4933C78.5677 50.4933 78.7381 50.5633 78.8638 50.6879C78.9894 50.8125 79.06 50.9815 79.06 51.1577V59.1303C79.06 59.3065 78.9894 59.4755 78.8638 59.6C78.7381 59.7246 78.5677 59.7946 78.39 59.7946ZM18.09 96.9722H4.69C4.51231 96.9722 4.34189 96.9022 4.21624 96.7776C4.09059 96.653 4.02 96.484 4.02 96.3078V44.4859C4.02 44.3097 4.09059 44.1407 4.21624 44.0161C4.34189 43.8915 4.51231 43.8215 4.69 43.8215H18.09C18.2677 43.8215 18.4381 43.8915 18.5638 44.0161C18.6894 44.1407 18.76 44.3097 18.76 44.4859V96.3078C18.76 96.484 18.6894 96.653 18.5638 96.7776C18.4381 96.9022 18.2677 96.9722 18.09 96.9722ZM5.36 95.6434H17.42V45.1503H5.36V95.6434Z" fill="black"/>
<path d="M31.49 96.9722H18.09C17.9123 96.9722 17.7419 96.9022 17.6162 96.7776C17.4906 96.653 17.42 96.484 17.42 96.3078V44.4859C17.42 44.3097 17.4906 44.1407 17.6162 44.0161C17.7419 43.8915 17.9123 43.8215 18.09 43.8215H31.49C31.6677 43.8215 31.8381 43.8915 31.9638 44.0161C32.0894 44.1407 32.16 44.3097 32.16 44.4859V96.3078C32.16 96.484 32.0894 96.653 31.9638 96.7776C31.8381 96.9022 31.6677 96.9722 31.49 96.9722ZM18.76 95.6434H30.82V45.1503H18.76V95.6434ZM51.59 45.1782H44.89C44.7123 45.1782 44.5419 45.1082 44.4162 44.9836C44.2906 44.859 44.22 44.69 44.22 44.5138C44.22 44.3376 44.2906 44.1686 44.4162 44.044C44.5419 43.9194 44.7123 43.8494 44.89 43.8494H51.59C51.7677 43.8494 51.9381 43.9194 52.0638 44.044C52.1894 44.1686 52.26 44.3376 52.26 44.5138C52.26 44.69 52.1894 44.859 52.0638 44.9836C51.9381 45.1082 51.7677 45.1782 51.59 45.1782ZM48.24 59.7946C48.0623 59.7946 47.8919 59.7246 47.7662 59.6C47.6406 59.4755 47.57 59.3065 47.57 59.1303V51.1577C47.57 50.9815 47.6406 50.8125 47.7662 50.6879C47.8919 50.5633 48.0623 50.4933 48.24 50.4933C48.4177 50.4933 48.5881 50.5633 48.7138 50.6879C48.8394 50.8125 48.91 50.9815 48.91 51.1577V59.1303C48.91 59.3065 48.8394 59.4755 48.7138 59.6C48.5881 59.7246 48.4177 59.7946 48.24 59.7946Z" fill="black"/>
<path d="M51.59 96.9721H44.89C44.7123 96.9721 44.5419 96.9021 44.4162 96.7775C44.2906 96.6529 44.22 96.4839 44.22 96.3077V28.5406C44.22 28.3644 44.2906 28.1954 44.4162 28.0708C44.5419 27.9462 44.7123 27.8762 44.89 27.8762H51.59C51.7677 27.8762 51.9381 27.9462 52.0638 28.0708C52.1894 28.1954 52.26 28.3644 52.26 28.5406V96.3077C52.26 96.4839 52.1894 96.6529 52.0638 96.7775C51.9381 96.9021 51.7677 96.9721 51.59 96.9721ZM45.56 95.6433H50.92V29.205H45.56V95.6433ZM130.65 45.1502H117.25C117.072 45.1502 116.902 45.0802 116.776 44.9556C116.651 44.831 116.58 44.662 116.58 44.4858V27.2118C116.58 27.0231 116.66 26.8451 116.8 26.7188C116.869 26.6559 116.951 26.6084 117.04 26.5795C117.129 26.5506 117.224 26.541 117.317 26.5514L130.717 27.8802C131.06 27.9134 131.32 28.1991 131.32 28.5406V44.4858C131.32 44.662 131.249 44.831 131.124 44.9556C130.998 45.0802 130.828 45.1502 130.65 45.1502ZM117.92 43.8214H129.98V29.1412L117.92 27.9466V43.8214ZM127.97 59.7945C127.792 59.7945 127.622 59.7245 127.496 59.5999C127.371 59.4753 127.3 59.3063 127.3 59.1301V51.1575C127.3 50.9813 127.371 50.8123 127.496 50.6877C127.622 50.5631 127.792 50.4931 127.97 50.4931C128.148 50.4931 128.318 50.5631 128.444 50.6877C128.569 50.8123 128.64 50.9813 128.64 51.1575V59.1301C128.64 59.3063 128.569 59.4753 128.444 59.5999C128.318 59.7245 128.148 59.7945 127.97 59.7945Z" fill="black"/>
<path d="M127.97 41.1917C127.792 41.1917 127.622 41.1217 127.496 40.9971C127.371 40.8725 127.3 40.7036 127.3 40.5273V35.2123C127.3 35.0361 127.371 34.8671 127.496 34.7425C127.622 34.6179 127.792 34.5479 127.97 34.5479C128.148 34.5479 128.318 34.6179 128.444 34.7425C128.569 34.8671 128.64 35.0361 128.64 35.2123V40.5273C128.64 40.7036 128.569 40.8725 128.444 40.9971C128.318 41.1217 128.148 41.1917 127.97 41.1917ZM119.93 41.1917C119.752 41.1917 119.582 41.1217 119.456 40.9971C119.331 40.8725 119.26 40.7036 119.26 40.5273V35.2123C119.26 35.0361 119.331 34.8671 119.456 34.7425C119.582 34.6179 119.752 34.5479 119.93 34.5479C120.108 34.5479 120.278 34.6179 120.404 34.7425C120.529 34.8671 120.6 35.0361 120.6 35.2123V40.5273C120.6 40.7036 120.529 40.8725 120.404 40.9971C120.278 41.1217 120.108 41.1917 119.93 41.1917ZM123.95 59.7945C123.772 59.7945 123.602 59.7245 123.476 59.5999C123.351 59.4753 123.28 59.3063 123.28 59.1301V51.1575C123.28 50.9813 123.351 50.8123 123.476 50.6877C123.602 50.5631 123.772 50.4931 123.95 50.4931C124.128 50.4931 124.298 50.5631 124.424 50.6877C124.549 50.8123 124.62 50.9813 124.62 51.1575V59.1301C124.62 59.3063 124.549 59.4753 124.424 59.5999C124.298 59.7245 124.128 59.7945 123.95 59.7945ZM119.93 59.7945C119.752 59.7945 119.582 59.7245 119.456 59.5999C119.331 59.4753 119.26 59.3063 119.26 59.1301V51.1575C119.26 50.9813 119.331 50.8123 119.456 50.6877C119.582 50.5631 119.752 50.4931 119.93 50.4931C120.108 50.4931 120.278 50.5631 120.404 50.6877C120.529 50.8123 120.6 50.9813 120.6 51.1575V59.1301C120.6 59.3063 120.529 59.4753 120.404 59.5999C120.278 59.7245 120.108 59.7945 119.93 59.7945ZM114.57 59.7945C114.392 59.7945 114.222 59.7245 114.096 59.5999C113.971 59.4753 113.9 59.3063 113.9 59.1301V51.1575C113.9 50.9813 113.971 50.8123 114.096 50.6877C114.222 50.5631 114.392 50.4931 114.57 50.4931C114.748 50.4931 114.918 50.5631 115.044 50.6877C115.169 50.8123 115.24 50.9813 115.24 51.1575V59.1301C115.24 59.3063 115.169 59.4753 115.044 59.5999C114.918 59.7245 114.748 59.7945 114.57 59.7945ZM110.55 59.7945C110.372 59.7945 110.202 59.7245 110.076 59.5999C109.951 59.4753 109.88 59.3063 109.88 59.1301V51.1575C109.88 50.9813 109.951 50.8123 110.076 50.6877C110.202 50.5631 110.372 50.4931 110.55 50.4931C110.728 50.4931 110.898 50.5631 111.024 50.6877C111.149 50.8123 111.22 50.9813 111.22 51.1575V59.1301C111.22 59.3063 111.149 59.4753 111.024 59.5999C110.898 59.7245 110.728 59.7945 110.55 59.7945ZM106.53 59.7945C106.352 59.7945 106.182 59.7245 106.056 59.5999C105.931 59.4753 105.86 59.3063 105.86 59.1301V51.1575C105.86 50.9813 105.931 50.8123 106.056 50.6877C106.182 50.5631 106.352 50.4931 106.53 50.4931C106.708 50.4931 106.878 50.5631 107.004 50.6877C107.129 50.8123 107.2 50.9813 107.2 51.1575V59.1301C107.2 59.3063 107.129 59.4753 107.004 59.5999C106.878 59.7245 106.708 59.7945 106.53 59.7945ZM101.17 59.7945C100.992 59.7945 100.822 59.7245 100.696 59.5999C100.571 59.4753 100.5 59.3063 100.5 59.1301V51.1575C100.5 50.9813 100.571 50.8123 100.696 50.6877C100.822 50.5631 100.992 50.4931 101.17 50.4931C101.348 50.4931 101.518 50.5631 101.644 50.6877C101.769 50.8123 101.84 50.9813 101.84 51.1575V59.1301C101.84 59.3063 101.769 59.4753 101.644 59.5999C101.518 59.7245 101.348 59.7945 101.17 59.7945ZM97.15 59.7945C96.9723 59.7945 96.8019 59.7245 96.6762 59.5999C96.5506 59.4753 96.48 59.3063 96.48 59.1301V51.1575C96.48 50.9813 96.5506 50.8123 96.6762 50.6877C96.8019 50.5631 96.9723 50.4931 97.15 50.4931C97.3277 50.4931 97.4981 50.5631 97.6238 50.6877C97.7494 50.8123 97.82 50.9813 97.82 51.1575V59.1301C97.82 59.3063 97.7494 59.4753 97.6238 59.5999C97.4981 59.7245 97.3277 59.7945 97.15 59.7945ZM93.13 59.7945C92.9523 59.7945 92.7819 59.7245 92.6562 59.5999C92.5306 59.4753 92.46 59.3063 92.46 59.1301V51.1575C92.46 50.9813 92.5306 50.8123 92.6562 50.6877C92.7819 50.5631 92.9523 50.4931 93.13 50.4931C93.3077 50.4931 93.4781 50.5631 93.6038 50.6877C93.7294 50.8123 93.8 50.9813 93.8 51.1575V59.1301C93.8 59.3063 93.7294 59.4753 93.6038 59.5999C93.4781 59.7245 93.3077 59.7945 93.13 59.7945ZM129.98 31.8625H84.42C84.2423 31.8625 84.0719 31.7925 83.9462 31.6679C83.8206 31.5433 83.75 31.3743 83.75 31.1981C83.75 31.0219 83.8206 30.8529 83.9462 30.7283C84.0719 30.6037 84.2423 30.5337 84.42 30.5337H129.98C130.158 30.5337 130.328 30.6037 130.454 30.7283C130.579 30.8529 130.65 31.0219 130.65 31.1981C130.65 31.3743 130.579 31.5433 130.454 31.6679C130.328 31.7925 130.158 31.8625 129.98 31.8625ZM125.29 41.1638H122.61C122.432 41.1638 122.262 41.0938 122.136 40.9692C122.011 40.8446 121.94 40.6756 121.94 40.4994V36.5131C121.94 35.4143 122.842 34.52 123.95 34.52C125.058 34.52 125.96 35.4143 125.96 36.5131V40.4994C125.96 40.6756 125.889 40.8446 125.764 40.9692C125.638 41.0938 125.468 41.1638 125.29 41.1638ZM123.28 39.8351H124.62V36.5131C124.62 36.1477 124.318 35.8488 123.95 35.8488C123.581 35.8488 123.28 36.1477 123.28 36.5131V39.8351Z" fill="black"/>
<path d="M117.25 45.1501H103.85C103.672 45.1501 103.502 45.0801 103.376 44.9555C103.251 44.8309 103.18 44.6619 103.18 44.4857V27.2117C103.18 27.0355 103.251 26.8666 103.376 26.742C103.502 26.6174 103.672 26.5474 103.85 26.5474H117.25C117.428 26.5474 117.598 26.6174 117.724 26.742C117.849 26.8666 117.92 27.0355 117.92 27.2117V44.4857C117.92 44.6619 117.849 44.8309 117.724 44.9555C117.598 45.0801 117.428 45.1501 117.25 45.1501ZM104.52 43.8213H116.58V27.8761H104.52V43.8213Z" fill="black"/>
<path d="M114.57 41.1918C114.392 41.1918 114.222 41.1218 114.096 40.9972C113.971 40.8726 113.9 40.7036 113.9 40.5274V35.2124C113.9 35.0362 113.971 34.8672 114.096 34.7426C114.222 34.618 114.392 34.548 114.57 34.548C114.748 34.548 114.918 34.618 115.044 34.7426C115.169 34.8672 115.24 35.0362 115.24 35.2124V40.5274C115.24 40.7036 115.169 40.8726 115.044 40.9972C114.918 41.1218 114.748 41.1918 114.57 41.1918ZM106.53 41.1918C106.352 41.1918 106.182 41.1218 106.056 40.9972C105.931 40.8726 105.86 40.7036 105.86 40.5274V35.2124C105.86 35.0362 105.931 34.8672 106.056 34.7426C106.182 34.618 106.352 34.548 106.53 34.548C106.708 34.548 106.878 34.618 107.004 34.7426C107.129 34.8672 107.2 35.0362 107.2 35.2124V40.5274C107.2 40.7036 107.129 40.8726 107.004 40.9972C106.878 41.1218 106.708 41.1918 106.53 41.1918ZM111.89 41.1639H109.21C109.032 41.1639 108.862 41.0939 108.736 40.9693C108.611 40.8447 108.54 40.6757 108.54 40.4995V36.5132C108.54 35.4143 109.442 34.5201 110.55 34.5201C111.658 34.5201 112.56 35.4143 112.56 36.5132V40.4995C112.56 40.6757 112.489 40.8447 112.364 40.9693C112.238 41.0939 112.068 41.1639 111.89 41.1639ZM109.88 39.8352H111.22V36.5132C111.22 36.1478 110.918 35.8489 110.55 35.8489C110.181 35.8489 109.88 36.1478 109.88 36.5132V39.8352ZM103.85 45.1502H90.45C90.2723 45.1502 90.1019 45.0802 89.9762 44.9556C89.8506 44.831 89.78 44.662 89.78 44.4858V28.5406C89.78 28.1991 90.04 27.9135 90.383 27.8802L103.783 26.5515C103.876 26.5418 103.97 26.5516 104.059 26.5804C104.149 26.6092 104.231 26.6563 104.3 26.7186C104.37 26.7809 104.425 26.857 104.463 26.942C104.501 27.027 104.52 27.1189 104.52 27.2119V44.4858C104.52 44.662 104.449 44.831 104.324 44.9556C104.198 45.0802 104.028 45.1502 103.85 45.1502ZM91.12 43.8215H103.18V27.9467L91.12 29.1412V43.8215Z" fill="black"/>
<path d="M101.17 41.1918C100.992 41.1918 100.822 41.1218 100.696 40.9972C100.571 40.8726 100.5 40.7036 100.5 40.5274V35.2123C100.5 35.0361 100.571 34.8671 100.696 34.7425C100.822 34.6179 100.992 34.5479 101.17 34.5479C101.348 34.5479 101.518 34.6179 101.644 34.7425C101.769 34.8671 101.84 35.0361 101.84 35.2123V40.5274C101.84 40.7036 101.769 40.8726 101.644 40.9972C101.518 41.1218 101.348 41.1918 101.17 41.1918ZM93.13 41.1918C92.9523 41.1918 92.7819 41.1218 92.6562 40.9972C92.5306 40.8726 92.46 40.7036 92.46 40.5274V35.2123C92.46 35.0361 92.5306 34.8671 92.6562 34.7425C92.7819 34.6179 92.9523 34.5479 93.13 34.5479C93.3077 34.5479 93.4781 34.6179 93.6038 34.7425C93.7294 34.8671 93.8 35.0361 93.8 35.2123V40.5274C93.8 40.7036 93.7294 40.8726 93.6038 40.9972C93.4781 41.1218 93.3077 41.1918 93.13 41.1918ZM98.49 41.1639H95.81C95.6323 41.1639 95.4619 41.0939 95.3362 40.9693C95.2106 40.8447 95.14 40.6757 95.14 40.4995V36.5132C95.14 35.4143 96.0418 34.52 97.15 34.52C98.2582 34.52 99.16 35.4143 99.16 36.5132V40.4995C99.16 40.6757 99.0894 40.8447 98.9638 40.9693C98.8381 41.0939 98.6677 41.1639 98.49 41.1639ZM96.48 39.8351H97.82V36.5132C97.82 36.1478 97.5185 35.8488 97.15 35.8488C96.7815 35.8488 96.48 36.1478 96.48 36.5132V39.8351ZM130.65 96.9721H117.25C117.072 96.9721 116.902 96.9021 116.776 96.7775C116.651 96.6529 116.58 96.4839 116.58 96.3077V44.4858C116.58 44.3096 116.651 44.1406 116.776 44.016C116.902 43.8914 117.072 43.8214 117.25 43.8214H130.65C130.828 43.8214 130.998 43.8914 131.124 44.016C131.249 44.1406 131.32 44.3096 131.32 44.4858V96.3077C131.32 96.4839 131.249 96.6529 131.124 96.7775C130.998 96.9021 130.828 96.9721 130.65 96.9721ZM117.92 95.6433H129.98V45.1502H117.92V95.6433Z" fill="black"/>
<path d="M117.25 96.9722H103.85C103.672 96.9722 103.502 96.9022 103.376 96.7776C103.251 96.653 103.18 96.484 103.18 96.3078V44.4859C103.18 44.3097 103.251 44.1407 103.376 44.0161C103.502 43.8915 103.672 43.8215 103.85 43.8215H117.25C117.428 43.8215 117.598 43.8915 117.724 44.0161C117.849 44.1407 117.92 44.3097 117.92 44.4859V96.3078C117.92 96.484 117.849 96.653 117.724 96.7776C117.598 96.9022 117.428 96.9722 117.25 96.9722ZM104.52 95.6434H116.58V45.1503H104.52V95.6434Z" fill="black"/>
<path d="M103.85 96.9722H90.45C90.2723 96.9722 90.1019 96.9022 89.9762 96.7776C89.8506 96.653 89.78 96.484 89.78 96.3078V44.4859C89.78 44.3097 89.8506 44.1407 89.9762 44.0161C90.1019 43.8915 90.2723 43.8215 90.45 43.8215H103.85C104.028 43.8215 104.198 43.8915 104.324 44.0161C104.449 44.1407 104.52 44.3097 104.52 44.4859V96.3078C104.52 96.484 104.449 96.653 104.324 96.7776C104.198 96.9022 104.028 96.9722 103.85 96.9722ZM91.12 95.6434H103.18V45.1503H91.12V95.6434Z" fill="black"/>
<path d="M90.45 45.1781H83.75C83.5723 45.1781 83.4019 45.1081 83.2762 44.9835C83.1506 44.8589 83.08 44.69 83.08 44.5137C83.08 44.3375 83.1506 44.1686 83.2762 44.044C83.4019 43.9194 83.5723 43.8494 83.75 43.8494H90.45C90.6277 43.8494 90.7981 43.9194 90.9238 44.044C91.0494 44.1686 91.12 44.3375 91.12 44.5137C91.12 44.69 91.0494 44.8589 90.9238 44.9835C90.7981 45.1081 90.6277 45.1781 90.45 45.1781ZM87.1 59.7946C86.9223 59.7946 86.7519 59.7246 86.6262 59.6C86.5006 59.4754 86.43 59.3064 86.43 59.1302V51.1576C86.43 50.9814 86.5006 50.8124 86.6262 50.6878C86.7519 50.5632 86.9223 50.4932 87.1 50.4932C87.2777 50.4932 87.4481 50.5632 87.5738 50.6878C87.6994 50.8124 87.77 50.9814 87.77 51.1576V59.1302C87.77 59.3064 87.6994 59.4754 87.5738 59.6C87.4481 59.7246 87.2777 59.7946 87.1 59.7946Z" fill="black"/>
<path d="M90.45 96.9721H83.75C83.5723 96.9721 83.4019 96.9021 83.2762 96.7775C83.1506 96.6529 83.08 96.4839 83.08 96.3077V28.5406C83.08 28.3644 83.1506 28.1954 83.2762 28.0708C83.4019 27.9462 83.5723 27.8762 83.75 27.8762H90.45C90.6277 27.8762 90.7981 27.9462 90.9238 28.0708C91.0494 28.1954 91.12 28.3644 91.12 28.5406V96.3077C91.12 96.4839 91.0494 96.6529 90.9238 96.7775C90.7981 96.9021 90.6277 96.9721 90.45 96.9721ZM84.42 95.6433H89.78V29.205H84.42V95.6433Z" fill="black"/>
<path d="M83.75 96.9722H51.59C51.4123 96.9722 51.2419 96.9022 51.1162 96.7776C50.9906 96.653 50.92 96.484 50.92 96.3078V33.8557C50.92 33.6795 50.9906 33.5105 51.1162 33.3859C51.2419 33.2613 51.4123 33.1913 51.59 33.1913H83.75C83.9277 33.1913 84.0981 33.2613 84.2238 33.3859C84.3494 33.5105 84.42 33.6795 84.42 33.8557V96.3078C84.42 96.484 84.3494 96.653 84.2238 96.7776C84.0981 96.9022 83.9277 96.9722 83.75 96.9722ZM52.26 95.6434H83.08V34.5201H52.26V95.6434ZM83.75 29.205H51.59C51.4123 29.205 51.2419 29.135 51.1162 29.0104C50.9906 28.8858 50.92 28.7169 50.92 28.5407V11.2667C50.92 11.0905 50.9906 10.9215 51.1162 10.7969C51.2419 10.6723 51.4123 10.6023 51.59 10.6023H83.75C83.9277 10.6023 84.0981 10.6723 84.2238 10.7969C84.3494 10.9215 84.42 11.0905 84.42 11.2667V28.5407C84.42 28.7169 84.3494 28.8858 84.2238 29.0104C84.0981 29.135 83.9277 29.205 83.75 29.205ZM52.26 27.8763H83.08V11.9311H52.26V27.8763ZM44.89 28.5407C44.7123 28.5407 44.5419 28.4707 44.4162 28.3461C44.2906 28.2215 44.22 28.0525 44.22 27.8763V11.9311C44.22 11.7549 44.2906 11.5859 44.4162 11.4613C44.5419 11.3367 44.7123 11.2667 44.89 11.2667C45.0677 11.2667 45.2381 11.3367 45.3638 11.4613C45.4894 11.5859 45.56 11.7549 45.56 11.9311V27.8763C45.56 28.0525 45.4894 28.2215 45.3638 28.3461C45.2381 28.4707 45.0677 28.5407 44.89 28.5407ZM90.45 28.5407C90.2723 28.5407 90.1019 28.4707 89.9762 28.3461C89.8506 28.2215 89.78 28.0525 89.78 27.8763V11.9311C89.78 11.7549 89.8506 11.5859 89.9762 11.4613C90.1019 11.3367 90.2723 11.2667 90.45 11.2667C90.6277 11.2667 90.7981 11.3367 90.9238 11.4613C91.0494 11.5859 91.12 11.7549 91.12 11.9311V27.8763C91.12 28.0525 91.0494 28.2215 90.9238 28.3461C90.7981 28.4707 90.6277 28.5407 90.45 28.5407Z" fill="black"/>
<path d="M79.7301 96.972H56.9501C56.7724 96.972 56.6019 96.902 56.4763 96.7774C56.3506 96.6528 56.2801 96.4838 56.2801 96.3076V76.0692C56.274 74.159 56.7595 72.2788 57.6906 70.6065C58.6217 68.9343 59.9677 67.5252 61.6012 66.5127L67.9836 62.5277C68.0876 62.4622 68.2079 62.4265 68.3312 62.4246C68.4544 62.4228 68.5757 62.4548 68.6818 62.5171L74.7881 66.0782C76.4943 67.0788 77.9087 68.5022 78.8926 70.2086C79.8764 71.915 80.3959 73.8458 80.4001 75.8114V96.3076C80.4001 96.4838 80.3295 96.6528 80.2038 96.7774C80.0782 96.902 79.9077 96.972 79.7301 96.972ZM57.6201 95.6432H79.0601V75.8114C79.0561 74.0765 78.5974 72.3725 77.7289 70.8664C76.8604 69.3604 75.6119 68.1041 74.1061 67.2209L68.3521 63.8658L62.3154 67.6355C60.8741 68.5293 59.6865 69.7729 58.8649 71.2486C58.0433 72.7243 57.6148 74.3835 57.6201 76.0692V95.6432Z" fill="black"/>
<path d="M75.71 96.9721H60.97C60.7923 96.9721 60.6219 96.9021 60.4962 96.7775C60.3706 96.6529 60.3 96.4839 60.3 96.3077V76.048C60.3 73.441 61.6279 71.0545 63.8523 69.6659L67.9822 67.0881C68.0863 67.0226 68.2065 66.9869 68.3298 66.985C68.453 66.9832 68.5744 67.0152 68.6804 67.0775L72.6307 69.3816C73.7705 70.0499 74.7155 71.0006 75.3728 72.1405C76.0302 73.2804 76.3773 74.5702 76.38 75.8832V96.3077C76.38 96.4839 76.3094 96.6529 76.1838 96.7775C76.0581 96.9021 75.8877 96.9721 75.71 96.9721ZM61.64 95.6433H75.04V75.8832C75.04 73.6908 73.8568 71.6392 71.95 70.527L68.3507 68.4275L64.5666 70.7901C63.6681 71.3474 62.9278 72.1227 62.4157 73.0427C61.9036 73.9628 61.6366 74.9971 61.64 76.048V95.6433ZM59.63 65.0817C58.5218 65.0817 57.62 64.1874 57.62 63.0885C57.62 61.9896 58.5218 61.0954 59.63 61.0954C60.7382 61.0954 61.64 61.9896 61.64 63.0885C61.64 64.1874 60.7382 65.0817 59.63 65.0817ZM59.63 62.4242C59.2615 62.4242 58.96 62.7231 58.96 63.0885C58.96 63.4539 59.2615 63.7529 59.63 63.7529C59.9985 63.7529 60.3 63.4539 60.3 63.0885C60.3 62.7231 59.9985 62.4242 59.63 62.4242ZM75.71 65.0817C74.6018 65.0817 73.7 64.1874 73.7 63.0885C73.7 61.9896 74.6018 61.0954 75.71 61.0954C76.8182 61.0954 77.72 61.9896 77.72 63.0885C77.72 64.1874 76.8182 65.0817 75.71 65.0817ZM75.71 62.4242C75.3415 62.4242 75.04 62.7231 75.04 63.0885C75.04 63.4539 75.3415 63.7529 75.71 63.7529C76.0785 63.7529 76.38 63.4539 76.38 63.0885C76.38 62.7231 76.0785 62.4242 75.71 62.4242ZM56.95 44.2639C56.7723 44.2639 56.6019 44.1939 56.4762 44.0693C56.3506 43.9447 56.28 43.7757 56.28 43.5995V41.8283C56.28 40.7294 55.3782 39.8351 54.27 39.8351C53.1618 39.8351 52.26 40.7294 52.26 41.8283V43.5995C52.26 43.7757 52.1894 43.9447 52.0638 44.0693C51.9381 44.1939 51.7677 44.2639 51.59 44.2639C51.4123 44.2639 51.2419 44.1939 51.1162 44.0693C50.9906 43.9447 50.92 43.7757 50.92 43.5995V41.8283C50.92 39.9959 52.4221 38.5063 54.27 38.5063C56.1179 38.5063 57.62 39.9959 57.62 41.8283V43.5995C57.62 43.7757 57.5494 43.9447 57.4238 44.0693C57.2981 44.1939 57.1277 44.2639 56.95 44.2639Z" fill="black"/>
<path d="M62.31 44.2639C62.1323 44.2639 61.9619 44.1939 61.8362 44.0693C61.7106 43.9447 61.64 43.7757 61.64 43.5995V41.8283C61.64 40.7294 60.7382 39.8351 59.63 39.8351C58.5218 39.8351 57.62 40.7294 57.62 41.8283V43.5995C57.62 43.7757 57.5494 43.9447 57.4238 44.0693C57.2981 44.1939 57.1277 44.2639 56.95 44.2639C56.7723 44.2639 56.6019 44.1939 56.4762 44.0693C56.3506 43.9447 56.28 43.7757 56.28 43.5995V41.8283C56.28 39.9959 57.7821 38.5063 59.63 38.5063C61.4779 38.5063 62.98 39.9959 62.98 41.8283V43.5995C62.98 43.7757 62.9094 43.9447 62.7838 44.0693C62.6581 44.1939 62.4877 44.2639 62.31 44.2639Z" fill="black"/>
<path d="M67.67 44.2639C67.4923 44.2639 67.3219 44.1939 67.1962 44.0693C67.0706 43.9447 67 43.7757 67 43.5995V41.8283C67 40.7294 66.0982 39.8351 64.99 39.8351C63.8818 39.8351 62.98 40.7294 62.98 41.8283V43.5995C62.98 43.7757 62.9094 43.9447 62.7838 44.0693C62.6581 44.1939 62.4877 44.2639 62.31 44.2639C62.1323 44.2639 61.9619 44.1939 61.8362 44.0693C61.7106 43.9447 61.64 43.7757 61.64 43.5995V41.8283C61.64 39.9959 63.1421 38.5063 64.99 38.5063C66.8379 38.5063 68.34 39.9959 68.34 41.8283V43.5995C68.34 43.7757 68.2694 43.9447 68.1438 44.0693C68.0181 44.1939 67.8477 44.2639 67.67 44.2639Z" fill="black"/>
<path d="M73.03 44.2639C72.8523 44.2639 72.6819 44.1939 72.5562 44.0693C72.4306 43.9447 72.36 43.7757 72.36 43.5995V41.8283C72.36 40.7294 71.4582 39.8351 70.35 39.8351C69.2418 39.8351 68.34 40.7294 68.34 41.8283V43.5995C68.34 43.7757 68.2694 43.9447 68.1438 44.0693C68.0181 44.1939 67.8477 44.2639 67.67 44.2639C67.4923 44.2639 67.3219 44.1939 67.1962 44.0693C67.0706 43.9447 67 43.7757 67 43.5995V41.8283C67 39.9959 68.5021 38.5063 70.35 38.5063C72.1979 38.5063 73.7 39.9959 73.7 41.8283V43.5995C73.7 43.7757 73.6294 43.9447 73.5038 44.0693C73.3781 44.1939 73.2077 44.2639 73.03 44.2639Z" fill="black"/>
<path d="M78.39 44.2639C78.2123 44.2639 78.0419 44.1939 77.9162 44.0693C77.7906 43.9447 77.72 43.7757 77.72 43.5995V41.8283C77.72 40.7294 76.8182 39.8351 75.71 39.8351C74.6018 39.8351 73.7 40.7294 73.7 41.8283V43.5995C73.7 43.7757 73.6294 43.9447 73.5038 44.0693C73.3781 44.1939 73.2077 44.2639 73.03 44.2639C72.8523 44.2639 72.6819 44.1939 72.5562 44.0693C72.4306 43.9447 72.36 43.7757 72.36 43.5995V41.8283C72.36 39.9959 73.8621 38.5063 75.71 38.5063C77.5579 38.5063 79.06 39.9959 79.06 41.8283V43.5995C79.06 43.7757 78.9894 43.9447 78.8638 44.0693C78.7381 44.1939 78.5677 44.2639 78.39 44.2639Z" fill="black"/>
<path d="M83.75 44.2639C83.5723 44.2639 83.4019 44.1939 83.2762 44.0693C83.1506 43.9447 83.08 43.7757 83.08 43.5995V41.8283C83.08 40.7294 82.1782 39.8351 81.07 39.8351C79.9618 39.8351 79.06 40.7294 79.06 41.8283V43.5995C79.06 43.7757 78.9894 43.9447 78.8638 44.0693C78.7381 44.1939 78.5677 44.2639 78.39 44.2639C78.2123 44.2639 78.0419 44.1939 77.9162 44.0693C77.7906 43.9447 77.72 43.7757 77.72 43.5995V41.8283C77.72 39.9959 79.2221 38.5063 81.07 38.5063C82.9179 38.5063 84.42 39.9959 84.42 41.8283V43.5995C84.42 43.7757 84.3494 43.9447 84.2238 44.0693C84.0981 44.1939 83.9277 44.2639 83.75 44.2639ZM59.63 28.5406C59.4523 28.5406 59.2819 28.4706 59.1562 28.346C59.0306 28.2214 58.96 28.0524 58.96 27.8762L58.964 15.916C58.964 15.2104 58.0233 14.5885 56.9513 14.5885C55.8793 14.5885 54.94 15.2104 54.94 15.9173V27.8762C54.94 28.0524 54.8694 28.2214 54.7438 28.346C54.6181 28.4706 54.4477 28.5406 54.27 28.5406C54.0923 28.5406 53.9219 28.4706 53.7962 28.346C53.6706 28.2214 53.6 28.0524 53.6 27.8762V15.9173C53.6 14.4517 55.1035 13.2598 56.9513 13.2598C58.8005 13.2598 60.304 14.4517 60.304 15.9173L60.3 27.8762C60.3 28.0524 60.2294 28.2214 60.1038 28.346C59.9781 28.4706 59.8077 28.5406 59.63 28.5406Z" fill="black"/>
<path d="M64.99 28.5406C64.8123 28.5406 64.6419 28.4706 64.5162 28.346C64.3906 28.2214 64.32 28.0524 64.32 27.8762L64.324 15.916C64.324 15.2104 63.3833 14.5885 62.3113 14.5885C61.2393 14.5885 60.3 15.2104 60.3 15.9173V27.8762C60.3 28.0524 60.2294 28.2214 60.1038 28.346C59.9781 28.4706 59.8077 28.5406 59.63 28.5406C59.4523 28.5406 59.2819 28.4706 59.1562 28.346C59.0306 28.2214 58.96 28.0524 58.96 27.8762V15.9173C58.96 14.4517 60.4635 13.2598 62.3113 13.2598C64.1605 13.2598 65.664 14.4517 65.664 15.9173L65.66 27.8762C65.66 28.0524 65.5894 28.2214 65.4638 28.346C65.3381 28.4706 65.1677 28.5406 64.99 28.5406Z" fill="black"/>
<path d="M70.35 28.5406C70.1723 28.5406 70.0019 28.4706 69.8762 28.346C69.7506 28.2214 69.68 28.0524 69.68 27.8762L69.684 15.916C69.684 15.2104 68.7433 14.5885 67.6713 14.5885C66.5993 14.5885 65.66 15.2104 65.66 15.9173V27.8762C65.66 28.0524 65.5894 28.2214 65.4638 28.346C65.3381 28.4706 65.1677 28.5406 64.99 28.5406C64.8123 28.5406 64.6419 28.4706 64.5162 28.346C64.3906 28.2214 64.32 28.0524 64.32 27.8762V15.9173C64.32 14.4517 65.8235 13.2598 67.6713 13.2598C69.5205 13.2598 71.024 14.4517 71.024 15.9173L71.02 27.8762C71.02 28.0524 70.9494 28.2214 70.8238 28.346C70.6981 28.4706 70.5277 28.5406 70.35 28.5406Z" fill="black"/>
<path d="M75.71 28.5406C75.5323 28.5406 75.3619 28.4706 75.2362 28.346C75.1106 28.2214 75.04 28.0524 75.04 27.8762L75.044 15.916C75.044 15.2104 74.1033 14.5885 73.0313 14.5885C71.9593 14.5885 71.02 15.2104 71.02 15.9173V27.8762C71.02 28.0524 70.9494 28.2214 70.8238 28.346C70.6981 28.4706 70.5277 28.5406 70.35 28.5406C70.1723 28.5406 70.0019 28.4706 69.8762 28.346C69.7506 28.2214 69.68 28.0524 69.68 27.8762V15.9173C69.68 14.4517 71.1835 13.2598 73.0313 13.2598C74.8805 13.2598 76.384 14.4517 76.384 15.9173L76.38 27.8762C76.38 28.0524 76.3094 28.2214 76.1838 28.346C76.0581 28.4706 75.8877 28.5406 75.71 28.5406Z" fill="black"/>
<path d="M81.07 28.5406C80.8923 28.5406 80.7219 28.4706 80.5962 28.346C80.4706 28.2214 80.4 28.0524 80.4 27.8762L80.404 15.916C80.404 15.2104 79.4633 14.5885 78.3913 14.5885C77.3193 14.5885 76.38 15.2104 76.38 15.9173V27.8762C76.38 28.0524 76.3094 28.2214 76.1838 28.346C76.0581 28.4706 75.8877 28.5406 75.71 28.5406C75.5323 28.5406 75.3619 28.4706 75.2362 28.346C75.1106 28.2214 75.04 28.0524 75.04 27.8762V15.9173C75.04 14.4517 76.5435 13.2598 78.3913 13.2598C80.2405 13.2598 81.744 14.4517 81.744 15.9173L81.74 27.8762C81.74 28.0524 81.6694 28.2214 81.5438 28.346C81.4181 28.4706 81.2477 28.5406 81.07 28.5406ZM47.57 28.5406C47.3923 28.5406 47.2219 28.4706 47.0962 28.346C46.9706 28.2214 46.9 28.0524 46.9 27.8762V19.404C46.9 18.2134 48.102 17.2461 49.58 17.2461C51.5565 17.2461 52.26 18.2014 52.26 19.0944C52.26 19.2706 52.1894 19.4396 52.0638 19.5642C51.9381 19.6888 51.7677 19.7588 51.59 19.7588C51.4123 19.7588 51.2419 19.6888 51.1162 19.5642C50.9906 19.4396 50.92 19.2706 50.92 19.0944C50.92 18.7369 50.2245 18.5748 49.58 18.5748C48.8135 18.5748 48.24 19.012 48.24 19.404V27.8762C48.24 28.0524 48.1694 28.2214 48.0438 28.346C47.9181 28.4706 47.7477 28.5406 47.57 28.5406ZM87.77 28.5406C87.5923 28.5406 87.4219 28.4706 87.2962 28.346C87.1706 28.2214 87.1 28.0524 87.1 27.8762V19.9036C87.1 19.7274 87.1706 19.5584 87.2962 19.4338C87.4219 19.3092 87.5923 19.2392 87.77 19.2392C87.9477 19.2392 88.1181 19.3092 88.2438 19.4338C88.3694 19.5584 88.44 19.7274 88.44 19.9036V27.8762C88.44 28.0524 88.3694 28.2214 88.2438 28.346C88.1181 28.4706 87.9477 28.5406 87.77 28.5406Z" fill="black"/>
<path d="M87.77 20.0685C87.5923 20.0685 87.4219 19.9985 87.2962 19.8739C87.1706 19.7493 87.1 19.5803 87.1 19.4041C87.1 19.0121 86.5265 18.575 85.76 18.575C84.9935 18.575 84.42 19.0121 84.42 19.4041C84.42 19.5803 84.3494 19.7493 84.2238 19.8739C84.0981 19.9985 83.9277 20.0685 83.75 20.0685C83.5723 20.0685 83.4019 19.9985 83.2762 19.8739C83.1506 19.7493 83.08 19.5803 83.08 19.4041C83.08 18.2135 84.282 17.2462 85.76 17.2462C87.238 17.2462 88.44 18.2149 88.44 19.4041C88.44 19.5803 88.3694 19.7493 88.2438 19.8739C88.1181 19.9985 87.9477 20.0685 87.77 20.0685ZM93.13 11.9311H42.21C42.0323 11.9311 41.8619 11.8611 41.7362 11.7365C41.6106 11.6119 41.54 11.4429 41.54 11.2667V8.60921C41.54 8.433 41.6106 8.26401 41.7362 8.13942C41.8619 8.01482 42.0323 7.94482 42.21 7.94482H93.13C93.3077 7.94482 93.4781 8.01482 93.6038 8.13942C93.7294 8.26401 93.8 8.433 93.8 8.60921V11.2667C93.8 11.4429 93.7294 11.6119 93.6038 11.7365C93.4781 11.8611 93.3077 11.9311 93.13 11.9311ZM42.88 10.6024H92.46V9.27359H42.88V10.6024ZM44.89 17.2462H36.85C36.6723 17.2462 36.5019 17.1762 36.3762 17.0516C36.2506 16.927 36.18 16.758 36.18 16.5818V13.9243C36.18 13.7481 36.2506 13.5791 36.3762 13.4545C36.5019 13.3299 36.6723 13.2599 36.85 13.2599H44.89C45.0677 13.2599 45.2381 13.3299 45.3638 13.4545C45.4894 13.5791 45.56 13.7481 45.56 13.9243V16.5818C45.56 16.758 45.4894 16.927 45.3638 17.0516C45.2381 17.1762 45.0677 17.2462 44.89 17.2462ZM37.52 15.9174H44.22V14.5887H37.52V15.9174ZM98.49 17.2462H90.45C90.2723 17.2462 90.1019 17.1762 89.9762 17.0516C89.8506 16.927 89.78 16.758 89.78 16.5818V13.9243C89.78 13.7481 89.8506 13.5791 89.9762 13.4545C90.1019 13.3299 90.2723 13.2599 90.45 13.2599H98.49C98.6677 13.2599 98.8381 13.3299 98.9638 13.4545C99.0894 13.5791 99.16 13.7481 99.16 13.9243V16.5818C99.16 16.758 99.0894 16.927 98.9638 17.0516C98.8381 17.1762 98.6677 17.2462 98.49 17.2462ZM91.12 15.9174H97.82V14.5887H91.12V15.9174Z" fill="black"/>
<path d="M50.25 28.5405H85.09V32.5268H50.25V28.5405ZM51.59 32.5268H83.75V36.5131H51.59V32.5268Z" fill="#F2B894"/>
<path d="M51.59 31.8772H83.75V34.5347H51.59V31.8772Z" fill="#BD866E"/>
<path d="M85.09 33.1913H50.25C50.0723 33.1913 49.9019 33.1213 49.7762 32.9967C49.6506 32.8721 49.58 32.7031 49.58 32.5269V28.5406C49.58 28.3644 49.6506 28.1954 49.7762 28.0708C49.9019 27.9462 50.0723 27.8762 50.25 27.8762H85.09C85.2677 27.8762 85.4381 27.9462 85.5638 28.0708C85.6894 28.1954 85.76 28.3644 85.76 28.5406V32.5269C85.76 32.7031 85.6894 32.8721 85.5638 32.9967C85.4381 33.1213 85.2677 33.1913 85.09 33.1913ZM50.92 31.8625H84.42V29.205H50.92V31.8625Z" fill="black"/>
<path d="M83.75 37.1776H51.59C51.4123 37.1776 51.2419 37.1076 51.1162 36.983C50.9906 36.8584 50.92 36.6894 50.92 36.5132V32.5269C50.92 32.3507 50.9906 32.1817 51.1162 32.0571C51.2419 31.9325 51.4123 31.8625 51.59 31.8625H83.75C83.9277 31.8625 84.0981 31.9325 84.2238 32.0571C84.3494 32.1817 84.42 32.3507 84.42 32.5269V36.5132C84.42 36.6894 84.3494 36.8584 84.2238 36.983C84.0981 37.1076 83.9277 37.1776 83.75 37.1776ZM52.26 35.8489H83.08V33.1913H52.26V35.8489Z" fill="black"/>
<path d="M46.23 0.636475L44.22 4.62278H89.11L91.12 8.60908H93.13L89.11 0.636475H46.23Z" fill="#9E919C"/>
<path d="M93.13 9.27343H42.21C42.0957 9.27405 41.9831 9.24553 41.883 9.19059C41.783 9.13565 41.6989 9.05614 41.6387 8.95969C41.5786 8.86325 41.5445 8.75309 41.5396 8.6398C41.5348 8.52652 41.5594 8.41389 41.611 8.31273L45.631 0.34013C45.6867 0.229912 45.7722 0.137235 45.878 0.0724668C45.9838 0.00769859 46.1057 -0.0266072 46.23 -0.0266113H89.11C89.2343 -0.0266072 89.3562 0.00769859 89.462 0.0724668C89.5678 0.137235 89.6533 0.229912 89.709 0.34013L93.729 8.31273C93.7797 8.41395 93.8038 8.52628 93.7989 8.63922C93.794 8.75216 93.7602 8.86202 93.7008 8.95851C93.6404 9.05468 93.5563 9.13404 93.4565 9.18913C93.3566 9.24422 93.2443 9.27323 93.13 9.27343ZM43.2941 7.94466H92.0473L88.6973 1.30083H46.6441L43.2941 7.94466ZM133 97H0.99964C0.402 97 0 96.7342 0 96.3356C0 95.937 0.40066 95.6712 0.99964 95.6712H133C133.599 95.6712 134 95.937 134 96.3356C134 96.7342 133.599 97 133 97Z" fill="black"/>
</g>
<defs>
<clipPath id="clip0_47_8071">
<rect width="134" height="97" fill="white"/>
</clipPath>
</defs>
</svg>
