<svg width="38" height="26" viewBox="0 0 38 26" fill="none" xmlns="http://www.w3.org/2000/svg">
<path d="M38 9.19597C37.9156 12.4524 37.2508 15.5654 35.5412 18.402C33.4729 21.8427 30.4021 24.1365 26.5926 25.5189C26.2022 25.6623 25.8012 25.7852 25.4002 25.9081C24.556 26.1641 23.7223 25.8773 23.258 25.181C22.8042 24.5051 22.8464 23.6552 23.4057 23.0101C23.965 22.3649 24.5243 21.7198 25.0308 21.0235C25.8856 19.8561 26.6243 18.6272 27.2047 17.296C27.3102 17.0605 27.3419 16.9786 27.0253 16.9069C23.0891 16.0365 20.2821 12.606 20.261 8.65324C20.2399 4.69026 23.0469 1.17786 26.9725 0.256233C32.4493 -1.03404 37.0292 2.64221 37.8734 7.31177C37.9578 7.93642 38.0106 8.56108 38 9.19597Z" fill="#049304"/>
<path d="M17.7706 8.87841C17.6968 11.9607 17.2008 14.6129 15.9872 17.1218C14.1089 21.0131 11.0169 23.6448 6.96473 25.2935C6.37378 25.5393 5.76173 25.7339 5.13913 25.9182C4.30547 26.1537 3.49292 25.8772 3.01805 25.2014C2.54318 24.5255 2.57484 23.6858 3.13413 23.0304C4.12608 21.8835 5.07581 20.7059 5.84615 19.4054C6.25771 18.7193 6.61649 18.0127 6.94363 17.2857C7.0386 17.0706 7.0597 16.9784 6.76423 16.9068C3.10247 15.9647 0.854762 13.6708 0.126631 10.0765C-0.759789 5.69369 2.23716 1.29038 6.71147 0.245879C12.0933 -1.01367 16.5782 2.51921 17.549 7.06589C17.7284 7.7827 17.7812 8.48928 17.7706 8.87841Z" fill="#049304"/>
</svg>
