<svg width="38" height="26" viewBox="0 0 38 26" fill="none" xmlns="http://www.w3.org/2000/svg">
<path d="M5.42101e-05 9.19597C0.0844757 12.4524 0.749294 15.5654 2.45882 18.402C4.52713 21.8427 7.59795 24.1365 11.4074 25.5189C11.7979 25.6623 12.1989 25.7852 12.5999 25.9081C13.4441 26.1641 14.2778 25.8773 14.7421 25.181C15.1958 24.5051 15.1536 23.6552 14.5943 23.0101C14.035 22.3649 13.4758 21.7198 12.9692 21.0235C12.1145 19.8561 11.3758 18.6272 10.7954 17.296C10.6899 17.0605 10.6582 16.9786 10.9748 16.9069C14.9109 16.0365 17.7179 12.606 17.739 8.65324C17.7601 4.69026 14.9531 1.17786 11.0275 0.256233C5.55073 -1.03404 0.970898 2.64221 0.126689 7.31177C0.0422675 7.93642 -0.0104973 8.56108 5.42101e-05 9.19597Z" fill="#049304"/>
<path d="M20.2294 8.87841C20.3033 11.9607 20.7993 14.6129 22.0128 17.1218C23.8912 21.0131 26.9831 23.6448 31.0353 25.2935C31.6262 25.5393 32.2383 25.7339 32.8609 25.9182C33.6946 26.1537 34.5071 25.8772 34.982 25.2014C35.4568 24.5255 35.4252 23.6858 34.8659 23.0304C33.874 21.8835 32.9242 20.7059 32.1539 19.4054C31.7423 18.7193 31.3835 18.0127 31.0564 17.2857C30.9614 17.0706 30.9403 16.9784 31.2358 16.9068C34.8976 15.9647 37.1453 13.6708 37.8734 10.0765C38.7598 5.69369 35.7629 1.29038 31.2886 0.245879C25.9067 -1.01367 21.4219 2.51921 20.451 7.06589C20.2716 7.7827 20.2189 8.48928 20.2294 8.87841Z" fill="#049304"/>
</svg>
