<svg xmlns="http://www.w3.org/2000/svg" xmlns:xlink="http://www.w3.org/1999/xlink" version="1.1" id="Capa_1" x="0px" y="0px" viewBox="0 0 512 512" style="enable-background:new 0 0 512 512;" xml:space="preserve">
<g>
	<g>
		<path d="M466.75,242.763V86.25c0-2.346-0.643-4.493-1.6-6.469c0.577-1.599,1.6-3.01,1.6-4.781c0-6.694-4.438-12.583-10.884-14.429    l-210-60c-2.695-0.762-5.537-0.762-8.232,0l-210,60C21.188,62.417,16.75,68.306,16.75,75c0,6.694,4.438,12.583,10.884,14.429    l79.116,22.604v17.752c0,17.065,9.478,32.754,24.141,39.961c67.236,33.047,154.453,33.032,221.719,0.015    c14.663-7.207,24.141-22.896,24.141-39.976v-17.752l60-17.142v147.872c-17.422,6.213-30,22.707-30,42.237v30    c0,8.291,6.709,15,15,15h60c8.291,0,15-6.709,15-15v-30C496.75,265.47,484.172,248.977,466.75,242.763z" fill="#049304"/>
	</g>
</g>
<g>
	<g>
		<path d="M364.322,198.685C326.617,217.215,283.712,227,240.25,227c-43.462,0-86.382-9.8-124.102-28.33    c-3.684-1.811-6.735-4.495-10.009-6.887c3.204,53.99,32.252,99.803,73.304,123.274c0,0,21.057,9.949,27.636,11.818l0.026-0.049    c10.655,3.038,21.625,5.175,33.144,5.175c10.547,0,25.57-2.105,40.582-7.648c6.915-2.462,20.176-9.265,20.176-9.265    c41.077-23.463,70.145-69.29,73.353-123.299C371.077,194.185,368.017,196.87,364.322,198.685z" fill="#049304"/>
	</g>
</g>
<g>
	<g>
		<path d="M240.25,362c-12.092,0-23.729-1.866-35.068-4.603L240.25,410l34.871-52.553C263.841,360.152,252.273,362,240.25,362z" fill="#049304"/>
	</g>
</g>
<g>
	<g>
		<path d="M326.595,335.096c-0.266,0.179-0.564,0.302-0.829,0.48L313.15,354.5c0,0.698-57.513,86.718-57.9,87.299V512h195    c8.291,0,15-6.709,15-15C465.25,415.086,404.961,347.846,326.595,335.096z M360.25,452h-30c-8.291,0-15-6.709-15-15    c0-8.291,6.709-15,15-15h30c8.291,0,15,6.709,15,15C375.25,445.291,368.541,452,360.25,452z" fill="#049304"/>
	</g>
</g>
<g>
	<g>
		<path d="M154.461,335.402c-0.244-0.163-0.516-0.276-0.76-0.441C75.418,347.798,15.25,415.137,15.25,497c0,8.291,6.709,15,15,15    h195v-70.201C157.271,339.655,171.143,360.508,154.461,335.402z" fill="#049304"/>
	</g>
</g>
<g>
</g>
<g>
</g>
<g>
</g>
<g>
</g>
<g>
</g>
<g>
</g>
<g>
</g>
<g>
</g>
<g>
</g>
<g>
</g>
<g>
</g>
<g>
</g>
<g>
</g>
<g>
</g>
<g>
</g>
</svg>