<svg width="94" height="108" viewBox="0 0 94 108" fill="none" xmlns="http://www.w3.org/2000/svg">
<path d="M86.7832 75.5H7.2832L3.7832 72L19.2832 62.5H75.2832L91.2832 72L86.7832 75.5Z" fill="#B75355"/>
<path d="M12.2832 52L19.7832 54.5H74.2832L83.7832 50.5L69.2832 44.5H25.2832L10.2832 50.5L12.2832 52Z" fill="#B75355"/>
<path d="M26.2832 33.5L16.2832 29.5C16.2832 27 35.2832 19 41.7832 13H53.2832C53.2832 15.8 70.9499 25.1667 79.7832 29.5L69.2832 33.5H26.2832Z" fill="#B75355"/>
<rect x="6.7832" y="75" width="79" height="33" fill="#F4D3BD"/>
<rect x="18.7832" y="54" width="57" height="8" fill="#F4D3BD"/>
<rect x="24.7832" y="34" width="44" height="10" fill="#F4D3BD"/>
<rect x="41.7832" y="10" width="11" height="3" fill="#F4D3BD"/>
<path d="M46.2832 1L42.2832 8L45.2832 9L51.7832 8.5L47.7832 1H46.2832Z" fill="#F0EEEF"/>
<path fill-rule="evenodd" clip-rule="evenodd" d="M41.2794 12.4226C41.6093 12.6229 41.7144 13.0528 41.5141 13.3827C40.642 14.8191 38.9042 16.3414 36.7643 17.8442C34.603 19.3621 31.9517 20.914 29.1662 22.3931C24.3774 24.9359 19.1526 27.284 15.2535 28.8964L26.0082 32.309V44.592L10.285 50.8601L20.0681 53.4823V63.2946L3.47921 71.9253L7.88805 74.9924C8.20488 75.2128 8.28305 75.6483 8.06265 75.9651C7.84224 76.2819 7.40672 76.3601 7.08988 76.1397L0.783203 71.7525L18.6704 62.4463V54.5547L5.85767 51.1204L24.6105 43.6446V33.3318L11.1173 29.0503L12.9383 28.3273C16.8809 26.7618 22.9947 24.0876 28.5107 21.1586C31.2694 19.6938 33.8652 18.1723 35.961 16.7005C38.0782 15.2136 39.6075 13.8299 40.3194 12.6573C40.5197 12.3274 40.9495 12.2223 41.2794 12.4226Z" fill="black"/>
<path fill-rule="evenodd" clip-rule="evenodd" d="M53.3661 12.4226C53.0362 12.6229 52.9311 13.0528 53.1314 13.3827C54.0035 14.8191 55.7413 16.3414 57.8812 17.8442C60.0425 19.3621 62.6938 20.914 65.4793 22.3931C70.2681 24.9359 75.4929 27.284 79.3921 28.8964L68.6373 32.309V44.592L84.3605 50.8601L74.5774 53.4823V63.2946L91.1663 71.9253L86.7575 74.9924C86.4406 75.2128 86.3625 75.6483 86.5829 75.9651C86.8033 76.2819 87.2388 76.3601 87.5556 76.1397L93.8623 71.7525L75.9751 62.4463V54.5547L88.7878 51.1204L70.035 43.6446V33.3318L83.5282 29.0503L81.7073 28.3273C77.7646 26.7618 71.6508 24.0876 66.1348 21.1586C63.3761 19.6938 60.7803 18.1723 58.6845 16.7005C56.5673 15.2136 55.038 13.8299 54.3261 12.6573C54.1258 12.3274 53.696 12.2223 53.3661 12.4226Z" fill="black"/>
<path fill-rule="evenodd" clip-rule="evenodd" d="M13.0796 28.7438C13.0796 28.3578 13.3925 28.0449 13.7784 28.0449H78.7704C79.1564 28.0449 79.4693 28.3578 79.4693 28.7438C79.4693 29.1297 79.1564 29.4426 78.7704 29.4426H13.7784C13.3925 29.4426 13.0796 29.1297 13.0796 28.7438Z" fill="black"/>
<path fill-rule="evenodd" clip-rule="evenodd" d="M40.2178 13.0199C40.2178 12.6339 40.5307 12.321 40.9166 12.321L53.7287 12.321C54.1146 12.321 54.4275 12.6339 54.4275 13.0199C54.4275 13.4058 54.1146 13.7187 53.7287 13.7187L40.9166 13.7187C40.5307 13.7187 40.2178 13.4058 40.2178 13.0199Z" fill="black"/>
<path fill-rule="evenodd" clip-rule="evenodd" d="M44.1777 2.88683C44.1777 2.50087 44.4906 2.18799 44.8766 2.18799L49.7684 2.18799C50.1544 2.18799 50.4673 2.50087 50.4673 2.88683C50.4673 3.27279 50.1544 3.58567 49.7684 3.58567L44.8766 3.58567C44.4906 3.58567 44.1777 3.27278 44.1777 2.88683Z" fill="black"/>
<path fill-rule="evenodd" clip-rule="evenodd" d="M40.5674 8.82689C40.5674 8.44093 40.8803 8.12805 41.2662 8.12805L52.7971 8.12805C53.183 8.12805 53.4959 8.44093 53.4959 8.82689C53.4959 9.21285 53.183 9.52573 52.7971 9.52573L41.2662 9.52573C40.8803 9.52573 40.5674 9.21285 40.5674 8.82689Z" fill="black"/>
<path fill-rule="evenodd" clip-rule="evenodd" d="M9.70166 50.6658C9.70166 50.2798 10.0145 49.9669 10.4005 49.9669L84.2444 49.9669C84.6304 49.9669 84.9433 50.2798 84.9433 50.6658C84.9433 51.0517 84.6304 51.3646 84.2444 51.3646L10.4005 51.3646C10.0145 51.3646 9.70166 51.0517 9.70166 50.6658Z" fill="black"/>
<path fill-rule="evenodd" clip-rule="evenodd" d="M24.96 44.1183C24.96 43.7323 25.2728 43.4194 25.6588 43.4194L69.2197 43.4194C69.6057 43.4194 69.9186 43.7323 69.9186 44.1183C69.9186 44.5042 69.6057 44.8171 69.2197 44.8171L25.6588 44.8171C25.2728 44.8171 24.96 44.5042 24.96 44.1183Z" fill="black"/>
<path fill-rule="evenodd" clip-rule="evenodd" d="M25.6588 44.8171C25.2728 44.8171 24.96 44.5043 24.96 44.1183L24.96 33.2863C24.96 32.9003 25.2728 32.5875 25.6588 32.5875C26.0448 32.5875 26.3576 32.9003 26.3576 33.2863L26.3576 44.1183C26.3576 44.5043 26.0448 44.8171 25.6588 44.8171Z" fill="black"/>
<path fill-rule="evenodd" clip-rule="evenodd" d="M34.2779 41.2064C33.892 41.2064 33.5791 40.8935 33.5791 40.5076L33.5791 33.2862C33.5791 32.9003 33.892 32.5874 34.2779 32.5874C34.6639 32.5874 34.9768 32.9003 34.9768 33.2862L34.9768 40.5076C34.9768 40.8935 34.6639 41.2064 34.2779 41.2064Z" fill="black"/>
<path fill-rule="evenodd" clip-rule="evenodd" d="M41.2662 13.7188C40.8803 13.7188 40.5674 13.4059 40.5674 13.0199L40.5674 9.1763C40.5674 8.79034 40.8803 8.47746 41.2662 8.47746C41.6522 8.47746 41.9651 8.79034 41.9651 9.1763L41.9651 13.0199C41.9651 13.4059 41.6522 13.7188 41.2662 13.7188Z" fill="black"/>
<path fill-rule="evenodd" clip-rule="evenodd" d="M52.7975 13.7188C52.4115 13.7188 52.0986 13.4059 52.0986 13.0199L52.0986 9.1763C52.0986 8.79034 52.4115 8.47746 52.7975 8.47746C53.1834 8.47746 53.4963 8.79034 53.4963 9.1763L53.4963 13.0199C53.4963 13.4059 53.1834 13.7188 52.7975 13.7188Z" fill="black"/>
<path fill-rule="evenodd" clip-rule="evenodd" d="M30.6666 60.1915C30.2807 60.1915 29.9678 59.8786 29.9678 59.4927L29.9678 54.3679C29.9678 53.9819 30.2807 53.669 30.6666 53.669C31.0526 53.669 31.3655 53.9819 31.3655 54.3679L31.3655 59.4927C31.3655 59.8786 31.0526 60.1915 30.6666 60.1915Z" fill="black"/>
<path fill-rule="evenodd" clip-rule="evenodd" d="M19.0201 107.13C18.6342 107.13 18.3213 106.817 18.3213 106.431L18.3213 83.3697C18.3213 82.9838 18.6342 82.6709 19.0201 82.6709C19.4061 82.6709 19.719 82.9838 19.719 83.3697L19.719 106.431C19.719 106.817 19.4061 107.13 19.0201 107.13Z" fill="black"/>
<path fill-rule="evenodd" clip-rule="evenodd" d="M64.6774 107.13C64.2914 107.13 63.9785 106.817 63.9785 106.431L63.9785 83.3697C63.9785 82.9838 64.2914 82.6709 64.6774 82.6709C65.0633 82.6709 65.3762 82.9838 65.3762 83.3697L65.3762 106.431C65.3762 106.817 65.0633 107.13 64.6774 107.13Z" fill="black"/>
<path fill-rule="evenodd" clip-rule="evenodd" d="M24.4938 87.9121C24.1078 87.9121 23.7949 87.5992 23.7949 87.2133L23.7949 83.3697C23.7949 82.9837 24.1078 82.6708 24.4938 82.6708C24.8797 82.6708 25.1926 82.9837 25.1926 83.3697L25.1926 87.2133C25.1926 87.5992 24.8797 87.9121 24.4938 87.9121Z" fill="black"/>
<path fill-rule="evenodd" clip-rule="evenodd" d="M70.151 87.9121C69.765 87.9121 69.4521 87.5992 69.4521 87.2133L69.4521 83.3697C69.4521 82.9837 69.765 82.6708 70.151 82.6708C70.5369 82.6708 70.8498 82.9837 70.8498 83.3697L70.8498 87.2133C70.8498 87.5992 70.5369 87.9121 70.151 87.9121Z" fill="black"/>
<path fill-rule="evenodd" clip-rule="evenodd" d="M29.3859 107.13C28.9999 107.13 28.687 106.817 28.687 106.431L28.687 83.3697C28.687 82.9838 28.9999 82.6709 29.3859 82.6709C29.7718 82.6709 30.0847 82.9838 30.0847 83.3697L30.0847 106.431C30.0847 106.817 29.7718 107.13 29.3859 107.13Z" fill="black"/>
<path fill-rule="evenodd" clip-rule="evenodd" d="M75.0436 107.13C74.6576 107.13 74.3447 106.817 74.3447 106.431L74.3447 83.3697C74.3447 82.9838 74.6576 82.6709 75.0436 82.6709C75.4295 82.6709 75.7424 82.9838 75.7424 83.3697L75.7424 106.431C75.7424 106.817 75.4295 107.13 75.0436 107.13Z" fill="black"/>
<path fill-rule="evenodd" clip-rule="evenodd" d="M41.9645 107.13C41.5785 107.13 41.2656 106.817 41.2656 106.431L41.2656 83.3697C41.2656 82.9838 41.5785 82.6709 41.9645 82.6709C42.3504 82.6709 42.6633 82.9838 42.6633 83.3697L42.6633 106.431C42.6633 106.817 42.3504 107.13 41.9645 107.13Z" fill="black"/>
<path fill-rule="evenodd" clip-rule="evenodd" d="M52.7975 107.13C52.4115 107.13 52.0986 106.817 52.0986 106.431L52.0986 83.3697C52.0986 82.9838 52.4115 82.6709 52.7975 82.6709C53.1834 82.6709 53.4963 82.9838 53.4963 83.3697L53.4963 106.431C53.4963 106.817 53.1834 107.13 52.7975 107.13Z" fill="black"/>
<path fill-rule="evenodd" clip-rule="evenodd" d="M19.0201 62.521C18.6342 62.521 18.3213 62.2081 18.3213 61.8222L18.3213 54.3679C18.3213 53.9819 18.6342 53.669 19.0201 53.669C19.4061 53.669 19.719 53.9819 19.719 54.3679L19.719 61.8222C19.719 62.2081 19.4061 62.521 19.0201 62.521Z" fill="black"/>
<path fill-rule="evenodd" clip-rule="evenodd" d="M6.78966 107.946C6.4037 107.946 6.09082 107.633 6.09082 107.247L6.09082 75.3331C6.09082 74.9471 6.4037 74.6343 6.78966 74.6343C7.17562 74.6343 7.4885 74.9471 7.4885 75.3331L7.4885 107.247C7.4885 107.633 7.17562 107.946 6.78966 107.946Z" fill="black"/>
<path fill-rule="evenodd" clip-rule="evenodd" d="M11.0997 107.946C10.7138 107.946 10.4009 107.633 10.4009 107.247L10.4009 75.3331C10.4009 74.9471 10.7138 74.6343 11.0997 74.6343C11.4857 74.6343 11.7986 74.9471 11.7986 75.3331L11.7986 107.247C11.7986 107.633 11.4857 107.946 11.0997 107.946Z" fill="black"/>
<path fill-rule="evenodd" clip-rule="evenodd" d="M33.9283 107.946C33.5424 107.946 33.2295 107.633 33.2295 107.247L33.2295 75.3331C33.2295 74.9471 33.5424 74.6343 33.9283 74.6343C34.3143 74.6343 34.6272 74.9471 34.6272 75.3331L34.6272 107.247C34.6272 107.633 34.3143 107.946 33.9283 107.946Z" fill="black"/>
<path fill-rule="evenodd" clip-rule="evenodd" d="M56.7574 107.946C56.3715 107.946 56.0586 107.633 56.0586 107.247L56.0586 75.3331C56.0586 74.9471 56.3715 74.6343 56.7574 74.6343C57.1434 74.6343 57.4563 74.9471 57.4563 75.3331L57.4563 107.247C57.4563 107.633 57.1434 107.946 56.7574 107.946Z" fill="black"/>
<path fill-rule="evenodd" clip-rule="evenodd" d="M79.5856 107.946C79.1996 107.946 78.8867 107.633 78.8867 107.247L78.8867 75.3331C78.8867 74.9471 79.1996 74.6343 79.5856 74.6343C79.9715 74.6343 80.2844 74.9471 80.2844 75.3331L80.2844 107.247C80.2844 107.633 79.9715 107.946 79.5856 107.946Z" fill="black"/>
<path fill-rule="evenodd" clip-rule="evenodd" d="M14.5939 107.946C14.2079 107.946 13.895 107.633 13.895 107.247L13.895 75.3331C13.895 74.9471 14.2079 74.6343 14.5939 74.6343C14.9798 74.6343 15.2927 74.9471 15.2927 75.3331L15.2927 107.247C15.2927 107.633 14.9798 107.946 14.5939 107.946Z" fill="black"/>
<path fill-rule="evenodd" clip-rule="evenodd" d="M37.4225 107.946C37.0365 107.946 36.7236 107.633 36.7236 107.247L36.7236 75.3331C36.7236 74.9471 37.0365 74.6343 37.4225 74.6343C37.8084 74.6343 38.1213 74.9471 38.1213 75.3331L38.1213 107.247C38.1213 107.633 37.8084 107.946 37.4225 107.946Z" fill="black"/>
<path fill-rule="evenodd" clip-rule="evenodd" d="M60.2511 107.946C59.8651 107.946 59.5522 107.633 59.5522 107.247L59.5522 75.3331C59.5522 74.9471 59.8651 74.6343 60.2511 74.6343C60.637 74.6343 60.9499 74.9471 60.9499 75.3331L60.9499 107.247C60.9499 107.633 60.637 107.946 60.2511 107.946Z" fill="black"/>
<path fill-rule="evenodd" clip-rule="evenodd" d="M83.0802 107.946C82.6942 107.946 82.3813 107.633 82.3813 107.247L82.3813 75.3331C82.3813 74.9471 82.6942 74.6343 83.0802 74.6343C83.4661 74.6343 83.779 74.9471 83.779 75.3331L83.779 107.247C83.779 107.633 83.4661 107.946 83.0802 107.946Z" fill="black"/>
<path fill-rule="evenodd" clip-rule="evenodd" d="M87.0401 107.946C86.6542 107.946 86.3413 107.633 86.3413 107.247L86.3413 75.3331C86.3413 74.9471 86.6542 74.6343 87.0401 74.6343C87.4261 74.6343 87.739 74.9471 87.739 75.3331L87.739 107.247C87.739 107.633 87.4261 107.946 87.0401 107.946Z" fill="black"/>
<path fill-rule="evenodd" clip-rule="evenodd" d="M42.8971 41.2064C42.5111 41.2064 42.1982 40.8935 42.1982 40.5076L42.1982 33.2862C42.1982 32.9003 42.5111 32.5874 42.8971 32.5874C43.283 32.5874 43.5959 32.9003 43.5959 33.2862L43.5959 40.5076C43.5959 40.8935 43.283 41.2064 42.8971 41.2064Z" fill="black"/>
<path fill-rule="evenodd" clip-rule="evenodd" d="M41.9645 60.1915C41.5785 60.1915 41.2656 59.8786 41.2656 59.4927L41.2656 54.3679C41.2656 53.9819 41.5785 53.669 41.9645 53.669C42.3504 53.669 42.6633 53.9819 42.6633 54.3679L42.6633 59.4927C42.6633 59.8786 42.3504 60.1915 41.9645 60.1915Z" fill="black"/>
<path fill-rule="evenodd" clip-rule="evenodd" d="M51.5157 41.2064C51.1298 41.2064 50.8169 40.8935 50.8169 40.5076L50.8169 33.2862C50.8169 32.9003 51.1298 32.5874 51.5157 32.5874C51.9017 32.5874 52.2146 32.9003 52.2146 33.2862L52.2146 40.5076C52.2146 40.8935 51.9017 41.2064 51.5157 41.2064Z" fill="black"/>
<path fill-rule="evenodd" clip-rule="evenodd" d="M52.7975 60.1915C52.4115 60.1915 52.0986 59.8786 52.0986 59.4927L52.0986 54.3679C52.0986 53.9819 52.4115 53.669 52.7975 53.669C53.1834 53.669 53.4963 53.9819 53.4963 54.3679L53.4963 59.4927C53.4963 59.8786 53.1834 60.1915 52.7975 60.1915Z" fill="black"/>
<path fill-rule="evenodd" clip-rule="evenodd" d="M60.1349 41.2064C59.7489 41.2064 59.436 40.8935 59.436 40.5076L59.436 33.2862C59.436 32.9003 59.7489 32.5874 60.1349 32.5874C60.5208 32.5874 60.8337 32.9003 60.8337 33.2862L60.8337 40.5076C60.8337 40.8935 60.5208 41.2064 60.1349 41.2064Z" fill="black"/>
<path fill-rule="evenodd" clip-rule="evenodd" d="M63.6295 60.1915C63.2435 60.1915 62.9307 59.8786 62.9307 59.4927L62.9307 54.3679C62.9307 53.9819 63.2435 53.669 63.6295 53.669C64.0155 53.669 64.3283 53.9819 64.3283 54.3679L64.3283 59.4927C64.3283 59.8786 64.0155 60.1915 63.6295 60.1915Z" fill="black"/>
<path fill-rule="evenodd" clip-rule="evenodd" d="M74.694 62.7539C74.308 62.7539 73.9951 62.441 73.9951 62.0551L73.9951 54.3678C73.9951 53.9819 74.308 53.669 74.694 53.669C75.0799 53.669 75.3928 53.9819 75.3928 54.3678L75.3928 62.0551C75.3928 62.441 75.0799 62.7539 74.694 62.7539Z" fill="black"/>
<path fill-rule="evenodd" clip-rule="evenodd" d="M69.2198 44.8171C68.8339 44.8171 68.521 44.5043 68.521 44.1183L68.521 33.2863C68.521 32.9003 68.8339 32.5875 69.2198 32.5875C69.6058 32.5875 69.9187 32.9003 69.9187 33.2863L69.9187 44.1183C69.9187 44.5043 69.6058 44.8171 69.2198 44.8171Z" fill="black"/>
<path fill-rule="evenodd" clip-rule="evenodd" d="M24.96 40.5076C24.96 40.1216 25.2728 39.8087 25.6588 39.8087L68.4044 39.8087C68.7904 39.8087 69.1033 40.1216 69.1033 40.5076C69.1033 40.8935 68.7904 41.2064 68.4044 41.2064L25.6588 41.2064C25.2728 41.2064 24.96 40.8935 24.96 40.5076Z" fill="black"/>
<path fill-rule="evenodd" clip-rule="evenodd" d="M24.96 33.0533C24.96 32.6674 25.2728 32.3545 25.6588 32.3545L69.2197 32.3545C69.6057 32.3545 69.9186 32.6674 69.9186 33.0533C69.9186 33.4393 69.6057 33.7522 69.2197 33.7522L25.6588 33.7522C25.2728 33.7522 24.96 33.4393 24.96 33.0533Z" fill="black"/>
<path fill-rule="evenodd" clip-rule="evenodd" d="M18.3213 54.3679C18.3213 53.9819 18.6342 53.6691 19.0201 53.6691L74.6943 53.6691C75.0802 53.6691 75.3931 53.9819 75.3931 54.3679C75.3931 54.7539 75.0802 55.0667 74.6943 55.0667L19.0201 55.0667C18.6342 55.0667 18.3213 54.7539 18.3213 54.3679Z" fill="black"/>
<path fill-rule="evenodd" clip-rule="evenodd" d="M18.3213 59.4927C18.3213 59.1067 18.6342 58.7938 19.0201 58.7938L74.6943 58.7938C75.0802 58.7938 75.3931 59.1067 75.3931 59.4927C75.3931 59.8786 75.0802 60.1915 74.6943 60.1915L19.0201 60.1915C18.6342 60.1915 18.3213 59.8786 18.3213 59.4927Z" fill="black"/>
<path fill-rule="evenodd" clip-rule="evenodd" d="M18.3213 62.0552C18.3213 61.6692 18.6342 61.3563 19.0201 61.3563L74.6943 61.3563C75.0802 61.3563 75.3931 61.6692 75.3931 62.0552C75.3931 62.4411 75.0802 62.754 74.6943 62.754L19.0201 62.754C18.6342 62.754 18.3213 62.4411 18.3213 62.0552Z" fill="black"/>
<path fill-rule="evenodd" clip-rule="evenodd" d="M3.4126 71.8389C3.4126 71.4529 3.72548 71.14 4.11144 71.14L90.5345 71.14C90.9204 71.14 91.2333 71.4529 91.2333 71.8388C91.2333 72.2248 90.9204 72.5377 90.5345 72.5377L4.11144 72.5377C3.72548 72.5377 3.4126 72.2248 3.4126 71.8389Z" fill="black"/>
<path fill-rule="evenodd" clip-rule="evenodd" d="M7.13965 75.333C7.13965 74.947 7.45253 74.6342 7.83849 74.6342L87.3896 74.6341C87.7756 74.6341 88.0885 74.947 88.0885 75.333C88.0885 75.7189 87.7756 76.0318 87.3896 76.0318L7.83849 76.0318C7.45253 76.0318 7.13965 75.719 7.13965 75.333Z" fill="black"/>
<path fill-rule="evenodd" clip-rule="evenodd" d="M6.79053 107.247C6.79053 106.861 7.10341 106.548 7.48937 106.548L87.0405 106.548C87.4264 106.548 87.7393 106.861 87.7393 107.247C87.7393 107.633 87.4264 107.946 87.0405 107.946L7.48937 107.946C7.10341 107.946 6.79053 107.633 6.79053 107.247Z" fill="black"/>
<path fill-rule="evenodd" clip-rule="evenodd" d="M6.79053 83.3697C6.79053 82.9838 7.10341 82.6709 7.48937 82.6709L11.1 82.6709C11.486 82.6709 11.7989 82.9838 11.7989 83.3697C11.7989 83.7557 11.486 84.0686 11.1 84.0686L7.48937 84.0686C7.10341 84.0686 6.79053 83.7557 6.79053 83.3697Z" fill="black"/>
<path fill-rule="evenodd" clip-rule="evenodd" d="M6.79053 79.5261C6.79053 79.1402 7.10341 78.8273 7.48937 78.8273L11.1 78.8273C11.486 78.8273 11.7989 79.1402 11.7989 79.5261C11.7989 79.9121 11.486 80.2249 11.1 80.2249L7.48937 80.2249C7.10341 80.2249 6.79053 79.9121 6.79053 79.5261Z" fill="black"/>
<path fill-rule="evenodd" clip-rule="evenodd" d="M14.71 79.5261C14.71 79.1402 15.0228 78.8273 15.4088 78.8273L33.928 78.8273C34.314 78.8273 34.6269 79.1401 34.6269 79.5261C34.6269 79.9121 34.314 80.2249 33.928 80.2249L15.4088 80.2249C15.0228 80.2249 14.71 79.9121 14.71 79.5261Z" fill="black"/>
<path fill-rule="evenodd" clip-rule="evenodd" d="M14.71 87.2132C14.71 86.8273 15.0228 86.5144 15.4088 86.5144L33.928 86.5144C34.314 86.5144 34.6269 86.8273 34.6269 87.2132C34.6269 87.5992 34.314 87.9121 33.928 87.9121L15.4088 87.9121C15.0228 87.9121 14.71 87.5992 14.71 87.2132Z" fill="black"/>
<path fill-rule="evenodd" clip-rule="evenodd" d="M14.71 79.5261C14.71 79.1402 15.0228 78.8273 15.4088 78.8273L33.928 78.8273C34.314 78.8273 34.6269 79.1401 34.6269 79.5261C34.6269 79.9121 34.314 80.2249 33.928 80.2249L15.4088 80.2249C15.0228 80.2249 14.71 79.9121 14.71 79.5261Z" fill="black"/>
<path fill-rule="evenodd" clip-rule="evenodd" d="M14.71 83.3697C14.71 82.9838 15.0228 82.6709 15.4088 82.6709L33.928 82.6709C34.314 82.6709 34.6269 82.9838 34.6269 83.3697C34.6269 83.7557 34.314 84.0686 33.928 84.0686L15.4088 84.0686C15.0228 84.0686 14.71 83.7557 14.71 83.3697Z" fill="black"/>
<path fill-rule="evenodd" clip-rule="evenodd" d="M14.71 87.6792C14.71 87.2932 15.0228 86.9803 15.4088 86.9803L33.928 86.9803C34.314 86.9803 34.6269 87.2932 34.6269 87.6792C34.6269 88.0651 34.314 88.378 33.928 88.378L15.4088 88.378C15.0228 88.378 14.71 88.0651 14.71 87.6792Z" fill="black"/>
<path fill-rule="evenodd" clip-rule="evenodd" d="M18.3213 90.7075C18.3213 90.3215 18.6342 90.0087 19.0201 90.0087L29.3862 90.0087C29.7722 90.0087 30.0851 90.3215 30.0851 90.7075C30.0851 91.0935 29.7722 91.4063 29.3862 91.4063L19.0201 91.4063C18.6342 91.4063 18.3213 91.0935 18.3213 90.7075Z" fill="black"/>
<path fill-rule="evenodd" clip-rule="evenodd" d="M64.0947 90.7075C64.0947 90.3215 64.4076 90.0087 64.7936 90.0087L75.1597 90.0087C75.5456 90.0087 75.8585 90.3215 75.8585 90.7075C75.8585 91.0935 75.5456 91.4063 75.1597 91.4063L64.7936 91.4063C64.4076 91.4063 64.0947 91.0935 64.0947 90.7075Z" fill="black"/>
<path fill-rule="evenodd" clip-rule="evenodd" d="M37.6553 83.3697C37.6553 82.9838 37.9682 82.6709 38.3541 82.6709L56.8733 82.6709C57.2593 82.6709 57.5722 82.9838 57.5722 83.3697C57.5722 83.7557 57.2593 84.0686 56.8733 84.0686L38.3541 84.0686C37.9682 84.0686 37.6553 83.7557 37.6553 83.3697Z" fill="black"/>
<path fill-rule="evenodd" clip-rule="evenodd" d="M37.6553 79.5261C37.6553 79.1402 37.9682 78.8273 38.3541 78.8273L56.8733 78.8273C57.2593 78.8273 57.5722 79.1401 57.5722 79.5261C57.5722 79.9121 57.2593 80.2249 56.8733 80.2249L38.3541 80.2249C37.9682 80.2249 37.6553 79.9121 37.6553 79.5261Z" fill="black"/>
<path fill-rule="evenodd" clip-rule="evenodd" d="M37.6553 87.6792C37.6553 87.2932 37.9682 86.9803 38.3541 86.9803L56.8733 86.9803C57.2593 86.9803 57.5722 87.2932 57.5722 87.6792C57.5722 88.0651 57.2593 88.378 56.8733 88.378L38.3541 88.378C37.9682 88.378 37.6553 88.0651 37.6553 87.6792Z" fill="black"/>
<path fill-rule="evenodd" clip-rule="evenodd" d="M41.2656 90.7075C41.2656 90.3215 41.5785 90.0087 41.9645 90.0087L52.7965 90.0087C53.1824 90.0087 53.4953 90.3215 53.4953 90.7075C53.4953 91.0935 53.1824 91.4063 52.7965 91.4063L41.9645 91.4063C41.5785 91.4063 41.2656 91.0935 41.2656 90.7075Z" fill="black"/>
<path fill-rule="evenodd" clip-rule="evenodd" d="M60.6006 83.3697C60.6006 82.9838 60.9135 82.6709 61.2994 82.6709L79.5857 82.6709C79.9717 82.6709 80.2845 82.9838 80.2845 83.3697C80.2845 83.7557 79.9717 84.0686 79.5857 84.0686L61.2994 84.0686C60.9135 84.0686 60.6006 83.7557 60.6006 83.3697Z" fill="black"/>
<path fill-rule="evenodd" clip-rule="evenodd" d="M60.6006 79.5261C60.6006 79.1402 60.9135 78.8273 61.2994 78.8273L79.5857 78.8273C79.9717 78.8273 80.2845 79.1401 80.2845 79.5261C80.2845 79.9121 79.9717 80.2249 79.5857 80.2249L61.2994 80.2249C60.9135 80.2249 60.6006 79.9121 60.6006 79.5261Z" fill="black"/>
<path fill-rule="evenodd" clip-rule="evenodd" d="M60.6006 87.6792C60.6006 87.2932 60.9135 86.9803 61.2994 86.9803L79.5857 86.9803C79.9717 86.9803 80.2845 87.2932 80.2845 87.6792C80.2845 88.0651 79.9717 88.378 79.5857 88.378L61.2994 88.378C60.9135 88.378 60.6006 88.0651 60.6006 87.6792Z" fill="black"/>
<path fill-rule="evenodd" clip-rule="evenodd" d="M83.5454 83.3697C83.5454 82.9838 83.8583 82.6709 84.2442 82.6709L87.0396 82.6709C87.4256 82.6709 87.7384 82.9838 87.7384 83.3697C87.7384 83.7557 87.4256 84.0686 87.0396 84.0686L84.2442 84.0686C83.8583 84.0686 83.5454 83.7557 83.5454 83.3697Z" fill="black"/>
<path fill-rule="evenodd" clip-rule="evenodd" d="M83.5454 79.5261C83.5454 79.1402 83.8583 78.8273 84.2442 78.8273L87.0396 78.8273C87.4256 78.8273 87.7384 79.1402 87.7384 79.5261C87.7384 79.9121 87.4256 80.2249 87.0396 80.2249L84.2442 80.2249C83.8583 80.2249 83.5454 79.9121 83.5454 79.5261Z" fill="black"/>
<path fill-rule="evenodd" clip-rule="evenodd" d="M45.3859 2.96573L43.1815 7.66218H51.0735L48.679 2.96891L48.6777 2.96636C48.2647 2.1403 47.8808 1.73087 47.5839 1.54455C47.3165 1.37677 47.0907 1.36926 46.8694 1.43917C46.6174 1.51877 46.3376 1.71366 46.0587 2.01129C45.7888 2.29937 45.5559 2.64553 45.3859 2.96573ZM49.9265 2.33867C49.4547 1.39575 48.9257 0.736442 48.3268 0.360652C47.6978 -0.0340368 47.0443 -0.0818592 46.4483 0.106417C45.8831 0.284998 45.4078 0.661799 45.0387 1.05572C44.6645 1.45513 44.3597 1.91466 44.1419 2.32835L44.1345 2.34246L40.9814 9.05985H53.3557L49.9265 2.33867Z" fill="black"/>
</svg>
