<svg width="129" height="106" viewBox="0 0 129 106" fill="none" xmlns="http://www.w3.org/2000/svg">
<path d="M96.4597 30.7434H47.524V100.971H96.4597V30.7434Z" fill="#FADEB9"/>
<path d="M23.9977 62.5046L11.5285 76.0324L40.2311 71.3271H62.111L51.0534 64.622H47.5244V56.1523L42.7014 57.4463V68.151H39.1724V58.3874L23.9977 62.5046Z" fill="#B75355"/>
<path fill-rule="evenodd" clip-rule="evenodd" d="M48.053 55.4622V64.0925H51.2006L64.0041 71.8564H40.2735L10.0972 76.8033L23.7111 62.0335L39.701 57.6952V67.6215H42.1713V57.0402L48.053 55.4622ZM43.23 57.8523V68.6802H38.6423V59.0794L24.2828 62.9754L12.9583 75.2614L40.1873 70.7977H60.2164L50.9047 65.1512H46.9943V56.8423L43.23 57.8523Z" fill="black"/>
<path d="M14.5866 56.6228L15.9982 52.7408L17.2922 56.6228V73.6797H14.5866V56.6228Z" fill="#FADEB9"/>
<path d="M39.76 51.3293L41.1716 47.4474L42.4656 51.3293V68.3862H39.76V51.3293Z" fill="#FADEB9"/>
<path d="M109.988 61.4973L111.4 58.2697L112.694 61.4973V75.6794H109.988V61.4973Z" fill="#FADEB9"/>
<path d="M103.459 54.758L104.879 51.7295L106.182 54.758V68.0651H103.459V54.758Z" fill="#FADEB9"/>
<path d="M48.936 12.7454V30.2729V32.7432L96.46 31.3316V23.2148H95.2837V5.92268L93.8721 1.68787L91.8723 6.62848V13.5689H87.9904V17.3332L83.1674 16.6273V13.5689L77.8739 14.157V16.6273H73.5214V13.5689H70.6982V6.62848L69.169 2.8642L67.9926 6.62848L67.4045 17.3332L62.6991 19.3329V15.3334L58.5819 17.3332V20.6269L54.3471 22.3914V19.3329L51.7592 20.6269V12.7454L50.3476 8.51062L48.936 12.7454Z" fill="#FADEB9"/>
<path d="M0.705933 101.206H127.75V104.97H0.705933V101.206Z" fill="#FADEB9"/>
<path d="M115.869 71.2094H41.8777V100.971H115.869V71.2094Z" fill="#FADEB9"/>
<path d="M115.869 84.0315H117.516V100.971H115.869V84.0315Z" fill="#FADEB9"/>
<path d="M94.8374 83.9469V100.736H106.182V82.5856L103.005 78.0479L100.283 76.6866L97.1062 78.9555L94.8374 83.9469Z" fill="#8D7E8A"/>
<path d="M96.1987 69.8802V58.9897L105.274 69.8802H96.1987Z" fill="#B75355"/>
<path d="M48.1122 71.5623L29.879 72.8562L11.4105 76.2676V100.971H48.1122V71.5623Z" fill="#FADEB9"/>
<path d="M34.9401 78.5018L34.0326 80.7706L33.5788 101.19H36.7552V77.5942L34.9401 78.5018Z" fill="#8D7E8A"/>
<path d="M28.7818 79.7933L27.7446 81.8876L27.226 100.736H30.8562V78.9556L28.7818 79.7933Z" fill="#8D7E8A"/>
<path fill-rule="evenodd" clip-rule="evenodd" d="M101.394 80.0268C100.605 78.9513 99.7321 78.0883 99.1849 77.6342L100.086 76.548C100.719 77.0727 101.672 78.0194 102.532 79.1923C103.387 80.3585 104.191 81.8056 104.449 83.3254L103.057 83.5613C102.851 82.3484 102.187 81.1087 101.394 80.0268Z" fill="black"/>
<path fill-rule="evenodd" clip-rule="evenodd" d="M0 101.206C0 100.816 0.315998 100.5 0.705802 100.5H127.75C128.14 100.5 128.456 100.816 128.456 101.206C128.456 101.596 128.14 101.912 127.75 101.912H0.705802C0.315998 101.912 0 101.596 0 101.206Z" fill="black"/>
<path fill-rule="evenodd" clip-rule="evenodd" d="M11.1833 75.8665C11.1243 75.4812 11.3889 75.121 11.7742 75.0621L39.2166 70.8646C39.602 70.8056 39.9621 71.0702 40.021 71.4556C40.08 71.8409 39.8154 72.201 39.4301 72.26L11.9877 76.4575C11.6023 76.5164 11.2422 76.2518 11.1833 75.8665Z" fill="black"/>
<path fill-rule="evenodd" clip-rule="evenodd" d="M22.4929 62.5907C22.3909 62.2145 22.6131 61.8268 22.9894 61.7248L39.1052 57.3532C39.4814 57.2512 39.8691 57.4734 39.9711 57.8496C40.0732 58.2258 39.8509 58.6135 39.4747 58.7156L23.3589 63.0871C22.9827 63.1892 22.595 62.9669 22.4929 62.5907Z" fill="black"/>
<path fill-rule="evenodd" clip-rule="evenodd" d="M23.6303 61.7306C23.9278 61.9825 23.9646 62.4279 23.7127 62.7253L18.184 69.2527C17.932 69.5501 17.4867 69.587 17.1892 69.3351C16.8918 69.0832 16.8549 68.6378 17.1068 68.3404L22.6356 61.813C22.8875 61.5155 23.3329 61.4787 23.6303 61.7306Z" fill="black"/>
<path fill-rule="evenodd" clip-rule="evenodd" d="M14.8945 71.5872C15.2056 71.822 15.2674 72.2646 15.0325 72.5757L12.6798 75.6917C12.445 76.0028 12.0024 76.0646 11.6913 75.8297C11.3802 75.5948 11.3184 75.1522 11.5533 74.8411L13.9059 71.7252C14.1408 71.4141 14.5834 71.3523 14.8945 71.5872Z" fill="black"/>
<path fill-rule="evenodd" clip-rule="evenodd" d="M42.0156 57.1646C41.9218 56.7862 42.1525 56.4035 42.5309 56.3097L47.3539 55.1143C47.7322 55.0205 48.115 55.2512 48.2088 55.6295C48.3025 56.0079 48.0718 56.3906 47.6935 56.4844L42.8705 57.6798C42.4921 57.7736 42.1094 57.5429 42.0156 57.1646Z" fill="black"/>
<path fill-rule="evenodd" clip-rule="evenodd" d="M11.4105 101.912C11.0207 101.912 10.7047 101.596 10.7047 101.206L10.7047 73.4445C10.7047 73.0547 11.0207 72.7387 11.4105 72.7387C11.8003 72.7387 12.1163 73.0547 12.1163 73.4445L12.1163 101.206C12.1163 101.596 11.8003 101.912 11.4105 101.912Z" fill="black"/>
<path fill-rule="evenodd" clip-rule="evenodd" d="M14.4686 101.912C14.0788 101.912 13.7628 101.596 13.7628 101.206L13.7628 78.3851C13.7628 77.9953 14.0788 77.6793 14.4686 77.6793C14.8584 77.6793 15.1744 77.9953 15.1744 78.3851L15.1744 101.206C15.1744 101.596 14.8584 101.912 14.4686 101.912Z" fill="black"/>
<path fill-rule="evenodd" clip-rule="evenodd" d="M17.5275 101.677C17.1377 101.677 16.8217 101.361 16.8217 100.971L16.8217 78.1498C16.8217 77.76 17.1377 77.444 17.5275 77.444C17.9173 77.444 18.2333 77.76 18.2333 78.1498L18.2333 100.971C18.2333 101.361 17.9173 101.677 17.5275 101.677Z" fill="black"/>
<path fill-rule="evenodd" clip-rule="evenodd" d="M14.4686 74.3855C14.0788 74.3855 13.7628 74.0695 13.7628 73.6797L13.7628 56.3875C13.7628 55.9977 14.0788 55.6817 14.4686 55.6817C14.8584 55.6817 15.1744 55.9977 15.1744 56.3875L15.1744 73.6797C15.1744 74.0695 14.8584 74.3855 14.4686 74.3855Z" fill="black"/>
<path fill-rule="evenodd" clip-rule="evenodd" d="M17.5275 74.3855C17.1377 74.3855 16.8217 74.0695 16.8217 73.6797L16.8217 56.3875C16.8217 55.9977 17.1377 55.6817 17.5275 55.6817C17.9173 55.6817 18.2333 55.9977 18.2333 56.3875L18.2333 73.6797C18.2333 74.0695 17.9173 74.3855 17.5275 74.3855Z" fill="black"/>
<path fill-rule="evenodd" clip-rule="evenodd" d="M18.2331 73.6797C18.2331 74.0695 17.9171 74.3855 17.5273 74.3855H14.4688C14.079 74.3855 13.763 74.0695 13.763 73.6797C13.763 73.2899 14.079 72.9739 14.4688 72.9739H17.5273C17.9171 72.9739 18.2331 73.2899 18.2331 73.6797Z" fill="black"/>
<path fill-rule="evenodd" clip-rule="evenodd" d="M18.2331 56.3876C18.2331 56.7774 17.9171 57.0934 17.5273 57.0934H14.4688C14.079 57.0934 13.763 56.7774 13.763 56.3876C13.763 55.9978 14.079 55.6818 14.4688 55.6818H17.5273C17.9171 55.6818 18.2331 55.9978 18.2331 56.3876Z" fill="black"/>
<path fill-rule="evenodd" clip-rule="evenodd" d="M16.202 50.6537C16.5751 50.7666 16.786 51.1606 16.6731 51.5337L15.1439 56.5869C15.031 56.96 14.637 57.1709 14.2639 57.058C13.8908 56.9451 13.6799 56.5511 13.7928 56.178L15.322 51.1248C15.4349 50.7517 15.8289 50.5408 16.202 50.6537Z" fill="black"/>
<path fill-rule="evenodd" clip-rule="evenodd" d="M15.8156 50.6243C16.1921 50.5234 16.5792 50.7469 16.6801 51.1234L18.0465 56.223C18.1474 56.5995 17.9239 56.9865 17.5474 57.0874C17.1709 57.1883 16.7839 56.9649 16.683 56.5884L15.3165 51.4888C15.2157 51.1122 15.4391 50.7252 15.8156 50.6243Z" fill="black"/>
<path fill-rule="evenodd" clip-rule="evenodd" d="M39.6429 68.8799C39.2531 68.8799 38.9371 68.5639 38.9371 68.1741L38.9371 50.8819C38.9371 50.4921 39.2531 50.1761 39.6429 50.1761C40.0327 50.1761 40.3487 50.4921 40.3487 50.8819L40.3487 68.1741C40.3487 68.5639 40.0327 68.8799 39.6429 68.8799Z" fill="black"/>
<path fill-rule="evenodd" clip-rule="evenodd" d="M42.7014 68.8799C42.3116 68.8799 41.9956 68.5639 41.9956 68.1741L41.9956 50.8819C41.9956 50.4921 42.3116 50.1761 42.7014 50.1761C43.0912 50.1761 43.4072 50.4921 43.4072 50.8819L43.4072 68.1741C43.4072 68.5639 43.0912 68.8799 42.7014 68.8799Z" fill="black"/>
<path fill-rule="evenodd" clip-rule="evenodd" d="M43.407 68.1741C43.407 68.5639 43.091 68.8799 42.7012 68.8799H39.6427C39.2529 68.8799 38.9369 68.5639 38.9369 68.1741C38.9369 67.7843 39.2529 67.4683 39.6427 67.4683H42.7012C43.091 67.4683 43.407 67.7843 43.407 68.1741Z" fill="black"/>
<path fill-rule="evenodd" clip-rule="evenodd" d="M51.7587 64.8572C51.7587 65.247 51.4427 65.563 51.0529 65.563H47.5239C47.1341 65.563 46.8181 65.247 46.8181 64.8572C46.8181 64.4674 47.1341 64.1514 47.5239 64.1514H51.0529C51.4427 64.1514 51.7587 64.4674 51.7587 64.8572Z" fill="black"/>
<path fill-rule="evenodd" clip-rule="evenodd" d="M43.407 50.882C43.407 51.2718 43.091 51.5878 42.7012 51.5878H39.6427C39.2529 51.5878 38.9369 51.2718 38.9369 50.882C38.9369 50.4922 39.2529 50.1762 39.6427 50.1762H42.7012C43.091 50.1762 43.407 50.4922 43.407 50.882Z" fill="black"/>
<path fill-rule="evenodd" clip-rule="evenodd" d="M41.3763 45.1482C41.7494 45.2611 41.9603 45.6551 41.8474 46.0282L40.3182 51.0814C40.2053 51.4545 39.8113 51.6654 39.4382 51.5525C39.0651 51.4396 38.8542 51.0456 38.9671 50.6725L40.4964 45.6193C40.6093 45.2462 41.0032 45.0353 41.3763 45.1482Z" fill="black"/>
<path fill-rule="evenodd" clip-rule="evenodd" d="M40.9891 45.1187C41.3656 45.0178 41.7526 45.2413 41.8535 45.6178L43.2199 50.7174C43.3208 51.0939 43.0974 51.4809 42.7209 51.5818C42.3443 51.6827 41.9573 51.4593 41.8564 51.0827L40.49 45.9831C40.3891 45.6066 40.6126 45.2196 40.9891 45.1187Z" fill="black"/>
<path fill-rule="evenodd" clip-rule="evenodd" d="M48.701 30.5314C48.3112 30.5314 47.9952 30.2154 47.9952 29.8256L47.9952 12.5334C47.9952 12.1436 48.3112 11.8276 48.701 11.8276C49.0908 11.8276 49.4068 12.1436 49.4068 12.5334L49.4068 29.8256C49.4068 30.2154 49.0908 30.5314 48.701 30.5314Z" fill="black"/>
<path fill-rule="evenodd" clip-rule="evenodd" d="M51.759 30.5314C51.3692 30.5314 51.0532 30.2154 51.0532 29.8256L51.0532 12.5334C51.0532 12.1436 51.3692 11.8276 51.759 11.8276C52.1488 11.8276 52.4648 12.1436 52.4648 12.5334L52.4648 29.8256C52.4648 30.2154 52.1488 30.5314 51.759 30.5314Z" fill="black"/>
<path fill-rule="evenodd" clip-rule="evenodd" d="M52.4646 29.8256C52.4646 30.2154 52.1486 30.5314 51.7588 30.5314H48.7003C48.3105 30.5314 47.9945 30.2154 47.9945 29.8256C47.9945 29.4358 48.3105 29.1198 48.7003 29.1198H51.7588C52.1486 29.1198 52.4646 29.4358 52.4646 29.8256Z" fill="black"/>
<path fill-rule="evenodd" clip-rule="evenodd" d="M52.4646 12.5333C52.4646 12.9231 52.1486 13.2391 51.7588 13.2391H48.7003C48.3105 13.2391 47.9945 12.9231 47.9945 12.5333C47.9945 12.1435 48.3105 11.8275 48.7003 11.8275H51.7588C52.1486 11.8275 52.4646 12.1435 52.4646 12.5333Z" fill="black"/>
<path fill-rule="evenodd" clip-rule="evenodd" d="M50.4344 6.79959C50.8075 6.9125 51.0185 7.30648 50.9055 7.67957L49.3763 12.7327C49.2634 13.1058 48.8694 13.3168 48.4963 13.2039C48.1232 13.0909 47.9123 12.697 48.0252 12.3239L49.5545 7.2707C49.6674 6.8976 50.0613 6.68668 50.4344 6.79959Z" fill="black"/>
<path fill-rule="evenodd" clip-rule="evenodd" d="M50.0471 6.7702C50.4237 6.66931 50.8107 6.89276 50.9116 7.26928L52.278 12.3689C52.3789 12.7454 52.1554 13.1324 51.7789 13.2333C51.4024 13.3342 51.0154 13.1107 50.9145 12.7342L49.5481 7.63463C49.4472 7.25811 49.6706 6.87109 50.0471 6.7702Z" fill="black"/>
<path fill-rule="evenodd" clip-rule="evenodd" d="M67.4043 23.9438C67.0145 23.9438 66.6985 23.6278 66.6985 23.238L66.6985 5.94589C66.6985 5.55608 67.0145 5.24009 67.4043 5.24009C67.7941 5.24009 68.1101 5.55608 68.1101 5.94589L68.1101 23.238C68.1101 23.6278 67.7941 23.9438 67.4043 23.9438Z" fill="black"/>
<path fill-rule="evenodd" clip-rule="evenodd" d="M70.4623 23.9438C70.0725 23.9438 69.7565 23.6278 69.7565 23.238L69.7565 5.94589C69.7565 5.55608 70.0725 5.24009 70.4623 5.24009C70.8521 5.24009 71.1681 5.55608 71.1681 5.94589L71.1681 23.238C71.1681 23.6278 70.8521 23.9438 70.4623 23.9438Z" fill="black"/>
<path fill-rule="evenodd" clip-rule="evenodd" d="M71.1683 23.238C71.1683 23.6278 70.8523 23.9438 70.4625 23.9438H67.4041C67.0143 23.9438 66.6983 23.6278 66.6983 23.238C66.6983 22.8482 67.0143 22.5322 67.4041 22.5322H70.4625C70.8523 22.5322 71.1683 22.8482 71.1683 23.238Z" fill="black"/>
<path fill-rule="evenodd" clip-rule="evenodd" d="M71.1683 5.94593C71.1683 6.33573 70.8523 6.65173 70.4625 6.65173L67.4041 6.65173C67.0143 6.65173 66.6983 6.33573 66.6983 5.94593C66.6983 5.55613 67.0143 5.24013 67.4041 5.24013H70.4625C70.8523 5.24013 71.1683 5.55613 71.1683 5.94593Z" fill="black"/>
<path fill-rule="evenodd" clip-rule="evenodd" d="M69.1377 0.212066C69.5108 0.324974 69.7217 0.718956 69.6088 1.09205L68.0796 6.14522C67.9667 6.51832 67.5727 6.72924 67.1996 6.61633C66.8265 6.50342 66.6156 6.10944 66.7285 5.73635L68.2577 0.683174C68.3706 0.31008 68.7646 0.0991581 69.1377 0.212066Z" fill="black"/>
<path fill-rule="evenodd" clip-rule="evenodd" d="M68.7504 0.182675C69.1269 0.0817865 69.5139 0.305231 69.6148 0.681753L70.9812 5.78135C71.0821 6.15788 70.8587 6.54489 70.4822 6.64578C70.1056 6.74667 69.7186 6.52323 69.6177 6.1467L68.2513 1.0471C68.1504 0.670581 68.3739 0.283564 68.7504 0.182675Z" fill="black"/>
<path fill-rule="evenodd" clip-rule="evenodd" d="M92.3424 24.0615C91.9526 24.0615 91.6366 23.7455 91.6366 23.3557L91.6366 6.06356C91.6366 5.67376 91.9526 5.35776 92.3424 5.35776C92.7322 5.35776 93.0482 5.67376 93.0482 6.06356L93.0482 23.3557C93.0482 23.7455 92.7322 24.0615 92.3424 24.0615Z" fill="black"/>
<path fill-rule="evenodd" clip-rule="evenodd" d="M95.4009 24.0615C95.0111 24.0615 94.6951 23.7455 94.6951 23.3557L94.6951 6.06356C94.6951 5.67376 95.0111 5.35776 95.4009 5.35776C95.7907 5.35776 96.1067 5.67376 96.1067 6.06356L96.1067 23.3557C96.1067 23.7455 95.7907 24.0615 95.4009 24.0615Z" fill="black"/>
<path fill-rule="evenodd" clip-rule="evenodd" d="M96.1065 23.3557C96.1065 23.7455 95.7905 24.0615 95.4007 24.0615H92.3422C91.9524 24.0615 91.6364 23.7455 91.6364 23.3557C91.6364 22.9659 91.9524 22.6499 92.3422 22.6499H95.4007C95.7905 22.6499 96.1065 22.9659 96.1065 23.3557Z" fill="black"/>
<path fill-rule="evenodd" clip-rule="evenodd" d="M96.1065 6.06348C96.1065 6.45329 95.7905 6.76929 95.4007 6.76929L92.3422 6.76929C91.9524 6.76929 91.6364 6.45329 91.6364 6.06348C91.6364 5.67368 91.9524 5.35768 92.3422 5.35768H95.4007C95.7905 5.35768 96.1065 5.67368 96.1065 6.06348Z" fill="black"/>
<path fill-rule="evenodd" clip-rule="evenodd" d="M94.0759 0.329742C94.449 0.44265 94.6599 0.836632 94.547 1.20973L93.0177 6.2629C92.9048 6.63599 92.5109 6.84691 92.1378 6.73401C91.7647 6.6211 91.5537 6.22712 91.6667 5.85402L93.1959 0.80085C93.3088 0.427756 93.7028 0.216834 94.0759 0.329742Z" fill="black"/>
<path fill-rule="evenodd" clip-rule="evenodd" d="M93.6894 0.300229C94.066 0.19934 94.453 0.422785 94.5539 0.799307L95.9203 5.89891C96.0212 6.27543 95.7977 6.66245 95.4212 6.76334C95.0447 6.86422 94.6577 6.64078 94.5568 6.26426L93.1904 1.16466C93.0895 0.788135 93.3129 0.401118 93.6894 0.300229Z" fill="black"/>
<path fill-rule="evenodd" clip-rule="evenodd" d="M55.0524 69.1152C54.6626 69.1152 54.3466 68.7992 54.3466 68.4094L54.3466 51.1173C54.3466 50.7275 54.6626 50.4115 55.0524 50.4115C55.4422 50.4115 55.7582 50.7275 55.7582 51.1173L55.7582 68.4094C55.7582 68.7992 55.4422 69.1152 55.0524 69.1152Z" fill="black"/>
<path fill-rule="evenodd" clip-rule="evenodd" d="M58.1109 69.1152C57.7211 69.1152 57.4051 68.7992 57.4051 68.4094L57.4051 51.1173C57.4051 50.7275 57.7211 50.4115 58.1109 50.4115C58.5007 50.4115 58.8167 50.7275 58.8167 51.1173L58.8167 68.4094C58.8167 68.7992 58.5007 69.1152 58.1109 69.1152Z" fill="black"/>
<path fill-rule="evenodd" clip-rule="evenodd" d="M58.8169 68.4094C58.8169 68.7992 58.5009 69.1152 58.1111 69.1152H55.0526C54.6628 69.1152 54.3468 68.7992 54.3468 68.4094C54.3468 68.0196 54.6628 67.7036 55.0526 67.7036H58.1111C58.5009 67.7036 58.8169 68.0196 58.8169 68.4094Z" fill="black"/>
<path fill-rule="evenodd" clip-rule="evenodd" d="M58.8169 51.1172C58.8169 51.507 58.5009 51.823 58.1111 51.823H55.0526C54.6628 51.823 54.3468 51.507 54.3468 51.1172C54.3468 50.7274 54.6628 50.4114 55.0526 50.4114H58.1111C58.5009 50.4114 58.8169 50.7274 58.8169 51.1172Z" fill="black"/>
<path fill-rule="evenodd" clip-rule="evenodd" d="M56.7863 45.3835C57.1594 45.4964 57.3703 45.8903 57.2574 46.2634L55.7282 51.3166C55.6153 51.6897 55.2213 51.9006 54.8482 51.7877C54.4751 51.6748 54.2642 51.2808 54.3771 50.9077L55.9063 45.8546C56.0192 45.4815 56.4132 45.2705 56.7863 45.3835Z" fill="black"/>
<path fill-rule="evenodd" clip-rule="evenodd" d="M56.399 45.3541C56.7755 45.2532 57.1625 45.4766 57.2634 45.8531L58.6299 50.9527C58.7307 51.3293 58.5073 51.7163 58.1308 51.8172C57.7543 51.9181 57.3672 51.6946 57.2664 51.3181L55.8999 46.2185C55.799 45.842 56.0225 45.455 56.399 45.3541Z" fill="black"/>
<path fill-rule="evenodd" clip-rule="evenodd" d="M102.929 68.8567C102.539 68.8567 102.223 68.5407 102.223 68.1509L102.223 55.2112C102.223 54.8214 102.539 54.5054 102.929 54.5054C103.319 54.5054 103.635 54.8214 103.635 55.2112L103.635 68.1509C103.635 68.5407 103.319 68.8567 102.929 68.8567Z" fill="black"/>
<path fill-rule="evenodd" clip-rule="evenodd" d="M105.988 68.8567C105.598 68.8567 105.282 68.5407 105.282 68.1509L105.282 55.2112C105.282 54.8214 105.598 54.5054 105.988 54.5054C106.378 54.5054 106.694 54.8214 106.694 55.2112L106.694 68.1509C106.694 68.5407 106.378 68.8567 105.988 68.8567Z" fill="black"/>
<path fill-rule="evenodd" clip-rule="evenodd" d="M106.694 55.2345C106.694 55.6243 106.378 55.9403 105.988 55.9403H102.93C102.54 55.9403 102.224 55.6243 102.224 55.2345C102.224 54.8447 102.54 54.5287 102.93 54.5287H105.988C106.378 54.5287 106.694 54.8447 106.694 55.2345Z" fill="black"/>
<path fill-rule="evenodd" clip-rule="evenodd" d="M106.694 68.1509C106.694 68.5407 106.378 68.8567 105.988 68.8567H102.93C102.54 68.8567 102.224 68.5407 102.224 68.1509C102.224 67.7611 102.54 67.4451 102.93 67.4451H105.988C106.378 67.4451 106.694 67.7611 106.694 68.1509Z" fill="black"/>
<path fill-rule="evenodd" clip-rule="evenodd" d="M104.663 49.5006C105.036 49.6135 105.247 50.0075 105.134 50.3806L103.605 55.4338C103.492 55.8069 103.098 56.0178 102.725 55.9049C102.352 55.792 102.141 55.398 102.254 55.0249L103.783 49.9717C103.896 49.5987 104.29 49.3877 104.663 49.5006Z" fill="black"/>
<path fill-rule="evenodd" clip-rule="evenodd" d="M104.276 49.4712C104.653 49.3704 105.04 49.5938 105.141 49.9703L106.507 55.0699C106.608 55.4464 106.385 55.8335 106.008 55.9344C105.632 56.0352 105.245 55.8118 105.144 55.4353L103.777 50.3357C103.676 49.9592 103.9 49.5721 104.276 49.4712Z" fill="black"/>
<path fill-rule="evenodd" clip-rule="evenodd" d="M20.8213 101.088C20.4315 101.088 20.1155 100.772 20.1155 100.383L20.1155 77.5616C20.1155 77.1718 20.4315 76.8558 20.8213 76.8558C21.2111 76.8558 21.5271 77.1718 21.5271 77.5616L21.5271 100.383C21.5271 100.772 21.2111 101.088 20.8213 101.088Z" fill="black"/>
<path fill-rule="evenodd" clip-rule="evenodd" d="M25.644 101.088C25.2542 101.088 24.9382 100.772 24.9382 100.383L24.9382 77.5616C24.9382 77.1718 25.2542 76.8558 25.644 76.8558C26.0338 76.8558 26.3498 77.1718 26.3498 77.5616L26.3498 100.383C26.3498 100.772 26.0338 101.088 25.644 101.088Z" fill="black"/>
<path fill-rule="evenodd" clip-rule="evenodd" d="M30.7023 101.088C30.3125 101.088 29.9965 100.772 29.9965 100.383L29.9965 75.4442C29.9965 75.0544 30.3125 74.7384 30.7023 74.7384C31.0921 74.7384 31.4081 75.0544 31.4081 75.4442L31.4081 100.383C31.4081 100.772 31.0921 101.088 30.7023 101.088Z" fill="black"/>
<path fill-rule="evenodd" clip-rule="evenodd" d="M37.2899 101.677C36.9001 101.677 36.5841 101.361 36.5841 100.971L36.5841 74.3855C36.5841 73.9957 36.9001 73.6797 37.2899 73.6797C37.6797 73.6797 37.9957 73.9957 37.9957 74.3855L37.9957 100.971C37.9957 101.361 37.6797 101.677 37.2899 101.677Z" fill="black"/>
<path fill-rule="evenodd" clip-rule="evenodd" d="M63.1694 71.5623C63.1694 71.9521 62.8534 72.2681 62.4636 72.2681H39.2897C38.8999 72.2681 38.5839 71.9521 38.5839 71.5623C38.5839 71.1725 38.8999 70.8565 39.2897 70.8565H62.4636C62.8534 70.8565 63.1694 71.1725 63.1694 71.5623Z" fill="black"/>
<path fill-rule="evenodd" clip-rule="evenodd" d="M39.2896 67.6804C39.6794 67.6804 39.9954 67.9964 39.9954 68.3862L39.9954 71.5623C39.9954 71.9521 39.6794 72.2681 39.2896 72.2681C38.8998 72.2681 38.5838 71.9521 38.5838 71.5623L38.5838 68.3862C38.5838 67.9964 38.8998 67.6804 39.2896 67.6804Z" fill="black"/>
<path fill-rule="evenodd" clip-rule="evenodd" d="M51.5084 64.3728C51.711 64.0397 52.1452 63.934 52.4782 64.1366L54.9194 65.6216C55.2524 65.8242 55.3581 66.2584 55.1556 66.5914C54.953 66.9245 54.5188 67.0302 54.1857 66.8276L51.7446 65.3426C51.4116 65.14 51.3058 64.7058 51.5084 64.3728Z" fill="black"/>
<path fill-rule="evenodd" clip-rule="evenodd" d="M57.5407 67.9702C57.7705 67.6553 58.212 67.5863 58.5269 67.8161L62.8794 70.9922C63.1943 71.222 63.2632 71.6635 63.0335 71.9784C62.8037 72.2933 62.3622 72.3622 62.0473 72.1325L57.6948 68.9564C57.38 68.7266 57.311 68.285 57.5407 67.9702Z" fill="black"/>
<path fill-rule="evenodd" clip-rule="evenodd" d="M23.6447 58.8579C24.0345 58.8579 24.3505 59.1739 24.3505 59.5637V61.7988C24.3505 62.1886 24.0345 62.5046 23.6447 62.5046C23.2549 62.5046 22.9389 62.1886 22.9389 61.7988V59.5637C22.9389 59.1739 23.2549 58.8579 23.6447 58.8579Z" fill="black"/>
<path fill-rule="evenodd" clip-rule="evenodd" d="M42.7014 101.912C42.3116 101.912 41.9956 101.596 41.9956 101.206L41.9956 71.5624C41.9956 71.1726 42.3116 70.8566 42.7014 70.8566C43.0912 70.8566 43.4072 71.1726 43.4072 71.5624L43.4072 101.206C43.4072 101.596 43.0912 101.912 42.7014 101.912Z" fill="black"/>
<path fill-rule="evenodd" clip-rule="evenodd" d="M66.3461 101.912C65.9563 101.912 65.6403 101.596 65.6403 101.206L65.6403 23.3325C65.6403 22.9427 65.9563 22.6267 66.3461 22.6267C66.7359 22.6267 67.0519 22.9427 67.0519 23.3325L67.0519 101.206C67.0519 101.596 66.7359 101.912 66.3461 101.912Z" fill="black"/>
<path fill-rule="evenodd" clip-rule="evenodd" d="M66.8895 25.0867C67.025 25.4521 66.8387 25.8583 66.4732 25.9939L51.8866 31.405C51.5212 31.5406 51.115 31.3543 50.9794 30.9888C50.8438 30.6233 51.0302 30.2172 51.3957 30.0816L65.9822 24.6704C66.3477 24.5348 66.7539 24.7212 66.8895 25.0867Z" fill="black"/>
<path fill-rule="evenodd" clip-rule="evenodd" d="M66.8863 44.4892C67.0258 44.8531 66.8439 45.2613 66.4799 45.4008L52.3638 50.812C51.9999 50.9515 51.5917 50.7695 51.4522 50.4056C51.3126 50.0416 51.4946 49.6334 51.8586 49.4939L65.9746 44.0827C66.3386 43.9432 66.7468 44.1252 66.8863 44.4892Z" fill="black"/>
<path fill-rule="evenodd" clip-rule="evenodd" d="M55.4892 54.9961C55.608 55.3674 55.4034 55.7646 55.0321 55.8834L52.0913 56.8245C51.72 56.9433 51.3227 56.7387 51.2039 56.3674C51.0851 55.9961 51.2898 55.5989 51.6611 55.4801L54.6019 54.539C54.9732 54.4202 55.3704 54.6249 55.4892 54.9961Z" fill="black"/>
<path fill-rule="evenodd" clip-rule="evenodd" d="M66.8914 50.7359C67.0242 51.1024 66.8347 51.5072 66.4682 51.64L58.3515 54.5808C57.985 54.7136 57.5803 54.5241 57.4475 54.1577C57.3147 53.7912 57.5042 53.3864 57.8707 53.2536L65.9874 50.3128C66.3539 50.18 66.7586 50.3695 66.8914 50.7359Z" fill="black"/>
<path fill-rule="evenodd" clip-rule="evenodd" d="M93.048 25.3323C93.048 25.7221 92.732 26.0381 92.3422 26.0381L71.1681 26.0381C70.7783 26.0381 70.4623 25.7221 70.4623 25.3323C70.4623 24.9425 70.7783 24.6265 71.1681 24.6265L92.3422 24.6265C92.732 24.6265 93.048 24.9425 93.048 25.3323Z" fill="black"/>
<path fill-rule="evenodd" clip-rule="evenodd" d="M97.4009 23.3325C97.4009 23.7223 97.0849 24.0383 96.6951 24.0383H92.5779C92.1881 24.0383 91.8721 23.7223 91.8721 23.3325C91.8721 22.9427 92.1881 22.6267 92.5779 22.6267H96.6951C97.0849 22.6267 97.4009 22.9427 97.4009 23.3325Z" fill="black"/>
<path fill-rule="evenodd" clip-rule="evenodd" d="M71.0509 23.3325C71.0509 23.7223 70.7349 24.0383 70.3451 24.0383H66.2279C65.8381 24.0383 65.5221 23.7223 65.5221 23.3325C65.5221 22.9427 65.8381 22.6267 66.2279 22.6267H70.3451C70.7349 22.6267 71.0509 22.9427 71.0509 23.3325Z" fill="black"/>
<path fill-rule="evenodd" clip-rule="evenodd" d="M70.9335 73.4445C70.9335 73.8343 70.6175 74.1503 70.2277 74.1503H66.9339C66.5441 74.1503 66.2281 73.8343 66.2281 73.4445C66.2281 73.0547 66.5441 72.7387 66.9339 72.7387H70.2277C70.6175 72.7387 70.9335 73.0547 70.9335 73.4445Z" fill="black"/>
<path fill-rule="evenodd" clip-rule="evenodd" d="M93.6369 71.2094C93.6369 71.5992 93.3209 71.9152 92.9311 71.9152H89.6374C89.2476 71.9152 88.9316 71.5992 88.9316 71.2094C88.9316 70.8196 89.2476 70.5036 89.6374 70.5036H92.9311C93.3209 70.5036 93.6369 70.8196 93.6369 71.2094Z" fill="black"/>
<path fill-rule="evenodd" clip-rule="evenodd" d="M116.575 70.8565C116.575 71.2463 116.259 71.5623 115.869 71.5623H111.635C111.245 71.5623 110.929 71.2463 110.929 70.8565C110.929 70.4666 111.245 70.1507 111.635 70.1507H115.869C116.259 70.1507 116.575 70.4666 116.575 70.8565Z" fill="black"/>
<path fill-rule="evenodd" clip-rule="evenodd" d="M114.457 66.2688C114.457 66.6586 114.141 66.9746 113.752 66.9746H111.164C110.774 66.9746 110.458 66.6586 110.458 66.2688C110.458 65.879 110.774 65.563 111.164 65.563H113.752C114.141 65.563 114.457 65.879 114.457 66.2688Z" fill="black"/>
<path fill-rule="evenodd" clip-rule="evenodd" d="M118.222 84.0315C118.222 84.4213 117.906 84.7373 117.517 84.7373H111.635C111.245 84.7373 110.929 84.4213 110.929 84.0315C110.929 83.6417 111.245 83.3257 111.635 83.3257H117.517C117.906 83.3257 118.222 83.6417 118.222 84.0315Z" fill="black"/>
<path fill-rule="evenodd" clip-rule="evenodd" d="M93.6369 66.2688C93.6369 66.6586 93.3209 66.9746 92.9311 66.9746H90.8137C90.4239 66.9746 90.1079 66.6586 90.1079 66.2688C90.1079 65.879 90.4239 65.563 90.8137 65.563H92.9311C93.3209 65.563 93.6369 65.879 93.6369 66.2688Z" fill="black"/>
<path fill-rule="evenodd" clip-rule="evenodd" d="M93.5186 84.0315C93.5186 84.4213 93.2026 84.7373 92.8128 84.7373H89.5191C89.1293 84.7373 88.8133 84.4213 88.8133 84.0315C88.8133 83.6417 89.1293 83.3257 89.5191 83.3257H92.8128C93.2026 83.3257 93.5186 83.6417 93.5186 84.0315Z" fill="black"/>
<path fill-rule="evenodd" clip-rule="evenodd" d="M90.1585 83.8198C90.2754 84.1917 90.0687 84.5879 89.6968 84.7048L86.5546 85.6923C86.1827 85.8092 85.7865 85.6025 85.6697 85.2306C85.5528 84.8588 85.7595 84.4625 86.1314 84.3457L89.2736 83.3581C89.6455 83.2412 90.0417 83.448 90.1585 83.8198Z" fill="black"/>
<path fill-rule="evenodd" clip-rule="evenodd" d="M90.1428 70.8797C90.3249 71.2244 90.1931 71.6514 89.8484 71.8334L88.2016 72.7034C87.8569 72.8854 87.4299 72.7536 87.2478 72.4089C87.0657 72.0643 87.1976 71.6373 87.5422 71.4552L89.1891 70.5853C89.5338 70.4032 89.9608 70.535 90.1428 70.8797Z" fill="black"/>
<path fill-rule="evenodd" clip-rule="evenodd" d="M91.2367 65.8158C91.4869 66.1146 91.4475 66.5598 91.1486 66.81L89.2665 68.3857C88.9676 68.636 88.5224 68.5965 88.2722 68.2976C88.022 67.9987 88.0614 67.5536 88.3603 67.3034L90.2425 65.7276C90.5413 65.4774 90.9865 65.5169 91.2367 65.8158Z" fill="black"/>
<path fill-rule="evenodd" clip-rule="evenodd" d="M111.446 66.1414C111.711 66.427 111.694 66.8736 111.409 67.1388L109.762 68.6681C109.476 68.9333 109.03 68.9168 108.764 68.6311C108.499 68.3455 108.516 67.8989 108.801 67.6337L110.448 66.1044C110.734 65.8392 111.18 65.8557 111.446 66.1414Z" fill="black"/>
<path fill-rule="evenodd" clip-rule="evenodd" d="M111.446 70.3762C111.711 70.6619 111.694 71.1085 111.409 71.3737L109.762 72.9029C109.476 73.1682 109.03 73.1516 108.764 72.866C108.499 72.5803 108.516 72.1338 108.801 71.8685L110.448 70.3393C110.734 70.074 111.18 70.0906 111.446 70.3762Z" fill="black"/>
<path fill-rule="evenodd" clip-rule="evenodd" d="M111.866 84.1929C111.972 84.568 111.754 84.9579 111.379 85.0637L109.216 85.6735C108.84 85.7792 108.45 85.5608 108.345 85.1856C108.239 84.8104 108.457 84.4206 108.833 84.3148L110.996 83.705C111.371 83.5993 111.761 83.8177 111.866 84.1929Z" fill="black"/>
<path fill-rule="evenodd" clip-rule="evenodd" d="M71.1683 79.6791C71.1683 80.0689 70.8523 80.3849 70.4625 80.3849H66.6983C66.3084 80.3849 65.9925 80.0689 65.9925 79.6791C65.9925 79.2893 66.3084 78.9733 66.6983 78.9733H70.4625C70.8523 78.9733 71.1683 79.2893 71.1683 79.6791Z" fill="black"/>
<path fill-rule="evenodd" clip-rule="evenodd" d="M70.9335 85.9136C70.9335 86.3034 70.6175 86.6194 70.2277 86.6194H66.4634C66.0736 86.6194 65.7576 86.3034 65.7576 85.9136C65.7576 85.5238 66.0736 85.2078 66.4634 85.2078H70.2277C70.6175 85.2078 70.9335 85.5238 70.9335 85.9136Z" fill="black"/>
<path fill-rule="evenodd" clip-rule="evenodd" d="M70.6973 92.1482C70.6973 92.538 70.3813 92.854 69.9915 92.854H66.4625C66.0726 92.854 65.7566 92.538 65.7566 92.1482C65.7566 91.7584 66.0726 91.4424 66.4625 91.4424H69.9915C70.3813 91.4424 70.6973 91.7584 70.6973 92.1482Z" fill="black"/>
<path fill-rule="evenodd" clip-rule="evenodd" d="M92.6953 45.2123C92.6953 45.6021 92.3793 45.9181 91.9894 45.9181H70.8154C70.4256 45.9181 70.1096 45.6021 70.1096 45.2123C70.1096 44.8225 70.4256 44.5065 70.8154 44.5065H91.9894C92.3793 44.5065 92.6953 44.8225 92.6953 45.2123Z" fill="black"/>
<path fill-rule="evenodd" clip-rule="evenodd" d="M92.3421 50.8588C92.3421 51.2486 92.0261 51.5646 91.6363 51.5646H70.4622C70.0724 51.5646 69.7564 51.2486 69.7564 50.8588C69.7564 50.469 70.0724 50.153 70.4622 50.153H91.6363C92.0261 50.153 92.3421 50.469 92.3421 50.8588Z" fill="black"/>
<path fill-rule="evenodd" clip-rule="evenodd" d="M88.696 68.7391C88.696 69.1289 88.38 69.4449 87.9902 69.4449H73.9918C73.602 69.4449 73.286 69.1289 73.286 68.7391C73.286 68.3493 73.602 68.0333 73.9918 68.0333H87.9902C88.38 68.0333 88.696 68.3493 88.696 68.7391Z" fill="black"/>
<path fill-rule="evenodd" clip-rule="evenodd" d="M88.696 71.5623C88.696 71.9521 88.38 72.2681 87.9902 72.2681H73.9918C73.602 72.2681 73.286 71.9521 73.286 71.5623C73.286 71.1725 73.602 70.8565 73.9918 70.8565H87.9902C88.38 70.8565 88.696 71.1725 88.696 71.5623Z" fill="black"/>
<path fill-rule="evenodd" clip-rule="evenodd" d="M109.988 73.0916C109.988 73.4814 109.672 73.7974 109.282 73.7974H93.6369C93.2471 73.7974 92.9311 73.4814 92.9311 73.0916C92.9311 72.7018 93.2471 72.3858 93.6369 72.3858H109.282C109.672 72.3858 109.988 72.7018 109.988 73.0916Z" fill="black"/>
<path fill-rule="evenodd" clip-rule="evenodd" d="M109.988 70.6212C109.988 71.011 109.672 71.327 109.282 71.327H93.6369C93.2471 71.327 92.9311 71.011 92.9311 70.6212C92.9311 70.2314 93.2471 69.9154 93.6369 69.9154H109.282C109.672 69.9154 109.988 70.2314 109.988 70.6212Z" fill="black"/>
<path fill-rule="evenodd" clip-rule="evenodd" d="M47.9946 65.4453C47.6048 65.4453 47.2888 65.1293 47.2888 64.7395L47.2888 29.8023C47.2888 29.4125 47.6048 29.0965 47.9946 29.0965C48.3844 29.0965 48.7004 29.4125 48.7004 29.8023L48.7004 64.7395C48.7004 65.1293 48.3844 65.4453 47.9946 65.4453Z" fill="black"/>
<path fill-rule="evenodd" clip-rule="evenodd" d="M51.759 65.4453C51.3692 65.4453 51.0532 65.1293 51.0532 64.7395L51.0532 29.8023C51.0532 29.4125 51.3692 29.0965 51.759 29.0965C52.1488 29.0965 52.4648 29.4125 52.4648 29.8023L52.4648 64.7395C52.4648 65.1293 52.1488 65.4453 51.759 65.4453Z" fill="black"/>
<path fill-rule="evenodd" clip-rule="evenodd" d="M92.3424 61.2104C91.9526 61.2104 91.6366 60.8945 91.6366 60.5046L91.6366 23.3324C91.6366 22.9426 91.9526 22.6266 92.3424 22.6266C92.7322 22.6266 93.0482 22.9426 93.0482 23.3324L93.0482 60.5046C93.0482 60.8945 92.7322 61.2104 92.3424 61.2104Z" fill="black"/>
<path fill-rule="evenodd" clip-rule="evenodd" d="M70.4623 101.912C70.0725 101.912 69.7565 101.596 69.7565 101.206L69.7565 23.3325C69.7565 22.9427 70.0725 22.6267 70.4623 22.6267C70.8521 22.6267 71.1681 22.9427 71.1681 23.3325L71.1681 101.206C71.1681 101.596 70.8521 101.912 70.4623 101.912Z" fill="black"/>
<path fill-rule="evenodd" clip-rule="evenodd" d="M73.9919 101.912C73.6021 101.912 73.2861 101.596 73.2861 101.206L73.2861 68.7392C73.2861 68.3493 73.6021 68.0333 73.9919 68.0333C74.3817 68.0333 74.6977 68.3493 74.6977 68.7392L74.6977 101.206C74.6977 101.596 74.3817 101.912 73.9919 101.912Z" fill="black"/>
<path fill-rule="evenodd" clip-rule="evenodd" d="M95.0478 101.912C94.6579 101.912 94.3419 101.596 94.3419 101.206V83.6786C94.3419 83.2888 94.6579 82.9728 95.0478 82.9728C95.4376 82.9728 95.7536 83.2888 95.7536 83.6786V101.206C95.7536 101.596 95.4376 101.912 95.0478 101.912Z" fill="black"/>
<path fill-rule="evenodd" clip-rule="evenodd" d="M103.753 101.912C103.363 101.912 103.047 101.596 103.047 101.206L103.047 83.3257C103.047 82.9359 103.363 82.6199 103.753 82.6199C104.143 82.6199 104.459 82.9359 104.459 83.3257L104.459 101.206C104.459 101.596 104.143 101.912 103.753 101.912Z" fill="black"/>
<path fill-rule="evenodd" clip-rule="evenodd" d="M87.5198 85.0902C87.13 85.0902 86.814 84.7742 86.814 84.3844L86.814 71.5623C86.814 71.1725 87.13 70.8565 87.5198 70.8565C87.9096 70.8565 88.2256 71.1725 88.2256 71.5623L88.2256 84.3844C88.2256 84.7742 87.9096 85.0902 87.5198 85.0902Z" fill="black"/>
<path fill-rule="evenodd" clip-rule="evenodd" d="M88.8138 101.677C88.424 101.677 88.108 101.361 88.108 100.971L88.108 84.3844C88.108 83.9946 88.424 83.6786 88.8138 83.6786C89.2036 83.6786 89.5196 83.9946 89.5196 84.3844L89.5196 100.971C89.5196 101.361 89.2036 101.677 88.8138 101.677Z" fill="black"/>
<path fill-rule="evenodd" clip-rule="evenodd" d="M89.5192 84.7373C89.1294 84.7373 88.8134 84.4213 88.8134 84.0315L88.8134 71.2094C88.8134 70.8196 89.1294 70.5036 89.5192 70.5036C89.909 70.5036 90.225 70.8196 90.225 71.2094L90.225 84.0315C90.225 84.4213 89.909 84.7373 89.5192 84.7373Z" fill="black"/>
<path fill-rule="evenodd" clip-rule="evenodd" d="M109.282 85.6783C108.892 85.6783 108.576 85.3623 108.576 84.9725L108.576 68.3862C108.576 67.9964 108.892 67.6804 109.282 67.6804C109.671 67.6804 109.987 67.9964 109.987 68.3862L109.987 84.9725C109.987 85.3623 109.671 85.6783 109.282 85.6783Z" fill="black"/>
<path fill-rule="evenodd" clip-rule="evenodd" d="M108.811 101.441C108.422 101.441 108.106 101.125 108.106 100.735L108.106 84.9726C108.106 84.5828 108.422 84.2668 108.811 84.2668C109.201 84.2668 109.517 84.5828 109.517 84.9726L109.517 100.735C109.517 101.125 109.201 101.441 108.811 101.441Z" fill="black"/>
<path fill-rule="evenodd" clip-rule="evenodd" d="M110.929 85.0902C110.539 85.0902 110.223 84.7742 110.223 84.3844L110.223 66.6217C110.223 66.2319 110.539 65.9159 110.929 65.9159C111.319 65.9159 111.635 66.2319 111.635 66.6217L111.635 84.3844C111.635 84.7742 111.319 85.0902 110.929 85.0902Z" fill="black"/>
<path fill-rule="evenodd" clip-rule="evenodd" d="M113.752 71.5623C113.363 71.5623 113.047 71.2463 113.047 70.8565L113.047 66.6216C113.047 66.2318 113.363 65.9158 113.752 65.9158C114.142 65.9158 114.458 66.2318 114.458 66.6216L114.458 70.8565C114.458 71.2463 114.142 71.5623 113.752 71.5623Z" fill="black"/>
<path fill-rule="evenodd" clip-rule="evenodd" d="M115.87 84.7373C115.48 84.7373 115.164 84.4213 115.164 84.0315L115.164 70.8565C115.164 70.4667 115.48 70.1507 115.87 70.1507C116.259 70.1507 116.575 70.4667 116.575 70.8565L116.575 84.0315C116.575 84.4213 116.259 84.7373 115.87 84.7373Z" fill="black"/>
<path fill-rule="evenodd" clip-rule="evenodd" d="M111.635 101.441C111.245 101.441 110.929 101.125 110.929 100.735L110.929 84.0315C110.929 83.6417 111.245 83.3257 111.635 83.3257C112.024 83.3257 112.34 83.6417 112.34 84.0315L112.34 100.735C112.34 101.125 112.024 101.441 111.635 101.441Z" fill="black"/>
<path fill-rule="evenodd" clip-rule="evenodd" d="M117.516 101.441C117.126 101.441 116.81 101.125 116.81 100.735L116.81 84.0315C116.81 83.6417 117.126 83.3257 117.516 83.3257C117.906 83.3257 118.222 83.6417 118.222 84.0315L118.222 100.735C118.222 101.125 117.906 101.441 117.516 101.441Z" fill="black"/>
<path fill-rule="evenodd" clip-rule="evenodd" d="M88.8138 71.9152C88.424 71.9152 88.108 71.5992 88.108 71.2094L88.108 67.798C88.108 67.4082 88.424 67.0922 88.8138 67.0922C89.2036 67.0922 89.5196 67.4082 89.5196 67.798L89.5196 71.2094C89.5196 71.5992 89.2036 71.9152 88.8138 71.9152Z" fill="black"/>
<path fill-rule="evenodd" clip-rule="evenodd" d="M89.5192 67.6804C89.1294 67.6804 88.8134 67.3644 88.8134 66.9746L88.8134 64.0338C88.8134 63.644 89.1294 63.328 89.5192 63.328C89.909 63.328 90.225 63.644 90.225 64.0338L90.225 66.9746C90.225 67.3644 89.909 67.6804 89.5192 67.6804Z" fill="black"/>
<path fill-rule="evenodd" clip-rule="evenodd" d="M109.87 68.0333C109.48 68.0333 109.164 67.7173 109.164 67.3275L109.164 64.0338C109.164 63.644 109.48 63.328 109.87 63.328C110.259 63.328 110.575 63.644 110.575 64.0338L110.575 67.3275C110.575 67.7173 110.259 68.0333 109.87 68.0333Z" fill="black"/>
<path fill-rule="evenodd" clip-rule="evenodd" d="M92.3424 66.9746C91.9526 66.9746 91.6366 66.6586 91.6366 66.2688L91.6366 63.6809C91.6366 63.2911 91.9526 62.9751 92.3424 62.9751C92.7322 62.9751 93.0482 63.2911 93.0482 63.6809L93.0482 66.2688C93.0482 66.6586 92.7322 66.9746 92.3424 66.9746Z" fill="black"/>
<path fill-rule="evenodd" clip-rule="evenodd" d="M112.683 66.9746C112.293 66.9746 111.977 66.6586 111.977 66.2688L111.977 63.6809C111.977 63.2911 112.293 62.9751 112.683 62.9751C113.072 62.9751 113.388 63.2911 113.388 63.6809L113.388 66.2688C113.388 66.6586 113.072 66.9746 112.683 66.9746Z" fill="black"/>
<path fill-rule="evenodd" clip-rule="evenodd" d="M92.4715 64.3748C92.0882 64.4458 91.72 64.1926 91.649 63.8093L90.4727 57.4571C90.4017 57.0738 90.6549 56.7055 91.0382 56.6345C91.4214 56.5636 91.7897 56.8167 91.8607 57.2L93.037 63.5523C93.108 63.9355 92.8548 64.3038 92.4715 64.3748Z" fill="black"/>
<path fill-rule="evenodd" clip-rule="evenodd" d="M112.81 64.3748C112.427 64.4458 112.059 64.1926 111.988 63.8093L110.812 57.4571C110.741 57.0738 110.994 56.7055 111.377 56.6345C111.76 56.5636 112.129 56.8167 112.2 57.2L113.376 63.5523C113.447 63.9355 113.194 64.3038 112.81 64.3748Z" fill="black"/>
<path fill-rule="evenodd" clip-rule="evenodd" d="M89.3521 64.7757C88.9733 64.6834 88.7411 64.3016 88.8334 63.9229L90.4802 57.1616C90.5725 56.7828 90.9543 56.5506 91.333 56.6429C91.7117 56.7351 91.944 57.1169 91.8517 57.4956L90.2049 64.257C90.1126 64.6357 89.7308 64.8679 89.3521 64.7757Z" fill="black"/>
<path fill-rule="evenodd" clip-rule="evenodd" d="M109.702 64.7191C109.323 64.6262 109.092 64.2439 109.185 63.8654L110.831 57.1602C110.924 56.7817 111.307 56.5502 111.685 56.6431C112.064 56.7361 112.295 57.1184 112.202 57.4969L110.555 64.2021C110.463 64.5806 110.08 64.8121 109.702 64.7191Z" fill="black"/>
<path fill-rule="evenodd" clip-rule="evenodd" d="M90.8132 71.5623C90.4234 71.5623 90.1074 71.2463 90.1074 70.8565L90.1074 66.9745C90.1074 66.5847 90.4234 66.2687 90.8132 66.2687C91.203 66.2687 91.519 66.5847 91.519 66.9745L91.519 70.8565C91.519 71.2463 91.203 71.5623 90.8132 71.5623Z" fill="black"/>
<path fill-rule="evenodd" clip-rule="evenodd" d="M95.0478 72.2681C94.6579 72.2681 94.3419 71.9521 94.3419 71.5623L94.3419 68.9743C94.3419 68.5845 94.6579 68.2685 95.0478 68.2685C95.4376 68.2685 95.7536 68.5845 95.7536 68.9743L95.7536 71.5623C95.7536 71.9521 95.4376 72.2681 95.0478 72.2681Z" fill="black"/>
<path fill-rule="evenodd" clip-rule="evenodd" d="M97.6356 72.2681C97.2458 72.2681 96.9298 71.9521 96.9298 71.5623L96.9298 68.9743C96.9298 68.5845 97.2458 68.2685 97.6356 68.2685C98.0254 68.2685 98.3414 68.5845 98.3414 68.9743L98.3414 71.5623C98.3414 71.9521 98.0254 72.2681 97.6356 72.2681Z" fill="black"/>
<path fill-rule="evenodd" clip-rule="evenodd" d="M103.359 66.8285C103.05 67.0659 102.607 67.0078 102.37 66.6987L96.1351 58.582C95.8976 58.2728 95.9557 57.8297 96.2649 57.5923C96.574 57.3548 97.0171 57.4129 97.2546 57.7221L103.489 65.8388C103.727 66.1479 103.668 66.591 103.359 66.8285Z" fill="black"/>
<path fill-rule="evenodd" clip-rule="evenodd" d="M106.722 69.944C106.447 70.2197 106 70.2197 105.724 69.944L104.43 68.6501C104.155 68.3744 104.155 67.9275 104.43 67.6519C104.706 67.3763 105.153 67.3763 105.428 67.6519L106.722 68.9459C106.998 69.2215 106.998 69.6684 106.722 69.944Z" fill="black"/>
<path fill-rule="evenodd" clip-rule="evenodd" d="M99.8708 72.2681C99.481 72.2681 99.165 71.9521 99.165 71.5623L99.165 68.9743C99.165 68.5845 99.481 68.2685 99.8708 68.2685C100.261 68.2685 100.577 68.5845 100.577 68.9743L100.577 71.5623C100.577 71.9521 100.261 72.2681 99.8708 72.2681Z" fill="black"/>
<path fill-rule="evenodd" clip-rule="evenodd" d="M102.106 72.2681C101.716 72.2681 101.4 71.9521 101.4 71.5623L101.4 68.9743C101.4 68.5845 101.716 68.2685 102.106 68.2685C102.496 68.2685 102.812 68.5845 102.812 68.9743L102.812 71.5623C102.812 71.9521 102.496 72.2681 102.106 72.2681Z" fill="black"/>
<path fill-rule="evenodd" clip-rule="evenodd" d="M104.341 72.2681C103.951 72.2681 103.635 71.9521 103.635 71.5623L103.635 68.9743C103.635 68.5845 103.951 68.2685 104.341 68.2685C104.731 68.2685 105.047 68.5845 105.047 68.9743L105.047 71.5623C105.047 71.9521 104.731 72.2681 104.341 72.2681Z" fill="black"/>
<path fill-rule="evenodd" clip-rule="evenodd" d="M106.576 72.2681C106.186 72.2681 105.87 71.9521 105.87 71.5623L105.87 68.9743C105.87 68.5845 106.186 68.2685 106.576 68.2685C106.966 68.2685 107.282 68.5845 107.282 68.9743L107.282 71.5623C107.282 71.9521 106.966 72.2681 106.576 72.2681Z" fill="black"/>
<path fill-rule="evenodd" clip-rule="evenodd" d="M92.9305 101.677C92.5407 101.677 92.2247 101.361 92.2247 100.971L92.2247 66.2688C92.2247 65.879 92.5407 65.563 92.9305 65.563C93.3203 65.563 93.6363 65.879 93.6363 66.2688L93.6363 100.971C93.6363 101.361 93.3203 101.677 92.9305 101.677Z" fill="black"/>
<path fill-rule="evenodd" clip-rule="evenodd" d="M96.4596 70.386C96.0698 70.386 95.7538 70.07 95.7538 69.6802L95.7538 23.3325C95.7538 22.9427 96.0698 22.6267 96.4596 22.6267C96.8494 22.6267 97.1654 22.9427 97.1654 23.3325L97.1654 69.6802C97.1654 70.07 96.8494 70.386 96.4596 70.386Z" fill="black"/>
<path fill-rule="evenodd" clip-rule="evenodd" d="M60.8166 101.677C60.4268 101.677 60.1108 101.361 60.1108 100.971L60.1108 72.1504C60.1108 71.7606 60.4268 71.4446 60.8166 71.4446C61.2064 71.4446 61.5224 71.7606 61.5224 72.1504L61.5224 100.971C61.5224 101.361 61.2064 101.677 60.8166 101.677Z" fill="black"/>
<path fill-rule="evenodd" clip-rule="evenodd" d="M0 104.97C0 104.581 0.315998 104.265 0.705802 104.265H127.75C128.14 104.265 128.456 104.581 128.456 104.97C128.456 105.36 128.14 105.676 127.75 105.676H0.705802C0.315998 105.676 0 105.36 0 104.97Z" fill="black"/>
<path fill-rule="evenodd" clip-rule="evenodd" d="M51.1676 21.1301C50.9547 20.8036 51.0467 20.3663 51.3732 20.1534L54.0788 18.3889C54.4053 18.1759 54.8426 18.268 55.0556 18.5945C55.2685 18.921 55.1764 19.3583 54.8499 19.5713L52.1443 21.3358C51.8178 21.5487 51.3805 21.4566 51.1676 21.1301Z" fill="black"/>
<path fill-rule="evenodd" clip-rule="evenodd" d="M54.3312 23.0326C53.9415 23.024 53.6326 22.701 53.6412 22.3113L53.7126 19.082C53.7212 18.6923 54.0441 18.3834 54.4338 18.392C54.8235 18.4006 55.1325 18.7235 55.1239 19.1132L55.0525 22.3425C55.0439 22.7322 54.7209 23.0412 54.3312 23.0326Z" fill="black"/>
<path fill-rule="evenodd" clip-rule="evenodd" d="M58.5663 21.0328C58.1766 21.0242 57.8676 20.7013 57.8763 20.3116L57.9476 17.0823C57.9563 16.6925 58.2792 16.3836 58.6689 16.3922C59.0586 16.4008 59.3675 16.7237 59.3589 17.1135L59.2875 20.3428C59.2789 20.7325 58.956 21.0414 58.5663 21.0328Z" fill="black"/>
<path fill-rule="evenodd" clip-rule="evenodd" d="M62.8161 20.5093C62.4263 20.5093 62.1103 20.1933 62.1103 19.8035L62.1103 14.7452C62.1103 14.3554 62.4263 14.0394 62.8161 14.0394C63.2059 14.0394 63.5219 14.3554 63.5219 14.7452L63.5219 19.8035C63.5219 20.1933 63.2059 20.5093 62.8161 20.5093Z" fill="black"/>
<path fill-rule="evenodd" clip-rule="evenodd" d="M58.0226 17.4587C57.8269 17.1216 57.9417 16.6897 58.2788 16.494L62.3446 14.1347C62.6818 13.9391 63.1137 14.0538 63.3093 14.391C63.505 14.7281 63.3903 15.16 63.0531 15.3557L58.9873 17.715C58.6501 17.9106 58.2182 17.7959 58.0226 17.4587Z" fill="black"/>
<path fill-rule="evenodd" clip-rule="evenodd" d="M70.4625 13.5688C70.4625 13.179 70.7785 12.863 71.1683 12.863H73.9915C74.3813 12.863 74.6973 13.179 74.6973 13.5688C74.6973 13.9586 74.3813 14.2746 73.9915 14.2746H71.1683C70.7785 14.2746 70.4625 13.9586 70.4625 13.5688Z" fill="black"/>
<path fill-rule="evenodd" clip-rule="evenodd" d="M77.5206 13.5688C77.5206 13.179 77.8366 12.863 78.2264 12.863H83.4023C83.7921 12.863 84.1081 13.179 84.1081 13.5688C84.1081 13.9586 83.7921 14.2746 83.4023 14.2746H78.2264C77.8366 14.2746 77.5206 13.9586 77.5206 13.5688Z" fill="black"/>
<path fill-rule="evenodd" clip-rule="evenodd" d="M87.2842 13.5688C87.2842 13.179 87.6002 12.863 87.99 12.863H91.9895C92.3793 12.863 92.6953 13.179 92.6953 13.5688C92.6953 13.9586 92.3793 14.2746 91.9895 14.2746H87.99C87.6002 14.2746 87.2842 13.9586 87.2842 13.5688Z" fill="black"/>
<path fill-rule="evenodd" clip-rule="evenodd" d="M73.6388 16.8625C73.6388 16.4727 73.9548 16.1567 74.3446 16.1567H77.8736C78.2634 16.1567 78.5794 16.4727 78.5794 16.8625C78.5794 17.2523 78.2634 17.5683 77.8736 17.5683H74.3446C73.9548 17.5683 73.6388 17.2523 73.6388 16.8625Z" fill="black"/>
<path fill-rule="evenodd" clip-rule="evenodd" d="M82.6964 16.8625C82.6964 16.4727 83.0124 16.1567 83.4022 16.1567H86.9312C87.321 16.1567 87.637 16.4727 87.637 16.8625C87.637 17.2523 87.321 17.5683 86.9312 17.5683H83.4022C83.0124 17.5683 82.6964 17.2523 82.6964 16.8625Z" fill="black"/>
<path fill-rule="evenodd" clip-rule="evenodd" d="M73.9912 12.863C74.381 12.863 74.697 13.179 74.697 13.5688L74.697 16.392C74.697 16.7819 74.381 17.0979 73.9912 17.0979C73.6014 17.0979 73.2854 16.7819 73.2854 16.392L73.2854 13.5688C73.2854 13.179 73.6014 12.863 73.9912 12.863Z" fill="black"/>
<path fill-rule="evenodd" clip-rule="evenodd" d="M83.402 12.863C83.7918 12.863 84.1078 13.179 84.1078 13.5688L84.1078 16.392C84.1078 16.7819 83.7918 17.0979 83.402 17.0979C83.0122 17.0979 82.6962 16.7819 82.6962 16.392L82.6962 13.5688C82.6962 13.179 83.0122 12.863 83.402 12.863Z" fill="black"/>
<path fill-rule="evenodd" clip-rule="evenodd" d="M77.8739 12.9807C78.2637 12.9807 78.5797 13.2967 78.5797 13.6865L78.5797 16.5097C78.5797 16.8995 78.2637 17.2155 77.8739 17.2155C77.4841 17.2155 77.1681 16.8995 77.1681 16.5097L77.1681 13.6865C77.1681 13.2967 77.4841 12.9807 77.8739 12.9807Z" fill="black"/>
<path fill-rule="evenodd" clip-rule="evenodd" d="M73.0504 21.9209C73.4402 21.9209 73.7562 22.2369 73.7562 22.6267L73.7562 25.3323C73.7562 25.7221 73.4402 26.0381 73.0504 26.0381C72.6606 26.0381 72.3446 25.7221 72.3446 25.3323L72.3446 22.6267C72.3446 22.2369 72.6606 21.9209 73.0504 21.9209Z" fill="black"/>
<path fill-rule="evenodd" clip-rule="evenodd" d="M75.4035 21.9209C75.7933 21.9209 76.1093 22.2369 76.1093 22.6267L76.1093 25.3323C76.1093 25.7221 75.7933 26.0381 75.4035 26.0381C75.0136 26.0381 74.6976 25.7221 74.6976 25.3323L74.6976 22.6267C74.6976 22.2369 75.0136 21.9209 75.4035 21.9209Z" fill="black"/>
<path fill-rule="evenodd" clip-rule="evenodd" d="M77.7561 21.9209C78.1459 21.9209 78.4619 22.2369 78.4619 22.6267L78.4619 25.3323C78.4619 25.7221 78.1459 26.0381 77.7561 26.0381C77.3662 26.0381 77.0502 25.7221 77.0502 25.3323L77.0502 22.6267C77.0502 22.2369 77.3662 21.9209 77.7561 21.9209Z" fill="black"/>
<path fill-rule="evenodd" clip-rule="evenodd" d="M80.1087 21.9209C80.4985 21.9209 80.8145 22.2369 80.8145 22.6267L80.8145 25.3323C80.8145 25.7221 80.4985 26.0381 80.1087 26.0381C79.7188 26.0381 79.4028 25.7221 79.4028 25.3323L79.4028 22.6267C79.4028 22.2369 79.7188 21.9209 80.1087 21.9209Z" fill="black"/>
<path fill-rule="evenodd" clip-rule="evenodd" d="M82.4613 21.9209C82.8511 21.9209 83.1671 22.2369 83.1671 22.6267L83.1671 25.3323C83.1671 25.7221 82.8511 26.0381 82.4613 26.0381C82.0714 26.0381 81.7554 25.7221 81.7554 25.3323L81.7554 22.6267C81.7554 22.2369 82.0714 21.9209 82.4613 21.9209Z" fill="black"/>
<path fill-rule="evenodd" clip-rule="evenodd" d="M84.8134 21.9209C85.2032 21.9209 85.5192 22.2369 85.5192 22.6267L85.5192 25.3323C85.5192 25.7221 85.2032 26.0381 84.8134 26.0381C84.4236 26.0381 84.1076 25.7221 84.1076 25.3323L84.1076 22.6267C84.1076 22.2369 84.4236 21.9209 84.8134 21.9209Z" fill="black"/>
<path fill-rule="evenodd" clip-rule="evenodd" d="M87.1669 21.9209C87.5567 21.9209 87.8727 22.2369 87.8727 22.6267L87.8727 25.3323C87.8727 25.7221 87.5567 26.0381 87.1669 26.0381C86.7771 26.0381 86.4611 25.7221 86.4611 25.3323L86.4611 22.6267C86.4611 22.2369 86.7771 21.9209 87.1669 21.9209Z" fill="black"/>
<path fill-rule="evenodd" clip-rule="evenodd" d="M89.5186 21.9209C89.9084 21.9209 90.2244 22.2369 90.2244 22.6267L90.2244 25.3323C90.2244 25.7221 89.9084 26.0381 89.5186 26.0381C89.1288 26.0381 88.8128 25.7221 88.8128 25.3323L88.8128 22.6267C88.8128 22.2369 89.1288 21.9209 89.5186 21.9209Z" fill="black"/>
<path fill-rule="evenodd" clip-rule="evenodd" d="M87.637 12.9807C88.0268 12.9807 88.3428 13.2967 88.3428 13.6865L88.3428 16.8626C88.3428 17.2524 88.0268 17.5684 87.637 17.5684C87.2472 17.5684 86.9312 17.2524 86.9312 16.8626L86.9312 13.6865C86.9312 13.2967 87.2472 12.9807 87.637 12.9807Z" fill="black"/>
<path fill-rule="evenodd" clip-rule="evenodd" d="M53.8536 22.9874C53.6579 22.6503 53.7726 22.2184 54.1098 22.0227L58.1756 19.6634C58.5128 19.4678 58.9447 19.5825 59.1403 19.9197C59.336 20.2568 59.2213 20.6887 58.8841 20.8844L54.8183 23.2437C54.4811 23.4393 54.0492 23.3246 53.8536 22.9874Z" fill="black"/>
<path fill-rule="evenodd" clip-rule="evenodd" d="M62.2062 20.1643C62.0105 19.8271 62.1252 19.3952 62.4624 19.1996L66.5282 16.8403C66.8654 16.6447 67.2973 16.7594 67.4929 17.0965C67.6886 17.4337 67.5739 17.8656 67.2367 18.0613L63.1709 20.4205C62.8337 20.6162 62.4018 20.5015 62.2062 20.1643Z" fill="black"/>
<path fill-rule="evenodd" clip-rule="evenodd" d="M81.2857 63.328C83.9493 63.328 86.1087 61.1686 86.1087 58.505C86.1087 55.8413 83.9493 53.682 81.2857 53.682C78.622 53.682 76.4627 55.8413 76.4627 58.505C76.4627 61.1686 78.622 63.328 81.2857 63.328ZM81.2857 64.7396C84.7289 64.7396 87.5203 61.9482 87.5203 58.505C87.5203 55.0617 84.7289 52.2704 81.2857 52.2704C77.8424 52.2704 75.0511 55.0617 75.0511 58.505C75.0511 61.9482 77.8424 64.7396 81.2857 64.7396Z" fill="black"/>
<path d="M85.0492 58.505C85.0492 60.584 83.3639 62.2693 81.2849 62.2693C79.206 62.2693 77.5206 60.584 77.5206 58.505C77.5206 56.426 79.206 54.7407 81.2849 54.7407C83.3639 54.7407 85.0492 56.426 85.0492 58.505Z" fill="#F1F1F2"/>
<path fill-rule="evenodd" clip-rule="evenodd" d="M81.2849 60.8577C82.5843 60.8577 83.6376 59.8043 83.6376 58.505C83.6376 57.2057 82.5843 56.1523 81.2849 56.1523C79.9856 56.1523 78.9322 57.2057 78.9322 58.505C78.9322 59.8043 79.9856 60.8577 81.2849 60.8577ZM81.2849 62.2693C83.3639 62.2693 85.0492 60.584 85.0492 58.505C85.0492 56.426 83.3639 54.7407 81.2849 54.7407C79.206 54.7407 77.5206 56.426 77.5206 58.505C77.5206 60.584 79.206 62.2693 81.2849 62.2693Z" fill="black"/>
<path d="M47.5237 79.9731C47.5237 77.6668 49.3933 75.7971 51.6997 75.7971L-nan -nanL51.6997 75.7971C54.006 75.7971 55.8757 77.6668 55.8757 79.9731V96.0301H47.5237V79.9731Z" fill="#8D7E8A"/>
<path fill-rule="evenodd" clip-rule="evenodd" d="M54.4641 94.6185V79.9731C54.4641 78.4464 53.2264 77.2087 51.6997 77.2087C50.1729 77.2087 48.9353 78.4464 48.9353 79.9731V94.6185H54.4641ZM51.6997 75.7971C49.3933 75.7971 47.5237 77.6668 47.5237 79.9731V96.0301H55.8757V79.9731C55.8757 77.6668 54.006 75.7971 51.6997 75.7971Z" fill="black"/>
<path fill-rule="evenodd" clip-rule="evenodd" d="M55.7589 86.0313C55.7589 86.4211 55.4429 86.7371 55.053 86.7371H48.7008C48.311 86.7371 47.995 86.4211 47.995 86.0313C47.995 85.6415 48.311 85.3255 48.7008 85.3255H55.053C55.4429 85.3255 55.7589 85.6415 55.7589 86.0313Z" fill="black"/>
<path fill-rule="evenodd" clip-rule="evenodd" d="M51.759 96.1477C51.3692 96.1477 51.0532 95.8317 51.0532 95.4419L51.0532 76.6205C51.0532 76.2307 51.3692 75.9147 51.759 75.9147C52.1488 75.9147 52.4648 76.2307 52.4648 76.6205L52.4648 95.4419C52.4648 95.8317 52.1488 96.1477 51.759 96.1477Z" fill="black"/>
<path fill-rule="evenodd" clip-rule="evenodd" d="M37.9042 90.6189C37.9042 91.0087 37.5882 91.3247 37.1984 91.3247H34.911C34.5212 91.3247 34.2052 91.0087 34.2052 90.6189C34.2052 90.2291 34.5212 89.9131 34.911 89.9131H37.1984C37.5882 89.9131 37.9042 90.2291 37.9042 90.6189Z" fill="black"/>
<path fill-rule="evenodd" clip-rule="evenodd" d="M37.2899 100.993C36.9001 100.993 36.5841 100.677 36.5841 100.287L36.5841 78.4015C36.5841 78.0117 36.9001 77.6957 37.2899 77.6957C37.6797 77.6957 37.9957 78.0117 37.9957 78.4015L37.9957 100.287C37.9957 100.677 37.6797 100.993 37.2899 100.993Z" fill="black"/>
<path fill-rule="evenodd" clip-rule="evenodd" d="M33.2899 80.7377C33.2899 78.5288 35.0805 76.7382 37.2894 76.7382V78.1498C35.8601 78.1498 34.7015 79.3084 34.7015 80.7377V100.971H33.2899V80.7377Z" fill="black"/>
<path fill-rule="evenodd" clip-rule="evenodd" d="M31.3166 90.6189C31.3166 91.0087 31.0006 91.3247 30.6108 91.3247H28.3235C27.9337 91.3247 27.6177 91.0087 27.6177 90.6189C27.6177 90.2291 27.9337 89.9131 28.3235 89.9131H30.6108C31.0006 89.9131 31.3166 90.2291 31.3166 90.6189Z" fill="black"/>
<path fill-rule="evenodd" clip-rule="evenodd" d="M30.7023 101.041C30.3125 101.041 29.9965 100.725 29.9965 100.335L29.9965 79.9814C29.9965 79.5915 30.3125 79.2756 30.7023 79.2756C31.0921 79.2756 31.4081 79.5915 31.4081 79.9814L31.4081 100.335C31.4081 100.725 31.0921 101.041 30.7023 101.041Z" fill="black"/>
<path fill-rule="evenodd" clip-rule="evenodd" d="M26.9384 82.1494C26.9384 80.0705 28.6237 78.3851 30.7027 78.3851V79.7967C29.4033 79.7967 28.35 80.8501 28.35 82.1494V100.971H26.9384V82.1494Z" fill="black"/>
<path d="M73.0508 32.2138C73.0508 30.2323 74.6571 28.626 76.6386 28.626L-nan -nanL76.6386 28.626C78.6201 28.626 80.2264 30.2323 80.2264 32.2138V45.5652H73.0508V32.2138Z" fill="#8D7E8A"/>
<path fill-rule="evenodd" clip-rule="evenodd" d="M78.8148 44.1536V32.2138C78.8148 31.0119 77.8405 30.0376 76.6386 30.0376C75.4367 30.0376 74.4624 31.0119 74.4624 32.2138V44.1536H78.8148ZM76.6386 28.626C74.6571 28.626 73.0508 30.2323 73.0508 32.2138V45.5652H80.2264V32.2138C80.2264 30.2323 78.6201 28.626 76.6386 28.626Z" fill="black"/>
<path fill-rule="evenodd" clip-rule="evenodd" d="M80.2339 37.4321C80.2339 37.8219 79.9179 38.1379 79.5281 38.1379H74.0623C73.6725 38.1379 73.3565 37.8219 73.3565 37.4321C73.3565 37.0423 73.6725 36.7263 74.0623 36.7263H79.5281C79.9179 36.7263 80.2339 37.0423 80.2339 37.4321Z" fill="black"/>
<path fill-rule="evenodd" clip-rule="evenodd" d="M76.6976 45.4476C76.3078 45.4476 75.9918 45.1316 75.9918 44.7418L75.9918 29.3318C75.9918 28.942 76.3078 28.626 76.6976 28.626C77.0874 28.626 77.4034 28.942 77.4034 29.3318L77.4034 44.7418C77.4034 45.1316 77.0874 45.4476 76.6976 45.4476Z" fill="black"/>
<path d="M82.4607 32.2138C82.4607 30.2323 84.067 28.626 86.0485 28.626L-nan -nanL86.0485 28.626C88.03 28.626 89.6364 30.2323 89.6364 32.2138V45.5652H82.4607V32.2138Z" fill="#8D7E8A"/>
<path fill-rule="evenodd" clip-rule="evenodd" d="M88.2247 44.1536V32.2138C88.2247 31.0119 87.2504 30.0376 86.0485 30.0376C84.8466 30.0376 83.8723 31.0119 83.8723 32.2138V44.1536H88.2247ZM86.0485 28.626C84.067 28.626 82.4607 30.2323 82.4607 32.2138V45.5652H89.6364V32.2138C89.6364 30.2323 88.03 28.626 86.0485 28.626Z" fill="black"/>
<path fill-rule="evenodd" clip-rule="evenodd" d="M89.6452 37.4321C89.6452 37.8219 89.3292 38.1379 88.9394 38.1379H83.4735C83.0837 38.1379 82.7677 37.8219 82.7677 37.4321C82.7677 37.0423 83.0837 36.7263 83.4735 36.7263H88.9394C89.3292 36.7263 89.6452 37.0423 89.6452 37.4321Z" fill="black"/>
<path fill-rule="evenodd" clip-rule="evenodd" d="M86.108 45.4476C85.7182 45.4476 85.4022 45.1316 85.4022 44.7418L85.4022 29.3318C85.4022 28.942 85.7182 28.626 86.108 28.626C86.4978 28.626 86.8138 28.942 86.8138 29.3318L86.8138 44.7418C86.8138 45.1316 86.4978 45.4476 86.108 45.4476Z" fill="black"/>
<path d="M76.6973 79.2085C76.6973 76.5448 78.8566 74.3855 81.5203 74.3855L-nan -nanL81.5203 74.3855C84.184 74.3855 86.3433 76.5448 86.3433 79.2085V101.206H76.6973V79.2085Z" fill="#8D7E8A"/>
<path fill-rule="evenodd" clip-rule="evenodd" d="M84.9317 99.7944V79.2085C84.9317 77.3244 83.4044 75.7971 81.5203 75.7971C79.6363 75.7971 78.1089 77.3244 78.1089 79.2085V99.7944H84.9317ZM81.5203 74.3855C78.8566 74.3855 76.6973 76.5448 76.6973 79.2085V101.206H86.3433V79.2085C86.3433 76.5448 84.184 74.3855 81.5203 74.3855Z" fill="black"/>
<path fill-rule="evenodd" clip-rule="evenodd" d="M78.9555 81.3715C78.9555 78.0323 81.3934 75.3253 84.4007 75.3253V76.7479C82.101 76.7479 80.2367 78.818 80.2367 81.3715V101.644H78.9555V81.3715Z" fill="black"/>
<path fill-rule="evenodd" clip-rule="evenodd" d="M106.224 101.912C105.834 101.912 105.518 101.596 105.518 101.206V83.6786C105.518 83.2888 105.834 82.9728 106.224 82.9728C106.613 82.9728 106.929 83.2888 106.929 83.6786V101.206C106.929 101.596 106.613 101.912 106.224 101.912Z" fill="black"/>
<path fill-rule="evenodd" clip-rule="evenodd" d="M100.934 75.4747L101.238 75.7073C102.064 76.3399 103.319 77.4709 104.444 78.8391C105.559 80.1944 106.609 81.8583 106.918 83.552L105.529 83.8051C105.285 82.4645 104.415 81.0259 103.354 79.7358C102.438 78.6216 101.426 77.6749 100.686 77.0706C99.0801 77.738 97.9324 78.9134 97.1397 80.1678C96.2851 81.5202 95.8682 82.9272 95.747 83.7781L94.3495 83.579C94.4971 82.5432 94.9788 80.9449 95.9464 79.4137C96.9183 77.8758 98.4051 76.3685 100.573 75.6022L100.934 75.4747Z" fill="black"/>
</svg>
