<svg width="46" height="44" viewBox="0 0 46 44" fill="none" xmlns="http://www.w3.org/2000/svg">
<g clip-path="url(#clip0_47_6284)">
<path d="M0 32.1304C0.203699 31.6164 0.167752 31.0665 0.26361 30.5286C0.922636 26.7155 2.15681 23.1176 4.43345 19.938C5.64366 18.2526 7.34514 17.2844 9.21438 16.5313C12.9648 15.0372 16.8711 14.4754 20.8731 14.9415C27.1998 15.6707 32.5559 18.3243 36.7017 23.2371C36.9054 23.4762 37.0972 23.7272 37.2769 23.9782C37.6483 24.4803 37.6483 24.7074 37.2649 25.2094C36.8575 25.5561 36.3782 25.4843 35.9948 25.0062C35.5634 24.4683 35.1201 23.9424 34.6648 23.4284C33.4545 22.0657 32.0406 20.954 30.5189 19.9739C29.117 19.0774 27.6312 18.3482 26.0615 17.7864C25.1388 17.4517 24.2042 17.1888 23.2576 16.9736C21.4842 16.5791 19.6869 16.352 17.8656 16.3998C14.906 16.4835 12.0542 17.0931 9.32222 18.2885C8.36364 18.7068 7.41704 19.1611 6.66215 19.9141C5.81141 20.7747 5.1404 21.7669 4.57723 22.8188C3.12738 25.4963 2.16879 28.3531 1.77338 31.3773C1.5577 33.0508 1.52175 34.7123 1.9651 36.3618C2.18078 37.1746 2.52826 37.9277 3.21125 38.5254C2.87575 36.4574 3.39099 34.6525 4.68507 33.0508C5.72753 31.8315 7.04559 31.0426 8.62725 30.7199C12.3058 29.9907 16.0443 32.489 16.6075 36.4455C16.7153 37.2224 16.6913 38.0233 16.5116 38.8122C16.4038 39.2426 16.4397 39.2545 16.895 39.2784C18.249 39.3501 19.5311 38.9796 20.8132 38.5732C21.9276 38.2265 23.0419 37.8679 24.2042 37.7125C25.5462 37.5332 26.8883 37.593 28.2183 37.9038C28.5778 37.9875 28.8533 38.1668 28.9852 38.5254C29.0451 38.6927 29.093 38.872 28.9252 39.0154C28.6017 39.5294 28.422 39.6251 27.8229 39.4936C25.6541 39.0154 23.5811 39.386 21.5322 40.0912C19.8307 40.665 18.0933 41.1192 16.26 40.9041C15.7567 40.8443 15.4931 40.9877 15.1816 41.3941C12.4496 44.9921 7.00964 44.8367 4.43345 41.1192C4.32561 40.9758 4.24173 40.8323 4.05001 40.7726C2.18078 40.2825 1.12634 38.9796 0.527221 37.2344C0.311539 36.6128 0.191717 35.9674 0.107841 35.3219C0.0958583 35.2382 0.131805 35.1426 0.0239646 35.0948C0.0239646 34.8796 0.0239646 34.6764 0.0239646 34.4612C0.0958583 34.2819 0.0958583 34.1026 0.0239646 33.9233C0.0239646 33.5887 0.0239646 33.2659 0.0239646 32.9312C0.083876 32.8715 0.083876 32.8117 0.0239646 32.7519C0 32.5487 0 32.3336 0 32.1304Z" fill="black"/>
<path d="M0 33.9233C0.131805 34.1026 0.143787 34.2819 0 34.4612C0 34.2819 0 34.1026 0 33.9233Z" fill="#161616"/>
<path d="M0 32.752C0.107841 32.8117 0.0958583 32.8715 0 32.9313C0 32.8715 0 32.8117 0 32.752Z" fill="#404040"/>
<path d="M26.1573 17.7028C29.9677 19.0894 33.2029 21.3127 35.7551 24.4803C35.863 24.6118 35.9588 24.7433 36.0547 24.8748C36.4501 25.3888 36.6897 25.4485 37.2889 25.2095C37.5884 25.7354 37.888 26.2613 38.1875 26.7873C38.2594 26.9068 38.3912 26.9068 38.4631 26.9905C38.3073 27.1937 38.0797 27.122 37.888 27.1339C36.8575 27.1459 35.827 27.122 34.7965 27.2535C32.0166 27.624 29.9197 29.0345 28.398 31.3534C27.8228 32.238 27.1998 33.0747 26.2532 33.5887C25.3425 34.0907 24.3959 34.4015 23.3295 34.2581C23.1617 34.1864 23.1138 34.019 23.0539 33.8756C22.5986 32.7281 21.8437 31.7957 21.0409 30.8753C19.8187 29.4768 18.3688 28.2934 17.2425 26.8231C16.8351 26.2852 16.4517 25.7354 16.1641 25.1258C15.541 23.8587 15.6608 22.6395 16.4277 21.4681C16.7272 21.0139 17.0867 20.6194 17.4821 20.2608C17.3983 20.1532 17.1946 20.2369 17.1826 20.0456C17.4462 19.7827 17.7817 19.8783 18.0812 19.9022C19.0997 19.9859 20.1063 20.0337 21.1128 20.201C21.7718 20.3086 22.3949 20.1413 22.9461 19.7588C23.6171 19.3045 23.677 18.934 23.2456 18.2646C23.2216 18.1929 23.2216 18.1212 23.2216 18.0375C23.2816 17.8462 23.2336 17.6191 23.4014 17.4637C23.641 17.3322 23.8927 17.3801 24.1443 17.404C24.8033 17.4757 25.4743 17.5833 26.1573 17.7028Z" fill="#ADFBFD"/>
<path d="M23.2697 18.2407C23.8089 18.7308 23.8208 19.1731 23.2697 19.6631C22.4429 20.4162 21.4723 20.4162 20.4418 20.2608C19.3515 20.0935 18.2491 19.9859 17.1347 20.0935C17.0029 20.2608 16.8112 20.213 16.6315 20.2249C15.1936 20.2967 13.7797 20.5357 12.4017 20.99C11.515 21.2888 11.0238 21.9343 10.88 22.8666C10.6283 24.552 10.88 26.1179 12.0063 27.4567C12.7013 28.2934 13.6 28.8911 14.5705 29.3931C15.6609 29.9669 16.7992 30.4211 17.9016 30.9709C18.6086 31.3176 19.2196 31.7599 19.7349 32.3814C20.4538 33.254 21.4364 33.7321 22.5387 33.9712C22.7904 34.031 23.042 34.031 23.2697 34.1625C25.2348 34.2461 26.7805 33.4572 27.8828 31.8435C28.47 30.9829 29.0691 30.1342 29.836 29.4051C31.5374 27.7675 33.6463 27.1339 35.9469 27.0144C36.7857 26.9666 37.6125 26.9905 38.4512 26.9785C40.6679 27.2176 42.3215 28.389 43.6395 30.0864C45.1853 32.0945 45.9162 34.4015 46.0001 36.8998C46.0839 39.0992 44.5981 40.8682 42.4293 41.2747C42.2376 41.3105 42.0819 41.3703 41.9381 41.5376C38.571 45.4703 32.544 44.502 30.5789 39.7207C30.5429 39.6371 30.507 39.5653 30.459 39.4817C30.3392 39.3382 30.2673 39.1828 30.2314 39.0035C29.2488 35.2024 31.7411 31.461 35.4796 30.708C39.1821 29.9549 42.8248 32.4173 43.4718 36.2543C43.6276 37.1627 43.6036 38.0951 43.316 39.1111C44.0829 38.4776 44.4064 37.7365 44.3465 36.8759C44.1788 34.5928 43.5077 32.477 42.01 30.696C41.2551 29.7995 40.3205 29.1421 39.1941 28.7835C38.8586 28.6759 38.5231 28.6161 38.1756 28.6281C37.1691 28.664 36.1746 28.5922 35.1681 28.6998C32.8076 28.9747 31.0222 30.1342 29.7161 32.0826C29.0331 33.1106 28.3022 34.0668 27.2358 34.7482C24.372 36.5651 20.4418 35.9794 18.285 33.3735C17.7458 32.7161 16.955 32.477 16.2361 32.1304C14.954 31.5447 13.6718 30.9709 12.5096 30.1701C11.2634 29.3094 10.2329 28.2575 9.6458 26.859C8.93885 25.1736 8.86695 23.4404 9.37021 21.6832C9.82554 20.476 10.6763 19.6751 11.8985 19.2687C12.7612 18.9818 13.6599 18.8025 14.5585 18.6113C15.613 18.4678 16.6674 18.3363 17.7219 18.3363C18.8122 18.3363 19.9026 18.432 20.981 18.6113C21.4723 18.6949 21.8797 18.6113 22.2751 18.3005C22.5507 18.0973 22.8982 17.906 23.2697 18.2407Z" fill="black"/>
<path d="M9.4421 21.7311C9.04669 23.297 9.02272 24.8628 9.56193 26.4048C10.161 28.1261 11.3832 29.3573 12.893 30.3255C14.0673 31.0905 15.3374 31.6403 16.6075 32.2022C17.3744 32.5488 18.0574 32.9791 18.6445 33.6126C21.6161 36.7683 26.6846 36.338 29.117 32.7759C29.5963 32.0707 30.0756 31.3654 30.6627 30.7558C32.0527 29.2975 33.8141 28.6879 35.7672 28.5684C36.7857 28.4966 37.8162 28.413 38.8107 28.6162C40.608 28.9748 41.8542 30.1342 42.8128 31.6403C43.8193 33.2421 44.3345 34.9992 44.4663 36.8759C44.5382 37.9517 43.999 38.9558 43.1363 39.398C43.5557 37.9636 43.5557 36.5651 43.0524 35.1666C42.0579 32.3815 39.2301 30.5048 36.4022 30.7558C33.191 31.0427 30.7107 33.2779 30.2074 36.3499C30.0277 37.4377 30.1715 38.4896 30.459 39.5415C29.9438 39.3741 29.4286 39.2187 28.9133 39.0514C28.9373 38.4179 28.7575 38.1907 28.1465 38.0473C25.9177 37.5214 23.7609 37.7963 21.6161 38.4896C20.1662 38.9558 18.7164 39.4578 17.1707 39.4458C16.8711 39.4458 16.5835 39.4458 16.248 39.4458C16.6315 38.131 16.6914 36.852 16.308 35.5969C15.5531 33.1465 13.9235 31.5328 11.4312 30.9471C8.9029 30.3613 6.71014 31.1025 4.92478 33.003C4.87685 33.0508 4.81694 33.0986 4.76901 33.1584C4.62522 33.015 4.68513 32.8596 4.7091 32.6922C5.26028 29.3573 6.32671 26.1897 8.10009 23.297C8.37568 22.8547 8.68722 22.4363 9.01074 22.0299C9.11858 21.8506 9.21444 21.6713 9.4421 21.7311Z" fill="#7FA9FE"/>
<path d="M22.4787 0C25.3665 0.0478131 28.362 1.29095 30.8184 3.77723C31.106 4.06411 31.2618 4.38685 31.07 4.78131C30.8304 5.28335 30.2073 5.34311 29.764 4.88889C28.7455 3.84895 27.5952 3.02418 26.2651 2.43847C22.2031 0.645477 17.3264 1.55393 14.187 4.68568C14.1031 4.76936 14.0192 4.85303 13.9354 4.9367C13.5639 5.28335 13.1326 5.2953 12.821 4.97256C12.5095 4.66178 12.5095 4.21951 12.857 3.86091C13.6358 3.03613 14.4985 2.34284 15.4691 1.76908C17.4222 0.597664 19.579 0 22.4787 0Z" fill="black"/>
<path d="M21.8197 4.21948C24.1443 4.24339 26.0974 5.05621 27.727 6.6699C28.1464 7.08827 28.1823 7.55445 27.8348 7.88914C27.4993 8.21188 27.068 8.16406 26.6486 7.75765C23.8687 5.06817 19.8786 5.06816 17.0748 7.7696C16.6554 8.16406 16.224 8.21188 15.8885 7.88914C15.529 7.54249 15.565 7.11217 16.0083 6.68186C17.6259 5.05621 19.5791 4.25534 21.8197 4.21948Z" fill="black"/>
<path d="M21.6639 7.98474C23.0659 7.98474 24.1083 8.40311 24.983 9.23983C25.4024 9.64625 25.4503 10.0646 25.1388 10.4232C24.8273 10.7818 24.3839 10.7579 23.9525 10.3754C22.6465 9.20398 21.0888 9.20398 19.7947 10.3754C19.3873 10.7459 18.9679 10.7699 18.6444 10.4352C18.3089 10.1005 18.3448 9.64625 18.7522 9.26374C19.615 8.42701 20.6454 7.99669 21.6639 7.98474Z" fill="black"/>
<path d="M9.442 21.7311C8.78297 22.3287 8.33963 23.0818 7.89628 23.8348C6.44643 26.2972 5.5837 28.9747 4.97261 31.7479C4.87675 32.1902 4.8408 32.6564 4.76891 33.1106C3.78636 34.3896 3.22319 35.824 3.25914 37.4616C3.27112 37.8919 3.34301 38.3222 3.39094 38.8123C3.01949 38.5493 2.7439 38.2505 2.51624 37.8919C1.84523 36.84 1.5936 35.6447 1.56964 34.4374C1.44981 29.4409 2.92363 24.9226 5.73947 20.8107C6.75797 19.3165 8.27972 18.5395 9.89733 17.906C12.7851 16.7585 15.7686 16.1967 18.884 16.2804C20.3818 16.3282 21.8676 16.4836 23.3175 16.8541C23.3534 17.0693 23.4852 17.2725 23.4014 17.4996C23.3774 17.6789 23.4613 17.8821 23.3175 18.0495C23.1258 17.5713 22.6944 17.5355 22.275 17.5594C21.2805 17.5952 20.286 17.643 19.2914 17.7506C17.8056 17.918 16.3678 18.3005 14.9299 18.671C14.7861 18.7069 14.6303 18.6591 14.4985 18.7547C13.8635 18.9101 13.2284 19.0655 12.5814 19.197C11.0956 19.5436 10.0411 20.3445 9.442 21.7311Z" fill="#9BBBFE"/>
<path d="M11.1316 32.4053C14.7383 33.23 16.248 37.7484 13.8516 40.5813C11.9584 42.8166 8.55539 43.0915 6.54236 41.179C6.05109 40.2227 5.78748 39.2186 5.79946 38.1309C5.83541 35.537 7.88438 33.0268 10.4126 32.465C10.6643 32.4172 10.9039 32.465 11.1316 32.4053Z" fill="#585966"/>
<path d="M11.1315 32.4054C10.5803 32.6086 9.98119 32.6803 9.44199 32.9313C7.56077 33.8159 6.42245 35.2861 6.02703 37.3182C5.78739 38.5733 5.99109 39.7686 6.56624 40.9041C6.61417 40.9878 6.68606 41.0834 6.55425 41.1791C4.76889 39.673 4.27762 37.115 5.37999 34.9992C6.44641 32.9194 8.84287 31.8436 11.1315 32.4054Z" fill="#6D6E7F"/>
<path d="M23.3655 17.5116C23.3056 17.2964 23.1378 17.1052 23.2816 16.8661C24.2641 17.0573 25.2227 17.3442 26.1573 17.7148C26.0495 17.8223 25.9057 17.7865 25.7739 17.7745C24.9711 17.6431 24.1803 17.5235 23.3655 17.5116Z" fill="#D6FBFC"/>
<path d="M23.2697 34.1745C21.8318 34.1266 20.6216 33.5529 19.687 32.501C19.0878 31.8197 18.3809 31.3415 17.5781 30.959C16.3918 30.3972 15.1696 29.9191 14.0313 29.2497C12.5934 28.401 11.4072 27.3372 10.9159 25.6637C10.6283 24.6597 10.6164 23.6317 10.8081 22.6037C10.9639 21.7909 11.4551 21.1932 12.2579 20.9183C13.8396 20.3923 15.4692 20.0935 17.1347 20.0935C17.2905 20.1055 17.4583 20.1174 17.65 20.1294C17.3864 20.5358 17.0149 20.7987 16.7513 21.1454C15.4692 22.8069 15.625 24.1457 16.5955 25.7594C17.1108 26.62 17.7698 27.373 18.4648 28.0783C19.6989 29.3334 20.981 30.5407 22.0475 31.9392C22.5867 32.6205 22.9821 33.3736 23.2697 34.1745Z" fill="#D8FDFE"/>
<path d="M14.4626 18.7786C15.6729 18.2766 16.955 18.0255 18.2371 17.7865C19.5072 17.5474 20.8013 17.5355 22.0954 17.4279C22.4309 17.404 22.7424 17.5116 23.0659 17.5355C23.4374 17.5594 23.2097 17.8821 23.2816 18.0734C23.2816 18.1331 23.2696 18.1929 23.2696 18.2527C22.8742 18.1331 22.5507 18.2168 22.2631 18.5276C22.0115 18.8025 21.664 18.8981 21.3285 18.8384C19.0399 18.4439 16.7513 18.4559 14.4626 18.7786Z" fill="#7FA9FE"/>
<path d="M38.0078 32.4053C40.0208 32.8595 41.5905 34.6047 41.8661 36.6845C42.1417 38.7405 41.0992 40.8204 39.2899 41.8005C37.3847 42.8405 35.12 42.6253 33.5144 41.2626C32.1604 39.0632 32.5199 36.051 34.3532 34.1983C35.18 33.3496 36.1385 32.7639 37.2888 32.4889C37.5405 32.4292 37.7681 32.4292 38.0078 32.4053Z" fill="#585966"/>
<path d="M38.0078 32.4053C37.4926 32.6324 36.9175 32.6682 36.4022 32.9073C34.4132 33.8397 33.2389 35.3458 32.8914 37.5213C32.6877 38.7644 32.9753 39.9119 33.5025 41.0116C33.5385 41.0833 33.6223 41.1551 33.5385 41.2507C31.6932 39.7804 31.154 37.1268 32.2683 34.9872C33.3348 32.9193 35.8031 31.8076 38.0078 32.4053Z" fill="#6E6F7F"/>
<path d="M10.2568 39.5653C10.2568 40.3064 9.8494 40.6172 9.13046 40.4259C7.63268 40.0434 6.59022 38.5851 6.74599 37.0671C6.90176 35.5131 8.20783 34.258 9.75354 34.1983C11.2993 34.1385 12.7371 35.2263 13.0127 36.7204C13.0846 37.079 13.0607 37.4615 13.0367 37.8321C12.9888 38.3461 12.5095 38.5732 11.9583 38.4058C11.5988 38.3819 11.503 38.1189 11.4311 37.844C11.3831 37.6886 11.4071 37.5213 11.3951 37.3539C11.3712 36.5292 10.808 35.9076 10.0291 35.8478C9.33416 35.7881 8.60324 36.3379 8.43549 37.0312C8.26774 37.7364 8.71108 38.5134 9.43002 38.7883C9.62174 38.86 9.83742 38.8959 10.0052 39.0274C10.1849 39.1469 10.3766 39.2784 10.2568 39.5653Z" fill="black"/>
<path d="M10.2569 39.5653C10.185 39.1709 9.8854 39.0274 9.53791 38.9438C8.74708 38.7286 8.25581 38.0712 8.26779 37.3062C8.29176 36.5411 8.83096 35.9196 9.62179 35.7642C10.6283 35.561 11.5629 36.3858 11.515 37.4735C11.491 37.8799 11.5509 38.2146 11.9464 38.4178C11.8745 38.9796 10.9279 39.7446 10.3767 39.6849C10.3287 39.6729 10.2928 39.6012 10.2569 39.5653Z" fill="#CAE2F9"/>
<path d="M39.0024 38.3819C39.4218 39.0394 39.3619 39.3741 38.7268 39.8522C37.6364 40.7009 36.0787 40.7128 34.9284 39.9C33.8141 39.1111 33.3587 37.7006 33.7901 36.3618C34.2215 35.0589 35.4796 34.1385 36.8576 34.1864C37.6724 34.2103 38.4033 34.4971 38.9904 35.0828C39.5536 35.6446 39.5057 36.1228 38.8227 36.4933C38.4392 36.7443 38.1517 36.5292 37.8761 36.2901C37.4327 35.9076 36.9414 35.6925 36.3543 35.9196C35.7432 36.1467 35.3478 36.589 35.2879 37.2344C35.228 37.8201 35.4916 38.2983 35.9829 38.5971C36.534 38.9318 37.1212 38.9079 37.6843 38.5612C37.8161 38.4776 37.924 38.37 38.0558 38.3102C38.3673 38.1668 38.7028 38.119 39.0024 38.3819Z" fill="black"/>
<path d="M39.0023 38.3819C38.5589 38.2026 38.1995 38.2744 37.816 38.5971C37.145 39.1709 36.1385 39.0633 35.5634 38.4178C35.0002 37.7843 35.0362 36.7802 35.6473 36.1945C36.2943 35.5729 37.2529 35.549 37.9119 36.1706C38.1755 36.4216 38.4511 36.6009 38.8226 36.5053C39.0023 36.4814 39.0622 36.577 39.1101 36.7443C39.2779 37.3061 39.1461 37.844 39.0023 38.3819Z" fill="#CAE2F9"/>
</g>
<defs>
<clipPath id="clip0_47_6284">
<rect width="46" height="44" fill="white"/>
</clipPath>
</defs>
</svg>
