<svg width="141" height="94" viewBox="0 0 141 94" fill="none" xmlns="http://www.w3.org/2000/svg">
<g clip-path="url(#clip0_804_28694)">
<path d="M12.3629 53.1428H126.55V86.5714H12.3629V53.1428Z" fill="#AADFF1"/>
<path d="M37.7379 64.2857H18.7066C17.2566 64.2857 15.9879 62.9857 15.9879 61.4999C15.9879 60.0142 17.2566 58.7142 18.7066 58.7142H37.5566C39.0066 58.7142 40.2753 60.0142 40.2753 61.4999C40.4566 62.9857 39.1879 64.2857 37.7379 64.2857Z" fill="#7CC7EF"/>
<path d="M63.6559 64.2857H56.0434C54.5934 64.2857 53.3246 62.9857 53.3246 61.4999C53.3246 60.0142 54.5934 58.7142 56.0434 58.7142H63.6559C65.1059 58.7142 66.3746 60.0142 66.3746 61.4999C66.3746 62.9857 65.1059 64.2857 63.6559 64.2857Z" fill="#C7E9F1"/>
<path d="M98.9996 64.2857H91.3871C89.9371 64.2857 88.6684 62.9857 88.6684 61.4999C88.6684 60.0142 89.9371 58.7142 91.3871 58.7142H98.9996C100.45 58.7142 101.718 60.0142 101.718 61.4999C101.718 62.9857 100.45 64.2857 98.9996 64.2857Z" fill="#7CC7EF"/>
<path d="M93.3816 75.4286H80.3316C78.8816 75.4286 77.6129 74.1286 77.6129 72.6429C77.6129 71.1572 78.8816 69.8572 80.3316 69.8572H93.3816C94.8316 69.8572 96.1004 71.1572 96.1004 72.6429C96.1004 74.1286 94.8316 75.4286 93.3816 75.4286Z" fill="#C7E9F1"/>
<path d="M116.944 86.5714H103.894C102.444 86.5714 101.175 85.2714 101.175 83.7857C101.175 82.3 102.444 81 103.894 81H116.944C118.394 81 119.663 82.3 119.663 83.7857C119.663 85.2714 118.394 86.5714 116.944 86.5714Z" fill="#7CC7EF"/>
<path d="M70.7254 86.5714H57.6754C56.2254 86.5714 54.9566 85.2714 54.9566 83.7857C54.9566 82.3 56.2254 81 57.6754 81H70.7254C72.1754 81 73.4441 82.3 73.4441 83.7857C73.4441 85.2714 72.1754 86.5714 70.7254 86.5714Z" fill="#C7E9F1"/>
<path d="M33.5691 86.5715H20.5191C19.0691 86.5715 17.8004 85.2715 17.8004 83.7857C17.8004 82.3 19.0691 81 20.5191 81H33.5691C35.0191 81 36.2879 82.3 36.2879 83.7857C36.2879 85.2715 35.0191 86.5715 33.5691 86.5715ZM56.2254 75.4286H43.1754C41.7254 75.4286 40.4566 74.1286 40.4566 72.6429C40.4566 71.1572 41.7254 69.8572 43.1754 69.8572H56.2254C57.6754 69.8572 58.9441 71.1572 58.9441 72.6429C58.9441 74.1286 57.6754 75.4286 56.2254 75.4286Z" fill="#7CC7EF"/>
<path d="M126.55 54.0714H12.3629C11.8191 54.0714 11.4566 53.7 11.4566 53.1429C11.4566 52.5857 11.8191 52.2143 12.3629 52.2143H126.55C127.094 52.2143 127.457 52.5857 127.457 53.1429C127.457 53.7 127.094 54.0714 126.55 54.0714ZM17.8004 59.6429H12.3629C11.8191 59.6429 11.4566 59.2714 11.4566 58.7143C11.4566 58.1572 11.8191 57.7857 12.3629 57.7857H17.8004C18.3441 57.7857 18.7066 58.1572 18.7066 58.7143C18.7066 59.2714 18.3441 59.6429 17.8004 59.6429ZM79.4254 59.6429H70.3629C69.8191 59.6429 69.4566 59.2714 69.4566 58.7143C69.4566 58.1572 69.8191 57.7857 70.3629 57.7857H79.4254C79.9691 57.7857 80.3316 58.1572 80.3316 58.7143C80.3316 59.2714 79.9691 59.6429 79.4254 59.6429ZM126.55 59.6429H84.8629C84.3191 59.6429 83.9566 59.2714 83.9566 58.7143C83.9566 58.1572 84.3191 57.7857 84.8629 57.7857H126.55C127.094 57.7857 127.457 58.1572 127.457 58.7143C127.457 59.2714 127.094 59.6429 126.55 59.6429ZM64.9254 59.6429H23.2379C22.6941 59.6429 22.3316 59.2714 22.3316 58.7143C22.3316 58.1572 22.6941 57.7857 23.2379 57.7857H64.9254C65.4691 57.7857 65.8316 58.1572 65.8316 58.7143C65.8316 59.2714 65.4691 59.6429 64.9254 59.6429ZM126.55 81.9286H88.4879C87.9441 81.9286 87.5816 81.5572 87.5816 81C87.5816 80.4429 87.9441 80.0714 88.4879 80.0714H126.55C127.094 80.0714 127.457 80.4429 127.457 81C127.457 81.5572 127.094 81.9286 126.55 81.9286ZM35.9254 81.9286H26.8629C26.3191 81.9286 25.9566 81.5572 25.9566 81C25.9566 80.4429 26.3191 80.0714 26.8629 80.0714H35.9254C36.4691 80.0714 36.8316 80.4429 36.8316 81C36.8316 81.5572 36.4691 81.9286 35.9254 81.9286ZM21.4254 81.9286H12.3629C11.8191 81.9286 11.4566 81.5572 11.4566 81C11.4566 80.4429 11.8191 80.0714 12.3629 80.0714H21.4254C21.9691 80.0714 22.3316 80.4429 22.3316 81C22.3316 81.5572 21.9691 81.9286 21.4254 81.9286ZM83.0504 81.9286H41.3629C40.8191 81.9286 40.4566 81.5572 40.4566 81C40.4566 80.4429 40.8191 80.0714 41.3629 80.0714H83.0504C83.5941 80.0714 83.9566 80.4429 83.9566 81C83.9566 81.5572 83.5941 81.9286 83.0504 81.9286ZM104.8 76.3572H63.1129C62.5691 76.3572 62.2066 75.9857 62.2066 75.4286C62.2066 74.8714 62.5691 74.5 63.1129 74.5H104.8C105.344 74.5 105.707 74.8714 105.707 75.4286C105.707 75.9857 105.344 76.3572 104.8 76.3572ZM108.425 65.2143H35.9254C35.3816 65.2143 35.0191 64.8429 35.0191 64.2857C35.0191 63.7286 35.3816 63.3572 35.9254 63.3572H108.425C108.969 63.3572 109.332 63.7286 109.332 64.2857C109.332 64.8429 108.969 65.2143 108.425 65.2143ZM30.4879 65.2143H12.3629C11.8191 65.2143 11.4566 64.8429 11.4566 64.2857C11.4566 63.7286 11.8191 63.3572 12.3629 63.3572H30.4879C31.0316 63.3572 31.3941 63.7286 31.3941 64.2857C31.3941 64.8429 31.0316 65.2143 30.4879 65.2143ZM126.55 65.2143H113.863C113.319 65.2143 112.957 64.8429 112.957 64.2857C112.957 63.7286 113.319 63.3572 113.863 63.3572H126.55C127.094 63.3572 127.457 63.7286 127.457 64.2857C127.457 64.8429 127.094 65.2143 126.55 65.2143ZM21.4254 70.7857H12.3629C11.8191 70.7857 11.4566 70.4143 11.4566 69.8572C11.4566 69.3 11.8191 68.9286 12.3629 68.9286H21.4254C21.9691 68.9286 22.3316 69.3 22.3316 69.8572C22.3316 70.4143 21.9691 70.7857 21.4254 70.7857ZM122.925 76.3572H110.238C109.694 76.3572 109.332 75.9857 109.332 75.4286C109.332 74.8714 109.694 74.5 110.238 74.5H122.925C123.469 74.5 123.832 74.8714 123.832 75.4286C123.832 75.9857 123.469 76.3572 122.925 76.3572ZM57.6754 76.3572H48.6129C48.0691 76.3572 47.7066 75.9857 47.7066 75.4286C47.7066 74.8714 48.0691 74.5 48.6129 74.5H57.6754C58.2191 74.5 58.5816 74.8714 58.5816 75.4286C58.5816 75.9857 58.2191 76.3572 57.6754 76.3572ZM93.9254 70.7857H77.6129C77.0691 70.7857 76.7066 70.4143 76.7066 69.8572C76.7066 69.3 77.0691 68.9286 77.6129 68.9286H93.9254C94.4691 68.9286 94.8316 69.3 94.8316 69.8572C94.8316 70.4143 94.4691 70.7857 93.9254 70.7857ZM72.1754 70.7857H26.8629C26.3191 70.7857 25.9566 70.4143 25.9566 69.8572C25.9566 69.3 26.3191 68.9286 26.8629 68.9286H72.1754C72.7191 68.9286 73.0816 69.3 73.0816 69.8572C73.0816 70.4143 72.7191 70.7857 72.1754 70.7857ZM126.55 70.7857H99.3628C98.8191 70.7857 98.4566 70.4143 98.4566 69.8572C98.4566 69.3 98.8191 68.9286 99.3628 68.9286H126.369C126.913 68.9286 127.275 69.3 127.275 69.8572C127.275 70.4143 127.094 70.7857 126.55 70.7857ZM43.1754 76.3572H12.3629C11.8191 76.3572 11.4566 75.9857 11.4566 75.4286C11.4566 74.8714 11.8191 74.5 12.3629 74.5H43.1754C43.7191 74.5 44.0816 74.8714 44.0816 75.4286C44.0816 75.9857 43.7191 76.3572 43.1754 76.3572ZM75.8004 87.5H34.1129C33.5691 87.5 33.2066 87.1286 33.2066 86.5714C33.2066 86.0143 33.5691 85.6429 34.1129 85.6429H75.8004C76.3441 85.6429 76.7066 86.0143 76.7066 86.5714C76.7066 87.1286 76.3441 87.5 75.8004 87.5ZM28.6754 87.5H15.9879C15.4441 87.5 15.0816 87.1286 15.0816 86.5714C15.0816 86.0143 15.4441 85.6429 15.9879 85.6429H28.6754C29.2191 85.6429 29.5816 86.0143 29.5816 86.5714C29.5816 87.1286 29.2191 87.5 28.6754 87.5ZM90.3004 87.5H81.2379C80.6941 87.5 80.3316 87.1286 80.3316 86.5714C80.3316 86.0143 80.6941 85.6429 81.2379 85.6429H90.3004C90.8441 85.6429 91.2066 86.0143 91.2066 86.5714C91.2066 87.1286 90.8441 87.5 90.3004 87.5ZM126.55 87.5H95.7379C95.1941 87.5 94.8316 87.1286 94.8316 86.5714C94.8316 86.0143 95.1941 85.6429 95.7379 85.6429H126.55C127.094 85.6429 127.457 86.0143 127.457 86.5714C127.457 87.1286 127.094 87.5 126.55 87.5Z" fill="black"/>
</g>
<path d="M129.491 28.0371C124.018 28.8353 124.818 32.8783 125.902 34.8L115.585 50.6542C132.631 46.8847 130.948 45.5543 131.285 44.9999C131.554 44.5565 136.032 35.7239 138.238 31.3631C141.647 27.4606 139.658 26.7806 138.238 26.9284L129.491 28.0371Z" fill="#D08081"/>
<path fill-rule="evenodd" clip-rule="evenodd" d="M138.411 27.4584L129.596 28.5616C128.3 28.7491 127.437 29.1174 126.87 29.5475C126.312 29.9719 126.009 30.4806 125.869 31.0189C125.577 32.1348 125.971 33.4401 126.475 34.3221L126.673 34.6694L116.938 49.4404C124.41 47.7585 127.835 46.6098 129.41 45.8348C130.254 45.4193 130.471 45.1559 130.53 45.0594C130.554 45.0197 130.563 44.9895 130.576 44.928C130.576 44.9261 130.577 44.9225 130.578 44.9174C130.586 44.8645 130.622 44.6483 130.732 44.4697C130.732 44.4698 130.732 44.4698 130.732 44.4697C130.733 44.469 130.734 44.4659 130.738 44.4593C130.743 44.4517 130.748 44.4415 130.756 44.4283C130.77 44.402 130.789 44.3671 130.813 44.3235C130.86 44.2365 130.923 44.1193 130.999 43.9744C131.152 43.6847 131.359 43.2891 131.607 42.8118C132.103 41.8576 132.763 40.5808 133.484 39.1814C134.926 36.3828 136.612 33.096 137.725 30.9232L137.763 30.849L137.818 30.7863C138.657 29.8387 139.129 29.1242 139.364 28.6011C139.602 28.0712 139.561 27.8216 139.526 27.7338C139.499 27.6648 139.43 27.5793 139.217 27.5135C138.999 27.4464 138.708 27.4286 138.411 27.4584ZM138.902 31.5897C139.752 30.6207 140.303 29.8124 140.608 29.1338C140.916 28.4474 141.011 27.8074 140.794 27.2581C140.571 26.6899 140.084 26.3905 139.626 26.2491C139.173 26.1095 138.678 26.0976 138.261 26.1405L138.254 26.1413L129.411 27.248L129.404 27.2489C127.943 27.4594 126.837 27.8926 126.036 28.501C125.227 29.1157 124.764 29.8832 124.553 30.6911C124.186 32.096 124.588 33.5727 125.098 34.6088L114.002 51.4457L115.616 51.0931C124.216 49.2152 128.169 47.9303 130.021 47.0188C130.946 46.5641 131.443 46.1577 131.7 45.7327C131.833 45.5117 131.881 45.3184 131.908 45.1869C131.916 45.1458 131.922 45.119 131.925 45.103C132.165 44.6808 133.334 42.4222 134.697 39.7772C136.124 37.0087 137.789 33.7632 138.902 31.5897Z" fill="black"/>
<path d="M19.0248 19.2262C24.1146 20.6427 21.1456 24.7593 19.0248 26.6406L45.1434 50.6542C11.3902 43.3948 7.11891 33.5385 9.20245 29.5178C9.73821 25.8881 4.36567 17.8245 1.61243 14.2465L19.0248 19.2262Z" fill="#D08081"/>
<path fill-rule="evenodd" clip-rule="evenodd" d="M0.02948 12.6635L19.3624 18.2012C19.3632 18.2014 19.364 18.2016 19.3648 18.2018C20.7209 18.5802 21.6597 19.1708 22.1846 19.97C22.7189 20.7835 22.7477 21.6948 22.5306 22.5394C22.176 23.9187 21.1306 25.279 20.1586 26.2519L47.5178 51.4456L45.1283 50.9309C28.2342 47.2917 18.6239 42.9844 13.4864 39.0185C8.44296 35.1253 7.53928 31.3842 8.72126 28.9414C8.8012 28.2042 8.60878 27.1814 8.16774 25.9422C7.71362 24.6662 7.02556 23.2405 6.2259 21.7988C4.62713 18.9162 2.61769 16.0323 1.2574 14.2617L0.02948 12.6635ZM3.49236 15.038C4.72691 16.7617 6.17647 18.9558 7.3978 21.1579C8.21659 22.6342 8.94166 24.1298 9.42916 25.4995C9.90965 26.8496 10.1904 28.1606 10.0324 29.2327L10.0163 29.3419L9.96553 29.4401C9.14668 31.0228 9.38477 34.1696 14.3076 37.9697C18.972 41.5704 27.686 45.5949 43.0001 49.0973L18.1883 26.2493L18.7356 25.7631C19.7647 24.8488 20.9136 23.4583 21.2343 22.2108C21.3879 21.6133 21.3372 21.1117 21.064 20.6957C20.7816 20.2658 20.1854 19.8104 19.0008 19.4802L18.9985 19.4796L3.49236 15.038Z" fill="black"/>
<path d="M43.5605 33.7227V10.4388L45.8 11.1287V34.7576L43.5605 33.7227Z" fill="#FEDAB4"/>
<path d="M66.6277 39.5868L66.1798 14.4057L68.8672 14.9231L69.3151 40.1042L66.6277 39.5868Z" fill="#FEDAB4"/>
<path d="M82.3044 41.6565V17.8552L84.7679 18.2001V42.1739L82.3044 41.6565Z" fill="#FEDAB4"/>
<path d="M98.4291 43.3812V20.7872L100.893 21.4771V43.3812H98.4291Z" fill="#FEDAB4"/>
<path d="M110.411 42.6913V23.5468L113.21 24.0642V42.6913H110.411Z" fill="#FEDAB4"/>
<path fill-rule="evenodd" clip-rule="evenodd" d="M42.769 9.49768L46.3244 10.5885V36.1521L42.769 34.5159V9.49768ZM44.1023 11.9926V32.9941L44.9911 33.4032V12.2653L44.1023 11.9926ZM65.1914 13.5028L69.1963 14.2708L69.6776 41.2239L65.6727 40.4559L65.1914 13.5028ZM66.5667 15.8278L66.9742 38.6442L68.3023 38.8989L67.8948 16.0825L66.5667 15.8278ZM81.2116 16.9543L84.9892 17.4812V43.2783L81.2116 42.4881V16.9543ZM82.5449 19.194V40.7027L83.6559 40.9351V19.349L82.5449 19.194ZM97.2109 19.7464L100.988 20.8V44.3225H97.2109V19.7464ZM98.5441 22.1971V42.2772H99.6552V22.507L98.5441 22.1971ZM109.099 22.5461L113.21 23.3029V43.6407H109.099V22.5461ZM110.432 24.8515V41.5954H111.877V25.1174L110.432 24.8515Z" fill="black"/>
<path d="M57.6153 53.1769C32.6318 51.2275 21.4785 35.3812 19.0248 27.7017C52.2171 42.2336 104.087 39.3686 125.874 36.1196C124.803 41.4362 118.587 48.2296 115.613 50.9617C101.336 54.6833 70.9993 53.9892 57.6153 53.1769Z" fill="#F8A69B"/>
<path fill-rule="evenodd" clip-rule="evenodd" d="M18.2333 26.1185L19.5888 26.7074C36.0171 33.8444 57.115 36.7245 76.858 37.4099C96.5902 38.0949 114.903 36.5858 125.723 34.9848L126.665 34.8453L126.476 35.7784C125.91 38.5639 124.014 41.659 121.949 44.3504C119.869 47.0602 117.551 49.4442 116.044 50.8185L115.921 50.9301L115.761 50.9716C108.562 52.8338 97.3742 53.5817 86.3677 53.7698C75.3426 53.9582 64.4308 53.5852 57.7461 53.1826L57.7404 53.1823L57.7347 53.1818C32.5403 51.2311 21.2079 35.3561 18.6862 27.5248L18.2333 26.1185ZM20.4848 28.5383C23.7 36.2995 34.7192 50.0576 57.8322 51.8492C64.4881 52.2499 75.362 52.6215 86.3449 52.4339C97.2659 52.2472 108.228 51.508 115.265 49.7193C116.724 48.375 118.918 46.1042 120.888 43.5371C122.675 41.2084 124.229 38.6992 124.924 36.4504C113.925 38.0071 96.038 39.4127 76.8116 38.7452C57.567 38.0771 36.9183 35.3305 20.4848 28.5383Z" fill="black"/>
<path d="M49.1008 42.3438C49.1008 44.748 47.1519 46.6969 44.7477 46.6969C42.3436 46.6969 40.3946 44.748 40.3946 42.3438C40.3946 39.9397 42.3436 37.9907 44.7477 37.9907C47.1519 37.9907 49.1008 39.9397 49.1008 42.3438Z" fill="#C36970"/>
<path fill-rule="evenodd" clip-rule="evenodd" d="M44.7477 45.391C46.4306 45.391 47.7949 44.0267 47.7949 42.3438C47.7949 40.6609 46.4306 39.2967 44.7477 39.2967C43.0648 39.2967 41.7006 40.6609 41.7006 42.3438C41.7006 44.0267 43.0648 45.391 44.7477 45.391ZM44.7477 46.6969C47.1519 46.6969 49.1008 44.748 49.1008 42.3438C49.1008 39.9397 47.1519 37.9907 44.7477 37.9907C42.3436 37.9907 40.3946 39.9397 40.3946 42.3438C40.3946 44.748 42.3436 46.6969 44.7477 46.6969Z" fill="black"/>
<path d="M82.3426 45.5098C82.3426 47.914 80.3937 49.8629 77.9895 49.8629C75.5854 49.8629 73.6364 47.914 73.6364 45.5098C73.6364 43.1057 75.5854 41.1567 77.9895 41.1567C80.3937 41.1567 82.3426 43.1057 82.3426 45.5098Z" fill="#C36970"/>
<path fill-rule="evenodd" clip-rule="evenodd" d="M77.9895 48.557C79.6725 48.557 81.0367 47.1927 81.0367 45.5098C81.0367 43.8269 79.6725 42.4627 77.9895 42.4627C76.3066 42.4627 74.9424 43.8269 74.9424 45.5098C74.9424 47.1927 76.3066 48.557 77.9895 48.557ZM77.9895 49.8629C80.3937 49.8629 82.3426 47.914 82.3426 45.5098C82.3426 43.1057 80.3937 41.1567 77.9895 41.1567C75.5854 41.1567 73.6364 43.1057 73.6364 45.5098C73.6364 47.914 75.5854 49.8629 77.9895 49.8629Z" fill="black"/>
<path d="M115.584 44.3224C115.584 46.9452 113.636 49.0713 111.231 49.0713C108.827 49.0713 106.878 46.9452 106.878 44.3224C106.878 41.6997 108.827 39.5736 111.231 39.5736C113.636 39.5736 115.584 41.6997 115.584 44.3224Z" fill="#C36970"/>
<path fill-rule="evenodd" clip-rule="evenodd" d="M111.231 47.6466C112.914 47.6466 114.279 46.1583 114.279 44.3224C114.279 42.4865 112.914 40.9983 111.231 40.9983C109.548 40.9983 108.184 42.4865 108.184 44.3224C108.184 46.1583 109.548 47.6466 111.231 47.6466ZM111.231 49.0713C113.636 49.0713 115.584 46.9452 115.584 44.3224C115.584 41.6997 113.636 39.5736 111.231 39.5736C108.827 39.5736 106.878 41.6997 106.878 44.3224C106.878 46.9452 108.827 49.0713 111.231 49.0713Z" fill="black"/>
<path d="M36.0986 0.222519C31.8929 -1.65781 35.1665 8.84068 37.3289 14.325L114.172 24.5101C118.736 24.8682 121.517 21.3762 122.337 19.5854C123.59 16.0038 121.368 17.0485 120.1 18.0185C119.116 19.0034 117.155 19.1004 116.297 19.0258L51.6461 6.60221C46.2772 5.25912 39.044 1.78946 36.0986 0.222519Z" fill="#7B6E79"/>
<path fill-rule="evenodd" clip-rule="evenodd" d="M37.6623 14.0762L113.627 23.9907C117.729 24.2985 120.279 21.216 121.053 19.5785C121.348 18.7418 121.396 18.2794 121.366 18.0599C121.365 18.053 121.365 18.0466 121.364 18.0408C121.26 18.0493 121.071 18.0968 120.795 18.2289C120.492 18.3736 120.169 18.5791 119.886 18.7896C119.261 19.3853 118.393 19.6763 117.638 19.8188C116.855 19.9665 116.092 19.9732 115.612 19.9321L115.577 19.9291L51.2702 7.76079L51.2523 7.75639C45.8469 6.42487 38.6207 3.01067 35.6697 1.4666C35.2318 1.27735 35.0304 1.30872 34.9636 1.33383C34.9188 1.35068 34.8145 1.40949 34.7239 1.69603C34.6319 1.98704 34.5884 2.41838 34.6115 2.99228C34.6341 3.55766 34.7193 4.22103 34.8557 4.95475C35.3795 7.77199 36.6201 11.4273 37.6623 14.0762ZM34.4882 0.105677C35.0342 -0.0994598 35.6404 0.0139462 36.2337 0.275156L36.2546 0.284335L36.2747 0.294898C39.1889 1.82145 46.306 5.17945 51.5581 6.47681L115.76 18.6252C116.136 18.6541 116.756 18.6467 117.387 18.5278C118.05 18.4027 118.627 18.1725 118.978 17.8268L119.009 17.7959L119.044 17.7694C119.384 17.5136 119.796 17.2454 120.212 17.0465C120.6 16.8607 121.102 16.6802 121.578 16.7351C121.839 16.7652 122.114 16.8696 122.333 17.0976C122.547 17.32 122.65 17.6016 122.689 17.8864C122.762 18.4289 122.621 19.1448 122.302 20.0421L122.292 20.071L122.279 20.0988C121.408 21.9714 118.441 25.6813 113.505 25.2998L113.487 25.2984L36.708 15.2776L36.564 14.918C35.4839 12.2205 34.1147 8.26366 33.5435 5.19161C33.4002 4.42058 33.3044 3.69182 33.2785 3.04417C33.2529 2.40503 33.293 1.80246 33.4502 1.30514C33.6088 0.80336 33.9193 0.319451 34.4882 0.105677Z" fill="black"/>
<defs>
<clipPath id="clip0_804_28694">
<rect width="116" height="92.4" fill="white" transform="translate(12 1)"/>
</clipPath>
</defs>
</svg>
