<svg width="131" height="100" viewBox="0 0 131 100" fill="none" xmlns="http://www.w3.org/2000/svg">
<g filter="url(#filter0_i_441_2750)">
<path d="M14.5 69.8838H8.5L22.5 31.8838L27.5 12.3838L24.5 2.88379L39.5 7.88379H89L106.5 2.88379L103.5 12.3838V17.8838L123 69.8838H116V89.8838L123 90.8838L123.5 97.3838H8.5V89.8838H14.5V69.8838Z" fill="#F2B894"/>
</g>
<rect x="27" y="12.3838" width="76" height="5" fill="#FED4AF"/>
<rect x="11" y="89.3838" width="25" height="8" fill="#FED4AF"/>
<rect x="97" y="89.3838" width="25" height="8" fill="#FED4AF"/>
<path d="M24.5 26.8838L21.5 34.3838H108.5L105 26.8838H24.5Z" fill="#FED4AF"/>
<path d="M20.4138 44.3838L17 52.3838H116L112.017 44.3838H20.4138Z" fill="#FED4AF"/>
<path d="M11.4483 61.3838L10 69.3838H52L50.3103 61.3838H11.4483Z" fill="#FED4AF"/>
<path d="M79.4828 61.3838L78 69.3838H121L119.27 61.3838H79.4828Z" fill="#FED4AF"/>
<g filter="url(#filter1_i_441_2750)">
<path d="M58 86.8838C58 83.2939 60.9101 80.3838 64.5 80.3838C68.0899 80.3838 71 83.2939 71 86.8838V98.3838H58V86.8838Z" fill="#8D7E8A"/>
</g>
<g filter="url(#filter2_i_441_2750)">
<path d="M61 15.8838C61 13.3985 63.0147 11.3838 65.5 11.3838C67.9853 11.3838 70 13.3985 70 15.8838V17.3838H61V15.8838Z" fill="#F1F1F2"/>
</g>
<path fill-rule="evenodd" clip-rule="evenodd" d="M7.62988 70.2223C7.62988 69.5824 8.14867 69.0636 8.78862 69.0636H50.503C51.143 69.0636 51.6617 69.5824 51.6617 70.2223C51.6617 70.8623 51.143 71.3811 50.503 71.3811H8.78862C8.14867 71.3811 7.62988 70.8623 7.62988 70.2223Z" fill="black"/>
<path fill-rule="evenodd" clip-rule="evenodd" d="M6.66406 90.307C6.66406 89.6671 7.18284 89.1483 7.8228 89.1483L34.8599 89.1483C35.4999 89.1483 36.0186 89.6671 36.0186 90.3071C36.0186 90.947 35.4999 91.4658 34.8599 91.4658L7.8228 91.4658C7.18284 91.4658 6.66406 90.947 6.66406 90.307Z" fill="black"/>
<path fill-rule="evenodd" clip-rule="evenodd" d="M124.083 90.307C124.083 89.6671 123.564 89.1483 122.924 89.1483L95.8867 89.1483C95.2467 89.1483 94.7279 89.6671 94.7279 90.3071C94.7279 90.947 95.2467 91.4658 95.8867 91.4658L122.924 91.4658C123.564 91.4658 124.083 90.947 124.083 90.307Z" fill="black"/>
<path fill-rule="evenodd" clip-rule="evenodd" d="M7.82271 89.1483C8.46266 89.1483 8.98145 89.6671 8.98145 90.307L8.98144 98.2251C8.98144 98.865 8.46266 99.3838 7.82271 99.3838C7.18276 99.3838 6.66398 98.865 6.66398 98.2251L6.66398 90.307C6.66398 89.6671 7.18276 89.1483 7.82271 89.1483Z" fill="black"/>
<path fill-rule="evenodd" clip-rule="evenodd" d="M122.924 89.1483C122.284 89.1483 121.765 89.6671 121.765 90.307L121.765 98.2251C121.765 98.865 122.284 99.3838 122.924 99.3838C123.564 99.3838 124.083 98.865 124.083 98.2251L124.083 90.307C124.083 89.6671 123.564 89.1483 122.924 89.1483Z" fill="black"/>
<path fill-rule="evenodd" clip-rule="evenodd" d="M14.1962 69.0636C14.8362 69.0636 15.355 69.5824 15.355 70.2223L15.355 90.307C15.355 90.947 14.8362 91.4658 14.1962 91.4658C13.5563 91.4658 13.0375 90.947 13.0375 90.307L13.0375 70.2223C13.0375 69.5824 13.5563 69.0636 14.1962 69.0636Z" fill="black"/>
<path fill-rule="evenodd" clip-rule="evenodd" d="M34.8598 76.2092C35.4998 76.2092 36.0186 76.728 36.0186 77.368V97.4527C36.0186 98.0926 35.4998 98.6114 34.8598 98.6114C34.2199 98.6114 33.7011 98.0926 33.7011 97.4527V77.368C33.7011 76.728 34.2199 76.2092 34.8598 76.2092Z" fill="black"/>
<path fill-rule="evenodd" clip-rule="evenodd" d="M51.2753 64.4287C51.9153 64.4287 52.4341 64.9475 52.4341 65.5874L52.4341 97.4526C52.4341 98.0926 51.9153 98.6113 51.2754 98.6113C50.6354 98.6113 50.1166 98.0926 50.1166 97.4526L50.1166 65.5874C50.1166 64.9475 50.6354 64.4287 51.2753 64.4287Z" fill="black"/>
<path fill-rule="evenodd" clip-rule="evenodd" d="M78.892 65.2012C79.532 65.2012 80.0508 65.72 80.0508 66.3599L80.0508 98.2251C80.0508 98.865 79.532 99.3838 78.892 99.3838C78.2521 99.3838 77.7333 98.865 77.7333 98.2251L77.7333 66.3599C77.7333 65.72 78.2521 65.2012 78.892 65.2012Z" fill="black"/>
<path fill-rule="evenodd" clip-rule="evenodd" d="M95.8867 76.2092C96.5266 76.2092 97.0454 76.728 97.0454 77.368V97.4527C97.0454 98.0926 96.5266 98.6114 95.8867 98.6114C95.2467 98.6114 94.7279 98.0926 94.7279 97.4527V77.368C94.7279 76.728 95.2467 76.2092 95.8867 76.2092Z" fill="black"/>
<path fill-rule="evenodd" clip-rule="evenodd" d="M85.8442 79.106C86.4841 79.106 87.0029 79.6247 87.0029 80.2647L87.0029 97.4526C87.0029 98.0925 86.4841 98.6113 85.8442 98.6113C85.2042 98.6113 84.6855 98.0925 84.6855 97.4526L84.6855 80.2647C84.6855 79.6247 85.2042 79.106 85.8442 79.106Z" fill="black"/>
<path fill-rule="evenodd" clip-rule="evenodd" d="M44.5161 79.106C45.156 79.106 45.6748 79.6247 45.6748 80.2647L45.6748 97.4526C45.6748 98.0925 45.156 98.6113 44.5161 98.6113C43.8761 98.6113 43.3573 98.0925 43.3573 97.4526L43.3573 80.2647C43.3573 79.6247 43.8761 79.106 44.5161 79.106Z" fill="black"/>
<path fill-rule="evenodd" clip-rule="evenodd" d="M33.7517 76.9273C33.5649 76.3152 33.9098 75.6676 34.5219 75.4809L50.9619 70.4659C51.574 70.2792 52.2215 70.624 52.4083 71.2361C52.595 71.8482 52.2501 72.4958 51.638 72.6825L35.1981 77.6975C34.586 77.8842 33.9384 77.5394 33.7517 76.9273Z" fill="black"/>
<path fill-rule="evenodd" clip-rule="evenodd" d="M97.0829 76.9065C96.9036 77.5208 96.2603 77.8735 95.646 77.6942L79.1462 72.8796C78.5318 72.7004 78.1792 72.057 78.3584 71.4427C78.5377 70.8284 79.181 70.4757 79.7953 70.6549L96.2951 75.4695C96.9094 75.6488 97.2621 76.2921 97.0829 76.9065Z" fill="black"/>
<path fill-rule="evenodd" clip-rule="evenodd" d="M116.551 69.0636C117.191 69.0636 117.709 69.5824 117.709 70.2223V90.307C117.709 90.947 117.191 91.4658 116.551 91.4658C115.911 91.4658 115.392 90.947 115.392 90.307V70.2223C115.392 69.5824 115.911 69.0636 116.551 69.0636Z" fill="black"/>
<path fill-rule="evenodd" clip-rule="evenodd" d="M10.7197 61.725C10.7197 61.0851 11.2385 60.5663 11.8785 60.5663L50.5029 60.5663C51.1428 60.5663 51.6616 61.0851 51.6616 61.725C51.6616 62.365 51.1428 62.8838 50.5029 62.8838L11.8785 62.8838C11.2385 62.8838 10.7197 62.365 10.7197 61.725Z" fill="black"/>
<path fill-rule="evenodd" clip-rule="evenodd" d="M13.0371 53.0345C13.0371 52.3945 13.5559 51.8757 14.1958 51.8757H52.8203C53.4602 51.8757 53.979 52.3945 53.979 53.0345C53.979 53.6744 53.4602 54.1932 52.8203 54.1932H14.1958C13.5559 54.1932 13.0371 53.6744 13.0371 53.0345Z" fill="black"/>
<path fill-rule="evenodd" clip-rule="evenodd" d="M7.40993 69.7942C6.81193 69.5663 6.51188 68.8968 6.73976 68.2988L25.6657 18.6325C25.8936 18.0345 26.5631 17.7344 27.1611 17.9623C27.7591 18.1902 28.0592 18.8597 27.8313 19.4577L8.90532 69.124C8.67744 69.722 8.00793 70.0221 7.40993 69.7942Z" fill="black"/>
<path fill-rule="evenodd" clip-rule="evenodd" d="M51.8509 64.2187C51.2202 64.11 50.7971 63.5106 50.9059 62.88L58.6307 18.0756C58.7395 17.445 59.3389 17.0219 59.9695 17.1306C60.6002 17.2393 61.0233 17.8387 60.9145 18.4694L53.1896 63.2737C53.0809 63.9044 52.4815 64.3275 51.8509 64.2187Z" fill="black"/>
<path fill-rule="evenodd" clip-rule="evenodd" d="M78.1274 62.866C77.4972 62.9772 76.8962 62.5565 76.785 61.9263L69.2532 19.2463C69.142 18.6161 69.5627 18.015 70.1929 17.9038C70.8231 17.7926 71.4242 18.2133 71.5354 18.8435L79.0672 61.5235C79.1784 62.1538 78.7576 62.7548 78.1274 62.866Z" fill="black"/>
<path fill-rule="evenodd" clip-rule="evenodd" d="M122.564 69.7942C123.162 69.5663 123.462 68.8968 123.234 68.2988L104.308 18.6325C104.08 18.0345 103.411 17.7344 102.813 17.9623C102.215 18.1902 101.914 18.8597 102.142 19.4577L121.068 69.124C121.296 69.722 121.966 70.0221 122.564 69.7942Z" fill="black"/>
<path fill-rule="evenodd" clip-rule="evenodd" d="M76.7676 53.0345C76.7676 52.3945 77.2864 51.8757 77.9263 51.8757H116.551C117.191 51.8757 117.709 52.3945 117.709 53.0345C117.709 53.6744 117.191 54.1932 116.551 54.1932H77.9263C77.2864 54.1932 76.7676 53.6744 76.7676 53.0345Z" fill="black"/>
<path fill-rule="evenodd" clip-rule="evenodd" d="M16.3203 43.9578C16.3203 43.3179 16.8391 42.7991 17.479 42.7991H111.916C112.556 42.7991 113.075 43.3179 113.075 43.9578C113.075 44.5978 112.556 45.1165 111.916 45.1165H17.479C16.8391 45.1165 16.3203 44.5978 16.3203 43.9578Z" fill="black"/>
<path fill-rule="evenodd" clip-rule="evenodd" d="M19.7969 34.881C19.7969 34.2411 20.3157 33.7223 20.9556 33.7223H108.44C109.08 33.7223 109.599 34.2411 109.599 34.881C109.599 35.521 109.08 36.0398 108.44 36.0398H20.9556C20.3157 36.0398 19.7969 35.521 19.7969 34.881Z" fill="black"/>
<path fill-rule="evenodd" clip-rule="evenodd" d="M22.6934 26.3836C22.6934 25.7436 23.2121 25.2249 23.8521 25.2249L105.35 25.2249C105.99 25.2249 106.508 25.7436 106.508 26.3836C106.508 27.0235 105.99 27.5423 105.35 27.5423L23.8521 27.5423C23.2121 27.5423 22.6934 27.0235 22.6934 26.3836Z" fill="black"/>
<path fill-rule="evenodd" clip-rule="evenodd" d="M25.5903 18.2725C25.5903 17.6326 26.1091 17.1138 26.7491 17.1138H102.646C103.286 17.1138 103.805 17.6326 103.805 18.2725C103.805 18.9125 103.286 19.4312 102.646 19.4312H26.7491C26.1091 19.4312 25.5903 18.9125 25.5903 18.2725Z" fill="black"/>
<path fill-rule="evenodd" clip-rule="evenodd" d="M26.1694 12.4788C26.1694 11.8389 26.6882 11.3201 27.3282 11.3201L62.0902 11.3201C62.7301 11.3201 63.2489 11.8389 63.2489 12.4788C63.2489 13.1188 62.7301 13.6375 62.0902 13.6375L27.3282 13.6375C26.6882 13.6375 26.1694 13.1188 26.1694 12.4788Z" fill="black"/>
<path fill-rule="evenodd" clip-rule="evenodd" d="M79.2778 70.2223C79.2778 69.5824 79.7966 69.0636 80.4366 69.0636H122.151C122.791 69.0636 123.31 69.5824 123.31 70.2223C123.31 70.8623 122.791 71.3811 122.151 71.3811H80.4366C79.7966 71.3811 79.2778 70.8623 79.2778 70.2223Z" fill="black"/>
<path fill-rule="evenodd" clip-rule="evenodd" d="M30.8042 80.2647C30.8042 79.6247 31.323 79.106 31.9629 79.106H51.2752C51.9151 79.106 52.4339 79.6247 52.4339 80.2647C52.4339 80.9046 51.9151 81.4234 51.2752 81.4234H31.9629C31.323 81.4234 30.8042 80.9046 30.8042 80.2647Z" fill="black"/>
<path fill-rule="evenodd" clip-rule="evenodd" d="M77.7329 80.2647C77.7329 79.6247 78.2517 79.106 78.8916 79.106L99.1695 79.106C99.8094 79.106 100.328 79.6247 100.328 80.2647C100.328 80.9046 99.8094 81.4234 99.1695 81.4234L78.8916 81.4234C78.2517 81.4234 77.7329 80.9046 77.7329 80.2647Z" fill="black"/>
<path fill-rule="evenodd" clip-rule="evenodd" d="M65.3405 54.9104C54.9599 58.2367 52.531 63.7967 52.4323 65.6491L50.1182 65.5258C50.2864 62.3681 53.7159 56.2018 64.6333 52.7035L65.3405 54.9104Z" fill="black"/>
<path fill-rule="evenodd" clip-rule="evenodd" d="M64.2501 54.9114C75.0858 58.352 77.631 64.1072 77.7347 66.0359L80.0488 65.9115C79.8743 62.6659 76.3137 56.3104 64.9514 52.7026L64.2501 54.9114Z" fill="black"/>
<path fill-rule="evenodd" clip-rule="evenodd" d="M50.8892 66.3599C50.8892 65.72 51.4079 65.2012 52.0479 65.2012L78.8919 65.2012C79.5318 65.2012 80.0506 65.72 80.0506 66.3599C80.0506 66.9999 79.5318 67.5186 78.8919 67.5186L52.0479 67.5186C51.4079 67.5186 50.8892 66.9999 50.8892 66.3599Z" fill="black"/>
<path fill-rule="evenodd" clip-rule="evenodd" d="M8.74233e-08 98.3838C3.91407e-08 97.8315 0.428629 97.3838 0.957369 97.3838L130.043 97.3838C130.571 97.3838 131 97.8315 131 98.3838C131 98.9361 130.571 99.3838 130.043 99.3838L0.957369 99.3838C0.428629 99.3838 1.35706e-07 98.9361 8.74233e-08 98.3838Z" fill="black"/>
<path fill-rule="evenodd" clip-rule="evenodd" d="M78.3125 61.725C78.3125 61.0851 78.8313 60.5663 79.4712 60.5663L118.675 60.5663C119.315 60.5663 119.834 61.0851 119.834 61.725C119.834 62.365 119.315 62.8838 118.675 62.8838L79.4712 62.8838C78.8313 62.8838 78.3125 62.365 78.3125 61.725Z" fill="black"/>
<path fill-rule="evenodd" clip-rule="evenodd" d="M66.9185 12.4788C66.9185 11.8389 67.4372 11.3201 68.0772 11.3201L103.225 11.3201C103.865 11.3201 104.384 11.8389 104.384 12.4788C104.384 13.1188 103.865 13.6375 103.225 13.6375L68.0772 13.6375C67.4372 13.6375 66.9185 13.1188 66.9185 12.4788Z" fill="black"/>
<path fill-rule="evenodd" clip-rule="evenodd" d="M38.3364 6.87822C38.3364 6.23826 38.8552 5.71948 39.4952 5.71948L90.0932 5.71949C90.7331 5.71949 91.2519 6.23827 91.2519 6.87822C91.2519 7.51817 90.7331 8.03695 90.0932 8.03695L39.4952 8.03695C38.8552 8.03695 38.3364 7.51817 38.3364 6.87822Z" fill="black"/>
<path fill-rule="evenodd" clip-rule="evenodd" d="M34.4737 6.68518C33.8337 6.68518 33.3149 6.1664 33.3149 5.52645L33.3149 1.27776C33.3149 0.637809 33.8337 0.119026 34.4737 0.119026C35.1136 0.119026 35.6324 0.637809 35.6324 1.27776L35.6324 5.52645C35.6324 6.1664 35.1136 6.68518 34.4737 6.68518Z" fill="black"/>
<path fill-rule="evenodd" clip-rule="evenodd" d="M26.7491 19.4313C26.1091 19.4313 25.5903 18.9125 25.5903 18.2725L25.5903 14.0239C25.5903 13.3839 26.1091 12.8651 26.7491 12.8651C27.389 12.8651 27.9078 13.3839 27.9078 14.0239L27.9078 18.2725C27.9078 18.9125 27.389 19.4313 26.7491 19.4313Z" fill="black"/>
<path fill-rule="evenodd" clip-rule="evenodd" d="M62.0895 14.2839C62.0883 14.2884 62.0879 14.2897 62.0881 14.2876L59.7749 14.1464C59.8214 13.3849 60.2875 12.5077 61.1289 11.7289C61.9954 10.9269 63.3187 10.1663 65.2543 9.62488L65.8786 11.8567C64.2145 12.3222 63.2428 12.9301 62.7031 13.4297C62.1916 13.903 62.101 14.2408 62.0895 14.2839Z" fill="black"/>
<path fill-rule="evenodd" clip-rule="evenodd" d="M67.8854 14.2833C67.8856 14.2845 67.8857 14.285 67.8857 14.2847L70.1992 14.1494C70.1144 12.6987 68.588 10.6976 64.9253 9.62854L64.276 11.8532C65.8592 12.3153 66.7816 12.918 67.294 13.4128C67.8055 13.9068 67.88 14.2582 67.8854 14.2833Z" fill="black"/>
<path fill-rule="evenodd" clip-rule="evenodd" d="M60.9317 19.4314C60.2917 19.4314 59.7729 18.9126 59.7729 18.2727L59.7729 14.024C59.7729 13.384 60.2917 12.8652 60.9317 12.8652C61.5716 12.8652 62.0904 13.384 62.0904 14.024L62.0904 18.2727C62.0904 18.9126 61.5716 19.4314 60.9317 19.4314Z" fill="black"/>
<path fill-rule="evenodd" clip-rule="evenodd" d="M69.0425 19.4314C68.4026 19.4314 67.8838 18.9126 67.8838 18.2727L67.8838 14.024C67.8838 13.384 68.4026 12.8652 69.0425 12.8652C69.6825 12.8652 70.2013 13.384 70.2013 14.024L70.2013 18.2727C70.2013 18.9126 69.6825 19.4314 69.0425 19.4314Z" fill="black"/>
<path fill-rule="evenodd" clip-rule="evenodd" d="M103.225 19.4313C102.585 19.4313 102.066 18.9125 102.066 18.2725V12.4789C102.066 11.8389 102.585 11.3201 103.225 11.3201C103.865 11.3201 104.384 11.8389 104.384 12.4789V18.2725C104.384 18.9125 103.865 19.4313 103.225 19.4313Z" fill="black"/>
<path fill-rule="evenodd" clip-rule="evenodd" d="M27.792 13.5408C27.2055 13.7968 26.5225 13.5288 26.2666 12.9422L21.6316 2.32053C21.3757 1.73399 21.6437 1.05102 22.2302 0.795075C22.8168 0.53913 23.4997 0.80713 23.7557 1.39367L28.3906 12.0154C28.6465 12.6019 28.3785 13.2849 27.792 13.5408Z" fill="black"/>
<path fill-rule="evenodd" clip-rule="evenodd" d="M40.5914 7.44557C40.3848 8.05124 39.7263 8.37472 39.1206 8.16808L22.7053 2.56754C22.0996 2.3609 21.7761 1.70239 21.9828 1.09672C22.1894 0.491046 22.8479 0.167569 23.4536 0.37421L39.8689 5.97475C40.4746 6.1814 40.7981 6.8399 40.5914 7.44557Z" fill="black"/>
<path fill-rule="evenodd" clip-rule="evenodd" d="M89.3679 7.20658C89.1865 6.59286 89.5371 5.94834 90.1508 5.76701L107.146 0.745836C107.759 0.564508 108.404 0.915034 108.585 1.52876C108.766 2.14248 108.416 2.787 107.802 2.96833L90.8074 7.9895C90.1937 8.17083 89.5492 7.82031 89.3679 7.20658Z" fill="black"/>
<path fill-rule="evenodd" clip-rule="evenodd" d="M102.183 13.5408C102.769 13.7968 103.452 13.5288 103.708 12.9422L108.343 2.32053C108.599 1.73399 108.331 1.05102 107.744 0.795075C107.158 0.53913 106.475 0.80713 106.219 1.39367L101.584 12.0154C101.328 12.6019 101.596 13.2849 102.183 13.5408Z" fill="black"/>
<path fill-rule="evenodd" clip-rule="evenodd" d="M44.5162 6.68518C43.8762 6.68518 43.3574 6.1664 43.3574 5.52645L43.3574 1.27776C43.3574 0.637809 43.8762 0.119026 44.5162 0.119026C45.1561 0.119026 45.6749 0.637809 45.6749 1.27776L45.6749 5.52645C45.6749 6.1664 45.1561 6.68518 44.5162 6.68518Z" fill="black"/>
<path fill-rule="evenodd" clip-rule="evenodd" d="M55.1377 6.68518C54.4978 6.68518 53.979 6.1664 53.979 5.52645L53.979 1.27776C53.979 0.637809 54.4978 0.119026 55.1377 0.119026C55.7777 0.119026 56.2965 0.637809 56.2965 1.27776L56.2965 5.52645C56.2965 6.1664 55.7777 6.68518 55.1377 6.68518Z" fill="black"/>
<path fill-rule="evenodd" clip-rule="evenodd" d="M65.1802 6.68518C64.5403 6.68518 64.0215 6.1664 64.0215 5.52645L64.0215 1.27776C64.0215 0.637809 64.5403 0.119026 65.1802 0.119026C65.8202 0.119026 66.339 0.637809 66.339 1.27776L66.339 5.52645C66.339 6.1664 65.8202 6.68518 65.1802 6.68518Z" fill="black"/>
<path fill-rule="evenodd" clip-rule="evenodd" d="M65.1802 26.963C64.5403 26.963 64.0215 26.4442 64.0215 25.8043L64.0215 23.2937C64.0215 22.6537 64.5403 22.135 65.1802 22.135C65.8202 22.135 66.339 22.6537 66.339 23.2937L66.339 25.8043C66.339 26.4442 65.8202 26.963 65.1802 26.963Z" fill="black"/>
<path fill-rule="evenodd" clip-rule="evenodd" d="M65.1802 36.0398C64.5403 36.0398 64.0215 35.521 64.0215 34.8811L64.0215 32.3705C64.0215 31.7305 64.5403 31.2117 65.1802 31.2117C65.8202 31.2117 66.339 31.7305 66.339 32.3705L66.339 34.8811C66.339 35.521 65.8202 36.0398 65.1802 36.0398Z" fill="black"/>
<path fill-rule="evenodd" clip-rule="evenodd" d="M65.1802 43.7646C64.5403 43.7646 64.0215 43.2459 64.0215 42.6059L64.0215 40.0953C64.0215 39.4554 64.5403 38.9366 65.1802 38.9366C65.8202 38.9366 66.339 39.4554 66.339 40.0953L66.339 42.6059C66.339 43.2459 65.8202 43.7646 65.1802 43.7646Z" fill="black"/>
<path fill-rule="evenodd" clip-rule="evenodd" d="M65.1802 54.1932C64.5403 54.1932 64.0215 53.6745 64.0215 53.0345L64.0215 48.9789C64.0215 48.339 64.5403 47.8202 65.1802 47.8202C65.8202 47.8202 66.339 48.339 66.339 48.9789L66.339 53.0345C66.339 53.6745 65.8202 54.1932 65.1802 54.1932Z" fill="black"/>
<path fill-rule="evenodd" clip-rule="evenodd" d="M75.4156 6.68518C74.7756 6.68518 74.2568 6.1664 74.2568 5.52645L74.2568 1.27776C74.2568 0.637809 74.7756 0.119026 75.4156 0.119026C76.0555 0.119026 76.5743 0.637809 76.5743 1.27776L76.5743 5.52645C76.5743 6.1664 76.0555 6.68518 75.4156 6.68518Z" fill="black"/>
<path fill-rule="evenodd" clip-rule="evenodd" d="M85.6514 6.68518C85.0115 6.68518 84.4927 6.1664 84.4927 5.52645L84.4927 1.27776C84.4927 0.637809 85.0115 0.119026 85.6514 0.119026C86.2914 0.119026 86.8101 0.637809 86.8101 1.27776L86.8101 5.52645C86.8101 6.1664 86.2914 6.68518 85.6514 6.68518Z" fill="black"/>
<path fill-rule="evenodd" clip-rule="evenodd" d="M95.8868 6.68518C95.2468 6.68518 94.728 6.1664 94.728 5.52645L94.728 1.27776C94.728 0.637809 95.2468 0.119026 95.8868 0.119026C96.5267 0.119026 97.0455 0.637809 97.0455 1.27776L97.0455 5.52645C97.0455 6.1664 96.5267 6.68518 95.8868 6.68518Z" fill="black"/>
<path fill-rule="evenodd" clip-rule="evenodd" d="M74.4497 96.8733V85.7687C74.4497 80.5958 70.2562 76.4023 65.0833 76.4023C59.9104 76.4023 55.7169 80.5958 55.7169 85.7687V96.8733H74.4497ZM65.0833 74.0848C58.6305 74.0848 53.3994 79.3159 53.3994 85.7687V99.1907H76.7672V85.7687C76.7672 79.3159 71.5361 74.0848 65.0833 74.0848Z" fill="black"/>
<path fill-rule="evenodd" clip-rule="evenodd" d="M70.3945 96.8732V86.2515C70.3945 83.2651 67.9735 80.8441 64.9871 80.8441C62.0007 80.8441 59.5797 83.2651 59.5797 86.2515V96.8732H70.3945ZM64.9871 78.5266C60.7208 78.5266 57.2622 81.9852 57.2622 86.2515V99.1907H72.712V86.2515C72.712 81.9852 69.2534 78.5266 64.9871 78.5266Z" fill="black"/>
<defs>
<filter id="filter0_i_441_2750" x="8.5" y="2.88379" width="115" height="94.5" filterUnits="userSpaceOnUse" color-interpolation-filters="sRGB">
<feFlood flood-opacity="0" result="BackgroundImageFix"/>
<feBlend mode="normal" in="SourceGraphic" in2="BackgroundImageFix" result="shape"/>
<feColorMatrix in="SourceAlpha" type="matrix" values="0 0 0 0 0 0 0 0 0 0 0 0 0 0 0 0 0 0 127 0" result="hardAlpha"/>
<feOffset dx="5"/>
<feComposite in2="hardAlpha" operator="arithmetic" k2="-1" k3="1"/>
<feColorMatrix type="matrix" values="0 0 0 0 0.996078 0 0 0 0 0.831373 0 0 0 0 0.686275 0 0 0 1 0"/>
<feBlend mode="normal" in2="shape" result="effect1_innerShadow_441_2750"/>
</filter>
<filter id="filter1_i_441_2750" x="58" y="80.3838" width="13" height="18" filterUnits="userSpaceOnUse" color-interpolation-filters="sRGB">
<feFlood flood-opacity="0" result="BackgroundImageFix"/>
<feBlend mode="normal" in="SourceGraphic" in2="BackgroundImageFix" result="shape"/>
<feColorMatrix in="SourceAlpha" type="matrix" values="0 0 0 0 0 0 0 0 0 0 0 0 0 0 0 0 0 0 127 0" result="hardAlpha"/>
<feOffset dx="4"/>
<feComposite in2="hardAlpha" operator="arithmetic" k2="-1" k3="1"/>
<feColorMatrix type="matrix" values="0 0 0 0 0.478431 0 0 0 0 0.4 0 0 0 0 0.458824 0 0 0 1 0"/>
<feBlend mode="normal" in2="shape" result="effect1_innerShadow_441_2750"/>
</filter>
<filter id="filter2_i_441_2750" x="61" y="11.3838" width="9" height="6" filterUnits="userSpaceOnUse" color-interpolation-filters="sRGB">
<feFlood flood-opacity="0" result="BackgroundImageFix"/>
<feBlend mode="normal" in="SourceGraphic" in2="BackgroundImageFix" result="shape"/>
<feColorMatrix in="SourceAlpha" type="matrix" values="0 0 0 0 0 0 0 0 0 0 0 0 0 0 0 0 0 0 127 0" result="hardAlpha"/>
<feOffset dx="2"/>
<feComposite in2="hardAlpha" operator="arithmetic" k2="-1" k3="1"/>
<feColorMatrix type="matrix" values="0 0 0 0 0.478431 0 0 0 0 0.4 0 0 0 0 0.458824 0 0 0 1 0"/>
<feBlend mode="normal" in2="shape" result="effect1_innerShadow_441_2750"/>
</filter>
</defs>
</svg>
