<svg width="45" height="114" viewBox="0 0 45 114" fill="none" xmlns="http://www.w3.org/2000/svg">
<g filter="url(#filter0_i_441_2531)">
<path d="M15.1719 6.88721L11.9932 64.6336H31.0654L26.2973 6.35742L15.1719 6.88721Z" fill="#ED6D64"/>
</g>
<g filter="url(#filter1_i_441_2531)">
<rect x="1.39742" y="98.5397" width="41.3231" height="13.7744" fill="#FEDAB4"/>
</g>
<rect x="7.75479" y="95.361" width="29.6679" height="3.1787" fill="#FEDAB4"/>
<g filter="url(#filter2_i_441_2531)">
<rect x="9.87421" y="67.8123" width="24.37" height="27.5487" fill="#FEDAB4"/>
</g>
<rect x="18.351" y="76.2887" width="8.47653" height="12.7148" fill="#8D7E8A"/>
<path d="M27.3569 7.41697H15.1719L15.7017 4.97182L17.2911 3.01569L19.94 1.5486L22.0591 1.05957L24.708 2.03763L27.3569 4.48278L27.8867 5.94988L27.3569 7.41697Z" fill="#F1F1F2"/>
<path fill-rule="evenodd" clip-rule="evenodd" d="M0.33818 112.338C0.338181 111.766 0.801734 111.303 1.37356 111.303L42.9611 111.303C43.533 111.303 43.9965 111.766 43.9965 112.338C43.9965 112.91 43.533 113.374 42.9611 113.374L1.37356 113.374C0.801734 113.374 0.33818 112.91 0.33818 112.338Z" fill="black"/>
<path fill-rule="evenodd" clip-rule="evenodd" d="M0.855682 101.812C0.855682 101.24 1.31924 100.776 1.89106 100.776L42.2707 100.776C42.8425 100.776 43.3061 101.24 43.3061 101.812C43.3061 102.384 42.8425 102.847 42.2707 102.847L1.89106 102.847C1.31924 102.847 0.855682 102.384 0.855682 101.812Z" fill="black"/>
<path fill-rule="evenodd" clip-rule="evenodd" d="M0.33818 98.5332C0.338181 97.9614 0.801734 97.4978 1.37356 97.4978L43.4788 97.4978C44.0506 97.4978 44.5142 97.9614 44.5142 98.5332C44.5142 99.105 44.0506 99.5686 43.4788 99.5686L1.37356 99.5686C0.801734 99.5686 0.33818 99.105 0.33818 98.5332Z" fill="black"/>
<path fill-rule="evenodd" clip-rule="evenodd" d="M5.51488 95.7722C5.51488 95.2004 5.97843 94.7368 6.55025 94.7368L38.1292 94.7368C38.701 94.7368 39.1646 95.2004 39.1646 95.7722C39.1646 96.344 38.701 96.8076 38.1292 96.8076L6.55025 96.8076C5.97843 96.8076 5.51488 96.344 5.51488 95.7722Z" fill="black"/>
<path fill-rule="evenodd" clip-rule="evenodd" d="M8.62114 95.7722C8.62114 95.2004 9.08469 94.7368 9.65651 94.7368L33.9878 94.7368C34.5597 94.7368 35.0232 95.2004 35.0232 95.7722C35.0232 96.344 34.5597 96.8076 33.9878 96.8076L9.65652 96.8076C9.08469 96.8076 8.62114 96.344 8.62114 95.7722Z" fill="black"/>
<path fill-rule="evenodd" clip-rule="evenodd" d="M8.62114 66.9543C8.62114 66.3825 9.08469 65.9189 9.65651 65.9189L33.9878 65.9189C34.5597 65.9189 35.0232 66.3825 35.0232 66.9543C35.0232 67.5261 34.5597 67.9897 33.9878 67.9897L9.65652 67.9897C9.08469 67.9897 8.62114 67.5261 8.62114 66.9543Z" fill="black"/>
<path fill-rule="evenodd" clip-rule="evenodd" d="M10.3559 66.782C10.9276 66.7963 11.3794 67.2713 11.3651 67.8429L10.6871 94.9351C10.6728 95.5068 10.1978 95.9586 9.62614 95.9443C9.0545 95.93 8.60268 95.455 8.61699 94.8833L9.29496 67.7911C9.30926 67.2195 9.78427 66.7677 10.3559 66.782Z" fill="black"/>
<path fill-rule="evenodd" clip-rule="evenodd" d="M21.663 7.87106L28.9621 8.47653V7.61158C28.9621 7.19446 28.93 6.78518 28.8681 6.38628C28.3061 2.76509 25.2942 0 21.663 0C18.0319 0 15.02 2.76509 14.458 6.38628C14.3961 6.78518 14.364 7.19446 14.364 7.61158V8.47653L21.663 7.87106ZM16.525 6.21482L21.663 5.78862L26.8011 6.21482C26.2075 3.83376 24.1321 2.07589 21.663 2.07589C19.194 2.07589 17.1186 3.83376 16.525 6.21482Z" fill="black"/>
<path fill-rule="evenodd" clip-rule="evenodd" d="M30.3338 57.2167C22.7961 54.911 15.6552 56.2717 13.1357 57.1928L12.1185 55.4613C15.1093 54.3679 22.9406 52.9084 31.2084 55.4374L30.3338 57.2167Z" fill="black"/>
<path fill-rule="evenodd" clip-rule="evenodd" d="M30.218 49.5232C22.9528 47.0214 16.07 48.4979 13.6415 49.4973L12.6611 47.6185C15.5439 46.4321 23.0921 44.8484 31.061 47.5925L30.218 49.5232Z" fill="black"/>
<path fill-rule="evenodd" clip-rule="evenodd" d="M29.7327 41.5193C23.1298 39.1372 16.874 40.5436 14.6698 41.494L13.7577 39.6105C16.3858 38.4774 23.2593 36.9669 30.5165 39.5852L29.7327 41.5193Z" fill="black"/>
<path fill-rule="evenodd" clip-rule="evenodd" d="M28.6101 33.5722C22.5058 31.2068 16.7252 32.6045 14.6969 33.5439L13.7299 31.685C16.2005 30.5408 22.6438 29.0217 29.4438 31.6567L28.6101 33.5722Z" fill="black"/>
<path fill-rule="evenodd" clip-rule="evenodd" d="M28.1639 23.3105C23.0027 21.0917 18.1182 22.4037 16.4104 23.2812L15.4872 21.5477C17.6105 20.4568 23.1351 19.0131 28.9625 21.5184L28.1639 23.3105Z" fill="black"/>
<path fill-rule="evenodd" clip-rule="evenodd" d="M28.6101 28.3952C22.5058 26.0298 16.7252 27.4275 14.6969 28.3669L13.7299 26.508C16.2005 25.3638 22.6438 23.8447 29.4438 26.4797L28.6101 28.3952Z" fill="black"/>
<path fill-rule="evenodd" clip-rule="evenodd" d="M28.1639 18.0127C23.0027 15.7938 18.1182 17.1059 16.4104 17.9833L15.4872 16.2499C17.6105 15.1589 23.1351 13.7152 28.9625 16.2205L28.1639 18.0127Z" fill="black"/>
<path fill-rule="evenodd" clip-rule="evenodd" d="M27.1075 13.7744C22.3764 11.5556 17.899 12.8676 16.3335 13.7451L15.4872 12.0116C17.4336 10.9207 22.4978 9.47697 27.8396 11.9822L27.1075 13.7744Z" fill="black"/>
<path fill-rule="evenodd" clip-rule="evenodd" d="M28.097 9.53612C22.5057 7.31728 17.2142 8.62932 15.3641 9.50677L14.364 7.7733C16.6641 6.68237 22.6492 5.23869 28.9621 7.74396L28.097 9.53612Z" fill="black"/>
<path fill-rule="evenodd" clip-rule="evenodd" d="M16.2191 7.40937C16.8237 7.44756 17.2811 7.94103 17.2406 8.51158L13.1973 65.515C13.1568 66.0856 12.6338 66.5171 12.0291 66.4789C11.4245 66.4408 10.9671 65.9473 11.0076 65.3767L15.0509 8.37329C15.0914 7.80275 15.6144 7.37119 16.2191 7.40937Z" fill="black"/>
<path fill-rule="evenodd" clip-rule="evenodd" d="M20.0156 7.47362C20.6207 7.50491 21.0843 7.99313 21.0512 8.5641L17.7386 65.5991C17.7054 66.17 17.188 66.6075 16.5829 66.5762C15.9777 66.5449 15.5141 66.0567 15.5472 65.4858L18.8599 8.45078C18.893 7.87982 19.4105 7.44233 20.0156 7.47362Z" fill="black"/>
<path fill-rule="evenodd" clip-rule="evenodd" d="M27.1186 7.42302C27.7231 7.38167 28.2486 7.81048 28.2924 8.38081L32.6816 65.4989C32.7254 66.0692 32.271 66.5651 31.6665 66.6064C31.0621 66.6478 30.5366 66.219 30.4928 65.6487L26.1035 8.53056C26.0597 7.96024 26.5142 7.46437 27.1186 7.42302Z" fill="black"/>
<path fill-rule="evenodd" clip-rule="evenodd" d="M23.8633 7.421C24.4688 7.39856 24.979 7.84357 25.0028 8.41495L27.3803 65.5332C27.4041 66.1045 26.9324 66.5859 26.3269 66.6084C25.7213 66.6308 25.2112 66.1858 25.1874 65.6144L22.8099 8.49621C22.7861 7.92483 23.2577 7.44345 23.8633 7.421Z" fill="black"/>
<path fill-rule="evenodd" clip-rule="evenodd" d="M33.4119 66.7827C33.9832 66.7574 34.4668 67.2 34.492 67.7713L35.7122 95.3813C35.7375 95.9526 35.2949 96.4361 34.7236 96.4614C34.1523 96.4866 33.6688 96.044 33.6435 95.4727L32.4233 67.8627C32.398 67.2915 32.8407 66.8079 33.4119 66.7827Z" fill="black"/>
<path fill-rule="evenodd" clip-rule="evenodd" d="M1.37278 97.4978C1.9446 97.4978 2.40816 97.9614 2.40816 98.5332L2.40816 112.338C2.40816 112.91 1.9446 113.374 1.37278 113.374C0.800959 113.374 0.337406 112.91 0.337406 112.338L0.337407 98.5332C0.337407 97.9614 0.80096 97.4978 1.37278 97.4978Z" fill="black"/>
<path fill-rule="evenodd" clip-rule="evenodd" d="M6.55035 100.776C7.12217 100.776 7.58572 101.24 7.58572 101.812L7.58572 112.338C7.58572 112.91 7.12217 113.374 6.55035 113.374C5.97853 113.374 5.51497 112.91 5.51497 112.338L5.51497 101.812C5.51497 101.24 5.97853 100.776 6.55035 100.776Z" fill="black"/>
<path fill-rule="evenodd" clip-rule="evenodd" d="M6.55035 95.4271C7.12217 95.4271 7.58572 95.8907 7.58572 96.4625L7.58572 98.5333C7.58572 99.1051 7.12217 99.5686 6.55035 99.5686C5.97853 99.5686 5.51497 99.1051 5.51497 98.5333L5.51497 96.4625C5.51497 95.8907 5.97853 95.4271 6.55035 95.4271Z" fill="black"/>
<path fill-rule="evenodd" clip-rule="evenodd" d="M34.6781 100.776C35.25 100.776 35.7135 101.24 35.7135 101.812L35.7135 112.338C35.7135 112.91 35.25 113.374 34.6781 113.374C34.1063 113.374 33.6428 112.91 33.6428 112.338L33.6428 101.812C33.6428 101.24 34.1063 100.776 34.6781 100.776Z" fill="black"/>
<path fill-rule="evenodd" clip-rule="evenodd" d="M10.0019 100.776C10.5737 100.776 11.0373 101.24 11.0373 101.812L11.0373 112.338C11.0373 112.91 10.5737 113.374 10.0019 113.374C9.4301 113.374 8.96654 112.91 8.96654 112.338L8.96654 101.812C8.96654 101.24 9.4301 100.776 10.0019 100.776Z" fill="black"/>
<path fill-rule="evenodd" clip-rule="evenodd" d="M38.1297 100.776C38.7015 100.776 39.1651 101.24 39.1651 101.812L39.1651 112.338C39.1651 112.91 38.7015 113.374 38.1297 113.374C37.5579 113.374 37.0943 112.91 37.0943 112.338L37.0943 101.812C37.0943 101.24 37.5579 100.776 38.1297 100.776Z" fill="black"/>
<path fill-rule="evenodd" clip-rule="evenodd" d="M38.1297 95.4271C38.7015 95.4271 39.1651 95.8907 39.1651 96.4625L39.1651 98.5333C39.1651 99.1051 38.7015 99.5686 38.1297 99.5686C37.5579 99.5686 37.0943 99.1051 37.0943 98.5333L37.0943 96.4625C37.0943 95.8907 37.5579 95.4271 38.1297 95.4271Z" fill="black"/>
<path fill-rule="evenodd" clip-rule="evenodd" d="M43.4786 97.4978C44.0504 97.4978 44.514 97.9614 44.514 98.5332L44.514 112.338C44.514 112.91 44.0504 113.374 43.4786 113.374C42.9068 113.374 42.4432 112.91 42.4432 112.338L42.4432 98.5332C42.4432 97.9614 42.9068 97.4978 43.4786 97.4978Z" fill="black"/>
<path fill-rule="evenodd" clip-rule="evenodd" d="M18.4569 77.3081V89.0423H25.8771V77.3081H18.4569ZM17.7667 75.2373C17.0042 75.2373 16.3862 75.8554 16.3862 76.6178V89.7326C16.3862 90.495 17.0042 91.1131 17.7667 91.1131H26.5674C27.3298 91.1131 27.9479 90.495 27.9479 89.7326V76.6178C27.9479 75.8554 27.3298 75.2373 26.5674 75.2373H17.7667Z" fill="black"/>
<defs>
<filter id="filter0_i_441_2531" x="11.9932" y="6.35742" width="19.0722" height="58.2761" filterUnits="userSpaceOnUse" color-interpolation-filters="sRGB">
<feFlood flood-opacity="0" result="BackgroundImageFix"/>
<feBlend mode="normal" in="SourceGraphic" in2="BackgroundImageFix" result="shape"/>
<feColorMatrix in="SourceAlpha" type="matrix" values="0 0 0 0 0 0 0 0 0 0 0 0 0 0 0 0 0 0 127 0" result="hardAlpha"/>
<feOffset dx="3"/>
<feComposite in2="hardAlpha" operator="arithmetic" k2="-1" k3="1"/>
<feColorMatrix type="matrix" values="0 0 0 0 0.956863 0 0 0 0 0.521569 0 0 0 0 0.458824 0 0 0 1 0"/>
<feBlend mode="normal" in2="shape" result="effect1_innerShadow_441_2531"/>
</filter>
<filter id="filter1_i_441_2531" x="1.39742" y="98.5397" width="41.3231" height="13.7744" filterUnits="userSpaceOnUse" color-interpolation-filters="sRGB">
<feFlood flood-opacity="0" result="BackgroundImageFix"/>
<feBlend mode="normal" in="SourceGraphic" in2="BackgroundImageFix" result="shape"/>
<feColorMatrix in="SourceAlpha" type="matrix" values="0 0 0 0 0 0 0 0 0 0 0 0 0 0 0 0 0 0 127 0" result="hardAlpha"/>
<feOffset dy="-3"/>
<feComposite in2="hardAlpha" operator="arithmetic" k2="-1" k3="1"/>
<feColorMatrix type="matrix" values="0 0 0 0 0.94902 0 0 0 0 0.721569 0 0 0 0 0.580392 0 0 0 1 0"/>
<feBlend mode="normal" in2="shape" result="effect1_innerShadow_441_2531"/>
</filter>
<filter id="filter2_i_441_2531" x="9.87421" y="67.8123" width="24.37" height="27.5487" filterUnits="userSpaceOnUse" color-interpolation-filters="sRGB">
<feFlood flood-opacity="0" result="BackgroundImageFix"/>
<feBlend mode="normal" in="SourceGraphic" in2="BackgroundImageFix" result="shape"/>
<feColorMatrix in="SourceAlpha" type="matrix" values="0 0 0 0 0 0 0 0 0 0 0 0 0 0 0 0 0 0 127 0" result="hardAlpha"/>
<feOffset dx="3"/>
<feComposite in2="hardAlpha" operator="arithmetic" k2="-1" k3="1"/>
<feColorMatrix type="matrix" values="0 0 0 0 0.94902 0 0 0 0 0.721569 0 0 0 0 0.580392 0 0 0 1 0"/>
<feBlend mode="normal" in2="shape" result="effect1_innerShadow_441_2531"/>
</filter>
</defs>
</svg>
