<svg width="62" height="111" viewBox="0 0 62 111" fill="none" xmlns="http://www.w3.org/2000/svg">
<rect x="0.294556" y="109.363" width="60.7997" height="1.0305" fill="#FEDAB4"/>
<rect x="5.44699" y="83.6006" width="50.4946" height="1.0305" fill="#FEDAB4"/>
<rect x="3.38623" y="106.272" width="20.6101" height="2.06101" fill="#FEDAB4"/>
<rect x="6.47736" y="81.5397" width="18.549" height="1.0305" fill="#FEDAB4"/>
<rect x="4.4166" y="88.7532" width="19.5795" height="16.488" fill="#FEDAB4"/>
<rect x="3.38623" y="86.6921" width="3.09151" height="2.06101" rx="1" fill="#ED6D64"/>
<rect x="8.53864" y="86.6921" width="3.09151" height="2.06101" rx="1" fill="#ED6D64"/>
<rect x="12.6607" y="86.6921" width="3.09151" height="2.06101" rx="1" fill="#ED6D64"/>
<rect x="16.7827" y="86.6921" width="3.09151" height="2.06101" rx="1" fill="#ED6D64"/>
<rect x="21.9352" y="86.6921" width="3.09151" height="2.06101" rx="1" fill="#ED6D64"/>
<rect x="36.3621" y="86.6921" width="3.09151" height="2.06101" rx="1" fill="#ED6D64"/>
<rect x="41.5145" y="86.6921" width="3.09151" height="2.06101" rx="1" fill="#ED6D64"/>
<rect x="45.6365" y="86.6921" width="3.09151" height="2.06101" rx="1" fill="#ED6D64"/>
<rect x="49.7585" y="86.6921" width="3.09151" height="2.06101" rx="1" fill="#ED6D64"/>
<rect x="53.8806" y="86.6921" width="3.09151" height="2.06101" rx="1" fill="#ED6D64"/>
<rect x="48.7282" y="59.899" width="3.09151" height="2.06101" rx="1" fill="#ED6D64"/>
<rect x="40.4841" y="59.899" width="3.09151" height="2.06101" rx="1" fill="#ED6D64"/>
<rect x="31.2096" y="59.899" width="3.09151" height="2.06101" rx="1" fill="#ED6D64"/>
<rect x="17.8131" y="59.899" width="3.09151" height="2.06101" rx="1" fill="#ED6D64"/>
<rect x="21.9352" y="59.899" width="3.09151" height="2.06101" rx="1" fill="#ED6D64"/>
<rect x="27.0876" y="59.899" width="3.09151" height="2.06101" rx="1" fill="#ED6D64"/>
<rect x="12.6607" y="59.899" width="3.09151" height="2.06101" rx="1" fill="#ED6D64"/>
<rect x="8.53864" y="59.899" width="3.09151" height="2.06101" rx="1" fill="#ED6D64"/>
<rect x="44.6061" y="59.899" width="3.09151" height="2.06101" rx="1" fill="#ED6D64"/>
<rect x="35.3317" y="59.899" width="3.09151" height="2.06101" rx="1" fill="#ED6D64"/>
<rect x="37.3924" y="88.7532" width="19.5795" height="16.488" fill="#FEDAB4"/>
<rect x="35.3317" y="66.082" width="17.5185" height="14.427" fill="#FEDAB4"/>
<rect x="7.50827" y="66.082" width="17.5185" height="14.427" fill="#FEDAB4"/>
<rect x="7.50827" y="61.9601" width="46.3726" height="2.06101" fill="#FEDAB4"/>
<rect x="8.53864" y="64.0211" width="44.3116" height="2.06101" fill="#FEDAB4"/>
<rect x="10.5994" y="55.7771" width="40.1896" height="3.09151" fill="#FEDAB4"/>
<rect x="11.6303" y="47.5331" width="38.1286" height="8.24402" fill="#FEDAB4"/>
<rect x="12.6607" y="42.3805" width="36.0676" height="5.15251" fill="#FEDAB4"/>
<rect x="13.6911" y="37.228" width="34.0066" height="5.15251" fill="#FEDAB4"/>
<rect x="14.7214" y="32.0756" width="31.9456" height="5.15251" fill="#FEDAB4"/>
<rect x="14.7214" y="26.9231" width="31.9456" height="5.15251" fill="#FEDAB4"/>
<rect x="15.7523" y="25.8926" width="29.8846" height="1.0305" fill="#FEDAB4"/>
<rect x="16.7827" y="17.6486" width="27.8236" height="8.24402" fill="#FEDAB4"/>
<rect x="17.8131" y="14.557" width="26.7931" height="3.09151" fill="#FEDAB4"/>
<rect x="18.8435" y="9.40454" width="23.7016" height="5.15251" fill="#FEDAB4"/>
<rect x="37.3924" y="106.272" width="20.6101" height="2.06101" fill="#FEDAB4"/>
<rect x="36.3621" y="81.5397" width="17.5185" height="1.0305" fill="#FEDAB4"/>
<path fill-rule="evenodd" clip-rule="evenodd" d="M16.5918 18.9937C16.877 18.9937 17.1083 19.2249 17.1083 19.5101V25.019C17.1083 25.3043 16.877 25.5355 16.5918 25.5355C16.3066 25.5355 16.0754 25.3043 16.0754 25.019V19.5101C16.0754 19.2249 16.3066 18.9937 16.5918 18.9937Z" fill="black"/>
<path fill-rule="evenodd" clip-rule="evenodd" d="M44.481 18.9937C44.7663 18.9937 44.9975 19.2249 44.9975 19.5101V25.019C44.9975 25.3043 44.7663 25.5355 44.481 25.5355C44.1958 25.5355 43.9646 25.3043 43.9646 25.019V19.5101C43.9646 19.2249 44.1958 18.9937 44.481 18.9937Z" fill="black"/>
<path fill-rule="evenodd" clip-rule="evenodd" d="M4.42635 89.1174C4.71158 89.1174 4.94281 89.3487 4.94281 89.6339L4.94281 105.357C4.94281 105.642 4.71158 105.874 4.42635 105.874C4.14112 105.874 3.90989 105.642 3.90989 105.357L3.90989 89.6339C3.90989 89.3487 4.14112 89.1174 4.42635 89.1174Z" fill="black"/>
<path fill-rule="evenodd" clip-rule="evenodd" d="M8.09877 66.2784C8.38401 66.2784 8.61523 66.5097 8.61523 66.7949V80.3376C8.61523 80.6229 8.38401 80.8541 8.09877 80.8541C7.81354 80.8541 7.58231 80.6229 7.58231 80.3376L7.58231 66.7949C7.58231 66.5097 7.81354 66.2784 8.09877 66.2784Z" fill="black"/>
<path fill-rule="evenodd" clip-rule="evenodd" d="M11.5413 50.4403C11.8265 50.4403 12.0578 50.6715 12.0578 50.9568V54.9737C12.0578 55.2589 11.8265 55.4901 11.5413 55.4901C11.2561 55.4901 11.0248 55.2589 11.0248 54.9737V50.9568C11.0248 50.6715 11.2561 50.4403 11.5413 50.4403Z" fill="black"/>
<path fill-rule="evenodd" clip-rule="evenodd" d="M24.8555 48.4893C25.1408 48.4893 25.372 48.7205 25.372 49.0057L25.372 56.5805C25.372 56.8657 25.1408 57.0969 24.8555 57.0969C24.5703 57.0969 24.3391 56.8657 24.3391 56.5805L24.3391 49.0057C24.3391 48.7205 24.5703 48.4893 24.8555 48.4893Z" fill="black"/>
<path fill-rule="evenodd" clip-rule="evenodd" d="M28.6431 48.4893C28.9284 48.4893 29.1596 48.7205 29.1596 49.0057L29.1596 56.5805C29.1596 56.8657 28.9284 57.0969 28.6431 57.0969C28.3579 57.0969 28.1267 56.8657 28.1267 56.5805L28.1267 49.0057C28.1267 48.7205 28.3579 48.4893 28.6431 48.4893Z" fill="black"/>
<path fill-rule="evenodd" clip-rule="evenodd" d="M32.4297 48.4893C32.7149 48.4893 32.9462 48.7205 32.9462 49.0057L32.9462 56.5805C32.9462 56.8657 32.7149 57.0969 32.4297 57.0969C32.1445 57.0969 31.9132 56.8657 31.9132 56.5805L31.9132 49.0057C31.9132 48.7205 32.1445 48.4893 32.4297 48.4893Z" fill="black"/>
<path fill-rule="evenodd" clip-rule="evenodd" d="M36.2173 48.4893C36.5025 48.4893 36.7338 48.7205 36.7338 49.0057L36.7338 56.5805C36.7338 56.8657 36.5025 57.0969 36.2173 57.0969C35.9321 57.0969 35.7008 56.8657 35.7008 56.5805L35.7008 49.0057C35.7008 48.7205 35.9321 48.4893 36.2173 48.4893Z" fill="black"/>
<path fill-rule="evenodd" clip-rule="evenodd" d="M49.4153 50.4403C49.7005 50.4403 49.9318 50.6715 49.9318 50.9568V54.9737C49.9318 55.2589 49.7005 55.4901 49.4153 55.4901C49.1301 55.4901 48.8988 55.2589 48.8988 54.9737V50.9568C48.8988 50.6715 49.1301 50.4403 49.4153 50.4403Z" fill="black"/>
<path fill-rule="evenodd" clip-rule="evenodd" d="M37.0199 89.1174C37.3052 89.1174 37.5364 89.3487 37.5364 89.6339V105.357C37.5364 105.642 37.3052 105.874 37.0199 105.874C36.7347 105.874 36.5035 105.642 36.5035 105.357V89.6339C36.5035 89.3487 36.7347 89.1174 37.0199 89.1174Z" fill="black"/>
<path fill-rule="evenodd" clip-rule="evenodd" d="M36.1027 66.2784C36.3879 66.2784 36.6191 66.5097 36.6191 66.7949V80.3376C36.6191 80.6229 36.3879 80.8541 36.1027 80.8541C35.8174 80.8541 35.5862 80.6229 35.5862 80.3376V66.7949C35.5862 66.5097 35.8174 66.2784 36.1027 66.2784Z" fill="black"/>
<path fill-rule="evenodd" clip-rule="evenodd" d="M23.9372 89.1174C24.2224 89.1174 24.4536 89.3487 24.4536 89.6339V105.357C24.4536 105.642 24.2224 105.874 23.9372 105.874C23.652 105.874 23.4207 105.642 23.4207 105.357V89.6339C23.4207 89.3487 23.652 89.1174 23.9372 89.1174Z" fill="black"/>
<path fill-rule="evenodd" clip-rule="evenodd" d="M24.8555 66.2784C25.1408 66.2784 25.372 66.5097 25.372 66.7949V80.3376C25.372 80.6229 25.1408 80.8541 24.8555 80.8541C24.5703 80.8541 24.3391 80.6229 24.3391 80.3376V66.7949C24.3391 66.5097 24.5703 66.2784 24.8555 66.2784Z" fill="black"/>
<path fill-rule="evenodd" clip-rule="evenodd" d="M56.5318 89.1174C56.8171 89.1174 57.0483 89.3487 57.0483 89.6339V105.357C57.0483 105.642 56.8171 105.874 56.5318 105.874C56.2466 105.874 56.0154 105.642 56.0154 105.357V89.6339C56.0154 89.3487 56.2466 89.1174 56.5318 89.1174Z" fill="black"/>
<path fill-rule="evenodd" clip-rule="evenodd" d="M52.8584 66.2784C53.1436 66.2784 53.3748 66.5097 53.3748 66.7949V80.3376C53.3748 80.6229 53.1436 80.8541 52.8584 80.8541C52.5731 80.8541 52.3419 80.6229 52.3419 80.3376V66.7949C52.3419 66.5097 52.5731 66.2784 52.8584 66.2784Z" fill="black"/>
<path fill-rule="evenodd" clip-rule="evenodd" d="M3.90976 105.357C3.90976 105.072 4.14099 104.841 4.42622 104.841H23.9369C24.2222 104.841 24.4534 105.072 24.4534 105.357C24.4534 105.643 24.2222 105.874 23.9369 105.874H4.42622C4.14099 105.874 3.90976 105.643 3.90976 105.357Z" fill="black"/>
<path fill-rule="evenodd" clip-rule="evenodd" d="M7.58218 80.3376C7.58218 80.0524 7.81341 79.8212 8.09864 79.8212H24.8549C25.1401 79.8212 25.3714 80.0524 25.3714 80.3376C25.3714 80.6229 25.1401 80.8541 24.8549 80.8541H8.09864C7.81341 80.8541 7.58218 80.6229 7.58218 80.3376Z" fill="black"/>
<path fill-rule="evenodd" clip-rule="evenodd" d="M8.50055 65.5325C8.50055 65.2472 8.73178 65.016 9.01701 65.016L52.1701 65.016C52.4553 65.016 52.6866 65.2472 52.6866 65.5325C52.6866 65.8177 52.4553 66.0489 52.1701 66.0489L9.01701 66.0489C8.73178 66.0489 8.50055 65.8177 8.50055 65.5325Z" fill="black"/>
<path fill-rule="evenodd" clip-rule="evenodd" d="M24.4536 46.2512C24.4536 45.966 24.6849 45.7347 24.9701 45.7347L36.3322 45.7347C36.6175 45.7347 36.8487 45.966 36.8487 46.2512C36.8487 46.5364 36.6175 46.7677 36.3322 46.7677L24.9701 46.7677C24.6849 46.7677 24.4536 46.5364 24.4536 46.2512Z" fill="black"/>
<path fill-rule="evenodd" clip-rule="evenodd" d="M23.3059 47.399C23.3059 47.1138 23.5372 46.8826 23.8224 46.8826L37.2504 46.8826C37.5356 46.8826 37.7668 47.1138 37.7668 47.399C37.7668 47.6843 37.5356 47.9155 37.2504 47.9155L23.8224 47.9155C23.5372 47.9155 23.3059 47.6843 23.3059 47.399Z" fill="black"/>
<path fill-rule="evenodd" clip-rule="evenodd" d="M23.3059 57.7281C23.3059 57.4429 23.5372 57.2117 23.8224 57.2117L37.2504 57.2117C37.5356 57.2117 37.7668 57.4429 37.7668 57.7281C37.7668 58.0134 37.5356 58.2446 37.2504 58.2446L23.8224 58.2446C23.5372 58.2446 23.3059 58.0134 23.3059 57.7281Z" fill="black"/>
<path fill-rule="evenodd" clip-rule="evenodd" d="M24.1659 57.1543L37.1348 57.1543L37.1348 60.1383L24.1659 60.1383L24.1659 57.1543Z" fill="black"/>
<path fill-rule="evenodd" clip-rule="evenodd" d="M23.3059 47.9154H26.2899V48.9483H23.3059V47.9154Z" fill="black"/>
<path fill-rule="evenodd" clip-rule="evenodd" d="M23.3059 56.5231H26.2899V57.556H23.3059V56.5231Z" fill="black"/>
<path fill-rule="evenodd" clip-rule="evenodd" d="M27.093 47.6858H30.077V48.7187H27.093V47.6858Z" fill="black"/>
<path fill-rule="evenodd" clip-rule="evenodd" d="M27.093 56.2936H30.077V57.3265H27.093V56.2936Z" fill="black"/>
<path fill-rule="evenodd" clip-rule="evenodd" d="M30.8801 47.6858H33.8641V48.7187H30.8801V47.6858Z" fill="black"/>
<path fill-rule="evenodd" clip-rule="evenodd" d="M30.8801 56.2936H33.8641V57.3265H30.8801V56.2936Z" fill="black"/>
<path fill-rule="evenodd" clip-rule="evenodd" d="M34.6672 47.6858H37.6512V48.7187H34.6672V47.6858Z" fill="black"/>
<path fill-rule="evenodd" clip-rule="evenodd" d="M34.6672 56.2936H37.6512V57.3265H34.6672V56.2936Z" fill="black"/>
<path fill-rule="evenodd" clip-rule="evenodd" d="M25.1427 44.9889C25.1427 44.7036 25.3739 44.4724 25.6591 44.4724L35.644 44.4724C35.9293 44.4724 36.1605 44.7036 36.1605 44.9889C36.1605 45.2741 35.9293 45.5053 35.644 45.5053L25.6591 45.5053C25.3739 45.5053 25.1427 45.2741 25.1427 44.9889Z" fill="black"/>
<path fill-rule="evenodd" clip-rule="evenodd" d="M25.6591 45.5052C25.3739 45.5052 25.1427 45.274 25.1427 44.9888V37.2993C25.1427 37.014 25.3739 36.7828 25.6591 36.7828C25.9444 36.7828 26.1756 37.014 26.1756 37.2993V44.9888C26.1756 45.274 25.9444 45.5052 25.6591 45.5052Z" fill="black"/>
<path fill-rule="evenodd" clip-rule="evenodd" d="M26.6911 35.0613C26.4059 35.0613 26.1747 34.8301 26.1747 34.5448L26.1747 28.6916C26.1747 28.4064 26.4059 28.1751 26.6911 28.1751C26.9763 28.1751 27.2076 28.4064 27.2076 28.6916L27.2076 34.5448C27.2076 34.8301 26.9763 35.0613 26.6911 35.0613Z" fill="black"/>
<path fill-rule="evenodd" clip-rule="evenodd" d="M29.2164 35.0613C28.9311 35.0613 28.6999 34.8301 28.6999 34.5448L28.6999 28.6916C28.6999 28.4064 28.9311 28.1751 29.2164 28.1751C29.5016 28.1751 29.7328 28.4064 29.7328 28.6916L29.7328 34.5448C29.7328 34.8301 29.5016 35.0613 29.2164 35.0613Z" fill="black"/>
<path fill-rule="evenodd" clip-rule="evenodd" d="M31.7416 35.0613C31.4564 35.0613 31.2252 34.8301 31.2252 34.5448L31.2252 28.6916C31.2252 28.4064 31.4564 28.1751 31.7416 28.1751C32.0269 28.1751 32.2581 28.4064 32.2581 28.6916L32.2581 34.5448C32.2581 34.8301 32.0269 35.0613 31.7416 35.0613Z" fill="black"/>
<path fill-rule="evenodd" clip-rule="evenodd" d="M34.2663 35.0613C33.9811 35.0613 33.7499 34.8301 33.7499 34.5448L33.7499 28.6916C33.7499 28.4064 33.9811 28.1751 34.2663 28.1751C34.5516 28.1751 34.7828 28.4064 34.7828 28.6916L34.7828 34.5448C34.7828 34.8301 34.5516 35.0613 34.2663 35.0613Z" fill="black"/>
<path fill-rule="evenodd" clip-rule="evenodd" d="M27.093 37.299C27.093 37.5844 26.8617 37.8157 26.5764 37.8157L24.8543 37.8157C24.5689 37.8157 24.3376 37.5844 24.3376 37.299C24.3376 37.0137 24.5689 36.7824 24.8543 36.7824L26.5764 36.7824C26.8617 36.7824 27.093 37.0137 27.093 37.299Z" fill="black"/>
<path fill-rule="evenodd" clip-rule="evenodd" d="M33.6347 37.299C33.6347 37.5844 33.4034 37.8157 33.118 37.8157L31.3959 37.8157C31.1106 37.8157 30.8793 37.5844 30.8793 37.299C30.8793 37.0137 31.1106 36.7824 31.3959 36.7824L33.118 36.7824C33.4034 36.7824 33.6347 37.0137 33.6347 37.299Z" fill="black"/>
<path fill-rule="evenodd" clip-rule="evenodd" d="M36.8484 37.299C36.8484 37.5844 36.6171 37.8157 36.3318 37.8157L34.6097 37.8157C34.3244 37.8157 34.093 37.5844 34.093 37.299C34.093 37.0137 34.3244 36.7824 34.6097 36.7824L36.3318 36.7824C36.6171 36.7824 36.8484 37.0137 36.8484 37.299Z" fill="black"/>
<path fill-rule="evenodd" clip-rule="evenodd" d="M28.9865 45.5052C28.7013 45.5052 28.47 45.274 28.47 44.9888V37.2993C28.47 37.014 28.7013 36.7828 28.9865 36.7828C29.2717 36.7828 29.503 37.014 29.503 37.2993V44.9888C29.503 45.274 29.2717 45.5052 28.9865 45.5052Z" fill="black"/>
<path fill-rule="evenodd" clip-rule="evenodd" d="M32.3155 45.5052C32.0302 45.5052 31.799 45.274 31.799 44.9888V37.2993C31.799 37.014 32.0302 36.7828 32.3155 36.7828C32.6007 36.7828 32.8319 37.014 32.8319 37.2993V44.9888C32.8319 45.274 32.6007 45.5052 32.3155 45.5052Z" fill="black"/>
<path fill-rule="evenodd" clip-rule="evenodd" d="M35.6434 45.5052C35.3581 45.5052 35.1269 45.274 35.1269 44.9888V37.2993C35.1269 37.014 35.3581 36.7828 35.6434 36.7828C35.9286 36.7828 36.1598 37.014 36.1598 37.2993V44.9888C36.1598 45.274 35.9286 45.5052 35.6434 45.5052Z" fill="black"/>
<path fill-rule="evenodd" clip-rule="evenodd" d="M36.5039 105.357C36.5039 105.072 36.7351 104.841 37.0204 104.841H56.5311C56.8163 104.841 57.0475 105.072 57.0475 105.357C57.0475 105.643 56.8163 105.874 56.5311 105.874H37.0204C36.7351 105.874 36.5039 105.643 36.5039 105.357Z" fill="black"/>
<path fill-rule="evenodd" clip-rule="evenodd" d="M35.5861 80.3376C35.5861 80.0524 35.8173 79.8212 36.1025 79.8212H52.8588C53.144 79.8212 53.3752 80.0524 53.3752 80.3376C53.3752 80.6229 53.144 80.8541 52.8588 80.8541H36.1025C35.8173 80.8541 35.5861 80.6229 35.5861 80.3376Z" fill="black"/>
<path fill-rule="evenodd" clip-rule="evenodd" d="M2.4754 106.734C2.4754 106.481 2.68094 106.275 2.93448 106.275H23.8224C24.0759 106.275 24.2815 106.481 24.2815 106.734V107.882C24.2815 108.136 24.076 108.341 23.8224 108.341H2.93448C2.68094 108.341 2.4754 108.136 2.4754 107.882V106.734ZM3.16402 106.964V107.653H23.5929V106.964H3.16402Z" fill="black"/>
<path fill-rule="evenodd" clip-rule="evenodd" d="M6.37769 81.4853C6.37769 81.2318 6.58322 81.0262 6.83676 81.0262H24.7407C24.9942 81.0262 25.1998 81.2318 25.1998 81.4853V82.4035C25.1998 82.657 24.9942 82.8625 24.7407 82.8625H6.83676C6.58322 82.8625 6.37769 82.657 6.37769 82.4035V81.4853ZM7.0663 81.7149V82.1739H24.5112V81.7149H7.0663Z" fill="black"/>
<path fill-rule="evenodd" clip-rule="evenodd" d="M36.6759 106.734C36.6759 106.481 36.8814 106.275 37.135 106.275H58.1377C58.3912 106.275 58.5968 106.481 58.5968 106.734V107.882C58.5968 108.136 58.3912 108.341 58.1377 108.341H37.135C36.8814 108.341 36.6759 108.136 36.6759 107.882V106.734ZM37.3645 106.964V107.653H57.9081V106.964H37.3645Z" fill="black"/>
<path fill-rule="evenodd" clip-rule="evenodd" d="M35.7586 81.4853C35.7586 81.2318 35.9641 81.0262 36.2177 81.0262H54.2364C54.4899 81.0262 54.6955 81.2318 54.6955 81.4853V82.4035C54.6955 82.657 54.4899 82.8625 54.2364 82.8625H36.2177C35.9641 82.8625 35.7586 82.657 35.7586 82.4035V81.4853ZM36.4472 81.7149V82.1739H54.0069V81.7149H36.4472Z" fill="black"/>
<path fill-rule="evenodd" clip-rule="evenodd" d="M0.294678 109.374C0.294678 109.121 0.500213 108.915 0.753753 108.915H60.6631C60.9166 108.915 61.1222 109.121 61.1222 109.374V110.522C61.1222 110.775 60.9167 110.981 60.6631 110.981H0.753755C0.50022 110.981 0.294678 110.775 0.294678 110.522V109.374ZM0.983291 109.604V110.292H60.4336V109.604H0.983291Z" fill="black"/>
<path fill-rule="evenodd" clip-rule="evenodd" d="M7.18033 62.5484C7.18033 62.2949 7.38586 62.0894 7.6394 62.0894H53.6617C53.9153 62.0894 54.1208 62.2949 54.1208 62.5484V63.6961C54.1208 63.9497 53.9153 64.1552 53.6617 64.1552H7.6394C7.38587 64.1552 7.18033 63.9497 7.18033 63.6961V62.5484ZM7.86894 62.778V63.4666H53.4322V62.778H7.86894Z" fill="black"/>
<path fill-rule="evenodd" clip-rule="evenodd" d="M4.54044 83.8955C4.54044 83.6419 4.74597 83.4364 4.99951 83.4364H56.416C56.6695 83.4364 56.875 83.6419 56.875 83.8955V84.8136C56.875 85.0672 56.6695 85.2727 56.416 85.2727H4.99951C4.74598 85.2727 4.54044 85.0672 4.54044 84.8136V83.8955ZM5.22905 84.125V84.5841H56.1864V84.125H5.22905Z" fill="black"/>
<path fill-rule="evenodd" clip-rule="evenodd" d="M10.1646 104.898V91.8145C10.1646 91.1807 9.65079 90.6668 9.01694 90.6668C8.38309 90.6668 7.86925 91.1807 7.86925 91.8145V104.898H10.1646ZM9.01694 89.6339C7.81263 89.6339 6.83633 90.6102 6.83633 91.8145V105.931H11.1976V91.8145C11.1976 90.6102 10.2213 89.6339 9.01694 89.6339Z" fill="black"/>
<path fill-rule="evenodd" clip-rule="evenodd" d="M12.9198 79.7638V68.6886C12.9198 68.2132 12.5344 67.8278 12.059 67.8278C11.5836 67.8278 11.1982 68.2132 11.1982 68.6886V79.7638H12.9198ZM12.059 66.7949C11.0131 66.7949 10.1653 67.6428 10.1653 68.6886V80.7967H13.9527V68.6886C13.9527 67.6428 13.1049 66.7949 12.059 66.7949Z" fill="black"/>
<path fill-rule="evenodd" clip-rule="evenodd" d="M42.7588 104.898V91.8145C42.7588 91.1807 42.2449 90.6668 41.6111 90.6668C40.9772 90.6668 40.4634 91.1807 40.4634 91.8145V104.898H42.7588ZM41.6111 89.6339C40.4068 89.6339 39.4305 90.6102 39.4305 91.8145V105.931H43.7917V91.8145C43.7917 90.6102 42.8154 89.6339 41.6111 89.6339Z" fill="black"/>
<path fill-rule="evenodd" clip-rule="evenodd" d="M40.9231 79.7638V68.6886C40.9231 68.2132 40.5377 67.8278 40.0624 67.8278C39.587 67.8278 39.2016 68.2132 39.2016 68.6886V79.7638H40.9231ZM40.0624 66.7949C39.0165 66.7949 38.1687 67.6428 38.1687 68.6886V80.7967H41.956V68.6886C41.956 67.6428 41.1082 66.7949 40.0624 66.7949Z" fill="black"/>
<path fill-rule="evenodd" clip-rule="evenodd" d="M15.4446 104.898V91.8719C15.4446 91.2064 14.905 90.6668 14.2395 90.6668C13.5739 90.6668 13.0344 91.2064 13.0344 91.8719V104.898H15.4446ZM14.2395 89.6339C13.0035 89.6339 12.0015 90.6359 12.0015 91.8719V105.931H16.4775V91.8719C16.4775 90.6359 15.4755 89.6339 14.2395 89.6339Z" fill="black"/>
<path fill-rule="evenodd" clip-rule="evenodd" d="M17.5101 79.7638V68.746C17.5101 68.2389 17.0991 67.8278 16.592 67.8278C16.0849 67.8278 15.6738 68.2389 15.6738 68.746V79.7638H17.5101ZM16.592 66.7949C15.5144 66.7949 14.6409 67.6684 14.6409 68.746V80.7967H18.543V68.746C18.543 67.6684 17.6695 66.7949 16.592 66.7949Z" fill="black"/>
<path fill-rule="evenodd" clip-rule="evenodd" d="M48.0386 104.898V91.8145C48.0386 91.1807 47.5248 90.6668 46.8909 90.6668C46.2571 90.6668 45.7432 91.1807 45.7432 91.8145V104.898H48.0386ZM46.8909 89.6339C45.6866 89.6339 44.7103 90.6102 44.7103 91.8145V105.931H49.0715V91.8145C49.0715 90.6102 48.0953 89.6339 46.8909 89.6339Z" fill="black"/>
<path fill-rule="evenodd" clip-rule="evenodd" d="M45.3986 79.7638V68.6312C45.3986 68.1875 45.0389 67.8278 44.5952 67.8278C44.1515 67.8278 43.7918 68.1875 43.7918 68.6312V79.7638H45.3986ZM44.5952 66.7949C43.5811 66.7949 42.7589 67.6171 42.7589 68.6312V80.7967H46.4315V68.6312C46.4315 67.6171 45.6094 66.7949 44.5952 66.7949Z" fill="black"/>
<path fill-rule="evenodd" clip-rule="evenodd" d="M58.2339 87.9124C58.2459 88.0063 58.2521 88.1021 58.2521 88.1993V88.9453H53.7762V88.1993C53.7762 88.1021 53.7824 88.0063 53.7944 87.9124C53.9352 86.8119 54.8754 85.9613 56.0141 85.9613C57.1529 85.9613 58.0931 86.8119 58.2339 87.9124ZM54.8434 87.9124C54.9722 87.3854 55.4475 86.9942 56.0141 86.9942C56.5808 86.9942 57.0561 87.3854 57.1849 87.9124H54.8434Z" fill="black"/>
<path fill-rule="evenodd" clip-rule="evenodd" d="M25.4105 87.9124C25.4225 88.0063 25.4287 88.1021 25.4287 88.1993V88.9453H20.9527V88.1993C20.9527 88.1021 20.9589 88.0063 20.9709 87.9124C21.1118 86.8119 22.0519 85.9613 23.1907 85.9613C24.3295 85.9613 25.2696 86.8119 25.4105 87.9124ZM22.02 87.9124C22.1487 87.3854 22.624 86.9942 23.1907 86.9942C23.7574 86.9942 24.2327 87.3854 24.3614 87.9124H22.02Z" fill="black"/>
<path fill-rule="evenodd" clip-rule="evenodd" d="M30.4604 61.4008C30.4724 61.4947 30.4786 61.5905 30.4786 61.6877V62.4337H26.0027V61.6877C26.0027 61.5905 26.0089 61.4947 26.0209 61.4008C26.1617 60.3003 27.1019 59.4497 28.2406 59.4497C29.3794 59.4497 30.3196 60.3003 30.4604 61.4008ZM27.0699 61.4008C27.1987 60.8738 27.674 60.4826 28.2406 60.4826C28.8073 60.4826 29.2826 60.8738 29.4114 61.4008H27.0699Z" fill="black"/>
<path fill-rule="evenodd" clip-rule="evenodd" d="M52.8405 61.4008C52.8525 61.4947 52.8587 61.5905 52.8587 61.6877V62.4337H48.3827V61.6877C48.3827 61.5905 48.3889 61.4947 48.4009 61.4008C48.5418 60.3003 49.4819 59.4497 50.6207 59.4497C51.7595 59.4497 52.6996 60.3003 52.8405 61.4008ZM49.45 61.4008C49.5787 60.8738 50.054 60.4826 50.6207 60.4826C51.1874 60.4826 51.6627 60.8738 51.7914 61.4008H49.45Z" fill="black"/>
<path fill-rule="evenodd" clip-rule="evenodd" d="M53.7589 87.9124C53.7709 88.0063 53.7771 88.1021 53.7771 88.1993V88.9453H49.3011V88.1993C49.3011 88.1021 49.3073 88.0063 49.3193 87.9124C49.4601 86.8119 50.4003 85.9613 51.5391 85.9613C52.6779 85.9613 53.618 86.8119 53.7589 87.9124ZM50.3684 87.9124C50.4971 87.3854 50.9724 86.9942 51.5391 86.9942C52.1057 86.9942 52.5811 87.3854 52.7098 87.9124H50.3684Z" fill="black"/>
<path fill-rule="evenodd" clip-rule="evenodd" d="M20.9349 87.9124C20.9469 88.0063 20.9531 88.1021 20.9531 88.1993V88.9453H16.4771V88.1993C16.4771 88.1021 16.4833 88.0063 16.4953 87.9124C16.6362 86.8119 17.5763 85.9613 18.7151 85.9613C19.8539 85.9613 20.794 86.8119 20.9349 87.9124ZM17.5444 87.9124C17.6731 87.3854 18.1484 86.9942 18.7151 86.9942C19.2818 86.9942 19.7571 87.3854 19.8858 87.9124H17.5444Z" fill="black"/>
<path fill-rule="evenodd" clip-rule="evenodd" d="M25.9848 61.4008C25.9969 61.4947 26.0031 61.5905 26.0031 61.6877V62.4337H21.5271V61.6877C21.5271 61.5905 21.5333 61.4947 21.5453 61.4008C21.6861 60.3003 22.6263 59.4497 23.7651 59.4497C24.9039 59.4497 25.844 60.3003 25.9848 61.4008ZM22.5944 61.4008C22.7231 60.8738 23.1984 60.4826 23.7651 60.4826C24.3317 60.4826 24.807 60.8738 24.9358 61.4008H22.5944Z" fill="black"/>
<path fill-rule="evenodd" clip-rule="evenodd" d="M48.3638 61.4008C48.3759 61.4947 48.3821 61.5905 48.3821 61.6877V62.4337H43.9061V61.6877C43.9061 61.5905 43.9123 61.4947 43.9243 61.4008C44.0651 60.3003 45.0053 59.4497 46.1441 59.4497C47.2829 59.4497 48.223 60.3003 48.3638 61.4008ZM44.9734 61.4008C45.1021 60.8738 45.5774 60.4826 46.1441 60.4826C46.7107 60.4826 47.186 60.8738 47.3148 61.4008H44.9734Z" fill="black"/>
<path fill-rule="evenodd" clip-rule="evenodd" d="M49.2827 87.9124C49.2948 88.0063 49.301 88.1021 49.301 88.1993V88.9453H44.825V88.1993C44.825 88.1021 44.8312 88.0063 44.8432 87.9124C44.984 86.8119 45.9242 85.9613 47.063 85.9613C48.2018 85.9613 49.1419 86.8119 49.2827 87.9124ZM45.8923 87.9124C46.021 87.3854 46.4963 86.9942 47.063 86.9942C47.6296 86.9942 48.105 87.3854 48.2337 87.9124H45.8923Z" fill="black"/>
<path fill-rule="evenodd" clip-rule="evenodd" d="M16.4593 87.9124C16.4713 88.0063 16.4775 88.1021 16.4775 88.1993V88.9453H12.0015V88.1993C12.0015 88.1021 12.0077 88.0063 12.0197 87.9124C12.1606 86.8119 13.1007 85.9613 14.2395 85.9613C15.3783 85.9613 16.3184 86.8119 16.4593 87.9124ZM13.0688 87.9124C13.1975 87.3854 13.6728 86.9942 14.2395 86.9942C14.8062 86.9942 15.2815 87.3854 15.4102 87.9124H13.0688Z" fill="black"/>
<path fill-rule="evenodd" clip-rule="evenodd" d="M21.5087 61.4008C21.5207 61.4947 21.5269 61.5905 21.5269 61.6877V62.4337H17.0509V61.6877C17.0509 61.5905 17.0571 61.4947 17.0692 61.4008C17.21 60.3003 18.1501 59.4497 19.2889 59.4497C20.4277 59.4497 21.3679 60.3003 21.5087 61.4008ZM18.1182 61.4008C18.2469 60.8738 18.7223 60.4826 19.2889 60.4826C19.8556 60.4826 20.3309 60.8738 20.4596 61.4008H18.1182Z" fill="black"/>
<path fill-rule="evenodd" clip-rule="evenodd" d="M43.8882 61.4008C43.9003 61.4947 43.9065 61.5905 43.9065 61.6877V62.4337H39.4305V61.6877C39.4305 61.5905 39.4367 61.4947 39.4487 61.4008C39.5895 60.3003 40.5297 59.4497 41.6685 59.4497C42.8073 59.4497 43.7474 60.3003 43.8882 61.4008ZM40.4978 61.4008C40.6265 60.8738 41.1018 60.4826 41.6685 60.4826C42.2351 60.4826 42.7105 60.8738 42.8392 61.4008H40.4978Z" fill="black"/>
<path fill-rule="evenodd" clip-rule="evenodd" d="M44.8066 87.9124C44.8186 88.0063 44.8248 88.1021 44.8248 88.1993V88.9453H40.3488V88.1993C40.3488 88.1021 40.355 88.0063 40.3671 87.9124C40.5079 86.8119 41.448 85.9613 42.5868 85.9613C43.7256 85.9613 44.6658 86.8119 44.8066 87.9124ZM41.4161 87.9124C41.5449 87.3854 42.0202 86.9942 42.5868 86.9942C43.1535 86.9942 43.6288 87.3854 43.7575 87.9124H41.4161Z" fill="black"/>
<path fill-rule="evenodd" clip-rule="evenodd" d="M11.9826 87.9124C11.9946 88.0063 12.0008 88.1021 12.0008 88.1993V88.9453H7.52484V88.1993C7.52484 88.1021 7.53104 88.0063 7.54306 87.9124C7.6839 86.8119 8.62404 85.9613 9.76283 85.9613C10.9016 85.9613 11.8418 86.8119 11.9826 87.9124ZM8.59213 87.9124C8.72085 87.3854 9.19616 86.9942 9.76283 86.9942C10.3295 86.9942 10.8048 87.3854 10.9335 87.9124H8.59213Z" fill="black"/>
<path fill-rule="evenodd" clip-rule="evenodd" d="M17.0331 61.4008C17.0451 61.4947 17.0513 61.5905 17.0513 61.6877V62.4337H12.5753V61.6877C12.5753 61.5905 12.5815 61.4947 12.5936 61.4008C12.7344 60.3003 13.6745 59.4497 14.8133 59.4497C15.9521 59.4497 16.8923 60.3003 17.0331 61.4008ZM13.6426 61.4008C13.7714 60.8738 14.2467 60.4826 14.8133 60.4826C15.38 60.4826 15.8553 60.8738 15.984 61.4008H13.6426Z" fill="black"/>
<path fill-rule="evenodd" clip-rule="evenodd" d="M39.4127 61.4008C39.4247 61.4947 39.4309 61.5905 39.4309 61.6877V62.4337H34.9549V61.6877C34.9549 61.5905 34.9611 61.4947 34.9731 61.4008C35.114 60.3003 36.0541 59.4497 37.1929 59.4497C38.3317 59.4497 39.2718 60.3003 39.4127 61.4008ZM36.0222 61.4008C36.1509 60.8738 36.6262 60.4826 37.1929 60.4826C37.7596 60.4826 38.2349 60.8738 38.3636 61.4008H36.0222Z" fill="black"/>
<path fill-rule="evenodd" clip-rule="evenodd" d="M40.331 87.9124C40.343 88.0063 40.3492 88.1021 40.3492 88.1993V88.9453H35.8733V88.1993C35.8733 88.1021 35.8795 88.0063 35.8915 87.9124C36.0323 86.8119 36.9725 85.9613 38.1113 85.9613C39.25 85.9613 40.1902 86.8119 40.331 87.9124ZM36.9405 87.9124C37.0693 87.3854 37.5446 86.9942 38.1113 86.9942C38.6779 86.9942 39.1532 87.3854 39.282 87.9124H36.9405Z" fill="black"/>
<path fill-rule="evenodd" clip-rule="evenodd" d="M7.50702 87.9124C7.51904 88.0063 7.52524 88.1021 7.52524 88.1993V88.9453H3.04926V88.1993C3.04926 88.1021 3.05545 88.0063 3.06748 87.9124C3.20832 86.8119 4.14845 85.9613 5.28725 85.9613C6.42604 85.9613 7.36618 86.8119 7.50702 87.9124ZM4.11654 87.9124C4.24526 87.3854 4.72058 86.9942 5.28725 86.9942C5.85392 86.9942 6.32923 87.3854 6.45795 87.9124H4.11654Z" fill="black"/>
<path fill-rule="evenodd" clip-rule="evenodd" d="M12.557 61.4008C12.569 61.4947 12.5752 61.5905 12.5752 61.6877V62.4337H8.09924V61.6877C8.09924 61.5905 8.10544 61.4947 8.11746 61.4008C8.2583 60.3003 9.19844 59.4497 10.3372 59.4497C11.476 59.4497 12.4162 60.3003 12.557 61.4008ZM9.16653 61.4008C9.29525 60.8738 9.77057 60.4826 10.3372 60.4826C10.9039 60.4826 11.3792 60.8738 11.5079 61.4008H9.16653Z" fill="black"/>
<path fill-rule="evenodd" clip-rule="evenodd" d="M34.936 61.4008C34.948 61.4947 34.9542 61.5905 34.9542 61.6877V62.4337H30.4782V61.6877C30.4782 61.5905 30.4844 61.4947 30.4965 61.4008C30.6373 60.3003 31.5774 59.4497 32.7162 59.4497C33.855 59.4497 34.7952 60.3003 34.936 61.4008ZM31.5455 61.4008C31.6742 60.8738 32.1496 60.4826 32.7162 60.4826C33.2829 60.4826 33.7582 60.8738 33.8869 61.4008H31.5455Z" fill="black"/>
<path fill-rule="evenodd" clip-rule="evenodd" d="M20.7233 104.898V91.8719C20.7233 91.2064 20.1838 90.6668 19.5183 90.6668C18.8527 90.6668 18.3132 91.2064 18.3132 91.8719V104.898H20.7233ZM19.5183 89.6339C18.2823 89.6339 17.2803 90.6359 17.2803 91.8719V105.931H21.7563V91.8719C21.7563 90.6359 20.7543 89.6339 19.5183 89.6339Z" fill="black"/>
<path fill-rule="evenodd" clip-rule="evenodd" d="M21.9861 79.7638V68.6886C21.9861 68.2132 21.6008 67.8278 21.1254 67.8278C20.65 67.8278 20.2646 68.2132 20.2646 68.6886V79.7638H21.9861ZM21.1254 66.7949C20.0795 66.7949 19.2317 67.6428 19.2317 68.6886V80.7967H23.0191V68.6886C23.0191 67.6428 22.1712 66.7949 21.1254 66.7949Z" fill="black"/>
<path fill-rule="evenodd" clip-rule="evenodd" d="M53.3175 104.898V91.8719C53.3175 91.2064 52.778 90.6668 52.1124 90.6668C51.4469 90.6668 50.9073 91.2064 50.9073 91.8719V104.898H53.3175ZM52.1124 89.6339C50.8764 89.6339 49.8744 90.6359 49.8744 91.8719V105.931H54.3504V91.8719C54.3504 90.6359 53.3484 89.6339 52.1124 89.6339Z" fill="black"/>
<path fill-rule="evenodd" clip-rule="evenodd" d="M49.9896 79.7638V68.746C49.9896 68.2389 49.5785 67.8278 49.0714 67.8278C48.5644 67.8278 48.1533 68.2389 48.1533 68.746V79.7638H49.9896ZM49.0714 66.7949C47.9939 66.7949 47.1204 67.6684 47.1204 68.746V80.7967H51.0225V68.746C51.0225 67.6684 50.149 66.7949 49.0714 66.7949Z" fill="black"/>
<path fill-rule="evenodd" clip-rule="evenodd" d="M23.8226 54.9738H10.2798C10.0263 54.9738 9.82077 55.1793 9.82077 55.4328V58.7611C9.82077 59.0147 10.0263 59.2202 10.2798 59.2202H50.908C51.1616 59.2202 51.3671 59.0147 51.3671 58.7611V55.4328C51.3671 55.1793 51.1616 54.9738 50.908 54.9738H37.2505V55.6624H50.6785V58.5316H10.5094V55.6624H23.8226V54.9738Z" fill="black"/>
<path fill-rule="evenodd" clip-rule="evenodd" d="M25.0846 43.4968H12.8736C12.6201 43.4968 12.4145 43.7024 12.4145 43.9559V47.2842C12.4145 47.5377 12.6201 47.7433 12.8736 47.7433H25.0846V47.0547H13.1031V44.1854H25.0846V43.4968ZM35.8729 47.0547H48.0609V44.1854H35.8729V43.4968H48.2904C48.544 43.4968 48.7495 43.7024 48.7495 43.9559V47.2842C48.7495 47.5377 48.544 47.7433 48.2904 47.7433H35.8729V47.0547Z" fill="black"/>
<path fill-rule="evenodd" clip-rule="evenodd" d="M24.8547 37.9879H13.4798C13.2263 37.9879 13.0208 38.1935 13.0208 38.447V41.7753C13.0208 42.0288 13.2263 42.2344 13.4798 42.2344H24.8547V41.5458H13.7094V38.6765H24.8547V37.9879ZM36.1021 41.5458H47.3563V38.6765H36.1021V37.9879H47.5858C47.8394 37.9879 48.0449 38.1934 48.0449 38.447V41.7753C48.0449 42.0288 47.8394 42.2344 47.5858 42.2344H36.1021V41.5458Z" fill="black"/>
<path fill-rule="evenodd" clip-rule="evenodd" d="M25.1803 33.0187H14.6158C14.3623 33.0187 14.1568 33.2242 14.1568 33.4778V36.806C14.1568 37.0596 14.3623 37.2651 14.6158 37.2651H25.1803V36.5765H14.8454V33.7073H25.1803V33.0187ZM35.6342 36.5765H46.0702V33.7073H35.6342V33.0187H46.2997C46.5532 33.0187 46.7588 33.2242 46.7588 33.4778V36.806C46.7588 37.0596 46.5532 37.2651 46.2997 37.2651H35.6342V36.5765Z" fill="black"/>
<path fill-rule="evenodd" clip-rule="evenodd" d="M25.1803 26.6293H14.6158C14.3623 26.6293 14.1568 26.8348 14.1568 27.0883V31.6381C14.1568 31.8916 14.3623 32.0972 14.6158 32.0972H25.1803V31.4086H14.8454V27.3179H25.1803V26.6293ZM35.6342 31.4086H46.0702V27.3179H35.6342V26.6293H46.2997C46.5532 26.6293 46.7588 26.8348 46.7588 27.0883V31.6381C46.7588 31.8916 46.5532 32.0972 46.2997 32.0972H35.6342V31.4086Z" fill="black"/>
<path fill-rule="evenodd" clip-rule="evenodd" d="M25.1997 36.6448H13.5132C13.2597 36.6448 13.0542 36.8503 13.0542 37.1039V38.4128C13.0542 38.6664 13.2597 38.8719 13.5132 38.8719H25.1997V38.1833H13.7428V37.3334H25.1997V36.6448ZM36.2175 38.1833H47.3897V37.3334H36.2175V36.6448H47.6193C47.8728 36.6448 48.0783 36.8503 48.0783 37.1039V38.4128C48.0783 38.6664 47.8728 38.8719 47.6193 38.8719H36.2175V38.1833Z" fill="black"/>
<path fill-rule="evenodd" clip-rule="evenodd" d="M14.1869 31.6757C13.9334 31.6757 13.7278 31.8812 13.7278 32.1347V33.4437C13.7278 33.6973 13.9334 33.9028 14.1869 33.9028H26.118V33.2142H14.4165V32.3643H26.118V31.6757H14.1869ZM35.0699 31.6757V32.3643H46.6508V33.2142H35.0699V33.9028H46.8804C47.1339 33.9028 47.3395 33.6973 47.3395 33.4437V32.1347C47.3395 31.8812 47.1339 31.6757 46.8804 31.6757H35.0699Z" fill="black"/>
<path fill-rule="evenodd" clip-rule="evenodd" d="M16.0905 17.3295C15.837 17.3295 15.6315 17.535 15.6315 17.7885V19.0975C15.6315 19.3511 15.837 19.5566 16.0905 19.5566H27.0361V18.868H16.3201V18.0181H27.0361V17.3295H16.0905ZM34.1517 17.3295V18.0181H44.6182V18.868H34.1517V19.5566H44.8478C45.1013 19.5566 45.3069 19.3511 45.3069 19.0975V17.7885C45.3069 17.535 45.1013 17.3295 44.8478 17.3295H34.1517Z" fill="black"/>
<path fill-rule="evenodd" clip-rule="evenodd" d="M15.419 25.019C15.1655 25.019 14.9599 25.2246 14.9599 25.4781V26.7871C14.9599 27.0406 15.1655 27.2462 15.419 27.2462H25.6585V26.5576H15.6485V25.7077H25.6585V25.019H15.419ZM35.2991 25.019V25.7077H45.5258V26.5576H35.2991V27.2462H45.7553C46.0089 27.2462 46.2144 27.0406 46.2144 26.7871V25.4781C46.2144 25.2246 46.0089 25.019 45.7553 25.019H35.2991Z" fill="black"/>
<path fill-rule="evenodd" clip-rule="evenodd" d="M17.3715 14.0734C17.1179 14.0734 16.9124 14.2789 16.9124 14.5324V17.1892C16.9124 17.4428 17.1179 17.6483 17.3715 17.6483H27.0352V16.9597H17.601V14.762H27.0352V14.6899H34.1509V14.762H43.8339V16.9597H34.1509V17.6483H44.0635C44.317 17.6483 44.5225 17.4428 44.5225 17.1892V14.5324C44.5225 14.2789 44.317 14.0734 44.0635 14.0734H17.3715Z" fill="black"/>
<path fill-rule="evenodd" clip-rule="evenodd" d="M18.9805 9.30872C18.7269 9.30872 18.5214 9.51425 18.5214 9.76779V14.25C18.5214 14.5036 18.7269 14.7091 18.9805 14.7091H27.3944V14.0205H19.21V9.99733H42.0018V14.0205H33.6005V14.7091H42.2314C42.4849 14.7091 42.6905 14.5036 42.6905 14.25V9.76779C42.6905 9.51425 42.4849 9.30872 42.2314 9.30872H18.9805Z" fill="black"/>
<path fill-rule="evenodd" clip-rule="evenodd" d="M20.005 8.17688C19.7515 8.17688 19.5459 8.38241 19.5459 8.63596V9.60883C19.5459 9.86237 19.7515 10.0679 20.005 10.0679H27.7017V9.37929H20.2345V8.86549H27.7017V8.63457H33.386V8.86549H41.0518V9.37929H33.386V10.0679H41.2814C41.5349 10.0679 41.7405 9.86237 41.7405 9.60883V8.63596C41.7405 8.38241 41.5349 8.17688 41.2814 8.17688H20.005Z" fill="black"/>
<path fill-rule="evenodd" clip-rule="evenodd" d="M19.5757 7.3447C19.5757 7.09115 19.7812 6.88562 20.0347 6.88562H41.3111C41.5646 6.88562 41.7702 7.09115 41.7702 7.3447V8.43234V8.77665H41.4259H19.92H19.5757V8.43234V7.3447ZM20.2643 7.57423V8.08803H41.0816V7.57423H20.2643Z" fill="black"/>
<path fill-rule="evenodd" clip-rule="evenodd" d="M19.5757 5.73788C19.5757 5.48434 19.7812 5.27881 20.0347 5.27881H41.3111C41.5646 5.27881 41.7702 5.48434 41.7702 5.73788V6.82553V7.16984H41.4259H19.92H19.5757V6.82553V5.73788ZM20.2643 5.96742V6.48122H41.0816V5.96742H20.2643Z" fill="black"/>
<path fill-rule="evenodd" clip-rule="evenodd" d="M19.5757 4.13119C19.5757 3.87765 19.7812 3.67212 20.0347 3.67212H41.3111C41.5646 3.67212 41.7702 3.87765 41.7702 4.13119V5.21884V5.56315H41.4259H19.92H19.5757V5.21884V4.13119ZM20.2643 4.36073V4.87453H41.0816V4.36073H20.2643Z" fill="black"/>
<path fill-rule="evenodd" clip-rule="evenodd" d="M21.451 9.94116C21.1975 9.94116 20.992 10.1467 20.992 10.4002V14.293C20.992 14.5465 21.1975 14.7521 21.451 14.7521H28.0742V14.0635H21.6806V10.6298H39.5425V14.0635H32.9774V14.7521H39.772C40.0256 14.7521 40.2311 14.5465 40.2311 14.293V10.4002C40.2311 10.1467 40.0256 9.94116 39.772 9.94116H21.451Z" fill="black"/>
<path fill-rule="evenodd" clip-rule="evenodd" d="M25.1998 41.2588L13.4933 41.2588H12.1735V43.8985L13.4933 43.8985L25.1998 43.8985V41.2588ZM35.988 43.8985L47.6945 43.8985H49.0143V41.2588L47.6945 41.2588L35.988 41.2588V43.8985Z" fill="black"/>
<path fill-rule="evenodd" clip-rule="evenodd" d="M23.8218 47.399H11.6563C11.4028 47.399 11.1973 47.6046 11.1973 47.8581V49.0058C11.1973 49.2594 11.4028 49.4649 11.6563 49.4649H23.8218V48.7763H11.8859V48.0877H23.8218V47.399ZM37.2498 48.7763H49.071V48.0877H37.2498V47.399H49.3005C49.5541 47.399 49.7596 47.6046 49.7596 47.8581V49.0058C49.7596 49.2594 49.5541 49.4649 49.3005 49.4649H37.2498V48.7763Z" fill="black"/>
<path fill-rule="evenodd" clip-rule="evenodd" d="M11.0825 49.0056C10.8289 49.0056 10.6234 49.2112 10.6234 49.4647V50.6124C10.6234 50.8659 10.8289 51.0715 11.0825 51.0715H24.1661V50.3828H11.312V49.6942H24.1661V49.0056H11.0825ZM37.2498 49.0056V49.6942H49.9891V50.3828H37.2498V51.0715H50.2187C50.4722 51.0715 50.6778 50.8659 50.6778 50.6124V49.4647C50.6778 49.2112 50.4722 49.0056 50.2187 49.0056H37.2498Z" fill="black"/>
<path fill-rule="evenodd" clip-rule="evenodd" d="M37.3652 23.2974H23.7077V24.5599H37.3652V23.2974ZM22.6748 22.2645V25.5928H38.3981V22.2645H22.6748Z" fill="black"/>
<path fill-rule="evenodd" clip-rule="evenodd" d="M17.3372 22.2645C17.5274 22.2645 17.6816 22.4187 17.6816 22.609L17.6816 23.757C17.6816 23.9473 17.5274 24.1015 17.3372 24.1015C17.1469 24.1015 16.9927 23.9473 16.9927 23.757L16.9927 22.609C16.9927 22.4187 17.1469 22.2645 17.3372 22.2645Z" fill="black"/>
<path fill-rule="evenodd" clip-rule="evenodd" d="M38.6269 22.2645C38.8171 22.2645 38.9713 22.4187 38.9713 22.609L38.9713 23.757C38.9713 23.9473 38.8171 24.1015 38.6269 24.1015C38.4367 24.1015 38.2825 23.9473 38.2825 23.757L38.2825 22.609C38.2825 22.4187 38.4367 22.2645 38.6269 22.2645Z" fill="black"/>
<path fill-rule="evenodd" clip-rule="evenodd" d="M18.3139 22.2645C18.5042 22.2645 18.6584 22.4187 18.6584 22.609L18.6584 23.757C18.6584 23.9473 18.5042 24.1015 18.3139 24.1015C18.1237 24.1015 17.9695 23.9473 17.9695 23.757L17.9695 22.609C17.9695 22.4187 18.1237 22.2645 18.3139 22.2645Z" fill="black"/>
<path fill-rule="evenodd" clip-rule="evenodd" d="M39.6031 22.2645C39.7933 22.2645 39.9475 22.4187 39.9475 22.609L39.9475 23.757C39.9475 23.9473 39.7933 24.1015 39.6031 24.1015C39.4129 24.1015 39.2587 23.9473 39.2587 23.757L39.2587 22.609C39.2587 22.4187 39.4129 22.2645 39.6031 22.2645Z" fill="black"/>
<path fill-rule="evenodd" clip-rule="evenodd" d="M28.2982 9.98425C28.5517 9.98425 28.7572 10.1898 28.7572 10.4433L28.7572 14.2307C28.7572 14.4842 28.5517 14.6898 28.2982 14.6898C28.0446 14.6898 27.8391 14.4842 27.8391 14.2307L27.8391 10.4433C27.8391 10.1898 28.0446 9.98425 28.2982 9.98425Z" fill="black"/>
<path fill-rule="evenodd" clip-rule="evenodd" d="M27.4944 17.2147C27.748 17.2147 27.9535 17.4203 27.9535 17.6738L27.9535 21.4612C27.9535 21.7147 27.748 21.9202 27.4944 21.9202C27.2409 21.9202 27.0354 21.7147 27.0354 21.4612L27.0354 17.6738C27.0354 17.4203 27.2409 17.2147 27.4944 17.2147Z" fill="black"/>
<path fill-rule="evenodd" clip-rule="evenodd" d="M31.2826 9.98425C31.5361 9.98425 31.7417 10.1898 31.7417 10.4433L31.7417 14.2307C31.7417 14.4842 31.5361 14.6898 31.2826 14.6898C31.0291 14.6898 30.8235 14.4842 30.8235 14.2307L30.8235 10.4433C30.8235 10.1898 31.0291 9.98425 31.2826 9.98425Z" fill="black"/>
<path fill-rule="evenodd" clip-rule="evenodd" d="M31.7412 17.2147C31.9948 17.2147 32.2003 17.4203 32.2003 17.6738L32.2003 21.4612C32.2003 21.7147 31.9948 21.9202 31.7412 21.9202C31.4877 21.9202 31.2822 21.7147 31.2822 21.4612L31.2822 17.6738C31.2822 17.4203 31.4877 17.2147 31.7412 17.2147Z" fill="black"/>
<path fill-rule="evenodd" clip-rule="evenodd" d="M29.7899 9.98425C30.0434 9.98425 30.2489 10.1898 30.2489 10.4433L30.2489 14.2307C30.2489 14.4842 30.0434 14.6898 29.7899 14.6898C29.5363 14.6898 29.3308 14.4842 29.3308 14.2307L29.3308 10.4433C29.3308 10.1898 29.5363 9.98425 29.7899 9.98425Z" fill="black"/>
<path fill-rule="evenodd" clip-rule="evenodd" d="M29.561 17.2147C29.8146 17.2147 30.0201 17.4203 30.0201 17.6738L30.0201 21.4612C30.0201 21.7147 29.8146 21.9202 29.561 21.9202C29.3075 21.9202 29.102 21.7147 29.102 21.4612L29.102 17.6738C29.102 17.4203 29.3075 17.2147 29.561 17.2147Z" fill="black"/>
<path fill-rule="evenodd" clip-rule="evenodd" d="M32.7743 9.98425C33.0278 9.98425 33.2333 10.1898 33.2333 10.4433L33.2333 14.2307C33.2333 14.4842 33.0278 14.6898 32.7743 14.6898C32.5207 14.6898 32.3152 14.4842 32.3152 14.2307L32.3152 10.4433C32.3152 10.1898 32.5207 9.98425 32.7743 9.98425Z" fill="black"/>
<path fill-rule="evenodd" clip-rule="evenodd" d="M33.8068 17.2147C34.0603 17.2147 34.2659 17.4203 34.2659 17.6738L34.2659 21.4612C34.2659 21.7147 34.0603 21.9202 33.8068 21.9202C33.5533 21.9202 33.3477 21.7147 33.3477 21.4612L33.3477 17.6738C33.3477 17.4203 33.5533 17.2147 33.8068 17.2147Z" fill="black"/>
<path fill-rule="evenodd" clip-rule="evenodd" d="M19.3459 22.2645C19.5361 22.2645 19.6903 22.4187 19.6903 22.609L19.6903 23.757C19.6903 23.9473 19.5361 24.1015 19.3459 24.1015C19.1557 24.1015 19.0015 23.9473 19.0015 23.757L19.0015 22.609C19.0015 22.4187 19.1557 22.2645 19.3459 22.2645Z" fill="black"/>
<path fill-rule="evenodd" clip-rule="evenodd" d="M40.6351 22.2645C40.8253 22.2645 40.9795 22.4187 40.9795 22.609L40.9795 23.757C40.9795 23.9473 40.8253 24.1015 40.6351 24.1015C40.4448 24.1015 40.2906 23.9473 40.2906 23.757L40.2906 22.609C40.2906 22.4187 40.4448 22.2645 40.6351 22.2645Z" fill="black"/>
<path fill-rule="evenodd" clip-rule="evenodd" d="M20.3789 22.2645C20.5692 22.2645 20.7234 22.4187 20.7234 22.609L20.7234 23.757C20.7234 23.9473 20.5692 24.1015 20.3789 24.1015C20.1887 24.1015 20.0345 23.9473 20.0345 23.757L20.0345 22.609C20.0345 22.4187 20.1887 22.2645 20.3789 22.2645Z" fill="black"/>
<path fill-rule="evenodd" clip-rule="evenodd" d="M26.4614 34.8892C26.6516 34.8892 26.8058 35.0434 26.8058 35.2336L26.8058 36.3817C26.8058 36.5719 26.6516 36.7261 26.4614 36.7261C26.2712 36.7261 26.117 36.5719 26.117 36.3817L26.117 35.2336C26.117 35.0434 26.2712 34.8892 26.4614 34.8892Z" fill="black"/>
<path fill-rule="evenodd" clip-rule="evenodd" d="M27.839 34.8892C28.0292 34.8892 28.1834 35.0434 28.1834 35.2336L28.1834 36.3817C28.1834 36.5719 28.0292 36.7261 27.839 36.7261C27.6487 36.7261 27.4945 36.5719 27.4945 36.3817L27.4945 35.2336C27.4945 35.0434 27.6487 34.8892 27.839 34.8892Z" fill="black"/>
<path fill-rule="evenodd" clip-rule="evenodd" d="M29.2165 34.8892C29.4067 34.8892 29.5609 35.0434 29.5609 35.2336L29.5609 36.3817C29.5609 36.5719 29.4067 36.7261 29.2165 36.7261C29.0263 36.7261 28.8721 36.5719 28.8721 36.3817L28.8721 35.2336C28.8721 35.0434 29.0263 34.8892 29.2165 34.8892Z" fill="black"/>
<path fill-rule="evenodd" clip-rule="evenodd" d="M30.593 34.8892C30.7832 34.8892 30.9374 35.0434 30.9374 35.2336L30.9374 36.3817C30.9374 36.5719 30.7832 36.7261 30.593 36.7261C30.4028 36.7261 30.2486 36.5719 30.2486 36.3817L30.2486 35.2336C30.2486 35.0434 30.4028 34.8892 30.593 34.8892Z" fill="black"/>
<path fill-rule="evenodd" clip-rule="evenodd" d="M31.9711 34.8892C32.1613 34.8892 32.3155 35.0434 32.3155 35.2336L32.3155 36.3817C32.3155 36.5719 32.1613 36.7261 31.9711 36.7261C31.7809 36.7261 31.6267 36.5719 31.6267 36.3817L31.6267 35.2336C31.6267 35.0434 31.7809 34.8892 31.9711 34.8892Z" fill="black"/>
<path fill-rule="evenodd" clip-rule="evenodd" d="M33.3481 34.8892C33.5383 34.8892 33.6925 35.0434 33.6925 35.2336L33.6925 36.3817C33.6925 36.5719 33.5383 36.7261 33.3481 36.7261C33.1579 36.7261 33.0037 36.5719 33.0037 36.3817L33.0037 35.2336C33.0037 35.0434 33.1579 34.8892 33.3481 34.8892Z" fill="black"/>
<path fill-rule="evenodd" clip-rule="evenodd" d="M34.7251 34.8892C34.9153 34.8892 35.0695 35.0434 35.0695 35.2336L35.0695 36.3817C35.0695 36.5719 34.9153 36.7261 34.7251 36.7261C34.5349 36.7261 34.3807 36.5719 34.3807 36.3817L34.3807 35.2336C34.3807 35.0434 34.5349 34.8892 34.7251 34.8892Z" fill="black"/>
<path fill-rule="evenodd" clip-rule="evenodd" d="M41.6686 22.2645C41.8589 22.2645 42.0131 22.4187 42.0131 22.609L42.0131 23.757C42.0131 23.9473 41.8589 24.1015 41.6686 24.1015C41.4784 24.1015 41.3242 23.9473 41.3242 23.757L41.3242 22.609C41.3242 22.4187 41.4784 22.2645 41.6686 22.2645Z" fill="black"/>
<path fill-rule="evenodd" clip-rule="evenodd" d="M21.412 22.2645C21.6022 22.2645 21.7564 22.4187 21.7564 22.609L21.7564 23.757C21.7564 23.9473 21.6022 24.1015 21.412 24.1015C21.2217 24.1015 21.0675 23.9473 21.0675 23.757L21.0675 22.609C21.0675 22.4187 21.2217 22.2645 21.412 22.2645Z" fill="black"/>
<path fill-rule="evenodd" clip-rule="evenodd" d="M27.1498 15.4932C27.1498 15.3031 27.304 15.1489 27.4941 15.1489H34.0359C34.2261 15.1489 34.3802 15.3031 34.3802 15.4932C34.3802 15.6834 34.2261 15.8375 34.0359 15.8375H27.4941C27.304 15.8375 27.1498 15.6834 27.1498 15.4932Z" fill="black"/>
<path fill-rule="evenodd" clip-rule="evenodd" d="M42.7017 22.2645C42.8919 22.2645 43.0461 22.4187 43.0461 22.609L43.0461 23.757C43.0461 23.9473 42.8919 24.1015 42.7017 24.1015C42.5115 24.1015 42.3573 23.9473 42.3573 23.757L42.3573 22.609C42.3573 22.4187 42.5115 22.2645 42.7017 22.2645Z" fill="black"/>
<path fill-rule="evenodd" clip-rule="evenodd" d="M22.445 22.2645C22.6352 22.2645 22.7894 22.4187 22.7894 22.609L22.7894 23.757C22.7894 23.9473 22.6352 24.1015 22.445 24.1015C22.2548 24.1015 22.1006 23.9473 22.1006 23.757L22.1006 22.609C22.1006 22.4187 22.2548 22.2645 22.445 22.2645Z" fill="black"/>
<path fill-rule="evenodd" clip-rule="evenodd" d="M43.7347 22.2645C43.9249 22.2645 44.0791 22.4187 44.0791 22.609L44.0791 23.757C44.0791 23.9473 43.9249 24.1015 43.7347 24.1015C43.5445 24.1015 43.3903 23.9473 43.3903 23.757L43.3903 22.609C43.3903 22.4187 43.5445 22.2645 43.7347 22.2645Z" fill="black"/>
<path fill-rule="evenodd" clip-rule="evenodd" d="M22.4449 3.32776V3.1556C22.4449 2.80699 22.1623 2.52437 21.8137 2.52437C21.465 2.52437 21.1824 2.80699 21.1824 3.1556V3.32776H22.4449ZM21.8137 1.49146C20.8946 1.49146 20.1495 2.23652 20.1495 3.1556V4.36068H23.4778V3.1556C23.4778 2.23652 22.7327 1.49146 21.8137 1.49146Z" fill="black"/>
<path fill-rule="evenodd" clip-rule="evenodd" d="M26.0027 3.32776V3.1556C26.0027 2.80699 25.72 2.52437 25.3714 2.52437C25.0228 2.52437 24.7402 2.80699 24.7402 3.1556V3.32776H26.0027ZM25.3714 1.49146C24.4523 1.49146 23.7073 2.23652 23.7073 3.1556V4.36068H27.0356V3.1556C27.0356 2.23652 26.2905 1.49146 25.3714 1.49146Z" fill="black"/>
<path fill-rule="evenodd" clip-rule="evenodd" d="M29.5609 3.32776V3.1556C29.5609 2.80699 29.2783 2.52437 28.9297 2.52437C28.5811 2.52437 28.2985 2.80699 28.2985 3.1556V3.32776H29.5609ZM28.9297 1.49146C28.0106 1.49146 27.2655 2.23652 27.2655 3.1556V4.36068H30.5938V3.1556C30.5938 2.23652 29.8488 1.49146 28.9297 1.49146Z" fill="black"/>
<path fill-rule="evenodd" clip-rule="evenodd" d="M33.1181 3.32776V3.1556C33.1181 2.80699 32.8355 2.52437 32.4869 2.52437C32.1383 2.52437 31.8557 2.80699 31.8557 3.1556V3.32776H33.1181ZM32.4869 1.49146C31.5678 1.49146 30.8228 2.23652 30.8228 3.1556V4.36068H34.1511V3.1556C34.1511 2.23652 33.406 1.49146 32.4869 1.49146Z" fill="black"/>
<path fill-rule="evenodd" clip-rule="evenodd" d="M36.6759 3.32776V3.1556C36.6759 2.80699 36.3933 2.52437 36.0447 2.52437C35.6961 2.52437 35.4134 2.80699 35.4134 3.1556V3.32776H36.6759ZM36.0447 1.49146C35.1256 1.49146 34.3805 2.23652 34.3805 3.1556V4.36068H37.7088V3.1556C37.7088 2.23652 36.9638 1.49146 36.0447 1.49146Z" fill="black"/>
<path fill-rule="evenodd" clip-rule="evenodd" d="M40.2347 3.32776V3.1556C40.2347 2.80699 39.9521 2.52437 39.6035 2.52437C39.2549 2.52437 38.9723 2.80699 38.9723 3.1556V3.32776H40.2347ZM39.6035 1.49146C38.6844 1.49146 37.9393 2.23652 37.9393 3.1556V4.36068H41.2676V3.1556C41.2676 2.23652 40.5226 1.49146 39.6035 1.49146Z" fill="black"/>
<path fill-rule="evenodd" clip-rule="evenodd" d="M22.6748 1.43431C22.6748 1.24046 22.6108 1.06158 22.5027 0.917668C22.3456 0.708525 22.0955 0.573242 21.8138 0.573242C21.5321 0.573242 21.2819 0.708525 21.1248 0.917668C21.0168 1.06158 20.9527 1.24046 20.9527 1.43431V1.95094H22.6748V1.43431Z" fill="black"/>
<path fill-rule="evenodd" clip-rule="evenodd" d="M26.2336 1.43431C26.2336 1.24046 26.1696 1.06158 26.0615 0.917668C25.9044 0.708525 25.6543 0.573242 25.3726 0.573242C25.0909 0.573242 24.8407 0.708525 24.6837 0.917668C24.5756 1.06158 24.5115 1.24046 24.5115 1.43431V1.95094H26.2336V1.43431Z" fill="black"/>
<path fill-rule="evenodd" clip-rule="evenodd" d="M29.7909 1.43431C29.7909 1.24046 29.7268 1.06158 29.6187 0.917668C29.4616 0.708525 29.2115 0.573242 28.9298 0.573242C28.6481 0.573242 28.398 0.708525 28.2409 0.917668C28.1328 1.06158 28.0687 1.24046 28.0687 1.43431V1.95094H29.7909V1.43431Z" fill="black"/>
<path fill-rule="evenodd" clip-rule="evenodd" d="M33.3486 1.43431C33.3486 1.24046 33.2845 1.06158 33.1764 0.917668C33.0193 0.708525 32.7692 0.573242 32.4875 0.573242C32.2058 0.573242 31.9557 0.708525 31.7986 0.917668C31.6905 1.06158 31.6265 1.24046 31.6265 1.43431V1.95094H33.3486V1.43431Z" fill="black"/>
<path fill-rule="evenodd" clip-rule="evenodd" d="M36.9064 1.43431C36.9064 1.24046 36.8423 1.06158 36.7342 0.917668C36.5771 0.708525 36.327 0.573242 36.0453 0.573242C35.7636 0.573242 35.5135 0.708525 35.3564 0.917668C35.2483 1.06158 35.1842 1.24046 35.1842 1.43431V1.95094H36.9064V1.43431Z" fill="black"/>
<path fill-rule="evenodd" clip-rule="evenodd" d="M40.4641 1.43431C40.4641 1.24046 40.4 1.06158 40.292 0.917668C40.1349 0.708525 39.8847 0.573242 39.603 0.573242C39.3213 0.573242 39.0712 0.708525 38.9141 0.917668C38.806 1.06158 38.742 1.24046 38.742 1.43431V1.95094H40.4641V1.43431Z" fill="black"/>
<path fill-rule="evenodd" clip-rule="evenodd" d="M33.5776 9.75481H27.4949V8.26282H33.5776V9.75481Z" fill="black"/>
<path d="M26.6912 16.0671C26.6912 15.9403 26.7939 15.8375 26.9207 15.8375H34.3807C34.5074 15.8375 34.6102 15.9403 34.6102 16.0671V17.4443C34.6102 17.5711 34.5074 17.6738 34.3807 17.6738H26.9207C26.7939 17.6738 26.6912 17.5711 26.6912 17.4443V16.0671Z" fill="black"/>
<path d="M27.4949 14.5751H34.0367V15.1489H27.4949V14.5751Z" fill="black"/>
<path d="M26.6912 21.1168H34.6102V22.9531H26.6912V21.1168Z" fill="black"/>
<path fill-rule="evenodd" clip-rule="evenodd" d="M35.6426 35.5777H25.4282V36.2663H35.6426V35.5777ZM24.3952 34.5448V37.2993H36.6755V34.5448H24.3952Z" fill="black"/>
<path d="M25.6587 25.9371H35.6436V28.6916H25.6587V25.9371Z" fill="black"/>
<path fill-rule="evenodd" clip-rule="evenodd" d="M34.6106 26.9701H26.6916V27.6587H34.6106V26.9701ZM25.6587 25.9371V28.6916H35.6436V25.9371H25.6587Z" fill="black"/>
</svg>
