<svg width="46" height="46" viewBox="0 0 46 46" fill="none" xmlns="http://www.w3.org/2000/svg">
<g clip-path="url(#clip0_47_6418)">
<path d="M22.4609 46C22.1974 45.8802 21.9099 45.7844 21.6583 45.6287C20.7599 45.1016 20.2927 44.299 20.3047 43.2568C20.3167 42.2146 20.8198 41.424 21.7302 40.9328C22.0057 40.7891 22.1255 40.6453 22.1016 40.3339C22.0656 40.0104 22.1974 39.5912 22.0297 39.3755C21.8979 39.2078 21.4427 39.2797 21.1313 39.2438C17.849 38.8365 14.95 37.5906 12.4344 35.4464C12.1469 35.1948 12.0151 35.2308 11.7635 35.4823C11.0208 36.261 10.2542 37.0156 9.47552 37.7703C9.30781 37.938 9.2599 38.0578 9.36771 38.2974C10.1104 40.0344 9.24792 41.987 7.48698 42.6099C5.77396 43.2209 3.85729 42.2505 3.31823 40.5255C2.76719 38.7287 3.83333 36.8839 5.66615 36.4287C6.34896 36.261 7.04375 36.3089 7.67865 36.6084C7.91823 36.7282 8.03802 36.6683 8.20573 36.5005C8.99636 35.6979 9.78698 34.9073 10.5896 34.1167C10.7573 33.949 10.7932 33.8531 10.6255 33.6495C8.48125 31.1578 7.19948 28.2828 6.76823 25.0245C6.76823 24.9766 6.75625 24.9407 6.74427 24.8927C6.68438 24.5573 6.84011 24.0662 6.57656 23.9344C6.25313 23.7787 5.78594 23.8985 5.39063 23.8745C5.22292 23.8625 5.19896 23.9823 5.13906 24.0782C4.57604 25.2042 3.65365 25.7672 2.41979 25.6474C1.19792 25.5276 0.407293 24.8089 0.071876 23.611C0.0598969 23.575 0.0239594 23.5511 -0.0119781 23.5151C-0.0119781 23.1558 -0.0119781 22.7964 -0.0119781 22.437C0.131772 22.3532 0.0958344 22.1974 0.143751 22.0776C0.563022 20.9995 1.35365 20.3766 2.50365 20.2927C3.65365 20.2089 4.52813 20.736 5.06719 21.7422C5.19896 21.9938 5.31875 22.0896 5.59427 22.0776C6.15729 22.0537 6.73229 22.0656 7.29531 22.0656C8.09792 22.0656 8.40938 22.3651 8.42136 23.1677C8.54115 27.5521 10.2542 31.1938 13.5724 34.0448C16.1839 36.2849 19.2385 37.4229 22.6766 37.5068C23.6109 37.5308 23.8745 37.7943 23.8745 38.7287C23.8745 39.2797 23.8865 39.8308 23.8745 40.3938C23.8625 40.6334 23.9344 40.7532 24.162 40.861C25.2161 41.3761 25.8031 42.4781 25.6594 43.5802C25.5156 44.7422 24.713 45.6047 23.5271 45.8922C23.4911 45.9042 23.4552 45.9401 23.4313 45.9641C23.1198 46 22.7964 46 22.4609 46Z" fill="black"/>
<path d="M23.4552 0C23.7787 0.131771 24.126 0.215625 24.4255 0.407292C26.1865 1.50937 26.1026 4.09687 24.2578 5.06719C23.9823 5.21094 23.8625 5.36667 23.8984 5.66615C23.9344 5.98958 23.8146 6.40885 23.9703 6.62448C24.1021 6.79219 24.5573 6.72031 24.8688 6.75625C28.1391 7.16354 31.05 8.40937 33.5656 10.5536C33.8531 10.8052 33.9849 10.7693 34.2365 10.5177C34.9792 9.73906 35.7458 8.98437 36.5245 8.22969C36.6922 8.06198 36.7401 7.94219 36.6323 7.7026C35.8896 5.96563 36.7521 4.01302 38.513 3.3901C40.238 2.75521 42.1667 3.7375 42.6818 5.51042C43.2089 7.30729 42.1307 9.15208 40.2859 9.57135C39.6151 9.72708 38.9443 9.67917 38.3094 9.37969C38.0698 9.2599 37.95 9.31979 37.7823 9.4875C36.9917 10.2901 36.201 11.0807 35.3984 11.8714C35.2307 12.0391 35.1948 12.1349 35.3625 12.3385C37.6745 15.0339 38.9922 18.1365 39.2797 21.6823C39.3037 22.0057 39.3995 22.1854 39.7469 22.1135C39.7589 22.1135 39.7828 22.1135 39.7948 22.1135C40.3938 22.1974 40.7891 22.0536 41.1365 21.4667C41.6995 20.5323 42.6578 20.1729 43.7359 20.3646C44.874 20.5682 45.5927 21.263 45.9042 22.3771C45.9281 22.449 45.9042 22.5328 45.988 22.5687C45.988 22.9042 45.988 23.2276 45.988 23.563C45.8443 23.6349 45.8802 23.8026 45.8323 23.9224C45.413 25.0005 44.6224 25.6234 43.4724 25.7073C42.3224 25.7911 41.4479 25.2641 40.9089 24.2458C40.7771 23.9943 40.6573 23.8984 40.3818 23.9104C39.7948 23.9344 39.2198 23.9224 38.6328 23.9224C37.8901 23.9224 37.5667 23.599 37.5547 22.8682C37.4469 18.5198 35.7698 14.8901 32.5115 12.0271C29.9 9.73906 26.8214 8.57708 23.3474 8.48125C22.3531 8.44531 22.1135 8.20573 22.1135 7.21146C22.1135 6.66042 22.1016 6.10937 22.1135 5.54635C22.1135 5.34271 22.0537 5.2349 21.862 5.13906C20.7719 4.57604 20.1849 3.52187 20.3287 2.39583C20.4724 1.22187 21.251 0.395313 22.5089 0.071875C22.5328 0.071875 22.5448 0.0359375 22.5688 0.0119792C22.8563 0 23.1557 0 23.4552 0Z" fill="black"/>
<path d="M28.9177 12.674C29.5286 13.1053 30.1396 13.5365 30.7505 13.9678C30.8104 14.0995 30.7385 14.1954 30.6906 14.3032C30.5349 14.6506 30.6187 14.962 30.8823 15.1896C31.1339 15.4172 31.4333 15.4652 31.7568 15.2855C31.8526 15.2375 31.9365 15.1058 32.0682 15.2136C32.0802 15.5131 32.3557 15.6568 32.4875 15.8724C32.751 16.2917 33.0505 16.6751 33.326 17.0823C32.8109 17.7172 33.0625 18.3162 33.3141 18.987C34.7875 23.012 34.2125 26.7495 31.4932 30.0678C29.1453 32.9308 26.0187 34.2724 22.3411 34.0448C18.5797 33.8172 15.6328 32.0204 13.5964 28.8219C12.3385 26.8334 11.7755 24.6532 11.9432 22.3172C12.1708 19.1428 13.5005 16.4834 15.9922 14.4469C18.2083 12.6261 20.7599 11.8115 23.6109 11.9313C24.7969 11.9792 25.9589 12.2308 27.0609 12.698C27.6958 12.9735 28.2948 13.1771 28.9177 12.674Z" fill="#8ED4F2"/>
<path d="M28.9177 12.6739C28.4865 13.237 28.175 13.3088 27.4802 13.0093C21.8859 10.5536 15.4771 13.0094 12.9854 18.5677C10.0865 25.0364 14.1474 32.6312 21.1312 33.8052C27.2526 34.8234 32.9786 30.6786 33.8531 24.5812C34.1526 22.4849 33.8771 20.4724 33.0026 18.5317C32.6911 17.837 32.775 17.5255 33.326 17.0942C34.0448 16.9505 34.3323 17.1062 34.6318 17.7771C38.1297 25.5515 33.1224 34.5479 24.6771 35.662C17.7172 36.5724 11.2484 31.625 10.35 24.6771C9.43958 17.6932 14.363 11.2604 21.3229 10.35C23.7187 10.0385 26.0307 10.3739 28.2349 11.3682C28.9057 11.6677 29.0495 11.9432 28.9177 12.6739Z" fill="black"/>
<path d="M9.64323 6.301C9.65521 6.84006 9.58333 7.29527 9.37969 7.69058C9.25989 7.93017 9.31979 8.04996 9.4875 8.21767C10.362 9.08017 11.2245 9.94267 12.087 10.8171C12.3984 11.1286 12.5182 11.5 12.3026 11.9192C12.1109 12.3026 11.7875 12.4463 11.3802 12.3984C11.1047 12.3744 10.925 12.1948 10.7453 12.0151C9.90677 11.1765 9.06823 10.35 8.24167 9.51142C8.06198 9.33173 7.94219 9.27183 7.67864 9.39163C5.95364 10.1343 3.98906 9.25985 3.36614 7.48694C2.75521 5.726 3.76146 3.80933 5.55833 3.30621C7.35521 2.80308 9.2 3.92912 9.58333 5.76194C9.63125 5.96558 9.63125 6.18121 9.64323 6.301Z" fill="black"/>
<path d="M36.3568 39.5912C36.3568 39.136 36.4286 38.6928 36.6323 38.2855C36.7401 38.0818 36.7042 37.9501 36.5365 37.7943C35.674 36.9438 34.8234 36.0813 33.9609 35.2308C33.7573 35.0271 33.5896 34.7995 33.5896 34.4881C33.5896 34.1047 33.7573 33.8292 34.1047 33.6735C34.4641 33.5058 34.8115 33.5657 35.099 33.8412C35.6141 34.3323 36.1172 34.8474 36.6323 35.3626C37.0276 35.7579 37.4229 36.1412 37.8063 36.5365C37.962 36.7042 38.0818 36.7162 38.2974 36.6323C40.0823 35.8777 42.0708 36.7761 42.6578 38.573C43.2448 40.3579 42.1906 42.2506 40.3458 42.7178C38.3453 43.2329 36.3807 41.6876 36.3568 39.5912Z" fill="black"/>
<path d="M32.0682 15.2136C31.5771 15.5729 31.1458 15.5969 30.7865 15.2735C30.4271 14.938 30.4151 14.4828 30.7505 13.9558C31.2656 13.6443 31.6729 13.6443 32.0083 13.9677C32.3318 14.2912 32.3557 14.7104 32.0682 15.2136Z" fill="#010101"/>
<path d="M6.42083 38.1537C7.21145 38.1537 7.84635 38.7886 7.84635 39.5792C7.84635 40.3698 7.22343 41.0167 6.43281 41.0287C5.64218 41.0407 4.97135 40.3818 4.98333 39.5792C4.99531 38.7766 5.6302 38.1537 6.42083 38.1537Z" fill="#A0D7C1"/>
<path d="M2.69531 22.1016C3.18646 22.1016 3.60573 22.5328 3.59375 23.024C3.58177 23.5031 3.17448 23.8984 2.69531 23.8984C2.20417 23.8984 1.7849 23.4672 1.80886 22.976C1.80886 22.4969 2.21615 22.1016 2.69531 22.1016Z" fill="#F0CA72"/>
<path d="M23.8984 43.2927C23.9104 43.7839 23.4912 44.2031 23 44.2031C22.5208 44.2031 22.1135 43.8078 22.1135 43.3286C22.1016 42.8375 22.5208 42.4182 23.012 42.4182C23.4792 42.4062 23.8865 42.8135 23.8984 43.2927Z" fill="#F0CA72"/>
<path d="M39.5911 7.84634C38.8005 7.84634 38.1656 7.22342 38.1536 6.4328C38.1417 5.61821 38.8005 4.97134 39.6031 4.98332C40.3818 4.9953 41.0286 5.64217 41.0167 6.42082C41.0167 7.21144 40.3698 7.84634 39.5911 7.84634Z" fill="#A0D7C1"/>
<path d="M22.9641 3.59372C22.4729 3.56976 22.0776 3.13851 22.1016 2.63538C22.1375 2.15622 22.5568 1.77288 23.0359 1.79684C23.5271 1.8208 23.9344 2.25205 23.8984 2.75517C23.8625 3.23434 23.4432 3.6057 22.9641 3.59372Z" fill="#F0CA72"/>
<path d="M44.2031 23.024C44.1911 23.5151 43.7599 23.9224 43.2687 23.8984C42.7896 23.8745 42.4062 23.4672 42.4182 22.988C42.4302 22.4969 42.8615 22.0896 43.3526 22.1136C43.8198 22.1255 44.2151 22.5448 44.2031 23.024Z" fill="#F0CA72"/>
<path d="M31.8287 21.1313C31.8167 21.5146 31.649 21.7901 31.3016 21.9339C30.9302 22.0896 30.5948 22.0177 30.3073 21.7422C29.6964 21.1672 29.0495 20.6281 28.3307 20.1969C24.3297 17.813 19.3224 18.3521 15.9203 21.5266C15.3214 22.0896 14.8063 22.1495 14.4109 21.7302C14.0156 21.3109 14.1115 20.7839 14.6865 20.2208C19.3224 15.7885 26.8693 15.8484 31.4453 20.3406C31.6729 20.5682 31.8526 20.7958 31.8287 21.1313Z" fill="black"/>
<path d="M29.1813 23.8386C29.1453 24.138 29.0135 24.4016 28.7021 24.5693C28.4026 24.725 28.1031 24.725 27.8037 24.5453C27.6958 24.4735 27.588 24.3776 27.4922 24.2938C24.8568 21.8979 21.1073 21.8979 18.4599 24.3057C17.8609 24.8568 17.1422 24.7729 16.8787 24.138C16.699 23.7188 16.8307 23.3714 17.1422 23.0839C18.8672 21.4427 20.9156 20.6401 23.2875 20.724C25.3839 20.7958 27.2047 21.5745 28.75 23.012C29.0615 23.2755 29.1932 23.5271 29.1813 23.8386Z" fill="black"/>
<path d="M23.2635 24.4375C24.1979 24.4495 25.2641 24.8568 26.1625 25.6833C26.6057 26.0906 26.6536 26.6536 26.2943 27.037C25.9469 27.4203 25.4318 27.4083 24.9766 27.037C23.6948 25.9708 22.3172 25.9589 21.0474 27.025C20.5682 27.4203 20.0531 27.4203 19.6937 27.025C19.3464 26.6297 19.4063 26.1026 19.8615 25.6833C20.688 24.8807 21.826 24.4375 23.2635 24.4375Z" fill="black"/>
<path d="M23.012 28.175C23.5031 28.175 23.8984 28.5584 23.8984 29.0495C23.9104 29.5527 23.4911 29.9599 22.988 29.948C22.4849 29.948 22.0776 29.5287 22.1016 29.0256C22.1135 28.5464 22.5208 28.175 23.012 28.175Z" fill="#000101"/>
<path d="M7.84635 6.43279C7.84635 7.22342 7.21145 7.84634 6.42083 7.84634C5.6302 7.84634 4.99531 7.21144 4.98333 6.43279C4.97135 5.63019 5.64218 4.97134 6.44479 4.98332C7.23541 4.99529 7.85833 5.64217 7.84635 6.43279Z" fill="#E57D94"/>
<path d="M38.1536 39.5911C38.1417 38.7885 38.7646 38.1656 39.5552 38.1536C40.3578 38.1416 41.0167 38.7885 41.0167 39.5911C41.0167 40.3698 40.3698 41.0166 39.5911 41.0166C38.8005 41.0166 38.1656 40.3817 38.1536 39.5911Z" fill="#E57D94"/>
</g>
<defs>
<clipPath id="clip0_47_6418">
<rect width="46" height="46" fill="white"/>
</clipPath>
</defs>
</svg>
