<svg width="122" height="93" viewBox="0 0 122 93" fill="none" xmlns="http://www.w3.org/2000/svg">
<g clip-path="url(#clip0_533_8507)">
<path d="M3.604 91.3679C2.82959 93.3561 1.45947 93.5342 0 91.8427C0 86.2342 0 80.5961 0 74.9876C0.238281 74.9282 0.238281 74.6908 0.268066 74.5128C1.13184 71.7827 2.94873 70.0022 5.71875 69.2307C7.89307 68.6075 10.0376 67.9844 12.2417 67.3909C13.0459 67.1832 13.3735 66.7677 13.4033 65.9072C13.4629 64.6015 13.1353 63.7112 12.0928 62.7913C9.0249 60.0316 7.59521 56.441 7.68457 52.3162C7.71435 50.7138 7.4165 49.2597 6.70166 47.776C3.63379 41.2179 8.57812 32.9981 15.8457 32.5233C21.4751 32.1375 27.1045 32.4343 32.7637 32.4046C33.7764 32.4046 34.0146 32.0782 34.0742 31.1583C34.3125 27.0929 34.6103 23.0571 35.7124 19.0807C39.0186 7.32962 49.0561 -0.207716 61.2978 0.0296803C68.9526 0.178053 75.5649 2.73006 80.688 8.57595C84.7685 13.2348 86.7939 18.784 87.4492 24.8376C88.0151 30.2977 88.4619 35.7578 88.9385 41.2179C89.3555 41.1289 89.4746 40.8322 89.5937 40.5651C90.5171 38.7846 91.7383 37.2416 93.2871 35.9655C93.6147 35.6985 93.9722 35.4908 93.853 34.9269C92.8701 30.9802 95.4018 27.1522 99.0356 25.6091C103.503 23.6803 108.984 25.3124 111.396 29.4371C112.32 31.0099 112.707 32.7607 112.29 34.5708C112.141 35.2534 112.35 35.6391 112.856 36.0842C118.187 40.6245 119.677 47.865 116.579 54.156C116.311 54.7199 116.103 55.3133 115.983 55.9365C115.358 58.904 113.898 61.3966 111.545 63.2958C110.771 63.919 110.622 64.5718 110.533 65.462C110.294 67.2722 110.979 68.2514 112.677 68.8746C114.375 69.5275 115.954 70.4474 117.592 71.2486C120.57 72.762 122.06 75.1656 122.06 78.4892C122.06 82.5546 122.06 86.6497 122.06 90.7151C122.06 92.1098 121.553 92.911 120.481 93C119.349 93.1187 118.724 92.4362 118.456 91.3976C118.039 90.8931 118.128 90.27 118.128 89.7061C118.128 86.1155 118.128 82.5249 118.128 78.9343C118.128 77.9253 118.009 76.9758 117.473 76.0855C116.788 75.1359 115.745 74.7205 114.762 74.216C113.66 73.6819 112.528 73.1477 111.456 72.5543C110.652 72.1091 110.086 72.2575 109.46 72.8807C108.031 74.3051 106.482 75.4624 104.397 75.7888C101.627 76.2339 99.3335 75.314 97.3379 73.5038C96.9507 73.1477 96.623 72.762 96.206 72.4652C95.4018 71.9014 94.7466 72.4356 94.1509 72.851C93.4956 73.2664 94.0019 73.7412 94.2402 74.1864C95.1338 75.7591 95.6103 77.4802 95.6401 79.2904C95.7295 83.0294 95.6699 86.798 95.6699 90.5667C95.6699 90.7744 95.6401 90.9525 95.5806 91.1602C95.521 91.2789 95.4614 91.3679 95.3721 91.4569C95.0742 92.3768 94.5679 93.089 93.4956 93.0594C92.4531 93.0297 91.917 92.3472 91.7085 91.3679C91.3511 90.8931 91.4404 90.2996 91.4404 89.7655C91.4404 86.62 91.4106 83.4745 91.4404 80.329C91.4702 78.1331 90.9341 76.2042 89.1768 74.7502C87.8066 73.7116 86.1089 73.2961 84.5898 72.5543C82.8623 71.7234 81.105 71.0409 79.3774 70.21C78.4839 69.7945 77.9477 69.9726 77.4414 70.8331C74.4331 75.7888 69.9951 78.6969 64.3061 79.7652C56.8003 81.1599 48.6987 77.5693 44.7671 71.0705C43.9629 69.7648 43.8735 69.7352 42.5034 70.3287C39.7632 71.5453 36.9932 72.7916 34.2231 73.949C33.7466 74.1567 33.2998 74.3941 32.9126 74.7502C31.1851 76.1745 30.6191 78.0737 30.6489 80.24C30.6787 83.4151 30.6489 86.62 30.6489 89.7952C30.6489 90.3293 30.7383 90.8931 30.3809 91.3976C30.1724 92.4065 29.6064 93.089 28.564 93.089C27.4321 93.089 26.9556 92.2581 26.7173 91.2492C26.3301 90.7744 26.3896 90.2106 26.3896 89.6468C26.3896 86.4123 26.3896 83.1777 26.3896 79.9135C26.3896 77.0945 27.1343 74.5128 29.2192 72.4652C29.7554 71.9311 29.7852 71.6343 28.981 71.3079C27.9087 70.8628 27.1641 71.0705 26.2109 71.8421C23.6792 73.8599 22.6367 76.2636 22.9346 79.5574C23.2324 82.9403 22.9941 86.3529 22.9941 89.7358C22.9941 90.3293 22.9941 90.9228 22.6963 91.4569C22.4878 92.4659 21.8623 93.089 20.8496 93.0594C19.7476 93.0297 19.271 92.2285 19.0625 91.2195C18.6455 90.7151 18.7646 90.0919 18.7646 89.4984C18.7646 85.1956 18.7349 80.8928 18.7646 76.5603C18.7646 75.5514 18.4966 74.7205 17.7222 74.038C16.8286 73.2368 16.0244 72.3762 15.1904 71.5453C14.7734 71.1299 14.2969 70.9222 13.7012 71.1002C11.3779 71.753 9.0249 72.3762 6.73144 73.1181C6.04639 73.3258 5.4209 73.6819 4.91455 74.216C4.16992 75.225 3.96143 76.3526 3.99121 77.5693C3.99121 81.605 3.99121 85.6111 3.99121 89.6468C3.93164 90.1809 4.021 90.8338 3.604 91.3679Z" fill="black"/>
<path d="M32.8828 74.305C33.3594 73.8599 33.9551 73.6522 34.521 73.3851C37.3506 72.1388 40.1802 70.9221 42.98 69.6461C43.7246 69.3197 44.082 69.29 44.5288 70.0912C46.8818 74.2457 50.3667 77.0648 54.894 78.6672C62.9658 81.5456 72.6758 78.0737 77.0542 70.7441C77.9478 69.2604 77.9478 69.2604 79.5859 69.9726C82.1475 71.1002 84.7388 72.2278 87.3003 73.3554C87.896 73.6225 88.5513 73.8302 89.0576 74.305C89.415 74.8392 88.9683 75.1359 88.6704 75.403C86.5557 77.5396 84.4111 79.6761 82.2666 81.783C81.8794 82.1688 81.4624 82.4062 80.8965 82.3468C79.1987 82.2281 78.7222 82.6436 78.6924 84.3054C78.6626 86.1748 78.6924 88.0147 78.6626 89.8842C78.6626 90.359 78.7817 90.9228 78.2158 91.2492C72.0801 91.2492 65.9443 91.2195 59.8086 91.2195C54.4175 91.2195 49.0562 91.2492 43.665 91.2492C43.0991 90.9524 43.2183 90.3886 43.2183 89.8842C43.1885 88.0147 43.2183 86.1748 43.1885 84.3054C43.1587 82.6436 42.6821 82.2281 40.9844 82.3468C40.3291 82.4062 39.8823 82.0501 39.4355 81.6346C37.3804 79.5871 35.2954 77.5396 33.27 75.4623C33.0317 75.1656 32.5254 74.8985 32.8828 74.305Z" fill="#00C2FE"/>
<path d="M4.76562 73.8302C5.27197 73.0884 6.07617 72.851 6.88037 72.6136C9.2334 71.9311 11.5864 71.2782 13.9395 70.566C14.416 70.4177 14.7437 70.477 15.1011 70.8628C16.2925 72.0794 17.4839 73.2961 18.7051 74.4831C18.9731 74.7501 19.0923 75.0469 19.0923 75.403C19.0625 80.6554 19.0625 85.9078 19.0327 91.1602C16.8882 91.1602 14.7437 91.1602 12.5991 91.1602C12.1226 91.1602 11.646 91.1008 11.229 91.3976C10.7227 90.9228 10.8418 90.2996 10.8418 89.7358C10.812 86.6793 10.8716 83.6525 10.812 80.596C10.7822 79.1717 10.4844 78.8156 9.11426 78.4298C8.10156 78.2221 7.56543 77.3615 6.88037 76.7383C6.28467 76.1745 5.68896 75.581 5.12304 74.9579C4.88476 74.6315 4.43799 74.3644 4.76562 73.8302Z" fill="#D4DBEC"/>
<path d="M32.8828 74.3051C32.8828 74.6611 33.1211 74.8689 33.3296 75.1063C35.5039 77.2725 37.708 79.4684 39.8823 81.6347C40.1504 81.9017 40.3887 82.1391 40.7759 82.1391C40.1206 84.7505 40.4185 87.4212 40.3291 90.0622C40.3291 90.4777 40.3291 90.9228 39.9717 91.2789C36.7251 91.2789 33.5083 91.2789 30.2617 91.2789C30.2617 87.1838 30.2022 83.059 30.2617 78.964C30.3511 77.0351 31.1553 75.3733 32.8828 74.3051Z" fill="#00A9EF"/>
<path d="M81.1943 82.1688C81.5815 82.1391 81.8496 81.9017 82.0879 81.6643C84.2622 79.4684 86.4663 77.3022 88.6406 75.1359C88.8789 74.8985 89.1172 74.6908 89.0874 74.3347C90.8149 75.4327 91.6191 77.0648 91.6489 78.9936C91.7085 83.0887 91.6489 87.2135 91.6191 91.3086C88.3726 91.3086 85.1558 91.3086 81.9092 91.3086C81.4922 90.8931 81.5815 90.359 81.5518 89.8545C81.522 88.5488 81.4922 87.2728 81.5518 85.9671C81.7007 84.6615 81.3433 83.4151 81.1943 82.1688Z" fill="#00A9EF"/>
<path d="M22.6665 91.3679C22.6665 86.1155 22.6665 80.8631 22.6367 75.5811C22.6367 75.0173 22.8154 74.6315 23.2324 74.2457C24.3643 73.1478 25.5259 72.0498 26.5981 70.8925C27.1045 70.3584 27.5215 70.3287 28.147 70.5957C28.8916 70.9222 29.6958 71.1299 30.5 71.3673C30.3809 71.8421 29.9639 71.9905 29.6958 72.2575C27.6406 74.2457 26.7471 76.7087 26.7471 79.4981C26.7471 83.3855 26.7173 87.2432 26.6875 91.1305C25.3472 91.2789 23.9771 90.8931 22.6665 91.3679Z" fill="#D4DBEC"/>
<path d="M4.76563 73.8303C5.80811 75.5514 7.38672 76.7384 8.81641 78.0737C7.71436 79.6761 7.98242 81.516 7.98242 83.2964C7.98242 85.4627 7.98242 87.6289 7.98242 89.7952C7.98242 90.3293 8.07178 90.9228 7.625 91.3382C6.28467 91.3382 4.94434 91.3382 3.604 91.3382C3.604 86.4716 3.57422 81.605 3.604 76.7384C3.604 75.6701 3.8125 74.6018 4.76563 73.8303Z" fill="#C6CEE1"/>
<path d="M117.473 75.6701C118.217 76.3823 118.396 77.3022 118.396 78.2518C118.396 82.6139 118.396 87.0057 118.366 91.3679C117.026 91.3679 115.686 91.3679 114.345 91.3679C113.898 90.9228 113.988 90.359 113.988 89.8248C113.958 87.5399 113.988 85.255 113.988 82.97C113.988 81.8721 113.601 81.0708 112.469 80.7147C112.082 80.5367 112.111 80.2993 112.379 80.0026C113.839 78.2518 115.596 76.8867 117.473 75.6701Z" fill="#C6CEE1"/>
<path d="M7.625 91.3679C7.625 87.718 7.65479 84.0977 7.625 80.4477C7.625 79.4091 7.89307 78.5782 8.84619 78.0737C10.6333 78.0441 11.1992 78.6079 11.229 80.3587C11.229 84.0383 11.2588 87.6883 11.2588 91.3679C11.0503 92.3175 10.4844 92.9407 9.50146 92.9703C8.4292 93 7.86328 92.3175 7.625 91.3679Z" fill="black"/>
<path d="M112.23 80.418C113.809 80.5367 114.345 81.0708 114.345 82.6139C114.375 85.522 114.375 88.4598 114.375 91.3679C114.107 92.3175 113.541 93 112.499 92.9703C111.516 92.9406 110.979 92.2878 110.741 91.3679C110.652 91.2492 110.563 91.1305 110.533 90.9821C110.294 88.074 110.384 85.1956 110.473 82.2875C110.533 81.0412 111.188 80.4773 112.23 80.418Z" fill="black"/>
<path d="M40.0312 91.3086C40.061 88.994 40.0908 86.6497 40.0908 84.3351C40.0908 83.5042 40.2397 82.7623 40.8355 82.1688C42.6523 81.516 43.665 82.1688 43.6948 84.0976C43.7246 86.4716 43.7246 88.8753 43.7544 91.2492C43.5757 92.2285 43.0396 92.9407 41.9971 92.9703C40.8355 93.0297 40.3589 92.2285 40.0312 91.3086Z" fill="#000101"/>
<path d="M81.1943 82.1688C81.79 82.792 81.939 83.5338 81.939 84.335C81.939 86.6497 81.9687 88.9939 81.9985 91.3086C81.6709 92.2581 81.1943 93.0594 80.0625 93C79.02 92.9407 78.4839 92.2581 78.3052 91.2789C78.335 88.8752 78.335 86.5013 78.3647 84.1273C78.3647 82.1391 79.3477 81.4863 81.1943 82.1688Z" fill="#000101"/>
<path d="M110.741 91.1305C110.741 91.2196 110.741 91.2789 110.741 91.3679C105.588 91.3679 100.436 91.3679 95.2827 91.3679C95.2827 91.2789 95.2827 91.2196 95.3125 91.1305C95.7593 90.7151 96.3252 90.7448 96.8911 90.7448C101.001 90.7448 105.082 90.7448 109.192 90.7448C109.729 90.7448 110.324 90.6854 110.741 91.1305Z" fill="#E9DED7"/>
<path d="M51.2305 5.66785C53.0474 4.59956 55.0728 4.18412 57.0981 3.88738C62.2808 3.08616 67.3145 3.739 71.9907 6.17231C78.0669 9.37716 81.4624 14.6296 83.1602 21.0986C83.9346 23.977 84.0835 26.9445 84.3218 29.8823C84.7983 35.5501 85.2749 41.1883 85.9302 46.8561C86.4067 51.0105 86.9131 55.165 87.5981 59.2897C87.6875 59.7942 87.5386 60.091 87.0918 60.358C83.9346 62.2572 80.5391 63.5629 77.0244 64.5125C75.0884 65.0466 72.3779 62.8507 72.3779 60.8328C72.3779 59.171 72.1099 57.4499 72.4673 55.8772C72.8247 54.2451 74.7607 53.7406 75.8628 52.5833C79.3774 48.8146 81.4624 44.5118 81.79 39.3485C81.9092 37.5383 81.9985 35.7282 81.8198 33.918C81.5815 31.4847 80.3008 29.7339 78.4541 28.2798C72.7949 23.8583 66.3315 21.336 59.332 19.971C57.0684 19.5259 54.7749 18.9027 52.4219 19.2588C51.9155 19.1698 51.6177 18.784 51.3198 18.4279C48.6987 15.4011 48.2222 10.2971 50.2178 6.82515C50.4561 6.35036 50.8135 5.99427 51.2305 5.66785Z" fill="#694B4B"/>
<path d="M77.7393 32.7013C78.0669 33.0278 78.1563 33.4432 78.2158 33.8883C79.1094 42.1378 76.4585 49.7345 68.0591 53.6516C64.4253 55.343 60.6128 55.6694 56.7407 54.5715C55.043 53.0877 54.4771 50.9809 53.8218 48.9927C53.2856 47.3309 53.0771 45.6098 53.0771 43.859C53.0771 40.1793 53.0771 36.4997 53.0771 32.8497C53.0771 32.4046 53.0772 31.9892 53.1069 31.544C53.3154 29.1404 54.8047 27.7754 57.2471 27.6863C61.417 27.5083 65.438 28.4579 69.4292 29.4965C71.5439 30.0306 73.5991 30.7131 75.6245 31.544C76.3691 31.7814 77.084 32.1672 77.7393 32.7013Z" fill="#EFBF86"/>
<path d="M51.2305 5.66785C50.0093 7.62637 49.2349 9.70358 49.2944 12.1072C49.354 14.6296 50.2773 16.7364 51.9155 18.6059C52.0942 18.8137 52.2432 19.0214 52.4219 19.2588C51.29 20.5941 51.3496 21.3657 52.6601 22.612C52.5708 23.8287 52.0942 24.8079 50.9922 25.4311C49.354 24.4222 48.3413 24.7189 47.6562 26.44C46.9116 28.3392 45.7202 29.9713 43.9927 30.9802C40.7461 32.8497 39.8227 35.4908 40.1504 39.1407C40.5674 43.6809 42.0268 47.6573 44.8564 51.1589C45.9883 52.5833 47.2988 53.8593 48.8476 54.8682C49.4136 55.254 49.6221 55.6991 49.5923 56.352C49.5625 58.0434 49.5625 59.7645 49.5923 61.456C49.6221 62.4352 49.1455 62.9991 48.3115 63.5035C46.5244 64.5718 44.7969 64.7202 42.8013 63.9486C40.1504 62.91 37.4697 61.9308 34.9976 60.4767C34.4316 60.1206 34.3125 59.7942 34.4018 59.1414C35.1465 54.5121 35.6826 49.8532 36.2187 45.1943C36.8442 39.6749 37.2612 34.1257 37.7676 28.6063C38.0356 25.5201 38.3335 22.4933 39.2568 19.5259C41.1333 13.68 44.5288 9.05074 50.0688 6.17231C50.4858 5.90524 50.873 5.81622 51.2305 5.66785Z" fill="#5A4146"/>
<path d="M110.741 91.1305C105.588 91.1305 100.465 91.1305 95.3125 91.1305C95.2827 87.4509 95.2529 83.7712 95.2827 80.1213C95.2827 77.7473 94.8955 75.492 93.4063 73.5335C93.0786 73.1181 93.1084 72.9104 93.585 72.6433C95.6401 71.4563 95.6104 71.4266 97.3379 73.0587C100.942 76.4713 105.082 76.4713 108.746 73.0587C110.324 71.6047 110.324 71.6047 112.26 72.5543C113.422 73.1477 114.613 73.6819 115.775 74.3051C116.43 74.6611 117.145 74.9579 117.502 75.6701C117.205 76.3526 116.52 76.679 115.954 77.0648C114.583 78.0441 113.541 79.3497 112.26 80.3883C111.188 80.7148 110.801 81.4566 110.801 82.5249C110.801 85.4033 110.771 88.2818 110.741 91.1305Z" fill="#D4DBEC"/>
<path d="M50.9922 25.3717C51.707 24.5409 52.1538 23.5319 52.6602 22.5527C61.3276 23.4132 69.459 25.6982 76.4287 31.1879C76.9648 31.6034 77.5308 31.9892 77.7393 32.6717C75.9224 31.9892 74.165 31.2176 72.3184 30.6538C67.374 29.1107 62.3999 27.7754 57.1279 27.9534C54.9238 28.0128 53.4346 29.3481 53.4048 31.544C53.3452 36.0546 53.2559 40.5651 53.4346 45.046C53.5537 48.1024 54.5366 50.9809 56.2344 53.5922C56.4131 53.889 56.7407 54.1264 56.7109 54.5121C51.6177 53.2955 48.0137 50.2093 45.5713 45.6691C44.082 42.8797 43.6353 39.8529 43.665 36.7371C43.665 35.6095 44.2905 34.9269 45.1841 34.3928C47.8052 32.7607 49.8008 30.5945 50.9922 27.716C51.3198 26.9742 51.3794 26.173 50.9922 25.3717Z" fill="#E5AE78"/>
<path d="M68.8037 62.4056C69.3696 64.9279 71.0376 66.4413 73.4204 67.2129C74.4927 67.5689 74.6714 67.925 74.0161 68.9933C68.0889 78.6079 53.4048 78.4002 47.7158 68.5779C47.3286 67.8954 47.4478 67.658 48.1328 67.4206C50.605 66.56 52.6006 65.195 53.1665 62.4352C53.1367 61.4857 53.5835 61.2186 54.477 61.4857C58.7959 62.6726 63.1445 62.6726 67.4634 61.4857C68.4165 61.1889 68.8335 61.456 68.8037 62.4056Z" fill="#E5AE78"/>
<path d="M30.5 51.2479C30.8574 55.165 29.8149 58.5182 26.5386 60.9515C23.5303 63.2068 18.9434 63.3552 15.9648 61.2186C15.1011 60.269 14.9521 59.1117 14.9224 57.9247C14.8628 56.352 14.8926 54.7792 14.9224 53.2065C14.9819 50.8325 16.6499 48.9927 19.0327 49.052C22.6367 49.141 26.2109 49.6455 29.666 50.6248C30.0234 50.7435 30.3213 50.8918 30.5 51.2479Z" fill="#EFBF86"/>
<path d="M11.4375 38.4285C13.1055 36.4403 15.3691 35.9062 17.8115 35.8765C22.3091 35.8172 26.8364 35.8765 31.334 35.8468C32.2573 35.8468 32.4658 36.1436 32.436 37.0042C32.3765 38.9627 32.3765 40.9509 32.436 42.9094C32.4658 44.7492 31.9595 46.3813 31.0063 47.9541C29.9937 47.3606 28.9512 46.7967 28.147 45.9065C27.998 44.7789 27.2832 44.2151 26.2705 43.8293C23.6494 42.85 20.8794 42.5533 18.1094 42.3159C17.752 42.2862 17.3945 42.3456 17.0371 42.3159C15.6372 42.1082 14.3862 42.3456 13.314 43.3248C11.4077 42.4939 10.6333 40.5651 11.4375 38.4285Z" fill="#694B4B"/>
<path d="M97.6953 37.3009C103.474 33.918 111.724 37.1229 113.898 43.5622C114.703 45.9955 114.881 48.3992 114.018 50.8918C113.124 50.5357 112.588 49.7345 111.873 49.2301C108.299 46.6781 104.308 45.1053 100.108 43.9777C99.6016 43.8293 99.0059 43.948 98.4399 43.948C98.023 44.1557 97.7847 43.8886 97.5464 43.5919C96.2954 41.9598 96.355 38.844 97.6953 37.3009Z" fill="#694B4B"/>
<path d="M111.784 56.9751C110.592 60.447 106.363 63.1177 102.64 62.7913C101.15 62.6429 99.6611 62.4352 98.3804 61.545C96.9209 59.9426 96.9507 57.9544 96.9805 55.9662C96.9805 55.4024 97.3974 55.0463 97.8144 54.7198C98.8569 53.9186 99.7803 52.9987 100.495 51.8711C100.882 51.3073 101.329 50.9512 102.103 51.2183C105.499 52.4349 108.656 54.067 111.426 56.3816C111.605 56.53 111.754 56.708 111.784 56.9751Z" fill="#EFBF86"/>
<path d="M28.3555 46.0252C29.3384 46.5297 30.3511 47.0045 31.0063 47.9244C30.4404 48.963 30.5596 50.1203 30.4702 51.2183C27.5215 50.2983 24.5132 49.7642 21.4155 49.5565C20.6709 49.4971 19.9263 49.3488 19.1816 49.3488C16.7988 49.3191 15.1904 50.9215 15.2202 53.2658C15.25 55.9365 14.8926 58.6369 15.9351 61.2186C12.6289 59.2007 11.3481 56.0849 11.1694 52.3756C11.1099 51.0402 11.4077 49.6752 10.9014 48.3695C10.6929 48.1024 10.812 47.8057 10.9609 47.598C11.8247 46.4703 12.5395 45.1053 14.1777 44.8382C16.1436 45.3724 18.1987 45.0756 20.1645 45.4317C21.9219 45.7581 23.709 45.9065 25.3472 46.6187C26.5684 47.1232 27.4619 46.678 28.3555 46.0252Z" fill="#E5AE78"/>
<path d="M111.784 56.9751C109.46 55.1947 107.018 53.5922 104.337 52.4349C104.278 52.4052 104.188 52.3459 104.129 52.3162C103.325 51.9898 102.55 51.4853 101.716 51.3963C100.644 51.2776 100.644 52.5536 100.019 53.0878C99.4824 53.5626 99.0952 54.2451 98.4697 54.5418C97.1294 55.2243 97.0698 56.352 97.2783 57.5686C97.4868 58.9336 97.7251 60.269 98.4102 61.5153C95.8486 60.2393 94.4189 58.1028 93.6743 55.4321C93.4956 54.7495 93.3169 54.067 93.1382 53.3845C93.1382 52.0492 94.7168 50.5061 96.0273 50.5358C97.2485 51.3666 97.9634 51.2776 98.8867 50.2093C99.3633 49.6455 99.8696 49.0817 100.167 48.3695C100.376 47.865 100.674 47.7463 101.18 47.9244C104.784 49.1707 108.299 50.5654 111.158 53.2065C112.677 54.6605 112.767 55.165 111.784 56.9751Z" fill="#E5AE77"/>
<path d="M91.5 59.5568C92.2148 61.0108 93.1977 62.2572 94.5083 63.1771C95.3423 63.8003 95.4912 64.5124 95.5806 65.462C95.7593 67.1535 95.0444 67.8953 93.6147 68.7856C90.9639 70.4474 88.6108 70.477 85.9897 68.8746C84.6792 68.0734 83.1304 67.5689 81.4922 66.8567C84.3218 65.8478 86.7642 64.6905 89.0874 63.2958C90.0703 62.7023 90.9043 62.0198 91.083 60.8031C91.3809 60.447 90.7256 59.7645 91.5 59.5568Z" fill="#FEFEFE"/>
<path d="M68.8037 62.4055C68.6846 61.6637 68.2378 61.5747 67.5825 61.7527C63.2041 62.999 58.7959 62.999 54.4175 61.7527C53.7622 61.5747 53.3154 61.6637 53.1963 62.4055C53.1963 61.0108 53.2559 59.6458 53.2261 58.2511C53.2261 57.5092 53.3452 57.2718 54.1494 57.5389C58.7065 59.1117 63.2935 59.1117 67.8804 57.5389C68.7144 57.2422 68.8335 57.5092 68.8037 58.2511C68.7739 59.6458 68.8037 61.0405 68.8037 62.4055Z" fill="#D19A6D"/>
<path d="M95.9975 50.5654C94.8061 51.2776 93.5849 51.9601 93.1084 53.4142C90.4277 48.6959 91.0234 43.2952 94.7168 39.4375C95.5508 38.5769 96.5039 37.746 97.6953 37.3009C96.8315 39.2297 96.623 41.1883 97.6655 43.1171C97.8442 43.4435 97.9336 43.859 98.4399 43.8886C97.9038 44.3041 97.5166 44.8086 97.3974 45.5208C97.2187 46.411 96.8315 47.2122 96.1763 47.8947C95.4018 48.7256 95.2827 49.6158 95.9975 50.5654Z" fill="#5A4146"/>
<path d="M31.0659 61.5153C32.2275 63.2661 33.9551 63.8596 35.5039 64.7202C37.0229 65.5511 38.6611 66.1445 40.4185 66.9161C38.7803 67.6579 37.2017 68.3405 35.623 69.023C35.5039 69.0823 35.2954 69.023 35.1763 68.9933C33.2104 68.3998 31.2446 67.8063 29.2788 67.2425C28.564 67.0348 28.4448 66.649 28.3555 65.9665C28.2363 64.6311 28.564 63.6222 29.7852 62.91C30.2617 62.5836 30.5894 62.0198 31.0659 61.5153Z" fill="#FEFEFE"/>
<path d="M99.2441 65.8181C101.776 66.5006 104.308 66.5006 106.869 65.7885C107.107 67.925 107.763 70.0913 105.231 71.3969C103.801 72.1388 102.491 72.1982 101.031 71.5156C98.4102 70.299 98.8569 68.1031 99.2441 65.8181Z" fill="#E5AE77"/>
<path d="M16.918 66.7381C16.7393 65.7885 17.1563 65.7291 18.02 65.9665C19.8965 66.5007 21.773 66.4116 23.6494 66.0259C24.0068 65.9665 24.6025 65.6104 24.6919 65.9665C24.8408 66.5007 25.1982 67.2128 24.6621 67.747C23.5303 68.9043 22.3687 70.0319 21.2368 71.1892C20.9092 71.5157 20.7007 71.397 20.4624 71.1299C19.3604 70.0319 18.2881 68.934 17.186 67.8657C16.8584 67.5689 16.8584 67.2128 16.918 66.7381Z" fill="#E5AE77"/>
<path d="M103.682 28.4579C106.273 28.5469 108.388 30.268 108.805 32.553C108.924 33.2058 108.924 33.5916 108.09 33.2355C106.452 32.553 104.695 32.5233 102.997 32.2859C102.401 32.4046 101.627 32.642 101.24 32.1375C100.793 31.544 101.24 30.8319 101.597 30.2977C102.074 29.4668 102.312 28.3095 103.682 28.4579Z" fill="#77544F"/>
<path d="M14.0884 45.0163C12.6885 45.8175 11.6162 46.9155 10.9609 48.3992C10.6333 47.7167 10.2759 47.0638 9.97803 46.3813C8.78662 43.6809 9.35254 40.5651 11.4673 38.4285C11.2886 40.3574 11.5269 42.0785 13.4033 43.1765C13.7012 43.77 13.999 44.3635 14.0884 45.0163Z" fill="#5A4146"/>
<path d="M103.682 28.4579C102.163 29.0514 101.806 30.4461 101.329 31.7518C101.21 32.0782 101.448 32.2562 101.806 32.2562C102.193 32.2562 102.58 32.2859 102.997 32.2859C101.121 32.5826 99.1548 32.6123 97.3677 33.4729C96.8911 30.5054 100.555 27.6567 103.682 28.4579Z" fill="#684A4A"/>
<path d="M91.5 59.5568C90.9937 59.8536 91.5298 60.4767 91.083 60.8031C91.083 60.358 90.9936 59.9129 91.083 59.5271C91.1724 59.0523 91.3809 59.171 91.5 59.5568Z" fill="#4B4B4B"/>
<path d="M14.0884 45.0163C13.6118 44.5118 13.2842 43.9183 13.3735 43.1765C13.9395 42.0785 14.833 41.8708 16.0244 41.9005C19.0625 41.9895 22.0708 42.2565 25.0195 43.0874C25.6152 43.2655 26.2109 43.5029 26.8066 43.7106C27.9087 44.0964 28.5044 44.8382 28.3555 46.0252C27.5811 47.2715 26.9556 47.5683 25.7344 47.0935C22.7856 45.9362 19.688 45.6691 16.5903 45.4911C15.7266 45.4614 14.833 45.5504 14.0884 45.0163Z" fill="black"/>
</g>
<defs>
<clipPath id="clip0_533_8507">
<rect width="122" height="93" fill="white"/>
</clipPath>
</defs>
</svg>
